<svg xmlns="http://www.w3.org/2000/svg" width="396" height="160.001" viewBox="0 0 396 160.001">
  <g id="img12" transform="translate(-185.711 -3288)">
    <rect id="Rectangle_455333" data-name="Rectangle 455333" width="396" height="160" transform="translate(185.711 3288)" fill="#cfde90"/>
    <g id="_10883221_4604114" data-name="10883221_4604114" transform="translate(216.887 3268.125)">
      <g id="OBJECTS" transform="translate(3.874 28.668)">
        <g id="Group_1179391" data-name="Group 1179391" transform="translate(0 12.912)">
          <path id="Path_1002412" data-name="Path 1002412" d="M298.4,175.222h0c0-3.507,4.341-6.35,9.7-6.35h14.624c17.573,0,31.819-9.33,31.819-20.839h0c0-11.509-14.246-20.839-31.819-20.839H285.386c-3.912,0-7.084-2.077-7.084-4.639h0c0-2.562,3.172-4.639,7.084-4.639h11.705c6.086,0,11.021-3.231,11.021-7.218h0c0-3.986-4.934-7.218-11.021-7.218H159.54c-7.173,0-12.986,3.808-12.986,8.505h0c0,4.7,5.814,8.505,12.986,8.505h.4c4.693,0,8.5,2.492,8.5,5.565h0c0,3.073-3.8,5.565-8.5,5.565H109.75c-7.173,0-12.986,3.808-12.986,8.505h0c0,4.7,5.814,8.505,12.986,8.505h28.363c7.7,0,13.946,4.089,13.946,9.134h0c0,5.044-6.244,9.134-13.946,9.134H106.477c-24.048,0-43.543,12.768-43.543,28.517h0c0,15.75,19.495,28.517,43.543,28.517H356.493c17.861,0,32.34-9.483,32.34-21.18h0c0-11.7-14.479-21.18-32.34-21.18h-48.4C302.739,181.572,298.4,178.729,298.4,175.222Z" transform="translate(-62.934 -91.12)" fill="#484e32"/>
          <path id="Path_1002413" data-name="Path 1002413" d="M158.868,111.87l-1.732-.257a8.387,8.387,0,0,0-.724-2.917l.01-.031,1.408-1.057a.713.713,0,0,0,.147-.993l-1.814-2.449a.705.705,0,0,0-.986-.148l-1.525,1.021a6.049,6.049,0,0,0-2.662-1.53V103.5l.4-1.708a.649.649,0,0,0-.571-.759l-2.978-.44c-.385-.057-.552.2-.609.586l-.248,1.734a8.546,8.546,0,0,0-2.944.72l-.045-.012-1.063-1.409a.717.717,0,0,0-1-.148l-2.451,1.814a.705.705,0,0,0-.149.986l1.032,1.47a7.053,7.053,0,0,0-1.518,2.606h-.008l-1.729-.276a.546.546,0,0,0-.687.509l-.445,3.008a.592.592,0,0,0,.5.746l1.732.255a8.2,8.2,0,0,0,.729,2.882l-.008.014-1.407,1.048a.708.708,0,0,0-.147.988l1.814,2.447a.7.7,0,0,0,.986.147l1.46-1.036a8.845,8.845,0,0,0,2.6,1.515v.008L144,122.934c-.057.385.063.755.448.812l3.019.447a.757.757,0,0,0,.833-.622l.09-1.761a5.252,5.252,0,0,0,2.683-.763v.006l1.209,1.435a.81.81,0,0,0,1.069.16l2.487-1.807a.7.7,0,0,0,.167-.982l-1.014-1.514a6.058,6.058,0,0,0,1.537-2.65h.008l1.715.355a.736.736,0,0,0,.884-.509l.442-2.988C159.634,112.169,159.253,111.927,158.868,111.87Zm-13.527,4.223c-.039-.025-.078-.05-.116-.076q-.176-.12-.339-.255-.082-.067-.159-.139t-.152-.146l-.073-.076a4.429,4.429,0,0,1-.386-.47,4.349,4.349,0,0,1-.318-.519c-.038-.072-.073-.145-.107-.219a4.387,4.387,0,0,1,1.555-5.452c.088-.058.177-.114.269-.166l.092-.051q.093-.05.188-.1a4.373,4.373,0,0,1,.591-.232c.068-.021.136-.041.205-.058a4.4,4.4,0,0,1,3.644.676q.087.062.17.127.125.1.242.205.078.071.152.146l.073.076q.072.077.141.156.1.12.2.247c.042.056.082.114.121.172a4.388,4.388,0,0,1,.267.454c.032.063.063.126.091.191s.056.129.082.195q.058.148.106.3a4.405,4.405,0,0,1-.148,3.008q-.042.1-.089.2-.07.146-.15.285-.053.093-.111.182-.038.06-.079.118c-.054.078-.11.154-.168.228q-.066.083-.135.163c-.037.042-.075.083-.113.124s-.068.072-.1.107l-.076.073c-.051.048-.1.1-.156.141l-.081.068c-.054.045-.109.087-.166.129l-.085.062q-.172.122-.355.226l-.092.051q-.093.05-.188.1t-.193.087l-.1.04c-.066.026-.132.05-.2.073a4.4,4.4,0,0,1-3.618-.37C145.426,116.146,145.383,116.119,145.341,116.093Z" transform="translate(-111.297 -89.205)" fill="#c6d4f7"/>
          <path id="Path_1002414" data-name="Path 1002414" d="M194.236,71.754l-1.02.127a4.915,4.915,0,0,0-.867-1.535v-.019l.63-.818a.418.418,0,0,0-.073-.584l-1.41-1.1a.413.413,0,0,0-.58.071l-.7.817a3.552,3.552,0,0,0-1.745-.447v0l-.044-1.028a.381.381,0,0,0-.442-.339l-1.752.219c-.227.028-.28.2-.252.427l.132,1.019a5.01,5.01,0,0,0-1.551.869h-.027l-.823-.63a.421.421,0,0,0-.586.073l-1.1,1.41a.413.413,0,0,0,.071.58l.814.669a4.138,4.138,0,0,0-.449,1.712h0l-1.02.116a.321.321,0,0,0-.308.4l.221,1.77a.347.347,0,0,0,.4.343l1.019-.128a4.8,4.8,0,0,0,.865,1.514l0,.009-.631.813a.415.415,0,0,0,.073.582l1.41,1.1a.414.414,0,0,0,.58-.072l.662-.815a5.188,5.188,0,0,0,1.706.449v0l.141,1.018c.028.227.154.417.381.389l1.776-.221a.445.445,0,0,0,.373-.482l-.226-1.01a3.076,3.076,0,0,0,1.4-.853v0l.909.621a.475.475,0,0,0,.629-.077l1.122-1.412a.413.413,0,0,0-.06-.581l-.811-.7a3.554,3.554,0,0,0,.452-1.739h0l1.025-.069c.227-.028.448-.2.42-.427l-.22-1.758C194.716,71.8,194.462,71.726,194.236,71.754Zm-6.982,4.512-.078-.025c-.079-.027-.156-.057-.232-.091-.038-.017-.075-.035-.112-.053s-.073-.038-.109-.059l-.053-.031a2.575,2.575,0,0,1-.292-.2,2.617,2.617,0,0,1-.261-.243c-.032-.035-.064-.071-.095-.107a2.574,2.574,0,0,1,.022-3.326q.06-.07.126-.136l.044-.044c.03-.029.06-.056.091-.084a2.591,2.591,0,0,1,.3-.224c.035-.023.071-.044.107-.065a2.581,2.581,0,0,1,2.166-.19c.039.014.078.029.116.045.057.024.113.05.169.078.037.019.073.038.109.059l.053.031c.035.021.07.043.1.066q.077.052.15.108c.032.025.064.051.1.078a2.563,2.563,0,0,1,.222.215q.042.046.081.093t.077.1q.056.074.107.153a2.582,2.582,0,0,1,.389,1.724c-.005.042-.012.084-.019.125-.011.062-.025.124-.04.185-.01.041-.022.081-.034.121s-.017.053-.026.079c-.018.052-.038.1-.059.155s-.033.076-.051.113-.029.059-.044.088-.027.051-.042.077l-.031.053c-.021.035-.043.07-.066.1l-.035.051c-.024.034-.048.067-.074.1l-.039.048q-.078.1-.165.183l-.044.043c-.03.029-.06.056-.091.084s-.063.054-.1.079l-.049.038c-.033.025-.067.049-.1.073a2.58,2.58,0,0,1-2.1.359Z" transform="translate(-118.704 -66.892)" fill="#c6d4f7"/>
          <path id="Path_1002415" data-name="Path 1002415" d="M156.331,406.12l-1.019.127a4.915,4.915,0,0,0-.867-1.535v-.019l.63-.819a.418.418,0,0,0-.073-.584l-1.41-1.1a.414.414,0,0,0-.581.071l-.7.817a3.552,3.552,0,0,0-1.745-.447v0l-.044-1.028a.381.381,0,0,0-.442-.34l-1.752.219c-.227.028-.28.2-.252.427l.132,1.019a5.009,5.009,0,0,0-1.551.87h-.027l-.823-.63a.421.421,0,0,0-.586.073l-1.1,1.41a.413.413,0,0,0,.071.58l.814.669a4.138,4.138,0,0,0-.449,1.712h0l-1.02.116a.321.321,0,0,0-.308.4l.221,1.77a.347.347,0,0,0,.4.343l1.019-.128a4.8,4.8,0,0,0,.865,1.514l0,.009-.631.813a.415.415,0,0,0,.072.582l1.41,1.1a.414.414,0,0,0,.58-.072l.662-.815a5.188,5.188,0,0,0,1.706.449v0l.141,1.018c.028.227.154.417.381.389l1.776-.221a.445.445,0,0,0,.373-.482l-.226-1.01a3.079,3.079,0,0,0,1.4-.853v0l.909.621a.475.475,0,0,0,.629-.077l1.122-1.412a.413.413,0,0,0-.06-.581l-.811-.7a3.554,3.554,0,0,0,.452-1.739h0l1.025-.069c.227-.028.448-.2.42-.427l-.22-1.759C156.811,406.169,156.558,406.092,156.331,406.12Zm-6.983,4.511-.078-.025c-.079-.027-.156-.057-.232-.091-.038-.017-.075-.035-.112-.053s-.073-.038-.109-.059l-.053-.031a2.584,2.584,0,0,1-.554-.448c-.032-.035-.064-.071-.095-.107a2.574,2.574,0,0,1,.022-3.326q.06-.07.126-.136l.044-.044c.03-.029.06-.056.091-.084a2.622,2.622,0,0,1,.3-.224c.035-.023.071-.044.107-.065a2.581,2.581,0,0,1,2.166-.19c.039.014.078.029.116.046.057.024.113.05.169.078.037.019.073.038.109.059l.053.031c.035.021.07.043.1.066q.077.052.15.108c.032.025.064.051.1.078a2.564,2.564,0,0,1,.222.215c.028.03.055.061.081.093s.052.064.077.1q.056.074.107.153a2.581,2.581,0,0,1,.389,1.723c-.005.042-.012.084-.019.125-.011.062-.025.124-.04.185-.01.041-.022.081-.034.121s-.017.053-.026.079c-.018.052-.038.1-.059.155s-.033.076-.051.113-.029.059-.044.088-.027.051-.042.077l-.031.053c-.021.035-.043.07-.066.1l-.035.051c-.024.034-.048.067-.073.1l-.039.048q-.078.1-.165.183l-.044.043c-.03.029-.06.056-.091.084s-.063.054-.1.079l-.049.038c-.033.025-.067.049-.1.073a2.58,2.58,0,0,1-2.1.359Z" transform="translate(-116.098 -288.308)" fill="#fff"/>
          <path id="Path_1002416" data-name="Path 1002416" d="M256.785,229.177l-.63.078a3.033,3.033,0,0,0-.536-.948v-.012l.389-.506a.258.258,0,0,0-.045-.361l-.871-.679a.256.256,0,0,0-.359.044l-.434.5a2.194,2.194,0,0,0-1.078-.276v0l-.027-.635a.235.235,0,0,0-.273-.21l-1.083.135c-.14.018-.173.124-.156.264l.082.63a3.1,3.1,0,0,0-.958.537h-.017l-.508-.389a.26.26,0,0,0-.362.045l-.68.872a.255.255,0,0,0,.044.359l.5.413a2.553,2.553,0,0,0-.277,1.058h0l-.631.072a.2.2,0,0,0-.191.245l.136,1.094a.215.215,0,0,0,.247.212l.63-.079a2.97,2.97,0,0,0,.534.936v.006l-.39.5a.256.256,0,0,0,.045.359l.871.679a.255.255,0,0,0,.358-.045l.409-.5a3.2,3.2,0,0,0,1.054.277v0l.087.629c.018.14.1.257.235.24l1.1-.137a.275.275,0,0,0,.231-.3l-.14-.624a1.9,1.9,0,0,0,.863-.527v0l.562.384a.293.293,0,0,0,.389-.048l.693-.873a.255.255,0,0,0-.037-.359l-.5-.43a2.194,2.194,0,0,0,.279-1.075h0l.633-.043c.14-.018.277-.124.259-.263l-.135-1.086C257.082,229.207,256.925,229.159,256.785,229.177Zm-4.314,2.788-.048-.015c-.049-.017-.1-.035-.143-.056l-.069-.033-.067-.036-.033-.019a1.6,1.6,0,0,1-.18-.126,1.583,1.583,0,0,1-.161-.15c-.02-.022-.04-.044-.059-.066a1.6,1.6,0,0,1-.153-.218,1.591,1.591,0,0,1,.167-1.837c.025-.029.051-.057.078-.084l.027-.027.056-.052a1.632,1.632,0,0,1,.184-.138l.066-.04a1.595,1.595,0,0,1,1.338-.117l.072.028c.035.015.07.031.1.048l.067.036.033.019.065.041c.032.021.063.044.093.067l.059.048a1.591,1.591,0,0,1,.137.133c.017.019.034.038.05.058l.048.06c.023.031.045.062.066.095a1.594,1.594,0,0,1,.24,1.065c0,.026-.007.052-.012.077s-.015.077-.025.114-.014.05-.021.075-.01.033-.016.049c-.011.032-.023.065-.036.1s-.02.047-.031.07l-.027.054-.026.047-.019.033c-.013.022-.027.043-.041.065l-.022.031c-.015.021-.03.041-.045.061l-.024.03q-.048.059-.1.113l-.027.027-.056.052-.059.049-.03.024-.062.045a1.594,1.594,0,0,1-1.3.222Z" transform="translate(-151.496 -172.367)" fill="#fff"/>
          <path id="Path_1002417" data-name="Path 1002417" d="M71.887,262.215H91.31s-1.04-6.164-5.054-3.9c0,0-.611-5.5-5.846-5.585s-4.276,6.282-4.276,6.282S71.742,258.083,71.887,262.215Z" transform="translate(-68.86 -189.957)" fill="#c6d4f7"/>
          <path id="Path_1002418" data-name="Path 1002418" d="M625.837,310.039h13.5s-.723-4.285-3.513-2.708c0,0-.425-3.822-4.064-3.882s-2.972,4.368-2.972,4.368S625.736,307.167,625.837,310.039Z" transform="translate(-323.226 -223.539)" fill="#c6d4f7"/>
          <path id="Path_1002419" data-name="Path 1002419" d="M600.579,102.892s-1.247-8.241-6.1-8.152-4.989,8.063-4.989,8.063-1.47-7.216-6.593-6.325-5.657,7.617-5.657,7.617c-4.232-1.96-5.258,2.81-5.258,2.81H605.5C605.059,102.934,600.579,102.892,600.579,102.892Z" transform="translate(-287.563 -85.333)" fill="#c6d4f7"/>
          <g id="Group_1179390" data-name="Group 1179390" transform="translate(292.456 99.89)">
            <rect id="Rectangle_455758" data-name="Rectangle 455758" width="3.058" height="13.836" transform="translate(2.528 12.164)" fill="#fff"/>
            <rect id="Rectangle_455759" data-name="Rectangle 455759" width="3.058" height="17.871" transform="translate(8.952 8.128)" fill="#fff"/>
            <rect id="Rectangle_455760" data-name="Rectangle 455760" width="3.058" height="22.979" transform="translate(15.376 3.021)" fill="#fff"/>
            <g id="Group_1179389" data-name="Group 1179389" transform="translate(4.057)">
              <path id="Path_1002420" data-name="Path 1002420" d="M607.792,371.168s6.631-1.055,10.792-8.568" transform="translate(-607.792 -362.6)" fill="none" stroke="#2e2854" stroke-linecap="round" stroke-linejoin="round" stroke-miterlimit="10" stroke-width="1.2"/>
              <path id="Path_1002421" data-name="Path 1002421" d="M635.5,363.252l1.432-.653v1.579" transform="translate(-626.142 -362.599)" fill="none" stroke="#2e2854" stroke-linecap="round" stroke-linejoin="round" stroke-miterlimit="10" stroke-width="1.2"/>
            </g>
            <line id="Line_3283" data-name="Line 3283" x2="20.962" transform="translate(0 26)" fill="none" stroke="#2e2854" stroke-linecap="round" stroke-linejoin="round" stroke-miterlimit="10" stroke-width="1.2"/>
          </g>
          <path id="Path_1002422" data-name="Path 1002422" d="M503.913,200.064v-.05a4.238,4.238,0,0,1,4.168-4.495,4.184,4.184,0,0,1,4.118,4.445v.05a4.155,4.155,0,1,1-8.287.05Zm6.052,0v-.05c0-1.406-.8-2.561-1.934-2.561-1.18,0-1.884,1.155-1.884,2.511v.05c0,1.431.8,2.561,1.934,2.561C509.262,202.575,509.965,201.42,509.965,200.064ZM506.8,211.791l11.526-15.745a.958.958,0,0,1,.854-.452.986.986,0,0,1,1,.979,1.137,1.137,0,0,1-.226.653l-11.526,15.745a1.03,1.03,0,0,1-.879.452.965.965,0,0,1-.98-.979A1.133,1.133,0,0,1,506.8,211.791Zm7.734-2.737V209a4.155,4.155,0,1,1,8.287-.05V209a4.253,4.253,0,0,1-4.168,4.495A4.2,4.2,0,0,1,514.535,209.054Zm6.052,0V209c0-1.406-.8-2.561-1.934-2.561-1.18,0-1.883,1.155-1.883,2.511V209c0,1.431.8,2.561,1.934,2.561C519.884,211.565,520.587,210.41,520.587,209.054Z" transform="translate(-268.833 -152.069)" fill="#fff"/>
          <path id="Path_1002423" data-name="Path 1002423" d="M279.127,127.827V127.8a2.392,2.392,0,0,1,2.353-2.537,2.361,2.361,0,0,1,2.324,2.509v.028a2.345,2.345,0,1,1-4.677.028Zm3.416,0V127.8c0-.793-.454-1.445-1.091-1.445-.666,0-1.063.652-1.063,1.417v.028c0,.808.454,1.446,1.091,1.446C282.146,129.244,282.543,128.592,282.543,127.827Zm-1.786,6.619,6.505-8.886a.54.54,0,0,1,.482-.255.556.556,0,0,1,.567.553.642.642,0,0,1-.128.369l-6.505,8.886a.581.581,0,0,1-.5.255.544.544,0,0,1-.553-.553A.638.638,0,0,1,280.757,134.446Zm4.365-1.545v-.028a2.345,2.345,0,1,1,4.677-.028v.028a2.4,2.4,0,0,1-2.353,2.537A2.37,2.37,0,0,1,285.122,132.9Zm3.416,0v-.028c0-.794-.454-1.446-1.091-1.446-.666,0-1.063.652-1.063,1.417v.028c0,.808.454,1.445,1.091,1.445C288.141,134.318,288.537,133.666,288.537,132.9Z" transform="translate(-165.592 -105.544)" fill="#fff"/>
          <path id="Path_1002424" data-name="Path 1002424" d="M93.582,352.034v9.049a.854.854,0,0,1-.859.843.831.831,0,0,1-.843-.843v-7.546l-.613.353a.765.765,0,0,1-.429.123.86.86,0,0,1-.445-1.58l1.886-1.119c.016-.016.046-.016.061-.031.031,0,.046-.03.077-.046.031,0,.061-.016.092-.016a.093.093,0,0,1,.061-.015.258.258,0,0,1,.107-.016h.169a.092.092,0,0,0,.061.016.162.162,0,0,1,.092.031.091.091,0,0,1,.061.016c.046.03.061.046.092.046a.2.2,0,0,0,.061.046c.015.016.046.031.061.046.031.016.046.046.061.061a.215.215,0,0,1,.046.061l.061.061.015.031c0,.016.016.03.016.046.015.031.031.046.031.077.015.031.015.061.031.077a.659.659,0,0,0,.015.077.129.129,0,0,0,.031.107C93.582,352,93.582,352.019,93.582,352.034Zm2.254,8.726,3.757-8.941a.851.851,0,0,1,1.119-.445.827.827,0,0,1,.429,1.089l-3.757,8.956a.851.851,0,0,1-.782.506.733.733,0,0,1-.307-.061A.828.828,0,0,1,95.836,360.761Zm12.79.322a.832.832,0,0,1-.843.843h-5.46a.826.826,0,0,1-.629-.276.848.848,0,0,1,.046-1.2l4.54-4.11a1.924,1.924,0,0,0,.644-1.472,1.987,1.987,0,0,0-.506-1.334,1.947,1.947,0,0,0-1.472-.644,2.014,2.014,0,0,0-1.334.506l-.475.429a.834.834,0,0,1-1.2-.061.848.848,0,0,1,.061-1.2l.475-.429a3.623,3.623,0,0,1,2.469-.951,3.692,3.692,0,0,1,2.73,1.212,3.621,3.621,0,0,1,.951,2.469,3.694,3.694,0,0,1-1.212,2.73l-2.9,2.622h3.267A.844.844,0,0,1,108.626,361.083Z" transform="translate(-80.846 -255.154)" fill="#fff"/>
        </g>
        <g id="Group_1179427" data-name="Group 1179427" transform="translate(106.573 12.398)">
          <g id="Group_1179406" data-name="Group 1179406">
            <g id="Group_1179397" data-name="Group 1179397" transform="translate(32.517)">
              <path id="Path_1002425" data-name="Path 1002425" d="M321.244,95.959s-.977,11.98-3.949,19.638c0,0,17.468,13.886,53.8,1.829a46.611,46.611,0,0,1-5.349-23.359c.479-13.528-.239-28.7-16.927-28.7s-25.789,6.308-26.907,21.877Z" transform="translate(-314.231 -65.369)" fill="#2e2854"/>
              <g id="Group_1179392" data-name="Group 1179392" transform="translate(25.316 44.934)">
                <path id="Path_1002426" data-name="Path 1002426" d="M383.768,198.948l-.6,10.5,9.277.359-.215-11.417Z" transform="translate(-383.169 -198.389)" fill="#e8614e"/>
                <path id="Path_1002427" data-name="Path 1002427" d="M384.345,202.48a15.332,15.332,0,0,0,8.735-.363l-.07-3.729-8.463.559Z" transform="translate(-383.948 -198.388)" fill="#d15046"/>
              </g>
              <path id="Path_1002428" data-name="Path 1002428" d="M340.127,110.172s.543,4.017,1.7,3.832c1.5-.239.938-3.832.938-3.832s17.725,5.589,25.071-9.821a15.708,15.708,0,0,0,9.022,9.761s-.2,2.775.838,2.854.838-2.994.838-2.994,6.159,24.883-18.47,25.709C338.65,136.4,340.127,110.172,340.127,110.172Z" transform="translate(-329.337 -88.534)" fill="#e8614e"/>
              <g id="Group_1179394" data-name="Group 1179394" transform="translate(0 19.58)">
                <path id="Path_1002429" data-name="Path 1002429" d="M319.017,125.389s-7.286-5.569-10.16,1.617a7.038,7.038,0,0,0,11.757,7.485S319.6,132.036,319.017,125.389Z" transform="translate(-308.226 -123.332)" fill="#e8614e"/>
                <g id="Group_1179393" data-name="Group 1179393" transform="translate(3.063 3.805)">
                  <path id="Path_1002430" data-name="Path 1002430" d="M317.294,138.082s.831-3.255,3.949-3.487" transform="translate(-317.294 -134.595)" fill="none" stroke="#2e2854" stroke-linecap="round" stroke-linejoin="round" stroke-miterlimit="10" stroke-width="1.2"/>
                  <path id="Path_1002431" data-name="Path 1002431" d="M324.3,140.653a5.9,5.9,0,0,1-1.845-3.568" transform="translate(-320.709 -136.244)" fill="none" stroke="#2e2854" stroke-linecap="round" stroke-linejoin="round" stroke-miterlimit="10" stroke-width="1.2"/>
                </g>
              </g>
              <path id="Path_1002432" data-name="Path 1002432" d="M452.764,125.312s2.555-3.473,5.27-.758.16,14.372-5.828,12.056C452.205,136.61,453.183,129.364,452.764,125.312Z" transform="translate(-403.569 -103.874)" fill="#e8614e"/>
              <g id="Group_1179395" data-name="Group 1179395" transform="translate(20.538 11.817)">
                <path id="Path_1002433" data-name="Path 1002433" d="M405.181,142.366a4.963,4.963,0,0,0,1.158,1.757c1.038.659,1.258,2.336-.569,1.976" transform="translate(-392.968 -128.173)" fill="none" stroke="#2e2854" stroke-linecap="round" stroke-linejoin="round" stroke-miterlimit="10" stroke-width="1.2"/>
                <path id="Path_1002434" data-name="Path 1002434" d="M389.5,166.451c1.562.7,4.177-1.07,6.352-.155" transform="translate(-382.586 -143.842)" fill="none" stroke="#2e2854" stroke-linecap="round" stroke-linejoin="round" stroke-miterlimit="10" stroke-width="1.2"/>
                <path id="Path_1002435" data-name="Path 1002435" d="M422.119,100.351a10.837,10.837,0,0,0,1.548,6.4" transform="translate(-404.161 -100.351)" fill="none" stroke="#2e2854" stroke-linecap="round" stroke-linejoin="round" stroke-miterlimit="10" stroke-width="1.2"/>
                <ellipse id="Ellipse_13733" data-name="Ellipse 13733" cx="0.534" cy="0.892" rx="0.534" ry="0.892" transform="translate(3.285 13.823)" fill="#2e2854"/>
                <path id="Path_1002436" data-name="Path 1002436" d="M433.212,142.522c0,.493-.239.892-.534.892s-.534-.4-.534-.892.239-.892.534-.892S433.212,142.029,433.212,142.522Z" transform="translate(-410.822 -127.686)" fill="#2e2854"/>
                <path id="Path_1002437" data-name="Path 1002437" d="M369.025,137.295a14.016,14.016,0,0,1,5.853-.394" transform="translate(-369.025 -124.445)" fill="none" stroke="#2e2854" stroke-linecap="round" stroke-linejoin="round" stroke-miterlimit="10" stroke-width="1.2"/>
                <path id="Path_1002438" data-name="Path 1002438" d="M425.483,129.231s1.965-3.013,5.568,0" transform="translate(-406.411 -118.589)" fill="none" stroke="#2e2854" stroke-linecap="round" stroke-linejoin="round" stroke-miterlimit="10" stroke-width="1.2"/>
              </g>
              <g id="Group_1179396" data-name="Group 1179396" transform="translate(15.436 36.129)">
                <path id="Path_1002439" data-name="Path 1002439" d="M432.2,175.612a4.192,4.192,0,1,0-5.536,5.456A15.014,15.014,0,0,0,432.2,175.612Z" transform="translate(-400.417 -172.792)" fill="#d15046"/>
                <path id="Path_1002440" data-name="Path 1002440" d="M358.1,172.322a4.189,4.189,0,0,0-4.177,3.9,16.405,16.405,0,0,0,4.557,4.463,4.191,4.191,0,0,0-.38-8.364Z" transform="translate(-353.921 -172.322)" fill="#d15046"/>
              </g>
            </g>
            <g id="Group_1179405" data-name="Group 1179405" transform="translate(0 52.8)">
              <g id="Group_1179398" data-name="Group 1179398" transform="translate(1.342 38.628)">
                <path id="Path_1002441" data-name="Path 1002441" d="M218.144,336.026s-7.223,14.38,4.481,20.981l8.59-10.03L229.3,339.7Z" transform="translate(-215.94 -336.026)" fill="#e8614e"/>
                <path id="Path_1002442" data-name="Path 1002442" d="M225.055,387.092l1.891-2.209a25.114,25.114,0,0,1-7.336-3.427A12.667,12.667,0,0,0,225.055,387.092Z" transform="translate(-218.37 -366.11)" fill="#d15046"/>
              </g>
              <g id="Group_1179400" data-name="Group 1179400" transform="translate(89.377 15.232)">
                <path id="Path_1002443" data-name="Path 1002443" d="M603.625,271.5a5.887,5.887,0,0,0,2.057-2.37c.6-1.453,1.163-2.628,2.011-2.313,1.079.4.146,3.583-.421,5.009C607.272,271.829,605.023,271.542,603.625,271.5Z" transform="translate(-560.699 -266.768)" fill="#e8614e"/>
                <path id="Path_1002444" data-name="Path 1002444" d="M476.55,313.776a17.7,17.7,0,0,0,15.3,7.866c9.652-.073,19.377-9.725,24.057-21.717s4.314-17.951,8.116-20.108,4.049-1.849,7.449-3.988,2.349-3.766.877-2.888c0,0,1.426-1.581.713-2.239s-3.153,1.536-3.153,1.536-.058-.774-1.082-.335a16.837,16.837,0,0,1-7.474,1.737c-3.345-.183-8.354.055-10.42,5.466s-10.209,28.2-19.45,22.329l-14.93,12.342" transform="translate(-476.55 -269.291)" fill="#e8614e"/>
                <path id="Path_1002445" data-name="Path 1002445" d="M501.8,347.72c-7.365,3.424-15.015,1.1-18.68-.45a17.473,17.473,0,0,0,13.076,5.2c9.652-.073,19.377-9.725,24.057-21.717a140.491,140.491,0,0,0,4.351-13.619C519.325,323.227,518.024,340.178,501.8,347.72Z" transform="translate(-480.901 -300.123)" fill="#d15046"/>
                <g id="Group_1179399" data-name="Group 1179399" transform="translate(12.13 1.287)">
                  <path id="Path_1002446" data-name="Path 1002446" d="M627.651,277.573a22.293,22.293,0,0,1-7.178,4.61" transform="translate(-583.986 -275.21)" fill="none" stroke="#2e2854" stroke-linecap="round" stroke-linejoin="round" stroke-miterlimit="10" stroke-width="1.2"/>
                  <path id="Path_1002447" data-name="Path 1002447" d="M624.745,275.49c-.04,1.036-1.539,2.681-4.975,3.577" transform="translate(-583.52 -273.831)" fill="none" stroke="#2e2854" stroke-linecap="round" stroke-linejoin="round" stroke-miterlimit="10" stroke-width="1.2"/>
                  <path id="Path_1002448" data-name="Path 1002448" d="M512.459,321.433a20.88,20.88,0,0,0,3.166.209c9.652-.073,19.377-9.725,24.057-21.717S544,281.974,547.8,279.817s4.049-1.849,7.449-3.988,2.349-3.766.877-2.888c0,0,1.426-1.581.713-2.239s-3.153,1.536-3.153,1.536-.058-.774-1.082-.335a16.837,16.837,0,0,1-7.473,1.737c-3.345-.183-8.354.055-10.42,5.466" transform="translate(-512.459 -270.578)" fill="none" stroke="#2e2854" stroke-linecap="round" stroke-linejoin="round" stroke-miterlimit="10" stroke-width="1.2"/>
                </g>
              </g>
              <g id="Group_1179402" data-name="Group 1179402">
                <path id="Path_1002449" data-name="Path 1002449" d="M311.374,250.963c-1.1-9.654-7.861-27.456-27.839-29h0l-8.2,3.04-11.481-3.08c-8.675.394-20.675,2.339-29.839,9.222a68.672,68.672,0,0,0-22.046,29.285,34.928,34.928,0,0,0,20.949,8.007l10.989,1.006-.368,38.406h55.188V276.043a16.81,16.81,0,0,0,2.619,5.515s12.152-7.416,16.9-13.558C318.247,268,312.617,261.858,311.374,250.963Z" transform="translate(-211.966 -221.841)" fill="#fff"/>
                <path id="Path_1002450" data-name="Path 1002450" d="M317.331,369.259c5.347-4.343,9.181-8.419,14.012-9.02s5.733-2.172,5.416-3.09c0,0-20.125,1.543-30.6,7.778l-.092,9.619A31.234,31.234,0,0,0,317.331,369.259Z" transform="translate(-274.282 -311.386)" fill="#dadde6"/>
                <line id="Line_3284" data-name="Line 3284" x1="8.827" y2="15.356" transform="translate(20.949 31.242)" fill="none" stroke="#2e2854" stroke-linecap="round" stroke-linejoin="round" stroke-miterlimit="10" stroke-width="1.2"/>
                <path id="Path_1002451" data-name="Path 1002451" d="M468.8,317.194v46.889" transform="translate(-382.04 -284.928)" fill="none" stroke="#2e2854" stroke-linecap="round" stroke-linejoin="round" stroke-miterlimit="10" stroke-width="1.2"/>
                <path id="Path_1002452" data-name="Path 1002452" d="M376.871,222.061a72.336,72.336,0,0,0-11.309-.3l12.608,11.507,7.076-11.467h0A40.73,40.73,0,0,0,376.871,222.061Z" transform="translate(-313.677 -221.676)" fill="#e8614e"/>
                <g id="Group_1179401" data-name="Group 1179401" transform="translate(50.438 0.489)">
                  <path id="Path_1002453" data-name="Path 1002453" d="M402.885,255.99s.987,3.564,1.1,11.133" transform="translate(-388.83 -244.888)" fill="none" stroke="#2e2854" stroke-linecap="round" stroke-linejoin="round" stroke-miterlimit="10" stroke-width="1.2"/>
                  <path id="Path_1002454" data-name="Path 1002454" d="M402.885,234.7a66.628,66.628,0,0,1,12.065,6.581s-.315-12.408-3.468-17.442" transform="translate(-388.83 -223.597)" fill="none" stroke="#2e2854" stroke-linecap="round" stroke-linejoin="round" stroke-miterlimit="10" stroke-width="1.2"/>
                  <path id="Path_1002455" data-name="Path 1002455" d="M361.354,223.124a41.657,41.657,0,0,0,3.394,18.834,99.827,99.827,0,0,1,10.584-7.733" transform="translate(-361.278 -223.124)" fill="none" stroke="#2e2854" stroke-linecap="round" stroke-linejoin="round" stroke-miterlimit="10" stroke-width="1.2"/>
                </g>
              </g>
              <g id="Group_1179404" data-name="Group 1179404" transform="translate(8.027 38.165)">
                <path id="Path_1002456" data-name="Path 1002456" d="M241.755,342.088c4.235-3.287,28.532-2.206,28.532-2.206,1.517-2.267,3.08-2.5,5.9-2.705s4.095-3.237,5.338-2.36S280.24,338,280.24,338s2.239.083,4.652.083,5.222-1.673,5.634-.713-1.207,1.755-1.207,1.755,1.316-.411,1.673.374-.637,1.646-.637,1.646a.691.691,0,0,1,.336.612c-.027,1.728-8.513,3.235-8.513,3.235a30.591,30.591,0,0,0-5.283,2.178S252.966,363.125,238.05,357.2a18.935,18.935,0,0,1-2.32-1.1Z" transform="translate(-235.73 -334.658)" fill="#e8614e"/>
                <path id="Path_1002457" data-name="Path 1002457" d="M277.019,371.494c-10.779,1.385-23.234,7.283-31.727,7.668a24.189,24.189,0,0,1-8.506-1.127l-1.057,2.459a18.959,18.959,0,0,0,2.32,1.1c14.917,5.923,38.845-10.033,38.845-10.033S276.94,371.537,277.019,371.494Z" transform="translate(-235.73 -359.051)" fill="#d15046"/>
                <path id="Path_1002458" data-name="Path 1002458" d="M373.772,341.812s.512-.717,1.086-1.393,1.491-2.32,2.46-1.9-1.1,3.309-1.865,3.875Z" transform="translate(-327.141 -337.17)" fill="#e8614e"/>
                <g id="Group_1179403" data-name="Group 1179403">
                  <path id="Path_1002459" data-name="Path 1002459" d="M380.73,347.878s-1.9,1.079-6.959,1.517" transform="translate(-327.141 -343.412)" fill="none" stroke="#2e2854" stroke-linecap="round" stroke-linejoin="round" stroke-miterlimit="10" stroke-width="1.2"/>
                  <path id="Path_1002460" data-name="Path 1002460" d="M383.2,353.858s-1.76,1.8-7.262,1.8" transform="translate(-328.574 -347.372)" fill="none" stroke="#2e2854" stroke-linecap="round" stroke-linejoin="round" stroke-miterlimit="10" stroke-width="1.2"/>
                  <path id="Path_1002461" data-name="Path 1002461" d="M270.286,339.882c1.517-2.267,3.08-2.5,5.9-2.705s4.095-3.237,5.338-2.36S280.24,338,280.24,338s2.239.083,4.652.083,5.222-1.673,5.634-.713-1.207,1.755-1.207,1.755,1.316-.411,1.673.374-.637,1.646-.637,1.646a.691.691,0,0,1,.336.612c-.027,1.728-8.513,3.235-8.513,3.235a30.591,30.591,0,0,0-5.283,2.178S252.966,363.125,238.05,357.2a18.935,18.935,0,0,1-2.32-1.1" transform="translate(-235.73 -334.658)" fill="none" stroke="#2e2854" stroke-linecap="round" stroke-linejoin="round" stroke-miterlimit="10" stroke-width="1.2"/>
                </g>
              </g>
            </g>
          </g>
          <g id="Group_1179421" data-name="Group 1179421" transform="translate(28.979 62.553)">
            <g id="Group_1179408" data-name="Group 1179408" transform="translate(38.101 15.232)">
              <path id="Path_1002462" data-name="Path 1002462" d="M415.585,296.5a2.953,2.953,0,1,0,0,4.176A2.953,2.953,0,0,0,415.585,296.5Z" transform="translate(-410.544 -295.637)" fill="#ffc96a"/>
              <path id="Path_1002463" data-name="Path 1002463" d="M416.548,298.549a2.185,2.185,0,1,0,0,3.09A2.185,2.185,0,0,0,416.548,298.549Z" transform="translate(-412.049 -297.142)" fill="none" stroke="#2e2854" stroke-linecap="round" stroke-linejoin="round" stroke-miterlimit="10" stroke-width="1.2"/>
              <g id="Group_1179407" data-name="Group 1179407" transform="translate(1.617 1.658)">
                <path id="Path_1002464" data-name="Path 1002464" d="M415.518,300.756a.156.156,0,0,1,.222,0l.057.057a1.33,1.33,0,0,1,.542-.258.2.2,0,0,1,.2.047.2.2,0,0,1,0,.286.209.209,0,0,1-.1.054,1.32,1.32,0,0,0-.379.152l.495.495c.49-.294.814-.3,1.09-.028a.747.747,0,0,1-.046,1.052l.155.155a.156.156,0,0,1,0,.222.159.159,0,0,1-.224,0l-.16-.16a1.579,1.579,0,0,1-.73.327.2.2,0,0,1-.193-.054.2.2,0,0,1,.113-.34,1.291,1.291,0,0,0,.554-.209l-.508-.508c-.474.278-.791.312-1.083.021a.733.733,0,0,1,.049-1.034l-.054-.054A.159.159,0,0,1,415.518,300.756Zm.776.982-.456-.456c-.15.18-.145.351-.031.464S416.03,301.872,416.294,301.738Zm.562.155.469.469c.147-.183.155-.356.031-.479S417.116,301.756,416.856,301.893Z" transform="translate(-415.33 -300.546)" fill="#e69c35"/>
              </g>
            </g>
            <g id="Group_1179410" data-name="Group 1179410" transform="translate(10.859 12.195)">
              <path id="Path_1002465" data-name="Path 1002465" d="M334.941,287.511a2.953,2.953,0,1,0,0,4.176A2.953,2.953,0,0,0,334.941,287.511Z" transform="translate(-329.9 -286.646)" fill="#ffc96a"/>
              <path id="Path_1002466" data-name="Path 1002466" d="M335.9,289.559a2.185,2.185,0,1,0,0,3.09A2.185,2.185,0,0,0,335.9,289.559Z" transform="translate(-331.405 -288.152)" fill="none" stroke="#2e2854" stroke-linecap="round" stroke-linejoin="round" stroke-miterlimit="10" stroke-width="1.2"/>
              <g id="Group_1179409" data-name="Group 1179409" transform="translate(1.616 1.658)">
                <path id="Path_1002467" data-name="Path 1002467" d="M334.873,291.766a.156.156,0,0,1,.222,0l.057.057a1.329,1.329,0,0,1,.541-.258.2.2,0,0,1,.2.047.2.2,0,0,1,0,.286.206.206,0,0,1-.1.054,1.319,1.319,0,0,0-.379.152l.495.495c.49-.294.814-.3,1.09-.028a.747.747,0,0,1-.046,1.052l.155.155a.156.156,0,0,1,0,.222.159.159,0,0,1-.224,0l-.16-.16a1.579,1.579,0,0,1-.73.327.2.2,0,0,1-.193-.054.2.2,0,0,1,.114-.34,1.287,1.287,0,0,0,.554-.209l-.508-.508c-.474.278-.791.312-1.083.021a.733.733,0,0,1,.049-1.034l-.054-.054A.159.159,0,0,1,334.873,291.766Zm.776.982-.456-.456c-.15.18-.145.351-.031.464S335.386,292.882,335.649,292.748Zm.562.155.469.469c.147-.183.155-.356.031-.479S336.471,292.766,336.211,292.9Z" transform="translate(-334.685 -291.555)" fill="#e69c35"/>
              </g>
            </g>
            <g id="Group_1179411" data-name="Group 1179411" transform="translate(20.07 13.775)">
              <rect id="Rectangle_455761" data-name="Rectangle 455761" width="19.182" height="9.597" fill="#76ad86"/>
              <path id="Path_1002468" data-name="Path 1002468" d="M359.471,291.324a2.3,2.3,0,0,1-2.3,2.3" transform="translate(-357.168 -291.324)" fill="none" stroke="#2e2854" stroke-linecap="round" stroke-linejoin="round" stroke-miterlimit="10" stroke-width="1.2"/>
              <path id="Path_1002469" data-name="Path 1002469" d="M407.134,291.324a2.3,2.3,0,0,0,2.3,2.3" transform="translate(-390.255 -291.324)" fill="none" stroke="#2e2854" stroke-linecap="round" stroke-linejoin="round" stroke-miterlimit="10" stroke-width="1.2"/>
              <path id="Path_1002470" data-name="Path 1002470" d="M359.471,315.22a2.3,2.3,0,0,0-2.3-2.3" transform="translate(-357.168 -305.623)" fill="none" stroke="#2e2854" stroke-linecap="round" stroke-linejoin="round" stroke-miterlimit="10" stroke-width="1.2"/>
              <path id="Path_1002471" data-name="Path 1002471" d="M407.134,315.22a2.3,2.3,0,0,1,2.3-2.3" transform="translate(-390.255 -305.623)" fill="none" stroke="#2e2854" stroke-linecap="round" stroke-linejoin="round" stroke-miterlimit="10" stroke-width="1.2"/>
              <circle id="Ellipse_13734" data-name="Ellipse 13734" cx="2.952" cy="2.952" r="2.952" transform="translate(6.638 1.846)" fill="#87c699"/>
              <path id="Path_1002472" data-name="Path 1002472" d="M367.063,304.078a.74.74,0,1,0-.74.74A.74.74,0,0,0,367.063,304.078Z" transform="translate(-362.74 -299.28)" fill="none" stroke="#2e2854" stroke-linecap="round" stroke-linejoin="round" stroke-miterlimit="10" stroke-width="1.2"/>
              <path id="Path_1002473" data-name="Path 1002473" d="M401.155,304.078a.74.74,0,1,1,.74.74A.74.74,0,0,1,401.155,304.078Z" transform="translate(-386.296 -299.28)" fill="none" stroke="#2e2854" stroke-linecap="round" stroke-linejoin="round" stroke-miterlimit="10" stroke-width="1.2"/>
            </g>
            <g id="Group_1179412" data-name="Group 1179412" transform="translate(28.21 16.794)">
              <rect id="Rectangle_455762" data-name="Rectangle 455762" width="19.182" height="9.597" transform="matrix(0.966, 0.259, -0.259, 0.966, 2.484, 0)" fill="#87c699"/>
              <path id="Path_1002474" data-name="Path 1002474" d="M389.677,302.041a2.3,2.3,0,0,1-2.821,1.629" transform="translate(-384.967 -301.44)" fill="none" stroke="#2e2854" stroke-linecap="round" stroke-linejoin="round" stroke-miterlimit="10" stroke-width="1.2"/>
              <path id="Path_1002475" data-name="Path 1002475" d="M436.73,313.209a2.3,2.3,0,0,0,1.629,2.821" transform="translate(-417.941 -308.835)" fill="none" stroke="#2e2854" stroke-linecap="round" stroke-linejoin="round" stroke-miterlimit="10" stroke-width="1.2"/>
              <path id="Path_1002476" data-name="Path 1002476" d="M384.662,323.954a2.3,2.3,0,0,0-1.629-2.821" transform="translate(-382.436 -314.082)" fill="none" stroke="#2e2854" stroke-linecap="round" stroke-linejoin="round" stroke-miterlimit="10" stroke-width="1.2"/>
              <path id="Path_1002477" data-name="Path 1002477" d="M429.532,337.3a2.3,2.3,0,0,1,2.821-1.629" transform="translate(-413.227 -323.66)" fill="none" stroke="#2e2854" stroke-linecap="round" stroke-linejoin="round" stroke-miterlimit="10" stroke-width="1.2"/>
              <path id="Path_1002478" data-name="Path 1002478" d="M409.432,316.321a2.952,2.952,0,1,0-3.616,2.088A2.953,2.953,0,0,0,409.432,316.321Z" transform="translate(-396.073 -308.435)" fill="#9ce6b1"/>
              <path id="Path_1002479" data-name="Path 1002479" d="M394.454,315.483a.74.74,0,1,0-.907.524A.74.74,0,0,0,394.454,315.483Z" transform="translate(-389.034 -309.724)" fill="none" stroke="#2e2854" stroke-linecap="round" stroke-linejoin="round" stroke-miterlimit="10" stroke-width="1.2"/>
              <path id="Path_1002480" data-name="Path 1002480" d="M427.382,324.306a.74.74,0,1,1,.524.907A.74.74,0,0,1,427.382,324.306Z" transform="translate(-411.787 -315.82)" fill="none" stroke="#2e2854" stroke-linecap="round" stroke-linejoin="round" stroke-miterlimit="10" stroke-width="1.2"/>
            </g>
            <g id="Group_1179414" data-name="Group 1179414" transform="translate(12.105 22.693)">
              <circle id="Ellipse_13735" data-name="Ellipse 13735" cx="2.953" cy="2.953" r="2.953" transform="translate(0 4.176) rotate(-45)" fill="#ffc96a"/>
              <path id="Path_1002481" data-name="Path 1002481" d="M343.854,325.8a2.185,2.185,0,1,0-2.185,2.185A2.185,2.185,0,0,0,343.854,325.8Z" transform="translate(-337.492 -321.628)" fill="none" stroke="#2e2854" stroke-linecap="round" stroke-linejoin="round" stroke-miterlimit="10" stroke-width="1.2"/>
              <g id="Group_1179413" data-name="Group 1179413" transform="translate(3.126 2.598)">
                <path id="Path_1002482" data-name="Path 1002482" d="M343.847,325.415a.156.156,0,0,1,.157.157v.08a1.33,1.33,0,0,1,.565.2.2.2,0,0,1,.109.175.2.2,0,0,1-.2.2.211.211,0,0,1-.109-.033,1.329,1.329,0,0,0-.376-.16v.7c.554.138.791.361.791.751s-.314.667-.777.711v.219a.156.156,0,0,1-.157.157.159.159,0,0,1-.16-.157v-.226a1.576,1.576,0,0,1-.747-.285.2.2,0,1,1,.222-.335,1.285,1.285,0,0,0,.539.244V327.1c-.532-.139-.78-.339-.78-.751a.733.733,0,0,1,.765-.7v-.077A.159.159,0,0,1,343.847,325.415Zm-.146,1.243v-.645c-.233.022-.35.146-.35.306S343.42,326.567,343.7,326.658Zm.288.507v.663c.233-.025.361-.142.361-.317S344.27,327.252,343.989,327.165Z" transform="translate(-342.841 -325.415)" fill="#e69c35"/>
              </g>
            </g>
            <g id="Group_1179416" data-name="Group 1179416" transform="translate(23.756 20.891)">
              <circle id="Ellipse_13736" data-name="Ellipse 13736" cx="2.953" cy="2.953" r="2.953" fill="#ffc96a"/>
              <path id="Path_1002483" data-name="Path 1002483" d="M374.723,316.849a2.185,2.185,0,1,0-2.185,2.185A2.185,2.185,0,0,0,374.723,316.849Z" transform="translate(-369.584 -313.896)" fill="none" stroke="#2e2854" stroke-linecap="round" stroke-linejoin="round" stroke-miterlimit="10" stroke-width="1.2"/>
              <g id="Group_1179415" data-name="Group 1179415" transform="translate(1.901 1.375)">
                <path id="Path_1002484" data-name="Path 1002484" d="M374.714,316.46a.156.156,0,0,1,.157.157v.08a1.33,1.33,0,0,1,.565.2.2.2,0,0,1,.109.175.2.2,0,0,1-.2.2.21.21,0,0,1-.109-.033,1.329,1.329,0,0,0-.376-.16v.7c.554.138.791.361.791.751s-.314.667-.777.711v.219a.156.156,0,0,1-.157.157.159.159,0,0,1-.16-.157v-.226a1.576,1.576,0,0,1-.747-.285.2.2,0,1,1,.223-.335,1.285,1.285,0,0,0,.539.244v-.718c-.532-.138-.78-.339-.78-.751a.733.733,0,0,1,.765-.7v-.077A.158.158,0,0,1,374.714,316.46Zm-.146,1.243v-.645c-.233.022-.35.146-.35.306S374.287,317.612,374.568,317.7Zm.288.507v.663c.233-.025.361-.142.361-.317S375.137,318.3,374.856,318.21Z" transform="translate(-373.708 -316.46)" fill="#e69c35"/>
              </g>
            </g>
            <g id="Group_1179418" data-name="Group 1179418" transform="translate(13.696 9.738)">
              <circle id="Ellipse_13737" data-name="Ellipse 13737" cx="2.953" cy="2.953" r="2.953" fill="#ffc96a"/>
              <circle id="Ellipse_13738" data-name="Ellipse 13738" cx="2.185" cy="2.185" r="2.185" transform="translate(0.768 0.768)" fill="none" stroke="#2e2854" stroke-linecap="round" stroke-linejoin="round" stroke-miterlimit="10" stroke-width="1.2"/>
              <g id="Group_1179417" data-name="Group 1179417" transform="translate(1.901 1.375)">
                <path id="Path_1002485" data-name="Path 1002485" d="M344.932,283.442a.156.156,0,0,1,.157.157v.08a1.33,1.33,0,0,1,.565.2.2.2,0,0,1,.109.175.2.2,0,0,1-.2.2.211.211,0,0,1-.109-.033,1.318,1.318,0,0,0-.376-.16v.7c.554.138.791.361.791.751s-.313.667-.777.711v.219a.156.156,0,0,1-.157.157.159.159,0,0,1-.16-.157v-.226a1.576,1.576,0,0,1-.747-.285.2.2,0,0,1-.1-.175.2.2,0,0,1,.321-.16,1.285,1.285,0,0,0,.539.244v-.718c-.532-.138-.78-.339-.78-.751a.733.733,0,0,1,.765-.7V283.6A.159.159,0,0,1,344.932,283.442Zm-.146,1.243v-.645c-.233.022-.35.146-.35.306S344.506,284.594,344.786,284.685Zm.288.507v.663c.233-.025.361-.142.361-.317S345.355,285.279,345.074,285.192Z" transform="translate(-343.926 -283.442)" fill="#e69c35"/>
              </g>
            </g>
            <g id="Group_1179420" data-name="Group 1179420" transform="translate(35.148 26.101)">
              <path id="Path_1002486" data-name="Path 1002486" d="M406.843,332.856a2.953,2.953,0,1,0-4.176,0A2.953,2.953,0,0,0,406.843,332.856Z" transform="translate(-401.802 -327.815)" fill="#ffc96a"/>
              <path id="Path_1002487" data-name="Path 1002487" d="M407.806,333.819a2.185,2.185,0,1,0-3.09,0A2.185,2.185,0,0,0,407.806,333.819Z" transform="translate(-403.307 -329.32)" fill="none" stroke="#2e2854" stroke-linecap="round" stroke-linejoin="round" stroke-miterlimit="10" stroke-width="1.2"/>
              <g id="Group_1179419" data-name="Group 1179419" transform="translate(1.629 1.617)">
                <path id="Path_1002488" data-name="Path 1002488" d="M409.032,332.789a.156.156,0,0,1,0,.222l-.057.057a1.33,1.33,0,0,1,.258.542.2.2,0,0,1-.047.2.2.2,0,0,1-.286,0,.2.2,0,0,1-.054-.1,1.319,1.319,0,0,0-.152-.379l-.495.495c.294.49.3.814.028,1.09a.747.747,0,0,1-1.052-.046l-.155.155a.156.156,0,0,1-.222,0,.159.159,0,0,1,0-.224l.16-.16a1.579,1.579,0,0,1-.327-.73.2.2,0,0,1,.054-.193.2.2,0,0,1,.34.113,1.291,1.291,0,0,0,.209.554l.508-.508c-.278-.474-.312-.791-.021-1.083a.733.733,0,0,1,1.034.049l.054-.054A.159.159,0,0,1,409.032,332.789Zm-.982.776.456-.456c-.18-.15-.351-.145-.464-.031S407.915,333.3,408.049,333.565Zm-.155.562-.469.469c.183.147.356.155.479.031S408.031,334.387,407.895,334.127Z" transform="translate(-406.623 -332.601)" fill="#e69c35"/>
              </g>
            </g>
            <path id="Path_1002489" data-name="Path 1002489" d="M297.753,289.962s2.279,2.4,4.035.45-2.836-1.1-.554.977,3.579-.422,3.579-.422" transform="translate(-297.753 -276.218)" fill="none" stroke="#2e2854" stroke-linecap="round" stroke-linejoin="round" stroke-miterlimit="10" stroke-width="1.2"/>
            <path id="Path_1002490" data-name="Path 1002490" d="M438.332,283.643s3.2.838,3.666-1.745-2.99.559.044,1.122,2.818-2.245,2.818-2.245" transform="translate(-390.844 -270.563)" fill="none" stroke="#2e2854" stroke-linecap="round" stroke-linejoin="round" stroke-miterlimit="10" stroke-width="1.2"/>
            <path id="Path_1002491" data-name="Path 1002491" d="M321.508,250.546a2.969,2.969,0,0,1,2.69,2.179c.414,2.035-.9,2.42-1.345,1.676s2.311-1.313,3.277.351a3.349,3.349,0,0,1,0,3.25" transform="translate(-313.484 -250.546)" fill="none" stroke="#2e2854" stroke-linecap="round" stroke-linejoin="round" stroke-miterlimit="10" stroke-width="1.2"/>
            <path id="Path_1002492" data-name="Path 1002492" d="M422.5,364.551a2.969,2.969,0,0,1-3.313-1c-1.151-1.728-.083-2.579.613-2.06s-1.644,2.088-3.167.911a3.349,3.349,0,0,1-1.227-3.01" transform="translate(-375.648 -322.623)" fill="none" stroke="#2e2854" stroke-linecap="round" stroke-linejoin="round" stroke-miterlimit="10" stroke-width="1.2"/>
          </g>
          <g id="Group_1179426" data-name="Group 1179426" transform="translate(115.752 40.005)">
            <g id="Group_1179423" data-name="Group 1179423" transform="translate(10.083 10.024)">
              <g id="Group_1179422" data-name="Group 1179422" transform="translate(0.317 1.405)">
                <path id="Path_1002493" data-name="Path 1002493" d="M593.718,232.037c-.384-2.468-3.976-2.276-4.689-3.537s1.618-1.343,3.044-2.057,1.618-3.373-.521-4.387a4.413,4.413,0,0,1-2.365-3.16,9.8,9.8,0,0,0-3.771,5.48c.685,1.08.446,2.329.762,3.932a5.039,5.039,0,0,1-.24,2.505,9.809,9.809,0,0,0,6.194,5.428C593.027,234.834,593.957,233.574,593.718,232.037Z" transform="translate(-585.416 -218.468)" fill="#5f9e82"/>
                <path id="Path_1002494" data-name="Path 1002494" d="M620.782,219.106c-1.014.466-2.6.685-2.687,1.618s.474,2.906,1.745,2.769,1.052-1.536,2.148-1.563c.845-.021,2.259,1.534,4.03,1.712a9.8,9.8,0,0,0-4.442-6.014A1.573,1.573,0,0,1,620.782,219.106Z" transform="translate(-607.05 -217.628)" fill="#5f9e82"/>
                <path id="Path_1002495" data-name="Path 1002495" d="M625.755,240.706c0-.038,0-.075,0-.113a4.55,4.55,0,0,1-1.575-.293,6.42,6.42,0,0,0-4.415-.165,3.934,3.934,0,0,0-2.229,5.073c.687,1.713,2.846,1.88,4.013,3.538A9.774,9.774,0,0,0,625.755,240.706Z" transform="translate(-606.497 -232.324)" fill="#5f9e82"/>
                <path id="Path_1002496" data-name="Path 1002496" d="M610.279,222.115c-1.243.969.256,1.81,1.042,1.024S611.108,221.469,610.279,222.115Z" transform="translate(-601.566 -220.452)" fill="#5f9e82"/>
                <path id="Path_1002497" data-name="Path 1002497" d="M616.733,268.33a2.484,2.484,0,0,0-3.709.669c.048,0,.1,0,.145,0A9.766,9.766,0,0,0,616.733,268.33Z" transform="translate(-603.698 -250.833)" fill="#5f9e82"/>
              </g>
              <circle id="Ellipse_13739" data-name="Ellipse 13739" cx="9.787" cy="9.787" r="9.787" fill="none" stroke="#2e2854" stroke-linecap="round" stroke-linejoin="round" stroke-miterlimit="10" stroke-width="1.2"/>
            </g>
            <g id="Group_1179424" data-name="Group 1179424" transform="translate(6.764)">
              <path id="Path_1002498" data-name="Path 1002498" d="M617.11,191.286s-4.458-.8-2.741-7.49C614.369,183.8,620,187.076,617.11,191.286Z" transform="translate(-600.693 -183.796)" fill="#87c699"/>
              <path id="Path_1002499" data-name="Path 1002499" d="M619.837,218.431s5.272,1.539,7.631-3.342C627.467,215.088,622.672,213.224,619.837,218.431Z" transform="translate(-604.574 -204.303)" fill="#87c699"/>
              <path id="Path_1002500" data-name="Path 1002500" d="M601.026,219.657a6.271,6.271,0,0,1-.655-8.046S604.2,215.456,601.026,219.657Z" transform="translate(-590.901 -202.215)" fill="#87c699"/>
              <path id="Path_1002501" data-name="Path 1002501" d="M584.028,236.152s-.785,4.835,3.968,5.384C588,241.536,587.628,236.4,584.028,236.152Z" transform="translate(-580.829 -218.466)" fill="#87c699"/>
              <path id="Path_1002502" data-name="Path 1002502" d="M579.184,204.338s-4.6-1.446-4.53.518c.094,2.8,11.021,3.729,14.815-.877s.211-11.955.211-11.955" transform="translate(-574.653 -189.244)" fill="none" stroke="#2e2854" stroke-linecap="round" stroke-linejoin="round" stroke-miterlimit="10" stroke-width="1.2"/>
            </g>
            <g id="Group_1179425" data-name="Group 1179425" transform="translate(8.844 18.244)">
              <path id="Path_1002503" data-name="Path 1002503" d="M605.589,252.09s-2.415,5.447,1.534,7.312C607.123,259.4,610.141,255.029,605.589,252.09Z" transform="translate(-596.735 -247.264)" fill="#87c699"/>
              <path id="Path_1002504" data-name="Path 1002504" d="M622.161,243.3s-.678-4.7,4.038-5.494C626.2,237.8,626.672,243.516,622.161,243.3Z" transform="translate(-608.17 -237.804)" fill="#87c699"/>
              <path id="Path_1002505" data-name="Path 1002505" d="M647.109,254.033s-.2,3.457,4.224,3.62A3.6,3.6,0,0,0,647.109,254.033Z" transform="translate(-624.713 -248.534)" fill="#87c699"/>
              <path id="Path_1002506" data-name="Path 1002506" d="M581.017,255.884s-1.755-7.28,4.99-8.822,14.653,3.012,17,.6c1.243-1.28-.208-2.88-1.383-3.641" transform="translate(-580.811 -241.918)" fill="none" stroke="#2e2854" stroke-linecap="round" stroke-linejoin="round" stroke-miterlimit="10" stroke-width="1.2"/>
            </g>
            <path id="Path_1002507" data-name="Path 1002507" d="M647.782,195.7s3.114-1.123,2.033-3.515-2.147,2.155.672.9,1.051-3.447,1.051-3.447" transform="translate(-616.315 -187.662)" fill="none" stroke="#2e2854" stroke-linecap="round" stroke-linejoin="round" stroke-miterlimit="10" stroke-width="1.2"/>
            <path id="Path_1002508" data-name="Path 1002508" d="M559.6,263.424s-3.249.633-2.547,3.163,2.452-1.8-.527-.992-1.566,3.245-1.566,3.245" transform="translate(-554.63 -236.526)" fill="none" stroke="#2e2854" stroke-linecap="round" stroke-linejoin="round" stroke-miterlimit="10" stroke-width="1.2"/>
            <path id="Path_1002509" data-name="Path 1002509" d="M569.527,183.846a2.969,2.969,0,0,1,2.69,2.179c.414,2.035-.9,2.42-1.345,1.675s2.311-1.313,3.277.351a3.349,3.349,0,0,1,0,3.25" transform="translate(-564.495 -183.829)" fill="none" stroke="#2e2854" stroke-linecap="round" stroke-linejoin="round" stroke-miterlimit="10" stroke-width="1.2"/>
            <path id="Path_1002510" data-name="Path 1002510" d="M663.615,257.089a2.969,2.969,0,0,1,3.365.816c1.246,1.661.227,2.571-.5,2.09s1.525-2.176,3.111-1.087a3.349,3.349,0,0,1,1.393,2.937" transform="translate(-626.8 -232.188)" fill="none" stroke="#2e2854" stroke-linecap="round" stroke-linejoin="round" stroke-miterlimit="10" stroke-width="1.2"/>
          </g>
        </g>
        <g id="Group_1179428" data-name="Group 1179428" transform="translate(128.624)">
          <path id="Path_1002511" data-name="Path 1002511" d="M304.8,39.235l.841,1.656a1.368,1.368,0,0,1-.615,1.882,1.4,1.4,0,0,1-1.882-.614l-1.346-2.65c-.013-.025.013-.038,0-.064-.039-.013-.039-.013-.052-.037a1.441,1.441,0,0,1,.613-1.883,3.2,3.2,0,1,0-2.9-5.706,3.16,3.16,0,0,0-1.734,2.644,1.409,1.409,0,0,1-1.5,1.338,1.391,1.391,0,0,1-1.3-1.486,6.005,6.005,0,1,1,9.871,4.92Zm2.834,5.579.233.458a1.368,1.368,0,0,1-.614,1.883,1.4,1.4,0,0,1-1.882-.615l-.233-.458a1.421,1.421,0,0,1,.614-1.882A1.384,1.384,0,0,1,307.631,44.814Z" transform="translate(-288.951 -28.668)" fill="#2e2854"/>
          <path id="Path_1002512" data-name="Path 1002512" d="M470.684,44.362l-.41,1.256a.973.973,0,0,1-1.256.637A1,1,0,0,1,468.381,45l.656-2.01c.006-.019.026-.012.032-.032-.013-.026-.013-.026-.007-.045a1.025,1.025,0,0,1,1.255-.638,2.277,2.277,0,1,0,1.412-4.328,2.247,2.247,0,0,0-2.2.458,1,1,0,0,1-1.427-.081.99.99,0,0,1,.094-1.4,4.272,4.272,0,1,1,2.49,7.439ZM469.3,48.593l-.114.348a.973.973,0,0,1-1.256.638,1,1,0,0,1-.637-1.256l.113-.348a1.01,1.01,0,0,1,1.255-.637A.984.984,0,0,1,469.3,48.593Z" transform="translate(-403.064 -33.419)" fill="#2e2854"/>
          <path id="Path_1002513" data-name="Path 1002513" d="M285.449,86.966l1.069.777a.972.972,0,0,1,.22,1.391,1,1,0,0,1-1.39.221l-1.711-1.242c-.016-.012,0-.028-.021-.041-.029,0-.029,0-.045-.007a1.025,1.025,0,0,1-.221-1.391A2.277,2.277,0,1,0,279.667,84a2.247,2.247,0,0,0-.242,2.236,1,1,0,0,1-.516,1.333.99.99,0,0,1-1.3-.521,4.272,4.272,0,1,1,7.845-.08Zm3.6,2.616.3.215a.972.972,0,0,1,.221,1.391,1,1,0,0,1-1.391.22l-.3-.215a1.011,1.011,0,0,1-.221-1.39A.985.985,0,0,1,289.051,89.581Z" transform="translate(-277.243 -63.359)" fill="#2e2854"/>
        </g>
        <g id="Group_1179429" data-name="Group 1179429" transform="translate(68.966 7.128)">
          <path id="Path_1002514" data-name="Path 1002514" d="M222.819,211.889a1.734,1.734,0,1,0-1.734,1.734A1.734,1.734,0,0,0,222.819,211.889Z" transform="translate(-179.249 -155.976)" fill="none" stroke="#2e2854" stroke-linecap="round" stroke-linejoin="round" stroke-miterlimit="10" stroke-width="1.2"/>
          <path id="Path_1002515" data-name="Path 1002515" d="M113.5,73.265A1.734,1.734,0,1,0,111.766,75,1.734,1.734,0,0,0,113.5,73.265Z" transform="translate(-106.858 -64.179)" fill="none" stroke="#2e2854" stroke-linecap="round" stroke-linejoin="round" stroke-miterlimit="10" stroke-width="1.2"/>
          <path id="Path_1002516" data-name="Path 1002516" d="M526.779,76.333a1.734,1.734,0,1,0-1.734,1.734A1.734,1.734,0,0,0,526.779,76.333Z" transform="translate(-380.531 -66.211)" fill="none" stroke="#2e2854" stroke-linecap="round" stroke-linejoin="round" stroke-miterlimit="10" stroke-width="1.2"/>
          <path id="Path_1002517" data-name="Path 1002517" d="M558.223,441.5a1.734,1.734,0,1,0-1.734,1.734A1.734,1.734,0,0,0,558.223,441.5Z" transform="translate(-401.354 -308.028)" fill="none" stroke="#2e2854" stroke-linecap="round" stroke-linejoin="round" stroke-miterlimit="10" stroke-width="1.2"/>
          <path id="Path_1002518" data-name="Path 1002518" d="M259.493,436.169a1.734,1.734,0,1,0-1.734,1.734A1.734,1.734,0,0,0,259.493,436.169Z" transform="translate(-203.535 -304.494)" fill="none" stroke="#2e2854" stroke-linecap="round" stroke-linejoin="round" stroke-miterlimit="10" stroke-width="1.2"/>
          <line id="Line_3285" data-name="Line 3285" transform="translate(36.634 134.497)" fill="none" stroke="#2e2854" stroke-linecap="round" stroke-linejoin="round" stroke-miterlimit="10" stroke-width="2"/>
          <line id="Line_3286" data-name="Line 3286" transform="translate(192.739 108.679)" fill="none" stroke="#2e2854" stroke-linecap="round" stroke-linejoin="round" stroke-miterlimit="10" stroke-width="2"/>
          <line id="Line_3287" data-name="Line 3287" transform="translate(200.703 84.713)" fill="none" stroke="#2e2854" stroke-linecap="round" stroke-linejoin="round" stroke-miterlimit="10" stroke-width="2"/>
          <line id="Line_3288" data-name="Line 3288" transform="translate(59.658 51.168)" fill="none" stroke="#2e2854" stroke-linecap="round" stroke-linejoin="round" stroke-miterlimit="10" stroke-width="2"/>
          <line id="Line_3289" data-name="Line 3289" transform="translate(50.01)" fill="none" stroke="#2e2854" stroke-linecap="round" stroke-linejoin="round" stroke-miterlimit="10" stroke-width="2"/>
          <line id="Line_3290" data-name="Line 3290" transform="translate(23.651 93.294)" fill="none" stroke="#2e2854" stroke-linecap="round" stroke-linejoin="round" stroke-miterlimit="10" stroke-width="2"/>
          <line id="Line_3291" data-name="Line 3291" transform="translate(139.114 131.675)" fill="none" stroke="#2e2854" stroke-linecap="round" stroke-linejoin="round" stroke-miterlimit="10" stroke-width="2"/>
          <line id="Line_3292" data-name="Line 3292" transform="translate(4.908 124.757)" fill="none" stroke="#2e2854" stroke-linecap="round" stroke-linejoin="round" stroke-miterlimit="10" stroke-width="2"/>
          <line id="Line_3293" data-name="Line 3293" transform="translate(139.114 24.912)" fill="none" stroke="#2e2854" stroke-linecap="round" stroke-linejoin="round" stroke-miterlimit="10" stroke-width="2"/>
          <line id="Line_3294" data-name="Line 3294" transform="translate(139.114 73.303)" fill="none" stroke="#2e2854" stroke-linecap="round" stroke-linejoin="round" stroke-miterlimit="10" stroke-width="2"/>
          <line id="Line_3295" data-name="Line 3295" transform="translate(40.101 38.5)" fill="none" stroke="#2e2854" stroke-linecap="round" stroke-linejoin="round" stroke-miterlimit="10" stroke-width="2"/>
          <line id="Line_3296" data-name="Line 3296" transform="translate(184.826 35.86)" fill="none" stroke="#2e2854" stroke-linecap="round" stroke-linejoin="round" stroke-miterlimit="10" stroke-width="2"/>
          <line id="Line_3297" data-name="Line 3297" transform="translate(0 48.053)" fill="none" stroke="#2e2854" stroke-linecap="round" stroke-linejoin="round" stroke-miterlimit="10" stroke-width="2"/>
        </g>
      </g>
    </g>
  </g>
</svg>
