<svg xmlns="http://www.w3.org/2000/svg" width="68" height="68" viewBox="0 0 68 68">
  <g id="img14" transform="translate(-517.711 -4080)">
    <rect id="Rectangle_455337" data-name="Rectangle 455337" width="68" height="68" transform="translate(517.711 4080)" fill="#fa996c"/>
    <g id="Group_1178819" data-name="Group 1178819" transform="translate(524.566 4067.698)">
      <g id="Group_1178817" data-name="Group 1178817" transform="translate(0.795 22.224)">
        <g id="Group_1178816" data-name="Group 1178816" transform="translate(0 0)">
          <g id="Group_1178814" data-name="Group 1178814">
            <g id="Group_1178812" data-name="Group 1178812" transform="translate(6.746)">
              <path id="Path_1001660" data-name="Path 1001660" d="M99.748,42.043a1.241,1.241,0,0,1-.967-.844,12.14,12.14,0,0,0-.727-1.759,1.238,1.238,0,0,1,.22-1.44l1.436-1.436a1.23,1.23,0,0,0,0-1.74l-2.387-2.387a1.23,1.23,0,0,0-1.74,0l-1.436,1.436a1.238,1.238,0,0,1-1.44.22,12.14,12.14,0,0,0-1.759-.727,1.237,1.237,0,0,1-.862-1.174V30.16a1.23,1.23,0,0,0-1.23-1.231H85.48a1.23,1.23,0,0,0-1.23,1.231v2.032a1.237,1.237,0,0,1-.862,1.174,12.14,12.14,0,0,0-1.759.727,1.238,1.238,0,0,1-1.44-.22l-1.436-1.436a1.23,1.23,0,0,0-1.74,0l-2.387,2.387a1.23,1.23,0,0,0,0,1.74L76.062,38a1.238,1.238,0,0,1,.22,1.44,12.139,12.139,0,0,0-.727,1.759,1.237,1.237,0,0,1-1.174.862H72.348a1.23,1.23,0,0,0-1.23,1.23v2.856h26.9a9.49,9.49,0,0,1,1.733-4.1Z" transform="translate(-71.118 -28.929)" fill="#b5adb6"/>
              <path id="Path_1001661" data-name="Path 1001661" d="M164.318,115.569a7.815,7.815,0,1,0-15.456,0Z" transform="translate(-140.54 -98.352)" fill="#918291"/>
              <path id="Path_1001662" data-name="Path 1001662" d="M195.014,147.667l-1.416-1.416a1.231,1.231,0,0,0-.87-.36h-2a1.231,1.231,0,0,0-.87.36l-1.416,1.416a1.231,1.231,0,0,0-.36.87v2a1.232,1.232,0,0,0,.013.167h7.27a1.23,1.23,0,0,0,.013-.167v-2A1.23,1.23,0,0,0,195.014,147.667Z" transform="translate(-175.677 -133.489)" fill="#7a6d79"/>
              <path id="Path_1001663" data-name="Path 1001663" d="M218.767,147.667l-1.416-1.416a1.231,1.231,0,0,0-.87-.36H214.65l.36.36a6.065,6.065,0,0,1,1.776,4.289,1.229,1.229,0,0,1-.013.167h2.341a1.228,1.228,0,0,0,.013-.167v-2A1.231,1.231,0,0,0,218.767,147.667Z" transform="translate(-199.431 -133.489)" fill="#685e68"/>
            </g>
            <g id="Group_1178813" data-name="Group 1178813" transform="translate(19.149 17.104)">
              <path id="Path_1001664" data-name="Path 1001664" d="M188.089,208.045h14.082v-1.616a1.608,1.608,0,0,1,1.606-1.606h8.166v-3.392a9.505,9.505,0,0,1-6.583-2.692H193.067a1.041,1.041,0,0,1-.932-.585l-3.771-7.816-.169-.106-.106.187Z" transform="translate(-188.089 -190.232)" fill="#60b7ff"/>
            </g>
            <path id="Path_1001665" data-name="Path 1001665" d="M58.947,208.045V190.232l-.169.106-3.771,7.816a1.041,1.041,0,0,1-.932.585H43.7l-.19.106v9.2Z" transform="translate(-39.693 -173.128)" fill="#8ac9fe"/>
            <path id="Path_1001666" data-name="Path 1001666" d="M203.351,191.893a9.555,9.555,0,0,1,.145-1.661H189.089l3.845,7.968a1.141,1.141,0,0,0,1.028.645h12.4A9.513,9.513,0,0,1,203.351,191.893Z" transform="translate(-169.834 -173.128)" fill="#8ac9fe"/>
            <path id="Path_1001667" data-name="Path 1001667" d="M8.071,198.845H21.882a1.141,1.141,0,0,0,1.028-.645l3.845-7.968H12.035a1.141,1.141,0,0,0-1.028.645l-3.45,7.149a.571.571,0,0,0,.514.819Z" transform="translate(-7.5 -173.128)" fill="#b3dafe"/>
          </g>
          <path id="Path_1001668" data-name="Path 1001668" d="M42.443,370.466h-.106a1.608,1.608,0,0,1-1.606-1.606v-2.1a1.608,1.608,0,0,1,1.606-1.606v-.212a1.608,1.608,0,0,1-1.606-1.606v-2.1a1.608,1.608,0,0,1,1.606-1.606v-.212a1.608,1.608,0,0,1-1.606-1.606v-.588H8.641A1.141,1.141,0,0,0,7.5,358.37v11.061a1.141,1.141,0,0,0,1.141,1.141h33.8Z" transform="translate(-7.5 -322.418)" fill="#e2dee2"/>
          <path id="Path_1001669" data-name="Path 1001669" d="M42.443,370.466h-.106a1.608,1.608,0,0,1-1.606-1.606v-2.1a1.608,1.608,0,0,1,1.606-1.606v-.212a1.608,1.608,0,0,1-1.606-1.606v-2.1a1.608,1.608,0,0,1,1.606-1.606v-.212a1.608,1.608,0,0,1-1.606-1.606v-.588H37.937v9.1a1.141,1.141,0,0,1-1.141,1.141H7.5v1.958a1.141,1.141,0,0,0,1.141,1.141h33.8Z" transform="translate(-7.5 -322.418)" fill="#cbc4cc"/>
          <g id="Group_1178815" data-name="Group 1178815" transform="translate(33.41 9.121)">
            <circle id="Ellipse_13686" data-name="Ellipse 13686" cx="9.644" cy="9.644" r="9.644" fill="#ffe177"/>
            <path id="Path_1001670" data-name="Path 1001670" d="M367.017,118.568a9.646,9.646,0,0,1-8.541,16.936,9.645,9.645,0,1,0,8.541-16.936Z" transform="translate(-354.671 -118.184)" fill="#ffd15b"/>
          </g>
          <path id="Path_1001671" data-name="Path 1001671" d="M321.611,326.84h15.865a1.712,1.712,0,0,1,1.712,1.712v2.1a1.712,1.712,0,0,1-1.712,1.712H321.611a1.712,1.712,0,0,1-1.712-1.712v-2.1A1.712,1.712,0,0,1,321.611,326.84Z" transform="translate(-286.774 -295.251)" fill="#ffe177"/>
          <path id="Path_1001672" data-name="Path 1001672" d="M337.476,326.84h-1.458v2.04a1.06,1.06,0,0,1-1.06,1.06H319.9v.71a1.712,1.712,0,0,0,1.712,1.712h15.865a1.712,1.712,0,0,0,1.712-1.712v-2.1A1.712,1.712,0,0,0,337.476,326.84Z" transform="translate(-286.774 -295.251)" fill="#ffd15b"/>
          <path id="Path_1001673" data-name="Path 1001673" d="M321.611,378.917h15.865a1.712,1.712,0,0,1,1.712,1.712v2.1a1.712,1.712,0,0,1-1.712,1.712H321.611a1.712,1.712,0,0,1-1.712-1.712v-2.1A1.712,1.712,0,0,1,321.611,378.917Z" transform="translate(-286.774 -341.807)" fill="#ffe177"/>
          <path id="Path_1001674" data-name="Path 1001674" d="M321.611,430.994h15.865a1.712,1.712,0,0,1,1.712,1.712v2.1a1.712,1.712,0,0,1-1.712,1.712H321.611A1.712,1.712,0,0,1,319.9,434.8v-2.1A1.712,1.712,0,0,1,321.611,430.994Z" transform="translate(-286.774 -388.362)" fill="#ffe177"/>
          <path id="Path_1001675" data-name="Path 1001675" d="M337.476,430.994h-1.458v2.04a1.06,1.06,0,0,1-1.06,1.06H319.9v.71a1.712,1.712,0,0,0,1.712,1.712h15.865a1.712,1.712,0,0,0,1.712-1.712v-2.1A1.712,1.712,0,0,0,337.476,430.994Z" transform="translate(-286.774 -388.362)" fill="#ffd15b"/>
          <path id="Path_1001676" data-name="Path 1001676" d="M45.686,406.826h-3.9a.571.571,0,0,1-.571-.571v-3.9a.571.571,0,0,1,.571-.571h3.9a.571.571,0,0,1,.571.571v3.9A.571.571,0,0,1,45.686,406.826Z" transform="translate(-37.637 -362.246)" fill="#fff"/>
          <path id="Path_1001677" data-name="Path 1001677" d="M45.686,401.781H44.432v2.634a.571.571,0,0,1-.571.571H41.212v1.27a.571.571,0,0,0,.571.571h3.9a.571.571,0,0,0,.571-.571v-3.9A.571.571,0,0,0,45.686,401.781Z" transform="translate(-37.637 -362.246)" fill="#f3f0f3"/>
        </g>
        <path id="Path_1001678" data-name="Path 1001678" d="M337.476,378.917h-1.458v2.04a1.06,1.06,0,0,1-1.06,1.06H319.9v.71a1.712,1.712,0,0,0,1.712,1.712h15.865a1.712,1.712,0,0,0,1.712-1.712v-2.1A1.712,1.712,0,0,0,337.476,378.917Z" transform="translate(-286.774 -341.807)" fill="#ffd15b"/>
      </g>
      <g id="Group_1178818" data-name="Group 1178818" transform="translate(0 21.429)">
        <path id="Path_1001679" data-name="Path 1001679" d="M384.149,158.738v.628a.8.8,0,1,0,1.59,0v-.618a3.046,3.046,0,0,0,2.459-2.325c.185-1.037-.3-2.4-2.2-3.1-1.022-.377-1.97-.788-2.224-.9a.762.762,0,0,1-.3-.735,1.037,1.037,0,0,1,.787-.815,2.892,2.892,0,0,1,2.406.55.8.8,0,0,0,1.02-1.22,4.88,4.88,0,0,0-1.948-.92v-.637a.8.8,0,0,0-1.591,0v.619c-.114.023-.23.051-.347.086a2.62,2.62,0,0,0-1.9,2.112,2.348,2.348,0,0,0,1.047,2.324.793.793,0,0,0,.11.06c.046.021,1.147.511,2.388.968.85.313,1.283.8,1.188,1.328a1.566,1.566,0,0,1-1.611,1.087,3.011,3.011,0,0,1-2.212-.931.8.8,0,1,0-1.179,1.068A4.538,4.538,0,0,0,384.149,158.738Z" transform="translate(-340.981 -134.446)"/>
        <path id="Path_1001680" data-name="Path 1001680" d="M125.655,441.859h-8.9a.8.8,0,1,0,0,1.591h8.9a.8.8,0,0,0,0-1.591Z" transform="translate(-103.662 -397.279)"/>
        <path id="Path_1001681" data-name="Path 1001681" d="M125.655,411.72h-8.9a.8.8,0,1,0,0,1.59h8.9a.8.8,0,1,0,0-1.59Z" transform="translate(-103.662 -370.336)"/>
        <path id="Path_1001682" data-name="Path 1001682" d="M38.981,394.281h-3.9a1.367,1.367,0,0,0-1.366,1.366v3.9a1.367,1.367,0,0,0,1.366,1.366h3.9a1.367,1.367,0,0,0,1.366-1.366v-3.9A1.367,1.367,0,0,0,38.981,394.281Zm-.225,5.045H35.3v-3.454h3.454Z" transform="translate(-30.137 -354.746)"/>
        <path id="Path_1001683" data-name="Path 1001683" d="M51.5,53.018h-6.9V51.4a10.439,10.439,0,1,0-8.654-17.217,12.971,12.971,0,0,0-.753-1.811.444.444,0,0,1,.074-.517l1.436-1.436a2.028,2.028,0,0,0,0-2.865l-2.387-2.387a2.026,2.026,0,0,0-2.865,0l-1.436,1.436a.444.444,0,0,1-.517.074,12.976,12.976,0,0,0-1.874-.775.442.442,0,0,1-.312-.417V23.455a2.028,2.028,0,0,0-2.026-2.026H21.9a2.028,2.028,0,0,0-2.026,2.026v2.032a.442.442,0,0,1-.312.417,12.975,12.975,0,0,0-1.874.775.444.444,0,0,1-.517-.074l-1.436-1.436a2.026,2.026,0,0,0-2.865,0l-2.387,2.386a2.026,2.026,0,0,0,0,2.865l1.436,1.436a.444.444,0,0,1,.074.517,12.957,12.957,0,0,0-.775,1.874.442.442,0,0,1-.417.312H8.771a2.028,2.028,0,0,0-2.026,2.026v1.946H5.33a1.947,1.947,0,0,0-1.744,1.1L.137,46.777a1.366,1.366,0,0,0,1.23,1.959H3.818v7.5H1.936A1.939,1.939,0,0,0,0,58.176V69.237a1.939,1.939,0,0,0,1.937,1.937H51.5A2.51,2.51,0,0,0,54,68.666v-2.1a2.5,2.5,0,0,0-.678-1.712A2.5,2.5,0,0,0,54,63.145v-2.1a2.5,2.5,0,0,0-.678-1.712A2.5,2.5,0,0,0,54,57.623v-2.1A2.51,2.51,0,0,0,51.5,53.018ZM43.85,32.14A8.849,8.849,0,1,1,35,40.989,8.859,8.859,0,0,1,43.85,32.14ZM20.738,38.532v-1.26a.433.433,0,0,1,.127-.308l1.416-1.416a.438.438,0,0,1,.308-.127h2a.432.432,0,0,1,.308.127l1.416,1.416a.432.432,0,0,1,.127.308v1.26Zm12.708,1.591c-.024.286-.036.574-.036.866a10.383,10.383,0,0,0,2.014,6.157h-10.5a.348.348,0,0,1-.312-.2l-3.294-6.827h12.13ZM8.336,36.586a.436.436,0,0,1,.435-.435H10.8a2.029,2.029,0,0,0,1.93-1.412,11.37,11.37,0,0,1,.68-1.644,2.03,2.03,0,0,0-.367-2.363L11.61,29.3a.435.435,0,0,1,0-.615L14,26.294a.435.435,0,0,1,.615,0l1.436,1.436a2.03,2.03,0,0,0,2.363.367,11.376,11.376,0,0,1,1.644-.68,2.028,2.028,0,0,0,1.412-1.93V23.455a.436.436,0,0,1,.435-.435h3.375a.436.436,0,0,1,.435.435v2.032a2.029,2.029,0,0,0,1.412,1.93,11.377,11.377,0,0,1,1.644.68,2.03,2.03,0,0,0,2.363-.367l1.436-1.436a.435.435,0,0,1,.615,0l2.387,2.387a.436.436,0,0,1,0,.616l-1.436,1.436a2.03,2.03,0,0,0-.366,2.363,11.4,11.4,0,0,1,.68,1.644,2.042,2.042,0,0,0,.495.811,10.381,10.381,0,0,0-1.24,2.983H32.2c0-.087,0-.173,0-.259a8.62,8.62,0,0,0-8.611-8.611,8.52,8.52,0,0,0-3.882.925.8.8,0,0,0,.718,1.419,6.943,6.943,0,0,1,3.164-.754,7.028,7.028,0,0,1,7.02,7.02q0,.128-.005.259H28.033v-1.26a2.012,2.012,0,0,0-.593-1.432l-1.416-1.416a2.013,2.013,0,0,0-1.432-.593h-2a2.012,2.012,0,0,0-1.432.593L19.74,35.84a2.013,2.013,0,0,0-.593,1.432v1.26H16.575q-.005-.13-.005-.259a6.969,6.969,0,0,1,1.316-4.09.8.8,0,1,0-1.292-.928,8.55,8.55,0,0,0-1.615,5.018c0,.086,0,.172,0,.259H8.336ZM6.15,48.736a.8.8,0,0,0,0-1.591H1.725l3.294-6.827a.348.348,0,0,1,.312-.2H18.783L15.489,46.95a.348.348,0,0,1-.312.2H9.861a.8.8,0,0,0,0,1.591h5.316a1.947,1.947,0,0,0,1.744-1.1l2.333-4.835V56.24H5.409v-7.5ZM29.265,57.83h3.869a2.5,2.5,0,0,0,.669,1.5,2.5,2.5,0,0,0-.678,1.712v2.1a2.5,2.5,0,0,0,.678,1.712,2.5,2.5,0,0,0-.678,1.712v2.1a2.493,2.493,0,0,0,.174.917H1.936a.346.346,0,0,1-.346-.346V58.176a.346.346,0,0,1,.346-.346H25.554a.8.8,0,1,0,0-1.591H20.845V42.806l2.333,4.835a1.947,1.947,0,0,0,1.744,1.1H36.86A10.4,10.4,0,0,0,43,51.394v1.623h-7.37a2.51,2.51,0,0,0-2.507,2.507v.715h-3.86a.8.8,0,1,0,0,1.591ZM52.413,68.666a.918.918,0,0,1-.917.917H35.632a.918.918,0,0,1-.917-.917v-2.1a.918.918,0,0,1,.917-.917H51.5a.918.918,0,0,1,.917.917Zm0-5.522a.918.918,0,0,1-.917.917H35.632a.918.918,0,0,1-.917-.917v-2.1a.918.918,0,0,1,.917-.917H51.5a.918.918,0,0,1,.917.917Zm0-5.522a.918.918,0,0,1-.917.917H35.632a.918.918,0,0,1-.917-.917v-2.1a.918.918,0,0,1,.917-.917H51.5a.918.918,0,0,1,.917.917Z" transform="translate(0 -21.429)"/>
      </g>
    </g>
  </g>
</svg>
