<svg xmlns="http://www.w3.org/2000/svg" width="96" height="96" viewBox="0 0 96 96">
  <g id="img20" transform="translate(-794.039 -2920.081)">
    <path id="Elipse_5729" data-name="Elipse 5729" d="M48,0A48,48,0,1,1,0,48,48,48,0,0,1,48,0Z" transform="translate(794.039 2920.081)" fill="#fdd1aa"/>
    <path id="Path_1002657" data-name="Path 1002657" d="M21.448,22.773H20.76a2.183,2.183,0,0,0-2.182,2.262l.344,9.53a2.183,2.183,0,0,0,4.363,0l.344-9.53a2.183,2.183,0,0,0-2.181-2.262Zm.2,11.733a.54.54,0,0,1-1.079,0l-.344-9.53a.54.54,0,0,1,.54-.56h.688a.54.54,0,0,1,.54.56ZM52,56.842l-5.672-5.5a1.758,1.758,0,0,0-1.834-.387l-2.308-2.24a11.143,11.143,0,0,0-4.727-15.749L27.332,15.428a7.191,7.191,0,0,0-12.455,0L.928,39.587A7.191,7.191,0,0,0,7.156,50.373H24.248a11.131,11.131,0,0,0,15.1,1.507l2.123,2.06a1.763,1.763,0,0,0,.355,2.035l5.672,5.5a1.763,1.763,0,0,0,2.489-.037h0l2.048-2.111A1.763,1.763,0,0,0,52,56.842Zm-8.776-4.834-.671.691-1.969-1.911q.337-.345.644-.717ZM7.156,48.731a5.548,5.548,0,0,1-4.8-8.322L16.3,16.249a5.548,5.548,0,0,1,9.61,0l9.168,15.879a11.125,11.125,0,0,0-2.092-.269L24.456,17.088a3.871,3.871,0,0,0-6.7,0L3.8,41.247a3.871,3.871,0,0,0,3.352,5.806H22.219a11.123,11.123,0,0,0,.825,1.678ZM21.1,40.339a.923.923,0,1,1,.923-.923A.924.924,0,0,1,21.1,40.339Zm1.772-2.775a2.565,2.565,0,1,0-1.369,4.386c-.033.347-.05.7-.05,1.054a11.144,11.144,0,0,0,.262,2.407H7.156a2.228,2.228,0,0,1-1.929-3.342L19.175,17.909a2.228,2.228,0,0,1,3.859,0L31.14,31.95a11.174,11.174,0,0,0-8.264,5.613ZM23.1,43a9.508,9.508,0,1,1,9.508,9.508A9.518,9.518,0,0,1,23.1,43ZM50.856,58.187,48.808,60.3a.121.121,0,0,1-.166,0L42.97,54.8a.12.12,0,0,1,0-.166l2.048-2.111a.116.116,0,0,1,.083-.035h0a.115.115,0,0,1,.082.032l5.672,5.5A.121.121,0,0,1,50.856,58.187ZM32.608,34.848A8.155,8.155,0,1,0,40.763,43,8.164,8.164,0,0,0,32.608,34.848Zm0,14.667A6.512,6.512,0,1,1,39.12,43,6.52,6.52,0,0,1,32.608,49.515Z" transform="translate(815.797 2931.177)" fill="#643d2b"/>
  </g>
</svg>
