<svg xmlns="http://www.w3.org/2000/svg" width="96" height="96" viewBox="0 0 96 96">
  <g id="img24" transform="translate(-794.039 -2920.081)">
    <path id="Elipse_5729" data-name="Elipse 5729" d="M48,0A48,48,0,1,1,0,48,48,48,0,0,1,48,0Z" transform="translate(794.039 2920.081)" fill="#fdd1aa"/>
    <g id="Group_1179436" data-name="Group 1179436" transform="translate(812.006 2937.548)">
      <path id="Path_1002688" data-name="Path 1002688" d="M31.683,52.366A4.683,4.683,0,1,0,27,47.683,4.688,4.688,0,0,0,31.683,52.366Zm0-7.492a2.81,2.81,0,1,1-2.81,2.81A2.813,2.813,0,0,1,31.683,44.873Z" transform="translate(-1.65 -2.665)" fill="#643d2b"/>
      <path id="Path_1002689" data-name="Path 1002689" d="M50.637,13.175H45.018a2.813,2.813,0,0,0-2.81,2.81,4.655,4.655,0,0,0,1.544,3.451L42.045,23.7l1.1,1.1v1.485a4.688,4.688,0,0,0,4.683,4.683V32.4a8.437,8.437,0,0,0-5.307,6.941l-.214,1.933h-.692a11.846,11.846,0,0,0-.532-1.354l1.385-2.331-1.2-1.2V29.622a7.644,7.644,0,0,0-3.043-6.086,7.564,7.564,0,0,0-2.72-1.294l-1.894-.474-.308-1.233a5.615,5.615,0,0,0,2.26-3.615h1.022a2.813,2.813,0,0,0,2.81-2.81,2.782,2.782,0,0,0-.636-1.758A6.113,6.113,0,0,0,39.4,9.645V9.429a3.751,3.751,0,0,0-3.191-3.705L35.594,4.7A7.664,7.664,0,0,0,29.056,1a7.573,7.573,0,0,0-5.39,2.233l-.585.585a8.184,8.184,0,0,0-2.414,5.827,6.114,6.114,0,0,0,.636,2.709,2.78,2.78,0,0,0-.636,1.758,2.813,2.813,0,0,0,2.81,2.81H24.5a5.62,5.62,0,0,0,2.26,3.615l-.308,1.233-1.894.474a7.545,7.545,0,0,0-2.719,1.294,7.642,7.642,0,0,0-3.044,6.086v6.768l-1.2,1.2,1.385,2.331a11.846,11.846,0,0,0-.532,1.354H17.76l-.214-1.933A8.437,8.437,0,0,0,12.239,32.4V30.97a4.688,4.688,0,0,0,4.683-4.683V24.8l1.1-1.1-1.707-4.267a4.655,4.655,0,0,0,1.544-3.451,2.813,2.813,0,0,0-2.81-2.81H9.556A8.553,8.553,0,0,0,6.619,29.762V31.48a3.876,3.876,0,0,0-1.873,3.347V59.066H17.858V52.71L22.6,57.453l2.331-1.385c.3.138.6.263.9.375l.669,2.624h7.076l.668-2.624c.3-.111.6-.237.9-.375l2.331,1.385,4.743-4.743v6.356H55.32V41.086l.713-.595a8.406,8.406,0,0,0,3.034-6.475V21.6a8.439,8.439,0,0,0-8.429-8.429ZM45.018,26.287V24.026l-.774-.775L45.386,20.4a4.616,4.616,0,0,0,1.505.271h1.443a1.878,1.878,0,0,1,1.837,1.506l1.4,7.016V30.98a3.726,3.726,0,0,0-1.873.513V29.1H47.828a2.813,2.813,0,0,1-2.81-2.81ZM49.7,34.716a1.877,1.877,0,0,1,2.254-1.836,1.959,1.959,0,0,1,1.492,1.946v3.636H49.7Zm-5.318,4.829a6.56,6.56,0,0,1,3.474-5.091c-.007.088-.029.173-.029.262v6.556H44.191ZM37.105,25.036A5.761,5.761,0,0,1,39.4,29.623v4.894l-1.933-1.933L35.135,33.97c-.3-.138-.6-.263-.9-.375l-.669-2.625h-.018l.883-7.065.619.155a5.694,5.694,0,0,1,2.05.977Zm-8.308.4-.931,1.242L27.555,24.2Zm1.236,1.473,3.044,4.058H26.989ZM32.511,24.2,32.2,26.68l-.931-1.242Zm4.078-9.148h-.937V13.175h.937a.937.937,0,1,1,0,1.873Zm-14.048-.937a.937.937,0,0,1,.937-.937h.937v1.873h-.937A.937.937,0,0,1,22.541,14.112ZM25.512,11.3h-1.1V11.3h-.937a2.8,2.8,0,0,0-.571.059,4.268,4.268,0,0,1-.365-1.716,6.325,6.325,0,0,1,1.865-4.5l.585-.585a5.714,5.714,0,0,1,4.066-1.684,5.782,5.782,0,0,1,4.932,2.791l1.134,1.892h.53a1.875,1.875,0,0,1,1.873,1.873v.216a4.26,4.26,0,0,1-.366,1.716,2.792,2.792,0,0,0-.57-.059h-.937V11.3h-1.1A5.42,5.42,0,0,1,30.7,9.7l-.662-.663-.662.663a5.425,5.425,0,0,1-3.86,1.6Zm.775,1.833a7.254,7.254,0,0,0,3.746-1.519,7.262,7.262,0,0,0,3.746,1.519v2.85a3.746,3.746,0,0,1-7.492,0ZM30.033,21.6a5.591,5.591,0,0,0,1.553-.223l.22.879-1.773,1.772L28.26,22.253l.22-.879a5.591,5.591,0,0,0,1.553.224Zm-9.366,8.025a5.761,5.761,0,0,1,2.295-4.587,5.7,5.7,0,0,1,2.049-.976l.619-.155.883,7.064H26.5l-.668,2.624c-.3.111-.6.237-.9.375L22.6,32.583l-1.934,1.933Zm-.716,8.258L22.9,34.937,24.858,36.1l.462-.239A10.317,10.317,0,0,1,26.9,35.2l.495-.157.559-2.2h4.163l.56,2.2.494.157a10.317,10.317,0,0,1,1.578.66l.462.239,1.962-1.167,2.944,2.944-1.167,1.962.239.462c.164.317.3.64.435.967H38.462a3.705,3.705,0,0,0-.834.1,8.422,8.422,0,0,0-15.191,0,3.705,3.705,0,0,0-.834-.1H20.447a10.236,10.236,0,0,1,.435-.967l.239-.462Zm4.155,4.371a6.528,6.528,0,0,1,11.851,0,3.7,3.7,0,0,0,0,5.534,6.528,6.528,0,0,1-11.851,0,3.7,3.7,0,0,0,0-5.533Zm-8.424-2.707.192,1.727H12.239V34.716c0-.089-.022-.174-.029-.262a6.56,6.56,0,0,1,3.474,5.091Zm.139-16.293-.774.775v2.261a2.813,2.813,0,0,1-2.81,2.81H10.366v2.4a3.729,3.729,0,0,0-1.873-.513v-1.79l1.4-7.018a1.878,1.878,0,0,1,1.837-1.506h1.443A4.616,4.616,0,0,0,14.68,20.4ZM2.873,21.732a6.691,6.691,0,0,1,6.683-6.683h5.492a.937.937,0,0,1,.937.937,2.813,2.813,0,0,1-2.81,2.81H11.732a3.756,3.756,0,0,0-3.673,3.011L6.852,27.843a6.673,6.673,0,0,1-3.978-6.111ZM8.111,32.88a2.067,2.067,0,0,1,.384-.037,1.846,1.846,0,0,1,1.187.427,1.872,1.872,0,0,1,.684,1.446v3.746H6.619V34.826A1.959,1.959,0,0,1,8.111,32.88ZM6.619,40.335h3.746v1.485l-1.6,1.6,1.324,1.324,1.6-1.6H21.6a1.873,1.873,0,1,1,0,3.746H10.366a3.75,3.75,0,0,1-3.746-3.746v-2.81Zm9.366,8.429v1.873H6.619V47.322a5.591,5.591,0,0,0,3.746,1.442Zm-2.81,8.429v-.549a2.246,2.246,0,0,1,.662-1.6l-1.324-1.324A4.106,4.106,0,0,0,11.3,56.644v.549H6.619V52.511h9.366v4.683Zm4.683-5.18V48.764h.595a11.846,11.846,0,0,0,.532,1.354ZM37.171,55.1l-1.962-1.167-.462.239a10.317,10.317,0,0,1-1.578.66l-.494.157-.559,2.2H27.952l-.56-2.2-.495-.157a10.317,10.317,0,0,1-1.578-.66l-.462-.239L22.9,55.1l-2.944-2.944,1.167-1.962-.239-.462a10.47,10.47,0,0,1-.434-.967H21.6a3.705,3.705,0,0,0,.834-.1,8.422,8.422,0,0,0,15.191,0,3.712,3.712,0,0,0,.834.1h1.159c-.128.323-.269.646-.435.967l-.239.462,1.167,1.962Zm3.912-4.981a12.06,12.06,0,0,0,.532-1.354h.594v3.249Zm3-1.354H49.7a5.591,5.591,0,0,0,3.746-1.442v3.315H44.082Zm4.683,8.429v-.549a4.106,4.106,0,0,0-1.211-2.923l-1.324,1.324a2.247,2.247,0,0,1,.662,1.6v.549h-2.81V52.511h9.366v4.683Zm4.683-14.048A3.75,3.75,0,0,1,49.7,46.891H38.462a1.873,1.873,0,1,1,0-3.746h9.914l1.6,1.6L51.3,43.419l-1.6-1.6V40.335h3.746v2.81Zm3.746-9.129A6.531,6.531,0,0,1,55.32,38.6V34.826a3.877,3.877,0,0,0-1.873-3.347V29.1l-1.439-7.29a3.756,3.756,0,0,0-3.673-3.012H46.891a2.813,2.813,0,0,1-2.81-2.81.937.937,0,0,1,.937-.937h5.619A6.564,6.564,0,0,1,57.193,21.6Z" fill="#643d2b"/>
    </g>
  </g>
</svg>
