<svg xmlns="http://www.w3.org/2000/svg" width="96" height="96" viewBox="0 0 96 96">
  <g id="img23" transform="translate(-794.039 -2920.081)">
    <path id="Elipse_5729" data-name="Elipse 5729" d="M48,0A48,48,0,1,1,0,48,48,48,0,0,1,48,0Z" transform="translate(794.039 2920.081)" fill="#fdd1aa"/>
    <g id="Group_1179435" data-name="Group 1179435" transform="translate(804.036 2930.077)">
      <path id="Path_1002669" data-name="Path 1002669" d="M393.559,166.318H392v1.467h2.179a.733.733,0,0,0,.723-.61l5.5-32.272-1.446-.246Z" transform="translate(-341.528 -107.777)" fill="#643d2b"/>
      <path id="Path_1002670" data-name="Path 1002670" d="M399.667,40.746l-8.8-1.552-.255,1.445,8.083,1.426-.752,4.415,1.446.246.875-5.134A.733.733,0,0,0,399.667,40.746Z" transform="translate(-340.266 -21.068)" fill="#643d2b"/>
      <path id="Path_1002671" data-name="Path 1002671" d="M48.272,16H16.733a.733.733,0,0,0-.733.733V46.805h1.467V17.467H47.538V58.54H17.467V48.272H16v11a.733.733,0,0,0,.733.733H48.272a.733.733,0,0,0,.733-.733V16.733A.733.733,0,0,0,48.272,16Z" transform="translate(0 0)" fill="#643d2b"/>
      <path id="Path_1002672" data-name="Path 1002672" d="M83.38,253.686l-1.037,1.037,2.2,2.2a.733.733,0,0,0,.519.215h.028a.734.734,0,0,0,.529-.256l4.4-5.134-1.114-.955-3.885,4.533Z" transform="translate(-60.261 -213.267)" fill="#643d2b"/>
      <path id="Path_1002673" data-name="Path 1002673" d="M56,254.234a2.57,2.57,0,0,0,2.567,2.567h3.667a2.57,2.57,0,0,0,2.567-2.567v-.367H63.335v.367a1.1,1.1,0,0,1-1.1,1.1H58.567a1.1,1.1,0,0,1-1.1-1.1v-3.667a1.1,1.1,0,0,1,1.1-1.1h3.3V248h-3.3A2.57,2.57,0,0,0,56,250.567Z" transform="translate(-36.333 -210.73)" fill="#643d2b"/>
      <path id="Path_1002674" data-name="Path 1002674" d="M83.38,373.686l-1.037,1.037,2.2,2.2a.733.733,0,0,0,.519.215h.028a.734.734,0,0,0,.529-.256l4.4-5.134-1.114-.955-3.885,4.533Z" transform="translate(-60.261 -322.265)" fill="#643d2b"/>
      <path id="Path_1002675" data-name="Path 1002675" d="M56,374.234a2.57,2.57,0,0,0,2.567,2.567h3.667a2.57,2.57,0,0,0,2.567-2.567v-.367H63.335v.367a1.1,1.1,0,0,1-1.1,1.1H58.567a1.1,1.1,0,0,1-1.1-1.1v-3.667a1.1,1.1,0,0,1,1.1-1.1h3.3V368h-3.3A2.57,2.57,0,0,0,56,370.567Z" transform="translate(-36.333 -319.728)" fill="#643d2b"/>
      <path id="Path_1002676" data-name="Path 1002676" d="M184,368h11v1.467H184Z" transform="translate(-152.597 -319.728)" fill="#643d2b"/>
      <path id="Path_1002677" data-name="Path 1002677" d="M184,408h3.667v1.467H184Z" transform="translate(-152.597 -356.061)" fill="#643d2b"/>
      <path id="Path_1002678" data-name="Path 1002678" d="M240,408h5.868v1.467H240Z" transform="translate(-203.463 -356.061)" fill="#643d2b"/>
      <path id="Path_1002679" data-name="Path 1002679" d="M184,248h11v1.467H184Z" transform="translate(-152.597 -210.73)" fill="#643d2b"/>
      <path id="Path_1002680" data-name="Path 1002680" d="M184,288h3.667v1.467H184Z" transform="translate(-152.597 -247.063)" fill="#643d2b"/>
      <path id="Path_1002681" data-name="Path 1002681" d="M240,288h5.868v1.467H240Z" transform="translate(-203.463 -247.063)" fill="#643d2b"/>
      <path id="Path_1002682" data-name="Path 1002682" d="M134.216,51l-6.592-2.939a.733.733,0,0,0-.6,0L120.435,51a.733.733,0,0,0-.426.784l.549,3.489,0,.017a12.005,12.005,0,0,0,4.736,7.529L126.9,64a.733.733,0,0,0,.866,0l1.523-1.107a12,12,0,0,0,4.8-7.573l0-.017.555-3.517A.733.733,0,0,0,134.216,51Zm-1.577,4.064a10.541,10.541,0,0,1-4.216,6.641l-1.089.792-1.167-.859a10.545,10.545,0,0,1-4.161-6.6l-.461-2.925,5.78-2.578,5.78,2.577Z" transform="translate(-94.465 -29.066)" fill="#643d2b"/>
      <path id="Path_1002683" data-name="Path 1002683" d="M163.19,100.6l-1.037,1.037,2.2,2.2a.733.733,0,0,0,1.037,0l4.4-4.4L168.754,98.4l-3.882,3.882Z" transform="translate(-132.753 -74.845)" fill="#643d2b"/>
      <path id="Path_1002684" data-name="Path 1002684" d="M56,48h4.4v1.467H56Z" transform="translate(-36.333 -29.066)" fill="#643d2b"/>
      <path id="Path_1002685" data-name="Path 1002685" d="M56,80h2.934v1.467H56Z" transform="translate(-36.333 -58.132)" fill="#643d2b"/>
      <path id="Path_1002686" data-name="Path 1002686" d="M296,48h1.467v1.467H296Z" transform="translate(-254.329 -29.066)" fill="#643d2b"/>
      <path id="Path_1002687" data-name="Path 1002687" d="M328,48h1.467v1.467H328Z" transform="translate(-283.395 -29.066)" fill="#643d2b"/>
    </g>
  </g>
</svg>
