<svg xmlns="http://www.w3.org/2000/svg" width="96" height="96" viewBox="0 0 96 96">
  <g id="img22" transform="translate(-794.039 -2920.081)">
    <path id="Elipse_5729" data-name="Elipse 5729" d="M48,0A48,48,0,1,1,0,48,48,48,0,0,1,48,0Z" transform="translate(794.039 2920.081)" fill="#fdd1aa"/>
    <g id="Group_1179434" data-name="Group 1179434" transform="translate(811.298 2939.553)">
      <path id="Path_1002659" data-name="Path 1002659" d="M98.071,211.37a.836.836,0,0,0-.836-.836H75.561a.836.836,0,1,0,0,1.672H97.235A.836.836,0,0,0,98.071,211.37Z" transform="translate(-64.185 -187.073)" fill="#643d2b"/>
      <path id="Path_1002660" data-name="Path 1002660" d="M87.85,276.247a.836.836,0,0,0-.836-.836H75.561a.836.836,0,1,0,0,1.672H87.015A.836.836,0,0,0,87.85,276.247Z" transform="translate(-64.185 -244.72)" fill="#643d2b"/>
      <path id="Path_1002661" data-name="Path 1002661" d="M75.561,340.258a.836.836,0,1,0,0,1.672h7.8a.836.836,0,1,0,0-1.672Z" transform="translate(-64.185 -302.341)" fill="#643d2b"/>
      <path id="Path_1002662" data-name="Path 1002662" d="M357.528,357.821a4.419,4.419,0,1,0-1.629,8.686,4.468,4.468,0,0,0,.824.077,4.419,4.419,0,0,0,.8-8.763Zm1.887,4.851a2.722,2.722,0,0,1-1.147,1.758h0a2.747,2.747,0,1,1-1.558-5.014,2.78,2.78,0,0,1,.511.048,2.749,2.749,0,0,1,2.2,3.208Z" transform="translate(-310.82 -317.879)" fill="#643d2b"/>
      <path id="Path_1002663" data-name="Path 1002663" d="M26.935,157.25H19.214a.836.836,0,0,0-.458.137L9.065,163.73v-5.645a.836.836,0,0,0-.836-.836H7.044a2.886,2.886,0,0,1-2.881-2.883v-27.4a2.886,2.886,0,0,1,2.881-2.883H18.582a.836.836,0,1,0,0-1.672H7.044a4.559,4.559,0,0,0-4.553,4.555v27.4a4.559,4.559,0,0,0,4.553,4.555h.349v5.353a1.531,1.531,0,0,0,.633,1.429,1.044,1.044,0,0,0,.5.127,1.442,1.442,0,0,0,.791-.268l10.145-6.641h7.471a.836.836,0,0,0,0-1.672Z" transform="translate(0 -108.774)" fill="#643d2b"/>
      <path id="Path_1002664" data-name="Path 1002664" d="M208.632,13.71a8.539,8.539,0,0,0,1.507-6.588c-.655-3.336-2.481-5.7-5.139-6.669a8.489,8.489,0,0,0-8.062,1.465,7.612,7.612,0,0,0-2.24,2.631c-.986,2.37.008,4.069,1.158,4.8a3.023,3.023,0,0,0,3.914-.449q.028-.031.053-.064l1.1-1.469a1.271,1.271,0,0,1,1.25-.442,1.767,1.767,0,0,1,1.288,1.149,2.319,2.319,0,0,1-.7,2.26,6.838,6.838,0,0,0-1.9,3.3h-24.89a.836.836,0,0,0,0,1.672h24.738c-.007.341-.007,1.546-.007,1.546a3.185,3.185,0,0,0,1.053,2.48,3.368,3.368,0,0,0,2.241.82,3.053,3.053,0,0,0,3.2-3.092v-.835a3.167,3.167,0,0,1,.043-.772.7.7,0,0,1,.086-.147h.513a2.886,2.886,0,0,1,2.881,2.883v27.4a2.886,2.886,0,0,1-2.881,2.883h-1.456c.051-.087.1-.173.151-.262A8.369,8.369,0,0,0,201.911,36.3l-.433-1.458a1.973,1.973,0,0,0-2.448-1.334l-1.268.375c1.061-4.108-.268-6.221-1.234-7.155a4.793,4.793,0,0,0-5.042-1,3.758,3.758,0,0,0-2.231,2.319l-1.84-.594a1.976,1.976,0,0,0-2.484,1.267l-.469,1.451A8.369,8.369,0,1,0,190.8,45.608c.042-.022.083-.045.125-.068a8.32,8.32,0,0,0,1.058,2.935h-7.655a.836.836,0,0,0,0,1.672h8.96a8.358,8.358,0,0,0,8.277,2.094,8.319,8.319,0,0,0,3.537-2.094h2.749a4.559,4.559,0,0,0,4.553-4.555V18.2a4.561,4.561,0,0,0-3.772-4.486Zm-2.116-.015a2.816,2.816,0,0,0-.978,2.538v.834A1.418,1.418,0,0,1,204,18.487a1.724,1.724,0,0,1-1.133-.4,1.56,1.56,0,0,1-.489-1.228v-.436c0-2.606,0-3.149,1.629-4.97a3.846,3.846,0,0,0,1.035-3.906A3.44,3.44,0,0,0,202.5,5.288a3.074,3.074,0,0,0-.594-.059A2.955,2.955,0,0,0,199.64,6.3l-.036.044L198.513,7.8a1.368,1.368,0,0,1-1.757.144c-.634-.4-1.1-1.341-.515-2.752a6.085,6.085,0,0,1,1.747-1.973,6.788,6.788,0,0,1,6.442-1.194c1.476.535,3.38,1.91,4.069,5.42a7.229,7.229,0,0,1-1.983,6.25ZM192.11,27.286a3.1,3.1,0,0,1,3.257.647c.764.738,1.814,2.553.486,6.517l-1.194.353a8.417,8.417,0,0,0-.956-1.641l.468-1.447a1.976,1.976,0,0,0-1.268-2.484l-2.06-.664a2.118,2.118,0,0,1,1.266-1.28ZM190.039,44.12a6.7,6.7,0,1,1-4.709-12.451.836.836,0,0,0,.587-.552l.605-1.873a.3.3,0,0,1,.289-.205.3.3,0,0,1,.091.014l5.487,1.77a.3.3,0,0,1,.192.379l-.605,1.871a.836.836,0,0,0,.153.793,6.7,6.7,0,0,1-2.09,10.255Zm15.038,3.295a6.739,6.739,0,0,1-.925,1.3c-.02.019-.038.04-.056.061a6.7,6.7,0,0,1-11.6-4.315,8.4,8.4,0,0,0,2.681-8.071l4.328-1.28a.3.3,0,0,1,.373.2l.56,1.887a.836.836,0,0,0,.574.567,6.7,6.7,0,0,1,4.067,9.644Z" transform="translate(-153.412)" fill="#643d2b"/>
      <path id="Path_1002665" data-name="Path 1002665" d="M246.687,303.85a4.42,4.42,0,1,0,4.419,4.421A4.427,4.427,0,0,0,246.687,303.85Zm0,7.168a2.748,2.748,0,1,1,2.748-2.746A2.752,2.752,0,0,1,246.687,311.018Z" transform="translate(-213.054 -269.99)" fill="#643d2b"/>
      <path id="Path_1002666" data-name="Path 1002666" d="M407.826,201.177a3.248,3.248,0,1,0-3.251-3.247A3.251,3.251,0,0,0,407.826,201.177Zm0-4.825a1.577,1.577,0,1,1-1.579,1.578A1.579,1.579,0,0,1,407.826,196.352Z" transform="translate(-357.277 -172.986)" fill="#643d2b"/>
      <path id="Path_1002667" data-name="Path 1002667" d="M365.259,335.146a.836.836,0,1,0,1.595-.5l-.107-.342a.836.836,0,1,0-1.595.5Z" transform="translate(-322.213 -296.529)" fill="#643d2b"/>
      <path id="Path_1002668" data-name="Path 1002668" d="M290.812,278.316a.835.835,0,0,0,1.045-.553l.1-.338a.836.836,0,1,0-1.6-.492l-.1.338A.836.836,0,0,0,290.812,278.316Z" transform="translate(-255.667 -245.548)" fill="#643d2b"/>
    </g>
  </g>
</svg>
