<svg xmlns="http://www.w3.org/2000/svg" width="128" height="128" viewBox="0 0 128 128">
  <g id="img12" transform="translate(-383.746 -8400)">
    <circle id="Ellipse_13609" data-name="Ellipse 13609" cx="64" cy="64" r="64" transform="translate(383.746 8400)" fill="#fdd1aa"/>
    <g id="Group_1181412" data-name="Group 1181412" transform="translate(417.746 8434.277)">
      <path id="Path_1010575" data-name="Path 1010575" d="M55,15H54V6a6.006,6.006,0,0,0-6-6H6A6.006,6.006,0,0,0,0,6V48a6.006,6.006,0,0,0,6,6H22v1a5.006,5.006,0,0,0,5,5H55a5.006,5.006,0,0,0,5-5V20A5.006,5.006,0,0,0,55,15ZM6,2H48a4,4,0,0,1,4,4V8H2V6A4,4,0,0,1,6,2ZM22,20V52H6a4,4,0,0,1-4-4V10H52v5H47.722A1.993,1.993,0,0,0,46,14h-.151A4.865,4.865,0,0,0,41,11a4.865,4.865,0,0,0-4.849,3H36a1.993,1.993,0,0,0-1.722,1H27a5.006,5.006,0,0,0-5,5Zm12.278,1A1.993,1.993,0,0,0,36,22H46a1.993,1.993,0,0,0,1.722-1H54V54H28V21ZM36,20V16h1a1,1,0,0,0,1-1c0-1.084,1.374-2,3-2s3,.916,3,2a1,1,0,0,0,1,1h1v4ZM58,55a3,3,0,0,1-3,3H27a3,3,0,0,1-3-3V20a3,3,0,0,1,3-3h7v2H28a2,2,0,0,0-2,2V54a2,2,0,0,0,2,2H54a2,2,0,0,0,2-2V21a2,2,0,0,0-2-2H48V17h7a3,3,0,0,1,3,3Z" fill="#2f3ae6"/>
      <path id="Path_1010576" data-name="Path 1010576" d="M6,6H7A1,1,0,0,0,7,4H6A1,1,0,0,0,6,6Z" fill="#2f3ae6"/>
      <path id="Path_1010577" data-name="Path 1010577" d="M11,6h1a1,1,0,0,0,0-2H11a1,1,0,0,0,0,2Z" fill="#2f3ae6"/>
      <path id="Path_1010578" data-name="Path 1010578" d="M16,6h1a1,1,0,0,0,0-2H16a1,1,0,0,0,0,2Z" fill="#2f3ae6"/>
      <path id="Path_1010579" data-name="Path 1010579" d="M27,6H43a1,1,0,0,0,0-2H27a1,1,0,0,0,0,2Z" fill="#2f3ae6"/>
      <path id="Path_1010580" data-name="Path 1010580" d="M6,29H7a1,1,0,0,0,0-2H6a1,1,0,0,0,0,2Z" fill="#2f3ae6"/>
      <path id="Path_1010581" data-name="Path 1010581" d="M19,27H11a1,1,0,0,0,0,2h8a1,1,0,0,0,0-2Z" fill="#2f3ae6"/>
      <path id="Path_1010582" data-name="Path 1010582" d="M8,40a1,1,0,0,0-1-1H6a1,1,0,0,0,0,2H7A1,1,0,0,0,8,40Z" fill="#2f3ae6"/>
      <path id="Path_1010583" data-name="Path 1010583" d="M19,39H11a1,1,0,0,0,0,2h8a1,1,0,0,0,0-2Z" fill="#2f3ae6"/>
      <path id="Path_1010584" data-name="Path 1010584" d="M9,31H8a1,1,0,0,0,0,2H9a1,1,0,0,0,0-2Z" fill="#2f3ae6"/>
      <path id="Path_1010585" data-name="Path 1010585" d="M19,31H13a1,1,0,0,0,0,2h6a1,1,0,0,0,0-2Z" fill="#2f3ae6"/>
      <path id="Path_1010586" data-name="Path 1010586" d="M9,35H8a1,1,0,0,0,0,2H9a1,1,0,0,0,0-2Z" fill="#2f3ae6"/>
      <path id="Path_1010587" data-name="Path 1010587" d="M19,35H13a1,1,0,0,0,0,2h6a1,1,0,0,0,0-2Z" fill="#2f3ae6"/>
      <path id="Path_1010588" data-name="Path 1010588" d="M6,17H7a1,1,0,0,0,0-2H6a1,1,0,0,0,0,2Z" fill="#2f3ae6"/>
      <path id="Path_1010589" data-name="Path 1010589" d="M19,15H11a1,1,0,0,0,0,2h8a1,1,0,0,0,0-2Z" fill="#2f3ae6"/>
      <path id="Path_1010590" data-name="Path 1010590" d="M7,20a1,1,0,0,0,1,1H9a1,1,0,0,0,0-2H8A1,1,0,0,0,7,20Z" fill="#2f3ae6"/>
      <path id="Path_1010591" data-name="Path 1010591" d="M19,19H13a1,1,0,0,0,0,2h6a1,1,0,0,0,0-2Z" fill="#2f3ae6"/>
      <path id="Path_1010592" data-name="Path 1010592" d="M9,23H8a1,1,0,0,0,0,2H9a1,1,0,0,0,0-2Z" fill="#2f3ae6"/>
      <path id="Path_1010593" data-name="Path 1010593" d="M19,23H13a1,1,0,0,0,0,2h6a1,1,0,0,0,0-2Z" fill="#2f3ae6"/>
      <path id="Path_1010594" data-name="Path 1010594" d="M9,43H8a1,1,0,0,0,0,2H9a1,1,0,0,0,0-2Z" fill="#2f3ae6"/>
      <path id="Path_1010595" data-name="Path 1010595" d="M19,43H13a1,1,0,0,0,0,2h6a1,1,0,0,0,0-2Z" fill="#2f3ae6"/>
      <path id="Path_1010596" data-name="Path 1010596" d="M9,47H8a1,1,0,0,0,0,2H9a1,1,0,0,0,0-2Z" fill="#2f3ae6"/>
      <path id="Path_1010597" data-name="Path 1010597" d="M19,47H13a1,1,0,0,0,0,2h6a1,1,0,0,0,0-2Z" fill="#2f3ae6"/>
      <path id="Path_1010598" data-name="Path 1010598" d="M32.293,32.707A1,1,0,0,0,33,33h.071a1,1,0,0,0,.729-.4l3-4a1,1,0,1,0-1.6-1.2l-2.307,3.078-.185-.185a1,1,0,1,0-1.414,1.414Z" fill="#2f3ae6"/>
      <path id="Path_1010599" data-name="Path 1010599" d="M35.2,35.4l-2.307,3.078-.185-.185a1,1,0,1,0-1.414,1.414l1,1A1,1,0,0,0,33,41h.071a1,1,0,0,0,.729-.4l3-4a1,1,0,0,0-1.6-1.2Z" fill="#2f3ae6"/>
      <path id="Path_1010600" data-name="Path 1010600" d="M35.2,43.4l-2.307,3.078-.185-.185A1,1,0,0,0,31.3,47.707l1,1A1,1,0,0,0,33,49h.071a1,1,0,0,0,.729-.4l3-4a1,1,0,0,0-1.6-1.2Z" fill="#2f3ae6"/>
      <path id="Path_1010601" data-name="Path 1010601" d="M41,32h9a1,1,0,0,0,0-2H41a1,1,0,0,0,0,2Z" fill="#2f3ae6"/>
      <path id="Path_1010602" data-name="Path 1010602" d="M41,40h9a1,1,0,0,0,0-2H41a1,1,0,0,0,0,2Z" fill="#2f3ae6"/>
      <path id="Path_1010603" data-name="Path 1010603" d="M41,48h9a1,1,0,0,0,0-2H41a1,1,0,0,0,0,2Z" fill="#2f3ae6"/>
    </g>
  </g>
</svg>
