<svg xmlns="http://www.w3.org/2000/svg" width="128" height="128" viewBox="0 0 128 128">
  <g id="img10" transform="translate(-383.746 -8400)">
    <circle id="Ellipse_13609" data-name="Ellipse 13609" cx="64" cy="64" r="64" transform="translate(383.746 8400)" fill="#fdd1aa"/>
    <g id="system_update_x2C__data_x2C__database_x2C__data_base_x2C__update" transform="translate(411.715 8427.969)">
      <g id="Group_1181429" data-name="Group 1181429" transform="translate(1 1)">
        <g id="XMLID_1257_" transform="translate(0 31.527)">
          <g id="Group_1181414" data-name="Group 1181414" transform="translate(50.21 15.686)">
            <path id="Path_1010626" data-name="Path 1010626" d="M34.679,38.229a1.169,1.169,0,0,1-.827-.341l-3.669-3.671a1.168,1.168,0,0,1,1.651-1.651l2.212,2.212,2.7-10.792-10.794,2.7L28.161,28.9a1.168,1.168,0,0,1-1.651,1.651l-3.669-3.671a1.167,1.167,0,0,1,.544-1.957l14.68-3.669a1.165,1.165,0,0,1,1.415,1.415L35.812,37.344a1.165,1.165,0,0,1-.822.843,1.184,1.184,0,0,1-.311.042Z" transform="translate(-22.5 -21.216)" fill="#2f3ae6"/>
          </g>
          <g id="Group_1181415" data-name="Group 1181415" transform="translate(33.863 23.357)">
            <path id="Path_1010627" data-name="Path 1010627" d="M16.668,35.008a1.168,1.168,0,0,1,0-2.335,27.885,27.885,0,0,0,19.447-7.845,1.168,1.168,0,1,1,1.621,1.681A30.208,30.208,0,0,1,16.668,35.008Z" transform="translate(-15.5 -24.501)" fill="#2f3ae6"/>
          </g>
          <g id="Group_1181416" data-name="Group 1181416">
            <path id="Path_1010628" data-name="Path 1010628" d="M36.031,53.034A35.071,35.071,0,0,1,1,18c0-.813.028-1.616.082-2.415A1.189,1.189,0,0,1,2.326,14.5a1.167,1.167,0,0,1,1.086,1.245Q3.335,16.866,3.335,18A32.7,32.7,0,0,0,58.579,41.68a1.168,1.168,0,0,1,1.611,1.691,34.882,34.882,0,0,1-24.16,9.664Z" transform="translate(-1 -14.5)" fill="#2f3ae6"/>
          </g>
        </g>
        <g id="transfer_11_" transform="translate(2.835)">
          <g id="XMLID_1260_">
            <g id="Group_1181417" data-name="Group 1181417" transform="translate(0 5.835)">
              <path id="Path_1010629" data-name="Path 1010629" d="M3.382,20.516a1.178,1.178,0,0,1-.827-.341,1.165,1.165,0,0,1-.306-1.109L5.918,4.385a1.169,1.169,0,0,1,1.959-.544l3.669,3.674A1.168,1.168,0,0,1,9.9,9.166L7.684,6.954l-2.7,10.789,10.794-2.7-2.214-2.214a1.168,1.168,0,0,1,1.651-1.651l3.671,3.671a1.168,1.168,0,0,1-.544,1.959L3.664,20.48a1.17,1.17,0,0,1-.283.035Z" transform="translate(-2.214 -3.498)" fill="#2f3ae6"/>
            </g>
            <g id="Group_1181418" data-name="Group 1181418" transform="translate(10.771 4.671)">
              <path id="Path_1010630" data-name="Path 1010630" d="M7.994,13.507a1.168,1.168,0,0,1-.81-2.008A30.208,30.208,0,0,1,28.251,3a1.168,1.168,0,0,1,0,2.335A27.885,27.885,0,0,0,8.8,13.18,1.159,1.159,0,0,1,7.994,13.507Z" transform="translate(-6.826 -3)" fill="#2f3ae6"/>
            </g>
            <g id="Group_1181419" data-name="Group 1181419" transform="translate(7.675)">
              <path id="Path_1010631" data-name="Path 1010631" d="M63.805,39.529c-.026,0-.054,0-.082,0a1.17,1.17,0,0,1-1.086-1.245q.081-1.117.079-2.251A32.7,32.7,0,0,0,7.473,12.355a1.168,1.168,0,1,1-1.611-1.691,35.031,35.031,0,0,1,59.19,25.367q0,1.216-.082,2.41A1.17,1.17,0,0,1,63.805,39.529Z" transform="translate(-5.5 -1)" fill="#2f3ae6"/>
            </g>
          </g>
        </g>
        <g id="XMLID_1264_" transform="translate(21.018 37.366)">
          <path id="Path_1010632" data-name="Path 1010632" d="M24.012,24.006C17.051,24.006,10,22,10,18.168a1.168,1.168,0,0,1,2.335,0c0,1.394,4.657,3.5,11.677,3.5s11.677-2.109,11.677-3.5a1.168,1.168,0,0,1,2.335,0C38.025,22,30.974,24.006,24.012,24.006Z" transform="translate(-10 -17)" fill="#2f3ae6"/>
        </g>
        <g id="XMLID_1266_" transform="translate(21.018 18.773)">
          <path id="Path_1010633" data-name="Path 1010633" d="M24.012,20.626a30.432,30.432,0,0,1-8.347-1.07,1.168,1.168,0,1,1,.654-2.242,28.463,28.463,0,0,0,7.693.976c7.02,0,11.677-2.109,11.677-3.5s-4.657-3.5-11.677-3.5-11.677,2.109-11.677,3.5a1.168,1.168,0,0,1-2.335,0c0-7.665,28.025-7.665,28.025,0C38.025,18.619,30.974,20.626,24.012,20.626Z" transform="translate(-10 -9.039)" fill="#2f3ae6"/>
        </g>
        <g id="XMLID_1267_" transform="translate(21.018 30.36)">
          <path id="Path_1010634" data-name="Path 1010634" d="M24.012,21.006C17.051,21.006,10,19,10,15.168a1.168,1.168,0,1,1,2.335,0c0,1.394,4.657,3.5,11.677,3.5s11.677-2.109,11.677-3.5a1.168,1.168,0,1,1,2.335,0C38.025,19,30.974,21.006,24.012,21.006Z" transform="translate(-10 -14)" fill="#2f3ae6"/>
        </g>
        <g id="XMLID_1268_" transform="translate(21.018 43.205)">
          <path id="Path_1010635" data-name="Path 1010635" d="M24.012,27.674C17.051,27.674,10,25.668,10,21.835V20.668a1.168,1.168,0,1,1,2.335,0v1.168c0,1.394,4.657,3.5,11.677,3.5s11.677-2.109,11.677-3.5V20.668a1.168,1.168,0,1,1,2.335,0v1.168C38.025,25.668,30.974,27.674,24.012,27.674Z" transform="translate(-10 -19.5)" fill="#2f3ae6"/>
        </g>
        <g id="Group_1181424" data-name="Group 1181424" transform="translate(29.192 4.688)">
          <g id="XMLID_280_" transform="translate(0 58.393)">
            <g id="Group_1181421" data-name="Group 1181421">
              <g id="Group_1181420" data-name="Group 1181420">
                <path id="Path_1010636" data-name="Path 1010636" d="M14.668,30.32a1.156,1.156,0,0,1-.817-1.985,1.193,1.193,0,0,1,1.635,0,1.1,1.1,0,0,1,.35.817,1.167,1.167,0,0,1-.327.817A1.185,1.185,0,0,1,14.668,30.32Z" transform="translate(-13.5 -28.011)" fill="#2f3ae6"/>
              </g>
            </g>
          </g>
          <g id="XMLID_278_" transform="translate(9.342)">
            <g id="Group_1181423" data-name="Group 1181423">
              <g id="Group_1181422" data-name="Group 1181422">
                <path id="Path_1010637" data-name="Path 1010637" d="M18.668,5.325A1.209,1.209,0,0,1,17.85,5a1.185,1.185,0,0,1-.35-.841,1.1,1.1,0,0,1,.35-.817,1.17,1.17,0,0,1,1.635,0,1.129,1.129,0,0,1,0,1.635A1.133,1.133,0,0,1,18.668,5.325Z" transform="translate(-17.5 -3.008)" fill="#2f3ae6"/>
              </g>
            </g>
          </g>
        </g>
        <g id="Group_1181425" data-name="Group 1181425" transform="translate(46.708 36.198)">
          <path id="Path_1010638" data-name="Path 1010638" d="M22.168,20A1.168,1.168,0,0,1,21,18.835V17.668a1.168,1.168,0,1,1,2.335,0v1.168A1.168,1.168,0,0,1,22.168,20Z" transform="translate(-21 -16.5)" fill="#2f3ae6"/>
        </g>
        <g id="Group_1181426" data-name="Group 1181426" transform="translate(21.018 36.198)">
          <path id="Path_1010639" data-name="Path 1010639" d="M11.168,20A1.168,1.168,0,0,1,10,18.835V17.668a1.168,1.168,0,1,1,2.335,0v1.168A1.168,1.168,0,0,1,11.168,20Z" transform="translate(-10 -16.5)" fill="#2f3ae6"/>
        </g>
        <g id="Group_1181427" data-name="Group 1181427" transform="translate(46.708 23.354)">
          <path id="Path_1010640" data-name="Path 1010640" d="M22.168,20.342A1.168,1.168,0,0,1,21,19.174V12.168a1.168,1.168,0,1,1,2.335,0v7.006A1.168,1.168,0,0,1,22.168,20.342Z" transform="translate(-21 -11)" fill="#2f3ae6"/>
        </g>
        <g id="Group_1181428" data-name="Group 1181428" transform="translate(21.018 23.354)">
          <path id="Path_1010641" data-name="Path 1010641" d="M11.168,20.342A1.168,1.168,0,0,1,10,19.174V12.168a1.168,1.168,0,0,1,2.335,0v7.006A1.168,1.168,0,0,1,11.168,20.342Z" transform="translate(-10 -11)" fill="#2f3ae6"/>
        </g>
      </g>
    </g>
  </g>
</svg>
