<svg xmlns="http://www.w3.org/2000/svg" width="128" height="128" viewBox="0 0 128 128">
  <g id="img13" transform="translate(-381.746 -8402)">
    <path id="Path_997402" data-name="Path 997402" d="M64,0A64,64,0,1,1,0,64,64,64,0,0,1,64,0Z" transform="translate(381.746 8402)" fill="#fdd1aa"/>
    <g id="Group_1181413" data-name="Group 1181413" transform="translate(413.746 8434.277)">
      <path id="Path_1010604" data-name="Path 1010604" d="M57.305,50.723a5,5,0,1,0-6.61,0A8.005,8.005,0,0,0,46,58v3a1,1,0,0,0,1,1H61a1,1,0,0,0,1-1V58A8.005,8.005,0,0,0,57.305,50.723ZM51,47a3,3,0,1,1,3,3A3,3,0,0,1,51,47Zm9,13H48V58a6,6,0,0,1,12,0Z" fill="#2f3ae6"/>
      <path id="Path_1010605" data-name="Path 1010605" d="M3,62H17a1,1,0,0,0,1-1V58a8.005,8.005,0,0,0-4.695-7.277,5,5,0,1,0-6.61,0A8.005,8.005,0,0,0,2,58v3A1,1,0,0,0,3,62ZM7,47a3,3,0,1,1,3,3A3,3,0,0,1,7,47ZM4,58a6,6,0,0,1,12,0v2H4Z" fill="#2f3ae6"/>
      <path id="Path_1010606" data-name="Path 1010606" d="M24,58v3a1,1,0,0,0,1,1H39a1,1,0,0,0,1-1V58a8.005,8.005,0,0,0-4.695-7.277,5,5,0,1,0-6.61,0A8.005,8.005,0,0,0,24,58Zm5-11a3,3,0,1,1,3,3A3,3,0,0,1,29,47Zm3,5a6.006,6.006,0,0,1,6,6v2H26V58A6.006,6.006,0,0,1,32,52Z" fill="#2f3ae6"/>
      <path id="Path_1010607" data-name="Path 1010607" d="M32,8a9,9,0,1,0,9,9A9.01,9.01,0,0,0,32,8Zm0,16a7,7,0,1,1,7-7A7.008,7.008,0,0,1,32,24Z" fill="#2f3ae6"/>
      <path id="Path_1010608" data-name="Path 1010608" d="M46,21a1,1,0,0,0,1-1V14a1,1,0,0,0-1-1l-1.651-.027a12.782,12.782,0,0,0-.784-1.881l1.164-1.163a1,1,0,0,0,0-1.414L40.486,4.273a1,1,0,0,0-1.414,0L37.886,5.421A12.511,12.511,0,0,0,36,4.646V3a1,1,0,0,0-1-1H29a1,1,0,0,0-1,1l-.026,1.651a12.641,12.641,0,0,0-1.882.784L24.929,4.272a1,1,0,0,0-1.414,0L19.272,8.514a1,1,0,0,0,0,1.414l1.148,1.187A12.707,12.707,0,0,0,19.646,13H18a1,1,0,0,0-1,1v6a1,1,0,0,0,1,1l1.651.027a12.693,12.693,0,0,0,.784,1.881l-1.164,1.163a1,1,0,0,0,0,1.414l4.243,4.242a1,1,0,0,0,1.414,0l1.186-1.148A12.5,12.5,0,0,0,28,29.353V31a1,1,0,0,0,1,1h6a1,1,0,0,0,1-1l.026-1.651a12.587,12.587,0,0,0,1.881-.784l1.164,1.163a1,1,0,0,0,1.414,0l4.243-4.242a1,1,0,0,0,0-1.414l-1.148-1.188A12.46,12.46,0,0,0,44.353,21Zm-3.554-.592a11.036,11.036,0,0,1-.649,1.57,2.013,2.013,0,0,0,.354,2.344l.456.456-2.828,2.828-.457-.456a2.009,2.009,0,0,0-2.345-.353,10.781,10.781,0,0,1-1.57.649A2.015,2.015,0,0,0,34,29.354V30H30v-.646a2.013,2.013,0,0,0-1.409-1.907,11.007,11.007,0,0,1-1.568-.648,2.005,2.005,0,0,0-2.344.353l-.457.456L21.394,24.78l.456-.456a2.016,2.016,0,0,0,.353-2.345,10.976,10.976,0,0,1-.649-1.569A2.014,2.014,0,0,0,19.646,19H19V15h.646a2.014,2.014,0,0,0,1.908-1.408,11.084,11.084,0,0,1,.649-1.57,2.012,2.012,0,0,0-.353-2.344l-.456-.456,2.828-2.828.456.456a2.011,2.011,0,0,0,2.345.353,10.781,10.781,0,0,1,1.57-.649A2.015,2.015,0,0,0,30,4.646V4h4v.646a2.013,2.013,0,0,0,1.409,1.907,11.007,11.007,0,0,1,1.568.648,2.01,2.01,0,0,0,2.345-.353l.456-.456L42.606,9.22l-.456.458a2.013,2.013,0,0,0-.354,2.344,10.854,10.854,0,0,1,.649,1.57A2.016,2.016,0,0,0,44.354,15H45v4h-.646a2.014,2.014,0,0,0-1.908,1.408Z" fill="#2f3ae6"/>
      <path id="Path_1010609" data-name="Path 1010609" d="M36.555,16.168l-6-4A1,1,0,0,0,29,13v8a1,1,0,0,0,1.555.832l6-4a1,1,0,0,0,0-1.664ZM31,19.132V14.868L34.2,17Z" fill="#2f3ae6"/>
      <path id="Path_1010610" data-name="Path 1010610" d="M31,38h2v2H31Z" fill="#2f3ae6"/>
      <path id="Path_1010611" data-name="Path 1010611" d="M31,34h2v2H31Z" fill="#2f3ae6"/>
      <path id="Path_1010612" data-name="Path 1010612" d="M13,16h2v2H13Z" fill="#2f3ae6"/>
      <path id="Path_1010613" data-name="Path 1010613" d="M9,16h2v2H9Z" fill="#2f3ae6"/>
      <path id="Path_1010614" data-name="Path 1010614" d="M9,20h2v2H9Z" fill="#2f3ae6"/>
      <path id="Path_1010615" data-name="Path 1010615" d="M9,24h2v2H9Z" fill="#2f3ae6"/>
      <path id="Path_1010616" data-name="Path 1010616" d="M9,28h2v2H9Z" fill="#2f3ae6"/>
      <path id="Path_1010617" data-name="Path 1010617" d="M9,32h2v2H9Z" fill="#2f3ae6"/>
      <path id="Path_1010618" data-name="Path 1010618" d="M9,36h2v2H9Z" fill="#2f3ae6"/>
      <path id="Path_1010619" data-name="Path 1010619" d="M49,16h2v2H49Z" fill="#2f3ae6"/>
      <path id="Path_1010620" data-name="Path 1010620" d="M53,16h2v2H53Z" fill="#2f3ae6"/>
      <path id="Path_1010621" data-name="Path 1010621" d="M53,20h2v2H53Z" fill="#2f3ae6"/>
      <path id="Path_1010622" data-name="Path 1010622" d="M53,24h2v2H53Z" fill="#2f3ae6"/>
      <path id="Path_1010623" data-name="Path 1010623" d="M53,28h2v2H53Z" fill="#2f3ae6"/>
      <path id="Path_1010624" data-name="Path 1010624" d="M53,32h2v2H53Z" fill="#2f3ae6"/>
      <path id="Path_1010625" data-name="Path 1010625" d="M53,36h2v2H53Z" fill="#2f3ae6"/>
    </g>
  </g>
</svg>
