<svg xmlns="http://www.w3.org/2000/svg" width="292" height="139" viewBox="0 0 292 139">
  <g id="img14" transform="translate(-1017.746 -2555)">
    <rect id="Rectangle_455402" data-name="Rectangle 455402" width="292" height="139" rx="10" transform="translate(1017.746 2555)" fill="#fa996c"/>
    <g id="OBJECTS" transform="translate(1031.609 2461.025)">
      <g id="Group_1181808" data-name="Group 1181808" transform="translate(74.823 109.577)">
        <path id="Path_1011190" data-name="Path 1011190" d="M248.95,217.432H128.723a4.7,4.7,0,0,1-4.7-4.7v-86.2a4.7,4.7,0,0,1,4.7-4.7H248.95a4.7,4.7,0,0,1,4.7,4.7v86.2A4.7,4.7,0,0,1,248.95,217.432Z" transform="translate(-124.024 -121.831)" fill="#cacaff"/>
        <g id="Group_1181807" data-name="Group 1181807" transform="translate(12.327 12.947)">
          <rect id="Rectangle_456948" data-name="Rectangle 456948" width="4.88" height="11.894" transform="translate(12.822 28.876)" fill="#fff"/>
          <rect id="Rectangle_456949" data-name="Rectangle 456949" width="4.88" height="13.552" transform="translate(19.749 27.218)" fill="#41bcbc"/>
          <rect id="Rectangle_456950" data-name="Rectangle 456950" width="4.881" height="16.15" transform="translate(26.675 24.621)" fill="#6a6ae2"/>
          <rect id="Rectangle_456951" data-name="Rectangle 456951" width="4.88" height="22.094" transform="translate(33.602 18.676)" fill="#171659"/>
          <rect id="Rectangle_456952" data-name="Rectangle 456952" width="4.881" height="28.194" transform="translate(40.529 12.577)" fill="#fff"/>
          <rect id="Rectangle_456953" data-name="Rectangle 456953" width="4.88" height="25.049" transform="translate(47.456 15.722)" fill="#41bcbc"/>
          <rect id="Rectangle_456954" data-name="Rectangle 456954" width="4.881" height="27.013" transform="translate(54.383 13.758)" fill="#6a6ae2"/>
          <path id="Path_1011191" data-name="Path 1011191" d="M150.9,159.642v36.376h65.253" transform="translate(-150.9 -155.247)" fill="none" stroke="#130f40" stroke-linecap="round" stroke-linejoin="round" stroke-miterlimit="10" stroke-width="0.75"/>
          <path id="Path_1011192" data-name="Path 1011192" d="M160.866,190.912l12.767-14.989,5.359,5.7,21.846-18.443,7,6.384,10.875-8.458" transform="translate(-156.295 -156.038)" fill="none" stroke="#6a6ae2" stroke-linecap="round" stroke-linejoin="round" stroke-miterlimit="10" stroke-width="2"/>
          <circle id="Ellipse_13794" data-name="Ellipse 13794" cx="0.67" cy="0.67" r="0.67" transform="translate(61.746 4.395)" fill="#130f40"/>
          <path id="Path_1011193" data-name="Path 1011193" d="M160.746,225.3a.67.67,0,1,1-.67-.67A.67.67,0,0,1,160.746,225.3Z" transform="translate(-155.505 -190.43)" fill="#130f40"/>
          <rect id="Rectangle_456955" data-name="Rectangle 456955" width="30.104" height="15.722" transform="translate(0 50.904)" fill="#fff"/>
          <g id="Group_1181799" data-name="Group 1181799" transform="translate(39.404 50.904)">
            <line id="Line_3379" data-name="Line 3379" x2="17.414" fill="none" stroke="#6a6ae2" stroke-linecap="round" stroke-linejoin="round" stroke-miterlimit="10" stroke-width="0.75"/>
            <line id="Line_3380" data-name="Line 3380" x2="25.849" transform="translate(0 3.145)" fill="none" stroke="#6a6ae2" stroke-linecap="round" stroke-linejoin="round" stroke-miterlimit="10" stroke-width="0.75"/>
            <line id="Line_3381" data-name="Line 3381" x2="25.849" transform="translate(0 6.289)" fill="none" stroke="#6a6ae2" stroke-linecap="round" stroke-linejoin="round" stroke-miterlimit="10" stroke-width="0.75"/>
            <line id="Line_3382" data-name="Line 3382" x2="25.849" transform="translate(0 9.433)" fill="none" stroke="#6a6ae2" stroke-linecap="round" stroke-linejoin="round" stroke-miterlimit="10" stroke-width="0.75"/>
            <line id="Line_3383" data-name="Line 3383" x2="25.849" transform="translate(0 12.577)" fill="none" stroke="#6a6ae2" stroke-linecap="round" stroke-linejoin="round" stroke-miterlimit="10" stroke-width="0.75"/>
            <line id="Line_3384" data-name="Line 3384" x2="25.849" transform="translate(0 15.722)" fill="none" stroke="#6a6ae2" stroke-linecap="round" stroke-linejoin="round" stroke-miterlimit="10" stroke-width="0.75"/>
          </g>
          <g id="Group_1181802" data-name="Group 1181802" transform="translate(79.123)">
            <g id="Group_1181800" data-name="Group 1181800">
              <line id="Line_3385" data-name="Line 3385" x2="17.414" fill="none" stroke="#6a6ae2" stroke-linecap="round" stroke-linejoin="round" stroke-miterlimit="10" stroke-width="0.75"/>
              <line id="Line_3386" data-name="Line 3386" x2="25.849" transform="translate(0 3.144)" fill="none" stroke="#6a6ae2" stroke-linecap="round" stroke-linejoin="round" stroke-miterlimit="10" stroke-width="0.75"/>
              <line id="Line_3387" data-name="Line 3387" x2="25.849" transform="translate(0 6.289)" fill="none" stroke="#6a6ae2" stroke-linecap="round" stroke-linejoin="round" stroke-miterlimit="10" stroke-width="0.75"/>
              <line id="Line_3388" data-name="Line 3388" x2="25.849" transform="translate(0 9.433)" fill="none" stroke="#6a6ae2" stroke-linecap="round" stroke-linejoin="round" stroke-miterlimit="10" stroke-width="0.75"/>
              <line id="Line_3389" data-name="Line 3389" x2="25.849" transform="translate(0 12.577)" fill="none" stroke="#6a6ae2" stroke-linecap="round" stroke-linejoin="round" stroke-miterlimit="10" stroke-width="0.75"/>
              <line id="Line_3390" data-name="Line 3390" x2="25.849" transform="translate(0 15.722)" fill="none" stroke="#6a6ae2" stroke-linecap="round" stroke-linejoin="round" stroke-miterlimit="10" stroke-width="0.75"/>
            </g>
            <g id="Group_1181801" data-name="Group 1181801" transform="translate(0 25.049)">
              <line id="Line_3391" data-name="Line 3391" x2="17.414" fill="none" stroke="#6a6ae2" stroke-linecap="round" stroke-linejoin="round" stroke-miterlimit="10" stroke-width="0.75"/>
              <line id="Line_3392" data-name="Line 3392" x2="25.849" transform="translate(0 3.144)" fill="none" stroke="#6a6ae2" stroke-linecap="round" stroke-linejoin="round" stroke-miterlimit="10" stroke-width="0.75"/>
              <line id="Line_3393" data-name="Line 3393" x2="25.849" transform="translate(0 6.289)" fill="none" stroke="#6a6ae2" stroke-linecap="round" stroke-linejoin="round" stroke-miterlimit="10" stroke-width="0.75"/>
              <line id="Line_3394" data-name="Line 3394" x2="25.849" transform="translate(0 9.433)" fill="none" stroke="#6a6ae2" stroke-linecap="round" stroke-linejoin="round" stroke-miterlimit="10" stroke-width="0.75"/>
              <line id="Line_3395" data-name="Line 3395" x2="25.849" transform="translate(0 12.577)" fill="none" stroke="#6a6ae2" stroke-linecap="round" stroke-linejoin="round" stroke-miterlimit="10" stroke-width="0.75"/>
              <line id="Line_3396" data-name="Line 3396" x2="25.849" transform="translate(0 15.722)" fill="none" stroke="#6a6ae2" stroke-linecap="round" stroke-linejoin="round" stroke-miterlimit="10" stroke-width="0.75"/>
            </g>
          </g>
          <g id="Group_1181806" data-name="Group 1181806" transform="translate(79.123 47.822)">
            <path id="Path_1011194" data-name="Path 1011194" d="M346.135,276.21h-19.6a3.123,3.123,0,0,1-3.123-3.123V257.447a3.123,3.123,0,0,1,3.123-3.123h19.6a3.123,3.123,0,0,1,3.123,3.123v15.639A3.123,3.123,0,0,1,346.135,276.21Z" transform="translate(-323.41 -254.324)" fill="#6a6ae2"/>
            <g id="Group_1181805" data-name="Group 1181805" transform="translate(7.004 2.289)">
              <path id="Path_1011195" data-name="Path 1011195" d="M350.522,265.235a5.921,5.921,0,1,0-9.305,4.85,1.946,1.946,0,0,1,.813,1.6v.326a.828.828,0,0,0,.827.827h3.487a.828.828,0,0,0,.827-.827v-.327a1.967,1.967,0,0,1,.83-1.612A5.9,5.9,0,0,0,350.522,265.235Z" transform="translate(-338.681 -259.315)" fill="#fff"/>
              <g id="Group_1181803" data-name="Group 1181803" transform="translate(4.842 8.343)">
                <path id="Path_1011196" data-name="Path 1011196" d="M349.238,277.726h.443l.222.4.478-.621.261.547.266-.34.488-.015" transform="translate(-349.238 -277.504)" fill="none" stroke="#f4cc4d" stroke-linecap="round" stroke-linejoin="round" stroke-miterlimit="10" stroke-width="0.75"/>
                <line id="Line_3397" data-name="Line 3397" x1="0.266" y1="4.871" transform="translate(0 0.311)" fill="none" stroke="#6a6ae2" stroke-linecap="round" stroke-linejoin="round" stroke-miterlimit="10" stroke-width="0.75"/>
                <line id="Line_3398" data-name="Line 3398" y1="4.871" x2="0.266" transform="translate(1.891 0.311)" fill="none" stroke="#6a6ae2" stroke-linecap="round" stroke-linejoin="round" stroke-miterlimit="10" stroke-width="0.75"/>
              </g>
              <path id="Path_1011197" data-name="Path 1011197" d="M350.112,292.587h-1.474a1.139,1.139,0,0,1-1.139-1.139V288.8h3.753v2.643A1.14,1.14,0,0,1,350.112,292.587Z" transform="translate(-343.454 -275.279)" fill="#cacaff"/>
              <g id="Group_1181804" data-name="Group 1181804" transform="translate(4.044 14.308)">
                <line id="Line_3399" data-name="Line 3399" x2="3.753" fill="none" stroke="#6a6ae2" stroke-linecap="round" stroke-linejoin="round" stroke-miterlimit="10" stroke-width="0.75"/>
                <line id="Line_3400" data-name="Line 3400" x2="3.753" transform="translate(0 0.739)" fill="none" stroke="#6a6ae2" stroke-linecap="round" stroke-linejoin="round" stroke-miterlimit="10" stroke-width="0.75"/>
                <line id="Line_3401" data-name="Line 3401" x2="3.753" transform="translate(0 1.478)" fill="none" stroke="#6a6ae2" stroke-linecap="round" stroke-linejoin="round" stroke-miterlimit="10" stroke-width="0.75"/>
                <line id="Line_3402" data-name="Line 3402" x2="3.753" transform="translate(0 2.217)" fill="none" stroke="#6a6ae2" stroke-linecap="round" stroke-linejoin="round" stroke-miterlimit="10" stroke-width="0.75"/>
              </g>
            </g>
          </g>
        </g>
      </g>
      <g id="Group_1181810" data-name="Group 1181810" transform="translate(33.137 177.369)">
        <g id="Group_1181809" data-name="Group 1181809" transform="translate(0)">
          <path id="Path_1011198" data-name="Path 1011198" d="M35.634,307.763a25.333,25.333,0,1,0,18.1-30.915A25.333,25.333,0,0,0,35.634,307.763Z" transform="translate(-34.04 -273.092)" fill="#c9a645"/>
          <path id="Path_1011199" data-name="Path 1011199" d="M33.966,301.38a25.333,25.333,0,1,0,18.1-30.914A25.333,25.333,0,0,0,33.966,301.38Z" transform="translate(-33.137 -269.636)" fill="#f4cc4d"/>
          <path id="Path_1011200" data-name="Path 1011200" d="M42.115,304.9a21.54,21.54,0,1,0,15.393-26.286A21.539,21.539,0,0,0,42.115,304.9Z" transform="translate(-37.615 -274.114)" fill="#c9a645"/>
          <path id="Path_1011201" data-name="Path 1011201" d="M68.835,310.581A7.146,7.146,0,0,1,71.04,308a28.121,28.121,0,0,1,3.113-1.909c.2-.108.4-.218.61-.329.987-.536,1.787-.99,2.4-1.375.083-.054.161-.106.237-.155a5.033,5.033,0,0,0,1.471-1.4,2.029,2.029,0,0,0,.275-1.723,2.619,2.619,0,0,0-1.752-1.866,4.358,4.358,0,0,0-1.633-.225,9.923,9.923,0,0,0-2.188.35,11.113,11.113,0,0,0-1.082.344,12.587,12.587,0,0,0-1.863.9,13.127,13.127,0,0,0-2.689,2.084l-2.125-2.847a11.473,11.473,0,0,1,2.994-2.333,16.853,16.853,0,0,1,2.787-1.232l-.851-3.256,3.23-.844.88,3.366a10.5,10.5,0,0,1,2.93.028,6.944,6.944,0,0,1,3.618,1.6,6.11,6.11,0,0,1,1.861,3.069,5.229,5.229,0,0,1-.217,3.745,6.978,6.978,0,0,1-2.19,2.574,28.4,28.4,0,0,1-2.687,1.673c-.34.194-.7.393-1.081.593q-1.133.61-1.928,1.1c-.262.153-.5.3-.7.433a5.01,5.01,0,0,0-1.468,1.41,2.086,2.086,0,0,0-.271,1.738,2.47,2.47,0,0,0,1.758,1.764,5.142,5.142,0,0,0,2.124.162,11.727,11.727,0,0,0,1.758-.331,12.182,12.182,0,0,0,1.478-.491,12.817,12.817,0,0,0,2.3-1.222A11.549,11.549,0,0,0,85,310.766l2.25,2.814a10.653,10.653,0,0,1-3.262,2.91,17.01,17.01,0,0,1-3.259,1.552l.86,3.29-3.23.844-.866-3.313a10.959,10.959,0,0,1-3.4.043,6.97,6.97,0,0,1-3.63-1.58,5.989,5.989,0,0,1-1.856-3.051A5.1,5.1,0,0,1,68.835,310.581Z" transform="translate(-50.824 -281.844)" fill="#f4cc4d"/>
        </g>
      </g>
      <g id="Group_1181813" data-name="Group 1181813" transform="translate(57.037 166.405)">
        <path id="Path_1011202" data-name="Path 1011202" d="M144.057,338.923l18.887-13.153A6.833,6.833,0,0,1,173.05,328.5l8.971,19.361H171.274l-5.262-12.884L150.7,346.69Z" transform="translate(-117.083 -288.395)" fill="#41bcbc"/>
        <path id="Path_1011203" data-name="Path 1011203" d="M239.87,362s4.942-6.476,9.806-7.435l-3.922,14.652h-7.3Z" transform="translate(-168.186 -304.649)" fill="#171659"/>
        <path id="Path_1011204" data-name="Path 1011204" d="M139.958,296.414a10.834,10.834,0,0,0-7.524-8.023v10.335l1.462.018,3.991,20,.48,2.414,6.415-3.177Z" transform="translate(-110.791 -268.825)" fill="#fff"/>
        <path id="Path_1011205" data-name="Path 1011205" d="M105.354,355.872l.851,5.053a8.052,8.052,0,0,0,7.94,6.714H167.6l1.059-8.59h-42.6l-2.707-7.4Z" transform="translate(-96.131 -303.069)" fill="#41bcbc"/>
        <path id="Path_1011206" data-name="Path 1011206" d="M120.2,315.393l.871,2.589-1.309.41-17.538,5.48a.485.485,0,0,1-.626-.4l-.3-2.37a2.386,2.386,0,0,1-1.2-1.958,239.692,239.692,0,0,1,.725-26.225,4.7,4.7,0,0,0-1.883-2.88,10.766,10.766,0,0,1,4.65-2.132l.838-.16,6.688,7.356,2.8-7.168.259.071c.042.01.085.028.122.038a10.719,10.719,0,0,1,4.674,2.8,59.7,59.7,0,0,1,.033,13.259,8.918,8.918,0,0,0,.777,4.674l1.355,2.918A3.023,3.023,0,0,1,120.2,315.393Z" transform="translate(-92.661 -268.474)" fill="#fff"/>
        <path id="Path_1011207" data-name="Path 1011207" d="M120.4,286.791l-1.647,4.222-1.153,2.946-2.353-2.589-4.335-4.768.593-.113a1.688,1.688,0,0,0,1.158-.852c.344.075.843.179,1.44.273a16.239,16.239,0,0,0,5.022.1.782.782,0,0,0,.283.447.809.809,0,0,0,.264.132Z" transform="translate(-99.139 -267.335)" fill="#fff"/>
        <path id="Path_1011208" data-name="Path 1011208" d="M125.484,250.122v0a6.827,6.827,0,1,0-10.887,7.564l-.01.061-.673,3.86-.333,1.922a1.67,1.67,0,0,1-.18.512,18.239,18.239,0,0,0,6.465.37.769.769,0,0,1-.017-.254l.2-1.731c3.756,1.219,4.82-2.772,5.808-8.811h-.01A6.793,6.793,0,0,0,125.484,250.122Z" transform="translate(-99.88 -245.731)" fill="#ffcfc0"/>
        <path id="Path_1011209" data-name="Path 1011209" d="M125.484,250.117v0c-.758,2.141-7.094-.96-7.094-.96a19.621,19.621,0,0,1-3.8,8.581l.01-.061a6.826,6.826,0,1,1,10.887-7.564Z" transform="translate(-99.88 -245.731)" fill="#171659"/>
        <path id="Path_1011210" data-name="Path 1011210" d="M133.889,263.247s-1.3,2.338,1.657,3.7l-2.362,1.035" transform="translate(-111.197 -255.213)" fill="none" stroke="#ff8e77" stroke-linecap="round" stroke-linejoin="round" stroke-miterlimit="10" stroke-width="0.75"/>
        <path id="Path_1011211" data-name="Path 1011211" d="M138.331,266.989c-.061.31,0,.583.143.61s.3-.2.363-.511,0-.582-.142-.61S138.392,266.68,138.331,266.989Z" transform="translate(-113.97 -256.962)" fill="#130f40"/>
        <path id="Path_1011212" data-name="Path 1011212" d="M127.873,264.934c-.061.31,0,.583.143.61s.3-.2.363-.511,0-.582-.142-.61S127.934,264.625,127.873,264.934Z" transform="translate(-108.309 -255.849)" fill="#130f40"/>
        <path id="Path_1011213" data-name="Path 1011213" d="M115.848,263.5s-.749-3.305-2.917-2.652-1.376,7.2,2.319,5.692Z" transform="translate(-99.587 -253.867)" fill="#ffcfc0"/>
        <path id="Path_1011214" data-name="Path 1011214" d="M115.774,266.133s-.087-1.846-1.1-2.344-1.067.854-1.067.854" transform="translate(-100.6 -255.447)" fill="none" stroke="#ff8e77" stroke-linecap="round" stroke-linejoin="round" stroke-miterlimit="10" stroke-width="0.75"/>
        <path id="Path_1011215" data-name="Path 1011215" d="M116.03,264.843s-1.29.689-.242,2.6" transform="translate(-101.557 -256.077)" fill="none" stroke="#ff8e77" stroke-linecap="round" stroke-linejoin="round" stroke-miterlimit="10" stroke-width="0.75"/>
        <path id="Path_1011216" data-name="Path 1011216" d="M128.451,259.125a2.309,2.309,0,0,1,1.908.383" transform="translate(-108.634 -252.948)" fill="none" stroke="#130f40" stroke-linecap="round" stroke-linejoin="round" stroke-miterlimit="10" stroke-width="0.75"/>
        <path id="Path_1011217" data-name="Path 1011217" d="M138.909,261.4a1.11,1.11,0,0,1,1.437.5" transform="translate(-114.296 -254.163)" fill="none" stroke="#130f40" stroke-linecap="round" stroke-linejoin="round" stroke-miterlimit="10" stroke-width="0.75"/>
        <path id="Path_1011218" data-name="Path 1011218" d="M128.058,273.566a2.207,2.207,0,0,0,1.853,1.824" transform="translate(-108.422 -260.8)" fill="none" stroke="#ff8e77" stroke-linecap="round" stroke-linejoin="round" stroke-miterlimit="10" stroke-width="0.75"/>
        <path id="Path_1011219" data-name="Path 1011219" d="M124.133,277.834l-.212,1.869a5.319,5.319,0,0,1-4.085-5.5A7.081,7.081,0,0,0,124.133,277.834Z" transform="translate(-103.965 -261.146)" fill="#ff8e77"/>
        <g id="Group_1181811" data-name="Group 1181811" transform="translate(15.753 38.842)">
          <path id="Path_1011220" data-name="Path 1011220" d="M119.592,333.24l5.572-2.584a2.566,2.566,0,0,1,2.734.368c1.434,1.208,2.839,1.937,3.381,3.332.824,2.118-4.117,1.943-4.117,1.943s-3.124,2.118-6.328,1.216Z" transform="translate(-119.592 -330.418)" fill="#ffcfc0"/>
          <path id="Path_1011221" data-name="Path 1011221" d="M135.669,339.964s2.944-.24,3.884.841" transform="translate(-128.295 -335.574)" fill="none" stroke="#ff8e77" stroke-linecap="round" stroke-linejoin="round" stroke-miterlimit="10" stroke-width="0.75"/>
          <path id="Path_1011222" data-name="Path 1011222" d="M135.242,336.6a6.469,6.469,0,0,1,4.509,1.077" transform="translate(-128.064 -333.738)" fill="none" stroke="#ff8e77" stroke-linecap="round" stroke-linejoin="round" stroke-miterlimit="10" stroke-width="0.75"/>
          <path id="Path_1011223" data-name="Path 1011223" d="M134.814,332.808a7.576,7.576,0,0,1,3.75,1.469" transform="translate(-127.832 -331.712)" fill="none" stroke="#ff8e77" stroke-linecap="round" stroke-linejoin="round" stroke-miterlimit="10" stroke-width="0.75"/>
        </g>
        <path id="Path_1011224" data-name="Path 1011224" d="M91.528,292.743a10.794,10.794,0,0,0-3.708,5.585,65.47,65.47,0,0,0-2.541,19.311,5.243,5.243,0,0,0,7,4.7l10.981-3.883-2.151-7.234-7.874,2.937.588-13.235C93.821,296.6,93.573,294.166,91.528,292.743Z" transform="translate(-85.245 -271.181)" fill="#fff"/>
        <path id="Path_1011225" data-name="Path 1011225" d="M121.483,290.087l1.036,1.247-1.153,2.946-2.353-2.589.824-1.6-1.967-3.855a16.24,16.24,0,0,0,5.022.1.782.782,0,0,0,.283.447Z" transform="translate(-102.906 -267.656)" fill="#171659"/>
        <path id="Path_1011226" data-name="Path 1011226" d="M126.75,287.229l-1.106,2.829-3-3.473a13.641,13.641,0,0,0,2.834-.137.774.774,0,0,0,.546.579Z" transform="translate(-105.489 -267.773)" fill="#fff"/>
        <path id="Path_1011227" data-name="Path 1011227" d="M116.291,286.146l-2.5,3.619-2.876-3.163.593-.113a1.688,1.688,0,0,0,1.158-.852A22.539,22.539,0,0,0,116.291,286.146Z" transform="translate(-99.139 -267.335)" fill="#fff"/>
        <path id="Path_1011228" data-name="Path 1011228" d="M117.181,290.365l2.5-3.619,3,3.473" transform="translate(-102.533 -267.934)" fill="none" stroke="#130f40" stroke-linecap="round" stroke-linejoin="round" stroke-miterlimit="10" stroke-width="0.75"/>
        <path id="Path_1011229" data-name="Path 1011229" d="M97.382,339.43a15.458,15.458,0,0,0-4.471,2.474" transform="translate(-89.395 -296.455)" fill="none" stroke="#130f40" stroke-linecap="round" stroke-linejoin="round" stroke-miterlimit="10" stroke-width="0.75"/>
        <path id="Path_1011230" data-name="Path 1011230" d="M142.069,325.96l1.309-.41-.871-2.589a3.024,3.024,0,0,0,.946-3.709l-1.355-2.918a9.342,9.342,0,0,1-.777-4.674c.289-3.76-.025-7.526-1.162-9.938" transform="translate(-114.972 -276.042)" fill="none" stroke="#130f40" stroke-linecap="round" stroke-linejoin="round" stroke-miterlimit="10" stroke-width="0.75"/>
        <path id="Path_1011231" data-name="Path 1011231" d="M103.248,310.574l-.588,13.235,7.874-2.937.445,1.369" transform="translate(-94.673 -280.834)" fill="none" stroke="#130f40" stroke-linecap="round" stroke-linejoin="round" stroke-miterlimit="10" stroke-width="0.75"/>
        <path id="Path_1011232" data-name="Path 1011232" d="M111.758,346.379l.33,1.11-10.531,3.724" transform="translate(-94.076 -300.216)" fill="none" stroke="#130f40" stroke-linecap="round" stroke-linejoin="round" stroke-miterlimit="10" stroke-width="0.75"/>
        <line id="Line_3403" data-name="Line 3403" y1="5.06" x2="16.297" transform="translate(9.223 47.272)" fill="none" stroke="#130f40" stroke-linecap="round" stroke-linejoin="round" stroke-miterlimit="10" stroke-width="0.75"/>
        <g id="Group_1181812" data-name="Group 1181812" transform="translate(19.29 38.842)">
          <path id="Path_1011233" data-name="Path 1011233" d="M128,347.591h22.069a.694.694,0,0,0,.67-.513L155,331.293a.694.694,0,0,0-.67-.874H132.258a.694.694,0,0,0-.67.513l-4.26,15.785A.693.693,0,0,0,128,347.591Z" transform="translate(-127.304 -330.419)" fill="#6a6ae2"/>
          <line id="Line_3404" data-name="Line 3404" x1="4.26" y2="15.785" transform="translate(0.892 0.818)" fill="none" stroke="#130f40" stroke-linecap="round" stroke-linejoin="round" stroke-miterlimit="10" stroke-width="0.75"/>
          <path id="Path_1011234" data-name="Path 1011234" d="M135.617,347.3l1.966,7.578a2.47,2.47,0,0,0,2.391,1.85h18.671a.842.842,0,0,0,.815-1.054l-2.168-8.374Z" transform="translate(-131.804 -339.56)" fill="#cacaff"/>
        </g>
        <line id="Line_3405" data-name="Line 3405" x2="10.571" y2="0.034" transform="translate(52.765 55.98)" fill="none" stroke="#130f40" stroke-linecap="round" stroke-linejoin="round" stroke-miterlimit="10" stroke-width="0.75"/>
        <path id="Path_1011235" data-name="Path 1011235" d="M110.911,287.741,117.6,295.1l3.059-7.1" transform="translate(-99.139 -268.473)" fill="none" stroke="#130f40" stroke-linecap="round" stroke-linejoin="round" stroke-miterlimit="10" stroke-width="0.75"/>
      </g>
      <g id="Group_1181815" data-name="Group 1181815" transform="translate(36.931 137.895)">
        <path id="Path_1011236" data-name="Path 1011236" d="M73.162,188.36v14.519a4.786,4.786,0,0,1-4.787,4.787H64.041v7.84l-7.834-7.84H46.2a4.787,4.787,0,0,1-4.787-4.787V188.36a4.787,4.787,0,0,1,4.787-4.787H68.376A4.787,4.787,0,0,1,73.162,188.36Z" transform="translate(-41.41 -183.573)" fill="#41bcbc"/>
        <g id="Group_1181814" data-name="Group 1181814" transform="translate(6.669 14.379)">
          <path id="Path_1011237" data-name="Path 1011237" d="M59.125,216.511a1.587,1.587,0,1,1-1.587-1.587A1.587,1.587,0,0,1,59.125,216.511Z" transform="translate(-55.951 -214.924)" fill="#fff"/>
          <path id="Path_1011238" data-name="Path 1011238" d="M75.738,216.511a1.587,1.587,0,1,1-1.587-1.587A1.587,1.587,0,0,1,75.738,216.511Z" transform="translate(-64.944 -214.924)" fill="#fff"/>
          <path id="Path_1011239" data-name="Path 1011239" d="M92.351,216.511a1.587,1.587,0,1,1-1.587-1.587A1.587,1.587,0,0,1,92.351,216.511Z" transform="translate(-73.938 -214.924)" fill="#fff"/>
        </g>
      </g>
      <g id="Group_1181819" data-name="Group 1181819" transform="translate(150.265 197.12)">
        <rect id="Rectangle_456956" data-name="Rectangle 456956" width="32.234" height="22.392" transform="translate(0.069 11.429)" fill="#f4cc4d"/>
        <path id="Path_1011240" data-name="Path 1011240" d="M334.267,337.616v22.392h-11.3c-9.746-5-9.98-16.677-9.444-22.392Z" transform="translate(-301.964 -326.187)" fill="#c9a645"/>
        <g id="Group_1181816" data-name="Group 1181816" transform="translate(0 16.674)">
          <line id="Line_3406" data-name="Line 3406" x2="32.369" transform="translate(0 11.899)" fill="none" stroke="#130f40" stroke-linecap="round" stroke-linejoin="round" stroke-miterlimit="10" stroke-width="0.75"/>
          <line id="Line_3407" data-name="Line 3407" x2="32.369" transform="translate(0 5.95)" fill="none" stroke="#130f40" stroke-linecap="round" stroke-linejoin="round" stroke-miterlimit="10" stroke-width="0.75"/>
          <line id="Line_3408" data-name="Line 3408" x2="32.369" fill="none" stroke="#130f40" stroke-linecap="round" stroke-linejoin="round" stroke-miterlimit="10" stroke-width="0.75"/>
        </g>
        <g id="Group_1181818" data-name="Group 1181818" transform="translate(16.191)">
          <g id="Group_1181817" data-name="Group 1181817">
            <path id="Path_1011241" data-name="Path 1011241" d="M355.812,323.857a16.109,16.109,0,1,1-22.188-5.162A16.108,16.108,0,0,1,355.812,323.857Z" transform="translate(-325.01 -314.627)" fill="#c9a645"/>
            <path id="Path_1011242" data-name="Path 1011242" d="M353.6,320.3a16.108,16.108,0,1,1-22.188-5.161A16.109,16.109,0,0,1,353.6,320.3Z" transform="translate(-323.811 -312.699)" fill="#f4cc4d"/>
            <path id="Path_1011243" data-name="Path 1011243" d="M354.4,324.418a13.7,13.7,0,1,1-18.865-4.389A13.7,13.7,0,0,1,354.4,324.418Z" transform="translate(-326.658 -315.546)" fill="#c9a645"/>
            <path id="Path_1011244" data-name="Path 1011244" d="M355.553,335.668a4.542,4.542,0,0,0-2.156-.111,17.87,17.87,0,0,0-2.242.6l-.419.138c-.679.222-1.238.392-1.682.5l-.175.042a3.207,3.207,0,0,1-1.287.069,1.291,1.291,0,0,1-.915-.627,1.666,1.666,0,0,1-.1-1.625,2.777,2.777,0,0,1,.61-.853,6.3,6.3,0,0,1,1.118-.857,7.094,7.094,0,0,1,.632-.349,8.009,8.009,0,0,1,1.229-.468,8.335,8.335,0,0,1,2.138-.33l-.385-2.226a7.306,7.306,0,0,0-2.386.362,10.716,10.716,0,0,0-1.787.748l-1.131-1.817-1.8,1.122,1.169,1.878a6.685,6.685,0,0,0-1.269,1.365,4.42,4.42,0,0,0-.846,2.368,3.886,3.886,0,0,0,.6,2.2,3.325,3.325,0,0,0,1.824,1.537,4.432,4.432,0,0,0,2.146.114,17.985,17.985,0,0,0,1.947-.509c.238-.072.489-.153.747-.24.518-.171.967-.307,1.349-.411.185-.054.356-.1.508-.135a3.19,3.19,0,0,1,1.293-.061,1.326,1.326,0,0,1,.921.635,1.57,1.57,0,0,1,.045,1.583,3.266,3.266,0,0,1-.854,1.051,7.44,7.44,0,0,1-.921.667,7.793,7.793,0,0,1-.873.467,8.187,8.187,0,0,1-1.57.528,7.352,7.352,0,0,1-2.464.177l.316,2.269a6.777,6.777,0,0,0,2.77-.233,10.828,10.828,0,0,0,2.141-.826l1.143,1.836,1.8-1.122-1.151-1.848a6.977,6.977,0,0,0,1.506-1.55,4.431,4.431,0,0,0,.858-2.367,3.811,3.811,0,0,0-.6-2.191A3.247,3.247,0,0,0,355.553,335.668Z" transform="translate(-334.669 -321.454)" fill="#f4cc4d"/>
          </g>
        </g>
        <path id="Path_1011245" data-name="Path 1011245" d="M339.925,360.007h-.041a16.091,16.091,0,0,1-12.618-7.563c-.17-.275-.33-.55-.482-.835q-.282-.385-.537-.8a16.059,16.059,0,0,1-1.734-13.2" transform="translate(-307.622 -326.187)" fill="none" stroke="#130f40" stroke-linecap="round" stroke-linejoin="round" stroke-miterlimit="10" stroke-width="0.75"/>
      </g>
      <g id="Group_1181820" data-name="Group 1181820" transform="translate(188.643 120.117)">
        <path id="Path_1011246" data-name="Path 1011246" d="M429.965,373.58c-1.5-.138-1.692-.839-3.688-.839-2.206,0-2.376,1.179-3.61,1.179a1.221,1.221,0,0,1-.927-.349l.353-3.811h5.646A19.312,19.312,0,0,1,429.965,373.58Z" transform="translate(-399.011 -266.585)" fill="#ffcfc0"/>
        <path id="Path_1011247" data-name="Path 1011247" d="M431.1,380.96H420.95l.362-3.871a1.221,1.221,0,0,0,.926.349c1.234,0,1.4-1.179,3.61-1.179,2,0,2.192.7,3.688.839A40.529,40.529,0,0,1,431.1,380.96Z" transform="translate(-398.583 -270.104)" fill="#171659"/>
        <path id="Path_1011248" data-name="Path 1011248" d="M384.592,375.094c2.4-.777,6.631-2.1,8.811-1.708l-.067-3.624h-5.5a42.2,42.2,0,0,0-5.974,4.847C382.063,375.086,382.687,375.709,384.592,375.094Z" transform="translate(-377.42 -266.587)" fill="#ffcfc0"/>
        <path id="Path_1011249" data-name="Path 1011249" d="M381.223,379.287c-1.905.616-2.529-.008-2.735-.485-1.666,1.572-2.855,2.836-2.855,2.836h14.477l-.076-4.058C387.854,377.184,383.627,378.509,381.223,379.287Z" transform="translate(-374.051 -270.78)" fill="#171659"/>
        <path id="Path_1011250" data-name="Path 1011250" d="M417.443,165.078c-.073,1.936-3.821,4.756-3.821,4.756s-9.824-1-12.269-1.72-3.325-3.252-1.8-4.628,2.335-4.055-.188-4.059a1.834,1.834,0,0,1-2.064-2.238,2.488,2.488,0,0,1-2.064-2.532c-.041-1.688,2.023-2.431,2.023-2.431-.5-.367-1.376-4.256,5.316-6.664a14.618,14.618,0,0,1,2-.573c4.843-.968,5.453,2.33,5.453,2.33,6.77.766,3.128,9.87,3.128,9.87a1.359,1.359,0,0,1,1.454,1.358c0,1.4-1.72,2.124-1.72,2.124a2.655,2.655,0,0,1,1.688.312,1.123,1.123,0,0,1,.449.711c.257,1.225-1.124,2.243-1.284,2.357C415.356,163.257,417.521,163.147,417.443,165.078Z" transform="translate(-384.664 -144.811)" fill="#130f40"/>
        <path id="Path_1011251" data-name="Path 1011251" d="M410.526,205.387l-.482,1.72-4.4,1.88-1.165.5-1.381-5.366-.711-2.77H388.63l-3.729,3.967-1.926,2.05-.679-.7-4.486-4.577a41.971,41.971,0,0,1,3.9-4.834,24.307,24.307,0,0,1,4.321-3.678,16.472,16.472,0,0,1,9.279-2.8,24.544,24.544,0,0,1,5.458.619,11.275,11.275,0,0,1,6.05,3.674,11.433,11.433,0,0,1,2.353,4.435c.041.147.078.3.115.449Z" transform="translate(-375.229 -169.696)" fill="#6a6ae2"/>
        <path id="Path_1011252" data-name="Path 1011252" d="M442.893,226.379l-2.344,8.389a3.4,3.4,0,0,1-.394-.876l-1.665-5.632Z" transform="translate(-408.078 -188.967)" fill="#ffcfc0"/>
        <path id="Path_1011253" data-name="Path 1011253" d="M386.579,228.805l-2.7,4.532-9.829-8.384A5.29,5.29,0,0,1,373,218.1q.881-1.39,1.766-2.651l4.486,4.577-1.211,1.211Z" transform="translate(-372.184 -183.051)" fill="#ffcfc0"/>
        <path id="Path_1011254" data-name="Path 1011254" d="M410.425,207.165a9.566,9.566,0,0,0-.39,6.2,47.822,47.822,0,0,1,1.229,5.784H394.445c.858-4.857.982-7.559-.665-11.077a6.217,6.217,0,0,1-.541-2.165,15.962,15.962,0,0,1,1.569-7.068l-.44-4.669a16.855,16.855,0,0,1,4.949-2.247c-.105.894-.064,3.137,3.11,3.137,3.05,0,5.261-2.183,6.123-3.192.188.037.372.078.555.119a11.275,11.275,0,0,1,6.05,3.674l-3.72,9.049Z" transform="translate(-383.568 -170.286)" fill="#6a6ae2"/>
        <path id="Path_1011255" data-name="Path 1011255" d="M408.687,251.35H391.869c-.037.207-.072.412-.112.628-.959,5.265-3.307,54.112-3.307,54.112h9.971l1.605-43.687,1.954,43.687h9.283s-1.257-39.385-1.715-46.324C409.343,256.659,409.079,253.9,408.687,251.35Z" transform="translate(-380.989 -202.485)" fill="#171659"/>
        <path id="Path_1011256" data-name="Path 1011256" d="M412.015,161.342l-.1,6.426a.724.724,0,0,0,.607.721q.393.067.773.145c-.862,1.009-3.073,3.192-6.123,3.192-3.174,0-3.215-2.243-3.11-3.137.343-.092.689-.171,1.041-.24a.724.724,0,0,0,.577-.657l.038-.474.2-2.468c-3.821.459-4.091-3.555-3.9-9.517l.009,0a6.649,6.649,0,1,1,9.99,6Z" transform="translate(-388.309 -147.051)" fill="#ffcfc0"/>
        <path id="Path_1011257" data-name="Path 1011257" d="M425.259,160.982h-4.573c-2.211-2.578-2.009-7.279-2.009-7.279-5.3-2.206-3.385-7.453-3.385-7.453l-.037-1.261c4.843-.968,5.453,2.33,5.453,2.33,6.77.766,3.128,9.87,3.128,9.87a1.359,1.359,0,0,1,1.454,1.358c0,1.4-1.72,2.124-1.72,2.124A2.655,2.655,0,0,1,425.259,160.982Z" transform="translate(-395.338 -144.811)" fill="#130f40"/>
        <path id="Path_1011258" data-name="Path 1011258" d="M412.994,174.759a9.1,9.1,0,0,1-.693.738c-.913.862-2.445,1.926-2.761-.294l.156-.018Z" transform="translate(-392.406 -161.023)" fill="#ff8e77"/>
        <path id="Path_1011259" data-name="Path 1011259" d="M413.178,174.759a9.1,9.1,0,0,1-.693.738c-1.981.734-2.481.105-2.605-.312Z" transform="translate(-392.59 -161.023)" fill="#fff"/>
        <path id="Path_1011260" data-name="Path 1011260" d="M404.69,164.891a1.96,1.96,0,1,1-1.942-1.692A1.83,1.83,0,0,1,404.69,164.891Z" transform="translate(-387.678 -154.765)" fill="none" stroke="#fff" stroke-linecap="round" stroke-linejoin="round" stroke-miterlimit="10" stroke-width="0.75"/>
        <ellipse id="Ellipse_13795" data-name="Ellipse 13795" cx="1.942" cy="1.692" rx="1.942" ry="1.692" transform="translate(18.29 8.434)" fill="none" stroke="#fff" stroke-linecap="round" stroke-linejoin="round" stroke-miterlimit="10" stroke-width="0.75"/>
        <path id="Path_1011261" data-name="Path 1011261" d="M407.318,163.824s.8,2.479-2.279,3.225l2.064,1.433" transform="translate(-389.97 -155.104)" fill="none" stroke="#ff8e77" stroke-linecap="round" stroke-linejoin="round" stroke-miterlimit="10" stroke-width="0.75"/>
        <path id="Path_1011262" data-name="Path 1011262" d="M409.274,166.556s.429-.631,1.279,0" transform="translate(-392.262 -156.431)" fill="none" stroke="#fff" stroke-linecap="round" stroke-linejoin="round" stroke-miterlimit="10" stroke-width="0.75"/>
        <path id="Path_1011263" data-name="Path 1011263" d="M406.072,166.193c0,.307-.112.557-.251.557s-.251-.249-.251-.557.112-.557.251-.557S406.072,165.885,406.072,166.193Z" transform="translate(-390.257 -156.085)" fill="#130f40"/>
        <ellipse id="Ellipse_13796" data-name="Ellipse 13796" cx="0.251" cy="0.557" rx="0.251" ry="0.557" transform="translate(20.076 9.551)" fill="#130f40"/>
        <path id="Path_1011264" data-name="Path 1011264" d="M402.495,159.392a2.407,2.407,0,0,1,2.353-.314" transform="translate(-388.593 -152.437)" fill="none" stroke="#130f40" stroke-linecap="round" stroke-linejoin="round" stroke-miterlimit="10" stroke-width="0.75"/>
        <path id="Path_1011265" data-name="Path 1011265" d="M411.758,158.785a3.363,3.363,0,0,1,3,0" transform="translate(-393.607 -152.186)" fill="none" stroke="#130f40" stroke-linecap="round" stroke-linejoin="round" stroke-miterlimit="10" stroke-width="0.75"/>
        <line id="Line_3409" data-name="Line 3409" x2="3.536" y2="0.716" transform="translate(22.174 10.125)" fill="none" stroke="#fff" stroke-linecap="round" stroke-linejoin="round" stroke-miterlimit="10" stroke-width="0.75"/>
        <path id="Path_1011266" data-name="Path 1011266" d="M415.487,179.389a10.963,10.963,0,0,1-5.357,4.408l.2-2.468A7.681,7.681,0,0,0,415.487,179.389Z" transform="translate(-392.726 -163.53)" fill="#ff8e77"/>
        <path id="Path_1011267" data-name="Path 1011267" d="M423.237,170.267s1.338-3.019,3.287-1.987-.038,7.147-3.287,5.007Z" transform="translate(-399.821 -157.399)" fill="#ffcfc0"/>
        <path id="Path_1011268" data-name="Path 1011268" d="M425.07,173.061s.43-1.749,1.491-2.036.86,1.018.86,1.018" transform="translate(-400.813 -158.98)" fill="none" stroke="#ff8e77" stroke-linecap="round" stroke-linejoin="round" stroke-miterlimit="10" stroke-width="0.75"/>
        <path id="Path_1011269" data-name="Path 1011269" d="M427.016,171.795s1.1.9-.258,2.536" transform="translate(-401.727 -159.419)" fill="none" stroke="#ff8e77" stroke-linecap="round" stroke-linejoin="round" stroke-miterlimit="10" stroke-width="0.75"/>
        <path id="Path_1011270" data-name="Path 1011270" d="M393.239,214.137a15.961,15.961,0,0,1,1.569-7.068" transform="translate(-383.568 -178.514)" fill="none" stroke="#130f40" stroke-linecap="round" stroke-linejoin="round" stroke-miterlimit="10" stroke-width="0.75"/>
        <line id="Line_3410" data-name="Line 3410" x2="0.71" y2="2.77" transform="translate(27.156 31.655)" fill="none" stroke="#130f40" stroke-linecap="round" stroke-linejoin="round" stroke-miterlimit="10" stroke-width="0.75"/>
        <path id="Path_1011271" data-name="Path 1011271" d="M451.878,195.756a17,17,0,0,1-.6,4.357c-.238,2.05-.537,4.077-.867,6.031a.237.237,0,0,1-.009.05c-.4,2.39-.862,4.678-1.326,6.784a3.408,3.408,0,0,1-.312.867,3.368,3.368,0,0,1-5.784.243l2.825-10.109,1.289-4.6-.881-4.165a3.487,3.487,0,0,1,.28-2.247c.881-1.807,2.66-5.169,3.522-4.747,1.174.573-1.174,2.1-1.578,4.848,0,0,3.068-5.375,4.128-4.509s-1.2,1.766-2.458,4.747c.147-.193,2.679-3.578,3.376-2.88.72.72-1.6,2.036-2.431,3.954.11-.133,2.027-2.445,2.747-2C454.543,192.835,451.965,194.669,451.878,195.756Z" transform="translate(-410.509 -168.289)" fill="#ffcfc0"/>
        <line id="Line_3411" data-name="Line 3411" x1="1.098" y2="3.931" transform="translate(33.717 37.411)" fill="none" stroke="#ff8e77" stroke-linecap="round" stroke-linejoin="round" stroke-miterlimit="10" stroke-width="0.75"/>
        <path id="Path_1011272" data-name="Path 1011272" d="M452.195,198.94s2.859-2.9,3.665-1.924-1.315,1.638-1.429,2.268a5.288,5.288,0,0,1,.172,2.234" transform="translate(-415.497 -172.963)" fill="#ffcfc0" stroke="#ff8e77" stroke-linecap="round" stroke-linejoin="round" stroke-miterlimit="10" stroke-width="0.75"/>
      </g>
      <g id="Group_1181821" data-name="Group 1181821" transform="translate(207.858 105.751)">
        <path id="Path_1011273" data-name="Path 1011273" d="M420.718,126.781s.09-6.646,6.655-6.639c0,0-6.646-.09-6.639-6.655,0,0-.09,6.646-6.655,6.639C414.079,120.127,420.726,120.217,420.718,126.781Z" transform="translate(-414.079 -113.488)" fill="#f4cc4d"/>
        <path id="Path_1011274" data-name="Path 1011274" d="M440.623,145.152s.045-3.325,3.329-3.321c0,0-3.325-.045-3.321-3.329,0,0-.045,3.325-3.329,3.321C437.3,141.823,440.627,141.868,440.623,145.152Z" transform="translate(-426.651 -127.029)" fill="#f4cc4d"/>
      </g>
      <line id="Line_3412" data-name="Line 3412" x2="197.465" transform="translate(33.137 230.975)" fill="none" stroke="#130f40" stroke-linecap="round" stroke-linejoin="round" stroke-miterlimit="10" stroke-width="0.75"/>
      <g id="Group_1181822" data-name="Group 1181822" transform="translate(50.855 99.195)">
        <path id="Path_1011275" data-name="Path 1011275" d="M269.42,322.53h-44.4a6.536,6.536,0,0,1,6.536-6.536h.078c-.032-.321-.046-.647-.046-.977a10.033,10.033,0,0,1,19.461-3.431,8.028,8.028,0,0,1,2.114-.28,8.163,8.163,0,0,1,8.1,7.205,5.014,5.014,0,0,1,3.082-1.05A5.07,5.07,0,0,1,269.42,322.53Z" transform="translate(-154.731 -210.599)" fill="#6a6ae2"/>
        <path id="Path_1011276" data-name="Path 1011276" d="M124.315,119.959H71.767a7.736,7.736,0,0,1,7.736-7.736h.092c-.038-.38-.054-.765-.054-1.156a11.875,11.875,0,0,1,23.033-4.06,9.492,9.492,0,0,1,2.5-.331,9.662,9.662,0,0,1,9.592,8.528,5.936,5.936,0,0,1,3.648-1.243A6,6,0,0,1,124.315,119.959Z" transform="translate(-71.767 -99.195)" fill="#6a6ae2"/>
      </g>
    </g>
  </g>
</svg>
