<svg xmlns="http://www.w3.org/2000/svg" width="128" height="128" viewBox="0 0 128 128">
  <g id="img28" transform="translate(-72.746 -7992)">
    <g id="Ellipse_13628" data-name="Ellipse 13628" transform="translate(72.746 7992)" fill="#f4e9ff" stroke="#cfde90" stroke-width="6">
      <circle cx="64" cy="64" r="64" stroke="none"/>
      <circle cx="64" cy="64" r="61" fill="none"/>
    </g>
    <g id="Group_1182449" data-name="Group 1182449" transform="translate(104.215 8023.469)">
      <g id="Group_1182447" data-name="Group 1182447" transform="translate(1.049 1.049)">
        <g id="Group_1182436" data-name="Group 1182436" transform="translate(43.025)">
          <path id="Path_1012732" data-name="Path 1012732" d="M52.494,1V9.4H42V1Z" transform="translate(-42 -1)" fill="#f0d0b4"/>
        </g>
        <g id="Group_1182437" data-name="Group 1182437" transform="translate(9.444)">
          <path id="Path_1012733" data-name="Path 1012733" d="M20.494,1V9.4H10V1Z" transform="translate(-10 -1)" fill="#f0d0b4"/>
        </g>
        <g id="Group_1182438" data-name="Group 1182438" transform="translate(26.234)">
          <path id="Path_1012734" data-name="Path 1012734" d="M36.494,1V9.4H26V1Z" transform="translate(-26 -1)" fill="#f0d0b4"/>
        </g>
        <g id="Group_1182439" data-name="Group 1182439" transform="translate(4.198 14.691)">
          <path id="Path_1012735" data-name="Path 1012735" d="M59.568,54.876H5V19.2A4.2,4.2,0,0,1,9.2,15H55.37a4.2,4.2,0,0,1,4.2,4.2Z" transform="translate(-5 -15)" fill="#ccd1d9"/>
        </g>
        <g id="Group_1182440" data-name="Group 1182440" transform="translate(8.395 18.889)">
          <path id="Path_1012736" data-name="Path 1012736" d="M54.123,50.481H10.049A1.05,1.05,0,0,1,9,49.432V20.049A1.05,1.05,0,0,1,10.049,19H54.123a1.05,1.05,0,0,1,1.049,1.049V49.432A1.05,1.05,0,0,1,54.123,50.481Z" transform="translate(-9 -19)" fill="#69d6f4"/>
        </g>
        <g id="Group_1182441" data-name="Group 1182441" transform="translate(0 54.568)">
          <path id="Path_1012737" data-name="Path 1012737" d="M61.864,53H3.1a2.052,2.052,0,0,0-1.48.619A2.052,2.052,0,0,0,1,55.1a6.3,6.3,0,0,0,6.3,6.3h50.37a6.306,6.306,0,0,0,6.3-6.3,2.1,2.1,0,0,0-2.1-2.1Z" transform="translate(-1 -53)" fill="#969faa"/>
        </g>
        <g id="Group_1182442" data-name="Group 1182442" transform="translate(52.469 58.765)">
          <path id="Path_1012738" data-name="Path 1012738" d="M51,57h4.2v4.2H51Z" transform="translate(-51 -57)" fill="#ff826e"/>
        </g>
        <g id="Group_1182443" data-name="Group 1182443" transform="translate(44.074 58.765)">
          <path id="Path_1012739" data-name="Path 1012739" d="M43,57h4.2v4.2H43Z" transform="translate(-43 -57)" fill="#ff826e"/>
        </g>
        <g id="Group_1182444" data-name="Group 1182444" transform="translate(24.136 54.568)">
          <path id="Path_1012740" data-name="Path 1012740" d="M38.691,53v2.1a2.1,2.1,0,0,1-2.1,2.1H26.1A2.1,2.1,0,0,1,24,55.1V53Z" transform="translate(-24 -53)" fill="#ff826e"/>
        </g>
        <g id="Group_1182445" data-name="Group 1182445" transform="translate(14.691 30.432)">
          <path id="Path_1012741" data-name="Path 1012741" d="M48.58,43.642v6.3H41.812v-.031A10.494,10.494,0,1,0,21.3,46.79a10.4,10.4,0,0,0,.483,3.148H15v-6.3l2.665-.85a15.246,15.246,0,0,1,1.3-3.169l-1.28-2.477,4.46-4.46,2.477,1.28a15.247,15.247,0,0,1,3.169-1.3L28.642,30h6.3l.85,2.665a15.246,15.246,0,0,1,3.169,1.3l2.477-1.28,4.46,4.46-1.28,2.477a15.247,15.247,0,0,1,1.3,3.169Z" transform="translate(-15 -30)" fill="#ffc729"/>
        </g>
        <g id="Group_1182446" data-name="Group 1182446" transform="translate(20.988 36.728)">
          <path id="Path_1012742" data-name="Path 1012742" d="M41.988,46.494a10.519,10.519,0,0,1-.472,3.117v.031H34.264a4.144,4.144,0,0,0,1.427-3.148,4.2,4.2,0,0,0-8.4,0,4.144,4.144,0,0,0,1.427,3.148H21.483a10.494,10.494,0,1,1,20.5-3.148Z" transform="translate(-21 -36)" fill="#fcd770"/>
        </g>
      </g>
      <g id="Group_1182448" data-name="Group 1182448">
        <path id="Path_1012743" data-name="Path 1012743" d="M61.913,53.876H60.864V19.247A5.253,5.253,0,0,0,55.617,14H52.469v2.1h3.148a3.152,3.152,0,0,1,3.148,3.148v34.63H6.3V19.247A3.152,3.152,0,0,1,9.444,16.1h3.148V14H9.444A5.253,5.253,0,0,0,4.2,19.247v34.63H3.148A3.152,3.152,0,0,0,0,57.025,7.355,7.355,0,0,0,7.346,64.37h50.37a7.355,7.355,0,0,0,7.346-7.346A3.152,3.152,0,0,0,61.913,53.876Zm-35.679,2.1H38.827v1.049a1.05,1.05,0,0,1-1.049,1.049H27.284a1.05,1.05,0,0,1-1.049-1.049Zm22.037,6.3h-2.1v-2.1h2.1Zm8.4,0h-2.1v-2.1h2.1Zm2.1-.106V58.074h-6.3v4.2h-2.1v-4.2h-6.3v4.2H7.346A5.253,5.253,0,0,1,2.1,57.025a1.05,1.05,0,0,1,1.049-1.049H24.136v1.049a3.152,3.152,0,0,0,3.148,3.148H37.778a3.152,3.152,0,0,0,3.148-3.148V55.975H61.913a1.05,1.05,0,0,1,1.049,1.049,5.257,5.257,0,0,1-4.2,5.141Z" transform="translate(0 0.691)"/>
        <path id="Path_1012744" data-name="Path 1012744" d="M22.691,20.1V18H10.1A2.1,2.1,0,0,0,8,20.1V49.481a2.1,2.1,0,0,0,2.1,2.1H54.173a2.1,2.1,0,0,0,2.1-2.1V20.1a2.1,2.1,0,0,0-2.1-2.1H41.58v2.1H54.173V49.481h-4.2V43.469l-2.869-.919a15.8,15.8,0,0,0-.964-2.339l1.377-2.675L41.984,32l-2.675,1.377a15.851,15.851,0,0,0-2.339-.964l-.921-2.871H28.222L27.3,32.412a15.8,15.8,0,0,0-2.339.964L22.288,32l-5.534,5.534,1.377,2.675a15.851,15.851,0,0,0-.964,2.339l-2.87.921v6.012H10.1V20.1Zm0,27.284a9.445,9.445,0,1,1,18.628,2.1H36.941a5.247,5.247,0,1,0-9.61,0H22.954A9.451,9.451,0,0,1,22.691,47.383Zm6.3,0a3.148,3.148,0,1,1,5.469,2.1H29.813a3.138,3.138,0,0,1-.826-2.1ZM16.4,45l2.472-.791.153-.543a13.526,13.526,0,0,1,1.21-2.935l.275-.492-1.186-2.3,3.371-3.371,2.3,1.186.492-.275a13.526,13.526,0,0,1,2.935-1.21l.543-.153.79-2.471h4.765l.791,2.472.543.153a13.526,13.526,0,0,1,2.935,1.21l.492.275,2.3-1.186,3.371,3.371-1.186,2.3.275.492a13.526,13.526,0,0,1,1.21,2.935l.153.543,2.472.79v4.482h-4.4a11.543,11.543,0,1,0-22.69,0H16.4Z" transform="translate(0.395 0.889)"/>
        <path id="Path_1012745" data-name="Path 1012745" d="M13,4h4.2V6.1H13Z" transform="translate(0.642 0.198)"/>
        <path id="Path_1012746" data-name="Path 1012746" d="M29,4h4.2V6.1H29Z" transform="translate(1.432 0.198)"/>
        <path id="Path_1012747" data-name="Path 1012747" d="M45,4h4.2V6.1H45Z" transform="translate(2.222 0.198)"/>
        <path id="Path_1012748" data-name="Path 1012748" d="M30.247,28.333h2.1V10.494h5.247V0H25V10.494h5.247ZM27.1,2.1h8.4V8.4H27.1Z" transform="translate(1.234)"/>
        <path id="Path_1012749" data-name="Path 1012749" d="M46.494,14.691H36V28.333h2.1V16.79H48.593v-6.3h5.247V0H41.247V10.494h5.247ZM43.346,2.1h8.4V8.4h-8.4Z" transform="translate(1.778)"/>
        <path id="Path_1012750" data-name="Path 1012750" d="M14.247,16.79H24.741V28.333h2.1V14.691H16.346v-4.2h5.247V0H9V10.494h5.247ZM11.1,2.1h8.4V8.4H11.1Z" transform="translate(0.444)"/>
      </g>
    </g>
  </g>
</svg>
