<svg xmlns="http://www.w3.org/2000/svg" width="128" height="128" viewBox="0 0 128 128">
  <g id="img29" transform="translate(-72.746 -7992)">
    <g id="Ellipse_13628" data-name="Ellipse 13628" transform="translate(72.746 7992)" fill="#f4e9ff" stroke="#cfde90" stroke-width="6">
      <circle cx="64" cy="64" r="64" stroke="none"/>
      <circle cx="64" cy="64" r="61" fill="none"/>
    </g>
    <g id="Group_1181990" data-name="Group 1181990" transform="translate(95.571 8012)">
      <path id="Path_1011477" data-name="Path 1011477" d="M43.328,310.095a9.564,9.564,0,0,0-4.669-2.672l-6.618-1.586,0,0,0,0V301.8H23.961v4.053h0l-6.6,1.577A9.588,9.588,0,0,0,10,316.752v10.812H24.631Z" transform="translate(-8.392 -253.255)" fill="#78d2fa"/>
      <path id="Path_1011478" data-name="Path 1011478" d="M104.383,301.8v4.149l-4.194,10.045L96,305.96V301.8Z" transform="translate(-80.559 -253.255)" fill="#ffb487"/>
      <path id="Path_1011479" data-name="Path 1011479" d="M83.966,215.261v5.6a9.007,9.007,0,0,1-9.007,9.007h0a9.007,9.007,0,0,1-9.007-9.007v-5.6Z" transform="translate(-55.343 -180.638)" fill="#ffcdac"/>
      <path id="Path_1011480" data-name="Path 1011480" d="M83.966,167.96v-2.168a9.007,9.007,0,0,0-9.007-9.007h0a9.007,9.007,0,0,0-9.007,9.007v2.168H72.16A21.477,21.477,0,0,0,83.2,164.906h0" transform="translate(-55.343 -131.567)" fill="#878791"/>
      <path id="Path_1011481" data-name="Path 1011481" d="M294.79,310.095a9.564,9.564,0,0,1,4.669-2.672l6.617-1.586,0,0,0,0V301.8h8.081v4.053h0l6.6,1.577a9.588,9.588,0,0,1,7.361,9.326v10.812h-14.63Z" transform="translate(-247.375 -253.255)" fill="#a5dc69"/>
      <path id="Path_1011482" data-name="Path 1011482" d="M119.422,352.4l-9.217,2.209A13.355,13.355,0,0,0,99.962,367.6v8.865h50.162v-8.858a13.355,13.355,0,0,0-10.252-12.99l-9.193-2.2Z" transform="translate(-83.884 -295.722)" fill="#ff5a5a"/>
      <g id="Group_1181989" data-name="Group 1181989" transform="translate(35.172 48.542)">
        <path id="Path_1011483" data-name="Path 1011483" d="M372.263,301.8v4.163l-4.189,10.031-4.194-10.045V301.8Z" transform="translate(-340.525 -301.797)" fill="#ffb487"/>
        <path id="Path_1011484" data-name="Path 1011484" d="M224.679,341.57l6-13.625a4.954,4.954,0,0,1-.7-2.54V324.1h-10.61v1.31a4.953,4.953,0,0,1-.7,2.536Z" transform="translate(-218.674 -320.509)" fill="#ffb487"/>
      </g>
      <path id="Path_1011485" data-name="Path 1011485" d="M203.092,191.525v8.656a12.546,12.546,0,0,1-12.546,12.546h0A12.546,12.546,0,0,1,178,200.181v-8.656Z" transform="translate(-149.371 -160.72)" fill="#ffcdac"/>
      <path id="Path_1011486" data-name="Path 1011486" d="M190.545,115.437h0A12.546,12.546,0,0,0,178,127.983V131h6.134a13.784,13.784,0,0,0,10.565-4.931h0L203.09,131v-3.02A12.545,12.545,0,0,0,190.545,115.437Z" transform="translate(-149.369 -96.87)" fill="#f5b955"/>
      <path id="Path_1011487" data-name="Path 1011487" d="M334.045,215.261v5.6a9.007,9.007,0,0,0,9.007,9.007h0a9.007,9.007,0,0,0,9.007-9.007v-5.6Z" transform="translate(-280.317 -180.638)" fill="#ffcdac"/>
      <path id="Path_1011488" data-name="Path 1011488" d="M334.045,167.96v-2.168a9.007,9.007,0,0,1,9.007-9.007h0a9.007,9.007,0,0,1,9.007,9.007v2.168h-6.209a21.477,21.477,0,0,1-11.039-3.054h0" transform="translate(-280.317 -131.567)" fill="#878791"/>
      <path id="Path_1011489" data-name="Path 1011489" d="M247.348,492a1.609,1.609,0,1,0,1.137.471A1.62,1.62,0,0,0,247.348,492Z" transform="translate(-206.215 -412.866)"/>
      <path id="Path_1011490" data-name="Path 1011490" d="M73.756,141.085,68.39,139.8v-2.128a10.615,10.615,0,0,0,4.962-8.978V122.7a10.609,10.609,0,0,0-18.558-7.033,14.18,14.18,0,0,0-13.6-10.233h0A14.18,14.18,0,0,0,27.582,115.7,10.609,10.609,0,0,0,9,122.7V128.7a10.615,10.615,0,0,0,4.962,8.978V139.8L8.6,141.085A11.16,11.16,0,0,0,0,151.975v10.812A1.608,1.608,0,0,0,1.608,164.4H14.47v4.825a1.608,1.608,0,0,0,1.608,1.608H33.723a1.608,1.608,0,1,0,0-3.217h-7.18v-7.079a1.608,1.608,0,0,0-3.217,0v7.079H17.686v-7.257a11.71,11.71,0,0,1,9.01-11.423l7.911-1.9,5.09,11.58a1.608,1.608,0,0,0,1.472.961h0a1.608,1.608,0,0,0,1.472-.961l5.085-11.563,7.888,1.884a11.709,11.709,0,0,1,9.018,11.425v1.795a1.611,1.611,0,0,0,0,1.258v4.2H59.025v-7.079a1.608,1.608,0,0,0-3.217,0v7.079H47.931a1.608,1.608,0,0,0,0,3.217H66.24a1.608,1.608,0,0,0,1.608-1.608V164.4H80.743a1.608,1.608,0,0,0,1.608-1.608V151.975A11.161,11.161,0,0,0,73.756,141.085Zm-8.579.075-2.456,5.88-2.423-5.8a1.608,1.608,0,0,0,.011-.176c0-.015,0-.03,0-.045V139.03a10.543,10.543,0,0,0,4.864,0v2.046C65.173,141.1,65.175,141.131,65.177,141.16ZM33.93,142.452a11.168,11.168,0,0,0-3.287-1.37l-5.384-1.29v-2.109a10.692,10.692,0,0,0,3.324-3.314,14.256,14.256,0,0,0,5.347,5.717ZM30.254,127.94v-3.72H34.78a15.35,15.35,0,0,0,10.871-4.494l6.469,3.8v4.791a10.936,10.936,0,0,1-21.866-.378ZM48.4,140.115a14.255,14.255,0,0,0,5.384-5.719,10.7,10.7,0,0,0,3.306,3.286v2.109l-5.384,1.29a11.171,11.171,0,0,0-3.306,1.382v-2.348ZM62.736,136.1a7.407,7.407,0,0,1-7.4-7.4v-.262c.006-.164.01-4.325.01-4.325a23.091,23.091,0,0,0,10.188,2.37h4.6V128.7A7.407,7.407,0,0,1,62.736,136.1Zm0-20.792a7.407,7.407,0,0,1,7.4,7.4v.56h-4.6a19.873,19.873,0,0,1-9.9-2.642A7.413,7.413,0,0,1,62.736,115.3Zm-32.482,4.287a10.938,10.938,0,0,1,21.875,0v.21l-5.97-3.507a1.608,1.608,0,0,0-2.048.354A12.147,12.147,0,0,1,34.78,121H30.254ZM12.216,122.7a7.4,7.4,0,0,1,14.5-2.082,19.874,19.874,0,0,1-9.9,2.642h-4.6v-.56Zm0,3.777h4.6a23.09,23.09,0,0,0,10.2-2.375V128.7a7.4,7.4,0,0,1-14.8,0S12.216,126.48,12.216,126.48Zm7.4,12.833a10.608,10.608,0,0,0,2.427-.283v1.941c0,.03,0,.06,0,.091,0,.051,0,.1.01.151l-2.434,5.827-2.443-5.851c0-.038,0-.077,0-.116v-2.046A10.608,10.608,0,0,0,19.615,139.313ZM14.47,160.356v.823H9.651v-7.146a1.608,1.608,0,0,0-3.217,0v7.146H3.217v-9.2a7.954,7.954,0,0,1,6.126-7.761l5.1-1.218,3.327,7.971A14.931,14.931,0,0,0,14.47,160.356ZM25.947,145.8a15.118,15.118,0,0,0-2.719.935l1.567-3.751,5.1,1.222a7.969,7.969,0,0,1,1.154.372Zm15.223,8.169-4.022-9.151V141.5a14.166,14.166,0,0,0,8.039.015v3.32Zm10.105-9.379a7.987,7.987,0,0,1,1.183-.384l5.087-1.219,1.573,3.768a15.122,15.122,0,0,0-2.757-.949Zm27.86,16.585H75.917v-7.146a1.608,1.608,0,0,0-3.217,0v7.146H67.848v-.815a14.931,14.931,0,0,0-3.289-9.378l3.338-7.993,5.111,1.221a7.954,7.954,0,0,1,6.126,7.761Z" transform="translate(0 -88.478)"/>
      <path id="Path_1011491" data-name="Path 1011491" d="M214.068,231.25a1.609,1.609,0,1,0,1.137.471A1.621,1.621,0,0,0,214.068,231.25Z" transform="translate(-178.288 -194.055)"/>
      <path id="Path_1011492" data-name="Path 1011492" d="M280.938,234.467A1.609,1.609,0,1,0,279.8,234,1.62,1.62,0,0,0,280.938,234.467Z" transform="translate(-234.402 -194.055)"/>
      <path id="Path_1011493" data-name="Path 1011493" d="M240.053,265.384a1.609,1.609,0,0,0-2.275,0,1.221,1.221,0,0,1-1.725,0,1.609,1.609,0,0,0-2.275,2.275,4.442,4.442,0,0,0,6.274,0A1.609,1.609,0,0,0,240.053,265.384Z" transform="translate(-195.782 -222.304)"/>
      <path id="Path_1011494" data-name="Path 1011494" d="M398.228,57.217h1.1a1.608,1.608,0,1,0,0-3.217h-1.1a1.608,1.608,0,0,0,0,3.217Z" transform="translate(-332.827 -45.315)"/>
      <path id="Path_1011495" data-name="Path 1011495" d="M446.749,57.217h1.1a1.608,1.608,0,1,0,0-3.217h-1.1a1.608,1.608,0,0,0,0,3.217Z" transform="translate(-373.544 -45.315)"/>
      <path id="Path_1011496" data-name="Path 1011496" d="M425.919,79.151a1.608,1.608,0,0,0,1.608-1.608v-1.1a1.608,1.608,0,1,0-3.217,0v1.1A1.608,1.608,0,0,0,425.919,79.151Z" transform="translate(-356.064 -62.795)"/>
      <path id="Path_1011497" data-name="Path 1011497" d="M425.919,30.63a1.608,1.608,0,0,0,1.608-1.608v-1.1a1.608,1.608,0,1,0-3.217,0v1.1A1.608,1.608,0,0,0,425.919,30.63Z" transform="translate(-356.064 -22.078)"/>
      <path id="Path_1011498" data-name="Path 1011498" d="M41.052,57.217h1.1a1.608,1.608,0,1,0,0-3.217h-1.1a1.608,1.608,0,1,0,0,3.217Z" transform="translate(-33.1 -45.315)"/>
      <path id="Path_1011499" data-name="Path 1011499" d="M89.573,57.217h1.1a1.608,1.608,0,0,0,0-3.217h-1.1a1.608,1.608,0,0,0,0,3.217Z" transform="translate(-73.817 -45.315)"/>
      <path id="Path_1011500" data-name="Path 1011500" d="M68.742,79.151a1.608,1.608,0,0,0,1.608-1.608v-1.1a1.608,1.608,0,1,0-3.217,0v1.1A1.608,1.608,0,0,0,68.742,79.151Z" transform="translate(-56.336 -62.795)"/>
      <path id="Path_1011501" data-name="Path 1011501" d="M68.742,30.63a1.608,1.608,0,0,0,1.608-1.608v-1.1a1.608,1.608,0,0,0-3.217,0v1.1A1.608,1.608,0,0,0,68.742,30.63Z" transform="translate(-56.336 -22.078)"/>
      <path id="Path_1011502" data-name="Path 1011502" d="M247.608,45.536a1.608,1.608,0,0,0,1.608-1.608V39.7a1.608,1.608,0,1,0-3.217,0v4.232A1.608,1.608,0,0,0,247.608,45.536Z" transform="translate(-206.433 -31.961)"/>
      <path id="Path_1011503" data-name="Path 1011503" d="M247.608,3.217a1.609,1.609,0,0,0,1.608-1.608,1.608,1.608,0,1,0-2.746,1.137A1.621,1.621,0,0,0,247.608,3.217Z" transform="translate(-206.433)"/>
      <path id="Path_1011504" data-name="Path 1011504" d="M192.074,27.656a1.608,1.608,0,1,0,2.275-2.275L192,23.027A1.609,1.609,0,1,0,189.72,25.3Z" transform="translate(-158.81 -18.928)"/>
      <path id="Path_1011505" data-name="Path 1011505" d="M289.234,27.656a1.6,1.6,0,0,0,1.137-.471l2.432-2.432a1.609,1.609,0,1,0-2.275-2.275L288.1,24.91a1.609,1.609,0,0,0,1.137,2.746Z" transform="translate(-241.363 -18.467)"/>
    </g>
  </g>
</svg>
