<svg xmlns="http://www.w3.org/2000/svg" width="70" height="70" viewBox="0 0 70 70">
  <g id="img40" transform="translate(-765 -10586.832)">
    <rect id="Rectangle_455544" data-name="Rectangle 455544" width="70" height="70" rx="10" transform="translate(765 10586.832)" fill="#cfde90"/>
    <g id="Group_1182047" data-name="Group 1182047" transform="translate(778.542 10593.534)">
      <g id="Group_1182045" data-name="Group 1182045" transform="translate(0.629 8.095)">
        <path id="Path_1011575" data-name="Path 1011575" d="M41.106,65.06a7.964,7.964,0,0,1-6.252-12.9H8.757A1.257,1.257,0,0,0,7.5,53.415V76.3a1.257,1.257,0,0,0,1.257,1.257h36.1A1.257,1.257,0,0,0,46.11,76.3V63.288a7.93,7.93,0,0,1-5,1.772Z" transform="translate(-7.5 -49.041)" fill="#eaf6ff"/>
        <path id="Path_1011576" data-name="Path 1011576" d="M123.08,187.872h-2.845v-8.014a.419.419,0,0,1,.419-.419h2.007a.419.419,0,0,1,.419.419Z" transform="translate(-110.786 -165.653)" fill="#86e8d0"/>
        <path id="Path_1011577" data-name="Path 1011577" d="M193.387,187.872h-2.845v-8.014a.419.419,0,0,1,.419-.419h2.007a.419.419,0,0,1,.419.419Z" transform="translate(-175.2 -165.653)" fill="#d9b1ee"/>
        <path id="Path_1011578" data-name="Path 1011578" d="M52.772,235.627H50.408a.481.481,0,0,1-.481-.481v-3.164a.419.419,0,0,1,.419-.419h2.007a.419.419,0,0,1,.419.419Z" transform="translate(-46.371 -213.408)" fill="#fedf30"/>
        <path id="Path_1011579" data-name="Path 1011579" d="M263.212,216.747h-2.364v-5.372a.419.419,0,0,1,.419-.419h2.007a.419.419,0,0,1,.419.419v4.891A.481.481,0,0,1,263.212,216.747Z" transform="translate(-239.613 -194.528)" fill="#fdb97e"/>
        <path id="Path_1011580" data-name="Path 1011580" d="M43.584,186.322v9.608a.838.838,0,0,1-.838.838H7.5v1.191a1.257,1.257,0,0,0,1.257,1.257h36.1a1.257,1.257,0,0,0,1.257-1.257V184.945A7.961,7.961,0,0,1,43.584,186.322Z" transform="translate(-7.5 -170.698)" fill="#d8ecfe"/>
        <g id="Group_1182042" data-name="Group 1182042" transform="translate(0.099 25.641)">
          <path id="Path_1011581" data-name="Path 1011581" d="M18.575,406.874H11.587a2.908,2.908,0,0,0-2.908,2.908v3.392a1.257,1.257,0,0,0,1.257,1.257H21.483v-4.649A2.908,2.908,0,0,0,18.575,406.874Z" transform="translate(-8.679 -399.666)" fill="#fedf30"/>
          <circle id="Ellipse_13811" data-name="Ellipse 13811" cx="3.604" cy="3.604" r="3.604" transform="translate(2.798)" fill="#ffdfcf"/>
        </g>
        <g id="Group_1182043" data-name="Group 1182043" transform="translate(12.903 25.641)">
          <path id="Path_1011582" data-name="Path 1011582" d="M171.334,406.874h-6.988a2.908,2.908,0,0,0-2.908,2.908v4.649h12.8v-4.649A2.908,2.908,0,0,0,171.334,406.874Z" transform="translate(-161.438 -399.666)" fill="#86e8d0"/>
          <circle id="Ellipse_13812" data-name="Ellipse 13812" cx="3.604" cy="3.604" r="3.604" transform="translate(2.798)" fill="#bb5d4c"/>
        </g>
        <g id="Group_1182044" data-name="Group 1182044" transform="translate(25.707 25.641)">
          <path id="Path_1011583" data-name="Path 1011583" d="M324.093,406.874H317.1a2.908,2.908,0,0,0-2.908,2.908v4.649h11.547A1.257,1.257,0,0,0,327,413.174v-3.392A2.908,2.908,0,0,0,324.093,406.874Z" transform="translate(-314.197 -399.666)" fill="#fdb97e"/>
          <circle id="Ellipse_13813" data-name="Ellipse 13813" cx="3.604" cy="3.604" r="3.604" transform="translate(2.798)" fill="#ffdfcf"/>
        </g>
        <circle id="Ellipse_13814" data-name="Ellipse 13814" cx="8.052" cy="8.052" r="8.052" transform="translate(25.555 0)" fill="#86e8d0"/>
        <path id="Path_1011584" data-name="Path 1011584" d="M350.163,19.383a8.054,8.054,0,0,1-7.973,13.511,8.052,8.052,0,1,0,7.973-13.511Z" transform="translate(-314.137 -19.013)" fill="#5de1c4"/>
        <path id="Path_1011585" data-name="Path 1011585" d="M67.492,98.244H50.346a.419.419,0,0,1-.419-.419v-2.82a.419.419,0,0,1,.419-.419H67.492a.419.419,0,0,1,.419.419v2.82A.419.419,0,0,1,67.492,98.244Z" transform="translate(-46.371 -87.912)" fill="#d9b1ee"/>
        <path id="Path_1011586" data-name="Path 1011586" d="M67.492,94.586H65.4v1.376a.419.419,0,0,1-.419.419H49.927v1.444a.419.419,0,0,0,.419.419H67.492a.419.419,0,0,0,.419-.419v-2.82A.419.419,0,0,0,67.492,94.586Z" transform="translate(-46.371 -87.912)" fill="#cb97e7"/>
        <path id="Path_1011587" data-name="Path 1011587" d="M55.011,322.534a3.6,3.6,0,0,1-3.83,5.683,3.6,3.6,0,1,0,3.83-5.683Z" transform="translate(-47.52 -296.754)" fill="#ffcebf"/>
        <path id="Path_1011588" data-name="Path 1011588" d="M207.77,322.534a3.6,3.6,0,0,1-3.83,5.683,3.6,3.6,0,1,0,3.83-5.683Z" transform="translate(-187.475 -296.754)" fill="#a44f3e"/>
        <path id="Path_1011589" data-name="Path 1011589" d="M360.529,322.534a3.6,3.6,0,0,1-3.83,5.683,3.6,3.6,0,1,0,3.83-5.683Z" transform="translate(-327.43 -296.754)" fill="#ffcebf"/>
        <path id="Path_1011590" data-name="Path 1011590" d="M19.319,408.025v4.6a.838.838,0,0,1-.838.838h-9.8v.769a1.257,1.257,0,0,0,1.257,1.257H21.483v-4.649A2.909,2.909,0,0,0,19.319,408.025Z" transform="translate(-8.58 -375.079)" fill="#fed402"/>
        <path id="Path_1011591" data-name="Path 1011591" d="M172.078,408.025v4.6a.838.838,0,0,1-.838.838h-9.8v2.026h12.8v-4.649A2.909,2.909,0,0,0,172.078,408.025Z" transform="translate(-148.535 -375.079)" fill="#5de1c4"/>
        <path id="Path_1011592" data-name="Path 1011592" d="M324.837,408.025v4.6a.838.838,0,0,1-.838.838h-9.8v2.026h11.547A1.257,1.257,0,0,0,327,414.228v-3.392A2.909,2.909,0,0,0,324.837,408.025Z" transform="translate(-288.49 -375.079)" fill="#fea95c"/>
        <path id="Path_1011593" data-name="Path 1011593" d="M122.66,179.439h-.832v6.8a.419.419,0,0,1-.419.419h-1.175v1.21h2.845v-8.014A.419.419,0,0,0,122.66,179.439Z" transform="translate(-110.785 -165.653)" fill="#5de1c4"/>
        <path id="Path_1011594" data-name="Path 1011594" d="M192.967,179.439h-.832v6.8a.419.419,0,0,1-.419.419h-1.175v1.21h2.845v-8.014A.419.419,0,0,0,192.967,179.439Z" transform="translate(-175.199 -165.653)" fill="#cb97e7"/>
        <path id="Path_1011595" data-name="Path 1011595" d="M52.353,231.564h-.832V234a.419.419,0,0,1-.419.419H49.927v.729a.481.481,0,0,0,.481.481h2.364v-3.645A.419.419,0,0,0,52.353,231.564Z" transform="translate(-46.371 -213.409)" fill="#fed402"/>
        <path id="Path_1011596" data-name="Path 1011596" d="M263.274,210.956h-.832v4.162a.419.419,0,0,1-.419.419h-1.175v1.21h2.364a.482.482,0,0,0,.481-.481v-4.891A.419.419,0,0,0,263.274,210.956Z" transform="translate(-239.613 -194.528)" fill="#fea95c"/>
      </g>
      <g id="Group_1182046" data-name="Group 1182046" transform="translate(0 7.466)">
        <path id="Path_1011597" data-name="Path 1011597" d="M337.378,273.808h6.066a.629.629,0,0,0,0-1.257h-6.066a.629.629,0,0,0,0,1.257Z" transform="translate(-308.523 -250.332)"/>
        <path id="Path_1011598" data-name="Path 1011598" d="M337.378,243.278h6.066a.629.629,0,0,0,0-1.257h-6.066a.629.629,0,0,0,0,1.257Z" transform="translate(-308.523 -222.361)"/>
        <path id="Path_1011599" data-name="Path 1011599" d="M34.235,7.466a8.665,8.665,0,0,0-6.658,3.117H9.136a.629.629,0,0,0,0,1.257H26.7a8.68,8.68,0,0,0-.3,8.042.629.629,0,1,0,1.134-.542,7.353,7.353,0,0,1-.721-3.2,7.423,7.423,0,1,1,2.313,5.383.629.629,0,0,0-.866.912,8.673,8.673,0,0,0,10.351,1.2V35.356a.629.629,0,0,1-.629.629H36.746a4.231,4.231,0,0,0-8.018,0H23.942a4.231,4.231,0,0,0-8.018,0H11.138a4.231,4.231,0,0,0-8.018,0H1.886a.629.629,0,0,1-.629-.629V12.469a.629.629,0,0,1,.629-.629H6.2a.629.629,0,0,0,0-1.257H1.886A1.888,1.888,0,0,0,0,12.469V35.356a1.888,1.888,0,0,0,1.886,1.886H2.9c0,.033,0,.065,0,.1a4.219,4.219,0,0,0,1.226,2.975H3.635A3.541,3.541,0,0,0,.1,43.852v3.392A1.888,1.888,0,0,0,1.985,49.13H3.611a.629.629,0,0,0,0-1.257H1.985a.629.629,0,0,1-.629-.629V43.852a2.282,2.282,0,0,1,2.279-2.279h6.988A2.282,2.282,0,0,1,12.9,43.852v4.02H6.545a.629.629,0,0,0,0,1.257H37.882a1.888,1.888,0,0,0,1.886-1.886V43.852a3.541,3.541,0,0,0-3.537-3.537h-.487A4.219,4.219,0,0,0,36.97,37.34c0-.033,0-.065,0-.1h1.013a1.888,1.888,0,0,0,1.886-1.886V22.745A8.676,8.676,0,0,0,34.235,7.466ZM7.129,40.315A2.975,2.975,0,1,1,10.1,37.34,2.979,2.979,0,0,1,7.129,40.315Zm25.608-5.951a2.975,2.975,0,1,1-2.975,2.975A2.979,2.979,0,0,1,32.738,34.364Zm-12.8,0a2.975,2.975,0,1,1-2.975,2.975,2.979,2.979,0,0,1,2.975-2.975Zm-6.4,7.478a3.535,3.535,0,0,0-2.908-1.527h-.487a4.219,4.219,0,0,0,1.226-2.975c0-.033,0-.065,0-.1H15.7c0,.033,0,.065,0,.1a4.219,4.219,0,0,0,1.226,2.975H16.44A3.535,3.535,0,0,0,13.532,41.842Zm12.175,6.03H14.16v-4.02a2.282,2.282,0,0,1,2.279-2.279h6.988a2.282,2.282,0,0,1,2.279,2.279Zm.629-6.03a3.535,3.535,0,0,0-2.908-1.527h-.487a4.219,4.219,0,0,0,1.226-2.975c0-.033,0-.065,0-.1h4.344c0,.033,0,.065,0,.1a4.219,4.219,0,0,0,1.226,2.975h-.487a3.535,3.535,0,0,0-2.908,1.527Zm9.9-.27a2.282,2.282,0,0,1,2.279,2.279v3.392a.629.629,0,0,1-.629.629H26.964v-4.02a2.282,2.282,0,0,1,2.279-2.279Z" transform="translate(0 -7.466)"/>
        <path id="Path_1011600" data-name="Path 1011600" d="M366.191,80.929h.011a.629.629,0,0,0,.476-.231l3.922-4.8a.629.629,0,1,0-.974-.8l-3.452,4.228-1.924-2.2a.629.629,0,0,0-.946.828l2.413,2.755A.628.628,0,0,0,366.191,80.929Z" transform="translate(-332.711 -69.218)"/>
        <path id="Path_1011601" data-name="Path 1011601" d="M60.621,87.085H43.475a1.049,1.049,0,0,0-1.048,1.048v2.82A1.049,1.049,0,0,0,43.475,92H60.621a1.049,1.049,0,0,0,1.048-1.048v-2.82A1.049,1.049,0,0,0,60.621,87.085Zm-.21,3.658H43.684v-2.4H60.411v2.4Z" transform="translate(-38.871 -80.411)"/>
        <path id="Path_1011602" data-name="Path 1011602" d="M45.481,176.308H43.475a1.049,1.049,0,0,0-1.048,1.048v3.164a1.111,1.111,0,0,0,1.11,1.11H63.1a1.111,1.111,0,0,0,1.11-1.11v-4.891a1.049,1.049,0,0,0-1.048-1.048H61.154a1.049,1.049,0,0,0-1.048,1.048v4.744H58.315v-7.385a1.049,1.049,0,0,0-1.048-1.048H55.261a1.049,1.049,0,0,0-1.048,1.048v7.385H52.422v-7.385a1.049,1.049,0,0,0-1.048-1.048H49.368a1.049,1.049,0,0,0-1.048,1.048v7.385H46.529v-3.016A1.049,1.049,0,0,0,45.481,176.308Zm-.21,4.064H43.684v-2.807h1.588Zm16.092-4.534h1.588v4.534H61.363ZM55.47,173.2h1.588v7.176H55.47Zm-5.893,0h1.588v7.176H49.577Z" transform="translate(-38.871 -158.153)"/>
      </g>
    </g>
  </g>
</svg>
