<svg xmlns="http://www.w3.org/2000/svg" width="1328" height="253.381" viewBox="0 0 1328 253.381">
  <g id="imgfondo6" transform="translate(-136 -9893)">
    <path id="Path_998172" data-name="Path 998172" d="M0,416l36.879,13.276c36.879,13.276,110.636,39.829,184.393,38.354s147.514-30.978,221.271-24.782C516.3,448.9,590.057,490.79,663.814,495.215S811.329,466.6,885.086,462.172s147.514,19.767,221.271,29.06,147.514,3.983,184.393,1.18l36.879-2.655V658.9H0Z" transform="translate(136.371 9477)" fill="#fff5f0"/>
    <path id="Path_998173" data-name="Path 998173" d="M0,575.575l36.889-10.329c36.889-10.329,110.667-30.987,184.444-61.236s147.556-70.089,221.333-87.353c73.778-17.116,147.556-11.8,221.333,6.2s147.556,48.4,221.333,70.384c73.778,21.838,147.556,35.118,221.333,24.347,73.778-10.919,147.555-45.742,184.444-63.3L1328,436.873V653.62H0Z" transform="translate(136 9492.762)" fill="#fffbf6"/>
  </g>
</svg>
