<svg xmlns="http://www.w3.org/2000/svg" width="68" height="68" viewBox="0 0 68 68">
  <g id="img2" transform="translate(-516.63 -665)">
    <rect id="Rectangle_455307" data-name="Rectangle 455307" width="68" height="68" transform="translate(516.63 665)" fill="#fa996c"/>
    <g id="Group_1178789" data-name="Group 1178789" transform="translate(523.362 676)">
      <path id="Path_1001573" data-name="Path 1001573" d="M297.362,186.257l-3.076,3.076-8.482,6.129-1.5-1.5.031-.038a4.229,4.229,0,1,0-4.646-4.591l-.008.008-2.7-2.7,10.381-10.381Z" transform="translate(-247.794 -160.112)" fill="#03aa6f"/>
      <path id="Path_1001574" data-name="Path 1001574" d="M49.569,322.025,33.42,335.867H28.806l-14.611-5.383H4.2v-8.459h10l.538-.231,3.307-1.415,1.538-.661h12.3v4.614H22.654l10,4.614,5.36-3.868,8.482-6.129Z" transform="translate(0 -289.728)" fill="#f5d0c7"/>
      <path id="Path_1001575" data-name="Path 1001575" d="M314.9,280.957a4.224,4.224,0,0,1-3.8,4.206l-.031.039-4.245-4.245-.377-.377.008-.008a4.23,4.23,0,0,1,8.444.385Z" transform="translate(-274.556 -251.352)" fill="#79dca0"/>
      <path id="Path_1001576" data-name="Path 1001576" d="M221,328.889l-5.36,3.868-10-4.614h9.228V323.53l.384-.385,4.245,4.245Z" transform="translate(-182.986 -293.539)" fill="#03aa6f"/>
      <path id="Path_1001577" data-name="Path 1001577" d="M212.561,52.346a2.551,2.551,0,0,0,1.63-.561,1.78,1.78,0,0,0,.677-1.361,1.153,1.153,0,0,0-.854-1.054l-1.453-.484v-3.46a2.551,2.551,0,0,0-1.63.561,1.78,1.78,0,0,0-.677,1.361,1.153,1.153,0,0,0,.854,1.054l1.453.484Zm0-10.381a6.921,6.921,0,1,1-6.921,6.921A6.92,6.92,0,0,1,212.561,41.965Z" transform="translate(-182.986 -38.12)" fill="#ffdb6f"/>
      <path id="Path_1001578" data-name="Path 1001578" d="M70.388,182.093l-.385.385H65.328a4.614,4.614,0,0,0-9.166.661l-3.307,1.415-6.69-6.69,10-10,11.15,11.15,2.7,2.7Z" transform="translate(-38.122 -152.488)" fill="#03aa6f"/>
      <g id="Group_1178786" data-name="Group 1178786" transform="translate(27.268 7.305)">
        <path id="Path_1001579" data-name="Path 1001579" d="M283.489,119.044a1.781,1.781,0,0,1-.677,1.361,2.55,2.55,0,0,1-1.63.561v-3.46l1.453.484A1.153,1.153,0,0,1,283.489,119.044Z" transform="translate(-278.875 -114.045)" fill="#ffdb6f"/>
        <path id="Path_1001580" data-name="Path 1001580" d="M258.307,79.734v3.46l-1.453-.484A1.153,1.153,0,0,1,256,81.656a1.781,1.781,0,0,1,.677-1.361A2.553,2.553,0,0,1,258.307,79.734Z" transform="translate(-256 -79.734)" fill="#ffdb6f"/>
      </g>
      <path id="Path_1001581" data-name="Path 1001581" d="M164.446,288.99h-7.628l-1.538.661a4.614,4.614,0,0,1,9.166-.661Z" transform="translate(-137.24 -259)" fill="#79dca0"/>
      <g id="Group_1178787" data-name="Group 1178787" transform="translate(18.809 0)">
        <path id="Path_1001582" data-name="Path 1001582" d="M228.653,2.992a9.355,9.355,0,0,0-9.934,0L217.887,1.7a10.748,10.748,0,0,1,11.6,0Z" transform="translate(-212.92 0)" fill="#ffdb6f"/>
        <path id="Path_1001583" data-name="Path 1001583" d="M164.5,121.646a10.746,10.746,0,0,1-.827-4.14h1.538a9.189,9.189,0,0,0,.711,3.55Z" transform="translate(-163.674 -106.74)" fill="#ffdb6f"/>
        <path id="Path_1001584" data-name="Path 1001584" d="M281.181,212.72v-1.538a9.189,9.189,0,0,0,3.55-.711l.591,1.421A10.745,10.745,0,0,1,281.181,212.72Z" transform="translate(-270.415 -191.188)" fill="#ffdb6f"/>
        <path id="Path_1001585" data-name="Path 1001585" d="M375.568,121.646l-1.421-.591a9.192,9.192,0,0,0,.711-3.55H376.4A10.747,10.747,0,0,1,375.568,121.646Z" transform="translate(-354.864 -106.74)" fill="#ffdb6f"/>
      </g>
      <g id="Group_1178788" data-name="Group 1178788" transform="translate(21.885 3.076)">
        <path id="Path_1001586" data-name="Path 1001586" d="M204.937,48.953a7.69,7.69,0,1,1,7.69-7.69A7.69,7.69,0,0,1,204.937,48.953Zm0-13.842a6.152,6.152,0,1,0,6.152,6.152A6.152,6.152,0,0,0,204.937,35.111Z" transform="translate(-197.247 -33.573)" fill="#ff8030"/>
        <path id="Path_1001587" data-name="Path 1001587" d="M250.684,79.747a3.312,3.312,0,0,1-2.123-.74,2.555,2.555,0,0,1-.953-1.952h1.538a1.012,1.012,0,0,0,.4.769,1.95,1.95,0,0,0,2.275,0,1.011,1.011,0,0,0,.4-.769c0-.108-.111-.253-.324-.323l-2.91-.971a1.922,1.922,0,0,1-1.38-1.783,2.555,2.555,0,0,1,.954-1.952,3.31,3.31,0,0,1,2.122-.74,2.906,2.906,0,0,1,3.076,2.691h-1.538c0-.625-.7-1.153-1.538-1.153a1.793,1.793,0,0,0-1.137.385,1.011,1.011,0,0,0-.4.769c0,.108.112.253.325.323l2.91.971a1.922,1.922,0,0,1,1.38,1.783,2.555,2.555,0,0,1-.954,1.952A3.309,3.309,0,0,1,250.684,79.747Z" transform="translate(-242.994 -67.827)" fill="#ff8030"/>
        <rect id="Rectangle_455714" data-name="Rectangle 455714" width="1.538" height="9.228" transform="translate(6.921 3.076)" fill="#ff8030"/>
      </g>
      <path id="Path_1001588" data-name="Path 1001588" d="M218.726,3a9.357,9.357,0,0,1,9.933,0l.831-1.3a10.748,10.748,0,0,0-11.594,0Z" transform="translate(-194.118 -0.003)"/>
      <path id="Path_1001589" data-name="Path 1001589" d="M163.673,117.505a10.7,10.7,0,0,0,.829,4.144l1.42-.594a9.167,9.167,0,0,1-.711-3.55h-1.538Z" transform="translate(-144.864 -106.74)"/>
      <path id="Path_1001590" data-name="Path 1001590" d="M281.18,212.728a10.668,10.668,0,0,0,4.142-.828l-.6-1.42a9.129,9.129,0,0,1-3.547.71v1.538Z" transform="translate(-251.605 -191.196)"/>
      <path id="Path_1001591" data-name="Path 1001591" d="M375.576,121.648a10.683,10.683,0,0,0,.828-4.142h-1.538a9.139,9.139,0,0,1-.71,3.548Z" transform="translate(-336.063 -106.74)"/>
      <path id="Path_1001592" data-name="Path 1001592" d="M212.628,41.262a7.69,7.69,0,1,0-7.69,7.69A7.69,7.69,0,0,0,212.628,41.262Zm-7.69,6.152a6.152,6.152,0,1,1,6.152-6.152A6.152,6.152,0,0,1,204.938,47.414Z" transform="translate(-175.363 -30.496)"/>
      <path id="Path_1001593" data-name="Path 1001593" d="M252.222,70.221h1.538a2.783,2.783,0,0,0-2.307-2.6v-.48h-1.538v.48a2.784,2.784,0,0,0-2.307,2.6A1.932,1.932,0,0,0,248.992,72l.923.308v1.972a1.153,1.153,0,0,1-.769-.987h-1.538a2.784,2.784,0,0,0,2.307,2.6v.48h1.538v-.48a2.783,2.783,0,0,0,2.307-2.6,1.932,1.932,0,0,0-1.384-1.783l-.923-.308V69.233A1.153,1.153,0,0,1,252.222,70.221Zm-.331,2.751c.195.065.331.2.331.325a1.153,1.153,0,0,1-.769.988V72.824Zm-2.415-2.425c-.195-.065-.331-.2-.331-.325a1.153,1.153,0,0,1,.769-.988v1.461Z" transform="translate(-221.109 -60.994)"/>
      <path id="Path_1001594" data-name="Path 1001594" d="M40.115,160.472a.77.77,0,0,0-1.087,0L29.19,170.31,18.584,159.7a.77.77,0,0,0-1.087,0l-10,10a.77.77,0,0,0,0,1.087l5.608,5.608H4.2v1.538h10a.758.758,0,0,0,.3-.062l5.238-2.245H31.113V178.7H22.654a.769.769,0,0,0-.322,1.467l10,4.614a.768.768,0,0,0,.769-.077L46.416,175.1l2.025,2.025L33.135,190.238H28.943L14.461,184.9a.768.768,0,0,0-.266-.048H4.2v1.538h9.859l14.483,5.335a.768.768,0,0,0,.266.048H33.42a.764.764,0,0,0,.5-.185l16.149-13.842a.77.77,0,0,0,.084-1.084c-.013-.015-.026-.029-.04-.043l-2.532-2.532,2.532-2.532a.77.77,0,0,0,0-1.087Zm-22.075.862,12.755,12.755H27.81a5.36,5.36,0,0,0-5.156-3.845,5.417,5.417,0,0,0-5.344,4.749l-2.4,1.029L9.13,170.244Zm18.7,16.527-4.019-4.019a3.452,3.452,0,1,1,4.019,4.019Zm2.146.769-.8.577-.1-.1a4.969,4.969,0,0,0,.9-.476Zm-19.31-4.542a.758.758,0,0,0-.3.062l-.187.077a3.823,3.823,0,0,1,7.079-.139Zm12.987,9.11-6.41-2.958h5.727a.769.769,0,0,0,.769-.769v-3.527l4.176,4.176Zm13.428-9.7L39.217,178.4a5,5,0,1,0-7.742-5.8l-1.2-1.2,9.294-9.294,8.91,8.91Z" transform="translate(0 -144.867)"/>
    </g>
  </g>
</svg>
