<svg xmlns="http://www.w3.org/2000/svg" width="84" height="84" viewBox="0 0 84 84">
  <g id="img15" transform="translate(-497.711 -6364)">
    <rect id="Rectangle_455413" data-name="Rectangle 455413" width="84" height="84" rx="9" transform="translate(497.711 6364)" fill="#cfde90"/>
    <g id="Group_1180989" data-name="Group 1180989" transform="translate(508.711 6375)">
      <g id="Group_1180987" data-name="Group 1180987">
        <g id="Group_1180976" data-name="Group 1180976">
          <path id="Path_1007087" data-name="Path 1007087" d="M35,11H3a2.006,2.006,0,0,0-2,2V59a2.006,2.006,0,0,0,2,2H35a2.006,2.006,0,0,0,2-2V13A2.006,2.006,0,0,0,35,11Z" fill="#cf9e76"/>
        </g>
        <g id="Group_1180977" data-name="Group 1180977">
          <path id="Path_1007088" data-name="Path 1007088" d="M28,11v4H10V9H28Z" fill="#b4dd7f"/>
        </g>
        <g id="Group_1180978" data-name="Group 1180978">
          <path id="Path_1007089" data-name="Path 1007089" d="M5,57V15H33V57Z" fill="#e6e9ed"/>
        </g>
        <g id="Group_1180979" data-name="Group 1180979">
          <circle id="Ellipse_13758" data-name="Ellipse 13758" cx="3" cy="3" r="3" transform="translate(39 1)" fill="#fcd770"/>
        </g>
        <g id="Group_1180980" data-name="Group 1180980">
          <circle id="Ellipse_13759" data-name="Ellipse 13759" cx="5" cy="5" r="5" transform="translate(51 1)" fill="#fcd770"/>
        </g>
        <g id="Group_1180981" data-name="Group 1180981">
          <path id="Path_1007090" data-name="Path 1007090" d="M48,31h-.56a2.009,2.009,0,0,0-1.9,1.37L45,34l-2-3a3.991,3.991,0,0,0-2.66,1.01,10.005,10.005,0,1,1,17.31,0A3.984,3.984,0,0,0,55,31l-2,3-.54-1.63A2.009,2.009,0,0,0,50.56,31H48Z" fill="#fcd770"/>
        </g>
        <g id="Group_1180982" data-name="Group 1180982">
          <path id="Path_1007091" data-name="Path 1007091" d="M50,39h3l3.73,2.8a10.523,10.523,0,0,1,3.14,3.76A10.663,10.663,0,0,1,50.33,61H47.67a10.665,10.665,0,0,1-6.4-19.2L45,39h5Z" fill="#b4dd7f"/>
        </g>
        <g id="Group_1180983" data-name="Group 1180983">
          <path id="Path_1007092" data-name="Path 1007092" d="M59,35l-6,4H50l3-5,2-3a3.984,3.984,0,0,1,2.65,1.01c.06.05.12.1.18.16A4.025,4.025,0,0,1,59,35Z" fill="#b4dd7f"/>
        </g>
        <g id="Group_1180984" data-name="Group 1180984">
          <path id="Path_1007093" data-name="Path 1007093" d="M45,34l3,5H45l-6-4a4.025,4.025,0,0,1,1.17-2.83c.06-.05.11-.11.17-.16A3.991,3.991,0,0,1,43,31Z" fill="#b4dd7f"/>
        </g>
        <g id="Group_1180985" data-name="Group 1180985">
          <path id="Path_1007094" data-name="Path 1007094" d="M52.46,32.37,53,34l-3,5H48l-3-5,.54-1.63A2.009,2.009,0,0,1,47.44,31h3.12a2.009,2.009,0,0,1,1.9,1.37Z" fill="#a0d468"/>
        </g>
        <g id="Group_1180986" data-name="Group 1180986">
          <path id="Path_1007095" data-name="Path 1007095" d="M28.41,25.59A1.955,1.955,0,0,0,27,25a2.006,2.006,0,0,0-2,2V25a2.015,2.015,0,0,0-2-2,2.006,2.006,0,0,0-2,2V21a2.015,2.015,0,0,0-2-2,2.006,2.006,0,0,0-2,2v4a2.015,2.015,0,0,0-2-2,2.006,2.006,0,0,0-2,2v7h-.02a4.362,4.362,0,0,0-4.36-4,1.618,1.618,0,0,0-1.45,2.34l1.2,2.39A6.108,6.108,0,0,1,9,35.42,9.581,9.581,0,0,0,18.58,45h.84A9.581,9.581,0,0,0,29,35.42V27a1.955,1.955,0,0,0-.59-1.41Z" fill="#f0d0b4"/>
        </g>
      </g>
      <g id="Group_1180988" data-name="Group 1180988">
        <path id="Path_1007096" data-name="Path 1007096" d="M7.472,33.18A5.036,5.036,0,0,1,8,35.417,10.6,10.6,0,0,0,18.583,46h.833A10.6,10.6,0,0,0,30,35.417V27a2.99,2.99,0,0,0-4.116-2.78A2.95,2.95,0,0,0,22,22.184V21a3,3,0,0,0-6,0v1.184A2.966,2.966,0,0,0,15,22a3,3,0,0,0-3,3v3.23A5.326,5.326,0,0,0,8.618,27a2.619,2.619,0,0,0-2.342,3.789ZM23,24a1,1,0,0,1,1,1v6H22V25A1,1,0,0,1,23,24Zm-5-3a1,1,0,0,1,2,0V31H18V21ZM8.618,29A3.386,3.386,0,0,1,12,32.382v2.339l.684.228A3.383,3.383,0,0,1,15,38.162V39h2v-.838a5.381,5.381,0,0,0-3-4.83v-.95c0-.131-.029-.253-.039-.382H14V25a1,1,0,0,1,2,0v6.13a2.96,2.96,0,0,0-1.293.749l-.414.414,1.414,1.414.414-.414A1,1,0,0,1,16.829,33h8.343a1,1,0,0,1,.708.293l.414.414,1.414-1.414-.414-.414A2.96,2.96,0,0,0,26,31.13V27a1,1,0,0,1,2,0v8.417A8.6,8.6,0,0,1,19.417,44h-.833A8.594,8.594,0,0,1,10,35.417a7.031,7.031,0,0,0-.739-3.131l-1.2-2.391a.619.619,0,0,1,.553-.9Z"/>
        <path id="Path_1007097" data-name="Path 1007097" d="M8,48h2v2H8Z"/>
        <path id="Path_1007098" data-name="Path 1007098" d="M8,52h2v2H8Z"/>
        <path id="Path_1007099" data-name="Path 1007099" d="M12,48H30v2H12Z"/>
        <path id="Path_1007100" data-name="Path 1007100" d="M12,52H30v2H12Z"/>
        <path id="Path_1007101" data-name="Path 1007101" d="M56,12a6,6,0,1,0-6-6A6.006,6.006,0,0,0,56,12ZM56,2a4,4,0,1,1-4,4A4,4,0,0,1,56,2Z"/>
        <path id="Path_1007102" data-name="Path 1007102" d="M42,8a4,4,0,1,0-4-4A4,4,0,0,0,42,8Zm0-6a2,2,0,1,1-2,2A2,2,0,0,1,42,2Z"/>
        <path id="Path_1007103" data-name="Path 1007103" d="M57.333,41l-2.6-1.952L60,35.535V35a4.953,4.953,0,0,0-1.151-3.152,11,11,0,1,0-19.7,0A4.955,4.955,0,0,0,38,35V13a3,3,0,0,0-3-3H29V8H9v2H3a3,3,0,0,0-3,3V59a3,3,0,0,0,3,3H35a3,3,0,0,0,3-3V56.858A11.664,11.664,0,0,0,47.667,62h2.667a11.667,11.667,0,0,0,7-21ZM52.7,38h-.931l2.077-3.462,1.663-2.495a3.006,3.006,0,0,1,2.45,2.45ZM45.3,38l-5.26-3.507a3.006,3.006,0,0,1,2.45-2.45l1.663,2.495L46.234,38Zm3.263,0-2.472-4.12.4-1.2A1,1,0,0,1,47.441,32h3.118a1,1,0,0,1,.949.684l.4,1.2L49.434,38ZM49,18a8.988,8.988,0,0,1,8.258,12.564A4.941,4.941,0,0,0,55,30h-.535l-1.174,1.761a3,3,0,0,0-.819-1.067A3,3,0,0,0,50,26H48a1,1,0,0,1,0-2h2a1,1,0,0,1,1,1h2a3,3,0,0,0-3-3V20H48v2a3,3,0,0,0,0,6h2a1,1,0,1,1,0,2H48a1,1,0,0,1-1-1H45a2.979,2.979,0,0,0,.528,1.694,3,3,0,0,0-.819,1.067L43.535,30H43a4.928,4.928,0,0,0-2.258.564A8.988,8.988,0,0,1,49,18ZM43.269,39.048,40.667,41A11.629,11.629,0,0,0,38,43.825v-8.29ZM11,10H27v4H11Zm18,6h3V56H6V16H29Zm7,43a1,1,0,0,1-1,1H3a1,1,0,0,1-1-1V13a1,1,0,0,1,1-1H9v2H4V58H34V14H29V12h6a1,1,0,0,1,1,1Zm14.333,1H47.666a9.667,9.667,0,0,1-5.8-17.4L45.334,40H46V53h2V40h2v7h2V40h.667l3.467,2.6a9.667,9.667,0,0,1-5.8,17.4Z"/>
        <path id="Path_1007104" data-name="Path 1007104" d="M50,49h2v2H50Z"/>
        <path id="Path_1007105" data-name="Path 1007105" d="M46,55h2v2H46Z"/>
      </g>
    </g>
  </g>
</svg>
