<svg xmlns="http://www.w3.org/2000/svg" width="70" height="70" viewBox="0 0 70 70">
  <g id="img16" transform="translate(-765.711 -7057)">
    <rect id="Rectangle_455415" data-name="Rectangle 455415" width="70" height="70" rx="10" transform="translate(765.711 7057)" fill="#cfde90"/>
    <g id="money_laundry" data-name="money laundry" transform="translate(772.684 7064)">
      <path id="Path_1007106" data-name="Path 1007106" d="M49.475,32.734H7.867a.867.867,0,0,1,0-1.734H49.475a.867.867,0,0,1,0,1.734Z" transform="translate(-0.396 -3.596)" fill="#ffc661"/>
      <path id="Path_1007107" data-name="Path 1007107" d="M28.4,20a11.156,11.156,0,0,0-3.381.529L6.439,26.475A2.061,2.061,0,0,0,7.7,30.4l17.337-5.548a11.131,11.131,0,0,1,6.753.009l17.337,5.548a2.064,2.064,0,0,0,1.248-3.935L31.785,20.529A11.156,11.156,0,0,0,28.4,20Z" transform="translate(-0.13 -2.131)" fill="#a9a2e4"/>
      <path id="Path_1007108" data-name="Path 1007108" d="M45.673,35H12.734A1.734,1.734,0,0,0,11,36.734V54.07A1.734,1.734,0,0,0,12.734,55.8H45.673a1.734,1.734,0,0,0,1.734-1.734V36.734A1.734,1.734,0,0,0,45.673,35Z" transform="translate(-0.929 -4.128)" fill="#50b267"/>
      <path id="Path_1007109" data-name="Path 1007109" d="M44.472,49.4A3.467,3.467,0,0,0,41,52.869H18.467A3.467,3.467,0,0,0,15,49.4V42.467A3.467,3.467,0,0,0,18.467,39H41a3.467,3.467,0,0,0,3.467,3.467Z" transform="translate(-1.461 -4.661)" fill="#6ac682"/>
      <circle id="Ellipse_13760" data-name="Ellipse 13760" cx="5.201" cy="5.201" r="5.201" transform="translate(23.074 36.073)" fill="#a3e8b0"/>
      <g id="Group_1180991" data-name="Group 1180991" transform="translate(4.027 4)">
        <path id="Path_1007110" data-name="Path 1007110" d="M6.933,31.79a2.93,2.93,0,0,1-.867-5.721l8.98-2.869a.867.867,0,1,1,.52,1.647L6.6,27.716a1.2,1.2,0,0,0,.364,2.34A1.058,1.058,0,0,0,7.324,30L24.66,24.457a11.9,11.9,0,0,1,7.29,0l5.331,1.734a.867.867,0,1,1-.52,1.647L31.43,26.1a10.4,10.4,0,0,0-6.241,0L7.835,31.686a2.765,2.765,0,0,1-.9.1Z" transform="translate(-4.027 -6.548)" fill="#473568"/>
        <path id="Path_1007111" data-name="Path 1007111" d="M51.692,31.248a2.921,2.921,0,0,1-.867-.147L42.079,28.31a.867.867,0,0,1,.52-1.647l8.72,2.791a1.2,1.2,0,1,0,.7-2.288l-18.55-5.946a10.4,10.4,0,0,0-6.241,0l-6.415,2.046a.867.867,0,1,1-.52-1.647L26.7,19.572a11.867,11.867,0,0,1,7.281,0l18.585,5.946a2.939,2.939,0,0,1-.867,5.73Z" transform="translate(-6.103 -5.998)" fill="#473568"/>
        <path id="Path_1007112" data-name="Path 1007112" d="M31.2,18.736a.867.867,0,0,1-.867-.867,7.637,7.637,0,0,1,3.034-5.955A3.467,3.467,0,1,0,27.734,9.2.867.867,0,0,1,26,9.2,5.2,5.2,0,0,1,31.2,4a5.27,5.27,0,0,1,5.2,5.2,5.2,5.2,0,0,1-1.959,4.065,5.938,5.938,0,0,0-2.375,4.6A.867.867,0,0,1,31.2,18.736Z" transform="translate(-6.953 -4)" fill="#473568"/>
        <path id="Path_1007113" data-name="Path 1007113" d="M45.54,56.538H12.6a2.6,2.6,0,0,1-2.6-2.6V49.6a.867.867,0,1,1,1.734,0v4.334a.867.867,0,0,0,.867.867H45.54a.867.867,0,0,0,.867-.867V36.6a.867.867,0,0,0-.867-.867H12.6a.867.867,0,0,0-.867.867v9.535a.867.867,0,1,1-1.734,0V36.6A2.6,2.6,0,0,1,12.6,34H45.54a2.6,2.6,0,0,1,2.6,2.6V53.937A2.6,2.6,0,0,1,45.54,56.538Z" transform="translate(-4.822 -7.995)" fill="#473568"/>
        <path id="Path_1007114" data-name="Path 1007114" d="M40.872,53.6h-2.6a.867.867,0,0,1,0-1.734h1.82a4.334,4.334,0,0,1,3.381-3.381V43.114a4.334,4.334,0,0,1-3.381-3.381H19.114a4.334,4.334,0,0,1-3.381,3.381v5.374a4.334,4.334,0,0,1,3.381,3.381H34.8a.867.867,0,1,1,0,1.734H18.334a.867.867,0,0,1-.867-.867,2.6,2.6,0,0,0-2.6-2.6A.867.867,0,0,1,14,49.269V42.334a.867.867,0,0,1,.867-.867,2.6,2.6,0,0,0,2.6-2.6A.867.867,0,0,1,18.334,38H40.872a.867.867,0,0,1,.867.867,2.6,2.6,0,0,0,2.6,2.6.867.867,0,0,1,.867.867v6.935a.867.867,0,0,1-.867.867,2.6,2.6,0,0,0-2.6,2.6A.867.867,0,0,1,40.872,53.6Z" transform="translate(-5.355 -8.528)" fill="#473568"/>
      </g>
      <path id="Path_1007115" data-name="Path 1007115" d="M20.867,36.068A.867.867,0,0,1,20,35.2V30.867a.867.867,0,1,1,1.734,0V35.2A.867.867,0,0,1,20.867,36.068Z" transform="translate(-2.127 -3.462)" fill="#fff27d"/>
      <path id="Path_1007116" data-name="Path 1007116" d="M42.867,36.068A.867.867,0,0,1,42,35.2V30.867a.867.867,0,0,1,1.734,0V35.2A.867.867,0,0,1,42.867,36.068Z" transform="translate(-5.057 -3.462)" fill="#fff27d"/>
      <path id="Path_1007117" data-name="Path 1007117" d="M31.068,52.136A6.068,6.068,0,0,1,25,46.068a6.285,6.285,0,0,1,.121-1.222.884.884,0,1,1,1.734.347,4.169,4.169,0,0,0-.087.867,4.334,4.334,0,1,0,1.569-3.337.868.868,0,0,1-1.11-1.335,6.068,6.068,0,1,1,3.84,10.749Z" transform="translate(-2.793 -4.794)" fill="#473568"/>
    </g>
  </g>
</svg>
