<svg xmlns="http://www.w3.org/2000/svg" width="70" height="70" viewBox="0 0 70 70">
  <g id="img22" transform="translate(-765.711 -8731)">
    <rect id="Rectangle_455423" data-name="Rectangle 455423" width="70" height="70" rx="10" transform="translate(765.711 8731)" fill="#cfde90"/>
    <g id="Group_1181142" data-name="Group 1181142" transform="translate(777.711 8735.258)">
      <g id="Group_1181140" data-name="Group 1181140" transform="translate(0.676 14.047)">
        <g id="Group_1181139" data-name="Group 1181139" transform="translate(0 0)">
          <g id="Group_1181138" data-name="Group 1181138">
            <g id="Group_1181136" data-name="Group 1181136" transform="translate(1.77)">
              <g id="Group_1181129" data-name="Group 1181129" transform="translate(4.648)">
                <path id="Path_1009893" data-name="Path 1009893" d="M83.187,71.647h-4.45v-2.56A1.467,1.467,0,0,1,80.2,67.621H81.72a1.467,1.467,0,0,1,1.467,1.467v2.56Z" transform="translate(-78.737 -67.621)" fill="#a8d3d8"/>
              </g>
              <g id="Group_1181130" data-name="Group 1181130" transform="translate(18.394)">
                <path id="Path_1009894" data-name="Path 1009894" d="M235.753,71.647H231.3v-2.56a1.467,1.467,0,0,1,1.467-1.467h1.517a1.467,1.467,0,0,1,1.467,1.467v2.56Z" transform="translate(-231.303 -67.621)" fill="#a8d3d8"/>
              </g>
              <g id="Group_1181131" data-name="Group 1181131" transform="translate(32.141)">
                <path id="Path_1009895" data-name="Path 1009895" d="M388.318,71.647h-4.45v-2.56a1.467,1.467,0,0,1,1.467-1.467h1.517a1.467,1.467,0,0,1,1.467,1.467v2.56Z" transform="translate(-383.868 -67.621)" fill="#a8d3d8"/>
              </g>
              <g id="Group_1181135" data-name="Group 1181135" transform="translate(0 2.69)">
                <g id="Group_1181132" data-name="Group 1181132">
                  <path id="Path_1009896" data-name="Path 1009896" d="M38.94,133.37H29.1a1.956,1.956,0,0,1-1.956-1.956V99.442A1.956,1.956,0,0,1,29.1,97.486H38.94A1.956,1.956,0,0,1,40.9,99.442v31.973A1.956,1.956,0,0,1,38.94,133.37Z" transform="translate(-27.149 -97.486)" fill="#fd4755"/>
                  <path id="Path_1009897" data-name="Path 1009897" d="M38.94,97.482H35.029a1.956,1.956,0,0,1,1.956,1.956V115.77H27.149V121.7h8.857a.978.978,0,0,1,.978.978v8.729a1.955,1.955,0,0,1-1.956,1.956H38.94a1.956,1.956,0,0,0,1.956-1.956V99.438a1.956,1.956,0,0,0-1.955-1.956Z" transform="translate(-27.149 -97.482)" fill="#fb2b3a"/>
                </g>
                <g id="Group_1181133" data-name="Group 1181133" transform="translate(13.746)">
                  <path id="Path_1009898" data-name="Path 1009898" d="M191.506,133.37h-9.835a1.956,1.956,0,0,1-1.956-1.956V99.442a1.956,1.956,0,0,1,1.956-1.956h9.835a1.956,1.956,0,0,1,1.956,1.956v31.973A1.956,1.956,0,0,1,191.506,133.37Z" transform="translate(-179.715 -97.486)" fill="#fd4755"/>
                  <path id="Path_1009899" data-name="Path 1009899" d="M191.506,97.482h-3.911a1.956,1.956,0,0,1,1.956,1.956V115.77h-9.835V121.7h8.857a.978.978,0,0,1,.978.978v8.729a1.955,1.955,0,0,1-1.956,1.956h3.911a1.956,1.956,0,0,0,1.956-1.956V99.438A1.955,1.955,0,0,0,191.506,97.482Z" transform="translate(-179.715 -97.482)" fill="#fb2b3a"/>
                </g>
                <g id="Group_1181134" data-name="Group 1181134" transform="translate(27.493)">
                  <path id="Path_1009900" data-name="Path 1009900" d="M344.072,133.37h-9.835a1.956,1.956,0,0,1-1.956-1.956V99.442a1.956,1.956,0,0,1,1.956-1.956h9.835a1.956,1.956,0,0,1,1.956,1.956v31.973A1.956,1.956,0,0,1,344.072,133.37Z" transform="translate(-332.281 -97.486)" fill="#fd4755"/>
                  <path id="Path_1009901" data-name="Path 1009901" d="M344.072,97.482h-3.911a1.956,1.956,0,0,1,1.956,1.956V115.77h-9.835V121.7h8.857a.978.978,0,0,1,.978.978v8.729a1.955,1.955,0,0,1-1.956,1.956h3.911a1.955,1.955,0,0,0,1.956-1.956V99.438A1.956,1.956,0,0,0,344.072,97.482Z" transform="translate(-332.281 -97.482)" fill="#fb2b3a"/>
                </g>
              </g>
            </g>
            <g id="Group_1181137" data-name="Group 1181137" transform="translate(0 16.43)">
              <path id="Path_1009902" data-name="Path 1009902" d="M51.3,257.35H8.478a.978.978,0,0,1-.978-.978v-5.418a.978.978,0,0,1,.978-.978H51.3a.978.978,0,0,1,.978.978v5.418A.978.978,0,0,1,51.3,257.35Z" transform="translate(-7.5 -249.976)" fill="#6fd7a3"/>
              <path id="Path_1009903" data-name="Path 1009903" d="M455.129,250.953v5.419a.978.978,0,0,1-.978.978H450.24a.978.978,0,0,0,.978-.978v-5.419a.978.978,0,0,0-.978-.978h3.911A.978.978,0,0,1,455.129,250.953Z" transform="translate(-410.349 -249.975)" fill="#3ec3a4"/>
            </g>
          </g>
          <path id="Path_1009904" data-name="Path 1009904" d="M169.107,219.587H152.178a.978.978,0,0,1-.978-.978v-9.158a.978.978,0,0,1,.978-.978h16.929a.978.978,0,0,1,.978.978v9.158A.978.978,0,0,1,169.107,219.587Z" transform="translate(-138.253 -195.782)" fill="#3e5959"/>
          <path id="Path_1009905" data-name="Path 1009905" d="M311.426,209.455v9.158a.978.978,0,0,1-.978.978h-3.911a.978.978,0,0,0,.978-.978v-9.158a.978.978,0,0,0-.978-.978h3.911A.978.978,0,0,1,311.426,209.455Z" transform="translate(-279.594 -195.786)" fill="#384949"/>
        </g>
      </g>
      <g id="Group_1181141" data-name="Group 1181141" transform="translate(0 8.742)">
        <path id="Path_1009906" data-name="Path 1009906" d="M44.478,29.8h-.117V18.693a2.634,2.634,0,0,0-2.631-2.631H39.713v-.548a2.145,2.145,0,0,0-2.142-2.142h-.083V12.346a3.608,3.608,0,0,0-3.6-3.6h-7.89a3.6,3.6,0,0,0-2.928,1.507,3.6,3.6,0,0,0-2.928-1.507h-7.89a3.608,3.608,0,0,0-3.6,3.6v1.026H8.561a2.145,2.145,0,0,0-2.142,2.142v.548H4.4A2.634,2.634,0,0,0,1.77,18.693V29.8H1.654A1.655,1.655,0,0,0,0,31.455v5.418a1.655,1.655,0,0,0,1.654,1.654H1.77V50.666A2.634,2.634,0,0,0,4.4,53.3h9.835a2.625,2.625,0,0,0,1.956-.873,2.625,2.625,0,0,0,1.956.873h9.835a2.625,2.625,0,0,0,1.956-.873,2.625,2.625,0,0,0,1.956.873h9.835a2.634,2.634,0,0,0,2.631-2.631V46.288a.676.676,0,1,0-1.352,0v4.379a1.281,1.281,0,0,1-1.28,1.28H31.894a1.281,1.281,0,0,1-1.28-1.279h0V38.527H43.009v4.818a.676.676,0,1,0,1.352,0V38.527h.117a1.655,1.655,0,0,0,1.654-1.654V31.455A1.655,1.655,0,0,0,44.478,29.8ZM43.009,18.693V29.8H33.184V27.716a1.655,1.655,0,0,0-1.654-1.654h-.916V18.693h0a1.281,1.281,0,0,1,1.28-1.279h9.835a1.281,1.281,0,0,1,1.28,1.28ZM14.6,37.175a.3.3,0,0,1-.3-.3V27.716a.3.3,0,0,1,.3-.3H31.53a.3.3,0,0,1,.3.3v9.158a.3.3,0,0,1-.3.3H14.6Zm2.272-18.481h0a1.281,1.281,0,0,1,1.28-1.279h9.835a1.281,1.281,0,0,1,1.28,1.279h0v7.368H16.868Zm6.956-3.972a.792.792,0,0,1,.791.791v.548h-3.1v-.548a.792.792,0,0,1,.791-.791Zm14.537.791v.548h-3.1v-.548a.792.792,0,0,1,.791-.791H37.57A.792.792,0,0,1,38.361,15.514Zm-12.367-5.42h7.89a2.255,2.255,0,0,1,2.252,2.252v1.026h-.083a2.145,2.145,0,0,0-2.142,2.142v.548H31.894a2.625,2.625,0,0,0-1.956.873,2.625,2.625,0,0,0-1.956-.873H25.966v-.548a2.145,2.145,0,0,0-2.142-2.142h-.082V12.346a2.255,2.255,0,0,1,2.252-2.252ZM10,12.346a2.255,2.255,0,0,1,2.252-2.252h7.89a2.255,2.255,0,0,1,2.252,2.252v1.026h-.083a2.145,2.145,0,0,0-2.142,2.142v.548H18.148a2.625,2.625,0,0,0-1.956.873,2.625,2.625,0,0,0-1.956-.873H12.22v-.548a2.145,2.145,0,0,0-2.142-2.142H10ZM7.77,15.514a.792.792,0,0,1,.791-.791h1.517a.792.792,0,0,1,.791.791v.548H7.77v-.548ZM1.351,36.873V31.455a.3.3,0,0,1,.3-.3H5.519a.676.676,0,1,0,0-1.352h-2.4V18.693a1.281,1.281,0,0,1,1.28-1.28h9.835a1.281,1.281,0,0,1,1.28,1.279h0v7.369H14.6a1.655,1.655,0,0,0-1.654,1.654V29.8H8.462a.676.676,0,1,0,0,1.352h4.485v5.721a1.655,1.655,0,0,0,.029.3H1.654a.3.3,0,0,1-.3-.3ZM14.237,51.946H4.4a1.281,1.281,0,0,1-1.28-1.28V38.527H15.517V50.666h0A1.281,1.281,0,0,1,14.237,51.946Zm15.026-1.281h0a1.281,1.281,0,0,1-1.28,1.279H18.148a1.281,1.281,0,0,1-1.28-1.279h0V38.527H29.263ZM44.78,36.873a.3.3,0,0,1-.3.3H33.155a1.655,1.655,0,0,0,.029-.3V31.153H44.478a.3.3,0,0,1,.3.3v5.418Z" transform="translate(0 -8.742)"/>
        <path id="Path_1009907" data-name="Path 1009907" d="M187.6,234.384a.676.676,0,0,0-.676.676v1.387a.676.676,0,0,0,1.352,0V235.06A.676.676,0,0,0,187.6,234.384Z" transform="translate(-170.085 -214.054)"/>
        <path id="Path_1009908" data-name="Path 1009908" d="M187.6,275.514a.676.676,0,0,0-.676.676v1.387a.676.676,0,0,0,1.352,0V276.19A.676.676,0,0,0,187.6,275.514Z" transform="translate(-170.085 -251.478)"/>
        <path id="Path_1009909" data-name="Path 1009909" d="M246.331,234.384a.676.676,0,0,0-.676.676v1.387a.676.676,0,1,0,1.352,0V235.06A.676.676,0,0,0,246.331,234.384Z" transform="translate(-223.521 -214.054)"/>
        <path id="Path_1009910" data-name="Path 1009910" d="M246.331,275.514a.676.676,0,0,0-.676.676v1.387a.676.676,0,1,0,1.352,0V276.19A.676.676,0,0,0,246.331,275.514Z" transform="translate(-223.521 -251.478)"/>
        <path id="Path_1009911" data-name="Path 1009911" d="M280.991,234.384h-2.005a1.125,1.125,0,0,0-1.124,1.124v.939a.676.676,0,1,0,1.352,0v-.712h1.55v.712a.676.676,0,1,0,1.352,0v-.939A1.125,1.125,0,0,0,280.991,234.384Z" transform="translate(-252.827 -214.054)"/>
        <path id="Path_1009912" data-name="Path 1009912" d="M281.44,275.514a.676.676,0,0,0-.676.676v.712h-1.55v-.712a.676.676,0,0,0-1.352,0v.939a1.125,1.125,0,0,0,1.124,1.124h2.005a1.126,1.126,0,0,0,1.124-1.124v-.939A.676.676,0,0,0,281.44,275.514Z" transform="translate(-252.827 -251.478)"/>
        <path id="Path_1009913" data-name="Path 1009913" d="M218.229,290.911a.676.676,0,1,0,0,1.351h0a.676.676,0,1,0,0-1.351Z" transform="translate(-197.951 -265.487)"/>
      </g>
    </g>
  </g>
</svg>
