<svg xmlns="http://www.w3.org/2000/svg" width="80" height="80" viewBox="0 0 80 80">
  <g id="img6" transform="translate(-176.148 -5520.66)">
    <rect id="Rectangle_402006" data-name="Rectangle 402006" width="80" height="80" rx="5" transform="translate(176.148 5520.66)" fill="#fffbf6"/>
    <g id="Group_1179510" data-name="Group 1179510" transform="translate(184.15 5516.998)">
      <path id="Path_1006301" data-name="Path 1006301" d="M70.8,70.258a4.034,4.034,0,0,0-4.03-1.019A5.862,5.862,0,0,0,60.948,67.6a7.376,7.376,0,0,0-6.742-4.422,7.277,7.277,0,0,0-4.518,1.552,2.318,2.318,0,0,1-2.167.375,2.43,2.43,0,0,1-1.593-1.626,15.348,15.348,0,0,1-.526-3.756c.5-.076.966-.162,1.4-.259,1.49-.332,3.472-.941,3.472-2.389,0-.8-.627-1.448-1.864-1.922a14.712,14.712,0,0,0-2.833-.7q.091-1.015.221-1.948c1.173-.121,2.261-.279,3.224-.473,3.014-.606,4.418-1.463,4.418-2.7,0-1.368-1.808-1.977-2.4-2.176a21.875,21.875,0,0,0-3.8-.82,22.632,22.632,0,0,1,1.4-3.248,10.989,10.989,0,0,0,9,1.271,7.632,7.632,0,0,0,12.769-2.685.937.937,0,1,0-1.769-.622,5.756,5.756,0,0,1-9.96,1.643.936.936,0,0,0-1.054-.3,9.109,9.109,0,0,1-9.1-1.729.937.937,0,0,0-1.169-.056,5.754,5.754,0,0,1-6.808-.048.938.938,0,0,0-1.121,0,5.754,5.754,0,0,1-6.808.048.937.937,0,0,0-1.169.056,9.108,9.108,0,0,1-9.1,1.729.937.937,0,0,0-1.055.3,5.758,5.758,0,1,1-5.642-9.2.937.937,0,0,0,.75-.8,9.106,9.106,0,0,1,11.116-7.736,6.284,6.284,0,0,1,4.424,4.207.937.937,0,1,0,1.813-.479,7.9,7.9,0,0,0-4.86-5.239A11.734,11.734,0,0,1,46.618,17.59a.938.938,0,1,0,1.061-1.546,13.611,13.611,0,0,0-20.6,6.921,10.983,10.983,0,0,0-12.435,8.85,7.633,7.633,0,1,0,7.693,12.551,10.988,10.988,0,0,0,9-1.271,22.636,22.636,0,0,1,1.4,3.248,21.788,21.788,0,0,0-3.825.827c-.589.2-2.38.806-2.38,2.169,0,1.234,1.4,2.091,4.418,2.7.962.193,2.05.352,3.224.473q.129.932.221,1.944c-1.681.256-4.7.893-4.7,2.624,0,1.447,1.981,2.056,3.472,2.389.435.1.905.183,1.4.259a15.344,15.344,0,0,1-.526,3.756,2.431,2.431,0,0,1-1.593,1.626,2.318,2.318,0,0,1-2.167-.375,7.324,7.324,0,0,0-3.681-1.5.937.937,0,0,0-.211,1.863,5.449,5.449,0,0,1,2.739,1.119,4.2,4.2,0,0,0,2.586.887,4.31,4.31,0,0,0,4.125-3.087,16.955,16.955,0,0,0,.6-4.063c1.116.1,2.313.152,3.545.152s2.429-.052,3.545-.152a16.958,16.958,0,0,0,.6,4.063,4.3,4.3,0,0,0,2.818,2.881,4.222,4.222,0,0,0,3.894-.681,5.418,5.418,0,0,1,3.364-1.155,5.49,5.49,0,0,1,5.275,4.008.938.938,0,0,0,1.309.594,3.94,3.94,0,0,1,1.719-.39,3.99,3.99,0,0,1,3.222,1.647.938.938,0,0,0,1.195.28,2.176,2.176,0,0,1,3.184,2.059.937.937,0,0,0,.881.991l.056,0a.938.938,0,0,0,.935-.883,4.057,4.057,0,0,0-1.177-3.1ZM48.145,57.08a10.55,10.55,0,0,1-2.746.746q.015-.764.05-1.491A9.851,9.851,0,0,1,48.145,57.08Zm-4.625.987c-.778.073-1.643.125-2.592.146v-5.43c1.016-.015,2.01-.054,2.964-.115A48.382,48.382,0,0,0,43.519,58.067Zm7.866-8.724a15.831,15.831,0,0,1-5.27,1.248c.167-.87.356-1.68.561-2.432A13.625,13.625,0,0,1,51.385,49.343Zm-11.4-6.892a7.646,7.646,0,0,0,6.523.7,29.882,29.882,0,0,0-2.333,7.619c-.989.072-2.074.12-3.252.137V46.781a.937.937,0,1,0-1.875,0v4.128c-1.178-.017-2.262-.065-3.25-.137a29.9,29.9,0,0,0-2.338-7.62,7.647,7.647,0,0,0,6.525-.7Zm-11.4,6.892A13.62,13.62,0,0,1,33.3,48.158c.205.752.395,1.562.561,2.432a15.836,15.836,0,0,1-5.27-1.247Zm10.458,3.44v5.43c-.949-.021-1.814-.073-2.592-.146a47.819,47.819,0,0,0-.37-5.4C37.044,52.73,38.037,52.769,39.052,52.783Zm-7.217,4.3a9.86,9.86,0,0,1,2.7-.745q.036.727.05,1.491A10.555,10.555,0,0,1,31.835,57.08Z" transform="translate(-7.992)" fill="#643d2b"/>
      <path id="Path_1006302" data-name="Path 1006302" d="M13.578,419.206a7.387,7.387,0,0,0-2.539,3.1,5.862,5.862,0,0,0-5.827,1.636,4.052,4.052,0,0,0-5.207,4.123.938.938,0,0,0,.935.883l.055,0a.938.938,0,0,0,.881-.991A2.176,2.176,0,0,1,5.061,425.9a.937.937,0,0,0,1.195-.28,3.991,3.991,0,0,1,3.222-1.647,3.939,3.939,0,0,1,1.719.39.938.938,0,0,0,1.309-.594,5.5,5.5,0,0,1,2.146-3.024.937.937,0,1,0-1.073-1.537Z" transform="translate(0 -354.704)" fill="#643d2b"/>
      <path id="Path_1006303" data-name="Path 1006303" d="M333.47,62.147a.937.937,0,0,0,1.12.675,9.106,9.106,0,0,1,11.117,7.736.938.938,0,0,0,.75.8,5.788,5.788,0,0,1,4.292,3.66.938.938,0,0,0,1.759-.648,7.683,7.683,0,0,0-5.04-4.694,10.982,10.982,0,0,0-12.435-8.851,13.541,13.541,0,0,0-1.764-3.494.937.937,0,0,0-1.535,1.076A11.647,11.647,0,0,1,333.47,62.147Z" transform="translate(-290.121 -37.864)" fill="#643d2b"/>
      <path id="Path_1006304" data-name="Path 1006304" d="M278.592,155.51a.937.937,0,0,0-1.736-.707,5.586,5.586,0,0,1-10.348,0,.937.937,0,0,0-1.736.707,7.471,7.471,0,0,0,9.956,4,5.131,5.131,0,0,0,7.544-.483.937.937,0,1,0-1.458-1.179,3.26,3.26,0,0,1-4.406.625A7.463,7.463,0,0,0,278.592,155.51Z" transform="translate(-231.616 -122.987)" fill="#643d2b"/>
      <path id="Path_1006305" data-name="Path 1006305" d="M129.594,444.037a3.081,3.081,0,0,0-2.957,2.242.937.937,0,0,0,1.805.506,1.2,1.2,0,0,1,2.3,0,.937.937,0,1,0,1.805-.506A3.081,3.081,0,0,0,129.594,444.037Z" transform="translate(-110.778 -376.58)" fill="#643d2b"/>
      <path id="Path_1006306" data-name="Path 1006306" d="M340.514,444.037a3.081,3.081,0,0,0-2.957,2.242.937.937,0,1,0,1.805.506,1.2,1.2,0,0,1,2.3,0,.937.937,0,1,0,1.805-.506A3.081,3.081,0,0,0,340.514,444.037Z" transform="translate(-295.334 -376.58)" fill="#643d2b"/>
      <path id="Path_1006307" data-name="Path 1006307" d="M229.394,403.253a4.566,4.566,0,0,1-2.74-3.611V397.81a.937.937,0,0,0-1.875,0v1.824a4.568,4.568,0,0,1-2.74,3.618.937.937,0,1,0,.578,1.784,5.7,5.7,0,0,0,3.1-2.63,5.7,5.7,0,0,0,3.1,2.63.937.937,0,0,0,.578-1.784Z" transform="translate(-193.719 -335.311)" fill="#643d2b"/>
      <path id="Path_1006308" data-name="Path 1006308" d="M128.068,183.162a2.313,2.313,0,0,1-3.6,0,.937.937,0,1,0-1.458,1.179,4.188,4.188,0,0,0,6.518,0,.937.937,0,0,0-1.458-1.179Z" transform="translate(-107.451 -148.009)" fill="#643d2b"/>
    </g>
  </g>
</svg>
