<svg xmlns="http://www.w3.org/2000/svg" width="84" height="84" viewBox="0 0 84 84">
  <g id="img8" transform="translate(-221.711 -3385)">
    <rect id="Rectangle_455401" data-name="Rectangle 455401" width="84" height="84" rx="10" transform="translate(221.711 3385)" fill="#fa996c"/>
    <g id="Group_1179531" data-name="Group 1179531" transform="translate(232.711 3396)">
      <g id="Group_1179529" data-name="Group 1179529" transform="translate(1.013 1.013)">
        <g id="Group_1179511" data-name="Group 1179511" transform="translate(17.741 33.248)">
          <path id="Path_1006309" data-name="Path 1006309" d="M174.947,298.117H148.12a8.6,8.6,0,0,0,6.078-14.672l-5.586-5.586a2.026,2.026,0,0,0,.909-3.836,17.578,17.578,0,0,1,1.56-2.449l3.895-.557a2.028,2.028,0,0,0,.985-.427l2.78,1.191v4.052a2.026,2.026,0,0,0,4.052,0v-4.052l2.78-1.191a2.028,2.028,0,0,0,.985.427l9.42,1.346a8.1,8.1,0,0,1,5.006,2.749l8.845,10.319a5.5,5.5,0,0,1-2.535,8.828Z" transform="translate(-148.12 -270.59)" fill="#969faa"/>
        </g>
        <g id="Group_1179512" data-name="Group 1179512" transform="translate(0 36.99)">
          <path id="Path_1006310" data-name="Path 1006310" d="M18.793,300.15a2.022,2.022,0,0,0-.663,1.5V305.7a2.024,2.024,0,0,0,.593,1.433l-2.127,2.127a8.6,8.6,0,0,0-1.219,10.62h-1.55a5.826,5.826,0,0,1-4.281-9.777L18.2,300.73a8.248,8.248,0,0,1,.593-.58Z" transform="translate(-8 -300.15)" fill="#969faa"/>
        </g>
        <g id="Group_1179513" data-name="Group 1179513" transform="translate(14.263)">
          <path id="Path_1006311" data-name="Path 1006311" d="M152.9,24.124l-2.783-2.783a4.051,4.051,0,0,0-2.864-1.186H126.3a4.051,4.051,0,0,0-2.864,1.186l-2.783,2.783a16.088,16.088,0,0,1,8.434-12.563l5.784-3.086a4.02,4.02,0,0,1,.924-.356,4.062,4.062,0,0,1,2.889.356l5.784,3.086A16.082,16.082,0,0,1,152.9,24.124Z" transform="translate(-120.65 -8)" fill="#969faa"/>
        </g>
        <g id="Group_1179514" data-name="Group 1179514" transform="translate(34.439 12.155)">
          <path id="Path_1006312" data-name="Path 1006312" d="M292.073,107.969a16.093,16.093,0,0,1-9.667,16.416l-1.651.708a2.029,2.029,0,0,1-.755-1.579v-1.627a6.081,6.081,0,0,0,4.052-5.732v-2.026h1.013a3.039,3.039,0,0,0,0-6.077h-1.013V104h2.374a4.051,4.051,0,0,1,2.864,1.186Z" transform="translate(-280 -104)" fill="#aab2bd"/>
        </g>
        <g id="Group_1179515" data-name="Group 1179515" transform="translate(14.181 12.155)">
          <path id="Path_1006313" data-name="Path 1006313" d="M132.155,121.887v1.627a2.029,2.029,0,0,1-.755,1.579l-1.651-.708a16.093,16.093,0,0,1-9.667-16.416l2.783-2.783A4.051,4.051,0,0,1,125.729,104H128.1v4.052H127.09a3.039,3.039,0,0,0,0,6.077H128.1v2.026A6.081,6.081,0,0,0,132.155,121.887Z" transform="translate(-120 -104)" fill="#aab2bd"/>
        </g>
        <g id="Group_1179516" data-name="Group 1179516" transform="translate(32.892 12.155)">
          <path id="Path_1006314" data-name="Path 1006314" d="M269.327,104h4.052a4.052,4.052,0,0,1-4.052,4.052L267.78,106.5A6.4,6.4,0,0,0,269.327,104Z" transform="translate(-267.78 -104)" fill="#b27946"/>
        </g>
        <g id="Group_1179517" data-name="Group 1179517" transform="translate(26.336 12.155)">
          <path id="Path_1006315" data-name="Path 1006315" d="M216,104h8.1a6.4,6.4,0,0,1-4.052,4.052A6.4,6.4,0,0,1,216,104Z" transform="translate(-216 -104)" fill="#b27946"/>
        </g>
        <g id="Group_1179518" data-name="Group 1179518" transform="translate(22.284 12.155)">
          <path id="Path_1006316" data-name="Path 1006316" d="M188.052,104a6.4,6.4,0,0,0,1.547,2.5l-1.547,1.547A4.052,4.052,0,0,1,184,104Z" transform="translate(-184 -104)" fill="#b27946"/>
        </g>
        <g id="Group_1179519" data-name="Group 1179519" transform="translate(28.362 34.439)">
          <path id="Path_1006317" data-name="Path 1006317" d="M236.052,280v4.052a2.026,2.026,0,1,1-4.052,0V280Z" transform="translate(-232 -280)" fill="#ccd1d9"/>
        </g>
        <g id="Group_1179520" data-name="Group 1179520" transform="translate(25.581 30.042)">
          <path id="Path_1006318" data-name="Path 1006318" d="M219.653,248.476l-2.78,1.191H212.82l-2.78-1.191a2.029,2.029,0,0,0,.755-1.579V245.27a6.061,6.061,0,0,0,2.026.346h4.052a6.061,6.061,0,0,0,2.026-.346V246.9A2.029,2.029,0,0,0,219.653,248.476Z" transform="translate(-210.04 -245.27)" fill="#f0d0b4"/>
        </g>
        <g id="Group_1179521" data-name="Group 1179521" transform="translate(38.491 16.207)">
          <path id="Path_1006319" data-name="Path 1006319" d="M313.013,136a3.039,3.039,0,0,1,0,6.078H312V136Z" transform="translate(-312 -136)" fill="#f0d0b4"/>
        </g>
        <g id="Group_1179522" data-name="Group 1179522" transform="translate(22.284 12.155)">
          <path id="Path_1006320" data-name="Path 1006320" d="M200.207,108.052V112.1H184V104a4.052,4.052,0,0,0,4.052,4.052L189.6,106.5a6.4,6.4,0,0,0,2.5,1.547,6.4,6.4,0,0,0,2.5-1.547l1.547,1.547A4.052,4.052,0,0,0,200.207,104Z" transform="translate(-184 -104)" fill="#f0d0b4"/>
        </g>
        <g id="Group_1179523" data-name="Group 1179523" transform="translate(18.233 16.207)">
          <path id="Path_1006321" data-name="Path 1006321" d="M156.052,140.052v2.026h-1.013a3.039,3.039,0,1,1,0-6.078h1.013Z" transform="translate(-152 -136)" fill="#f0d0b4"/>
        </g>
        <g id="Group_1179524" data-name="Group 1179524" transform="translate(16.207 36.465)">
          <path id="Path_1006322" data-name="Path 1006322" d="M138.935,296.215a2.026,2.026,0,1,1-.909-.215A2.025,2.025,0,0,1,138.935,296.215Z" transform="translate(-136 -296)" fill="#f0d0b4"/>
        </g>
        <g id="Group_1179525" data-name="Group 1179525" transform="translate(10.129 36.465)">
          <path id="Path_1006323" data-name="Path 1006323" d="M88.593,303.511A2.024,2.024,0,0,1,88,302.078v-4.052a2.022,2.022,0,0,1,.663-1.5l.073-.063A2.02,2.02,0,0,1,90.026,296h2.026a2.025,2.025,0,0,1,2.026,2.026v4.052a2.025,2.025,0,0,1-2.026,2.026H90.026A2.024,2.024,0,0,1,88.593,303.511Z" transform="translate(-88 -296)" fill="#f0d0b4"/>
        </g>
        <g id="Group_1179526" data-name="Group 1179526" transform="translate(10.129 30.388)">
          <path id="Path_1006324" data-name="Path 1006324" d="M98.572,251.844a17.576,17.576,0,0,0-1.56,2.449,2.026,2.026,0,0,0-2.935,1.811,2.025,2.025,0,0,0-2.026-2.026H91.027c-.137-.251-.279-.5-.428-.742-.29-.48-.605-.943-.939-1.393A17.664,17.664,0,0,0,88,250.026l.2-.4a2.944,2.944,0,0,1,4.715-.765l.151.151A3.459,3.459,0,0,1,95.51,248h1.367a3.669,3.669,0,0,1,1.927.547c.037.023.072.046.108.07a3.662,3.662,0,0,1,1.243,1.409A17.4,17.4,0,0,0,98.572,251.844Z" transform="translate(-88 -248)" fill="#fcd770"/>
        </g>
        <g id="Group_1179527" data-name="Group 1179527" transform="translate(6.078 38.491)">
          <path id="Path_1006325" data-name="Path 1006325" d="M75.6,322.4a8.594,8.594,0,0,1-7.94,11.884H64.595a8.6,8.6,0,0,1-6.078-14.672l2.127-2.127a2.024,2.024,0,0,0,1.433.593H64.1a2.025,2.025,0,0,0,2.026-2.026V312a2.025,2.025,0,0,0,2.026,2.026l5.586,5.586A8.573,8.573,0,0,1,75.6,322.4Z" transform="translate(-56 -312)" fill="#ffeaa7"/>
        </g>
        <g id="Group_1179528" data-name="Group 1179528" transform="translate(22.284 20.258)">
          <path id="Path_1006326" data-name="Path 1006326" d="M200.207,170.026v2.026a6.071,6.071,0,0,1-6.078,6.077h-4.052A6.071,6.071,0,0,1,184,172.052V168h16.207Z" transform="translate(-184 -168)" fill="#e6e9ed"/>
        </g>
      </g>
      <g id="Group_1179530" data-name="Group 1179530" transform="translate(0 0)">
        <path id="Path_1006327" data-name="Path 1006327" d="M115.039,384H112v3.039a3.042,3.042,0,0,0,3.039,3.039,1.014,1.014,0,0,1,1.013,1.013V392.1h-1.013a1.014,1.014,0,0,1-1.013-1.013v-1.013H112v1.013a3.042,3.042,0,0,0,3.039,3.039h3.039V391.09a3.042,3.042,0,0,0-3.039-3.039,1.014,1.014,0,0,1-1.013-1.013v-1.013h1.013a1.014,1.014,0,0,1,1.013,1.013v1.013h2.026v-1.013A3.042,3.042,0,0,0,115.039,384Z" transform="translate(-97.819 -335.38)"/>
        <path id="Path_1006328" data-name="Path 1006328" d="M61.233,48.442,52.388,38.123a9.112,9.112,0,0,0-5.632-3.092l-7.413-1.059a17.1,17.1,0,0,0,.225-30.291L33.784.6a5.064,5.064,0,0,0-4.767,0L23.233,3.681a17.1,17.1,0,0,0-4.5,26.707h-.083a4.441,4.441,0,0,0-2.417.708,3.959,3.959,0,0,0-5.8,1.479L9.91,33.626l.516.516A16.643,16.643,0,0,1,12.3,36.375,9.072,9.072,0,0,0,10.469,37.9L1.814,47.272A6.838,6.838,0,0,0,6.839,58.749H7.854A9.6,9.6,0,0,0,15.685,62.8H45.736l12.5-3.9a6.513,6.513,0,0,0,3-10.454ZM37.459,32.622l-.934.4a1,1,0,0,1-.06-.34v-.954a7.1,7.1,0,0,0,4.052-6.4V24.31a4.052,4.052,0,1,0,0-8.1V14.181h1.36a3.02,3.02,0,0,1,2.149.89l2.521,2.521c.03.389.047.781.047,1.176A15.056,15.056,0,0,1,37.459,32.622Zm-4.241,1.817H29.582l-1.447-.62a3,3,0,0,0,.226-1.137V32.34a7.108,7.108,0,0,0,1.013.074h4.052a7.108,7.108,0,0,0,1.013-.074v.342a3,3,0,0,0,.226,1.137ZM31.4,40.517A1.014,1.014,0,0,1,30.388,39.5V36.465h2.026V39.5A1.014,1.014,0,0,1,31.4,40.517ZM28.95,17.051a7.387,7.387,0,0,0,2.13,1.13l.32.107.32-.107a7.383,7.383,0,0,0,2.13-1.13l1.182,1.182h.42a5.038,5.038,0,0,0,3.039-1.016v3.042H24.31V17.217a5.038,5.038,0,0,0,3.039,1.016h.419Zm11.567,1.182a2.026,2.026,0,0,1,0,4.052Zm-4.67-2.051-.563-.563a7.4,7.4,0,0,0,.856-1.437h2.175a3.045,3.045,0,0,1-2.468,2ZM31.4,16.14a5.429,5.429,0,0,1-2.427-1.959h4.853A5.428,5.428,0,0,1,31.4,16.14Zm-4.739-1.959a7.417,7.417,0,0,0,.856,1.437l-.563.563a3.046,3.046,0,0,1-2.468-2Zm-4.377,8.1a2.026,2.026,0,0,1,0-4.052Zm2.026,0H38.491v3.039a5.07,5.07,0,0,1-5.065,5.065H29.375a5.07,5.07,0,0,1-5.065-5.065ZM24.186,5.468,29.97,2.383a3.039,3.039,0,0,1,2.86,0l5.784,3.085A15.043,15.043,0,0,1,45.823,14l-.364-.364a5.032,5.032,0,0,0-3.581-1.483H20.924a5.032,5.032,0,0,0-3.581,1.483L16.978,14A15.043,15.043,0,0,1,24.186,5.468ZM16.254,17.592l2.521-2.521a3.02,3.02,0,0,1,2.149-.89h1.36v2.026a4.052,4.052,0,1,0,0,8.1v1.013a7.1,7.1,0,0,0,4.052,6.4v.954a1,1,0,0,1-.06.34l-.934-.4a15.056,15.056,0,0,1-9.135-13.854c0-.395.017-.787.047-1.176Zm-2.28,14.821a1.918,1.918,0,0,1,1.366.566l.867.867.716-.716a2.429,2.429,0,0,1,1.729-.716h1.367a2.636,2.636,0,0,1,1.989.9,18.638,18.638,0,0,0-2.344,3.186,3.025,3.025,0,0,0-2.445.747,3.026,3.026,0,0,0-2.026-.776H14.76a18.649,18.649,0,0,0-2.379-3.211,1.919,1.919,0,0,1,1.594-.84ZM12.155,43.555V39.5a1.011,1.011,0,0,1,.369-.781h0a1.008,1.008,0,0,1,.644-.231h2.026A1.014,1.014,0,0,1,16.207,39.5v4.052a1.014,1.014,0,0,1-1.013,1.013H13.168A1.014,1.014,0,0,1,12.155,43.555Zm8.1-4.052a1.013,1.013,0,1,1-1.013-1.013A1.014,1.014,0,0,1,20.258,39.5ZM2.026,51.911A4.8,4.8,0,0,1,3.3,48.646l6.827-7.4v2.305a3.019,3.019,0,0,0,.3,1.309L8.892,46.4a9.6,9.6,0,0,0-2.14,10.322,4.817,4.817,0,0,1-4.726-4.811Zm13.659,8.864a7.582,7.582,0,0,1-5.361-12.943L11.859,46.3a3.021,3.021,0,0,0,1.309.3h2.026a3.042,3.042,0,0,0,3.039-3.039V42.368a3.005,3.005,0,0,0,.559.14l5.323,5.323a7.582,7.582,0,0,1-5.361,12.943Zm12.676-7.582A9.545,9.545,0,0,0,25.548,46.4l-4.472-4.472a3.033,3.033,0,0,0,.389-4.5q.379-.64.813-1.244l3.475-.5a3,3,0,0,0,.924-.293l1.686.722V39.5a3.044,3.044,0,0,0,2.026,2.865V60.775H24.645A9.594,9.594,0,0,0,28.362,53.193Zm29.265,3.769L46.594,60.41V54.343l8.515-3.784-.823-1.851-7.692,3.419V40.517H44.568V60.775H32.413V42.368A3.043,3.043,0,0,0,34.439,39.5V36.12l1.685-.722a3,3,0,0,0,.923.293l9.421,1.346a7.087,7.087,0,0,1,4.381,2.4L59.695,49.76a4.487,4.487,0,0,1-2.068,7.2Z" transform="translate(0 0)"/>
      </g>
    </g>
  </g>
</svg>
