<svg xmlns="http://www.w3.org/2000/svg" width="84" height="84" viewBox="0 0 84 84">
  <g id="img2" transform="translate(-221 -861)">
    <rect id="Rectangle_455447" data-name="Rectangle 455447" width="84" height="84" rx="10" transform="translate(221 861)" fill="#cfde90"/>
    <g id="Group_1181397" data-name="Group 1181397" transform="translate(236 865.096)">
      <g id="Group_1181395" data-name="Group 1181395" transform="translate(0.791 12.981)">
        <circle id="Ellipse_13788" data-name="Ellipse 13788" cx="24.923" cy="24.923" r="24.923" transform="translate(0 0)" fill="#fe76a8"/>
        <path id="Path_1010494" data-name="Path 1010494" d="M224.069,19.689c-.785,0-1.561.038-2.328.109a24.923,24.923,0,0,1,0,49.628c.767.071,1.543.109,2.328.109a24.923,24.923,0,1,0,0-49.847Z" transform="translate(-199.145 -19.689)" fill="#fe5694"/>
        <g id="Group_1181387" data-name="Group 1181387" transform="translate(5.047 5.048)">
          <path id="Path_1010495" data-name="Path 1010495" d="M145.561,100.544a19.875,19.875,0,0,0-28.05-28.05.663.663,0,0,0-.027.966l27.111,27.111A.663.663,0,0,0,145.561,100.544Z" transform="translate(-110.757 -67.547)" fill="#eaf6ff"/>
          <path id="Path_1010496" data-name="Path 1010496" d="M58.2,156.148a19.878,19.878,0,0,0,27.277,27.277.665.665,0,0,0,.129-1.041L59.237,156.019a.665.665,0,0,0-1.041.129Z" transform="translate(-55.356 -146.514)" fill="#eaf6ff"/>
        </g>
        <path id="Path_1010497" data-name="Path 1010497" d="M163.1,201.284h-8.783a6.23,6.23,0,0,1-2.542-.542l-1.034-.462a1.787,1.787,0,0,0-.729-.156H129.859v-11.7H148.44a2.747,2.747,0,0,0,1.707-.6l2.15-1.706,9.675.4,3.845,3.847v8.191A2.722,2.722,0,0,1,163.1,201.284Z" transform="translate(-116.954 -168.567)" fill="#ffcebf"/>
        <path id="Path_1010498" data-name="Path 1010498" d="M79.734,198.427v13.232a.828.828,0,0,1-.828.828H57.371A19.933,19.933,0,0,1,56.33,197.6H78.906A.828.828,0,0,1,79.734,198.427Z" transform="translate(-50.309 -178.835)" fill="#8d9ca8"/>
        <g id="Group_1181394" data-name="Group 1181394" transform="translate(37.655 7.725)">
          <path id="Path_1010499" data-name="Path 1010499" d="M365.847,118.61h12.128a1.317,1.317,0,0,0,1.317-1.317V94.253a1.317,1.317,0,0,0-1.317-1.317H365.847a1.317,1.317,0,0,0-1.317,1.317v23.039A1.317,1.317,0,0,0,365.847,118.61Z" transform="translate(-364.53 -92.936)" fill="#0ed2b3"/>
          <path id="Path_1010500" data-name="Path 1010500" d="M473.565,92.936H471.39a1.371,1.371,0,0,1,.332.9v24.085a1.37,1.37,0,0,1-.188.693h2.031a1.317,1.317,0,0,0,1.317-1.317V94.253A1.317,1.317,0,0,0,473.565,92.936Z" transform="translate(-460.12 -92.936)" fill="#0ab69f"/>
          <ellipse id="Ellipse_13789" data-name="Ellipse 13789" cx="3.297" cy="2.597" rx="3.297" ry="2.597" transform="translate(4.084 10.24)" fill="#eaf6ff"/>
          <g id="Group_1181389" data-name="Group 1181389">
            <g id="Group_1181388" data-name="Group 1181388">
              <path id="Path_1010501" data-name="Path 1010501" d="M369.956,290.054a3.943,3.943,0,0,0-5.427-3.653v3.692a1.317,1.317,0,0,0,1.317,1.317h3.87A3.934,3.934,0,0,0,369.956,290.054Z" transform="translate(-364.529 -265.737)" fill="#eaf6ff"/>
              <path id="Path_1010502" data-name="Path 1010502" d="M453.043,94.293a3.943,3.943,0,0,0,5.427,3.653V94.253a1.317,1.317,0,0,0-1.317-1.317h-3.87A3.933,3.933,0,0,0,453.043,94.293Z" transform="translate(-443.708 -92.936)" fill="#eaf6ff"/>
              <path id="Path_1010503" data-name="Path 1010503" d="M456.986,286.111a3.946,3.946,0,0,0-3.7,5.3h3.87a1.317,1.317,0,0,0,1.317-1.317V286.4A3.931,3.931,0,0,0,456.986,286.111Z" transform="translate(-443.708 -265.737)" fill="#eaf6ff"/>
              <path id="Path_1010504" data-name="Path 1010504" d="M366.014,98.235a3.946,3.946,0,0,0,3.7-5.3h-3.87a1.317,1.317,0,0,0-1.317,1.317v3.692A3.927,3.927,0,0,0,366.014,98.235Z" transform="translate(-364.53 -92.935)" fill="#eaf6ff"/>
            </g>
          </g>
          <g id="Group_1181393" data-name="Group 1181393" transform="translate(11.27 0)">
            <g id="Group_1181392" data-name="Group 1181392">
              <g id="Group_1181390" data-name="Group 1181390" transform="translate(0.144 20.374)">
                <path id="Path_1010505" data-name="Path 1010505" d="M472.755,291.411h2.031a1.317,1.317,0,0,0,1.317-1.317V286.4a3.945,3.945,0,0,0-3.16.084v4.233A1.369,1.369,0,0,1,472.755,291.411Z" transform="translate(-472.755 -286.111)" fill="#c4e2ff"/>
              </g>
              <g id="Group_1181391" data-name="Group 1181391">
                <path id="Path_1010506" data-name="Path 1010506" d="M471.722,97.862a3.945,3.945,0,0,0,3.16.084V94.253a1.317,1.317,0,0,0-1.317-1.317H471.39a1.371,1.371,0,0,1,.332.9Z" transform="translate(-471.39 -92.936)" fill="#c4e2ff"/>
              </g>
            </g>
          </g>
        </g>
        <path id="Path_1010507" data-name="Path 1010507" d="M335.626,170.731H327.18a2.2,2.2,0,0,0-1.366.476l-3.6,2.853s2.021,3.8,2.876,5.391a4.881,4.881,0,0,0,3.925-4,.957.957,0,0,1,.95-.791h3.491a3.033,3.033,0,0,0,3.033-3.033V171.6A.868.868,0,0,0,335.626,170.731Z" transform="translate(-289.025 -154.801)" fill="#ffcebf"/>
        <path id="Path_1010508" data-name="Path 1010508" d="M0,0H4.552V33.521H0Z" transform="translate(10.359 15.988) rotate(-45)" fill="#fe76a8"/>
      </g>
      <g id="Group_1181396" data-name="Group 1181396" transform="translate(0 12.19)">
        <path id="Path_1010509" data-name="Path 1010509" d="M46.823,67.4a.791.791,0,0,0-1.1.213,24.135,24.135,0,1,1-29.3-35.774.791.791,0,0,0-.609-1.46A25.718,25.718,0,1,0,47.036,68.5.791.791,0,0,0,46.823,67.4Z" transform="translate(0 -28.41)"/>
        <path id="Path_1010510" data-name="Path 1010510" d="M47.855,159.678a20.669,20.669,0,0,0,31.317,17.713,1.456,1.456,0,0,0,.281-2.278L53.086,148.748a1.456,1.456,0,0,0-2.277.28,20.684,20.684,0,0,0-2.954,10.65Zm2.353-5.368h6.2l13.305,13.3H51.156a19.139,19.139,0,0,1-.948-13.3Zm18.314,24.453a18.961,18.961,0,0,1-13.5-5.59,19.189,19.189,0,0,1-3.055-3.977H71.3l6.921,6.921a19.053,19.053,0,0,1-9.7,2.645Zm-16.44-28.782,2.746,2.746H50.747A18.964,18.964,0,0,1,52.082,149.981Z" transform="translate(-42.808 -133.964)"/>
        <path id="Path_1010511" data-name="Path 1010511" d="M152.209,41.357V22.024a2.111,2.111,0,0,0-2.108-2.108H142.3a25.751,25.751,0,0,0-24.672-6.948.791.791,0,0,0,.387,1.534,24.1,24.1,0,0,1,22,5.413h-2.037a2.11,2.11,0,0,0-1.925,1.252,20.667,20.667,0,0,0-25.768,1.215,1.454,1.454,0,0,0-.065,2.12l27.111,27.111a1.455,1.455,0,0,0,2.119-.064,20.652,20.652,0,0,0,2.952-4.377h3.814c-.167.4-.345.8-.535,1.2a.791.791,0,0,0,1.426.686c.3-.619.57-1.25.814-1.882H150.1a2.111,2.111,0,0,0,2.108-2.108S152.209,41.359,152.209,41.357Zm-6.975,4.231H142.84a4.738,4.738,0,0,0-5.393-5.249V37.477a5.64,5.64,0,0,0,2.329-3.723.167.167,0,0,1,.169-.127h.008c.054,1.829,1.865,3.3,4.084,3.3,2.254,0,4.088-1.52,4.088-3.388a3.111,3.111,0,0,0-1.13-2.342,3.8,3.8,0,0,0,.266-1.4v-.023A1.661,1.661,0,0,0,145.6,28.12h-8.154V26.746A4.738,4.738,0,0,0,142.84,21.5h2.395a4.738,4.738,0,0,0,5.393,5.249V40.34A4.738,4.738,0,0,0,145.235,45.589Zm-13.181-1.841H131.7l-2.481-2.481V33.626h1.269a3.557,3.557,0,0,0,2.2-.766l3.6-2.853a1.412,1.412,0,0,1,.874-.3H145.6a.077.077,0,0,1,.077.077V29.8a2.245,2.245,0,0,1-2.242,2.242h-3.491a1.738,1.738,0,0,0-1.73,1.455,4.069,4.069,0,0,1-4.032,3.422.791.791,0,0,0,0,1.582,5.717,5.717,0,0,0,1.683-.252v6.633a5.389,5.389,0,0,1-1.726-.45l-1.035-.462a2.6,2.6,0,0,0-1.051-.225Zm-4.418-4.063-7.148-7.148H127.6a.037.037,0,0,1,.037.037v7.111Zm15.8-6.057a3.811,3.811,0,0,0,2.671-1.091,1.462,1.462,0,0,1,.435,1.008c0,.979-1.148,1.806-2.506,1.806-1.319,0-2.439-.78-2.5-1.722Zm-5.989,11.436V41.949a3.155,3.155,0,0,1,3.794,3.64h-3.268A.527.527,0,0,1,137.447,45.062Zm13.18-23.039v3.113a3.155,3.155,0,0,1-3.794-3.64H150.1A.527.527,0,0,1,150.627,22.024ZM137.973,21.5h3.268a3.155,3.155,0,0,1-3.794,3.64V22.024A.527.527,0,0,1,137.973,21.5ZM123.924,18.82a19.107,19.107,0,0,1,11.941,4.2v5.4a2.974,2.974,0,0,0-.568.352L131.7,31.62a1.967,1.967,0,0,1-1.216.424h-1.359a1.62,1.62,0,0,0-1.529-1.091h-8.693l-7.475-7.475A19.061,19.061,0,0,1,123.924,18.82ZM138.35,50.4l-4.3-4.3a6.969,6.969,0,0,0,2.311.393h.067a2.1,2.1,0,0,0,1.547.681h2.637A19.1,19.1,0,0,1,138.35,50.4ZM150.1,45.589h-3.268a3.155,3.155,0,0,1,3.794-3.64v3.114A.527.527,0,0,1,150.1,45.589Z" transform="translate(-98.21 -12.19)"/>
      </g>
    </g>
  </g>
</svg>
