<svg xmlns="http://www.w3.org/2000/svg" width="70" height="70" viewBox="0 0 70 70">
  <g id="img9" transform="translate(-766 -2573)">
    <rect id="Rectangle_455415" data-name="Rectangle 455415" width="70" height="70" rx="10" transform="translate(766 2573)" fill="#cfde90"/>
    <g id="Group_1181402" data-name="Group 1181402" transform="translate(775 2582)">
      <g id="Group_1181400" data-name="Group 1181400" transform="translate(0.764 0.764)">
        <circle id="Ellipse_13790" data-name="Ellipse 13790" cx="25.322" cy="25.322" r="25.322" fill="#fe76a8"/>
        <path id="Path_1010512" data-name="Path 1010512" d="M244.325,7.5q-.667,0-1.325.034a25.322,25.322,0,0,1,0,50.575q.658.034,1.325.034a25.322,25.322,0,0,0,0-50.644Z" transform="translate(-219.003 -7.5)" fill="#e759aa"/>
        <g id="Group_1181399" data-name="Group 1181399" transform="translate(4.382 4.382)">
          <path id="Path_1010513" data-name="Path 1010513" d="M159.3,84.068a20.94,20.94,0,0,0-29.332-29.332.611.611,0,0,0-.06.918l28.474,28.474a.611.611,0,0,0,.918-.06Z" transform="translate(-121.651 -50.5)" fill="#f3f0f3"/>
          <path id="Path_1010514" data-name="Path 1010514" d="M54.736,129.963A20.94,20.94,0,0,0,84.068,159.3a.611.611,0,0,0,.06-.918L55.654,129.9A.611.611,0,0,0,54.736,129.963Z" transform="translate(-50.5 -121.651)" fill="#f3f0f3"/>
        </g>
        <path id="Path_1010515" data-name="Path 1010515" d="M89.619,112.13l10.861,10.861a1.019,1.019,0,0,0,1.441,0l21.07-21.07a1.019,1.019,0,0,0,0-1.441L112.13,89.62a1.019,1.019,0,0,0-1.441,0l-21.07,21.07a1.019,1.019,0,0,0,0,1.441Z" transform="translate(-80.983 -80.984)" fill="#7acaa6"/>
        <path id="Path_1010516" data-name="Path 1010516" d="M207.969,185.458l-1.518-1.518a1.019,1.019,0,0,1,0,1.441l-21.07,21.07a1.019,1.019,0,0,1-1.441,0l1.518,1.518a1.019,1.019,0,0,0,1.441,0l21.07-21.07A1.019,1.019,0,0,0,207.969,185.458Z" transform="translate(-165.961 -165.961)" fill="#57be92"/>
        <path id="Path_1010517" data-name="Path 1010517" d="M166.146,177.452a13.429,13.429,0,0,0,8.4,3.9l6.8-6.8a13.479,13.479,0,0,0-12.3-12.3l-6.8,6.8A13.429,13.429,0,0,0,166.146,177.452Z" transform="translate(-146.478 -146.478)" fill="#ffe177"/>
        <path id="Path_1010518" data-name="Path 1010518" d="M260.339,267.145l6.8-6.8a13.528,13.528,0,0,0-.468-2.568l-8.9,8.905A13.542,13.542,0,0,0,260.339,267.145Z" transform="translate(-232.269 -232.27)" fill="#ffd15b"/>
      </g>
      <g id="Group_1181401" data-name="Group 1181401" transform="translate(0)">
        <path id="Path_1010519" data-name="Path 1010519" d="M44.532,7.64A26.092,26.092,0,0,0,11.363,4.549a.764.764,0,0,0,.864,1.261A24.559,24.559,0,0,1,43.451,43.451,24.558,24.558,0,1,1,9.521,7.957.764.764,0,0,0,8.489,6.829a26.086,26.086,0,1,0,36.042.812Z" transform="translate(0)"/>
        <path id="Path_1010520" data-name="Path 1010520" d="M47.391,51.616A21.512,21.512,0,0,0,43,64.7,21.717,21.717,0,0,0,71.912,85.182.764.764,0,0,0,71.4,83.74,20.179,20.179,0,0,1,48.5,52.682L55.923,60.1l-8.445,8.445a1.783,1.783,0,0,0,0,2.522L58.339,81.931a1.785,1.785,0,0,0,2.522,0l8.445-8.445,7.421,7.421a20.187,20.187,0,0,1-2.193,1.42.764.764,0,1,0,.745,1.335,21.732,21.732,0,0,0,2.514-1.644,1.375,1.375,0,0,0,.139-2.068L70.387,72.4,72.4,70.387l7.544,7.544a1.375,1.375,0,0,0,.975.4q.046,0,.093,0a1.37,1.37,0,0,0,1-.54,21.7,21.7,0,0,0-30.4-30.4,1.375,1.375,0,0,0-.139,2.068L59.022,57,57,59.022,49.46,51.478a1.375,1.375,0,0,0-2.069.138ZM62.24,55.947A12.712,12.712,0,0,1,73.461,67.169l-6.293,6.293A12.712,12.712,0,0,1,55.947,62.24ZM74.8,65.829A14.242,14.242,0,0,0,63.579,54.608l6.049-6.049a.255.255,0,0,1,.36,0L80.85,59.42a.255.255,0,0,1,0,.36ZM59.78,80.85a.255.255,0,0,1-.36,0L48.559,69.989a.255.255,0,0,1,0-.36l6.049-6.049A14.242,14.242,0,0,0,65.829,74.8ZM52.682,48.5A19.994,19.994,0,0,1,64.7,44.528,20.2,20.2,0,0,1,84.88,64.7a20,20,0,0,1-3.974,12.023l-7.421-7.421,8.445-8.445a1.783,1.783,0,0,0,0-2.522L71.07,47.478a1.785,1.785,0,0,0-2.522,0L60.1,55.923Z" transform="translate(-38.618 -38.618)"/>
        <path id="Path_1010521" data-name="Path 1010521" d="M218.21,219.291c-.011.02-.023.039-.034.059a2.2,2.2,0,0,0,.189,2.435,1.84,1.84,0,0,0,1.971.631,11.817,11.817,0,0,0,1.615-.668l.261-.121c.26-.12.895-.358,1.161.022a1.036,1.036,0,0,1-.265,1.252,2.14,2.14,0,0,1-1.575.645.764.764,0,0,0-.075,1.527q.078,0,.156,0a3.622,3.622,0,0,0,1.851-.53l.536.536A.764.764,0,0,0,225.084,224l-.5-.5a2.438,2.438,0,0,0,.048-2.722,2.306,2.306,0,0,0-3.055-.536l-.262.121a10.829,10.829,0,0,1-1.406.589.324.324,0,0,1-.353-.129.665.665,0,0,1-.029-.748,2.044,2.044,0,0,1,1.47-.918.764.764,0,0,0-.137-1.522,3.9,3.9,0,0,0-1.585.558l-.515-.515a.764.764,0,1,0-1.081,1.081Z" transform="translate(-195.293 -195.293)"/>
        <path id="Path_1010522" data-name="Path 1010522" d="M285.553,121.232l-1.009,1.009a.764.764,0,0,0,1.081,1.081l1.009-1.009a.764.764,0,0,0-1.081-1.081Z" transform="translate(-255.348 -108.678)"/>
        <path id="Path_1010523" data-name="Path 1010523" d="M205.094,366.317a.764.764,0,0,0-1.081,0L203,367.326a.764.764,0,0,0,1.081,1.081l1.009-1.009A.764.764,0,0,0,205.094,366.317Z" transform="translate(-182.117 -328.789)"/>
      </g>
    </g>
  </g>
</svg>
