<svg xmlns="http://www.w3.org/2000/svg" width="90" height="90" viewBox="0 0 90 90">
  <g id="img18" transform="translate(-286.711 -4786)">
    <circle id="Ellipse_13776" data-name="Ellipse 13776" cx="45" cy="45" r="45" transform="translate(286.711 4786)" fill="#fff"/>
    <g id="layer2" transform="translate(305.23 4804.519)">
      <path id="rect3655" d="M12.809,9.694l3.7-2.128a1.367,1.367,0,0,1,1.883.408l6.81,11.734a1.353,1.353,0,0,1-.586,1.827l-3.7,2.128a1.367,1.367,0,0,1-1.883-.408l-6.81-11.734a1.353,1.353,0,0,1,.586-1.827Z" transform="translate(26.175 15.501)" fill="#549ad4"/>
      <path id="rect3657" d="M10.417,7.887l3.7,2.128a1.411,1.411,0,0,1,.522,1.937l-7.484,12.9a1.426,1.426,0,0,1-1.947.519l-3.7-2.128A1.411,1.411,0,0,1,.986,21.3L8.47,8.406a1.426,1.426,0,0,1,1.947-.519Z" transform="translate(0.601 16.265)" fill="#549ad4"/>
      <path id="path3660" d="M9.609,7.7A1.426,1.426,0,0,0,8.473,8.4L.986,21.294a1.409,1.409,0,0,0,.522,1.936l3.7,2.127a1.427,1.427,0,0,0,1.948-.519l.221-.38-3.3-1.89a1.411,1.411,0,0,1-.522-1.938L10.832,8.119l-.411-.235A1.43,1.43,0,0,0,9.609,7.7Z" transform="translate(0.6 16.258)" fill="#3588cb"/>
      <path id="path3664" d="M9.326,9.34l5.226,1.039L21.083,14.2l13.8,8.076a3.248,3.248,0,0,1,.358,1.048,1.784,1.784,0,0,1-.358,1.083,1.821,1.821,0,0,1-1.021.663,2.535,2.535,0,0,1-1.3-.193,6.271,6.271,0,0,1-1.1-.633,4.486,4.486,0,0,1,.12,1.348,2.147,2.147,0,0,1-.578,1.078,1.493,1.493,0,0,1-.781.405,4.061,4.061,0,0,1-1.3-.192c-.275.54-.312,1.3-.583,1.712s-.267.522-.843.745-1.629-.113-2.584.037a4.635,4.635,0,0,1-.243,1.282,1.5,1.5,0,0,1-.689.631,2.269,2.269,0,0,1-1.712-.04l-2.161-1.24L8.971,25.159l-3.854-2.83L2.908,20.681Z" transform="translate(5.398 19.995)" fill="#ffc6a0"/>
      <path id="path3666" d="M12.889,14.577c-2.018,2.862-6.023,5.582-6.765,3.544-.516-1.416,1.839-5.6,3.176-7.014C11,9.3,16.413,8.906,20.423,9.615s6.015-.709,6.015-.709l5.7,9.924-4.255,4.33" transform="translate(12.532 19.011)" fill="#f95"/>
      <path id="rect3668" d="M9.925,14.925a1.764,1.764,0,0,1,.652,2.422l-.713,1.228a1.783,1.783,0,0,1-2.434.649A1.764,1.764,0,0,1,6.778,16.8l.713-1.228A1.783,1.783,0,0,1,9.925,14.925Z" transform="translate(13.637 32.129)" fill="#f95"/>
      <path id="path3670" d="M8.912,14.684a1.779,1.779,0,0,0-1.419.884L6.78,16.8a1.775,1.775,0,0,0,2.407,2.431l-.023-.01A1.763,1.763,0,0,1,8.51,16.8l.713-1.228a1.767,1.767,0,0,1,.682-.659,1.789,1.789,0,0,0-.993-.225Z" transform="translate(13.641 32.115)" fill="#ff8a3c"/>
      <path id="rect3672" d="M9.585,14.195a1.764,1.764,0,0,1,.652,2.422L8.812,19.073a1.783,1.783,0,0,1-2.434.649A1.764,1.764,0,0,1,5.725,17.3l1.426-2.456A1.783,1.783,0,0,1,9.585,14.195Z" transform="translate(11.247 30.472)" fill="#f95"/>
      <path id="path3676" d="M8.572,13.954a1.779,1.779,0,0,0-1.419.884L5.727,17.292a1.762,1.762,0,0,0,.652,2.421,1.784,1.784,0,0,0,1.754.013.082.082,0,0,1-.023-.013,1.763,1.763,0,0,1-.652-2.421l1.426-2.455a1.763,1.763,0,0,1,.682-.659,1.783,1.783,0,0,0-.993-.225Z" transform="translate(11.251 30.459)" fill="#ff8a3c"/>
      <path id="rect3678" d="M9.245,13.465A1.764,1.764,0,0,1,9.9,15.886L7.759,19.571a1.783,1.783,0,0,1-2.434.649A1.764,1.764,0,0,1,4.672,17.8L6.81,14.113A1.783,1.783,0,0,1,9.245,13.465Z" transform="translate(8.858 28.815)" fill="#f95"/>
      <path id="rect3680" d="M6.737,13.486a1.764,1.764,0,0,1,.652,2.422l-.356.614A1.783,1.783,0,0,1,4.6,17.17a1.764,1.764,0,0,1-.652-2.422l.356-.614A1.783,1.783,0,0,1,6.737,13.486Z" transform="translate(7.21 28.863)" fill="#f95"/>
      <path id="path3682" d="M17.233,9.033c-3.293-.1-6.655.456-7.933,1.811-1.337,1.418-3.692,5.6-3.176,7.014.291.8,1.087.86,2.066.473a1.057,1.057,0,0,1-.336-.473c-.516-1.416,1.839-5.6,3.176-7.014,1.063-1.127,3.567-1.7,6.274-1.806-.023,0-.047,0-.071-.007Z" transform="translate(12.532 19.273)" fill="#ff8a3c"/>
      <path id="path3685" d="M9.326,9.34,2.908,20.681l2.208,1.647.968.711.033-.054a1.774,1.774,0,0,1,1.536-.88l-.243-.179L5.2,20.279,11.181,9.708Zm9.68,18.79a1.754,1.754,0,0,1-.179,1.321l1.284.559,2.161,1.24a2.27,2.27,0,0,0,1.713.041,1.85,1.85,0,0,0,.552-.456L22.4,29.608Z" transform="translate(5.399 19.996)" fill="#ffaf7a"/>
      <path id="path3690" d="M8.231,13.225a1.78,1.78,0,0,0-1.419.884L4.674,17.791a1.774,1.774,0,0,0,2.406,2.431l-.023-.01A1.763,1.763,0,0,1,6.4,17.791l2.139-3.683a1.767,1.767,0,0,1,.681-.661,1.788,1.788,0,0,0-.992-.223Z" transform="translate(8.86 28.803)" fill="#ff8a3c"/>
      <path id="path3692" d="M5.723,13.246a1.779,1.779,0,0,0-1.419.884l-.356.613A1.762,1.762,0,0,0,4.6,17.164a1.782,1.782,0,0,0,1.754.01l-.023-.01a1.763,1.763,0,0,1-.652-2.421l.356-.613a1.769,1.769,0,0,1,.681-.661,1.788,1.788,0,0,0-.992-.223Z" transform="translate(7.211 28.851)" fill="#ff8a3c"/>
      <path id="path3694" d="M16.521,7.564,12.815,9.691a1.352,1.352,0,0,0-.586,1.826l6.813,11.73a1.368,1.368,0,0,0,1.884.409l.394-.227L14.739,12.1a1.352,1.352,0,0,1,.588-1.826l3.311-1.9-.233-.4a1.27,1.27,0,0,0-1.083-.615,1.535,1.535,0,0,0-.8.206Z" transform="translate(26.186 15.497)" fill="#3588cb"/>
      <path id="path3852" d="M19.494.794a8.649,8.649,0,1,1-8.645,8.646A8.656,8.656,0,0,1,19.494.794Z" transform="translate(23.42 0.6)" fill="#ffca28"/>
      <path id="path4233" d="M14.314,1.325A8.639,8.639,0,1,0,26.407,13.412,8.634,8.634,0,0,1,14.314,1.325Z" transform="translate(23.42 1.806)" fill="#ecb200"/>
      <path id="path4241" d="M9.439.794A8.649,8.649,0,1,1,.794,9.439,8.656,8.656,0,0,1,9.439.794Z" transform="translate(0.601 0.6)" fill="#ffca28"/>
      <path id="path4243" d="M4.259,1.325A8.639,8.639,0,1,0,16.353,13.412,8.634,8.634,0,0,1,4.259,1.325Z" transform="translate(0.601 1.806)" fill="#ecb200"/>
      <path id="path3699" d="M10.039.529a9.515,9.515,0,1,0,9.521,9.509A9.507,9.507,0,0,0,10.039.529Zm32.873,0a9.515,9.515,0,1,0,9.521,9.509A9.507,9.507,0,0,0,42.912.529ZM10.039,2.261a7.784,7.784,0,1,1-7.777,7.777A7.784,7.784,0,0,1,10.039,2.261Zm32.873,0a7.784,7.784,0,1,1-7.777,7.777,7.784,7.784,0,0,1,7.777-7.777Zm-32.88.868a.854.854,0,0,0-.855.862v.956A3.418,3.418,0,0,0,6.583,8.256a2.276,2.276,0,0,0,1.286,2.178,6.284,6.284,0,0,0,2.073.463,4.793,4.793,0,0,1,1.5.291.585.585,0,0,1,.333.632A1.7,1.7,0,0,1,10.067,13.5a1.789,1.789,0,0,1-1.708-1.421.866.866,0,1,0-1.654.517,3.588,3.588,0,0,0,2.472,2.512v.987a.865.865,0,1,0,1.73,0v-.966a3.419,3.419,0,0,0,2.6-3.307,2.275,2.275,0,0,0-1.3-2.183,6.122,6.122,0,0,0-2.075-.46,5.019,5.019,0,0,1-1.5-.294c-.271-.134-.326-.31-.326-.627a1.691,1.691,0,0,1,1.7-1.679A1.789,1.789,0,0,1,11.731,8a.866.866,0,1,0,1.652-.517,3.581,3.581,0,0,0-2.477-2.517V3.991a.854.854,0,0,0-.875-.862Zm32.873,0a.854.854,0,0,0-.855.862v.956a3.418,3.418,0,0,0-2.593,3.308,2.276,2.276,0,0,0,1.286,2.178,6.284,6.284,0,0,0,2.073.463,4.793,4.793,0,0,1,1.5.291.585.585,0,0,1,.333.632A1.7,1.7,0,0,1,42.94,13.5a1.789,1.789,0,0,1-1.708-1.421.866.866,0,1,0-1.654.517,3.588,3.588,0,0,0,2.472,2.512v.987a.865.865,0,1,0,1.73,0v-.966a3.419,3.419,0,0,0,2.6-3.307,2.275,2.275,0,0,0-1.3-2.183,6.122,6.122,0,0,0-2.075-.46,5.019,5.019,0,0,1-1.5-.294c-.272-.134-.326-.31-.326-.627a1.691,1.691,0,0,1,1.7-1.679A1.789,1.789,0,0,1,44.6,8a.866.866,0,1,0,1.652-.517A3.581,3.581,0,0,0,43.78,4.966V3.991a.854.854,0,0,0-.875-.862ZM27.738,5.279a.875.875,0,0,0-.569,1.492l.676.678H23.021a.865.865,0,1,0,0,1.73h6.919A.865.865,0,0,0,30.553,7.7L28.388,5.546a.836.836,0,0,0-.65-.267Zm-4.715,5.63a.865.865,0,0,0-.613,1.475l2.164,2.158a.864.864,0,0,0,1.22-1.225l-.676-.678h4.824a.865.865,0,1,0,0-1.73ZM43.544,21.992a2.382,2.382,0,0,0-1.269.321l-3.71,2.131a2.2,2.2,0,0,0-.9,3l.059.1a4.088,4.088,0,0,1-.478.15,9.575,9.575,0,0,1-4.144.074,24.107,24.107,0,0,0-6.672-.2c-2.162.247-4.162.822-5.229,1.953-.049.052-.117.126-.167.182L15.962,28.7,16,28.634a2.268,2.268,0,0,0-.835-3.112l-3.71-2.131a2.3,2.3,0,0,0-3.131.84L.836,37.122a2.279,2.279,0,0,0,.835,3.116l3.71,2.129a2.306,2.306,0,0,0,2.962-.586l2.005,1.5a2.623,2.623,0,0,0,1.031,3.487,2.589,2.589,0,0,0,1.078.341A2.609,2.609,0,0,0,13.75,49.76a2.668,2.668,0,0,0,2.433.115A2.579,2.579,0,0,0,17.2,50.921a2.652,2.652,0,0,0,2.43.11,2.6,2.6,0,0,0,1.017,1.051,2.662,2.662,0,0,0,3.621-.97l.358-.618c.893.513,1.845,1.056,2.62,1.5a2.647,2.647,0,0,0,3.614-.963,2.513,2.513,0,0,0,.321-.894,2.656,2.656,0,0,0,3.313-1.112,2.547,2.547,0,0,0,.346-1.071,2.646,2.646,0,0,0,2.671-1.293,2.51,2.51,0,0,0,.324-.89,2.652,2.652,0,0,0,3.31-1.113,2.594,2.594,0,0,0,.181-2.267l3.186-3.161a2.24,2.24,0,0,0,3.036.674l3.71-2.131a2.208,2.208,0,0,0,.9-3L45.341,23.041a2.14,2.14,0,0,0-1.8-1.049Zm.3,1.911L50.651,35.63a.5.5,0,0,1-.267.647l-3.709,2.129a.513.513,0,0,1-.7-.093c-2.348-4.067-4.758-8.191-6.812-11.727a.508.508,0,0,1,.267-.647l3.712-2.129a.733.733,0,0,1,.248-.088.436.436,0,0,1,.448.181Zm-33.473.912a.615.615,0,0,1,.218.073l3.72,2.137a.548.548,0,0,1,.193.747L7.011,40.667a.549.549,0,0,1-.76.2L2.54,38.741a.548.548,0,0,1-.2-.757L9.825,25.092a.555.555,0,0,1,.542-.277ZM43.592,37.7l-3.4,3.371c-4.765-2.738-9.568-5.49-14.348-8.23a.865.865,0,0,0-1.137.248,12.47,12.47,0,0,1-3.575,3.355,3.358,3.358,0,0,1-1.418.534c-.207,0-.212-.042-.25-.14a2.066,2.066,0,0,1,.11-.972,11.174,11.174,0,0,1,.747-1.859,16.026,16.026,0,0,1,2.132-3.295c.56-.594,1.926-1.168,4.17-1.424a22.629,22.629,0,0,1,6.174.193,11.324,11.324,0,0,0,4.884-.11,6.131,6.131,0,0,0,.921-.3c1.688,2.891,3.317,5.73,4.986,8.632ZM15.044,30.279l4.862.968a20.7,20.7,0,0,0-1.134,1.994,12.561,12.561,0,0,0-.862,2.164,3.409,3.409,0,0,0-.069,2.024,1.889,1.889,0,0,0,1.921,1.277,4.953,4.953,0,0,0,2.228-.76,14.124,14.124,0,0,0,3.66-3.227l13.663,7.838a.9.9,0,0,1,.333,1.232.933.933,0,0,1-1.259.331c-3.133-1.807-6.288-3.6-9.417-5.4a.808.808,0,0,0-.482-.115.866.866,0,0,0-.38,1.615l7.566,4.342a.892.892,0,0,1,.338,1.23.923.923,0,0,1-1.257.333q-3.245-1.855-6.486-3.715a.866.866,0,0,0-.863,1.5l5.241,3a.9.9,0,0,1,.345,1.244.919.919,0,0,1-1.257.331q-2.16-1.241-4.322-2.477a.865.865,0,1,0-.862,1.5c.821.469,1.659.948,2.472,1.418a.9.9,0,0,1,.338,1.233.933.933,0,0,1-1.259.331c-1.032-.59-1.82-1.041-2.8-1.6a2.646,2.646,0,0,0-2.72-2.958,2.658,2.658,0,0,0-2.73-2.384,2.629,2.629,0,0,0-1.316-2.038,2.663,2.663,0,0,0-3.431.688,2.528,2.528,0,0,0-.725-.613,2.655,2.655,0,0,0-3.045.275L9.231,40.29Zm32.8,4.567a.865.865,0,1,0,.863.865A.865.865,0,0,0,47.847,34.846ZM5.252,36.973a.865.865,0,1,0,.865.865A.865.865,0,0,0,5.252,36.973Zm12.075,5.92v0a.926.926,0,0,1,.345.113.906.906,0,0,1,.338,1.245l-2.142,3.683a.909.909,0,0,1-1.249.326.9.9,0,0,1-.338-1.238q1.07-1.841,2.141-3.683a.9.9,0,0,1,.906-.448Zm-4.4.073a.936.936,0,0,1,.267,0,.837.837,0,0,1,.324.117.9.9,0,0,1,.336,1.238q-.178.307-.356.612a.915.915,0,0,1-1.586-.911l.355-.613a.911.911,0,0,1,.661-.443Zm7.108,2.306a1.081,1.081,0,0,1,.373.12.907.907,0,0,1,.335,1.245q-.716,1.227-1.428,2.457a.907.907,0,0,1-1.249.329.893.893,0,0,1-.338-1.233l1.43-2.463A.91.91,0,0,1,20.032,45.273Zm2.754,2.391a.975.975,0,0,1,.351.122.9.9,0,0,1,.336,1.238l-.711,1.227a.917.917,0,0,1-1.59-.912l.711-1.227a.917.917,0,0,1,.9-.448Z" transform="translate(0 0)"/>
    </g>
  </g>
</svg>
