<svg xmlns="http://www.w3.org/2000/svg" xmlns:xlink="http://www.w3.org/1999/xlink" width="129" height="127" viewBox="0 0 129 127">
  <defs>
    <clipPath id="clip-path">
      <rect id="Rectangle_454807" data-name="Rectangle 454807" width="129" height="127" transform="translate(399.059 5904)" fill="#ffdc6b"/>
    </clipPath>
  </defs>
  <g id="img12" transform="translate(-399.059 -5904)">
    <rect id="Rectangle_454806" data-name="Rectangle 454806" width="129" height="127" transform="translate(399.059 5904)" fill="#cfde90"/>
    <path id="Rectangle_454808" data-name="Rectangle 454808" d="M0,0H79A12,12,0,0,1,91,12V91a0,0,0,0,1,0,0H12A12,12,0,0,1,0,79V0A0,0,0,0,1,0,0Z" transform="translate(418.059 5922)" fill="#fff"/>
    <g id="Group_1181349" data-name="Group 1181349" transform="translate(411.259 5937.841)">
      <g id="Group_1181342" data-name="Group 1181342" transform="translate(44.216 14.241)">
        <g id="Group_1181341" data-name="Group 1181341" transform="translate(0)">
          <path id="Path_1010387" data-name="Path 1010387" d="M188.7,122.917h-1.6a.869.869,0,1,0,0,1.738h1.6a.869.869,0,0,0,0-1.738Z" transform="translate(-186.224 -122.917)" fill="#fa996c"/>
        </g>
      </g>
      <g id="Group_1181344" data-name="Group 1181344" transform="translate(53.393 14.241)">
        <g id="Group_1181343" data-name="Group 1181343">
          <path id="Path_1010388" data-name="Path 1010388" d="M267.911,122.917h-1.6a.869.869,0,0,0,0,1.738h1.6a.869.869,0,0,0,0-1.738Z" transform="translate(-265.439 -122.917)" fill="#fa996c"/>
        </g>
      </g>
      <g id="Group_1181346" data-name="Group 1181346" transform="translate(40.872 11.123)">
        <g id="Group_1181345" data-name="Group 1181345">
          <path id="Path_1010389" data-name="Path 1010389" d="M172.919,96.009h-11.91a3.648,3.648,0,0,0-.589,7.249l2.508.411a23.8,23.8,0,0,0,7.436.042l3.131-.477h0a3.6,3.6,0,0,0,3.073-3.576A3.653,3.653,0,0,0,172.919,96.009Zm.314,5.506-3.131.477a22.059,22.059,0,0,1-6.893-.038l-2.509-.411a1.911,1.911,0,0,1,.309-3.8h11.91a1.913,1.913,0,0,1,1.911,1.911A1.869,1.869,0,0,1,173.233,101.515Z" transform="translate(-157.361 -96.009)" fill="#fa996c"/>
        </g>
      </g>
      <g id="Group_1181348" data-name="Group 1181348" transform="translate(25.607)">
        <g id="Group_1181347" data-name="Group 1181347" transform="translate(0)">
          <path id="Path_1010390" data-name="Path 1010390" d="M78.442,26.865h0l-2.063-1.791a1.6,1.6,0,0,0-2.2.1,26.9,26.9,0,0,1-3.825,3.315V27.145a5.335,5.335,0,0,0-1.258-3.438,3.478,3.478,0,0,1-.791-2.249V12.939a.869.869,0,0,0-1.738,0v2.572h-.859V4.486h.666a.193.193,0,0,1,.193.193V8.848a.869.869,0,1,0,1.738,0V4.679a1.933,1.933,0,0,0-1.728-1.92h0V.869a.869.869,0,0,0-1.738,0v1.88a.869.869,0,0,0-.869.869V15.792a1.422,1.422,0,0,0-.578,1.143v12.75c-.829-.4-1.713-.776-2.527-1.119-.6-.251-1.172-.494-1.668-.724,2.572-3.286,3.892-7.4,3.892-9.416V12.479A11.785,11.785,0,0,0,59.077,3.5,13.086,13.086,0,0,0,50.485.214h-.019A13.087,13.087,0,0,0,41.873,3.5a11.785,11.785,0,0,0-4.009,8.976v5.948c0,2.015,1.32,6.13,3.892,9.416-.5.23-1.072.473-1.668.723-2.135.9-4.554,1.917-5.6,3.286a4.907,4.907,0,0,0-.641,4.523l-.25.047a.827.827,0,0,0-.087.021,11.013,11.013,0,0,0-7.9,10.565v1.1a.869.869,0,0,0,1.738,0v-1.1a9.276,9.276,0,0,1,6.614-8.886l.939-.175a9.972,9.972,0,0,0,2.01,1.334l.024.013.208.108.138.07.227.113.247.119.115.054c.118.055.238.111.362.167a29.754,29.754,0,0,0,24.493,0l.319-.147.076-.036.234-.112.039-.019v2.519a1.965,1.965,0,0,0,1.518,1.911l1.807,13.538H34.444V51.4a.869.869,0,0,0-1.738,0v6.18H27.816a.472.472,0,0,1-.471-.471V52.2a.869.869,0,1,0-1.738,0V57.11a2.211,2.211,0,0,0,2.209,2.209H73.134l-3.653-.989,3.653.989a2.211,2.211,0,0,0,2.209-2.209v-10.1A10.943,10.943,0,0,0,74.9,43.9a1.517,1.517,0,0,0,1.2-.994l.539-1.528a1.516,1.516,0,0,0-.926-1.933L73.329,38.6a2.489,2.489,0,0,0,.1-.695V34.818a2.477,2.477,0,0,0-.246-1.077,32.611,32.611,0,0,0,5.372-4.57,1.6,1.6,0,0,0-.113-2.306ZM39.6,18.427V12.479a10.049,10.049,0,0,1,3.4-7.659,11.156,11.156,0,0,1,14.936,0,10.05,10.05,0,0,1,3.4,7.659v5.948A16.19,16.19,0,0,1,58.531,25.8a15.827,15.827,0,0,1-1.338,1.735l0,0a12.228,12.228,0,0,1-1.6,1.506l-.032.028a7.988,7.988,0,0,1-10.156,0c-.011-.01-.022-.021-.034-.03a12.228,12.228,0,0,1-1.6-1.506l-.007-.007A15.782,15.782,0,0,1,42.418,25.8,16.193,16.193,0,0,1,39.6,18.427ZM56.593,35.759a10.1,10.1,0,0,1-5.87,2.049c-.055,0-.111,0-.166,0h-.164c-.055,0-.111,0-.166,0a10.1,10.1,0,0,1-5.87-2.049A4.075,4.075,0,0,0,45.7,32.817V31.352a9.514,9.514,0,0,0,9.55,0v1.465A4.075,4.075,0,0,0,56.593,35.759Zm5.413,2.583a28.016,28.016,0,0,1-23.062,0l-.212-.1-.057-.027-.155-.073-.051-.024q-.2-.1-.386-.189l-.017-.009-.166-.085-.022-.011q-.271-.141-.5-.271l0,0c-.154-.087-.3-.171-.424-.251l-.009-.006-.11-.07-.016-.01-.11-.072h0l-.1-.066-.044-.031-.042-.029-.057-.041-.014-.01a3.869,3.869,0,0,1-.611-.535l-.016-.015a1.3,1.3,0,0,1-.171-.239,3.172,3.172,0,0,1,.216-3.271c.766-1,3.055-1.966,4.894-2.74.79-.333,1.548-.651,2.174-.964a13.849,13.849,0,0,0,1.026.947v2.666a2.019,2.019,0,0,1-1.305,1.922.869.869,0,0,0-.433,1.476,11.83,11.83,0,0,0,7.961,3.33c.072,0,.144,0,.216,0h.147c.072,0,.144,0,.216,0a11.829,11.829,0,0,0,7.961-3.33.869.869,0,0,0-.433-1.476,2.018,2.018,0,0,1-1.305-1.922V30.151a13.851,13.851,0,0,0,1.026-.947c.626.313,1.383.632,2.173.964,1.057.445,2.237.942,3.2,1.472v6.019h0C62.981,37.882,62.518,38.111,62.006,38.342Zm8.345-2.894q.673-.358,1.329-.749a.759.759,0,0,1,.011.119v3.091a.779.779,0,0,1-.009.114l-1.331-.469V35.448h0Zm-5,6.907a.224.224,0,0,1-.224-.224V17.249h1.438v4.208a5.217,5.217,0,0,0,1.2,3.371,3.6,3.6,0,0,1,.848,2.317v15.21H65.35Zm3.5,1.738,2.941,9.179-3.762,1.009-1.36-10.188Zm-.386,13.451-.2-1.526,4.061-1.089.466,1.455Zm1.888-14.456v-.6l2.511.885a9.19,9.19,0,0,1,.743,3.636v6.237Zm4.568-2.082-.391,1.11-4.177-1.472V39.4Zm-4.568-7.542V30.593a28.331,28.331,0,0,0,4.99-4.12l1.852,1.608A30.457,30.457,0,0,1,70.351,33.464Z" transform="translate(-25.607)" fill="#fa996c"/>
        </g>
      </g>
    </g>
  </g>
</svg>
