<svg xmlns="http://www.w3.org/2000/svg" width="90" height="90" viewBox="0 0 90 90">
  <g id="img17" transform="translate(-286.711 -4786)">
    <circle id="Ellipse_13776" data-name="Ellipse 13776" cx="45" cy="45" r="45" transform="translate(286.711 4786)" fill="#fff"/>
    <g id="Group_1181365" data-name="Group 1181365" transform="translate(302.833 4802.216)">
      <g id="Group_1181363" data-name="Group 1181363" transform="translate(3.919 3.825)">
        <circle id="Ellipse_13783" data-name="Ellipse 13783" cx="12.48" cy="12.48" r="12.48" transform="translate(12.48 12.563)" fill="#ffb300"/>
        <g id="Group_1181362" data-name="Group 1181362">
          <circle id="Ellipse_13784" data-name="Ellipse 13784" cx="4.011" cy="4.011" r="4.011" transform="translate(0 0.084)" fill="#43a047"/>
          <circle id="Ellipse_13785" data-name="Ellipse 13785" cx="4.011" cy="4.011" r="4.011" transform="translate(41.812)" fill="#43a047"/>
          <circle id="Ellipse_13786" data-name="Ellipse 13786" cx="4.011" cy="4.011" r="4.011" transform="translate(41.896 41.812)" fill="#43a047"/>
          <circle id="Ellipse_13787" data-name="Ellipse 13787" cx="4.011" cy="4.011" r="4.011" transform="translate(0.084 41.896)" fill="#43a047"/>
        </g>
      </g>
      <g id="Group_1181364" data-name="Group 1181364" transform="translate(3.25 3.156)">
        <path id="Path_1010427" data-name="Path 1010427" d="M49.287,23.771a.668.668,0,1,0,1.233-.517,18.464,18.464,0,0,0-4.029-5.98.669.669,0,0,0-.944.948,17.141,17.141,0,0,1,3.74,5.549Z" transform="translate(-7.822 -4.668)" fill="#05112d"/>
        <path id="Path_1010428" data-name="Path 1010428" d="M51.755,31.219a.692.692,0,0,0-.668.7A17.006,17.006,0,0,1,49.8,38.427a.668.668,0,1,0,1.236.509,18.357,18.357,0,0,0,1.384-7.052l-.669-.024h.669a.645.645,0,0,0-.669-.641Z" transform="translate(-8.3 -6.204)" fill="#05112d"/>
        <path id="Path_1010429" data-name="Path 1010429" d="M31.916,12.587a17.01,17.01,0,0,1,6.528,1.291.669.669,0,0,0,.51-1.236,18.346,18.346,0,0,0-7.038-1.391H31.88a.653.653,0,0,0-.65.669A.685.685,0,0,0,31.916,12.587Z" transform="translate(-6.289 -4.035)" fill="#05112d"/>
        <path id="Path_1010430" data-name="Path 1010430" d="M31.088,51.085a17.017,17.017,0,0,1-6.56-1.3.669.669,0,0,0-.514,1.235,20.633,20.633,0,0,0,7.147,1.405.638.638,0,0,0,.632-.668.7.7,0,0,0-.705-.669Z" transform="translate(-5.46 -8.214)" fill="#05112d"/>
        <path id="Path_1010431" data-name="Path 1010431" d="M17.761,18a.666.666,0,0,0,.474-.2,17.133,17.133,0,0,1,5.554-3.734.668.668,0,1,0-.515-1.234,18.472,18.472,0,0,0-5.986,4.023A.669.669,0,0,0,17.761,18Z" transform="translate(-4.753 -4.202)" fill="#05112d"/>
        <path id="Path_1010432" data-name="Path 1010432" d="M12.648,24.034a18.353,18.353,0,0,0-1.4,7.056v.018a.661.661,0,0,0,.669.659.677.677,0,0,0,.669-.678,17.018,17.018,0,0,1,1.3-6.545.669.669,0,0,0-1.236-.511Z" transform="translate(-4.119 -5.379)" fill="#05112d"/>
        <path id="Path_1010433" data-name="Path 1010433" d="M14.061,39.328a.669.669,0,0,0-1.234.515,18.485,18.485,0,0,0,4.017,5.989.669.669,0,0,0,.945-.946,17.131,17.131,0,0,1-3.728-5.557Z" transform="translate(-4.284 -7.04)" fill="#05112d"/>
        <path id="Path_1010434" data-name="Path 1010434" d="M44.928,45.533a17.142,17.142,0,0,1-5.546,3.744A.668.668,0,1,0,39.9,50.51a18.452,18.452,0,0,0,5.978-4.035.668.668,0,1,0-.949-.942Z" transform="translate(-7.13 -7.737)" fill="#05112d"/>
        <path id="Path_1010435" data-name="Path 1010435" d="M43.546,30.4a13.016,13.016,0,0,0-2.721-8,.669.669,0,0,0-1.06.816A11.687,11.687,0,0,1,42.209,30.4a11.809,11.809,0,1,1-7.418-10.964.668.668,0,1,0,.5-1.24,13.148,13.148,0,1,0,8.258,12.2Z" transform="translate(-4.77 -4.687)" fill="#05112d"/>
        <path id="Path_1010436" data-name="Path 1010436" d="M39.1,19.885a.669.669,0,0,0,.185.927,12.047,12.047,0,0,1,1.112.837.669.669,0,1,0,.865-1.019,13.339,13.339,0,0,0-1.235-.931.668.668,0,0,0-.927.185Z" transform="translate(-7.131 -4.941)" fill="#05112d"/>
        <path id="Path_1010437" data-name="Path 1010437" d="M33.9,26.279a2.591,2.591,0,0,1,1.119,1.439.669.669,0,0,0,1.257-.457,3.885,3.885,0,0,0-1.619-2.084,5.1,5.1,0,0,0-2.5-.8v-1.46a.669.669,0,0,0-1.337,0v1.466c-2.421.2-3.871,1.449-3.9,3.438-.043,2.736,2.629,3.346,3.9,3.6v4.589a3.843,3.843,0,0,1-1.921-.575A2.587,2.587,0,0,1,27.78,34a.669.669,0,0,0-1.257.457,3.883,3.883,0,0,0,1.619,2.084,5.2,5.2,0,0,0,2.678.808v1.618a.669.669,0,0,0,1.337,0V37.319c2.271-.25,3.648-1.482,3.726-3.41.108-2.63-2.38-3.3-3.726-3.581V25.713a3.7,3.7,0,0,1,1.745.566Zm-5.648,1.564c.024-1.508,1.285-2.006,2.565-2.127v4.337C29.505,29.764,28.233,29.28,28.255,27.843Zm6.293,6.011c-.06,1.476-1.287,1.971-2.39,2.119V31.7C33.426,31.992,34.6,32.494,34.548,33.855Z" transform="translate(-5.773 -5.23)" fill="#05112d"/>
        <path id="Path_1010438" data-name="Path 1010438" d="M7.93,12.61a4.635,4.635,0,0,0,2.789-.945L13.251,14.2a.668.668,0,1,0,.945-.945L11.665,10.72a4.635,4.635,0,0,0,.945-2.79,4.68,4.68,0,1,0-4.68,4.68Zm0-8.023A3.343,3.343,0,1,1,4.587,7.93,3.347,3.347,0,0,1,7.93,4.587Z" transform="translate(-3.25 -3.166)" fill="#05112d"/>
        <path id="Path_1010439" data-name="Path 1010439" d="M48.829,14.3a.666.666,0,0,0,.473-.2l2.532-2.532a4.635,4.635,0,0,0,2.786.942,4.68,4.68,0,1,0-4.68-4.68,4.635,4.635,0,0,0,.948,2.794l-2.531,2.531a.669.669,0,0,0,.473,1.141Zm5.791-9.809a3.343,3.343,0,1,1-3.343,3.343A3.347,3.347,0,0,1,54.619,4.493Z" transform="translate(-8.127 -3.156)" fill="#05112d"/>
        <path id="Path_1010440" data-name="Path 1010440" d="M54.713,49.845a4.635,4.635,0,0,0-2.788.944l-2.533-2.533a.668.668,0,0,0-.945.945l2.533,2.533a4.635,4.635,0,0,0-.946,2.791,4.68,4.68,0,1,0,4.68-4.68Zm0,8.023a3.343,3.343,0,1,1,3.343-3.343A3.347,3.347,0,0,1,54.713,57.868Z" transform="translate(-8.137 -8.033)" fill="#05112d"/>
        <path id="Path_1010441" data-name="Path 1010441" d="M13.342,48.356l-2.528,2.528a4.635,4.635,0,0,0-2.789-.945A4.68,4.68,0,1,0,9.16,59.16a.668.668,0,1,0-.324-1.3A3.335,3.335,0,1,1,11.19,55.7a.668.668,0,1,0,1.266.429,4.628,4.628,0,0,0-.7-4.3L14.287,49.3a.668.668,0,1,0-.945-.945Z" transform="translate(-3.26 -8.044)" fill="#05112d"/>
      </g>
    </g>
  </g>
</svg>
