<svg xmlns="http://www.w3.org/2000/svg" width="96" height="96" viewBox="0 0 96 96">
  <g id="img28" transform="translate(-794.039 -2920.081)">
    <path id="Elipse_5729" data-name="Elipse 5729" d="M48,0A48,48,0,1,1,0,48,48,48,0,0,1,48,0Z" transform="translate(794.039 2920.081)" fill="#fdd1aa"/>
    <g id="Group_1181386" data-name="Group 1181386" transform="translate(804.674 2880.265)">
      <path id="Path_1010492" data-name="Path 1010492" d="M60.663,88.122a.689.689,0,0,0-.974,0l-.745.745-1.152-1.155a10.735,10.735,0,0,0-9.279-17.75l-1.5-3.523a.71.71,0,0,0-.633-.44H15.88a.71.71,0,0,0-.633.44L9.023,81.019a.731.731,0,0,0-.036.283v27.6a.7.7,0,0,0,.65.734H52.62a.728.728,0,0,0,.688-.734V90.754a11.177,11.177,0,0,0,3.509-2.067l1.152,1.155-.758.758a.689.689,0,0,0,0,.974l4.374,4.374a2.438,2.438,0,0,0,3.447,0l.067-.067.025-.026a2.455,2.455,0,0,0-.091-3.359ZM47.119,70.177a10.831,10.831,0,0,0-8.129,10.4H32.066v-13.2H45.922Zm-30.784-2.8H30.688v13.2H10.682Zm19.176,40.876h-9.3V90.237l9.3,6.313Zm16.419,0H36.888V96.186a.712.712,0,0,0-.324-.569L25.931,88.364a.709.709,0,0,0-.721-.04.7.7,0,0,0-.378.609v19.321H10.365V81.96h28.71a10.766,10.766,0,0,0,10.651,9.394,10.58,10.58,0,0,0,2.2-.213Zm-2.2-18.263a9.36,9.36,0,1,1,9.36-9.36,9.36,9.36,0,0,1-9.36,9.36Zm14.385,4.926-.049.049a1.056,1.056,0,0,1-1.507,0l-3.883-3.883,1.5-1.5,3.887,3.887a1.065,1.065,0,0,1,.049,1.446Z" fill="#643d2b"/>
      <path id="Path_1010493" data-name="Path 1010493" d="M304.372,126.282a7.71,7.71,0,1,0,7.71,7.71A7.71,7.71,0,0,0,304.372,126.282Zm0,14.042a6.332,6.332,0,1,1,6.332-6.332A6.332,6.332,0,0,1,304.372,140.324Z" transform="translate(-254.645 -53.36)" fill="#643d2b"/>
    </g>
  </g>
</svg>
