<svg xmlns="http://www.w3.org/2000/svg" width="96" height="96" viewBox="0 0 96 96">
  <g id="img25" transform="translate(-794.039 -2920.081)">
    <path id="Elipse_5729" data-name="Elipse 5729" d="M48,0A48,48,0,1,1,0,48,48,48,0,0,1,48,0Z" transform="translate(794.039 2920.081)" fill="#fdd1aa"/>
    <g id="Group_1181385" data-name="Group 1181385" transform="translate(799.992 2930.895)">
      <path id="Path_1010490" data-name="Path 1010490" d="M65.607,60.984H64.4V58.839a.923.923,0,0,0-.27-.653L62.55,56.6a.922.922,0,0,0-.653-.27h-.352V35.626H65.6a.922.922,0,0,0,.923-.923V29.262a.922.922,0,0,0-.567-.851L49.84,21.677a12.259,12.259,0,1,0-15.586,0L18.131,28.411a.923.923,0,0,0-.567.851V34.7a.923.923,0,0,0,.923.923h4.06V56.334h-.352a.922.922,0,0,0-.652.27l-1.582,1.582a.924.924,0,0,0-.27.653v2.145h-1.2a.923.923,0,0,0-.923.923v4.635a.923.923,0,0,0,.923.923h47.12a.923.923,0,0,0,.923-.923V61.907A.923.923,0,0,0,65.607,60.984Zm-3.052-1.763v1.763H52.227V59.221l1.041-1.041h8.247Zm-13.5,1.763V58.839a.925.925,0,0,0-.27-.653L47.206,56.6a.922.922,0,0,0-.652-.27H46.2V35.626h7.036V56.334h-.352a.922.922,0,0,0-.653.27l-1.582,1.582a.923.923,0,0,0-.27.653v2.145Zm-15.343,0V58.839a.924.924,0,0,0-.27-.653L31.863,56.6a.922.922,0,0,0-.652-.27h-.352V35.626h7.035V56.334h-.352a.922.922,0,0,0-.652.27l-1.582,1.582a.924.924,0,0,0-.27.653v2.145Zm15.854-27.2H34.525V32.192l2.1-2.1H47.473l2.1,2.1ZM44.355,56.334H39.739V35.626h4.616Zm-7.473,2.887,1.041-1.041H46.17l1.041,1.041v1.764H36.883ZM59.7,56.334H55.083V35.626H59.7Zm-28.066-44.1a10.414,10.414,0,1,1,15.269,9.2,10.3,10.3,0,0,1-2.726.99.923.923,0,0,0-.531.325l-1.6,1.983-1.6-1.985a.923.923,0,0,0-.531-.325,10.269,10.269,0,0,1-2.749-1,10.459,10.459,0,0,1-5.537-9.191ZM19.409,29.877l16.639-6.95a12.94,12.94,0,0,0,3.167,1.238l2.114,2.623a.929.929,0,0,0,1.437,0l2.114-2.623a12.956,12.956,0,0,0,3.167-1.238l16.638,6.95v3.9H51.414V31.808a.924.924,0,0,0-.27-.653l-2.636-2.636a.923.923,0,0,0-.652-.27H36.238a.922.922,0,0,0-.652.27L32.95,31.155a.921.921,0,0,0-.27.653v1.973H19.409Zm4.985,5.75H29.01V56.334H24.394ZM21.537,59.221l1.041-1.041h8.246l1.041,1.041v1.763H21.537Zm43.147,6.4H19.409v-2.79H64.684Z" fill="#643d2b"/>
      <path id="Path_1010491" data-name="Path 1010491" d="M51.337,22.508a2.9,2.9,0,0,0,2.9-2.9V18.191a.923.923,0,0,0-.923-.923H52.259V15.687h3.46V23H54.188a.923.923,0,0,0,0,1.845H59.1A.923.923,0,1,0,59.1,23H57.565V15.687h3.46v1.582H59.97a.923.923,0,0,0-.923.923v1.417a2.9,2.9,0,1,0,5.8,0V18.191a.923.923,0,0,0-.923-.923H62.87V15.687h.709a.923.923,0,1,0,0-1.845h-.712a.92.92,0,0,0-1.838,0H57.565v-.791a.923.923,0,0,0-1.845,0v.791H52.256a.92.92,0,0,0-1.838,0h-.712a.923.923,0,0,0,0,1.845h.708v1.582H49.36a.923.923,0,0,0-.923.923v1.417A2.9,2.9,0,0,0,51.337,22.508ZM63,19.608a1.054,1.054,0,1,1-2.109,0v-.494H63Zm-12.72-.494h2.109v.494a1.054,1.054,0,1,1-2.109,0Z" transform="translate(-14.596 -5.756)" fill="#643d2b"/>
    </g>
  </g>
</svg>
