<svg xmlns="http://www.w3.org/2000/svg" width="396" height="236" viewBox="0 0 396 236">
  <g id="img20" transform="translate(-185.711 -5777)">
    <rect id="Rectangle_455444" data-name="Rectangle 455444" width="396" height="236" rx="10" transform="translate(185.711 5777)" fill="#f4e9ff"/>
    <path id="Path_1010442" data-name="Path 1010442" d="M26.486-11.9A4.436,4.436,0,0,0,24.809-15.6a20.838,20.838,0,0,0-5.891-2.738,56.515,56.515,0,0,1-6.891-2.738Q3.322-25.348,3.322-32.823A10.537,10.537,0,0,1,5.491-39.39a14.027,14.027,0,0,1,6.137-4.43A23.882,23.882,0,0,1,20.549-45.4a20.89,20.89,0,0,1,8.659,1.723,13.71,13.71,0,0,1,5.952,4.906A12.813,12.813,0,0,1,37.283-31.5H26.517a5.414,5.414,0,0,0-1.677-4.245A6.535,6.535,0,0,0,20.3-37.252a7.369,7.369,0,0,0-4.568,1.277,3.916,3.916,0,0,0-1.677,3.245A3.943,3.943,0,0,0,15.9-29.608a23.276,23.276,0,0,0,6.491,2.892A39.762,39.762,0,0,1,30.023-23.5q7.26,4.184,7.26,11.536a10.936,10.936,0,0,1-4.43,9.229Q28.424.615,20.7.615a24.107,24.107,0,0,1-9.859-1.953A14.865,14.865,0,0,1,4.2-6.691a13.947,13.947,0,0,1-2.23-7.829H12.8q0,3.6,1.861,5.306T20.7-7.506a6.949,6.949,0,0,0,4.23-1.154A3.807,3.807,0,0,0,26.486-11.9ZM68.26-8.367h-14.8L50.88,0H39.344L55.771-44.789H65.922L82.472,0h-11.6ZM56.048-16.7h9.628l-4.83-15.535Zm46.327.861H96.53V0h-10.8V-44.789h17.626q7.967,0,12.458,3.534t4.491,9.987a14.542,14.542,0,0,1-1.892,7.744,13.428,13.428,0,0,1-5.922,4.978L121.847-.462V0H110.281ZM96.53-24.148h6.829a6.13,6.13,0,0,0,4.63-1.619,6.259,6.259,0,0,0,1.553-4.518,6.333,6.333,0,0,0-1.569-4.549,6.073,6.073,0,0,0-4.614-1.65H96.53Zm41.1,15.842h18.8V0H126.831V-44.789h10.8ZM187-8.367H172.2L169.62,0H158.084l16.427-44.789h10.151L201.212,0h-11.6ZM174.788-16.7h9.628l-4.83-15.535Zm57.894-1.138H215.271V0h-10.8V-44.789h29.962v8.336H215.271v10.305h17.411ZM274.7-36.453H261.259V0h-10.8V-36.453h-13.2v-8.336H274.7Z" transform="translate(245.742 5917.404)" fill="#12263f"/>
    <g id="Rectangle_456718" data-name="Rectangle 456718" transform="translate(220.711 5843)" fill="none" stroke="#97a8e8" stroke-width="5">
      <rect width="326" height="105" rx="10" stroke="none"/>
      <rect x="2.5" y="2.5" width="321" height="100" rx="7.5" fill="none"/>
    </g>
  </g>
</svg>
