<svg xmlns="http://www.w3.org/2000/svg" width="74" height="74" viewBox="0 0 74 74">
  <g id="img6" transform="translate(-527.711 -1658)">
    <rect id="Rectangle_455438" data-name="Rectangle 455438" width="74" height="74" transform="translate(527.711 1658)" fill="#cfde90"/>
    <g id="Group_1181280" data-name="Group 1181280" transform="translate(478.731 1668.999)">
      <g id="Group_1181279" data-name="Group 1181279" transform="translate(67.008 1.025)">
        <path id="Path_1010298" data-name="Path 1010298" d="M111.6,35.261h30.633a1.506,1.506,0,0,1,.2-1.182c2.038-3.039.612-4.443-1.421-4.655-1.618-.169-3.462-.06-3.842-.654-1.359-2.119-2.5-2.538-3.777-2.67-8.61-.891-3.971-4.11-6.622-5.476-3.224-1.66,1.637-7.354,5.141-7.5,2.3-.1-.444-6.3-6.1-1.1-.958.881-4.02,1.731-5.695,2.223-1.93.567-.92,1.314-2.52,3.712-1.543,2.313-1.34.238-2.066,1.669-.911,1.8-1.751,2.013-2.425,2.065-1.889.146-3.637,3.477-2.346,5.31,1.415,2.01.457,7.113.65,7.584a3.393,3.393,0,0,1,.194.681Z" transform="translate(-106.78 -9.943)" fill="#ffc144" fill-rule="evenodd"/>
        <path id="Path_1010299" data-name="Path 1010299" d="M111.428,255.943H80.8c.373,2.053-.781,4.924-2.5,5.026-3.266.194-.982,1.632-2.058,2.285-1.014.615,1.136,2.531,1.5,2.516,2.3-.091,4.56,4.471,5.871,2.218.164-.281,1.458.062,2.858.614h18.072c.509-1.172,1.728-.657,2.184-1.536.792-1.528-.99-2.844.13-3.515,2.22-1.33,3.516,2.283,5.6,1.045,1.8-1.065-1.417-4.319-.414-5.438.722-.805-.394-2.041-.624-3.214Z" transform="translate(-75.972 -230.625)" fill="#60a4ff" fill-rule="evenodd"/>
        <path id="Path_1010300" data-name="Path 1010300" d="M196.1,378.943H178.025c1.762.694,3.692,1.718,3.756,2.243.246,2.011,1.523.825,1.5,1.715-.063,2.113,1.517,1.345,1.6,1.951.395,2.863,4.051,1.425,4.948,1.32,4.229-.494,2.271,5.839,4.809,5.409s1.181-3.51,1.561-6.082c.263-1.78,1.062-1.948.515-3.947-.35-1.278-1.015-1.636-.63-2.573Z" transform="translate(-167.522 -340.966)" fill="#ff5a58" fill-rule="evenodd"/>
      </g>
      <path id="Path_1010301" data-name="Path 1010301" d="M113.329,203a1.029,1.029,0,0,0,1.029-1.029h0a1.029,1.029,0,1,0-1.029,1.03Z" transform="translate(-41.553 -180.262)"/>
      <path id="Path_1010302" data-name="Path 1010302" d="M105.057,33.563a8.167,8.167,0,0,0-.663-2.011,6.107,6.107,0,0,1-.478-1.382c.831-1.013.288-2.229-.075-3.041-.3-.662-.492-1.15-.327-1.4,1.154-1.72,1.454-3.2.894-4.4a3.571,3.571,0,0,0-3.063-1.857c-.462-.048-.927-.074-1.377-.1a9.458,9.458,0,0,1-1.777-.2c-1.494-2.281-2.869-2.863-4.466-3.028-2.772-.287-3.872-.807-4.306-1.193-.362-.322-.387-.655-.407-1.319a2.87,2.87,0,0,0-1.544-2.856c-.378-.195-.6-.46-.455-1.122.387-1.759,3.125-4.35,5.168-4.437a1.8,1.8,0,0,0,1.733-1.377A3.23,3.23,0,0,0,92.257.54c-.9-.539-3.388-1.442-6.915,1.8-.717.659-3.565,1.49-4.934,1.89l-.354.1A2.71,2.71,0,0,0,77.877,6.5a6.581,6.581,0,0,1-.91,1.959,5.122,5.122,0,0,1-.513.674c-.982-.146-1.436.748-1.614,1.1-.729,1.438-1.245,1.478-1.586,1.5a3.712,3.712,0,0,0-2.567,1.551,5.265,5.265,0,0,0-1.116,3.96,1.029,1.029,0,0,0,2.029-.346,3.251,3.251,0,0,1,.71-2.348,1.788,1.788,0,0,1,1.1-.765c.926-.072,2.128-.428,3.228-2.557.789-.024,1.4-.675,2.039-1.632a8.607,8.607,0,0,0,1.167-2.5c.188-.617.188-.617.787-.793l.35-.1c2.466-.719,4.761-1.441,5.751-2.35,1.749-1.609,3.369-2.178,4.443-1.562a1.52,1.52,0,0,1,.725.893,7.851,7.851,0,0,0-4.249,2.054A7.981,7.981,0,0,0,85,9.225a2.878,2.878,0,0,0,1.523,3.395c.362.186.406.3.429,1.087a3.515,3.515,0,0,0,1.1,2.8c.988.877,2.723,1.418,5.461,1.7.94.1,1.816.33,3.017,2.2.562.876,1.781.944,3.324,1.03.426.024.866.048,1.278.092a1.715,1.715,0,0,1,1.413.683c.223.476-.047,1.342-.74,2.376a2.382,2.382,0,0,0-.331.726H71.831a1.029,1.029,0,0,0-1.013,1.213,4.568,4.568,0,0,1-.786,3.3,1.234,1.234,0,0,1-.758.518,3.134,3.134,0,0,0-2.483.909,1.916,1.916,0,0,0-.262,1.641l.006.029a1.588,1.588,0,0,0-.473,1.74c.289.96,1.761,2.58,2.76,2.537h.028c.607,0,1.484.749,2.19,1.353.957.818,1.865,1.59,2.914,1.481h.035a1.023,1.023,0,0,0,.534-.151,2.057,2.057,0,0,0,.7-.531,14.241,14.241,0,0,1,2.547.874,11.1,11.1,0,0,1,2.5,1.366,2.063,2.063,0,0,0,1.476,1.9,2.166,2.166,0,0,0,1.7,2.066,2.8,2.8,0,0,0,1.111,1.608c1.344.919,3.238.469,4.37.2.2-.047.419-.1.5-.11,1.265-.148,1.588.415,2.041,2.428a6.934,6.934,0,0,0,.624,1.924,2,2,0,0,0,1.784,1.085,2.467,2.467,0,0,0,.413-.036,2.673,2.673,0,0,0,2.283-1.988,8.337,8.337,0,0,0,.114-2.7,11.364,11.364,0,0,1,.01-2.259,5.367,5.367,0,0,1,.349-1.241,4.28,4.28,0,0,0,.141-3.128,6.866,6.866,0,0,0-.513-1.29c-.225-.456-.221-.465-.157-.621.074-.179.114-.214.565-.347a2.332,2.332,0,0,0,1.6-1.143,3.429,3.429,0,0,0,.006-2.874c-.033-.1-.074-.215-.1-.314.418-.179.774-.01,1.631.569.885.6,2.224,1.5,3.811.56a2.172,2.172,0,0,0,1.031-2.317ZM95.126,43.735a7.368,7.368,0,0,0-.461,1.672,13.072,13.072,0,0,0-.028,2.684c.13,2.157-.024,2.421-.687,2.534l-.039.005a5.5,5.5,0,0,1-.43-1.4,7.44,7.44,0,0,0-.99-2.691,3.179,3.179,0,0,0-2.737-1.364,4.828,4.828,0,0,0-.562.034,6.884,6.884,0,0,0-.741.152c-.694.165-2.139.509-2.731.1a.894.894,0,0,1-.337-.695A1.466,1.466,0,0,0,84.1,43.594a1.792,1.792,0,0,1-.243-.065,1.3,1.3,0,0,1-.06-.54,1.357,1.357,0,0,0-1.36-1.462l-.057-.007a1.765,1.765,0,0,1-.087-.4,1.663,1.663,0,0,0-.673-1.089H94.472a3.954,3.954,0,0,0,.36.93,4.869,4.869,0,0,1,.373.922A2.309,2.309,0,0,1,95.126,43.735Zm7.9-9.659a.189.189,0,0,1-.045.033c-.392.233-.648.154-1.609-.5-.919-.621-2.309-1.559-4-.547a2.007,2.007,0,0,0-.629,2.664c.188.548.294.9.117,1.254a2.244,2.244,0,0,1-.351.122,2.827,2.827,0,0,0-1.489.866H77.7a13.775,13.775,0,0,0-2.013-.628c-.4-.082-1.449-.3-1.928.525a1,1,0,0,1-.062.1,7.045,7.045,0,0,1-1.323-.981,6.088,6.088,0,0,0-3.388-1.843,4.083,4.083,0,0,1-.846-.863,1.846,1.846,0,0,0,.408-1.772,4.681,4.681,0,0,1,.844-.11,3.112,3.112,0,0,0,2.254-1.3,6.619,6.619,0,0,0,1.275-3.722h28.783c.084.216.174.416.255.6a4.015,4.015,0,0,1,.336.926c-.855.986-.293,2.3.2,3.465A4.745,4.745,0,0,1,103.022,34.076Z" transform="translate(0 0)"/>
    </g>
  </g>
</svg>
