<svg xmlns="http://www.w3.org/2000/svg" width="292" height="261.116" viewBox="0 0 292 261.116">
  <g id="img7" transform="translate(-1121.711 -2319.884)">
    <path id="Rectangle_455329" data-name="Rectangle 455329" d="M20,0H272a20,20,0,0,1,20,20V261.116a0,0,0,0,1,0,0H0a0,0,0,0,1,0,0V20A20,20,0,0,1,20,0Z" transform="translate(1121.711 2319.884)" fill="#fa996c"/>
    <g id="_12953779_Jan-Business_team_3" data-name="12953779_Jan-Business_team_3" transform="translate(952.131 2087.104)">
      <g id="OBJECTS" transform="translate(187.823 270.039)">
        <g id="Group_1181331" data-name="Group 1181331" transform="translate(0 0)">
          <g id="Group_1181282" data-name="Group 1181282" transform="translate(5.205)">
            <circle id="Ellipse_13761" data-name="Ellipse 13761" cx="12.498" cy="12.498" r="12.498" transform="translate(214.958 134.488) rotate(-45)" fill="#e5e5ff" opacity="0.4"/>
            <circle id="Ellipse_13762" data-name="Ellipse 13762" cx="19.067" cy="19.067" r="19.067" transform="translate(0 47.246) rotate(-45)" fill="#e5e5ff" opacity="0.4"/>
            <circle id="Ellipse_13763" data-name="Ellipse 13763" cx="9.94" cy="9.94" r="9.94" transform="translate(82.978 9.036)" fill="#e5e5ff" opacity="0.4"/>
            <path id="Path_1010303" data-name="Path 1010303" d="M674.593,293.929a11.938,11.938,0,0,1-1.845-.144l.059-.374a11.556,11.556,0,0,0,1.787.139h.069l0,.379Zm1.987-.168-.063-.373a11.66,11.66,0,0,0,1.8-.458l.122.358A12.027,12.027,0,0,1,676.581,293.761Zm-5.7-.426a12.056,12.056,0,0,1-1.773-.742l.174-.337a11.661,11.661,0,0,0,1.717.718Zm9.328-.809-.178-.335a11.563,11.563,0,0,0,1.568-1l.229.3A11.922,11.922,0,0,1,680.208,292.526Zm-12.733-.947a11.957,11.957,0,0,1-1.448-1.263l.271-.265a11.574,11.574,0,0,0,1.4,1.223Zm15.784-1.37-.275-.261a11.61,11.61,0,0,0,1.168-1.448l.313.213A11.966,11.966,0,0,1,683.259,290.209ZM664.8,288.836a11.96,11.96,0,0,1-.972-1.658l.341-.165a11.568,11.568,0,0,0,.941,1.605Zm20.617-1.792-.343-.161a11.688,11.688,0,0,0,.653-1.743l.364.1A12.05,12.05,0,0,1,685.418,287.044Zm-22.284-1.657a11.952,11.952,0,0,1-.4-1.88l.376-.049a11.614,11.614,0,0,0,.389,1.82Zm23.336-2.027-.376-.044a11.564,11.564,0,0,0,.079-1.349c0-.17,0-.342-.011-.512l.378-.017c.008.175.012.353.012.528A11.932,11.932,0,0,1,686.469,283.36ZM663.017,281.6l-.379-.012a11.954,11.954,0,0,1,.217-1.91l.372.073A11.56,11.56,0,0,0,663.017,281.6Zm22.911-1.99a11.7,11.7,0,0,0-.526-1.786l.354-.136a12.065,12.065,0,0,1,.544,1.844Zm-22.2-1.651-.355-.131a12.064,12.064,0,0,1,.808-1.743l.33.186A11.678,11.678,0,0,0,663.731,277.957Zm21.636-.223a11.69,11.69,0,0,0-.816-1.673l.326-.193a12.061,12.061,0,0,1,.842,1.727Zm-19.811-3.008-.3-.237a11.924,11.924,0,0,1,1.318-1.4l.254.281A11.576,11.576,0,0,0,665.556,274.727Zm17.922-.185a11.574,11.574,0,0,0-1.3-1.326l.248-.286a11.921,11.921,0,0,1,1.347,1.37Zm-15.169-2.3-.205-.318a12.013,12.013,0,0,1,1.694-.908l.152.347A11.618,11.618,0,0,0,668.309,272.241Zm12.363-.125a11.681,11.681,0,0,0-1.658-.846l.145-.35a12.088,12.088,0,0,1,1.712.874Zm-8.963-1.361-.095-.367a11.915,11.915,0,0,1,1.894-.329l.034.377A11.571,11.571,0,0,0,671.709,270.755Zm5.534-.057a11.587,11.587,0,0,0-1.84-.281l.027-.378a11.979,11.979,0,0,1,1.9.29Z" transform="translate(-595.906 -270.039)" fill="#9192ff"/>
            <path id="Path_1010304" data-name="Path 1010304" d="M1298.841,848.825l-.007-.379c.628-.011,1.261-.036,1.883-.076l.024.378C1300.114,848.788,1299.474,848.814,1298.841,848.825Zm-1.9-.011c-.631-.018-1.27-.052-1.9-.1l.028-.378c.623.047,1.256.08,1.881.1Zm5.7-.232-.042-.376c.622-.069,1.25-.154,1.867-.252l.059.374C1303.9,848.426,1303.263,848.512,1302.636,848.582Zm-9.489-.056c-.625-.077-1.258-.17-1.882-.276l.064-.373c.618.106,1.245.2,1.864.274Zm13.245-.541-.077-.371c.614-.128,1.231-.271,1.835-.427l.094.367C1307.634,847.711,1307.012,847.856,1306.392,847.985Zm-16.993-.1c-.617-.136-1.238-.288-1.847-.453l.1-.366c.6.163,1.219.314,1.83.449Zm20.674-.85-.112-.362c.6-.185,1.2-.386,1.786-.6l.129.356C1311.284,846.646,1310.678,846.849,1310.073,847.035Zm-24.345-.142c-.6-.193-1.206-.4-1.8-.627l.133-.355c.588.221,1.188.43,1.783.621Zm27.918-1.15-.146-.35c.574-.239,1.152-.5,1.718-.763l.162.342C1314.81,845.243,1314.225,845.5,1313.646,845.743Zm-31.487-.189c-.581-.25-1.164-.518-1.732-.795l.166-.34c.562.275,1.139.539,1.715.787Zm34.919-1.432-.178-.334c.551-.293,1.1-.6,1.64-.923l.193.326C1318.19,843.511,1317.634,843.825,1317.078,844.122Zm-38.343-.239c-.553-.3-1.107-.624-1.648-.954l.2-.323c.536.327,1.085.645,1.633.945Zm41.608-1.7-.209-.316c.523-.345,1.043-.706,1.547-1.073l.223.306C1321.4,841.469,1320.871,841.834,1320.342,842.181Zm-44.856-.283c-.521-.354-1.043-.725-1.55-1.1l.227-.3c.5.376,1.019.744,1.536,1.094Zm47.927-1.954-.237-.3c.487-.391.972-.8,1.44-1.213l.251.284C1324.394,839.136,1323.9,839.548,1323.413,839.943Zm-50.974-.326c-.488-.4-.972-.821-1.439-1.244l.255-.281c.463.42.943.834,1.426,1.232Zm53.823-2.191-.264-.272c.449-.435.893-.887,1.321-1.343l.276.259C1327.165,836.532,1326.716,836.988,1326.263,837.427Zm-56.641-.364c-.448-.446-.891-.908-1.316-1.373l.279-.256c.421.46.86.918,1.3,1.36Zm59.244-2.41-.288-.246c.407-.477.808-.969,1.19-1.462l.3.232C1329.681,833.676,1329.277,834.171,1328.866,834.653Zm-61.812-.4c-.4-.486-.8-.987-1.182-1.489l.3-.228c.376.5.77.994,1.171,1.475Zm64.145-2.61-.31-.218c.361-.513.714-1.04,1.049-1.568l.319.2C1331.919,830.6,1331.563,831.13,1331.2,831.647Zm-66.436-.421c-.356-.52-.7-1.056-1.036-1.592l.322-.2c.328.532.674,1.062,1.026,1.577Zm68.477-2.792-.329-.188c.31-.543.612-1.1.9-1.66l.337.172C1333.858,827.323,1333.554,827.887,1333.24,828.434ZM1262.766,828c-.306-.552-.6-1.117-.882-1.682l.339-.168c.276.559.57,1.12.873,1.666Zm72.205-2.954-.345-.156c.259-.573.506-1.158.736-1.739l.352.139C1335.482,823.873,1335.232,824.463,1334.972,825.042Zm-73.889-.448c-.253-.578-.495-1.169-.719-1.756l.354-.135c.222.582.462,1.167.712,1.739Zm75.292-3.1-.358-.123c.2-.591.393-1.2.567-1.8l.364.105C1336.772,820.29,1336.578,820.9,1336.375,821.5Zm-76.647-.453c-.2-.6-.383-1.214-.551-1.821l.365-.1c.166.6.35,1.208.545,1.8Zm77.7-3.2-.368-.088c.145-.607.278-1.227.394-1.842l.372.07C1337.712,816.606,1337.579,817.233,1337.432,817.845Zm-78.719-.467c-.139-.613-.265-1.241-.376-1.864l.373-.066c.11.618.235,1.239.372,1.847Zm79.426-3.269-.375-.053c.087-.617.161-1.247.219-1.871l.377.035C1338.3,812.85,1338.228,813.485,1338.14,814.109Zm-80.09-.474c-.08-.624-.147-1.26-.2-1.892l.378-.031c.051.625.117,1.255.2,1.874Zm80.443-3.313-.379-.017c.029-.622.044-1.256.044-1.884h.379C1338.537,809.055,1338.521,809.694,1338.493,810.321Zm-80.75-.477c-.016-.47-.024-.949-.024-1.423q0-.24,0-.479l.379,0q0,.237,0,.474c0,.47.008.944.024,1.41Zm80.4-2.354c-.014-.626-.043-1.259-.087-1.882l.378-.026c.044.629.073,1.268.088,1.9Zm-79.984-1.427-.378-.022c.037-.632.089-1.27.155-1.9l.377.04C1258.252,804.805,1258.2,805.437,1258.164,806.063Zm79.723-2.33c-.072-.62-.161-1.247-.262-1.866l.374-.062c.1.624.192,1.258.265,1.883Zm-79.328-1.415-.374-.057c.1-.625.207-1.255.332-1.873l.371.075C1258.764,801.074,1258.653,801.7,1258.559,802.317Zm78.715-2.3c-.13-.61-.277-1.227-.437-1.833l.366-.1c.161.612.31,1.234.441,1.85Zm-77.972-1.39-.367-.092c.154-.612.325-1.229.508-1.833l.363.11C1259.626,797.407,1259.456,798.018,1259.3,798.624Zm77.01-2.252c-.188-.6-.393-1.2-.609-1.783l.355-.131c.218.592.425,1.2.615,1.8Zm-75.916-1.358-.357-.127c.212-.6.441-1.2.681-1.781l.35.143C1260.833,793.83,1260.606,794.423,1260.4,795.014Zm74.617-2.173c-.242-.573-.5-1.15-.773-1.714l.341-.164c.273.569.536,1.151.78,1.73Zm-73.187-1.321-.343-.16c.266-.571.551-1.146.846-1.707l.335.176C1262.374,790.386,1262.092,790.955,1261.827,791.521Zm71.56-2.069c-.3-.548-.609-1.1-.931-1.635l.325-.2c.326.542.642,1.1.94,1.65Zm-69.8-1.271-.327-.192c.32-.544.657-1.089,1-1.619l.317.207C1264.233,787.1,1263.9,787.642,1263.583,788.181Zm67.865-1.953c-.346-.519-.71-1.038-1.082-1.541l.3-.225c.375.508.742,1.031,1.092,1.556Zm-65.806-1.2-.307-.222c.369-.511.756-1.022,1.149-1.517l.3.236C1266.392,784.01,1266.009,784.516,1265.642,785.022Zm63.571-1.825c-.394-.485-.8-.967-1.222-1.434l.282-.252c.421.471.835.958,1.233,1.447Zm-61.224-1.125-.285-.249c.416-.476.849-.947,1.286-1.4l.273.262C1268.83,781.134,1268.4,781.6,1267.989,782.072Zm58.715-1.684c-.439-.447-.893-.889-1.351-1.314l.258-.278c.462.429.921.875,1.364,1.326Zm-56.1-1.032-.26-.275c.458-.434.933-.863,1.411-1.275l.247.287C1271.525,778.5,1271.054,778.926,1270.6,779.356Zm53.342-1.531c-.477-.4-.97-.8-1.468-1.182l.23-.3c.5.385,1,.787,1.482,1.194Zm-50.49-.928-.234-.3c.5-.389,1.009-.772,1.523-1.137l.22.309C1274.452,776.132,1273.944,776.511,1273.452,776.9Zm47.5-1.367c-.515-.358-1.044-.708-1.573-1.04l.2-.321c.535.335,1.069.689,1.588,1.05Zm-44.432-.814-.2-.319c.531-.341,1.076-.674,1.622-.989l.19.328C1277.587,774.048,1277.047,774.378,1276.52,774.716Zm41.238-1.191c-.545-.308-1.105-.606-1.665-.888l.17-.338c.565.284,1.13.586,1.681.9Zm-37.979-.692-.174-.336c.559-.289,1.133-.569,1.707-.831l.158.344C1280.9,772.27,1280.332,772.547,1279.779,772.833Zm34.608-1c-.572-.255-1.159-.5-1.743-.726l.137-.353c.589.23,1.181.476,1.759.733Zm-31.192-.562-.141-.351c.587-.236,1.186-.461,1.781-.668l.125.358C1284.371,770.811,1283.777,771.033,1283.2,771.267Zm27.674-.807c-.593-.2-1.2-.386-1.8-.557l.1-.364c.607.172,1.218.361,1.817.562Zm-24.115-.431-.107-.363c.6-.179,1.222-.346,1.836-.5l.09.368C1287.964,769.686,1287.352,769.851,1286.754,770.029Zm20.489-.6c-.609-.142-1.229-.271-1.845-.384l.068-.373c.621.114,1.248.244,1.862.388Zm-16.831-.3-.073-.372c.62-.121,1.25-.229,1.875-.32l.055.375C1291.651,768.906,1291.026,769.013,1290.413,769.133Zm13.126-.38c-.62-.084-1.25-.154-1.873-.208l.033-.377c.629.055,1.265.126,1.89.21Zm-9.4-.167-.037-.377c.627-.062,1.265-.11,1.9-.143l.02.378C1295.393,768.477,1294.761,768.524,1294.14,768.586Zm5.646-.162c-.55-.022-1.108-.034-1.659-.034h-.225l0-.379h.227c.556,0,1.119.011,1.674.034Z" transform="translate(-1100.829 -692.566)" fill="#9192ff"/>
            <path id="Path_1010305" data-name="Path 1010305" d="M294.22,711.016c-.636,0-1.276-.03-1.9-.078l.029-.378c.619.047,1.251.073,1.878.077Zm1.906-.056-.025-.378c.622-.04,1.251-.1,1.87-.188l.051.375C297.395,710.855,296.757,710.919,296.126,710.959Zm-5.7-.235c-.628-.093-1.258-.211-1.874-.349l.083-.37c.607.136,1.229.251,1.847.344Zm9.478-.283-.078-.37c.61-.129,1.224-.282,1.823-.454l.1.364C301.141,710.156,300.519,710.311,299.9,710.441Zm-13.2-.548c-.607-.183-1.215-.39-1.807-.615l.135-.354c.584.223,1.183.427,1.781.607Zm16.859-.505-.131-.356c.584-.215,1.169-.454,1.737-.711l.156.345C304.747,708.927,304.155,709.17,303.562,709.388Zm-20.423-.854c-.574-.268-1.145-.56-1.7-.869l.185-.331c.546.3,1.109.592,1.675.856Zm23.892-.714-.18-.333c.548-.3,1.092-.617,1.618-.953l.2.319C308.138,707.193,307.586,707.519,307.03,707.82Zm-27.222-1.143c-.529-.347-1.053-.718-1.557-1.1l.23-.3c.5.379,1.013.744,1.535,1.086Zm30.433-.907-.226-.3c.5-.372.994-.768,1.467-1.175l.247.287C311.249,704.991,310.748,705.392,310.24,705.77Zm-33.463-1.406c-.474-.419-.94-.86-1.384-1.312l.27-.265c.438.446.9.881,1.364,1.293Zm36.35-1.081-.267-.269c.443-.44.875-.9,1.285-1.372l.285.249C314.015,702.369,313.576,702.838,313.127,703.284Zm-39.02-1.638c-.41-.482-.808-.985-1.183-1.495l.305-.224c.369.5.761,1,1.166,1.474Zm41.525-1.234-.3-.228c.376-.5.738-1.017,1.077-1.541l.318.206C316.382,699.38,316.014,699.906,315.633,700.412Zm-43.781-1.835c-.337-.535-.659-1.089-.957-1.647l.334-.178c.294.55.611,1.1.944,1.624Zm45.852-1.366-.332-.182c.3-.548.586-1.113.846-1.68l.344.158C318.3,696.082,318.009,696.655,317.7,697.211Zm-47.646-1.993c-.257-.578-.5-1.172-.711-1.767l.356-.129c.211.586.447,1.171.7,1.741Zm49.238-1.473-.355-.133c.219-.584.419-1.184.6-1.782l.363.107C319.721,692.543,319.518,693.152,319.3,693.745Zm-50.532-2.109c-.172-.61-.323-1.233-.45-1.853l.371-.076c.125.611.274,1.225.443,1.826Zm51.607-1.547-.37-.08c.132-.609.244-1.231.333-1.849l.375.054C320.62,688.84,320.506,689.471,320.372,690.089ZM268,687.9c-.082-.627-.143-1.265-.18-1.9l.378-.022c.037.624.1,1.253.177,1.871Zm52.912-1.586-.378-.027c.044-.621.066-1.253.066-1.878h.379C320.979,685.047,320.956,685.688,320.912,686.318ZM268.153,684.1l-.379,0c.007-.634.037-1.274.089-1.9l.377.031C268.19,682.848,268.16,683.479,268.153,684.1Zm52.418-.953c-.03-.625-.082-1.255-.156-1.873l.376-.045c.075.627.128,1.266.158,1.9Zm-52.108-2.79-.374-.058c.1-.626.218-1.256.36-1.872l.369.085C268.677,679.124,268.558,679.744,268.462,680.361Zm51.663-.939c-.118-.613-.26-1.229-.422-1.831l.366-.1c.164.611.308,1.236.428,1.858ZM269.3,676.7l-.362-.111c.186-.606.4-1.213.626-1.8l.353.137C269.694,675.506,269.487,676.1,269.3,676.7Zm49.848-.906c-.2-.588-.433-1.177-.68-1.749l.348-.15c.25.581.482,1.178.69,1.775Zm-48.487-2.6-.342-.162c.271-.572.567-1.142.879-1.694l.33.186C271.223,672.07,270.931,672.632,270.664,673.2Zm47-.846c-.287-.554-.6-1.1-.924-1.635l.323-.2c.331.539.646,1.1.938,1.659Zm-45.153-2.426-.316-.21c.35-.527.724-1.049,1.111-1.55l.3.232C273.228,668.89,272.859,669.4,272.514,669.924Zm43.189-.773c-.364-.507-.75-1.007-1.149-1.487l.291-.242c.4.487.8.994,1.165,1.508Zm-40.892-2.2-.282-.252c.422-.472.866-.935,1.32-1.376l.264.272C275.665,666.028,275.227,666.484,274.811,666.95Zm38.492-.688c-.432-.45-.886-.891-1.349-1.309l.254-.281c.47.424.93.871,1.368,1.328Zm-35.8-1.928-.244-.29c.484-.407.989-.8,1.5-1.174l.223.306C278.482,663.542,277.984,663.932,277.507,664.333Zm33.009-.591c-.492-.385-1-.756-1.522-1.1l.211-.314c.525.353,1.044.73,1.544,1.12Zm-29.97-1.615-.2-.322c.537-.334,1.093-.653,1.653-.948l.176.335C281.624,661.484,281.075,661.8,280.546,662.128Zm26.851-.483c-.542-.311-1.1-.605-1.664-.876l.164-.341c.571.275,1.139.574,1.688.889Zm-23.53-1.266-.152-.347c.579-.253,1.175-.489,1.771-.7l.127.357C285.025,659.9,284.437,660.129,283.867,660.379Zm20.142-.364c-.581-.23-1.177-.441-1.774-.628l.113-.362c.6.19,1.21.4,1.8.637Zm-16.6-.889-.1-.365c.609-.168,1.234-.315,1.855-.439l.074.371C288.621,658.814,288.005,658.96,287.4,659.125Zm13.019-.236c-.607-.143-1.227-.266-1.843-.366l.06-.374c.625.1,1.254.225,1.87.371Zm-9.335-.5-.047-.376c.627-.078,1.266-.135,1.9-.169l.02.378C292.336,658.26,291.706,658.316,291.088,658.393Zm5.628-.1c-.62-.055-1.252-.088-1.876-.1l.007-.379c.634.011,1.274.045,1.9.1Z" transform="translate(-260.866 -599.064)" fill="#9192ff"/>
            <path id="Path_1010306" data-name="Path 1010306" d="M1110.675,340.855a6.391,6.391,0,1,1,6.391-6.391A6.4,6.4,0,0,1,1110.675,340.855Zm0-12.5a6.107,6.107,0,1,0,6.107,6.107A6.114,6.114,0,0,0,1110.675,328.356Z" transform="translate(-970.641 -319.28)" fill="#9192ff"/>
          </g>
          <g id="Group_1181303" data-name="Group 1181303" transform="translate(0 17.52)">
            <g id="Group_1181285" data-name="Group 1181285" transform="translate(35.501 22.467)">
              <g id="Group_1181283" data-name="Group 1181283">
                <path id="Path_1010307" data-name="Path 1010307" d="M599.445,539.566v115.17a4.339,4.339,0,0,1-4.337,4.341H427.741a4.34,4.34,0,0,1-4.341-4.341V539.566a4.34,4.34,0,0,1,4.341-4.341H595.107A4.34,4.34,0,0,1,599.445,539.566Z" transform="translate(-423.211 -535.036)" fill="#fff"/>
                <path id="Path_1010308" data-name="Path 1010308" d="M594.047,658.2H426.68a4.535,4.535,0,0,1-4.53-4.53V538.5a4.535,4.535,0,0,1,4.53-4.53H594.047a4.533,4.533,0,0,1,4.526,4.53v115.17A4.533,4.533,0,0,1,594.047,658.2ZM426.68,534.354a4.156,4.156,0,0,0-4.151,4.151v115.17a4.156,4.156,0,0,0,4.151,4.151H594.047a4.154,4.154,0,0,0,4.147-4.151V538.5a4.154,4.154,0,0,0-4.147-4.151Z" transform="translate(-422.15 -533.975)" fill="#9192ff"/>
              </g>
              <g id="Group_1181284" data-name="Group 1181284">
                <path id="Path_1010309" data-name="Path 1010309" d="M599.445,539.566V546.4H423.4v-6.833a4.34,4.34,0,0,1,4.341-4.341H595.107A4.34,4.34,0,0,1,599.445,539.566Z" transform="translate(-423.211 -535.036)" fill="#fff"/>
                <path id="Path_1010310" data-name="Path 1010310" d="M598.573,545.527H422.15V538.5a4.535,4.535,0,0,1,4.53-4.53H594.047a4.533,4.533,0,0,1,4.526,4.53v7.022Zm-176.045-.379H598.193V538.5a4.154,4.154,0,0,0-4.147-4.151H426.68a4.156,4.156,0,0,0-4.151,4.151Z" transform="translate(-422.15 -533.975)" fill="#9192ff"/>
              </g>
              <circle id="Ellipse_13764" data-name="Ellipse 13764" cx="2.02" cy="2.02" r="2.02" transform="translate(7.944 3.756)" fill="#3335cf"/>
              <path id="Path_1010311" data-name="Path 1010311" d="M527.436,558.767a2.02,2.02,0,1,0,2.02,2.02A2.022,2.022,0,0,0,527.436,558.767Z" transform="translate(-509.771 -555.011)" fill="#3335cf"/>
              <path id="Path_1010312" data-name="Path 1010312" d="M578.27,562.807a2.02,2.02,0,1,1,2.02-2.02A2.022,2.022,0,0,1,578.27,562.807Zm0-3.661a1.641,1.641,0,1,0,1.641,1.641A1.643,1.643,0,0,0,578.27,559.146Z" transform="translate(-552.903 -555.011)" fill="#9192ff"/>
              <path id="Path_1010313" data-name="Path 1010313" d="M694.793,561.754H657.249a2.249,2.249,0,0,1,0-4.5h37.545a2.249,2.249,0,1,1,0,4.5Zm-37.545-4.119a1.87,1.87,0,1,0,0,3.74h37.545a1.87,1.87,0,1,0,0-3.74Z" transform="translate(-619.722 -553.729)" fill="#9192ff"/>
            </g>
            <g id="Group_1181288" data-name="Group 1181288" transform="translate(92.644 54.753)">
              <path id="Path_1010314" data-name="Path 1010314" d="M864.988,779.747a32.837,32.837,0,1,1-36.156-32.672l1.095,10.776a21.99,21.99,0,1,0,23.366,15.787L863.7,770.63A32.768,32.768,0,0,1,864.988,779.747Z" transform="translate(-799.315 -747.075)" fill="#9192ff"/>
              <circle id="Ellipse_13765" data-name="Ellipse 13765" cx="26.513" cy="26.513" r="26.513" transform="translate(6.325 6.158)" fill="#fff"/>
              <circle id="Ellipse_13766" data-name="Ellipse 13766" cx="26.513" cy="26.513" r="26.513" transform="translate(6.325 6.158)" fill="#d1d1ff" opacity="0.5"/>
              <g id="Group_1181287" data-name="Group 1181287" transform="translate(14.058 13.887)">
                <ellipse id="Ellipse_13767" data-name="Ellipse 13767" cx="18.779" cy="18.784" rx="18.779" ry="18.784" fill="#fff"/>
                <g id="Group_1181286" data-name="Group 1181286" transform="translate(10.685 6.691)">
                  <path id="Path_1010315" data-name="Path 1010315" d="M972.871,904.229v2.856h-3.628v-2.727a15.138,15.138,0,0,1-6.61-1.8l1.954-4.426a12.351,12.351,0,0,0,5.942,1.647c1.724,0,2.342-.36,2.342-.978,0-2.264-9.955-.437-9.955-7.153,0-2.908,2.109-5.352,6.328-5.944v-2.8h3.628v2.753a13.441,13.441,0,0,1,5.222,1.493l-1.826,4.4a11.109,11.109,0,0,0-5.016-1.338c-1.776,0-2.342.514-2.342,1.131,0,2.162,9.955.36,9.955,7C978.863,901.116,976.857,903.535,972.871,904.229Z" transform="translate(-962.633 -882.899)" fill="#9192ff"/>
                </g>
              </g>
            </g>
            <g id="Group_1181293" data-name="Group 1181293" transform="translate(170.749)">
              <g id="Group_1181289" data-name="Group 1181289" transform="translate(0)">
                <rect id="Rectangle_456685" data-name="Rectangle 456685" width="71.436" height="43.68" transform="translate(0.19 0.189)" fill="#fff"/>
                <path id="Path_1010316" data-name="Path 1010316" d="M1386.662,429.74h-71.815V385.681h71.815Zm-71.436-.379h71.057v-43.3h-71.057Z" transform="translate(-1314.847 -385.681)" fill="#9192ff"/>
              </g>
              <g id="Group_1181292" data-name="Group 1181292" transform="translate(9.183 6.543)">
                <g id="Group_1181290" data-name="Group 1181290">
                  <rect id="Rectangle_456686" data-name="Rectangle 456686" width="4.112" height="7.55" transform="translate(0 23.423)" fill="#d1d1ff"/>
                  <rect id="Rectangle_456687" data-name="Rectangle 456687" width="4.112" height="11.001" transform="translate(8.224 19.973)" fill="#d1d1ff"/>
                  <rect id="Rectangle_456688" data-name="Rectangle 456688" width="4.112" height="8.18" transform="translate(16.446 22.794)" fill="#d1d1ff"/>
                  <rect id="Rectangle_456689" data-name="Rectangle 456689" width="4.112" height="13.936" transform="translate(24.669 17.038)" fill="#d1d1ff"/>
                  <rect id="Rectangle_456690" data-name="Rectangle 456690" width="4.112" height="17.618" transform="translate(32.892 13.356)" fill="#d1d1ff"/>
                  <rect id="Rectangle_456691" data-name="Rectangle 456691" width="4.112" height="22.876" transform="translate(41.115 8.098)" fill="#d1d1ff"/>
                  <rect id="Rectangle_456692" data-name="Rectangle 456692" width="4.112" height="30.974" transform="translate(49.339)" fill="#d1d1ff"/>
                </g>
                <g id="Group_1181291" data-name="Group 1181291" transform="translate(0 3.675)">
                  <rect id="Rectangle_456693" data-name="Rectangle 456693" width="3.267" height="3.7" fill="#d1d1ff"/>
                  <rect id="Rectangle_456694" data-name="Rectangle 456694" width="22.129" height="0.948" transform="translate(8.316 1.712)" fill="#d1d1ff"/>
                </g>
              </g>
            </g>
            <g id="Group_1181294" data-name="Group 1181294" transform="translate(164.807 47.992)">
              <path id="Path_1010317" data-name="Path 1010317" d="M1288.917,751.424l-4.525-12.5a13.293,13.293,0,1,0,16.318,6.376Z" transform="translate(-1275.629 -733.401)" fill="#ebebff"/>
              <path id="Path_1010318" data-name="Path 1010318" d="M1361.46,709.621a13.3,13.3,0,0,0-16.318-6.376l4.525,12.5Z" transform="translate(-1334.61 -702.454)" fill="#9192ff"/>
            </g>
            <g id="Group_1181295" data-name="Group 1181295" transform="translate(165.469 108.601)">
              <rect id="Rectangle_456695" data-name="Rectangle 456695" width="31.437" height="29.922" fill="#ebebff"/>
              <rect id="Rectangle_456696" data-name="Rectangle 456696" width="17.612" height="1.264" transform="translate(4.924 7.954)" fill="#fff"/>
              <rect id="Rectangle_456697" data-name="Rectangle 456697" width="17.612" height="1.264" transform="translate(4.924 11.742)" fill="#fff"/>
            </g>
            <g id="Group_1181297" data-name="Group 1181297" transform="translate(49.569 51.408)">
              <rect id="Rectangle_456698" data-name="Rectangle 456698" width="27.337" height="46.209" fill="#ebebff"/>
              <g id="Group_1181296" data-name="Group 1181296" transform="translate(4.034 6.555)">
                <rect id="Rectangle_456699" data-name="Rectangle 456699" width="17.928" height="16.413" transform="translate(0.133 0.137)" fill="#fff"/>
                <rect id="Rectangle_456700" data-name="Rectangle 456700" width="0.379" height="24.306" transform="translate(0.011 0.28) rotate(-47.525)" fill="#ebebff"/>
                <rect id="Rectangle_456701" data-name="Rectangle 456701" width="24.306" height="0.379" transform="matrix(0.738, -0.675, 0.675, 0.738, 0, 16.414)" fill="#ebebff"/>
              </g>
            </g>
            <g id="Group_1181302" data-name="Group 1181302" transform="translate(0 70.1)">
              <g id="Group_1181298" data-name="Group 1181298">
                <rect id="Rectangle_456702" data-name="Rectangle 456702" width="62.528" height="41.198" transform="translate(0.181 0.181)" fill="#fff"/>
                <path id="Path_1010319" data-name="Path 1010319" d="M250.712,889.937H187.823v-41.56h62.889Zm-62.528-.361h62.166V848.739H188.185Z" transform="translate(-187.823 -848.377)" fill="#9192ff"/>
              </g>
              <g id="Group_1181300" data-name="Group 1181300" transform="translate(6.602 7.832)">
                <g id="Group_1181299" data-name="Group 1181299">
                  <path id="Path_1010320" data-name="Path 1010320" d="M232.5,924.316l4.04-7.575,8.333,7.828,5.555-16.16,10.353,11.362,6.818-2.777,12.373-16.16" transform="translate(-232.333 -900.718)" fill="#fff"/>
                  <path id="Path_1010321" data-name="Path 1010321" d="M244.021,924.263l-8.366-7.859-3.924,7.357-.334-.179,4.157-7.793,8.3,7.8,5.564-16.186L259.9,918.9l6.648-2.709,12.342-16.119.3.23-12.4,16.2-6.988,2.847-.089-.1-10.138-11.127Z" transform="translate(-231.397 -900.074)" fill="#9192ff"/>
                </g>
                <circle id="Ellipse_13768" data-name="Ellipse 13768" cx="1.042" cy="1.042" r="1.042" transform="translate(3.197 14.951)" fill="#9192ff"/>
                <circle id="Ellipse_13769" data-name="Ellipse 13769" cx="1.042" cy="1.042" r="1.042" transform="translate(11.435 22.62)" fill="#9192ff"/>
                <circle id="Ellipse_13770" data-name="Ellipse 13770" cx="1.042" cy="1.042" r="1.042" transform="translate(17.117 6.712)" fill="#9192ff"/>
              </g>
              <g id="Group_1181301" data-name="Group 1181301" transform="translate(18.188 6.748)">
                <line id="Line_3298" data-name="Line 3298" x2="26.513" transform="translate(0 0.189)" fill="#fff"/>
                <rect id="Rectangle_456703" data-name="Rectangle 456703" width="26.513" height="0.379" fill="#9192ff"/>
              </g>
            </g>
          </g>
          <g id="Group_1181306" data-name="Group 1181306" transform="translate(121.957 151.625)">
            <g id="Group_1181304" data-name="Group 1181304">
              <path id="Path_1010322" data-name="Path 1010322" d="M1160.864,1310.245a32,32,0,0,1,21.295-35.109c-3.982,2.787-6.413,7.292-8.108,11.847s-2.808,9.336-4.9,13.722-5.392,8.485-9.967,10.127Z" transform="translate(-1133.975 -1274.485)" fill="#9192ff"/>
              <path id="Path_1010323" data-name="Path 1010323" d="M1065.213,1306.657a73.468,73.468,0,0,0-4.849-24.875,22.325,22.325,0,0,0-4.48-7.782,9.461,9.461,0,0,0-8.135-3.052c3.7,2.767,5.611,7.318,6.69,11.808s1.494,9.148,3.012,13.509,4.423,8.564,8.769,10.122Z" transform="translate(-1039.423 -1270.837)" fill="#9192ff"/>
              <path id="Path_1010324" data-name="Path 1010324" d="M1018.005,1392.194c-2.113-5.691-4.411-11.526-8.661-15.861s-10.983-6.817-16.549-4.392a20.55,20.55,0,0,1,11.5,7.264c2.1,2.663,3.506,5.821,5.662,8.436s5.445,4.722,8.776,4.1Z" transform="translate(-992.796 -1355.816)" fill="#d1d1ff"/>
              <path id="Path_1010325" data-name="Path 1010325" d="M1147.96,1313.826c-.866-6.246-1.732-12.593-.82-18.832s3.863-12.469,9.149-15.907c-2.926,2.869-3.9,7.215-3.9,11.313s.828,8.159.9,12.256-.744,8.45-3.515,11.469Z" transform="translate(-1123.426 -1277.837)" fill="#d1d1ff"/>
              <path id="Path_1010326" data-name="Path 1010326" d="M1174.04,1397.959c2.026-5.162,4.185-10.521,8.311-14.226a18.014,18.014,0,0,1,9.552-4.417c-2.474,1.974-4.023,4.866-5.308,7.759s-2.394,5.9-4.254,8.465-4.655,4.667-7.817,4.8Z" transform="translate(-1146.581 -1362.881)" fill="#d1d1ff"/>
            </g>
            <g id="Group_1181305" data-name="Group 1181305" transform="translate(11.253 33.092)">
              <path id="Path_1010327" data-name="Path 1010327" d="M1094.862,1508.013h-22.753l-3.509-17.5h29.769Z" transform="translate(-1068.369 -1490.32)" fill="#fff"/>
              <path id="Path_1010328" data-name="Path 1010328" d="M1093.721,1507.141h-23.064l-3.584-17.882H1097.3Zm-22.753-.379h22.443l3.432-17.125h-29.307Z" transform="translate(-1067.073 -1489.259)" fill="#9192ff"/>
            </g>
          </g>
          <g id="Group_1181315" data-name="Group 1181315" transform="translate(163.667 70.537)">
            <g id="Group_1181309" data-name="Group 1181309" transform="translate(22.842 56.61)">
              <g id="Group_1181307" data-name="Group 1181307" transform="translate(0.279 63.751)">
                <path id="Path_1010329" data-name="Path 1010329" d="M1434.36,1531.046v10.525H1420.71l6.25-5.1.33-6.413Z" transform="translate(-1420.71 -1530.06)" fill="#d1d1ff"/>
                <rect id="Rectangle_456704" data-name="Rectangle 456704" width="0.379" height="3.596" transform="translate(6.126 6.546) rotate(-46.434)" fill="#1b1b43"/>
                <rect id="Rectangle_456705" data-name="Rectangle 456705" width="4.671" height="0.379" transform="translate(7.657 3.779)" fill="#1b1b43"/>
              </g>
              <g id="Group_1181308" data-name="Group 1181308" transform="translate(16.724 64.244)">
                <path id="Path_1010330" data-name="Path 1010330" d="M1542.417,1534.3l.494,10.033H1529.26l5.757-4.934v-6.084Z" transform="translate(-1529.26 -1533.31)" fill="#d1d1ff"/>
                <rect id="Rectangle_456706" data-name="Rectangle 456706" width="0.379" height="2.828" transform="translate(5.629 6.207) rotate(-48.547)" fill="#1b1b43"/>
                <rect id="Rectangle_456707" data-name="Rectangle 456707" width="4.608" height="0.379" transform="translate(7.309 3.475)" fill="#1b1b43"/>
              </g>
              <path id="Path_1010331" data-name="Path 1010331" d="M1519.89,1113.508a410.757,410.757,0,0,0,5.3,61.9h11.5c-2.393-15.514-3.474-34.354-2.136-59.333l-8.306-6.8Z" transform="translate(-1504.585 -1109.271)" fill="#fe5b52"/>
              <path id="Path_1010332" data-name="Path 1010332" d="M1425.082,1134.923l-5.2,23.146a41.343,41.343,0,0,0-.255,16.919l3.656,18.906h11.5l-3.481-24.82,8.324-37.835Z" transform="translate(-1418.871 -1127.912)" fill="#fe5b52"/>
              <path id="Path_1010333" data-name="Path 1010333" d="M1503.954,1223.992c-.029-.477-.684-11.122-.752-12.471l-3.006-1.093.129-.356,3.25,1.182v.133c0,.233.5,8.332.757,12.582Z" transform="translate(-1487.875 -1194.8)" fill="#be443d"/>
            </g>
            <g id="Group_1181311" data-name="Group 1181311">
              <path id="Path_1010334" data-name="Path 1010334" d="M1683.549,746.983l.616-1.468s-2.225-4.687-1.515-5.3,1.847,1.136,1.847,1.136-.331-5.681.758-5.729c.918-.04.852,1.61.947,4.072,0,0,.568-.758,1.613.025.47-.783,1.464-.262,1.748.212.332-.379,1.7-.284,1.515,1.326-.24,2.042-1.184,5.823-1.184,5.823l-3.03,2.509Z" transform="translate(-1619.725 -735.619)" fill="#ffbc96"/>
              <path id="Path_1010335" data-name="Path 1010335" d="M1528.75,830.226l4.607-.036c8.082-.721,14.394-7.286,14.394-7.286l5.334-12.278,6.344.095-3.724,14.43a10.556,10.556,0,0,1-3.3,5.336l-13.236,11.482Z" transform="translate(-1489.261 -799.261)" fill="#3335cf"/>
              <path id="Path_1010336" data-name="Path 1010336" d="M1445.39,950.448l2.194,22.209,23.754-.209-.82-26.766-12.5-5.681-8.649,3.661Z" transform="translate(-1418.53 -909.036)" fill="#3335cf"/>
              <g id="Group_1181310" data-name="Group 1181310" transform="translate(0 31.867)">
                <path id="Path_1010337" data-name="Path 1010337" d="M1280.25,1017.1a2.4,2.4,0,0,0-1.393-.6c-2.626-.219-10.835-.852-10.755-.216.095.758,6.344,3.6,6.344,3.6l4.009,4.512,3.672-5.631Z" transform="translate(-1268.101 -1005.397)" fill="#ffbc96"/>
                <path id="Path_1010338" data-name="Path 1010338" d="M1356.151,947.191a5.458,5.458,0,0,0-3.926,2.9l-7,13.76-5.1-4.528-3.672,5.631,1.34,1.509c1.983,2.232,4.3,5.231,7.392,5.881a4.641,4.641,0,0,0,4.178-1.41,13.554,13.554,0,0,0,2.162-2.765l2.792-4.6,8.9-17.612Z" transform="translate(-1326.096 -945.956)" fill="#3335cf"/>
              </g>
              <rect id="Rectangle_456708" data-name="Rectangle 456708" width="0.379" height="13.731" transform="translate(26.664 41.442) rotate(-5.555)" fill="#d1d1ff"/>
              <path id="Path_1010339" data-name="Path 1010339" d="M1599.726,1004.38l-2.226,1.988,2.368,3.93Z" transform="translate(-1547.595 -963.662)" fill="#1b1b43"/>
              <path id="Path_1010340" data-name="Path 1010340" d="M1706.9,765.325c-.893,0-.963-1.171-.963-2.825h.284c0,1.947.159,2.541.679,2.541a.36.36,0,0,0,.272-.127,2.684,2.684,0,0,0,.382-1.475c-.02-.412-.01-.77,0-.919l.284,0a8.417,8.417,0,0,1,.006.889c.039.771.169,1.534.426,1.611a.412.412,0,0,0,.381-.056,2.365,2.365,0,0,0,.568-1.4,6.917,6.917,0,0,1,.085-.841l.282.026a7.378,7.378,0,0,1-.072.763c-.021.591.047,1.163.285,1.263a.468.468,0,0,0,.447,0c.325-.2.443-.868.461-1.109l.283.021c0,.041-.082,1.016-.6,1.33a.74.74,0,0,1-.705.021c-.066-.028-.275-.149-.392-.592a1.549,1.549,0,0,1-.48.752.688.688,0,0,1-.629.1c-.25-.075-.4-.394-.5-.792a1.5,1.5,0,0,1-.306.613A.638.638,0,0,1,1706.9,765.325Z" transform="translate(-1639.6 -758.427)" fill="#d28572"/>
            </g>
            <g id="Group_1181314" data-name="Group 1181314" transform="translate(24.781 13.495)">
              <path id="Path_1010341" data-name="Path 1010341" d="M1489.959,910.623a3.663,3.663,0,0,1-3.947-3.356l-.042-.511-.576-7.143,4.45-.356,2.856-.231.614,7.651A3.663,3.663,0,0,1,1489.959,910.623Z" transform="translate(-1477.255 -887.763)" fill="#ffbc96"/>
              <path id="Path_1010342" data-name="Path 1010342" d="M1491.27,902.959a12.262,12.262,0,0,1-5.3,5.091l-.576-7.143,4.45-.356Z" transform="translate(-1477.255 -889.057)" fill="#1b1b43"/>
              <path id="Path_1010343" data-name="Path 1010343" d="M1469.21,848.705l-.883,7.45a10.5,10.5,0,0,1-7.007,2.587c-1.519-.045-2.413-1.485-2.935-3.314a16.941,16.941,0,0,1-.474-2.424,33.439,33.439,0,0,1-.189-5.435l6.439-2.144Z" transform="translate(-1453.744 -842.284)" fill="#ffbc96"/>
              <path id="Path_1010344" data-name="Path 1010344" d="M1446.153,834.178c-.67-2.39-1.875-3.592-3.5-3.851-5.176,2.809-8.537,1.136-10.984-1.989,6,1.168,8.617-7.354,14.361-1.673,4.261,1.294,4.183,5.366,1.768,8.68Z" transform="translate(-1431.665 -824.694)" fill="#1b1b43"/>
              <g id="Group_1181312" data-name="Group 1181312" transform="translate(13.217 7.678)">
                <ellipse id="Ellipse_13771" data-name="Ellipse 13771" cx="2.075" cy="1.799" rx="2.075" ry="1.799" transform="matrix(0.192, -0.981, 0.981, 0.192, 0, 4.073)" fill="#ffbc96"/>
                <path id="Path_1010345" data-name="Path 1010345" d="M1531.655,885.229a.936.936,0,0,0-.633.53,2.827,2.827,0,0,0-.29.859l-.111.007a1.18,1.18,0,0,1-.019-.514,1.485,1.485,0,0,1,.174-.491,1.148,1.148,0,0,1,.359-.4.662.662,0,0,1,.529-.105Z" transform="translate(-1528.813 -883.626)" fill="#1b1b43"/>
              </g>
              <g id="Group_1181313" data-name="Group 1181313" transform="translate(4.052 7.754)">
                <path id="Path_1010346" data-name="Path 1010346" d="M1464.23,886c0,.323-.156.584-.347.584s-.347-.262-.347-.584.155-.584.347-.584S1464.23,885.678,1464.23,886Z" transform="translate(-1462.759 -883.971)" fill="#1b1b43"/>
                <path id="Path_1010347" data-name="Path 1010347" d="M1482.846,884.155c0,.349-.168.633-.376.633s-.376-.283-.376-.633.168-.633.376-.633S1482.846,883.805,1482.846,884.155Z" transform="translate(-1478.505 -882.363)" fill="#1b1b43"/>
                <path id="Path_1010348" data-name="Path 1010348" d="M1468.443,892.3a.64.64,0,0,1-.1.317,1.615,1.615,0,0,1-.193.249,1.06,1.06,0,0,0-.289.421.489.489,0,0,0,.128.425,4.655,4.655,0,0,0,.4.4l-.061.093a1.667,1.667,0,0,1-.526-.329.837.837,0,0,1-.2-.287.617.617,0,0,1-.023-.371.759.759,0,0,1,.168-.313,1.921,1.921,0,0,1,.226-.216,1.059,1.059,0,0,0,.35-.409Z" transform="translate(-1466.182 -889.801)" fill="#1b1b43"/>
                <path id="Path_1010349" data-name="Path 1010349" d="M1475.13,906.6a3.485,3.485,0,0,0,1.1-.422,3.658,3.658,0,0,0,.473-.349c.15-.13.294-.27.443-.413l.09.065a2.263,2.263,0,0,1-.859.939,2.043,2.043,0,0,1-1.242.291Z" transform="translate(-1472.597 -900.936)" fill="#1b1b43"/>
                <path id="Path_1010350" data-name="Path 1010350" d="M1481.55,876.1c-.081.428,1.262.565,1.5.608.2.035.483.057.524-.244.052-.374-.355-.414-.585-.464S1481.627,875.693,1481.55,876.1Z" transform="translate(-1478.041 -875.872)" fill="#1b1b43"/>
                <path id="Path_1010351" data-name="Path 1010351" d="M1460.048,877.663c-.007.413-1.075.455-1.27.479-.161.02-.385.022-.368-.268.021-.36.344-.371.532-.4S1460.055,877.273,1460.048,877.663Z" transform="translate(-1458.408 -877.176)" fill="#1b1b43"/>
              </g>
              <circle id="Ellipse_13772" data-name="Ellipse 13772" cx="1.373" cy="1.373" r="1.373" transform="translate(9.334 9.444)" fill="#fe5b52" opacity="0.2"/>
              <path id="Path_1010352" data-name="Path 1010352" d="M1460.2,896.779a1.349,1.349,0,0,1-.553,1.095,16.943,16.943,0,0,1-.474-2.424A1.378,1.378,0,0,1,1460.2,896.779Z" transform="translate(-1455.007 -884.73)" fill="#fe5b52" opacity="0.2"/>
            </g>
          </g>
          <g id="Group_1181330" data-name="Group 1181330" transform="translate(20.592 104.507)">
            <g id="Group_1181317" data-name="Group 1181317" transform="translate(48.838 15.08)">
              <rect id="Rectangle_456709" data-name="Rectangle 456709" width="26.349" height="1.774" transform="translate(0 20.736)" fill="#9192ff"/>
              <g id="Group_1181316" data-name="Group 1181316" transform="translate(3.813)">
                <path id="Path_1010353" data-name="Path 1010353" d="M695.377,1081.177H673.125l8.427-20.547H703.8Z" transform="translate(-672.843 -1060.44)" fill="#fff"/>
                <path id="Path_1010354" data-name="Path 1010354" d="M693.922,1080.3H671.261l8.583-20.927h22.661Zm-22.1-.379h21.843l8.272-20.169H680.1Z" transform="translate(-671.261 -1059.375)" fill="#9192ff"/>
              </g>
              <path id="Path_1010355" data-name="Path 1010355" d="M709.381,1094.417H691.893l6.623-16.147H716Z" transform="translate(-684.954 -1075.407)" fill="#ebebff"/>
            </g>
            <g id="Group_1181318" data-name="Group 1181318" transform="translate(44.885 37.591)">
              <rect id="Rectangle_456710" data-name="Rectangle 456710" width="0.379" height="59.841" transform="translate(21.063 0.567)" fill="#1b1b43"/>
              <rect id="Rectangle_456711" data-name="Rectangle 456711" width="42.505" height="3.381" fill="#d1d1ff"/>
            </g>
            <g id="Group_1181319" data-name="Group 1181319" transform="translate(0 61.281)">
              <rect id="Rectangle_456712" data-name="Rectangle 456712" width="0.379" height="34.704" transform="translate(10.205 2.013)" fill="#1b1b43"/>
              <path id="Path_1010356" data-name="Path 1010356" d="M344.528,1367.942H323.739a4.555,4.555,0,0,1,4.458-3.623H340.07a4.555,4.555,0,0,1,4.458,3.623Z" transform="translate(-323.739 -1364.32)" fill="#d1d1ff"/>
              <path id="Path_1010357" data-name="Path 1010357" d="M367.522,1592.7H356.729a2.376,2.376,0,0,1,2.376-2.376h6.041a2.374,2.374,0,0,1,2.376,2.376Z" transform="translate(-351.731 -1556.086)" fill="#d1d1ff"/>
            </g>
            <g id="Group_1181329" data-name="Group 1181329" transform="translate(5.998)">
              <g id="Group_1181322" data-name="Group 1181322" transform="translate(3.695)">
                <path id="Path_1010358" data-name="Path 1010358" d="M494.15,1037.74a6.8,6.8,0,0,1,1.378,2.793c.122,1.375-2.078.411-2.1.53Z" transform="translate(-477.409 -1025.938)" fill="#d28572"/>
                <g id="Group_1181320" data-name="Group 1181320" transform="translate(6.423 13.421)">
                  <rect id="Rectangle_456713" data-name="Rectangle 456713" width="6.958" height="10.197" fill="#ffbc96"/>
                  <path id="Path_1010359" data-name="Path 1010359" d="M443.966,1059.96v7.28a20.513,20.513,0,0,1-5.726-5.784Z" transform="translate(-437.008 -1058.212)" fill="#1b1b43"/>
                </g>
                <path id="Path_1010360" data-name="Path 1010360" d="M438.15,1004.783c-.217,3.522-1.572,7.507-5.27,6.524-2.905-.772-6.1-3.218-6.1-6.747s2.442-6.39,5.455-6.39a6.6,6.6,0,0,1,5.37,2.679A6.522,6.522,0,0,1,438.15,1004.783Z" transform="translate(-420.859 -992.363)" fill="#ffbc96"/>
                <path id="Path_1010361" data-name="Path 1010361" d="M398.849,987.484a4.26,4.26,0,0,1,3.24-2.869s5.22,5.163,4.9-.172c-.257-4.24-4.4-3.839-4.4-3.839a4.1,4.1,0,0,0-6.455-.076c-1.184,1.528-.764.649-3.552,1.642s-1.3,5.233-1.8,5.538c-3.7,0-3.017,3.667-3.017,3.667l8.77,2.861,2.113-5.767Z" transform="translate(-387.715 -976.084)" fill="#1b1b43"/>
                <g id="Group_1181321" data-name="Group 1181321" transform="translate(9.101 10.592)">
                  <path id="Path_1010362" data-name="Path 1010362" d="M450.736,1030.858a1.564,1.564,0,1,1-2.291-.945A1.783,1.783,0,0,1,450.736,1030.858Z" transform="translate(-447.789 -1029.753)" fill="#ffbc96"/>
                  <path id="Path_1010363" data-name="Path 1010363" d="M454.1,1038.346a2.417,2.417,0,0,0-.393-.631,1.2,1.2,0,0,0-.283-.206c-.107-.058-.227-.106-.35-.164l.019-.1a1.117,1.117,0,0,1,.419.055.938.938,0,0,1,.378.235,1.035,1.035,0,0,1,.23.375,1.318,1.318,0,0,1,.078.412Z" transform="translate(-452.272 -1036.108)" fill="#1b1b43"/>
                </g>
                <ellipse id="Ellipse_13773" data-name="Ellipse 13773" cx="2.948" cy="3.193" rx="2.948" ry="3.193" transform="translate(4.403 0.279) rotate(-2.711)" fill="#1b1b43"/>
                <circle id="Ellipse_13774" data-name="Ellipse 13774" cx="1.326" cy="1.326" r="1.326" transform="translate(12.94 13.092)" fill="#fe5b52" opacity="0.2"/>
              </g>
              <g id="Group_1181323" data-name="Group 1181323" transform="translate(0.886 19.758)">
                <path id="Path_1010364" data-name="Path 1010364" d="M391.457,1119.186l-22.282-2.841,4.2-22.146a4.859,4.859,0,0,1,6.553-3.613l7.594,3.375a4.509,4.509,0,0,1,2.651,3.609l.428,7.234.489,8.2Z" transform="translate(-369.175 -1090.249)" fill="#ffa121"/>
                <path id="Path_1010365" data-name="Path 1010365" d="M647.257,1166.2l5.9-1.734a1.5,1.5,0,0,1,1.251.189c1.614,1.072,5.912,4.1,4.827,5.344-.542.619-5.473-.832-5.473-.832l-7.141,1.992Z" transform="translate(-604.584 -1153.169)" fill="#ffbc96"/>
                <path id="Path_1010366" data-name="Path 1010366" d="M495.2,1188.1a17.5,17.5,0,0,1-3.326-9.348l2.837,1.148Z" transform="translate(-473.285 -1165.342)" fill="#1b1b43"/>
                <path id="Path_1010367" data-name="Path 1010367" d="M471.338,1112.92l.888.383a13.944,13.944,0,0,1,4.8,3.431l7.313,8.054,11.994-2.273,1.578,6.439-15.071,4.71a3.536,3.536,0,0,1-3.224-1.089l-10.87-11.828Z" transform="translate(-453.664 -1109.485)" fill="#ffa121"/>
                <path id="Path_1010368" data-name="Path 1010368" d="M489.81,1120.124c-.036-.039-3.6-3.923-6.693-7.388a21.359,21.359,0,0,0-7.758-5.106l.126-.357a21.769,21.769,0,0,1,7.915,5.212c3.088,3.463,6.654,7.345,6.689,7.384Z" transform="translate(-459.271 -1104.693)" fill="#1b1b43"/>
                <rect id="Rectangle_456714" data-name="Rectangle 456714" width="0.379" height="14.534" transform="translate(15.705 12.774) rotate(-44.092)" fill="#1b1b43"/>
              </g>
              <g id="Group_1181328" data-name="Group 1181328" transform="translate(0 45.855)">
                <g id="Group_1181325" data-name="Group 1181325" transform="translate(17.554 10.648)">
                  <g id="Group_1181324" data-name="Group 1181324" transform="translate(0 25.689)">
                    <path id="Path_1010369" data-name="Path 1010369" d="M484,1502.34l-4.807,9.365,12.143,6.234-3.231-7.39,2.636-5.856Z" transform="translate(-479.191 -1502.34)" fill="#d1d1ff"/>
                    <rect id="Rectangle_456715" data-name="Rectangle 456715" width="3.597" height="0.379" transform="translate(5.412 9.04) rotate(-16.403)" fill="#1b1b43"/>
                  </g>
                  <path id="Path_1010370" data-name="Path 1010370" d="M499.224,1364.625l-11-4.1,7.533-23.441a6.862,6.862,0,0,1,8.91-3.835h0a6.862,6.862,0,0,1,4.22,8.734Z" transform="translate(-486.855 -1332.783)" fill="#26289c"/>
                </g>
                <g id="Group_1181327" data-name="Group 1181327">
                  <g id="Group_1181326" data-name="Group 1181326" transform="translate(40.591 40.527)">
                    <path id="Path_1010371" data-name="Path 1010371" d="M631.25,1530.379l1.074,11.142h13.65l-6.249-5.1L638.257,1530Z" transform="translate(-631.25 -1530)" fill="#d1d1ff"/>
                    <rect id="Rectangle_456716" data-name="Rectangle 456716" width="3.694" height="0.379" transform="translate(5.147 8.03) rotate(-28.869)" fill="#1b1b43"/>
                  </g>
                  <path id="Path_1010372" data-name="Path 1010372" d="M413.767,1304.732l-11.931,1.894-8.17-24.025-1.489-4.382-20.29.163a8.368,8.368,0,0,1-8.518-9.185l.845-6.7,20.074,2.526,13.192,1.451c5.492.947,7.177,4.272,8.321,8.545Z" transform="translate(-363.328 -1262.5)" fill="#3335cf"/>
                  <path id="Path_1010373" data-name="Path 1010373" d="M555.239,1370.107l-1.489-4.382,2.746-.095A5.987,5.987,0,0,1,555.239,1370.107Z" transform="translate(-524.9 -1350.005)" fill="#1b1b43"/>
                </g>
              </g>
            </g>
          </g>
          <rect id="Rectangle_456717" data-name="Rectangle 456717" width="229.907" height="0.379" transform="translate(8.094 202.22)" fill="#1b1b43"/>
        </g>
      </g>
    </g>
  </g>
</svg>
