<svg xmlns="http://www.w3.org/2000/svg" width="74" height="74" viewBox="0 0 74 74">
  <g id="img9" transform="translate(-626.711 -3000)">
    <rect id="Rectangle_455441" data-name="Rectangle 455441" width="74" height="74" transform="translate(626.711 3000)" fill="#cfde90"/>
    <g id="Group_1181339" data-name="Group 1181339" transform="translate(628.71 3011.566)">
      <g id="Group_1181338" data-name="Group 1181338" transform="translate(9.944 -0.566)">
        <g id="Group_1181333" data-name="Group 1181333" transform="translate(3.076 0)">
          <circle id="Ellipse_13775" data-name="Ellipse 13775" cx="15.517" cy="15.517" r="15.517" transform="translate(0 21.941) rotate(-45)" fill="#66d4f1"/>
        </g>
        <g id="Group_1181335" data-name="Group 1181335" transform="translate(5.134 27.277)">
          <g id="Group_1181334" data-name="Group 1181334">
            <path id="Path_1010374" data-name="Path 1010374" d="M131.953,283.225l-9.43.011-2.574,11.738,9.753,9.659a2.029,2.029,0,0,0,2.891-2.848l2.673,2.673a2.029,2.029,0,0,0,2.9-2.842l1.59,1.59a2.029,2.029,0,0,0,2.87-2.87l-.237-.236a2.029,2.029,0,0,0,3.172-2.482l.548-.241Z" transform="translate(-114.363 -280.67)" fill="#efc7a4" fill-rule="evenodd"/>
            <path id="Path_1010375" data-name="Path 1010375" d="M163.43,386.85l2.031,2.011a2.035,2.035,0,0,0,2.87,0l-6.679-6.679a1.022,1.022,0,0,0-1.445,1.445Zm5.061-.678-2.721-2.721a1.022,1.022,0,0,1,1.445-1.445l6.679,6.679a2.035,2.035,0,0,1-2.87,0l-2.673-2.673A2.032,2.032,0,0,1,168.491,386.172Zm5.565-.174a2,2,0,0,0-.134-.154l1.59,1.59a2.035,2.035,0,0,0,2.87,0l-6.679-6.679a1.022,1.022,0,0,0-1.445,1.445Zm4.485-1.253a2.033,2.033,0,0,0-.16-.181l-.237-.236a2.035,2.035,0,0,0,2.868,0l-6.679-6.679a1.022,1.022,0,0,0-1.445,1.445Z" transform="translate(-150.122 -364.898)" fill="#d5a889" fill-rule="evenodd"/>
            <path id="Path_1010376" data-name="Path 1010376" d="M72.278,274.4l2.986-13.038A1.557,1.557,0,0,0,74.1,259.5l-2.4-.55a1.558,1.558,0,0,0-1.861,1.167L66.85,273.16a1.558,1.558,0,0,0,1.167,1.861l2.4.55A1.557,1.557,0,0,0,72.278,274.4Z" transform="translate(-66.811 -258.916)" fill="#e6e6e6" fill-rule="evenodd"/>
            <path id="Path_1010377" data-name="Path 1010377" d="M199.117,270.326l-1.644.709a3.247,3.247,0,0,1-2.96-.164c-3.988-2.228-5.329-3.508-7.607-2.657a5.671,5.671,0,0,0-1.834,1.341c-1.642,1.632-3.508,4.285-5.624,6.162a.414.414,0,0,0-.026.6c2.289,2.412,4.746,1.092,7.184-.6a3.356,3.356,0,0,1,4.313.389l7.452,7.452a2.013,2.013,0,0,1,.3.39l3.239-1.416Z" transform="translate(-167.482 -266.999)" fill="#d5a889" fill-rule="evenodd"/>
            <path id="Path_1010378" data-name="Path 1010378" d="M367.435,274.4a1.558,1.558,0,0,0,1.861,1.167l2.4-.55a1.558,1.558,0,0,0,1.167-1.861l-2.986-13.038a1.558,1.558,0,0,0-1.861-1.167l-2.4.55a1.558,1.558,0,0,0-1.167,1.861Z" transform="translate(-333.125 -258.916)" fill="#e4e8eb" fill-rule="evenodd"/>
          </g>
        </g>
        <g id="Group_1181336" data-name="Group 1181336" transform="translate(38.279 3.977)">
          <path id="Path_1010379" data-name="Path 1010379" d="M386.9,37.3c3.231,1.629,3.925,5.4,6.816,7.092a.315.315,0,0,1,.064.5l-4.34,4.34a.312.312,0,0,1-.384.049c-2.709-1.6-3.641-5.456-6.778-7.08a.315.315,0,0,1-.078-.5l4.334-4.334A.311.311,0,0,1,386.9,37.3Z" transform="translate(-382.113 -37.261)" fill="#fdcd56" fill-rule="evenodd"/>
        </g>
        <g id="Group_1181337" data-name="Group 1181337" transform="translate(0 3.977)">
          <path id="Path_1010380" data-name="Path 1010380" d="M24.945,37.3c-3.231,1.629-3.925,5.4-6.816,7.092a.315.315,0,0,0-.064.5l4.34,4.34a.312.312,0,0,0,.384.049c2.709-1.6,3.641-5.456,6.778-7.08a.315.315,0,0,0,.078-.5L25.31,37.354A.311.311,0,0,0,24.945,37.3Z" transform="translate(-17.972 -37.261)" fill="#f76c82" fill-rule="evenodd"/>
        </g>
      </g>
      <path id="Path_1010381" data-name="Path 1010381" d="M55.274,26.305a11.3,11.3,0,0,1-2.562-2.91,12.565,12.565,0,0,0-3.488-3.733l3.723-3.723a10.126,10.126,0,0,1,3.137,3.342,12.216,12.216,0,0,0,2.921,3.292ZM51.112,39.774,54.1,52.811a.818.818,0,0,1-.614.979l-2.4.55a.818.818,0,0,1-.979-.614L47.119,40.688a.821.821,0,0,1,.614-.979l2.4-.55a.8.8,0,0,1,.183-.021.819.819,0,0,1,.8.635ZM45.447,57.31a1.3,1.3,0,0,1-1.829,0l-5.742-5.742a.736.736,0,0,0-1.041,1.04l5.742,5.742q.08.08.166.153a.75.75,0,0,0,.074.086,1.291,1.291,0,0,1-.915,2.205h0a1.283,1.283,0,0,1-.914-.376L39.4,58.832l-.03-.031-.016-.015L34.81,54.241a.736.736,0,1,0-1.041,1.041l4.581,4.581a1.3,1.3,0,0,1-.02,1.808,1.3,1.3,0,0,1-.915.376,1.284,1.284,0,0,1-.914-.376L33.831,59l-.024-.024-.012-.012-2.309-2.31a.736.736,0,1,0-1.041,1.04l2.338,2.338a1.291,1.291,0,0,1-.931,2.189h0a1.285,1.285,0,0,1-.917-.379l-9.341-9.236,2.5-10.912h6.892c-.335.384-.679.791-1.034,1.211a32.406,32.406,0,0,1-3.694,3.922.735.735,0,0,0-.093,1.034,4.6,4.6,0,0,0,3.619,1.9c1.9,0,3.674-1.23,4.837-2.036a2.61,2.61,0,0,1,3.374.3l7.452,7.452a1.3,1.3,0,0,1,0,1.829Zm-26.6-2.97a.817.817,0,0,0,.979-.614l2.986-13.038a.821.821,0,0,0-.614-.979l-2.4-.55a.793.793,0,0,0-.183-.021.819.819,0,0,0-.8.635L15.834,52.811a.818.818,0,0,0,.614.979ZM17.213,23.4a11.233,11.233,0,0,1-2.555,2.9l-3.731-3.732a12.152,12.152,0,0,0,2.914-3.286,10.025,10.025,0,0,1,3.148-3.344l3.723,3.722A12.46,12.46,0,0,0,17.213,23.4Zm14.206-4.685a10.886,10.886,0,0,0-2.634,3.414c-.215.413-.415.845-.6,1.294a23.376,23.376,0,0,1-2.268-.637l-.762-.762A14.753,14.753,0,0,1,31.419,18.717Zm12.6,4.071a23.413,23.413,0,0,1-2.268.637c-.187-.448-.388-.881-.6-1.294a10.887,10.887,0,0,0-2.634-3.414,14.758,14.758,0,0,1,6.268,3.308ZM28.862,40.223a25.23,25.23,0,0,1-.968-6.421H33l-1.944,1.944A.736.736,0,1,0,32.1,36.787l2.131-2.131v4.278a5.9,5.9,0,0,0-1.861,1.288Zm4.514-7.892H27.892a26.194,26.194,0,0,1,.578-4.906Zm.854-6.715a32.624,32.624,0,0,1-5.118-.5q-.111.325-.212.66l5.33,5.33Zm0-6.718c-1.533.331-2.981,1.691-4.141,3.913-.152.291-.295.595-.432.906a31.373,31.373,0,0,0,4.573.426V18.9ZM35.7,24.143a31.374,31.374,0,0,0,4.573-.426c-.137-.311-.28-.614-.432-.906-1.159-2.222-2.608-3.582-4.141-3.913Zm.854,8.188,4.905-4.906a26.175,26.175,0,0,1,.578,4.906Zm3.97,8.184c-2.014-1.182-3.339-1.957-4.824-1.9V34.657l2.131,2.131a.736.736,0,1,0,1.041-1.041L36.929,33.8h5.11a24.635,24.635,0,0,1-1.128,6.938l-.385-.226Zm.506-14.741q-.1-.335-.212-.66a32.611,32.611,0,0,1-5.118.5V31.1ZM23.7,23.509a14.717,14.717,0,0,0-3.5,8.821h6.217a27.106,27.106,0,0,1,.832-6.124L25.115,24.07q-.734-.26-1.415-.56Zm.586,16.713a2.289,2.289,0,0,0-1.758-1.948L21,37.926a14.7,14.7,0,0,1-.8-4.123h6.218a27.035,27.035,0,0,0,.91,6.421Zm14.749,6.765,7.4,7.4,2.1-.927L46.092,42.8l-.73.318a3.992,3.992,0,0,1-3.612-.2c-.741-.414-1.393-.8-1.969-1.134-2.652-1.556-3.56-2.022-5.021-1.476-1.006.376-2.307,1.917-3.684,3.548a39.913,39.913,0,0,1-3.291,3.587c1.664,1.55,3.383.883,6-.927a4.114,4.114,0,0,1,5.253.473Zm9.895-9.063a14.686,14.686,0,0,0,.8-4.123H43.511a25.925,25.925,0,0,1-1.3,7.687l.256.144a2.52,2.52,0,0,0,2.307.132l.982-.428-.074-.321a2.293,2.293,0,0,1,1.72-2.742Zm.8-5.595a14.716,14.716,0,0,0-3.5-8.821q-.681.3-1.415.56L42.68,26.207a27.112,27.112,0,0,1,.831,6.124ZM60.921,22.3a.735.735,0,0,0-.4-.54A9.029,9.029,0,0,1,57.3,18.446a12.09,12.09,0,0,0-3.278-3.577l.266-.267a1.051,1.051,0,1,0-1.041-1.041l-7.422,7.422a16.221,16.221,0,0,0-21.714,0l-7.422-7.422A1.051,1.051,0,1,0,15.647,14.6l.27.27a11.994,11.994,0,0,0-3.288,3.582,8.995,8.995,0,0,1-3.216,3.311.736.736,0,0,0-.2,1.181l4.809,4.809a.737.737,0,0,0,.864.13,10.734,10.734,0,0,0,3.528-3.636,10.385,10.385,0,0,1,3.371-3.505l1.273,1.272a16.251,16.251,0,0,0-3.682,15.666,2.292,2.292,0,0,0-1.992,1.764L14.4,52.483a2.291,2.291,0,0,0,1.72,2.742l2.4.55A2.287,2.287,0,0,0,21.2,54.283l8.7,8.6a2.746,2.746,0,0,0,1.955.807h0a2.758,2.758,0,0,0,2.642-1.949l.966.967a2.746,2.746,0,0,0,1.955.807h0a2.758,2.758,0,0,0,2.643-1.953,2.744,2.744,0,0,0,1.842.7h0A2.756,2.756,0,0,0,44.664,59.5a2.8,2.8,0,0,0-.021-.348,2.756,2.756,0,0,0,2.652-2.76,2.786,2.786,0,0,0-.1-.735l1.831-.808a2.285,2.285,0,0,0,2.386.921l2.4-.55a2.291,2.291,0,0,0,1.72-2.742L52.546,39.445a2.291,2.291,0,0,0-1.993-1.764,16.253,16.253,0,0,0-3.682-15.666l1.277-1.277a10.486,10.486,0,0,1,3.36,3.5,10.775,10.775,0,0,0,3.534,3.642.737.737,0,0,0,.864-.13l4.808-4.809a.737.737,0,0,0,.206-.641Z" transform="translate(0 -11.692)" fill-rule="evenodd"/>
    </g>
  </g>
</svg>
