<svg xmlns="http://www.w3.org/2000/svg" xmlns:xlink="http://www.w3.org/1999/xlink" width="108" height="108" viewBox="0 0 108 108">
  <defs>
    <filter id="Ellipse_13673" x="0" y="0" width="108" height="108" filterUnits="userSpaceOnUse">
      <feOffset dy="3" input="SourceAlpha"/>
      <feGaussianBlur stdDeviation="3" result="blur"/>
      <feFlood flood-opacity="0.161"/>
      <feComposite operator="in" in2="blur"/>
    </filter>
    <filter id="Ellipse_13673-2" x="0" y="0" width="108" height="108" filterUnits="userSpaceOnUse">
      <feOffset dy="3" input="SourceAlpha"/>
      <feGaussianBlur stdDeviation="3" result="blur-2"/>
      <feFlood flood-color="#fff" flood-opacity="0.161" result="color"/>
      <feComposite operator="out" in="SourceGraphic" in2="blur-2"/>
      <feComposite operator="in" in="color"/>
      <feComposite operator="in" in2="SourceGraphic"/>
    </filter>
  </defs>
  <g id="banner-principal-decorativo-3" transform="translate(7706 11881)">
    <g data-type="innerShadowGroup">
      <g transform="matrix(1, 0, 0, 1, -7706, -11881)" filter="url(#Ellipse_13673)">
        <g id="Ellipse_13673-3" data-name="Ellipse 13673" transform="translate(9 6)" fill="#f9f6ff" stroke="#cfde90" stroke-width="3">
          <circle cx="45" cy="45" r="45" stroke="none"/>
          <circle cx="45" cy="45" r="43.5" fill="none"/>
        </g>
      </g>
      <circle id="Ellipse_13673-4" data-name="Ellipse 13673" cx="45" cy="45" r="45" transform="translate(-7697 -11875)" fill="#f9f6ff"/>
      <g transform="matrix(1, 0, 0, 1, -7706, -11881)" filter="url(#Ellipse_13673-2)">
        <circle id="Ellipse_13673-5" data-name="Ellipse 13673" cx="45" cy="45" r="45" transform="translate(9 6)" fill="#fff"/>
      </g>
      <g id="Ellipse_13673-6" data-name="Ellipse 13673" transform="translate(-7697 -11875)" fill="none" stroke="#cfde90" stroke-width="3">
        <circle cx="45" cy="45" r="45" stroke="none"/>
        <circle cx="45" cy="45" r="43.5" fill="none"/>
      </g>
    </g>
    <g id="Group_1178150" data-name="Group 1178150" transform="translate(-7678.718 -11856.719)">
      <g id="Group_1178148" data-name="Group 1178148" transform="translate(8.029 22.723)">
        <circle id="Ellipse_13678" data-name="Ellipse 13678" cx="11.278" cy="11.278" r="11.278" fill="#cfde90"/>
      </g>
      <g id="Group_1178149" data-name="Group 1178149" transform="translate(0 0)">
        <path id="Path_998510" data-name="Path 998510" d="M153.279,263.7l-.385-.137v-2.826a1.245,1.245,0,0,1,.578.405,1.044,1.044,0,1,0,1.709-1.2,3.544,3.544,0,0,0-2.287-1.362v-.116a1.044,1.044,0,0,0-2.087,0v.192q-.181.043-.366.1a3.29,3.29,0,0,0-2.245,2.886,3.07,3.07,0,0,0,1.872,3.06c.165.078.418.184.739.309v3.428a2.26,2.26,0,0,1-1.044-.675,1.044,1.044,0,1,0-1.626,1.309,4.587,4.587,0,0,0,2.669,1.523v.052a1.044,1.044,0,0,0,2.087.025,3.457,3.457,0,0,0,3.15-2.906A3.9,3.9,0,0,0,153.279,263.7Zm-3-1.9a1.261,1.261,0,0,1,.529-.928v1.865A.957.957,0,0,1,150.278,261.792Zm3.695,5.709a1.283,1.283,0,0,1-1.079,1.044v-2.75A1.751,1.751,0,0,1,153.972,267.5Z" transform="translate(-132.469 -230.552)" fill="#020288"/>
        <path id="Path_998511" data-name="Path 998511" d="M52.393,33.93H38.613c-.067-3-1.441-7.128-3.793-11.375a39.608,39.608,0,0,0-6.91-9.216,1.043,1.043,0,0,0,.492-.886v-5.7A1.044,1.044,0,0,0,27.358,5.71H25.927l.137-.179a15.686,15.686,0,0,0,2.623-4.2,1.044,1.044,0,0,0-1-1.331H10.932a1.044,1.044,0,0,0-1,1.331,15.682,15.682,0,0,0,2.623,4.2l.137.18H11.257a1.044,1.044,0,0,0-1.044,1.044v5.7a1.043,1.043,0,0,0,.5.892A39.786,39.786,0,0,0,3.8,22.577C1.385,26.937,0,31.158,0,34.158A19.327,19.327,0,0,0,5.436,48.01a19.389,19.389,0,0,0,13.872,5.426,19.042,19.042,0,0,0,14.774-6.392v5.348a1.044,1.044,0,0,0,1.044,1.044H52.393a1.044,1.044,0,0,0,1.044-1.044V34.973A1.044,1.044,0,0,0,52.393,33.93ZM36.169,41.824h15.18v3.719H36.169Zm15.18-2.087H36.169V36.017h15.18ZM14.209,4.261c-.5-.655-1.113-1.453-1.582-2.173H25.989c-.469.721-1.08,1.518-1.582,2.174-.477.623-.825,1.081-1.067,1.449H15.276C15.034,5.342,14.686,4.884,14.209,4.261ZM12.3,7.8H26.315v3.611H12.3Zm7.007,43.552c-10.139,0-17.22-7.069-17.22-17.191,0-2.618,1.323-6.569,3.538-10.57a34.869,34.869,0,0,1,7.909-9.951,1.052,1.052,0,0,0,.144-.141h7.028L19.188,16.07a1.044,1.044,0,1,0,1.8,1.06l1.207-2.048,2.592,5.727a1.044,1.044,0,1,0,1.9-.861L23.766,13.5H24.95a1.051,1.051,0,0,0,.143.139,34.711,34.711,0,0,1,7.9,9.931c2.183,3.943,3.461,7.7,3.531,10.364h-1.4a1.044,1.044,0,0,0-1.044,1.044v8.511c-2.992,5-8.374,7.864-14.774,7.864Zm32.041,0H36.169V47.63h15.18Z" transform="translate(0 0)" fill="#020288"/>
      </g>
    </g>
  </g>
</svg>
