<svg xmlns="http://www.w3.org/2000/svg" xmlns:xlink="http://www.w3.org/1999/xlink" width="108" height="108" viewBox="0 0 108 108">
  <defs>
    <filter id="Ellipse_13673" x="0" y="0" width="108" height="108" filterUnits="userSpaceOnUse">
      <feOffset dy="3" input="SourceAlpha"/>
      <feGaussianBlur stdDeviation="3" result="blur"/>
      <feFlood flood-opacity="0.161"/>
      <feComposite operator="in" in2="blur"/>
    </filter>
    <filter id="Ellipse_13673-2" x="0" y="0" width="108" height="108" filterUnits="userSpaceOnUse">
      <feOffset dy="3" input="SourceAlpha"/>
      <feGaussianBlur stdDeviation="3" result="blur-2"/>
      <feFlood flood-color="#fff" flood-opacity="0.161" result="color"/>
      <feComposite operator="out" in="SourceGraphic" in2="blur-2"/>
      <feComposite operator="in" in="color"/>
      <feComposite operator="in" in2="SourceGraphic"/>
    </filter>
  </defs>
  <g id="banner-principal-decorativo-1" transform="translate(7706 11881)">
    <g data-type="innerShadowGroup">
      <g transform="matrix(1, 0, 0, 1, -7706, -11881)" filter="url(#Ellipse_13673)">
        <g id="Ellipse_13673-3" data-name="Ellipse 13673" transform="translate(9 6)" fill="#f9f6ff" stroke="#cfde90" stroke-width="3">
          <circle cx="45" cy="45" r="45" stroke="none"/>
          <circle cx="45" cy="45" r="43.5" fill="none"/>
        </g>
      </g>
      <circle id="Ellipse_13673-4" data-name="Ellipse 13673" cx="45" cy="45" r="45" transform="translate(-7697 -11875)" fill="#f9f6ff"/>
      <g transform="matrix(1, 0, 0, 1, -7706, -11881)" filter="url(#Ellipse_13673-2)">
        <circle id="Ellipse_13673-5" data-name="Ellipse 13673" cx="45" cy="45" r="45" transform="translate(9 6)" fill="#fff"/>
      </g>
      <g id="Ellipse_13673-6" data-name="Ellipse 13673" transform="translate(-7697 -11875)" fill="none" stroke="#cfde90" stroke-width="3">
        <circle cx="45" cy="45" r="45" stroke="none"/>
        <circle cx="45" cy="45" r="43.5" fill="none"/>
      </g>
    </g>
    <g id="Group_1178140" data-name="Group 1178140" transform="translate(-7680.184 -11914.512)">
      <g id="Group_1178138" data-name="Group 1178138" transform="translate(7.803 69.752)">
        <circle id="Ellipse_13676" data-name="Ellipse 13676" cx="12.136" cy="12.136" r="12.136" transform="translate(0 0)" fill="#cfde90"/>
      </g>
      <g id="Group_1178139" data-name="Group 1178139" transform="translate(0 63.297)">
        <path id="Path_998505" data-name="Path 998505" d="M145.433,173.746a1.1,1.1,0,1,0-1.715,1.381,4.921,4.921,0,0,0,2.877,1.635v.074a1.1,1.1,0,0,0,2.2.009,3.644,3.644,0,0,0,3.389-3.111,4.177,4.177,0,0,0-2.96-4.355l-.429-.153v-3.087a1.384,1.384,0,0,1,.662.455,1.1,1.1,0,0,0,1.8-1.265,3.8,3.8,0,0,0-2.464-1.459v-.143a1.1,1.1,0,0,0-2.2,0v.224q-.2.047-.409.109a3.519,3.519,0,0,0-2.4,3.086,3.282,3.282,0,0,0,2,3.271c.18.085.457.2.807.338v3.735A2.473,2.473,0,0,1,145.433,173.746Zm4.569-.29a1.411,1.411,0,0,1-1.2,1.149v-3.023A1.915,1.915,0,0,1,150,173.456Zm-4.02-6.148a1.374,1.374,0,0,1,.613-1.038v2.086A1.059,1.059,0,0,1,145.982,167.308Z" transform="translate(-127.679 -151.69)" fill="#020288"/>
        <path id="Path_998506" data-name="Path 998506" d="M53.03,83.291V73.276a4.509,4.509,0,0,0-4.5-4.5H39.745c-.559-3.294-2.819-5.476-5.876-5.476H6.156A6.163,6.163,0,0,0,0,69.453v30.587a1.1,1.1,0,0,0,1.1,1.1H5.553a5.47,5.47,0,0,0,10.8,0H40.33a5.47,5.47,0,0,0,10.8,0h4.14a1.1,1.1,0,0,0,1.1-1.1V87.152a3.908,3.908,0,0,0-3.338-3.862Zm-2.2-10.014V83.25H39.878V70.975h8.648A2.3,2.3,0,0,1,50.828,73.276ZM2.2,69.453A3.958,3.958,0,0,1,6.156,65.5H33.868c2.278,0,3.808,1.973,3.808,4.91v28.53H16.259a5.47,5.47,0,0,0-10.615,0H2.2Zm8.75,34.073a3.266,3.266,0,1,1,3.267-3.266A3.271,3.271,0,0,1,10.952,103.526Zm34.777,0A3.266,3.266,0,1,1,49,100.26,3.271,3.271,0,0,1,45.728,103.526Zm8.438-4.587h-3.13a5.47,5.47,0,0,0-10.615,0h-.542V85.452H52.466a1.7,1.7,0,0,1,1.7,1.7V98.938Z" transform="translate(0 -63.297)" fill="#020288"/>
      </g>
    </g>
  </g>
</svg>
