<svg xmlns="http://www.w3.org/2000/svg" xmlns:xlink="http://www.w3.org/1999/xlink" width="292" height="139" viewBox="0 0 292 139">
  <defs>
    <clipPath id="clip-path">
      <rect id="Rectangle_455910" data-name="Rectangle 455910" width="287.566" height="99.187" fill="none"/>
    </clipPath>
  </defs>
  <g id="img18" transform="translate(-185.711 -7486)">
    <rect id="Rectangle_455383" data-name="Rectangle 455383" width="292" height="139" rx="10" transform="translate(185.711 7486)" fill="#f1f5dd"/>
    <path id="Rectangle_455912" data-name="Rectangle 455912" d="M0,0H283a9,9,0,0,1,9,9v3a10,10,0,0,1-10,10H10A10,10,0,0,1,0,12V0A0,0,0,0,1,0,0Z" transform="translate(185.711 7603)" fill="#cfde90"/>
    <g id="Group_1179504" data-name="Group 1179504" transform="translate(187.711 7506)">
      <g id="Group_1179501" data-name="Group 1179501" clip-path="url(#clip-path)">
        <path id="Path_1006177" data-name="Path 1006177" d="M285.748,178.321H1.817a1.817,1.817,0,0,0,0,3.635H285.748a1.817,1.817,0,0,0,0-3.635" transform="translate(0 -82.879)" fill="#ddf6ff"/>
        <path id="Path_1006178" data-name="Path 1006178" d="M108.844,1.149H46.537a1.524,1.524,0,0,0-1.524,1.524V99.561h65.356V2.673a1.524,1.524,0,0,0-1.524-1.524" transform="translate(-20.921 -0.534)" fill="#d3f2ff"/>
        <path id="Path_1006179" data-name="Path 1006179" d="M47.813,1.149H17.163a1.524,1.524,0,0,0-1.524,1.524V99.561h33.7V2.673a1.524,1.524,0,0,0-1.524-1.524" transform="translate(-7.269 -0.534)" fill="#bfdef7"/>
        <path id="Path_1006180" data-name="Path 1006180" d="M91.552,72.356c0-13.183,7.5-23.87,16.756-23.87s16.756,10.687,16.756,23.87-7.5,23.87-16.756,23.87S91.552,85.539,91.552,72.356" transform="translate(-42.551 -22.535)" fill="#5eafe8"/>
        <path id="Path_1006181" data-name="Path 1006181" d="M117.005,75.294c0,11.314-6.438,20.486-14.381,20.486a10.411,10.411,0,0,1-3.7-.71l-.135-.133c-.217-.212-.431-.434-.64-.662a20.631,20.631,0,0,1-1.728-2.162,23.354,23.354,0,0,1-1.373-2.229q-.275-.506-.53-1.032l-.01-.019a27.643,27.643,0,0,1-1.343-3.315c-.1-.3-.2-.606-.288-.914a31.653,31.653,0,0,1-1.022-4.784q-.021-.157-.041-.315-.094-.75-.154-1.516c-.027-.341-.048-.686-.065-1.032a.107.107,0,0,1,0-.019q-.04-.814-.04-1.644t.041-1.671c.014-.306.033-.611.057-.914a32.414,32.414,0,0,1,.789-5.1,24.765,24.765,0,0,1,6.483-12.091,10.411,10.411,0,0,1,3.7-.71c7.942,0,14.381,9.172,14.381,20.485" transform="translate(-42.551 -25.474)" fill="#00263f"/>
        <path id="Path_1006182" data-name="Path 1006182" d="M127.691,104.359c-2.691,2.93-3.649,5.8-3.017,9.042l-5.55,1.083c-.976-5.008.5-9.7,4.4-13.948Z" transform="translate(-55.23 -46.726)" fill="#2ba17a"/>
        <path id="Path_1006183" data-name="Path 1006183" d="M122.956,110.59a1.441,1.441,0,0,1,2.341.449,2.6,2.6,0,0,1-.686,2.971,1.442,1.442,0,0,1-2.342-.45,2.6,2.6,0,0,1,.687-2.97" transform="translate(-56.729 -51.206)" fill="#6abf8d"/>
        <path id="Path_1006184" data-name="Path 1006184" d="M169.118,174.205a13.179,13.179,0,0,0,8.488,2.535l.239,3.3a20.932,20.932,0,0,1-13.131-3.764Z" transform="translate(-76.554 -80.966)" fill="#2ba17a"/>
        <path id="Path_1006185" data-name="Path 1006185" d="M174.2,180.035c-.563-.544-.207-1.132.8-1.313a3.637,3.637,0,0,1,2.833.657c.563.544.207,1.133-.8,1.313a3.636,3.636,0,0,1-2.833-.657" transform="translate(-80.839 -83.04)" fill="#6abf8d"/>
        <path id="Path_1006186" data-name="Path 1006186" d="M105.768,94.167c-3.156-2.423-6.1-3.126-9.272-2.212L94.93,86.522c4.9-1.412,9.708-.35,14.281,3.158Z" transform="translate(-44.121 -39.932)" fill="#2ba17a"/>
        <path id="Path_1006187" data-name="Path 1006187" d="M107.622,89.384a1.441,1.441,0,0,1-.242,2.372,2.6,2.6,0,0,1-3.019-.423,1.441,1.441,0,0,1,.242-2.372,2.6,2.6,0,0,1,3.019.423" transform="translate(-48.266 -41.204)" fill="#6abf8d"/>
        <path id="Path_1006188" data-name="Path 1006188" d="M103.091,71.576c-3.338,2.165-4.985,4.707-5.182,8l-5.646-.34c.307-5.093,2.914-9.266,7.747-12.4Z" transform="translate(-42.882 -31.062)" fill="#2ba17a"/>
        <path id="Path_1006189" data-name="Path 1006189" d="M99.141,75.793a1.441,1.441,0,0,1,2.154,1.021,2.6,2.6,0,0,1-1.407,2.7A1.441,1.441,0,0,1,97.734,78.5a2.6,2.6,0,0,1,1.407-2.7" transform="translate(-45.406 -35.142)" fill="#6abf8d"/>
        <path id="Path_1006190" data-name="Path 1006190" d="M92.841,15.394c0-2.215,1.26-4.012,2.816-4.012s2.816,1.8,2.816,4.012S97.212,19.4,95.657,19.4s-2.816-1.8-2.816-4.011" transform="translate(-43.15 -5.29)" fill="#fff"/>
        <path id="Path_1006191" data-name="Path 1006191" d="M98.84,96.155v6.1H94.527c-.217-.212-.431-.434-.64-.662a20.63,20.63,0,0,1-1.728-2.162q-.137-.2-.271-.4c-.014-.1-.028-.209-.041-.315q-.094-.751-.154-1.516c-.027-.341-.048-.686-.065-1.032a.11.11,0,0,1,0-.019Z" transform="translate(-42.586 -44.69)" fill="#4ab083"/>
        <rect id="Rectangle_455859" data-name="Rectangle 455859" width="3.467" height="6.104" transform="translate(56.254 51.464)" fill="#6abf8d"/>
        <path id="Path_1006192" data-name="Path 1006192" d="M98.89,78.726v5.1H91.736a32.407,32.407,0,0,1,.789-5.1Z" transform="translate(-42.636 -36.59)" fill="#4ab083"/>
        <rect id="Rectangle_455860" data-name="Rectangle 455860" width="3.467" height="5.099" transform="translate(56.254 42.136)" fill="#6abf8d"/>
        <path id="Path_1006193" data-name="Path 1006193" d="M97.977,88.253v4.229H91.593q-.039-.815-.04-1.645t.041-1.67q.022-.459.057-.914Z" transform="translate(-42.551 -41.017)" fill="#4ab083"/>
        <rect id="Rectangle_455861" data-name="Rectangle 455861" width="3.467" height="4.229" transform="translate(55.427 47.236)" fill="#6abf8d"/>
        <path id="Path_1006194" data-name="Path 1006194" d="M101.48,88.253v.914H91.629q.022-.459.057-.914Z" transform="translate(-42.587 -41.017)" fill="#2ba17a"/>
        <path id="Path_1006195" data-name="Path 1006195" d="M101.48,96.19v1.032H91.694c-.028-.341-.049-.686-.065-1.032Z" transform="translate(-42.587 -44.706)" fill="#6abf8d"/>
        <rect id="Rectangle_455862" data-name="Rectangle 455862" width="1.729" height="3.052" transform="translate(50.438 51.465)" fill="#f5f5f5"/>
        <rect id="Rectangle_455863" data-name="Rectangle 455863" width="1.729" height="4.248" transform="translate(49.328 47.236)" fill="#f5f5f5"/>
        <rect id="Rectangle_455864" data-name="Rectangle 455864" width="1.729" height="5.099" transform="translate(50.509 42.136)" fill="#f5f5f5"/>
        <path id="Path_1006196" data-name="Path 1006196" d="M94.349,101.888v2.373a20.648,20.648,0,0,1-1.728-2.162v-.211Z" transform="translate(-43.048 -47.355)" fill="#f5f5f5"/>
        <path id="Path_1006197" data-name="Path 1006197" d="M105.667,118.379v6.1h-4.313c-.217-.212-.431-.434-.64-.662a20.7,20.7,0,0,1-1.728-2.162,23.354,23.354,0,0,1-1.373-2.229q-.275-.506-.53-1.032l-.009-.019Z" transform="translate(-45.117 -55.019)" fill="#4ab083"/>
        <rect id="Rectangle_455865" data-name="Rectangle 455865" width="3.467" height="6.104" transform="translate(60.549 63.359)" fill="#6abf8d"/>
        <path id="Path_1006198" data-name="Path 1006198" d="M103.326,100.95v5.1H93.1a31.721,31.721,0,0,1-1.063-5.1Z" transform="translate(-42.777 -46.919)" fill="#4ab083"/>
        <rect id="Rectangle_455866" data-name="Rectangle 455866" width="3.467" height="5.099" transform="translate(60.549 54.031)" fill="#6abf8d"/>
        <path id="Path_1006199" data-name="Path 1006199" d="M103.421,110.477v4.229H95.655a27.734,27.734,0,0,1-1.343-3.315c-.1-.3-.2-.606-.288-.914Z" transform="translate(-43.7 -51.347)" fill="#4ab083"/>
        <rect id="Rectangle_455867" data-name="Rectangle 455867" width="3.467" height="4.229" transform="translate(59.722 59.13)" fill="#6abf8d"/>
        <path id="Path_1006200" data-name="Path 1006200" d="M106.888,110.477v.914H94.313c-.1-.3-.2-.606-.289-.914Z" transform="translate(-43.7 -51.347)" fill="#2ba17a"/>
        <path id="Path_1006201" data-name="Path 1006201" d="M108.314,118.414v1.032H97.62c-.183-.337-.36-.681-.529-1.032Z" transform="translate(-45.125 -55.035)" fill="#6abf8d"/>
        <rect id="Rectangle_455868" data-name="Rectangle 455868" width="1.729" height="3.052" transform="translate(54.733 63.359)" fill="#f5f5f5"/>
        <rect id="Rectangle_455869" data-name="Rectangle 455869" width="1.729" height="4.248" transform="translate(53.623 59.13)" fill="#f5f5f5"/>
        <rect id="Rectangle_455870" data-name="Rectangle 455870" width="1.729" height="5.099" transform="translate(54.805 54.031)" fill="#f5f5f5"/>
        <path id="Path_1006202" data-name="Path 1006202" d="M102.374,124.112v2.373a20.65,20.65,0,0,1-1.728-2.162v-.211Z" transform="translate(-46.777 -57.684)" fill="#f5f5f5"/>
        <path id="Path_1006203" data-name="Path 1006203" d="M122.887,73.827c0,12.183-7.133,22.1-15.921,22.176a17.161,17.161,0,0,1-5.017-4.446,9.443,9.443,0,0,0,4.915,1.432c7.169,0,13-8.6,13-19.162s-5.832-19.162-13-19.162a9.441,9.441,0,0,0-4.916,1.433,17.159,17.159,0,0,1,5.019-4.448c8.787.078,15.919,9.993,15.919,22.177" transform="translate(-47.383 -24.005)" fill="#d4d4d4"/>
        <path id="Path_1006204" data-name="Path 1006204" d="M154.166,72.356c0,13.183,7.606,23.87,16.988,23.87s16.988-10.687,16.988-23.87-7.606-23.87-16.988-23.87-16.988,10.687-16.988,23.87m5.236,0c0-10.1,5.382-18.634,11.752-18.634s11.752,8.534,11.752,18.634S177.524,90.99,171.154,90.99,159.4,82.457,159.4,72.356" transform="translate(-71.652 -22.535)" fill="#5eafe8"/>
        <rect id="Rectangle_455871" data-name="Rectangle 455871" width="47.379" height="2.842" transform="translate(42.068 16.095)" fill="#bfdef7"/>
        <path id="Path_1006205" data-name="Path 1006205" d="M123.173,19.317h-11.7a.526.526,0,0,1-.526-.526V11.82a.526.526,0,0,1,.526-.526h11.7a.526.526,0,0,1,.525.526v6.971a.526.526,0,0,1-.525.526" transform="translate(-51.565 -5.249)" fill="#fff"/>
        <path id="Path_1006206" data-name="Path 1006206" d="M147.785,93.852a2.207,2.207,0,0,1-2.207-2.207V84.386a2.207,2.207,0,0,1,2.207-2.207h8.251a27.557,27.557,0,0,0,0,11.673Z" transform="translate(-67.661 -38.194)" fill="#bfdef7"/>
        <path id="Path_1006207" data-name="Path 1006207" d="M135.584,5.846a4.7,4.7,0,0,0-4.7-4.7h4.781a6.685,6.685,0,0,1,1.93,4.7v12.2h-2.014Z" transform="translate(-60.833 -0.534)" fill="#bfdef7"/>
        <rect id="Rectangle_455872" data-name="Rectangle 455872" width="47.379" height="4.57" transform="translate(42.068 94.458)" fill="#bfdef7"/>
        <path id="Path_1006208" data-name="Path 1006208" d="M92.3,178.852a19.307,19.307,0,0,0,9.4-.325l3.1,2.229a30.257,30.257,0,0,1-14.4.613Z" transform="translate(-42.01 -82.974)" fill="#6abf8d"/>
        <path id="Path_1006209" data-name="Path 1006209" d="M100.592,182.353c-.953-.239-1.167-.734-.478-1.1a4.81,4.81,0,0,1,2.971-.24c.953.239,1.167.734.478,1.105a4.81,4.81,0,0,1-2.971.24" transform="translate(-46.343 -84.068)" fill="#2ba17a"/>
        <path id="Path_1006210" data-name="Path 1006210" d="M176.869,179.263a19.3,19.3,0,0,0,9.4-.325l3.1,2.23a30.265,30.265,0,0,1-14.4.613Z" transform="translate(-81.317 -83.165)" fill="#6abf8d"/>
        <path id="Path_1006211" data-name="Path 1006211" d="M185.166,182.765c-.953-.239-1.167-.734-.479-1.1a4.81,4.81,0,0,1,2.971-.24c.953.239,1.167.734.479,1.105a4.81,4.81,0,0,1-2.971.24" transform="translate(-85.65 -84.26)" fill="#2ba17a"/>
        <rect id="Rectangle_455873" data-name="Rectangle 455873" width="11.531" height="5.114" transform="translate(78.391 89.748)" fill="#6abf8d"/>
        <rect id="Rectangle_455874" data-name="Rectangle 455874" width="3.477" height="5.114" transform="translate(74.914 89.748)" fill="#2ba17a"/>
        <rect id="Rectangle_455875" data-name="Rectangle 455875" width="11.531" height="4.232" transform="translate(79.221 94.862)" fill="#6abf8d"/>
        <rect id="Rectangle_455876" data-name="Rectangle 455876" width="3.477" height="4.242" transform="translate(75.744 94.862)" fill="#2ba17a"/>
        <rect id="Rectangle_455877" data-name="Rectangle 455877" width="15.008" height="0.917" transform="translate(75.744 94.862)" fill="#2ba17a"/>
        <rect id="Rectangle_455878" data-name="Rectangle 455878" width="1.734" height="4.232" transform="translate(83.604 94.861)" fill="#f5f5f5"/>
        <rect id="Rectangle_455879" data-name="Rectangle 455879" width="1.734" height="5.114" transform="translate(82.419 89.748)" fill="#f5f5f5"/>
        <rect id="Rectangle_455880" data-name="Rectangle 455880" width="11.531" height="5.083" transform="translate(60.427 93.957)" fill="#6abf8d"/>
        <rect id="Rectangle_455881" data-name="Rectangle 455881" width="3.477" height="5.083" transform="translate(56.95 93.957)" fill="#2ba17a"/>
        <rect id="Rectangle_455882" data-name="Rectangle 455882" width="1.734" height="1.998" transform="translate(64.526 93.957)" fill="#f5f5f5"/>
        <rect id="Rectangle_455883" data-name="Rectangle 455883" width="1.734" height="3.084" transform="translate(65.393 95.955)" fill="#f5f5f5"/>
        <rect id="Rectangle_455884" data-name="Rectangle 455884" width="11.531" height="5.082" transform="translate(79.921 84.705)" fill="#6abf8d"/>
        <rect id="Rectangle_455885" data-name="Rectangle 455885" width="3.477" height="5.082" transform="translate(76.444 84.705)" fill="#2ba17a"/>
        <rect id="Rectangle_455886" data-name="Rectangle 455886" width="1.734" height="1.998" transform="translate(84.02 84.705)" fill="#f5f5f5"/>
        <rect id="Rectangle_455887" data-name="Rectangle 455887" width="1.734" height="3.084" transform="translate(84.887 86.703)" fill="#f5f5f5"/>
        <rect id="Rectangle_455888" data-name="Rectangle 455888" width="11.531" height="5.082" transform="translate(78.489 79.639)" fill="#6abf8d"/>
        <rect id="Rectangle_455889" data-name="Rectangle 455889" width="3.477" height="5.082" transform="translate(75.012 79.639)" fill="#2ba17a"/>
        <rect id="Rectangle_455890" data-name="Rectangle 455890" width="1.734" height="1.998" transform="translate(82.588 79.639)" fill="#f5f5f5"/>
        <rect id="Rectangle_455891" data-name="Rectangle 455891" width="1.734" height="3.084" transform="translate(83.455 81.637)" fill="#f5f5f5"/>
        <rect id="Rectangle_455892" data-name="Rectangle 455892" width="11.531" height="5.083" transform="translate(61.748 88.89)" fill="#6abf8d"/>
        <rect id="Rectangle_455893" data-name="Rectangle 455893" width="3.477" height="5.083" transform="translate(58.271 88.89)" fill="#2ba17a"/>
        <rect id="Rectangle_455894" data-name="Rectangle 455894" width="1.734" height="1.998" transform="translate(65.848 88.89)" fill="#f5f5f5"/>
        <rect id="Rectangle_455895" data-name="Rectangle 455895" width="1.734" height="3.084" transform="translate(66.715 90.889)" fill="#f5f5f5"/>
        <path id="Path_1006212" data-name="Path 1006212" d="M183.413,55.2,171.456,43.377l2.817-2.025a5.228,5.228,0,0,1,5.971-.09l7.482,5.04L198.812,36.05c5.167-3.188,9.306-.84,13,4.94l-19.591,14.8a6.748,6.748,0,0,1-8.811-.586" transform="translate(-79.688 -16.089)" fill="#797068"/>
        <path id="Path_1006213" data-name="Path 1006213" d="M166.9,49.653l4.819,1.178a4.776,4.776,0,0,0,4.827-1.522l.069-.084a4.207,4.207,0,0,0-2.9-6.738l-2.706-.307a5.777,5.777,0,0,0-6.087,3.787,2.814,2.814,0,0,0,1.981,3.686" transform="translate(-76.573 -19.587)" fill="#14324f"/>
        <path id="Path_1006214" data-name="Path 1006214" d="M217.681.695a7.53,7.53,0,0,0,2.874.1,4.7,4.7,0,0,1,5.424,4.382L208.79,4.767a5.314,5.314,0,0,1,6.468-4.63Z" transform="translate(-97.04 0)" fill="#184262"/>
        <path id="Path_1006215" data-name="Path 1006215" d="M212.7,38.647a6.052,6.052,0,0,1,2.992-7.114l4.285-2.268a15.765,15.765,0,0,1,13.071-.838l2.221.873a13.785,13.785,0,0,1,8.729,12.344l.907,25.871a7.5,7.5,0,0,1-7.4,8.449,6.811,6.811,0,0,1-.74-.061l-8.712-1.2a9.861,9.861,0,0,1-8.369-8.074Z" transform="translate(-98.76 -12.729)" fill="#988c81"/>
        <path id="Path_1006216" data-name="Path 1006216" d="M222.454,81.806l-1.674-6.7a57.915,57.915,0,0,0,27.356-5.732l.267,7.618c-7.568,3.787-16.344,5.137-25.949,4.817" transform="translate(-102.612 -32.242)" fill="#14324f"/>
        <path id="Path_1006217" data-name="Path 1006217" d="M243.527,43.705a13.741,13.741,0,0,1,1.388,5.524l.05,1.434c-8.237,4.663-18.018,6.211-28.815,5.712l-1.678-6.72c9.655.671,19.34-1.35,29.054-5.949" transform="translate(-99.681 -20.313)" fill="#14324f"/>
        <path id="Path_1006218" data-name="Path 1006218" d="M226.273,34.748a3.238,3.238,0,0,0,4.24,0q.974-.863,1.98-1.61c1.8-1.333,1.841-4.263.05-6.433a32.816,32.816,0,0,1-2.094-2.862c-.8-1.223-.582-1.886-1.828-2.415-1.6-.68-4.636,1.2-5.7,2.008-3.349,2.538-1.168,7.348,2.5,10.582Z" transform="translate(-102.835 -9.892)" fill="#fdf1e2"/>
        <path id="Path_1006219" data-name="Path 1006219" d="M223.91,18.435l-.158-5.505a4.166,4.166,0,0,0-4.021-3.651L213.319,9.1a4.053,4.053,0,0,0-3.91,2.477,8.233,8.233,0,0,0-.566,3.218l.169,7.115c.08,3.352,2.822,4.646,6.173,4.706,3.1.055,6.02.04,7.922-2.414a4.92,4.92,0,0,0,1.013-3.467Z" transform="translate(-97.063 -4.231)" fill="#f78c73"/>
        <path id="Path_1006220" data-name="Path 1006220" d="M236.224,28.74h0c1.422.24,2.878-1.268,3.307-3.423h0c.3-1.523-.376-2.884-1.409-2.822a2.561,2.561,0,0,0-2.21,2.015l-.029,3.477c-.058.377.094.712.341.754" transform="translate(-109.626 -10.454)" fill="#f78c73"/>
        <path id="Path_1006221" data-name="Path 1006221" d="M209.648,24.441a2.242,2.242,0,0,0,1.708-.729,2.3,2.3,0,0,1,3.414-.174l.348.368a2.241,2.241,0,0,0,1.577.7l2.69.064a4.437,4.437,0,0,0,3.944-2.208,5.166,5.166,0,0,1,2.715-2.271l.037-2.822L208.9,17.5a8.212,8.212,0,0,0-.06,1.142l.007.3,1.527.036a1.213,1.213,0,0,1-.057,2.426l-1.412-.034.073,3.06Zm5.543-4.14a1.213,1.213,0,0,1,1.241-1.184l1.7.04a1.213,1.213,0,1,1-.058,2.426l-1.7-.04a1.213,1.213,0,0,1-1.184-1.242" transform="translate(-97.063 -8.074)" fill="#14324f"/>
        <path id="Path_1006222" data-name="Path 1006222" d="M225.979,7.9,208.789,7.5a5.281,5.281,0,0,1,.473-1.627l16.294.386a4.7,4.7,0,0,1,.422,1.648" transform="translate(-97.039 -2.727)" fill="#14324f"/>
        <path id="Path_1006223" data-name="Path 1006223" d="M208.135,8.912l17.455.413a.991.991,0,0,1,.971,1c-.008.641-.021,1.49-.033,2.21a1.456,1.456,0,0,1-1.49,1.431l-16.8-.4a1.126,1.126,0,0,1-1.1-1.166l.094-2.641a.883.883,0,0,1,.9-.852" transform="translate(-96.272 -4.142)" fill="#184262"/>
        <path id="Path_1006224" data-name="Path 1006224" d="M251.478,163.016c2.487.568,3.043,4.834,6.147,6.7.912.546,3.5.162,3.5-1.131.55-5.564-1.607-9.349-2.477-13.749a2.8,2.8,0,0,0-3.307-2.276,6.4,6.4,0,0,0-3.35,2.166Z" transform="translate(-116.88 -70.875)" fill="#23253e"/>
        <path id="Path_1006225" data-name="Path 1006225" d="M245.156,167.2,249,165.144a3.913,3.913,0,0,0,1.917-4.585c-.688-2.193-1.937-3.8-3.565-3.809-2.206.513-4.14.96-5.841,1.354Z" transform="translate(-112.247 -72.853)" fill="#23253e"/>
        <path id="Path_1006226" data-name="Path 1006226" d="M212.95,103.961l14.211,3c1.14,15.052-8.1,22.2-13.988,31.69a35.467,35.467,0,0,0-2.3,4.969,5.8,5.8,0,0,1-6.5,3.646c-3.044-.568-5.949-3.125-5.508-7.769a10.543,10.543,0,0,1,.667-2.676l3.9-10.448Z" transform="translate(-92.403 -48.318)" fill="#14324f"/>
        <path id="Path_1006227" data-name="Path 1006227" d="M231.389,156.632c-17.461.642-11.6.358-21.4,2.427-1.019,4.8-.846,9.556.436,12.748l22.153-2.451c1.114-4.287,1.736-9.535-1.192-12.723" transform="translate(-97.292 -72.798)" fill="#14324f"/>
        <path id="Path_1006228" data-name="Path 1006228" d="M222.82,168.13l5.363,2.508.055,2.822c.038,1.96-1.151,3.576-2.631,3.576h-14.6c-1.571,0-2.068-2.848-.641-3.72,2.191-1.339,5.446-2.158,7.745-4.39a4.2,4.2,0,0,1,4.706-.795" transform="translate(-97.382 -77.958)" fill="#23253e"/>
        <path id="Path_1006229" data-name="Path 1006229" d="M234.147,164.828c.056-2.625-1.386-5.488-2.424-9.593l-9.365,3.026a15.979,15.979,0,0,1,1.6,4.511,2.91,2.91,0,0,0,3.025,2.466Z" transform="translate(-103.346 -72.149)" fill="#23253e"/>
        <path id="Path_1006230" data-name="Path 1006230" d="M222.613,132.96l-3.256-12.978c-.029,0-.057,0-.086,0l.067-.034c-1.325-4.83-4.419-13.368-7.466-17.383-4.628-.367-11.915,2.374-10.381,7.134l10.2,26.786a19.527,19.527,0,0,0,10.917-3.525" transform="translate(-93.551 -47.654)" fill="#184262"/>
        <path id="Path_1006231" data-name="Path 1006231" d="M241.025,107.042a9.782,9.782,0,0,1-12.766,10.09c-3.962-1.29-9.367-2.873-16.729-5.028a35.4,35.4,0,0,0-5.4-.892,5.8,5.8,0,0,1-5.252-5.293c-.263-3.064,1.4-6.52,5.921-7.366a10.569,10.569,0,0,1,2.851-.089l24.322,2.117c1.782-1.734,5.537-2.284,6.125.533a36.722,36.722,0,0,1,.932,5.929" transform="translate(-93.348 -45.737)" fill="#184262"/>
        <rect id="Rectangle_455896" data-name="Rectangle 455896" width="11.558" height="6.137" transform="matrix(0.997, -0.082, 0.082, 0.997, 87.209, 37.141)" fill="#4ab083"/>
        <rect id="Rectangle_455897" data-name="Rectangle 455897" width="3.485" height="6.137" transform="translate(98.729 36.193) rotate(-4.704)" fill="#6abf8d"/>
        <rect id="Rectangle_455898" data-name="Rectangle 455898" width="11.558" height="5.126" transform="matrix(0.997, -0.082, 0.082, 0.997, 86.44, 27.795)" fill="#4ab083"/>
        <rect id="Rectangle_455899" data-name="Rectangle 455899" width="3.485" height="5.126" transform="translate(97.959 26.847) rotate(-4.704)" fill="#6abf8d"/>
        <rect id="Rectangle_455900" data-name="Rectangle 455900" width="11.558" height="4.251" transform="matrix(0.997, -0.082, 0.082, 0.997, 86.032, 32.973)" fill="#4ab083"/>
        <rect id="Rectangle_455901" data-name="Rectangle 455901" width="3.485" height="4.251" transform="translate(97.551 32.024) rotate(-4.704)" fill="#6abf8d"/>
        <rect id="Rectangle_455902" data-name="Rectangle 455902" width="15.043" height="0.919" transform="matrix(0.997, -0.082, 0.082, 0.997, 86.032, 32.973)" fill="#2ba17a"/>
        <rect id="Rectangle_455903" data-name="Rectangle 455903" width="14.223" height="1.037" transform="translate(87.2 37.161) rotate(-4.706)" fill="#6abf8d"/>
        <rect id="Rectangle_455904" data-name="Rectangle 455904" width="1.738" height="3.068" transform="translate(92.902 36.673) rotate(-4.699)" fill="#f5f5f5"/>
        <rect id="Rectangle_455905" data-name="Rectangle 455905" width="1.738" height="4.271" transform="translate(91.441 32.527) rotate(-4.699)" fill="#f5f5f5"/>
        <rect id="Rectangle_455906" data-name="Rectangle 455906" width="1.738" height="5.126" transform="translate(92.204 27.321) rotate(-4.699)" fill="#f5f5f5"/>
        <rect id="Rectangle_455907" data-name="Rectangle 455907" width="1.738" height="3.068" transform="translate(92.289 39.819) rotate(-4.699)" fill="#f5f5f5"/>
        <path id="Path_1006232" data-name="Path 1006232" d="M186.08,60.236l22.982-7.306,4.088-6.769,3.8-6.291c5.885-8.839,17.787.483,9.94,9.03l-4.6,5.172L216.924,60.1a12.617,12.617,0,0,1-7.659,4.037l-21.677,2.789Z" transform="translate(-86.485 -16.872)" fill="#797068"/>
        <path id="Path_1006233" data-name="Path 1006233" d="M178.038,86.161l-6.31.744a4.069,4.069,0,0,1-3.72-1.551c-.246-.324-.476-.655-.685-.991a4.7,4.7,0,0,1,4.137-7.077l3.042.029a6.454,6.454,0,0,1,6.234,5.029,3.145,3.145,0,0,1-2.7,3.817" transform="translate(-77.451 -35.92)" fill="#184262"/>
        <path id="Path_1006234" data-name="Path 1006234" d="M393.9,117.361l3.686,3.887,2.581-1.234,1.273-6.211a3.385,3.385,0,0,0-2.451-4.009,2.081,2.081,0,0,0-2.575,2.023,3.9,3.9,0,0,1-2.182,3.386,1.388,1.388,0,0,0-.331,2.159" transform="translate(-182.897 -50.996)" fill="#ff9e37"/>
        <path id="Path_1006235" data-name="Path 1006235" d="M503.238,172.961a7.937,7.937,0,0,1-1.537-3.29l3.228-.816c.546,2.159,1.182,2.379,2.449,2.819a7.438,7.438,0,0,1,4.957,4.467l-3.023,1.4a4.209,4.209,0,0,0-3.026-2.718,6.462,6.462,0,0,1-3.048-1.859" transform="translate(-233.176 -78.479)" fill="#2ba17a"/>
        <path id="Path_1006236" data-name="Path 1006236" d="M510.857,175.2c.7.551.789,1.255.191,1.573a2.43,2.43,0,0,1-2.358-.421c-.7-.551-.789-1.255-.191-1.574a2.431,2.431,0,0,1,2.358.422" transform="translate(-236.151 -81.159)" fill="#6abf8d"/>
        <path id="Path_1006237" data-name="Path 1006237" d="M412.3,126.052l7.961-9.667,2.583,4.408-7.962,9.667Z" transform="translate(-191.624 -54.093)" fill="#2ba17a"/>
        <path id="Path_1006238" data-name="Path 1006238" d="M419.5,129.173c.506.864,1.491.868,2.2.008a2.952,2.952,0,0,0,.365-3.121c-.506-.864-1.491-.868-2.2-.009a2.953,2.953,0,0,0-.365,3.122" transform="translate(-194.833 -58.287)" fill="#6abf8d"/>
        <path id="Path_1006239" data-name="Path 1006239" d="M485.173,143.283A31.09,31.09,0,0,0,468.3,121.118l-.352-1.474a2.866,2.866,0,0,0-4.06-1.906,7.182,7.182,0,0,0-3.59,3.914,1.9,1.9,0,0,0,1.764,2.609h2.361l-.9,2.419c-3.453,9.318-5.152,14.891-3.083,24.611l.267,1.251q.12.567.284,1.115h26.389Z" transform="translate(-213.583 -54.582)" fill="#e78851"/>
        <path id="Path_1006240" data-name="Path 1006240" d="M400.662,129.072l-11.24-3.559a5.185,5.185,0,0,0-5.107,1.159A54.085,54.085,0,0,0,370.3,147.415a7.325,7.325,0,0,0,6.864,9.883h23.5Z" transform="translate(-171.888 -58.222)" fill="#ff9e37"/>
        <path id="Path_1006241" data-name="Path 1006241" d="M392.274,125.512a5.183,5.183,0,0,0-5.106,1.159,55.379,55.379,0,0,0-11.2,14.489,4.928,4.928,0,0,0,6.633-1.533l.038-.058a24.5,24.5,0,0,1,8.8-8l3.3-1.788A4.918,4.918,0,0,0,396.978,127Z" transform="translate(-174.74 -58.222)" fill="#ffb746"/>
        <path id="Path_1006242" data-name="Path 1006242" d="M433.679,133.214l-2.369-.36a9.135,9.135,0,0,0-10.505,9.031v18.888h26.6l-1.229-14.229a14.768,14.768,0,0,0-12.5-13.33" transform="translate(-195.578 -61.698)" fill="#ff9e37"/>
        <path id="Path_1006243" data-name="Path 1006243" d="M401.4,140.755c-.2-4.073-1.6-6.842-4.418-8.714l3.21-4.827c4.355,2.9,6.709,7.357,7,13.256Z" transform="translate(-184.507 -59.126)" fill="#6abf8d"/>
        <path id="Path_1006244" data-name="Path 1006244" d="M408.039,139.288a1.477,1.477,0,0,1-2.014,1.383,2.666,2.666,0,0,1-1.671-2.64,1.477,1.477,0,0,1,2.015-1.383,2.665,2.665,0,0,1,1.67,2.64" transform="translate(-187.928 -63.465)" fill="#2ba17a"/>
        <path id="Path_1006245" data-name="Path 1006245" d="M419.435,155.053a14.873,14.873,0,0,0,1.223-1.947l.594-1.133c4.614-8.8,4.481-14.626,3.671-24.531l-.313-3.826-1.093-3.174c-3.194.757-16.11,2.253-23.918,17.149l-5.039,9.612a8.8,8.8,0,0,0-.181,7.851Z" transform="translate(-182.907 -55.978)" fill="#ffb746"/>
        <path id="Path_1006246" data-name="Path 1006246" d="M411.852,151.52l-.307.819a1.016,1.016,0,0,1-.941.588l-.53-.019c-.393-.014-.609-.3-.482-.639l.323-.862a.448.448,0,0,0-.348-.619,5.759,5.759,0,0,1-2.168-1.036c-.213-.172-.168-.5.077-.746l.651-.665a.869.869,0,0,1,1.066-.189,5.2,5.2,0,0,0,2.779,1.048c.829.029,1.447-.219,1.639-.73.593-1.582-5.238-.834-4.052-4a4.227,4.227,0,0,1,3.335-2.409.981.981,0,0,0,.729-.546l.306-.817a1.015,1.015,0,0,1,.941-.588l.53.019c.393.014.609.3.482.639l-.255.68a.454.454,0,0,0,.382.628,6.972,6.972,0,0,1,1.757.595c.38.193.387.666.03,1.04l-.386.405a1.2,1.2,0,0,1-1.3.317,6.177,6.177,0,0,0-2.32-.679c-.681-.024-1.221.176-1.384.61-.579,1.544,5.229.86,4.019,4.086a4.446,4.446,0,0,1-3.789,2.512.981.981,0,0,0-.78.553" transform="translate(-189.284 -65.121)" fill="#e78851"/>
        <path id="Path_1006247" data-name="Path 1006247" d="M445.918,119.91l4.975-3.931a3.417,3.417,0,0,0-1.706-6.091,7.885,7.885,0,0,0-6.469,2l.431,7.308Z" transform="translate(-205.763 -51.039)" fill="#ffb746"/>
        <path id="Path_1006248" data-name="Path 1006248" d="M393.562,178.9a8.907,8.907,0,0,0,.825,3.325h25.057a14.827,14.827,0,0,0,1.223-1.947l.721-1.376v0l-17.074,1.582a22.944,22.944,0,0,1-10.239-1.388Z" transform="translate(-182.916 -83.146)" fill="#ff9e37"/>
        <path id="Path_1006249" data-name="Path 1006249" d="M447.576,128.986a.76.76,0,0,1-.759-.759v-4.449a.759.759,0,1,1,1.519,0v4.449a.76.76,0,0,1-.759.759" transform="translate(-207.667 -57.175)" fill="#ff9e37"/>
        <path id="Path_1006250" data-name="Path 1006250" d="M447.02,124.162a.753.753,0,0,1-.488-.179,3.029,3.029,0,0,1-.269-.269,3.169,3.169,0,0,0-2.376-1.11.76.76,0,0,1,.13-1.514,4.676,4.676,0,0,1,3.363,1.594c.052.056.094.105.133.139a.76.76,0,0,1-.493,1.339" transform="translate(-205.983 -56.278)" fill="#ff9e37"/>
        <path id="Path_1006251" data-name="Path 1006251" d="M435.974,173.389a.76.76,0,0,1-.651-1.151,41.386,41.386,0,0,0,4.746-9.886.76.76,0,1,1,1.443.477,42.562,42.562,0,0,1-4.886,10.191.761.761,0,0,1-.652.369" transform="translate(-202.275 -75.214)" fill="#ff9e37"/>
        <path id="Path_1006252" data-name="Path 1006252" d="M332.725,125.611l-11.915-3.773a5.494,5.494,0,0,0-5.413,1.229,57.336,57.336,0,0,0-14.856,21.988,7.765,7.765,0,0,0,7.276,10.476h24.908Z" transform="translate(-139.452 -56.508)" fill="#e78851"/>
        <path id="Path_1006253" data-name="Path 1006253" d="M361.338,130l-2.511-.381a9.683,9.683,0,0,0-11.137,9.573v20.021h28.2l-1.3-15.083A15.655,15.655,0,0,0,361.338,130" transform="translate(-161.597 -60.192)" fill="#e78851"/>
        <path id="Path_1006254" data-name="Path 1006254" d="M352.626,153.151a15.828,15.828,0,0,0,1.3-2.064l.629-1.2c4.891-9.331,4.75-15.5,3.891-26l-.332-4.056-1.159-3.364c-3.385.8-17.076,2.388-25.353,18.178l-5.341,10.189a9.327,9.327,0,0,0-.193,8.322Z" transform="translate(-151.133 -54.129)" fill="#ff9e37"/>
        <path id="Path_1006255" data-name="Path 1006255" d="M380.7,115.9l5.274-4.167a3.622,3.622,0,0,0-1.809-6.456,8.359,8.359,0,0,0-6.857,2.115l.457,7.746Z" transform="translate(-175.361 -48.893)" fill="#ff9e37"/>
        <path id="Path_1006256" data-name="Path 1006256" d="M325.554,113.2l3.906,4.12,2.736-1.309,1.35-6.584a3.589,3.589,0,0,0-2.6-4.25,2.206,2.206,0,0,0-2.729,2.144,4.135,4.135,0,0,1-2.313,3.59,1.472,1.472,0,0,0-.351,2.288" transform="translate(-151.123 -48.847)" fill="#e78851"/>
        <path id="Path_1006257" data-name="Path 1006257" d="M325.2,178.425a9.44,9.44,0,0,0,.875,3.524h26.561a15.722,15.722,0,0,0,1.3-2.064l.764-1.458,0,0L336.6,180.1a24.313,24.313,0,0,1-10.854-1.471Z" transform="translate(-151.143 -82.927)" fill="#e78851"/>
        <path id="Path_1006258" data-name="Path 1006258" d="M382.454,125.52a.806.806,0,0,1-.806-.806V120a.806.806,0,0,1,1.611,0v4.716a.806.806,0,0,1-.806.806" transform="translate(-177.38 -55.398)" fill="#e78851"/>
        <path id="Path_1006259" data-name="Path 1006259" d="M381.866,120.4a.8.8,0,0,1-.517-.19,3.249,3.249,0,0,1-.285-.285,3.36,3.36,0,0,0-2.518-1.177.805.805,0,0,1,.137-1.6,4.961,4.961,0,0,1,3.566,1.69c.055.059.1.112.141.147a.806.806,0,0,1-.523,1.419" transform="translate(-175.595 -54.446)" fill="#e78851"/>
        <path id="Path_1006260" data-name="Path 1006260" d="M370.156,172.588a.806.806,0,0,1-.69-1.22,43.842,43.842,0,0,0,5.031-10.48.805.805,0,1,1,1.53.505,45.181,45.181,0,0,1-5.179,10.8.806.806,0,0,1-.692.391" transform="translate(-171.664 -74.519)" fill="#e78851"/>
        <path id="Path_1006261" data-name="Path 1006261" d="M323.833,121.838a5.494,5.494,0,0,0-5.413,1.229,58.734,58.734,0,0,0-11.871,15.359,5.225,5.225,0,0,0,7.032-1.626l.04-.061a25.969,25.969,0,0,1,9.331-8.476l3.5-1.9a5.214,5.214,0,0,0,2.371-2.951Z" transform="translate(-142.475 -56.508)" fill="#ff9e37"/>
        <path id="Path_1006262" data-name="Path 1006262" d="M294.262,137.666h18.744a4.885,4.885,0,0,1,4.885,4.885v20.455H290.4l-1.1-1.856a20.355,20.355,0,0,1-2.552-13.915l.67-3.82a6.949,6.949,0,0,1,6.845-5.749" transform="translate(-133.13 -63.983)" fill="#ffb746"/>
        <path id="Path_1006263" data-name="Path 1006263" d="M311.694,165.891c-.7-3.612-5.791-1.6-6.127-3.33-.094-.485.3-.814.958-.941a6.778,6.778,0,0,1,2.578.183.87.87,0,0,0,1.049-.621l.133-.506a.871.871,0,0,0-.622-1.071,8.09,8.09,0,0,0-2-.222l-2.574-.047a.681.681,0,0,1-.376.73,2.932,2.932,0,0,0-1.773,3.24c.686,3.541,5.764,1.46,6.107,3.23.111.572-.331.968-1.13,1.123a6.147,6.147,0,0,1-3.222-.463.666.666,0,0,0-.9.435l-.235.834a.661.661,0,0,0,.353.789,7.42,7.42,0,0,0,2.638.587.707.707,0,0,1,.682.563l.187.964a.7.7,0,0,0,.819.553l.512-.1a.7.7,0,0,0,.553-.819l-.178-.917a.677.677,0,0,1,.421-.747,3.058,3.058,0,0,0,2.142-3.449" transform="translate(-140.773 -74.055)" fill="#e78851"/>
        <path id="Path_1006264" data-name="Path 1006264" d="M287.751,149.374l16.991,5.351a11.421,11.421,0,0,0,13.6-5.687v3.474a13.376,13.376,0,0,1-14.182,4.061L287.413,151.3Z" transform="translate(-133.581 -69.269)" fill="#ff9e37"/>
        <path id="Path_1006265" data-name="Path 1006265" d="M295.394,137.666h18.744a4.877,4.877,0,0,1,4.19,2.382l-.423,1.343a9.488,9.488,0,0,1-11.9,6.2L288.879,142.2a6.95,6.95,0,0,1,6.515-4.532" transform="translate(-134.263 -63.983)" fill="#4ab083"/>
        <rect id="Rectangle_455908" data-name="Rectangle 455908" width="10.195" height="3.325" transform="matrix(0.121, -0.993, 0.993, 0.121, 161.155, 79.375)" fill="#4ab083"/>
        <path id="Path_1006266" data-name="Path 1006266" d="M295.93,138.613c-.747-3.447-2.337-5.611-5.005-6.809l2.055-4.574c4.126,1.855,6.767,5.326,7.851,10.319Z" transform="translate(-135.214 -59.133)" fill="#6abf8d"/>
        <path id="Path_1006267" data-name="Path 1006267" d="M300.974,136.619a1.277,1.277,0,0,1-1.523,1.465,2.305,2.305,0,0,1-1.8-2.016,1.278,1.278,0,0,1,1.523-1.466,2.305,2.305,0,0,1,1.8,2.016" transform="translate(-138.337 -62.549)" fill="#2ba17a"/>
        <rect id="Rectangle_455909" data-name="Rectangle 455909" width="10.195" height="1.576" transform="translate(164.456 79.778) rotate(-83.034)" fill="#7ed3a1"/>
        <path id="Path_1006268" data-name="Path 1006268" d="M319.625,139.379l-4.445-.858,1.5-10.724c2.616-.909,5.89-1.748,8.034,1.281Z" transform="translate(-146.487 -59.006)" fill="#4ab083"/>
        <path id="Path_1006269" data-name="Path 1006269" d="M329.332,139.25c-3.276-.11-5.588.832-7.273,2.964l-3.655-2.89c2.609-3.3,6.337-4.889,11.083-4.732Z" transform="translate(-147.985 -62.55)" fill="#2ba17a"/>
        <path id="Path_1006270" data-name="Path 1006270" d="M328.492,137.753a1.187,1.187,0,0,1,.975,1.7,2.142,2.142,0,0,1-2.226,1.164,1.187,1.187,0,0,1-.975-1.7,2.142,2.142,0,0,1,2.225-1.164" transform="translate(-151.584 -64.012)" fill="#6abf8d"/>
        <path id="Path_1006271" data-name="Path 1006271" d="M410.989,180.79l2.1,2.334h5.58l-.836-2.334Z" transform="translate(-191.016 -84.026)" fill="#2ba17a"/>
        <path id="Path_1006272" data-name="Path 1006272" d="M391.114,179.6l-5.24,2.951h7.575Z" transform="translate(-179.343 -83.472)" fill="#2ba17a"/>
      </g>
    </g>
  </g>
</svg>
