<svg xmlns="http://www.w3.org/2000/svg" width="84" height="84" viewBox="0 0 84 84">
  <g id="img12" transform="translate(-185.711 -4818)">
    <rect id="Rectangle_455372" data-name="Rectangle 455372" width="84" height="84" rx="10" transform="translate(185.711 4818)" fill="#fa996c"/>
    <g id="Group_1178842" data-name="Group 1178842" transform="translate(196.289 4828.002)">
      <path id="Path_1001743" data-name="Path 1001743" d="M22,35.511V28A10,10,0,0,1,32,18h0A10,10,0,0,1,42,28v7.512" fill="#49a9cd"/>
      <path id="Path_1001744" data-name="Path 1001744" d="M32,18a10,10,0,0,0-9.179,6.033A20.021,20.021,0,0,0,31.7,35.511H42V28A10,10,0,0,0,32,18Z" fill="#4fb5dc"/>
      <circle id="Ellipse_13697" data-name="Ellipse 13697" cx="16" cy="16" r="16" transform="translate(16 30)" fill="#f4a93c"/>
      <circle id="Ellipse_13698" data-name="Ellipse 13698" cx="12" cy="12" r="12" transform="translate(20 34)" fill="#fad85d"/>
      <path id="Path_1001745" data-name="Path 1001745" d="M32,34a11.924,11.924,0,0,0-5.065,1.133,11.984,11.984,0,0,0,13.13,19.734A11.987,11.987,0,0,0,32,34Z" fill="#fce797"/>
      <circle id="Ellipse_13699" data-name="Ellipse 13699" cx="8" cy="8" r="8" transform="translate(24 2)" fill="#ddd1c4"/>
      <path id="Path_1001746" data-name="Path 1001746" d="M16.032,45H2V37A10,10,0,0,1,12,27h0a10,10,0,0,1,9.516,6.917h0A15.959,15.959,0,0,0,16.031,45Z" fill="#49a9cd"/>
      <path id="Path_1001747" data-name="Path 1001747" d="M47.968,45H62V37A10,10,0,0,0,52,27h0a10,10,0,0,0-9.515,6.914h0A15.958,15.958,0,0,1,47.969,45Z" fill="#49a9cd"/>
      <path id="Path_1001748" data-name="Path 1001748" d="M32,45a2,2,0,1,1,2-2h2a4,4,0,0,0-3-3.858V37H31v2.142A3.992,3.992,0,0,0,32,47a2,2,0,1,1-2,2H28a4,4,0,0,0,3,3.858V55h2V52.858A3.992,3.992,0,0,0,32,45Z" fill="#f4a93c"/>
      <circle id="Ellipse_13700" data-name="Ellipse 13700" cx="8" cy="8" r="8" transform="translate(4 11)" fill="#ddd1c4"/>
      <path id="Path_1001749" data-name="Path 1001749" d="M12,11a7.96,7.96,0,0,0-3.952,1.05,7.993,7.993,0,0,0,10.9,10.9A7.993,7.993,0,0,0,12,11Z" fill="#f3e8d8"/>
      <circle id="Ellipse_13701" data-name="Ellipse 13701" cx="8" cy="8" r="8" transform="translate(44 11)" fill="#ddd1c4"/>
      <path id="Path_1001750" data-name="Path 1001750" d="M11.707,53.293l-1.414,1.414L12.586,57H6V48H4V58a1,1,0,0,0,1,1h7.586l-2.293,2.293,1.414,1.414,4-4a1,1,0,0,0,0-1.414Z" fill="#4ead54"/>
      <path id="Path_1001751" data-name="Path 1001751" d="M58,48v9H51.414l2.293-2.293-1.414-1.414-4,4a1,1,0,0,0,0,1.414l4,4,1.414-1.414L51.414,59H59a1,1,0,0,0,1-1V48Z" fill="#4ead54"/>
      <path id="Path_1001752" data-name="Path 1001752" d="M2.956,32.754a18.013,18.013,0,0,0,13.125,11.8,15.955,15.955,0,0,1,5.433-10.644h0a10,10,0,0,0-18.56-1.163Z" fill="#4fb5dc"/>
      <path id="Path_1001753" data-name="Path 1001753" d="M52,27a9.965,9.965,0,0,0-7.2,3.067A18.225,18.225,0,0,0,62,44.963V37A10,10,0,0,0,52,27Z" fill="#4fb5dc"/>
      <path id="Path_1001754" data-name="Path 1001754" d="M52,11a7.96,7.96,0,0,0-3.952,1.05,7.993,7.993,0,0,0,10.9,10.9A7.993,7.993,0,0,0,52,11Z" fill="#f3e8d8"/>
      <path id="Path_1001755" data-name="Path 1001755" d="M32,2a7.96,7.96,0,0,0-3.952,1.05,7.993,7.993,0,0,0,10.9,10.9A7.993,7.993,0,0,0,32,2Z" fill="#f3e8d8"/>
      <path id="Path_1001756" data-name="Path 1001756" d="M32,41a2,2,0,0,1,2,2h2a4,4,0,0,0-3-3.858V37H31v2.142A3.992,3.992,0,0,0,32,47a2,2,0,1,1-2,2H28a4,4,0,0,0,3,3.858V55h2V52.858A3.992,3.992,0,0,0,32,45a2,2,0,1,1,0-4Z"/>
      <path id="Path_1001757" data-name="Path 1001757" d="M32,33A13,13,0,1,0,45,46,13,13,0,0,0,32,33Zm0,24A11,11,0,1,1,43,46,11,11,0,0,1,32,57Z"/>
      <path id="Path_1001758" data-name="Path 1001758" d="M56.325,26.889a9,9,0,1,0-8.659-.006A10.94,10.94,0,0,0,43,30.67V28a11.014,11.014,0,0,0-6.675-10.111,9,9,0,1,0-8.65,0A11.014,11.014,0,0,0,21,28v2.674a10.94,10.94,0,0,0-4.669-3.789,9,9,0,1,0-8.656,0A11.014,11.014,0,0,0,1,37v8a1,1,0,0,0,1,1H15a17,17,0,0,0,34,0H62a1,1,0,0,0,1-1V37a11.014,11.014,0,0,0-6.675-10.111ZM45,19a7,7,0,1,1,7,7,7,7,0,0,1-7-7ZM25,10a7,7,0,1,1,7,7,7,7,0,0,1-7-7Zm7,9a9.011,9.011,0,0,1,9,9v3.6a16.855,16.855,0,0,0-18,0V28A9.011,9.011,0,0,1,32,19ZM5,19a7,7,0,1,1,7,7,7,7,0,0,1-7-7ZM3,44V37a9,9,0,0,1,17.353-3.35A16.954,16.954,0,0,0,15.128,44ZM32,61A15,15,0,1,1,47,46,15,15,0,0,1,32,61ZM61,44H48.872a16.951,16.951,0,0,0-5.225-10.35A9,9,0,0,1,61,37Z"/>
      <path id="Path_1001759" data-name="Path 1001759" d="M11.707,53.293l-1.414,1.414L12.586,57H6V48H4V58a1,1,0,0,0,1,1h7.586l-2.293,2.293,1.414,1.414,4-4a1,1,0,0,0,0-1.414Z"/>
      <path id="Path_1001760" data-name="Path 1001760" d="M58,57H51.414l2.293-2.293-1.414-1.414-4,4a1,1,0,0,0,0,1.414l4,4,1.414-1.414L51.414,59H59a1,1,0,0,0,1-1V48H58Z"/>
    </g>
  </g>
</svg>
