<svg xmlns="http://www.w3.org/2000/svg" width="84" height="84" viewBox="0 0 84 84">
  <g id="img3" transform="translate(-185.711 -1337)">
    <rect id="Rectangle_455357" data-name="Rectangle 455357" width="84" height="84" rx="10" transform="translate(185.711 1337)" fill="#fa996c"/>
    <g id="_02-digital_economy" data-name="02-digital economy" transform="translate(199.369 1350.658)">
      <path id="Path_1001694" data-name="Path 1001694" d="M39.714,58.086H22L23.771,51H37.943Z" transform="translate(-2.515 -5.829)" fill="#b2bec3"/>
      <g id="_Group_" data-name="&lt;Group&gt;" transform="translate(15.943 52.256)">
        <rect id="Rectangle_455716" data-name="Rectangle 455716" width="24" height="3" rx="1" transform="translate(0.4 0.086)" fill="#6e7a7c"/>
      </g>
      <rect id="Rectangle_455717" data-name="Rectangle 455717" width="54" height="39" transform="translate(1.342 6.342)" fill="#74b9ff"/>
      <rect id="Rectangle_455718" data-name="Rectangle 455718" width="54" height="5" transform="translate(1.342 40.342)" fill="#dfe6e9"/>
      <path id="Path_1001695" data-name="Path 1001695" d="M38.114,51H23.943L23.5,52.771H38.557Z" transform="translate(-2.686 -5.829)" fill="#a1aaad"/>
      <path id="Path_1001696" data-name="Path 1001696" d="M35,24H49.171V35.514H35Z" transform="translate(-4.001 -2.743)" fill="#81ecec"/>
      <path id="Path_1001697" data-name="Path 1001697" d="M49.171,37v3.543H35V37H49.171Z" transform="translate(-4.001 -4.229)" fill="#ff7675"/>
      <circle id="Ellipse_13687" data-name="Ellipse 13687" cx="6" cy="6" r="6" transform="translate(13.342 13.342)" fill="#ffeaa7"/>
      <path id="Path_1001698" data-name="Path 1001698" d="M29.171,33v3.543H15V33H29.171Z" transform="translate(-1.715 -3.772)" fill="#ffeaa7"/>
      <path id="Path_1001699" data-name="Path 1001699" d="M27.171,37v3.543H13V37H27.171Z" transform="translate(-1.486 -4.229)" fill="#fdcb6e"/>
      <path id="Path_1001700" data-name="Path 1001700" d="M27.171,29v3.543H13V29H27.171Z" transform="translate(-1.486 -3.315)" fill="#fdcb6e"/>
      <path id="Path_1001701" data-name="Path 1001701" d="M16.971,1V8.971H9l2.657-2.657Z" transform="translate(-1.029 -0.114)" fill="#a1aaad"/>
      <path id="Path_1001702" data-name="Path 1001702" d="M16.971,8.971V1H49.742V39.971H9v-31Zm9.743,23.914h1.771V29.342H26.714V25.8h-6.2a6.2,6.2,0,1,0-4.385-1.815A6.2,6.2,0,0,0,20.514,25.8H12.543v3.543h1.771v3.543H12.543v3.543H26.714ZM46.2,36.428V21.371H32.028V36.428Z" transform="translate(-1.029 -0.114)" fill="#edf1f2"/>
      <path id="Path_1001703" data-name="Path 1001703" d="M55.8,5.314H49.6V.886A.886.886,0,0,0,48.713,0H15.943a.886.886,0,0,0-.626.259L10.262,5.314H.886A.886.886,0,0,0,0,6.2V45.171a.886.886,0,0,0,.886.886H20.122L18.794,51.37H16.828a1.771,1.771,0,0,0-1.771,1.771v1.771a1.771,1.771,0,0,0,1.771,1.771H39.856a1.771,1.771,0,0,0,1.771-1.771V53.142a1.771,1.771,0,0,0-1.771-1.771H37.891l-1.329-5.314H55.8a.886.886,0,0,0,.886-.886V6.2A.886.886,0,0,0,55.8,5.314Zm-.886,1.771V38.971H49.6V7.086ZM47.828,38.971H8.857V9.743h7.086a.886.886,0,0,0,.886-.886V1.771h31Zm-37.718-31,4.948-4.948V7.971ZM8.49,7.086,7.345,8.231a.886.886,0,0,0-.26.626V38.971H1.771V7.086ZM39.856,54.913H16.828V53.142H39.856ZM20.62,51.37l1.329-5.314H34.736l1.329,5.314Zm14.808-7.086H1.771V40.742H54.913v3.543Z"/>
      <path id="Path_1001704" data-name="Path 1001704" d="M28.828,29.941h-.886V27.284a.886.886,0,0,0-.886-.886H25.528a7.086,7.086,0,1,0-9.342,0h-3.3a.886.886,0,0,0-.886.886v3.543a.886.886,0,0,0,.886.886h.886v1.771h-.886a.886.886,0,0,0-.886.886v3.543a.886.886,0,0,0,.886.886H27.057a.886.886,0,0,0,.886-.886V35.255h.886a.886.886,0,0,0,.886-.886V30.826A.886.886,0,0,0,28.828,29.941ZM15.543,21.084A5.314,5.314,0,1,1,20.857,26.4,5.314,5.314,0,0,1,15.543,21.084Zm-1.771,7.086h12.4v1.771h-12.4Zm12.4,8.857h-12.4V35.255h12.4Zm1.771-3.543h-12.4V31.712h12.4Z" transform="translate(-1.372 -1.598)"/>
      <path id="Path_1001705" data-name="Path 1001705" d="M22.543,17H20.771v.886h-.886a.886.886,0,0,0-.886.886v3.543h3.543V23.2H19v1.771h1.771v.886h1.771v-.886h.886a.886.886,0,0,0,.886-.886V21.428a.886.886,0,0,0-.886-.886H20.771v-.886h3.543V17.886H22.543Z" transform="translate(-2.172 -1.943)"/>
      <path id="Path_1001706" data-name="Path 1001706" d="M49.057,23H34.886a.886.886,0,0,0-.886.886V38.943a.886.886,0,0,0,.886.886H49.057a.886.886,0,0,0,.886-.886V23.886A.886.886,0,0,0,49.057,23Zm-.886,1.771v9.743H46.4v-6.2H44.628v6.2H42.857V26.543H41.086v7.971H39.314V30.086H37.543v4.428H35.771V24.771Zm-12.4,13.285V36.285h12.4v1.771Z" transform="translate(-3.886 -2.629)"/>
      <path id="Path_1001707" data-name="Path 1001707" d="M42,15.719l-2.031-2.031a.886.886,0,0,0-1.252,0l-4.428,4.428,1.252,1.252,3.8-3.8L41.379,17.6a.886.886,0,0,0,1.252,0L48.2,12.024v1.4h1.771V9.886a.862.862,0,0,0-.886-.878V9H45.548v1.771h1.4Z" transform="translate(-3.92 -1.029)"/>
      <rect id="Rectangle_455719" data-name="Rectangle 455719" width="21" height="2" transform="translate(18.342 3.342)"/>
      <rect id="Rectangle_455720" data-name="Rectangle 455720" width="15" height="2" transform="translate(18.342 7.342)"/>
      <rect id="Rectangle_455721" data-name="Rectangle 455721" width="4" height="2" transform="translate(35.342 7.342)"/>
    </g>
  </g>
</svg>
