<svg xmlns="http://www.w3.org/2000/svg" width="84" height="84" viewBox="0 0 84 84">
  <g id="img6" transform="translate(-517.711 -1699)">
    <rect id="Rectangle_455311" data-name="Rectangle 455311" width="84" height="84" rx="10" transform="translate(517.711 1699)" fill="#fa996c"/>
    <g id="Layer_16" data-name="Layer 16" transform="translate(527.715 1709)">
      <path id="Path_1001726" data-name="Path 1001726" d="M47.52,2.082A12.99,12.99,0,0,0,41,25.233V28a2,2,0,0,0,2,2H55a2,2,0,0,0,2-2V25.233A12.993,12.993,0,0,0,47.52,2.082ZM49,24a9,9,0,1,1,9-9A9,9,0,0,1,49,24Z" fill="#686868"/>
      <path id="Path_1001727" data-name="Path 1001727" d="M48.991,2A2,2,0,1,0,49,6a9,9,0,0,1,0,18v6h6a2,2,0,0,0,2-2V25.233A12.99,12.99,0,0,0,48.991,2Z" fill="#939393"/>
      <path id="Path_1001728" data-name="Path 1001728" d="M20.118,36.495A8.321,8.321,0,0,1,17,30H13a12,12,0,0,0,2.4,7.2l.6.8h6Z" fill="#939393"/>
      <path id="Path_1001729" data-name="Path 1001729" d="M47,30h0a8.321,8.321,0,0,1-3.118,6.494L42,38h6l.6-.8A12,12,0,0,0,51,30Z" fill="#939393"/>
      <path id="Path_1001730" data-name="Path 1001730" d="M9,62V38H55V62" fill="#559b38"/>
      <path id="Path_1001731" data-name="Path 1001731" d="M47,42h0a4,4,0,0,0,4,4h0v8h0a4,4,0,0,0-4,4H17a4,4,0,0,0-4-4h0V46h0a4,4,0,0,0,4-4Z" fill="#ccc"/>
      <path id="Path_1001732" data-name="Path 1001732" d="M17,42a4,4,0,0,1-4,4v8a3.963,3.963,0,0,1,2.62,1H39a6,6,0,0,0,6-6V42Z" fill="#f2f2f2"/>
      <circle id="Ellipse_13694" data-name="Ellipse 13694" cx="8" cy="8" r="8" transform="translate(24 42)" fill="#559b38"/>
      <path id="Path_1001733" data-name="Path 1001733" d="M32,42a8,8,0,0,0-6.24,13H33a4,4,0,0,0,4-4V43.76A7.963,7.963,0,0,0,32,42Z" fill="#6bc148"/>
      <circle id="Ellipse_13695" data-name="Ellipse 13695" cx="2" cy="2" r="2" transform="translate(43 48)" fill="#559b38"/>
      <path id="Path_1001734" data-name="Path 1001734" d="M43,50a1.972,1.972,0,0,0,.263.973A1.993,1.993,0,0,0,45,49V48A2,2,0,0,0,43,50Z" fill="#6bc148"/>
      <circle id="Ellipse_13696" data-name="Ellipse 13696" cx="2" cy="2" r="2" transform="translate(17 48)" fill="#559b38"/>
      <path id="Path_1001735" data-name="Path 1001735" d="M17,50a1.972,1.972,0,0,0,.263.973A1.993,1.993,0,0,0,19,49V48A2,2,0,0,0,17,50Z" fill="#6bc148"/>
      <path id="Path_1001736" data-name="Path 1001736" d="M13.52,2.082A12.99,12.99,0,0,0,7,25.233V28a2,2,0,0,0,2,2H21a2,2,0,0,0,2-2V25.233A12.993,12.993,0,0,0,13.52,2.082ZM15,24a9,9,0,1,1,9-9,9,9,0,0,1-9,9Z" fill="#686868"/>
      <path id="Path_1001737" data-name="Path 1001737" d="M14.991,2A2,2,0,1,0,15,6a9,9,0,1,1,0,18v6h6a2,2,0,0,0,2-2V25.233A12.99,12.99,0,0,0,14.991,2Z" fill="#939393"/>
      <path id="Path_1001738" data-name="Path 1001738" d="M13,55a3,3,0,0,1,3,3,1,1,0,0,0,1,1H47a1,1,0,0,0,1-1,3,3,0,0,1,3-3,1,1,0,0,0,1-1V46a1,1,0,0,0-1-1,3,3,0,0,1-3-3,1,1,0,0,0-1-1H17a1,1,0,0,0-1,1,3,3,0,0,1-3,3,1,1,0,0,0-1,1v8A1,1,0,0,0,13,55Zm12-5a7,7,0,1,1,7,7,7,7,0,0,1-7-7Zm21.1-7A5.013,5.013,0,0,0,50,46.9v6.2A5.013,5.013,0,0,0,46.1,57H37.644a8.978,8.978,0,0,0,0-14ZM14,46.9A5.013,5.013,0,0,0,17.9,43h8.457a8.978,8.978,0,0,0,0,14H17.9A5.013,5.013,0,0,0,14,53.1Z"/>
      <path id="Path_1001739" data-name="Path 1001739" d="M32,47a1,1,0,0,1,1,1h2a3,3,0,0,0-2-2.816V44H31v1.184A2.993,2.993,0,0,0,32,51a1,1,0,1,1-1,1H29a3,3,0,0,0,2,2.816V56h2V54.816A2.993,2.993,0,0,0,32,49a1,1,0,1,1,0-2Z"/>
      <path id="Path_1001740" data-name="Path 1001740" d="M45,53a3,3,0,1,0-3-3,3,3,0,0,0,3,3Zm0-4a1,1,0,1,1-1,1A1,1,0,0,1,45,49Z"/>
      <path id="Path_1001741" data-name="Path 1001741" d="M19,53a3,3,0,1,0-3-3,3,3,0,0,0,3,3Zm0-4a1,1,0,1,1-1,1A1,1,0,0,1,19,49Z"/>
      <rect id="Rectangle_455722" data-name="Rectangle 455722" width="2" height="2" transform="translate(14 26)"/>
      <path id="Path_1001742" data-name="Path 1001742" d="M58.337,4.568A14.045,14.045,0,0,0,49,1.007V1h-.05A13.987,13.987,0,0,0,40,25.709V28a3,3,0,0,0,3,3h2.925a7.264,7.264,0,0,1-2.668,4.714L41.649,37h-19.3l-1.608-1.286A7.27,7.27,0,0,1,18.075,31H21a3,3,0,0,0,3-3V25.709a13.986,13.986,0,0,0-9-24.7V1h-.05a13.993,13.993,0,0,0-1.54.083A14.1,14.1,0,0,0,1.152,12.912,13.913,13.913,0,0,0,6,25.709V28a3,3,0,0,0,3,3h3.041a13.122,13.122,0,0,0,2.008,6H9a1,1,0,0,0-1,1V62a1,1,0,0,0,1,1H55a1,1,0,0,0,1-1V38a1,1,0,0,0-1-1H49.95a13.111,13.111,0,0,0,2.009-6H55a3,3,0,0,0,3-3V25.709a13.984,13.984,0,0,0,.337-21.141ZM49,7a8,8,0,1,1-8,8,8,8,0,0,1,8-8ZM15,7a8,8,0,1,1-8,8,8,8,0,0,1,8-8ZM8,28V25.233a1,1,0,0,0-.383-.788A11.94,11.94,0,0,1,3.131,13.2a12.089,12.089,0,0,1,8.938-9.831A3.049,3.049,0,0,0,12,4a2.959,2.959,0,0,0,.346,1.369A9.967,9.967,0,1,0,15,5a1,1,0,1,1,0-2h.016A11.864,11.864,0,0,1,23,6.058a11.984,11.984,0,0,1-.62,18.387,1,1,0,0,0-.383.788V28a1,1,0,0,1-1,1H9A1,1,0,0,1,8,28Zm8.2,8.6A11.09,11.09,0,0,1,14.05,31h2.006a9.245,9.245,0,0,0,3.13,6H16.5ZM54,61H10V39H54ZM47.8,36.6l-.3.4H44.814a9.245,9.245,0,0,0,3.13-6H49.95a11.083,11.083,0,0,1-2.15,5.6Zm8.583-12.155a1,1,0,0,0-.383.788V28a1,1,0,0,1-1,1H43a1,1,0,0,1-1-1V25.233a1,1,0,0,0-.383-.788A11.94,11.94,0,0,1,37.131,13.2a12.089,12.089,0,0,1,8.938-9.831A3.049,3.049,0,0,0,46,4a2.959,2.959,0,0,0,.346,1.369A9.967,9.967,0,1,0,49,5a1,1,0,0,1,0-2h.016A11.864,11.864,0,0,1,57,6.058a11.984,11.984,0,0,1-.62,18.387Z"/>
      <rect id="Rectangle_455723" data-name="Rectangle 455723" width="2" height="2" transform="translate(48 26)"/>
    </g>
  </g>
</svg>
