<svg xmlns="http://www.w3.org/2000/svg" width="188" height="139" viewBox="0 0 188 139">
  <g id="img9" transform="translate(-601.711 -3253)">
    <rect id="Rectangle_455361" data-name="Rectangle 455361" width="188" height="139" transform="translate(601.711 3253)" fill="#cfde90"/>
    <circle id="Ellipse_13744" data-name="Ellipse 13744" cx="37" cy="37" r="37" transform="translate(698.711 3306)" fill="#f1f5dd"/>
    <circle id="Ellipse_13746" data-name="Ellipse 13746" cx="11.5" cy="11.5" r="11.5" transform="translate(749.711 3269)" fill="#f1f5dd"/>
    <circle id="Ellipse_13747" data-name="Ellipse 13747" cx="6" cy="6" r="6" transform="translate(683.711 3368)" fill="#f1f5dd"/>
    <circle id="Ellipse_13745" data-name="Ellipse 13745" cx="51.5" cy="51.5" r="51.5" transform="translate(617.711 3265)" fill="#f1f5dd"/>
    <g id="_20-Currency_Exchange" data-name="20-Currency Exchange" transform="translate(655.711 3282)">
      <path id="Path_1005093" data-name="Path 1005093" d="M26.013,5a9.93,9.93,0,0,1,7.836,3.793A16.262,16.262,0,0,0,18.791,21.948,10.014,10.014,0,0,1,26.013,5Z" transform="translate(4.028 1.259)" fill="#ffac5a"/>
      <path id="Path_1005094" data-name="Path 1005094" d="M38.238,6.044a15.043,15.043,0,0,1,2.816,4.594,16.328,16.328,0,0,0-5.27-.876c-.313,0-.613.013-.926.038A10.014,10.014,0,1,0,19.8,22.954a16.455,16.455,0,0,0,.025,6.259A15.021,15.021,0,1,1,38.238,6.044Z" transform="translate(3.018 0.252)" fill="#ff873c"/>
      <path id="Path_1005095" data-name="Path 1005095" d="M48.258,13.007l-4.531,3.4a16.253,16.253,0,0,0-6.7-6.559L40.748,8Z" transform="translate(9.321 2.014)" fill="#ffbeaa"/>
      <ellipse id="Ellipse_13741" data-name="Ellipse 13741" cx="16" cy="16.5" rx="16" ry="16.5" transform="translate(23 10)" fill="#ffac5a"/>
      <path id="Path_1005096" data-name="Path 1005096" d="M64.463,7V27.027h-7.51V7Z" transform="translate(14.336 1.762)" fill="#64e1dc"/>
      <path id="Path_1005097" data-name="Path 1005097" d="M63.708,7V27.027H59.953V7Z" transform="translate(15.091 1.762)" fill="#00c8c8"/>
      <path id="Path_1005098" data-name="Path 1005098" d="M44.416,22.014a10.342,10.342,0,0,1,.075,1.252,11.284,11.284,0,1,1-2.879-7.51H37.607a3.129,3.129,0,1,0,0,6.259Z" transform="translate(5.518 3.02)" fill="#ffdfb0"/>
      <path id="Path_1005099" data-name="Path 1005099" d="M29.714,13.252a11.19,11.19,0,0,1,7.051,2.5H40.6a11.253,11.253,0,0,0-14.673-1.839,11.24,11.24,0,0,1,3.783-.665Z" transform="translate(6.527 3.02)" fill="#ffcf94"/>
      <path id="Path_1005100" data-name="Path 1005100" d="M42.395,21.007H35.586A3.119,3.119,0,0,1,33.092,16h-.01a3.129,3.129,0,1,0,0,6.259h6.809a10.342,10.342,0,0,1,.075,1.252,11.257,11.257,0,0,1-4.979,9.349,11.265,11.265,0,0,0,7.483-10.6,10.34,10.34,0,0,0-.075-1.252Z" transform="translate(7.539 4.027)" fill="#ffcf94"/>
      <path id="Path_1005101" data-name="Path 1005101" d="M41.6,13.755a11.258,11.258,0,0,0-19.652,7.51,11.339,11.339,0,0,0,.085,1.174A11.253,11.253,0,0,1,41.6,16.259h5.382l.476-.35a16.256,16.256,0,0,0-1.447-2.153Z" transform="translate(5.526 2.517)" fill="#fc9942"/>
      <path id="Path_1005102" data-name="Path 1005102" d="M39.894,22.5h2.577a14.863,14.863,0,0,0,2.306,1.169,16.42,16.42,0,0,0,.2-2.421A14.921,14.921,0,0,1,42.472,20H39.893a10.342,10.342,0,0,1,.075,1.252A11.186,11.186,0,0,1,39.894,22.5Z" transform="translate(10.041 5.034)" fill="#fc9942"/>
      <path id="Path_1005103" data-name="Path 1005103" d="M33.212,21.259h-2.5a1.252,1.252,0,1,1,0-2.5h2.5a1.252,1.252,0,0,1,1.252,1.252h2.5a3.755,3.755,0,0,0-3.755-3.755V15h-2.5v1.252a3.755,3.755,0,1,0,0,7.51h2.5a1.252,1.252,0,0,1,0,2.5h-2.5a1.252,1.252,0,0,1-1.252-1.252h-2.5a3.755,3.755,0,0,0,3.755,3.755v1.252h2.5V28.769a3.755,3.755,0,0,0,0-7.51Z" transform="translate(6.784 3.776)" fill="#ff873c"/>
      <path id="Path_1005104" data-name="Path 1005104" d="M63.293,11.014V26.034a47.364,47.364,0,0,1-10.014,1.252,17.023,17.023,0,0,1-6.259-1.252,14.921,14.921,0,0,1-2.5-1.252H35.129a3.129,3.129,0,1,1,0-6.259h9.388l.476-.35,4.531-3.4-7.51-5.007L38.3,11.614a16,16,0,0,0-2.278-.976A15.043,15.043,0,0,0,33.2,6.044l.05-.038L40.762,1Z" transform="translate(8.055 0.252)" fill="#ffcdbe"/>
      <path id="Path_1005105" data-name="Path 1005105" d="M40.52,1,33.01,6.007l-.05.038A14.77,14.77,0,0,1,34.227,7.7L40.52,3.5,63.051,13.517v-2.5Z" transform="translate(8.296 0.252)" fill="#ffd8cf"/>
      <path id="Path_1005106" data-name="Path 1005106" d="M46.973,19.629a14.92,14.92,0,0,1-2.5-1.252H35.082A3.129,3.129,0,0,1,32.216,16.5a3.129,3.129,0,0,0,2.866,4.381H44.47a14.921,14.921,0,0,0,2.5,1.252,17.023,17.023,0,0,0,6.259,1.252,47.363,47.363,0,0,0,10.014-1.252v-2.5a47.363,47.363,0,0,1-10.014,1.252A17.023,17.023,0,0,1,46.973,19.629Z" transform="translate(8.043 4.153)" fill="#ffbeaa"/>
      <path id="Path_1005107" data-name="Path 1005107" d="M31.215,6.255A18.776,18.776,0,0,0,16.744,18.89a10.069,10.069,0,0,0,1.86,2.742A16.262,16.262,0,0,1,33.662,8.477,9.861,9.861,0,0,0,31.215,6.255Z" transform="translate(4.215 1.574)" fill="#fc9942"/>
      <path id="Path_1005108" data-name="Path 1005108" d="M28.305,6.319a9.861,9.861,0,0,1,2.447,2.222c.313-.025.613-.038.926-.038a16.329,16.329,0,0,1,5.27.876,15.173,15.173,0,0,0-1.6-3.015A18.33,18.33,0,0,0,28.305,6.319Z" transform="translate(7.125 1.51)" fill="#fa732d"/>
      <path id="Path_1005109" data-name="Path 1005109" d="M18.5,22.171a16.674,16.674,0,0,1,.288-3.079,10.069,10.069,0,0,1-1.86-2.742A18.734,18.734,0,0,0,16,22.171c0,.417.035.825.063,1.234a14.963,14.963,0,0,0,2.754,1.945,16.6,16.6,0,0,1-.313-3.179Z" transform="translate(4.027 4.115)" fill="#fa732d"/>
      <path id="Path_1005110" data-name="Path 1005110" d="M47.063,31.143l2.87-2.87v14.5h2.5v-14.5l2.87,2.87,1.77-1.77L52.07,24.367l-.009.009a1.233,1.233,0,0,0-1.762-.008l-5.007,5.007Z" transform="translate(11.4 6.041)" fill="#19cffc"/>
      <circle id="Ellipse_13742" data-name="Ellipse 13742" cx="9" cy="9" r="9" transform="translate(45 56)" fill="#ffc170"/>
      <circle id="Ellipse_13743" data-name="Ellipse 13743" cx="5" cy="5" r="5" transform="translate(49 60)" fill="#ffcf94"/>
      <path id="Path_1005111" data-name="Path 1005111" d="M37.941,39.883,62.3,34l2.5,8.762H26Z" transform="translate(6.544 8.558)" fill="#1cadb5"/>
      <path id="Path_1005112" data-name="Path 1005112" d="M73.068,41V68.538H23V58.524h5.007v2.5a2.511,2.511,0,0,1,2.5,2.5H65.558a2.511,2.511,0,0,1,2.5-2.5V48.51a2.511,2.511,0,0,1-2.5-2.5H30.51a2.511,2.511,0,0,1-2.5,2.5v3.755H23V41Z" transform="translate(5.789 10.32)" fill="#64e1dc"/>
      <g id="Group_1179493" data-name="Group 1179493" transform="translate(1.252 51.32)">
        <path id="Path_1005113" data-name="Path 1005113" d="M28.007,57.5V55H23V65.014h2.5V60.007A2.5,2.5,0,0,1,28.007,57.5Z" transform="translate(4.538 -37.476)" fill="#00c8c8"/>
        <path id="Path_1005114" data-name="Path 1005114" d="M25.5,47.259A3.755,3.755,0,0,1,29.259,43.5h43.81V41H23V52.265h2.5Z" transform="translate(4.538 -41)" fill="#00c8c8"/>
        <path id="Path_1005115" data-name="Path 1005115" d="M8.51,59.524v2.5H1V42H8.51V59.524Z" transform="translate(-1 -40.748)" fill="#00c8c8"/>
      </g>
      <path id="Path_1005116" data-name="Path 1005116" d="M7.755,59.524v2.5H4V42H7.755V59.524Z" transform="translate(1.007 10.572)" fill="#64e1dc"/>
      <path id="Path_1005117" data-name="Path 1005117" d="M27.027,53.524h8.136a3.129,3.129,0,0,1,0,6.259H25.776a17.316,17.316,0,0,1-8.762,2.5A47.363,47.363,0,0,1,7,61.034V46.014L29.531,36l10.014,1.252,3.179,2.128L30.782,42.259H27.027Z" transform="translate(1.762 9.062)" fill="#ffcdbe"/>
      <path id="Path_1005118" data-name="Path 1005118" d="M26.755,39.446H25.5a2.5,2.5,0,0,0-2.5,2.5h3.755L38.7,39.07l-2.754-1.84Z" transform="translate(5.789 9.371)" fill="#ffbeaa"/>
      <path id="Path_1005119" data-name="Path 1005119" d="M37.379,52.464a3.129,3.129,0,0,1-2.216.914H25.776a17.316,17.316,0,0,1-8.762,2.5A47.364,47.364,0,0,1,7,54.629v2.5a47.363,47.363,0,0,0,10.014,1.252,17.316,17.316,0,0,0,8.762-2.5h9.388A3.123,3.123,0,0,0,38.029,51.5a3.1,3.1,0,0,1-.65.964Z" transform="translate(1.762 12.963)" fill="#ffbeaa"/>
      <path id="Path_1005120" data-name="Path 1005120" d="M27,57.517h3.129a3.129,3.129,0,1,0,0-6.259H27V47.5A2.511,2.511,0,0,0,29.5,45H47.027a8.762,8.762,0,0,0,0,17.524H29.5a2.511,2.511,0,0,0-2.5-2.5Z" transform="translate(6.796 11.327)" fill="#f0f0f0"/>
      <path id="Path_1005121" data-name="Path 1005121" d="M63.027,47.5V60.021a2.511,2.511,0,0,0-2.5,2.5H43A8.762,8.762,0,1,0,43,45H60.524A2.511,2.511,0,0,0,63.027,47.5Z" transform="translate(10.823 11.327)" fill="#f0f0f0"/>
      <path id="Path_1005122" data-name="Path 1005122" d="M24.259,41V52.265H23.007L18,48.51a10.4,10.4,0,0,1,1.464-4.794C20.378,42.189,21.63,41,23.007,41Z" transform="translate(4.531 10.32)" fill="#faa68e"/>
      <path id="Path_1005123" data-name="Path 1005123" d="M12.307,32.632,9.437,35.5V21h-2.5V35.5l-2.87-2.87L2.293,34.4,7.3,39.409l.009-.009a1.233,1.233,0,0,0,1.762.008L14.078,34.4Z" transform="translate(0.577 5.286)" fill="#19cffc"/>
      <path id="Path_1005124" data-name="Path 1005124" d="M6,17H8.5v2.5H6Z" transform="translate(1.51 4.279)" fill="#19cffc"/>
      <path id="Path_1005125" data-name="Path 1005125" d="M45.185,51.451l3.388-3.388-1.77-1.77-2.87,2.87-2.87-2.87-1.77,1.77,3.388,3.388v.734h-2.5v2.5h2.5V55.94h-2.5v2.5h2.5V59.7h2.5V58.443h2.5v-2.5h-2.5V54.688h2.5v-2.5h-2.5Z" transform="translate(9.89 11.652)" fill="#ff873c"/>
      <path id="Path_1005126" data-name="Path 1005126" d="M76.09,7.51h-7.51a1.252,1.252,0,0,0-1.252,1.252v.577L46.557.108a1.252,1.252,0,0,0-1.2.1l-6.7,4.466a16.261,16.261,0,1,0-19.668,25.6,17.513,17.513,0,0,0,34.485-2.267,17.655,17.655,0,0,0,5.094.781,46.664,46.664,0,0,0,8.762-.949v.949a1.252,1.252,0,0,0,1.252,1.252h7.51a1.252,1.252,0,0,0,1.252-1.252V8.762A1.252,1.252,0,0,0,76.09,7.51ZM13.5,16.272A13.769,13.769,0,0,1,38.967,9.019a17.531,17.531,0,0,0-2.932-.257c-.125,0-.25.016-.376.019a11.113,11.113,0,0,0-8.386-3.774,11.249,11.249,0,0,0-8.534,18.6,17.4,17.4,0,0,0-.228,2.682c0,.2.024.4.03.6A13.75,13.75,0,0,1,13.5,16.272ZM32.37,9.154A17.571,17.571,0,0,0,19.55,20.4,8.753,8.753,0,0,1,32.37,9.154Zm3.665,32.153a15.021,15.021,0,1,1,12.18-23.782H44.941a12.493,12.493,0,1,0,3.611,8.762h.9a17.31,17.31,0,0,0,1.566.8A15.02,15.02,0,0,1,36.035,41.306ZM36.1,22.531a4.362,4.362,0,0,0,1.27,2.512c-.028,0-.054-.009-.083-.009h-2.5a1.252,1.252,0,1,1,0-2.5Zm1.188-3.683v-.073h-2.5v1.252a3.755,3.755,0,0,0,0,7.51h2.5a1.252,1.252,0,1,1,0,2.5h-2.5a1.252,1.252,0,0,1-1.252-1.252h-2.5a3.755,3.755,0,0,0,3.755,3.755V33.8h2.5V32.544a3.741,3.741,0,0,0,2.746-6.3c.125.011.25.039.383.039h5.633a10.046,10.046,0,1,1-5.19-8.762h-.443a4.362,4.362,0,0,0-3.129,1.324Zm21.279,7.438A16.218,16.218,0,0,1,50.5,23.993a1.259,1.259,0,0,0-.695-.21H40.416a1.878,1.878,0,1,1,0-3.755H49.8a1.252,1.252,0,0,0,.751-.25l5.007-3.755-1.5-2L50.625,16.6a17.5,17.5,0,0,0-8.38-6.687,16.1,16.1,0,0,0-1.924-3.333l5.853-3.9,21.154,9.4V25.285a45.245,45.245,0,0,1-8.762,1Zm16.272,1.252H69.831V10.014h5.007Z" transform="translate(2.768 0)"/>
      <path id="Path_1005127" data-name="Path 1005127" d="M59,19h2.5v2.5H59Z" transform="translate(14.851 4.782)"/>
      <path id="Path_1005128" data-name="Path 1005128" d="M3,54H5.5v2.5H3Z" transform="translate(0.755 13.592)"/>
      <path id="Path_1005129" data-name="Path 1005129" d="M78.858,44.028H72.291l-2.244-7.853a1.243,1.243,0,0,0-1.5-.876l-4.708,1.14V28.274l2.87,2.87,1.77-1.77L63.47,24.368l-.009.009a1.219,1.219,0,0,0-1.762-.008l-5.007,5.007,1.77,1.77,2.871-2.871v8.769l-16.6,4.005L42,39.229a1.252,1.252,0,0,0-.539-.2L31.448,37.777a1.268,1.268,0,0,0-.663.1L10.014,47.109v-.577A1.252,1.252,0,0,0,8.762,45.28H1.252A1.252,1.252,0,0,0,0,46.532V66.559a1.252,1.252,0,0,0,1.252,1.252h7.51a1.252,1.252,0,0,0,1.252-1.252V65.61a46.664,46.664,0,0,0,8.762.949,18.6,18.6,0,0,0,8.762-2.3v8.562a1.252,1.252,0,0,0,1.252,1.252H78.858a1.252,1.252,0,0,0,1.252-1.252V45.28a1.252,1.252,0,0,0-1.252-1.252ZM67.968,38.02l1.72,6.008H43.059l1.188-.287.115.076.084-.125,19.361-4.671h.03v-.008ZM7.51,65.307H2.5V47.783H7.51Zm11.265-1.252a45.331,45.331,0,0,1-8.762-1V49.849l21.469-9.543,9.375,1.173.558.376L32.4,44.028H28.789a1.252,1.252,0,0,0-1.252,1.252v9.7l-4.256-3.192-1.5,2,5.007,3.755a1.252,1.252,0,0,0,.751.25h9.388a1.878,1.878,0,0,1,0,3.755H27.538a1.263,1.263,0,0,0-.692.209,16.225,16.225,0,0,1-8.07,2.294Zm27.538-5.007a7.51,7.51,0,0,1,4.256-6.759l-1.383,1.383,3.386,3.391V57.8h-2.5v2.5h2.5v1.252h-2.5v2.5h2.5v1.252h2.5V64.056h2.5v-2.5h-2.5V60.3h2.5V57.8h-2.5v-.733l3.388-3.388L57.078,52.29a7.51,7.51,0,1,1-10.765,6.759Zm17.524,0a9.984,9.984,0,0,0-3.412-7.51h9.889A3.775,3.775,0,0,0,72.6,53.828V64.27a3.775,3.775,0,0,0-2.289,2.289H60.421a9.984,9.984,0,0,0,3.416-7.51Zm-7.294-6.993-2.72,2.72-2.72-2.72a7.414,7.414,0,0,1,5.44,0ZM43.81,59.049a9.984,9.984,0,0,0,3.412,7.51H37.333a3.775,3.775,0,0,0-2.286-2.289v-.214h1.878a4.381,4.381,0,1,0,0-8.762H35.048V53.828a3.775,3.775,0,0,0,2.289-2.289h9.888A9.984,9.984,0,0,0,43.81,59.049Zm33.8,12.517H30.041v-7.51h2.5v1.252A1.252,1.252,0,0,0,33.8,66.559a1.252,1.252,0,0,1,1.252,1.252A1.252,1.252,0,0,0,36.3,69.062H71.347A1.252,1.252,0,0,0,72.6,67.811a1.252,1.252,0,0,1,1.252-1.252A1.252,1.252,0,0,0,75.1,65.307V52.79a1.252,1.252,0,0,0-1.252-1.252A1.252,1.252,0,0,1,72.6,50.287a1.252,1.252,0,0,0-1.252-1.252H36.3a1.252,1.252,0,0,0-1.252,1.252A1.252,1.252,0,0,1,33.8,51.539a1.252,1.252,0,0,0-1.252,1.252v2.5h-2.5V46.532H77.606Z" transform="translate(0 6.04)"/>
      <path id="Path_1005130" data-name="Path 1005130" d="M7.309,39.4a1.233,1.233,0,0,0,1.762.008L14.078,34.4l-1.77-1.77L9.437,35.5V21h-2.5V35.5l-2.87-2.87L2.293,34.4,7.3,39.409Z" transform="translate(0.577 5.286)"/>
      <path id="Path_1005131" data-name="Path 1005131" d="M6,17H8.5v2.5H6Z" transform="translate(1.51 4.279)"/>
    </g>
  </g>
</svg>
