<svg xmlns="http://www.w3.org/2000/svg" xmlns:xlink="http://www.w3.org/1999/xlink" width="108" height="108" viewBox="0 0 108 108">
  <defs>
    <filter id="Ellipse_13673" x="0" y="0" width="108" height="108" filterUnits="userSpaceOnUse">
      <feOffset dy="3" input="SourceAlpha"/>
      <feGaussianBlur stdDeviation="3" result="blur"/>
      <feFlood flood-opacity="0.161"/>
      <feComposite operator="in" in2="blur"/>
    </filter>
    <filter id="Ellipse_13673-2" x="0" y="0" width="108" height="108" filterUnits="userSpaceOnUse">
      <feOffset dy="3" input="SourceAlpha"/>
      <feGaussianBlur stdDeviation="3" result="blur-2"/>
      <feFlood flood-color="#fff" flood-opacity="0.161" result="color"/>
      <feComposite operator="out" in="SourceGraphic" in2="blur-2"/>
      <feComposite operator="in" in="color"/>
      <feComposite operator="in" in2="SourceGraphic"/>
    </filter>
  </defs>
  <g id="banner-principal-decorativo-2" transform="translate(7706 11881)">
    <g data-type="innerShadowGroup">
      <g transform="matrix(1, 0, 0, 1, -7706, -11881)" filter="url(#Ellipse_13673)">
        <g id="Ellipse_13673-3" data-name="Ellipse 13673" transform="translate(9 6)" fill="#f9f6ff" stroke="#cfde90" stroke-width="3">
          <circle cx="45" cy="45" r="45" stroke="none"/>
          <circle cx="45" cy="45" r="43.5" fill="none"/>
        </g>
      </g>
      <circle id="Ellipse_13673-4" data-name="Ellipse 13673" cx="45" cy="45" r="45" transform="translate(-7697 -11875)" fill="#f9f6ff"/>
      <g transform="matrix(1, 0, 0, 1, -7706, -11881)" filter="url(#Ellipse_13673-2)">
        <circle id="Ellipse_13673-5" data-name="Ellipse 13673" cx="45" cy="45" r="45" transform="translate(9 6)" fill="#fff"/>
      </g>
      <g id="Ellipse_13673-6" data-name="Ellipse 13673" transform="translate(-7697 -11875)" fill="none" stroke="#cfde90" stroke-width="3">
        <circle cx="45" cy="45" r="45" stroke="none"/>
        <circle cx="45" cy="45" r="43.5" fill="none"/>
      </g>
    </g>
    <g id="Group_1178147" data-name="Group 1178147" transform="translate(-7681.919 -11884.254)">
      <g id="Group_1178144" data-name="Group 1178144" transform="translate(0 33.871)">
        <path id="Path_998507" data-name="Path 998507" d="M58.67,118.131H55.655V85.167a3.578,3.578,0,0,0-3.574-3.574H36.134a1.169,1.169,0,1,0,0,2.337H52.081a1.238,1.238,0,0,1,1.237,1.237v32.964H39.7a4.41,4.41,0,0,0-4.245,3.234H24.386a4.41,4.41,0,0,0-4.245-3.234H6.521V85.167A1.238,1.238,0,0,1,7.758,83.93H22.049a1.169,1.169,0,1,0,0-2.337H7.758a3.578,3.578,0,0,0-3.574,3.574v32.964H1.169A1.169,1.169,0,0,0,0,119.3v5.663a3.717,3.717,0,0,0,3.713,3.713H56.126a3.717,3.717,0,0,0,3.713-3.713V119.3a1.169,1.169,0,0,0-1.169-1.169ZM57.5,124.963a1.377,1.377,0,0,1-1.376,1.376H3.713a1.377,1.377,0,0,1-1.376-1.376v-4.494h17.8a2.067,2.067,0,0,1,2.065,2.065,1.169,1.169,0,0,0,1.169,1.169h13.09a1.169,1.169,0,0,0,1.169-1.169,2.067,2.067,0,0,1,2.065-2.065H57.5Z" transform="translate(0 -81.593)" fill="#020288"/>
        <path id="Path_998508" data-name="Path 998508" d="M114.394,242.45l-9.847,7.042a1.169,1.169,0,1,0,1.36,1.9l9.348-6.685,9.95,3.592a1.169,1.169,0,0,0,1.143-.2l10.112-8.381a1.169,1.169,0,0,0,2.266.057l.805-2.888a1.169,1.169,0,0,0-1.293-1.471l-2.969.428a1.169,1.169,0,0,0-.417,2.169l-9.482,7.859-9.9-3.574a1.169,1.169,0,0,0-1.077.149Z" transform="translate(-91.896 -217.43)" fill="#020288"/>
      </g>
      <g id="Group_1178146" data-name="Group 1178146" transform="translate(15.866 27.555)">
        <g id="Group_1178145" data-name="Group 1178145" transform="translate(0 0)">
          <circle id="Ellipse_13677" data-name="Ellipse 13677" cx="13.965" cy="13.965" r="13.965" fill="#cfde90"/>
        </g>
        <path id="Path_998509" data-name="Path 998509" d="M221.777,80.273l-.559-.2V76.318a1.779,1.779,0,0,1,.94.6,1.169,1.169,0,1,0,1.913-1.343,4.29,4.29,0,0,0-2.854-1.653v-.247a1.169,1.169,0,0,0-2.337,0v.336q-.266.059-.541.142a3.949,3.949,0,0,0-2.692,3.464,3.682,3.682,0,0,0,2.247,3.668c.216.1.555.243.985.411v4.5a3.03,3.03,0,0,1-1.512-.926,1.169,1.169,0,1,0-1.82,1.466A5.6,5.6,0,0,0,218.88,88.6v.165a1.169,1.169,0,0,0,2.337,0v-.076a4.115,4.115,0,0,0,3.9-3.506A4.709,4.709,0,0,0,221.777,80.273Zm-3.8-2.482a1.651,1.651,0,0,1,.9-1.349v2.724A1.358,1.358,0,0,1,217.978,77.79Zm4.821,7.094a1.759,1.759,0,0,1-1.582,1.433V82.562A2.335,2.335,0,0,1,222.8,84.884Z" transform="translate(-205.994 -67.253)" fill="#020288"/>
      </g>
    </g>
  </g>
</svg>
