<svg xmlns="http://www.w3.org/2000/svg" width="90" height="90" viewBox="0 0 90 90">
  <g id="img15" transform="translate(-286.711 -4786)">
    <circle id="Ellipse_13776" data-name="Ellipse 13776" cx="45" cy="45" r="45" transform="translate(286.711 4786)" fill="#fff"/>
    <g id="Group_1181356" data-name="Group 1181356" transform="translate(303.239 4802.527)">
      <circle id="Ellipse_13777" data-name="Ellipse 13777" cx="15.5" cy="15.5" r="15.5" transform="translate(24.472 1.472)" fill="#cce2ff"/>
      <path id="Path_1010403" data-name="Path 1010403" d="M46.263,28.319l-.62,3.766a15.122,15.122,0,0,1-11.281-2.579l.922-3.669a2.53,2.53,0,0,0-.346-2l-1.285-1.914a2.569,2.569,0,0,1-.354-2l.354-1.4A2.5,2.5,0,0,0,31.7,15.46l-3.483-.709A15.072,15.072,0,0,1,36.949,3.47l4.032,1.613a2.184,2.184,0,0,1,1.188,2.9L38.8,15.558a2.186,2.186,0,0,0,.771,2.694l.868.567a2.153,2.153,0,0,1,.851,2.481l-.611,1.852A2.179,2.179,0,0,0,43.436,25.9a2.048,2.048,0,0,1,.691-.106,2.158,2.158,0,0,1,2.127,2.517Z" transform="translate(-3.097 -0.281)" fill="#67cc6d"/>
      <path id="Path_1010404" data-name="Path 1010404" d="M59.611,12.075l-5.583,4.52a1.1,1.1,0,0,1-1.8-1.019l.31-1.9a1.108,1.108,0,0,0-1.09-1.3,1.085,1.085,0,0,0-.656.239,1.107,1.107,0,0,1-1.71-1.241L51.759,3.55A15.107,15.107,0,0,1,59.6,12.075Z" transform="translate(-5.465 -0.29)" fill="#67cc6d"/>
      <path id="Path_1010405" data-name="Path 1010405" d="M2,58H25.041v3.545H2Z" transform="translate(-0.114 -6.486)" fill="#67cca2"/>
      <path id="Path_1010406" data-name="Path 1010406" d="M2,54H25.041v3.545H2Z" transform="translate(-0.114 -6.031)" fill="#48b386"/>
      <path id="Path_1010407" data-name="Path 1010407" d="M25.041,53.2H2L5.545,47H21.5Z" transform="translate(-0.114 -5.234)" fill="#67cca2"/>
      <ellipse id="Ellipse_13778" data-name="Ellipse 13778" cx="4.5" cy="2.5" rx="4.5" ry="2.5" transform="translate(32.472 45.472)" fill="#e6c445"/>
      <ellipse id="Ellipse_13779" data-name="Ellipse 13779" cx="4.5" cy="3" rx="4.5" ry="3" transform="translate(32.472 49.472)" fill="#ffdf66"/>
      <ellipse id="Ellipse_13780" data-name="Ellipse 13780" cx="4.5" cy="2.5" rx="4.5" ry="2.5" transform="translate(46.472 45.472)" fill="#e6c445"/>
      <ellipse id="Ellipse_13781" data-name="Ellipse 13781" cx="4.5" cy="3" rx="4.5" ry="3" transform="translate(46.472 40.472)" fill="#ffdf66"/>
      <ellipse id="Ellipse_13782" data-name="Ellipse 13782" cx="4.5" cy="3" rx="4.5" ry="3" transform="translate(46.472 49.472)" fill="#ffdf66"/>
      <path id="Path_1010408" data-name="Path 1010408" d="M9,31h5.317v7.976H9Z" transform="translate(-0.91 -3.414)" fill="#ff7375"/>
      <path id="Path_1010409" data-name="Path 1010409" d="M21,24h5.317V38.179H21Z" transform="translate(-2.276 -2.617)" fill="#ff7375"/>
      <path id="Path_1010410" data-name="Path 1010410" d="M1.886,36.448H32.017V34.676h-7.09V21.383a.889.889,0,0,0-.886-.886H18.724a.889.889,0,0,0-.886.886V34.676H14.293v-7.09a.889.889,0,0,0-.886-.886H8.09a.889.889,0,0,0-.886.886v7.09H2.772V1H1V35.562A.889.889,0,0,0,1.886,36.448ZM19.61,22.269h3.545V34.676H19.61Zm-10.634,6.2h3.545v6.2H8.976Z" transform="translate(0)"/>
      <path id="Path_1010411" data-name="Path 1010411" d="M1.886,61.067H24.928a.889.889,0,0,0,.886-.886v-7.09h0a.915.915,0,0,0-.062-.3.612.612,0,0,0-.027-.071c-.009-.018-.018-.044-.027-.062l-3.545-6.2a.889.889,0,0,0-.771-.443H5.431a.889.889,0,0,0-.771.443l-3.545,6.2s-.018.044-.027.062a.61.61,0,0,1-.027.071.871.871,0,0,0-.062.3v7.09a.889.889,0,0,0,.886.886ZM5.945,47.774H20.869L23.4,52.2H3.41Zm-3.173,6.2H24.041v1.772H2.772Zm0,3.545H24.041v1.772H2.772Z" transform="translate(0 -5.122)"/>
      <path id="Path_1010412" data-name="Path 1010412" d="M46.634,57.976a2.908,2.908,0,0,0-1.143-2.216,2.908,2.908,0,0,0,1.143-2.216c0-1.985-2.34-3.545-5.317-3.545S36,51.56,36,53.545a2.894,2.894,0,0,0,1.143,2.216A2.908,2.908,0,0,0,36,57.976c0,1.985,2.34,3.545,5.317,3.545S46.634,59.961,46.634,57.976Zm-5.317-6.2c2.029,0,3.545.939,3.545,1.772s-1.515,1.772-3.545,1.772-3.545-.939-3.545-1.772S39.288,51.772,41.317,51.772Zm-3.545,6.2c0-.443.434-.922,1.134-1.267a7.638,7.638,0,0,0,2.41.381,7.394,7.394,0,0,0,2.41-.381c.7.346,1.134.824,1.134,1.267,0,.833-1.515,1.772-3.545,1.772S37.772,58.809,37.772,57.976Z" transform="translate(-3.983 -5.576)"/>
      <path id="Path_1010413" data-name="Path 1010413" d="M56.317,45C53.34,45,51,46.56,51,48.545a2.894,2.894,0,0,0,1.143,2.216,2.718,2.718,0,0,0,0,4.431A2.908,2.908,0,0,0,51,57.407c0,1.985,2.34,3.545,5.317,3.545s5.317-1.56,5.317-3.545a2.908,2.908,0,0,0-1.143-2.216,2.718,2.718,0,0,0,0-4.431,2.908,2.908,0,0,0,1.143-2.216C61.634,46.56,59.295,45,56.317,45Zm0,14.179c-2.029,0-3.545-.939-3.545-1.772,0-.443.443-.922,1.143-1.267a7.758,7.758,0,0,0,4.8,0c.7.346,1.143.824,1.143,1.267C59.862,58.24,58.347,59.179,56.317,59.179Zm2.136-4.812a6.211,6.211,0,0,1-4.254,0c-.86-.346-1.418-.9-1.418-1.391,0-.443.434-.922,1.134-1.267a7.638,7.638,0,0,0,2.41.381,7.394,7.394,0,0,0,2.41-.381c.7.346,1.134.824,1.134,1.267,0,.5-.558,1.046-1.409,1.391Zm-2.136-4.05c-2.029,0-3.545-.939-3.545-1.772s1.515-1.772,3.545-1.772,3.545.939,3.545,1.772S58.347,50.317,56.317,50.317Z" transform="translate(-5.69 -5.007)"/>
      <path id="Path_1010414" data-name="Path 1010414" d="M22.177,12.617l.629-4.387a.906.906,0,0,0-.248-.753.87.87,0,0,0-.753-.248l-4.387.629.248,1.755,1.755-.248L7.51,21.266l1.25,1.25L20.67,10.605l-.248,1.755,1.755.248Z" transform="translate(-0.741 -0.708)"/>
      <path id="Path_1010415" data-name="Path 1010415" d="M58.883,16.952a15.952,15.952,0,0,0-31.9,0c0,.31.009.629.027.939l1.772-.1c-.018-.275-.027-.558-.027-.833,0-.479.027-.948.071-1.418l2.561.514a1.624,1.624,0,0,1,1.258,1.976l-.354,1.409a3.457,3.457,0,0,0,.479,2.7l1.276,1.905a1.652,1.652,0,0,1,.23,1.3L33.68,27.7a14.122,14.122,0,0,1-2.41-2.667l-1.453,1.01a15.954,15.954,0,0,0,29.068-9.084Zm-2.862-5.432-5.1,4.112a.213.213,0,0,1-.257.018.189.189,0,0,1-.1-.222l.31-1.888a2,2,0,0,0-.434-1.613,2.036,2.036,0,0,0-2.721-.319.218.218,0,0,1-.337-.239l2.34-6.859a14.234,14.234,0,0,1,6.283,7ZM45.227,27.9,44.7,31.007a14.783,14.783,0,0,1-1.781.124,14.163,14.163,0,0,1-7.71-2.286l.78-3.075a3.457,3.457,0,0,0-.479-2.7l-1.276-1.905a1.652,1.652,0,0,1-.23-1.3l.354-1.391a3.381,3.381,0,0,0-2.623-4.147L29.125,13.8a14.2,14.2,0,0,1,7.719-9.615L40.5,5.644a1.286,1.286,0,0,1,.727.718,1.269,1.269,0,0,1-.018,1L37.845,14.94a3.058,3.058,0,0,0,1.1,3.784l.868.576a1.278,1.278,0,0,1,.505,1.471l-.611,1.843a3.016,3.016,0,0,0,.744,3.128,3.061,3.061,0,0,0,3.128.744,1.333,1.333,0,0,1,1.391.39,1.244,1.244,0,0,1,.284,1.028Zm1.338,2.747.408-2.455a3.016,3.016,0,0,0-.682-2.473,3.1,3.1,0,0,0-3.3-.931,1.262,1.262,0,0,1-1.312-.31,1.248,1.248,0,0,1-.31-1.312l.611-1.843a3.041,3.041,0,0,0-1.205-3.509l-.86-.576a1.274,1.274,0,0,1-.461-1.586l3.368-7.568A3.061,3.061,0,0,0,41.168,4L39.334,3.26a14.222,14.222,0,0,1,3.607-.479,14.071,14.071,0,0,1,5.193,1l-2.4,7.045a1.993,1.993,0,0,0,3.084,2.224.2.2,0,0,1,.3.044.2.2,0,0,1,.044.177l-.31,1.888a1.973,1.973,0,0,0,.957,2.056,1.993,1.993,0,0,0,1.01.275,1.959,1.959,0,0,0,1.258-.452l4.573-3.687A14.057,14.057,0,0,1,57.138,17,14.207,14.207,0,0,1,46.6,30.688Z" transform="translate(-2.956)"/>
    </g>
  </g>
</svg>
