<svg xmlns="http://www.w3.org/2000/svg" xmlns:xlink="http://www.w3.org/1999/xlink" width="292" height="115" viewBox="0 0 292 115">
  <defs>
    <clipPath id="clip-path">
      <rect id="Rectangle_455811" data-name="Rectangle 455811" width="208" height="109.821" fill="none"/>
    </clipPath>
  </defs>
  <g id="img15" transform="translate(-1017.711 -4632)">
    <rect id="Rectangle_455339" data-name="Rectangle 455339" width="292" height="115" rx="10" transform="translate(1017.711 4632)" fill="#fa996c"/>
    <g id="Group_1179432" data-name="Group 1179432" transform="translate(1059.711 4635)">
      <g id="Group_1179431" data-name="Group 1179431" clip-path="url(#clip-path)">
        <path id="Path_1002519" data-name="Path 1002519" d="M144.877,104.164C114.641,91.439,110.43,91.4,82.422,101.016c-30.342,10.416-47.94,2.507-49.5-12.082-2.649-24.85,55.8-18.915,50.866-50.555C80.156,15.067,96.695,4.077,118.515.79,140.1-2.463,155.172,4,152.672,26.331c-1.383,12.352-6.186,20.25,11.063,25.351C181.578,56.959,209.4,54,214.118,77.331c4.673,23.119-40.974,38.729-69.241,26.833" transform="translate(-20.422 0)" fill="#e5f2f8"/>
        <rect id="Rectangle_455764" data-name="Rectangle 455764" width="3.954" height="12.913" transform="translate(159.247 37.817)" fill="#c1dee8"/>
        <rect id="Rectangle_455765" data-name="Rectangle 455765" width="0.892" height="27.158" transform="translate(160.778 31.22)" fill="#c1dee8"/>
        <rect id="Rectangle_455766" data-name="Rectangle 455766" width="3.223" height="10.527" transform="translate(165.281 45.188)" fill="#c1dee8"/>
        <rect id="Rectangle_455767" data-name="Rectangle 455767" width="0.727" height="22.14" transform="translate(166.528 39.81)" fill="#c1dee8"/>
        <rect id="Rectangle_455768" data-name="Rectangle 455768" width="3.223" height="10.527" transform="translate(170.872 47.76)" fill="#c1dee8"/>
        <rect id="Rectangle_455769" data-name="Rectangle 455769" width="0.727" height="22.14" transform="translate(172.12 42.382)" fill="#c1dee8"/>
        <rect id="Rectangle_455770" data-name="Rectangle 455770" width="3.223" height="10.527" transform="translate(176.527 43.196)" fill="#c1dee8"/>
        <rect id="Rectangle_455771" data-name="Rectangle 455771" width="0.727" height="22.14" transform="translate(177.775 37.817)" fill="#c1dee8"/>
        <rect id="Rectangle_455772" data-name="Rectangle 455772" width="3.223" height="10.527" transform="translate(181.507 39.108)" fill="#c1dee8"/>
        <rect id="Rectangle_455773" data-name="Rectangle 455773" width="0.727" height="22.14" transform="translate(182.755 33.729)" fill="#c1dee8"/>
        <rect id="Rectangle_455774" data-name="Rectangle 455774" width="2.169" height="7.083" transform="translate(185.867 50.509)" fill="#c1dee8"/>
        <rect id="Rectangle_455775" data-name="Rectangle 455775" width="0.489" height="14.895" transform="translate(186.707 46.89)" fill="#c1dee8"/>
        <rect id="Rectangle_455776" data-name="Rectangle 455776" width="2.169" height="7.083" transform="translate(189.762 55.924)" fill="#c1dee8"/>
        <rect id="Rectangle_455777" data-name="Rectangle 455777" width="0.489" height="14.895" transform="translate(190.602 52.306)" fill="#c1dee8"/>
        <rect id="Rectangle_455778" data-name="Rectangle 455778" width="2.894" height="9.453" transform="translate(193.7 61.055)" fill="#c1dee8"/>
        <rect id="Rectangle_455779" data-name="Rectangle 455779" width="0.653" height="19.88" transform="translate(194.821 56.226)" fill="#c1dee8"/>
        <rect id="Rectangle_455780" data-name="Rectangle 455780" width="2.26" height="7.379" transform="translate(198.606 65.313)" fill="#c1dee8"/>
        <rect id="Rectangle_455781" data-name="Rectangle 455781" width="0.51" height="15.519" transform="translate(199.481 61.543)" fill="#c1dee8"/>
        <rect id="Rectangle_455782" data-name="Rectangle 455782" width="3.954" height="12.913" transform="translate(62.074 7.476)" fill="#c1dee8"/>
        <rect id="Rectangle_455783" data-name="Rectangle 455783" width="0.892" height="27.158" transform="translate(63.606 0.878)" fill="#c1dee8"/>
        <rect id="Rectangle_455784" data-name="Rectangle 455784" width="3.223" height="10.527" transform="translate(68.108 14.847)" fill="#c1dee8"/>
        <rect id="Rectangle_455785" data-name="Rectangle 455785" width="0.727" height="22.14" transform="translate(69.356 9.468)" fill="#c1dee8"/>
        <rect id="Rectangle_455786" data-name="Rectangle 455786" width="3.223" height="10.527" transform="translate(73.7 17.418)" fill="#c1dee8"/>
        <rect id="Rectangle_455787" data-name="Rectangle 455787" width="0.727" height="22.14" transform="translate(74.948 12.04)" fill="#c1dee8"/>
        <rect id="Rectangle_455788" data-name="Rectangle 455788" width="3.223" height="10.527" transform="translate(79.355 12.854)" fill="#c1dee8"/>
        <rect id="Rectangle_455789" data-name="Rectangle 455789" width="0.727" height="22.14" transform="translate(80.602 7.476)" fill="#c1dee8"/>
        <rect id="Rectangle_455790" data-name="Rectangle 455790" width="3.223" height="10.527" transform="translate(84.335 8.766)" fill="#c1dee8"/>
        <rect id="Rectangle_455791" data-name="Rectangle 455791" width="0.727" height="22.14" transform="translate(85.582 3.388)" fill="#c1dee8"/>
        <rect id="Rectangle_455792" data-name="Rectangle 455792" width="2.169" height="7.083" transform="translate(88.694 20.167)" fill="#c1dee8"/>
        <rect id="Rectangle_455793" data-name="Rectangle 455793" width="0.489" height="14.895" transform="translate(89.534 16.548)" fill="#c1dee8"/>
        <rect id="Rectangle_455794" data-name="Rectangle 455794" width="2.169" height="7.083" transform="translate(92.59 25.583)" fill="#c1dee8"/>
        <rect id="Rectangle_455795" data-name="Rectangle 455795" width="0.489" height="14.895" transform="translate(93.43 21.964)" fill="#c1dee8"/>
        <rect id="Rectangle_455796" data-name="Rectangle 455796" width="2.894" height="9.453" transform="translate(96.527 30.713)" fill="#c1dee8"/>
        <rect id="Rectangle_455797" data-name="Rectangle 455797" width="0.653" height="19.88" transform="translate(97.648 25.884)" fill="#c1dee8"/>
        <rect id="Rectangle_455798" data-name="Rectangle 455798" width="2.26" height="7.379" transform="translate(101.433 34.971)" fill="#c1dee8"/>
        <rect id="Rectangle_455799" data-name="Rectangle 455799" width="0.51" height="15.519" transform="translate(102.308 31.201)" fill="#c1dee8"/>
        <rect id="Rectangle_455800" data-name="Rectangle 455800" width="6.42" height="71.878" transform="translate(41.24 24.835)" fill="#c1dee8"/>
        <rect id="Rectangle_455801" data-name="Rectangle 455801" width="6.42" height="65.579" transform="translate(31.163 31.134)" fill="#c1dee8"/>
        <rect id="Rectangle_455802" data-name="Rectangle 455802" width="6.42" height="52.694" transform="translate(22.344 44.02)" fill="#c1dee8"/>
        <rect id="Rectangle_455803" data-name="Rectangle 455803" width="6.42" height="57.943" transform="translate(51.245 38.77)" fill="#c1dee8"/>
        <rect id="Rectangle_455804" data-name="Rectangle 455804" width="6.42" height="43.034" transform="translate(61.249 53.679)" fill="#c1dee8"/>
        <path id="Path_1002520" data-name="Path 1002520" d="M208,273.219c0,2.217-46.562,4.015-104,4.015s-104-1.8-104-4.015S46.562,269.2,104,269.2s104,1.8,104,4.015" transform="translate(0 -167.413)" fill="#cde1e8"/>
        <rect id="Rectangle_455805" data-name="Rectangle 455805" width="24.077" height="46.673" transform="translate(22.378 64.315) rotate(-45.282)" fill="#8c8c1f"/>
        <path id="Path_1002521" data-name="Path 1002521" d="M113.346,164.89,92.783,144.527c-2.417,2.439-6.547,2.277-9.36-.316l-5.642,5.7c2.508,2.665,2.8,6.563.694,9.032L99.06,179.324c2.5-2.307,6.64-2.029,9.38.683l5.625-5.682c-2.762-2.735-3.067-6.918-.719-9.434" transform="translate(-48.371 -89.682)" fill="#c2c23c"/>
        <path id="Path_1002522" data-name="Path 1002522" d="M116.79,170.7a8.171,8.171,0,1,1-11.3.3,8,8,0,0,1,11.3-.3" transform="translate(-64.086 -104.792)" fill="#8c8c1f"/>
        <rect id="Rectangle_455806" data-name="Rectangle 455806" width="23.503" height="47.542" transform="translate(38.214 55.964) rotate(-27.257)" fill="#969924"/>
        <path id="Path_1002523" data-name="Path 1002523" d="M147.679,163.9l-13.5-26.205c-2.98,1.534-6.824.021-8.726-3.38l-6.958,3.585c1.595,3.37.741,7.186-1.951,8.852l13.515,26.231c3.021-1.381,6.84.246,8.64,3.737l6.938-3.576c-1.813-3.52-.894-7.614,2.043-9.245" transform="translate(-72.476 -83.53)" fill="#c2c23c"/>
        <path id="Path_1002524" data-name="Path 1002524" d="M150.641,171.31a7.969,7.969,0,1,1-10.734-3.435,7.972,7.972,0,0,1,10.734,3.435" transform="translate(-84.318 -103.847)" fill="#969924"/>
        <rect id="Rectangle_455807" data-name="Rectangle 455807" width="50.208" height="24.077" transform="translate(28.514 73.812) rotate(-0.442)" fill="#969924"/>
        <path id="Path_1002525" data-name="Path 1002525" d="M120.085,199.255l-31.13.239c.025,3.434-3.233,6.25-7.345,6.418l.062,8.019c3.936.1,7.125,2.642,7.413,5.873l31.162-.241c.138-3.4,3.492-6.141,7.64-6.174l-.063-8c-4.182.032-7.6-2.7-7.738-6.139" transform="translate(-50.752 -123.913)" fill="#c2c23c"/>
        <path id="Path_1002526" data-name="Path 1002526" d="M126.255,204.956a8.168,8.168,0,1,1-8.353,8.228,8.3,8.3,0,0,1,8.353-8.228" transform="translate(-73.321 -127.458)" fill="#969924"/>
        <path id="Path_1002527" data-name="Path 1002527" d="M146.573,160.245H243.9L261.33,89.527H165.777Z" transform="translate(-91.151 -55.675)" fill="#142480"/>
        <path id="Path_1002528" data-name="Path 1002528" d="M243.439,160.025H145.407l.116-.419,19.272-70.97h96.236Zm-97.155-.67h96.631l17.26-70.048H165.31Z" transform="translate(-90.426 -55.122)" fill="#142480"/>
        <path id="Path_1002529" data-name="Path 1002529" d="M137.255,160.245h97.328l17.429-70.718H156.46Z" transform="translate(-85.357 -55.675)" fill="#355ddc"/>
        <path id="Path_1002530" data-name="Path 1002530" d="M234.122,160.025H136.09l.116-.419,19.272-70.97h96.236Zm-97.155-.67H233.6l17.26-70.048H155.993Z" transform="translate(-84.632 -55.122)" fill="#355ddc"/>
        <path id="Path_1002531" data-name="Path 1002531" d="M156.322,163.434h83.74l15.43-60.848H172.845Z" transform="translate(-97.214 -63.797)" fill="#e7f4fa"/>
        <path id="Path_1002532" data-name="Path 1002532" d="M239.6,163.214H155.164l.113-.422,16.591-61.1H255.2Zm-83.562-.67h83.044l15.257-60.178H172.383Z" transform="translate(-96.494 -63.243)" fill="#e7f4fa"/>
        <path id="Path_1002533" data-name="Path 1002533" d="M249.423,157.295a4.514,4.514,0,0,1-3.788,2.942l-58.462-.778c-1.472-.02-2.158-1.368-1.535-3.012l15.531-40.967a4.518,4.518,0,0,1,3.792-2.941l58.462.778c1.471.02,2.154,1.368,1.531,3.012Z" transform="translate(-115.302 -69.985)" fill="#d4e6ed"/>
        <path id="Path_1002534" data-name="Path 1002534" d="M285.9,113.316l-58.462-.778a4.517,4.517,0,0,0-3.792,2.941L221.552,121l63.785.849,2.095-5.525c.623-1.644-.06-2.992-1.531-3.012" transform="translate(-137.779 -69.985)" fill="#bfd7f5"/>
        <path id="Path_1002535" data-name="Path 1002535" d="M238.324,121.529a2.242,2.242,0,0,1-1.883,1.457c-.73-.009-1.07-.68-.763-1.492a2.24,2.24,0,0,1,1.882-1.461c.733.01,1.074.676.763,1.5" transform="translate(-146.494 -74.646)" fill="#fff"/>
        <path id="Path_1002536" data-name="Path 1002536" d="M247.157,121.646a2.245,2.245,0,0,1-1.885,1.457c-.728-.009-1.07-.68-.763-1.492a2.242,2.242,0,0,1,1.883-1.461c.732.01,1.076.676.765,1.5" transform="translate(-151.986 -74.719)" fill="#fff"/>
        <path id="Path_1002537" data-name="Path 1002537" d="M255.684,121.76a2.243,2.243,0,0,1-1.883,1.457c-.728-.009-1.069-.68-.761-1.492a2.24,2.24,0,0,1,1.881-1.461c.732.01,1.074.676.763,1.5" transform="translate(-157.291 -74.79)" fill="#fff"/>
        <path id="Path_1002538" data-name="Path 1002538" d="M242.612,157.2a4.514,4.514,0,0,1-3.788,2.942l-58.463-.778c-1.472-.02-2.158-1.368-1.535-3.012l15.531-40.967a4.518,4.518,0,0,1,3.792-2.941l58.462.778c1.47.02,2.154,1.368,1.531,3.012Z" transform="translate(-111.067 -69.929)" fill="#fff"/>
        <path id="Path_1002539" data-name="Path 1002539" d="M279.09,113.226l-58.462-.778a4.517,4.517,0,0,0-3.792,2.941l-2.095,5.525,63.785.849,2.095-5.525c.623-1.643-.06-2.992-1.531-3.012" transform="translate(-133.544 -69.929)" fill="#c9e1f9"/>
        <path id="Path_1002540" data-name="Path 1002540" d="M231.513,121.438a2.241,2.241,0,0,1-1.883,1.457c-.73-.009-1.07-.68-.763-1.492a2.24,2.24,0,0,1,1.882-1.461c.733.01,1.074.676.763,1.5" transform="translate(-142.258 -74.59)" fill="#fff"/>
        <path id="Path_1002541" data-name="Path 1002541" d="M240.345,121.556a2.245,2.245,0,0,1-1.885,1.457c-.728-.01-1.07-.68-.763-1.492a2.242,2.242,0,0,1,1.883-1.461c.732.01,1.076.676.765,1.5" transform="translate(-147.75 -74.663)" fill="#fff"/>
        <path id="Path_1002542" data-name="Path 1002542" d="M248.873,121.669a2.241,2.241,0,0,1-1.882,1.457c-.728-.009-1.069-.68-.761-1.492a2.24,2.24,0,0,1,1.881-1.461c.732.01,1.074.676.763,1.5" transform="translate(-153.055 -74.733)" fill="#fff"/>
        <path id="Path_1002543" data-name="Path 1002543" d="M171.96,263.308H33.243v-8.082H173.789Z" transform="translate(-20.673 -158.721)" fill="#142480"/>
        <path id="Path_1002544" data-name="Path 1002544" d="M171.673,263.1H32.339v-8.752H173.65ZM33.02,262.423H171.126l1.678-7.408H33.02Z" transform="translate(-20.111 -158.172)" fill="#142480"/>
        <path id="Path_1002545" data-name="Path 1002545" d="M422.2,205.17a1.91,1.91,0,0,1-1.911,1.909H382.114a1.91,1.91,0,0,1-1.909-1.909V166.2a1.909,1.909,0,0,1,1.909-1.91h38.179a1.91,1.91,0,0,1,1.911,1.91Z" transform="translate(-236.443 -102.166)" fill="#282738"/>
        <path id="Path_1002546" data-name="Path 1002546" d="M426.476,205.17a1.91,1.91,0,0,1-1.911,1.909H386.386a1.91,1.91,0,0,1-1.909-1.909V166.2a1.909,1.909,0,0,1,1.909-1.91h38.179a1.91,1.91,0,0,1,1.911,1.91Z" transform="translate(-239.1 -102.166)" fill="#363649"/>
        <path id="Path_1002547" data-name="Path 1002547" d="M428.372,174.836a1.908,1.908,0,0,1-1.909,1.909H394.169a1.908,1.908,0,0,1-1.907-1.909v-1.909a1.908,1.908,0,0,1,1.907-1.908h32.293a1.908,1.908,0,0,1,1.909,1.908Z" transform="translate(-243.941 -106.353)" fill="#a9ced8"/>
        <path id="Path_1002548" data-name="Path 1002548" d="M427.018,174.836a1.873,1.873,0,0,1-1.837,1.909H394.1a1.873,1.873,0,0,1-1.836-1.909v-1.909a1.873,1.873,0,0,1,1.836-1.908H425.18a1.873,1.873,0,0,1,1.837,1.908Z" transform="translate(-243.94 -106.353)" fill="#c1dee8"/>
        <path id="Path_1002549" data-name="Path 1002549" d="M401.329,201.712a1.013,1.013,0,0,1-1.014,1.013h-5.741a1.014,1.014,0,0,1-1.014-1.013v-3.38a1.013,1.013,0,0,1,1.014-1.011h5.741a1.011,1.011,0,0,1,1.014,1.011Z" transform="translate(-244.748 -122.711)" fill="#c1dee8"/>
        <path id="Path_1002550" data-name="Path 1002550" d="M425.449,201.712a1.013,1.013,0,0,1-1.014,1.013h-5.741a1.014,1.014,0,0,1-1.014-1.013v-3.38a1.012,1.012,0,0,1,1.014-1.011h5.741a1.011,1.011,0,0,1,1.014,1.011Z" transform="translate(-259.749 -122.711)" fill="#c1dee8"/>
        <path id="Path_1002551" data-name="Path 1002551" d="M449.566,201.712a1.013,1.013,0,0,1-1.016,1.013h-5.739a1.014,1.014,0,0,1-1.016-1.013v-3.38a1.013,1.013,0,0,1,1.016-1.011h5.739a1.012,1.012,0,0,1,1.016,1.011Z" transform="translate(-274.745 -122.711)" fill="#c1dee8"/>
        <path id="Path_1002552" data-name="Path 1002552" d="M473.688,201.712a1.012,1.012,0,0,1-1.01,1.013h-5.744a1.011,1.011,0,0,1-1.012-1.013v-3.38a1.01,1.01,0,0,1,1.012-1.011h5.744a1.011,1.011,0,0,1,1.01,1.011Z" transform="translate(-289.748 -122.711)" fill="#c1dee8"/>
        <path id="Path_1002553" data-name="Path 1002553" d="M401.329,220.466a1.012,1.012,0,0,1-1.014,1.012h-5.741a1.013,1.013,0,0,1-1.014-1.012v-3.379a1.015,1.015,0,0,1,1.014-1.014h5.741a1.014,1.014,0,0,1,1.014,1.014Z" transform="translate(-244.748 -134.372)" fill="#c1dee8"/>
        <path id="Path_1002554" data-name="Path 1002554" d="M425.449,220.466a1.012,1.012,0,0,1-1.014,1.012h-5.741a1.013,1.013,0,0,1-1.014-1.012v-3.379a1.015,1.015,0,0,1,1.014-1.014h5.741a1.014,1.014,0,0,1,1.014,1.014Z" transform="translate(-259.749 -134.372)" fill="#c1dee8"/>
        <path id="Path_1002555" data-name="Path 1002555" d="M449.566,220.466a1.013,1.013,0,0,1-1.016,1.012h-5.739a1.014,1.014,0,0,1-1.016-1.012v-3.379a1.015,1.015,0,0,1,1.016-1.014h5.739a1.014,1.014,0,0,1,1.016,1.014Z" transform="translate(-274.745 -134.372)" fill="#c1dee8"/>
        <path id="Path_1002556" data-name="Path 1002556" d="M473.688,220.466a1.011,1.011,0,0,1-1.01,1.012h-5.744a1.011,1.011,0,0,1-1.012-1.012v-3.379a1.012,1.012,0,0,1,1.012-1.014h5.744a1.013,1.013,0,0,1,1.01,1.014Z" transform="translate(-289.748 -134.372)" fill="#c1dee8"/>
        <path id="Path_1002557" data-name="Path 1002557" d="M401.329,239.228a1.012,1.012,0,0,1-1.014,1.011h-5.741a1.013,1.013,0,0,1-1.014-1.011v-3.38a1.015,1.015,0,0,1,1.014-1.014h5.741a1.014,1.014,0,0,1,1.014,1.014Z" transform="translate(-244.748 -146.039)" fill="#c1dee8"/>
        <path id="Path_1002558" data-name="Path 1002558" d="M425.449,239.228a1.012,1.012,0,0,1-1.014,1.011h-5.741a1.013,1.013,0,0,1-1.014-1.011v-3.38a1.015,1.015,0,0,1,1.014-1.014h5.741a1.014,1.014,0,0,1,1.014,1.014Z" transform="translate(-259.749 -146.039)" fill="#c1dee8"/>
        <path id="Path_1002559" data-name="Path 1002559" d="M449.566,239.228a1.012,1.012,0,0,1-1.016,1.011h-5.739a1.013,1.013,0,0,1-1.016-1.011v-3.38a1.015,1.015,0,0,1,1.016-1.014h5.739a1.014,1.014,0,0,1,1.016,1.014Z" transform="translate(-274.745 -146.039)" fill="#c1dee8"/>
        <path id="Rectangle_455808" data-name="Rectangle 455808" d="M2.682,0H5.088A2.681,2.681,0,0,1,7.769,2.681v.045A2.678,2.678,0,0,1,5.091,5.4H2.681A2.681,2.681,0,0,1,0,2.723V2.682A2.682,2.682,0,0,1,2.682,0Z" transform="translate(148.812 95.89)" fill="#c1dee8"/>
        <path id="Rectangle_455809" data-name="Rectangle 455809" d="M2.682,0H5.087A2.681,2.681,0,0,1,7.768,2.681v.045A2.678,2.678,0,0,1,5.09,5.4H2.681A2.681,2.681,0,0,1,0,2.723V2.682A2.682,2.682,0,0,1,2.682,0Z" transform="translate(157.932 95.89)" fill="#c1dee8"/>
        <path id="Path_1002560" data-name="Path 1002560" d="M449.566,257.987A1.013,1.013,0,0,1,448.551,259h-5.739a1.014,1.014,0,0,1-1.016-1.014V254.61a1.014,1.014,0,0,1,1.016-1.013h5.739a1.013,1.013,0,0,1,1.016,1.013Z" transform="translate(-274.745 -157.708)" fill="#c1dee8"/>
        <path id="Path_1002561" data-name="Path 1002561" d="M473.688,246.318a1.012,1.012,0,0,1-1.01,1.014h-5.744a1.011,1.011,0,0,1-1.012-1.014v-10.47a1.013,1.013,0,0,1,1.012-1.014h5.744a1.013,1.013,0,0,1,1.01,1.014Z" transform="translate(-289.748 -146.039)" fill="#c1dee8"/>
        <path id="Path_1002562" data-name="Path 1002562" d="M401.934,238.336a1.126,1.126,0,0,1-.244.056c-.158.03-.267.051-.326.06v-.328a1.165,1.165,0,0,0,.676-.356h.329v3.284h-.436Z" transform="translate(-249.601 -147.864)" fill="#fff"/>
        <path id="Path_1002563" data-name="Path 1002563" d="M426.6,240.694l.836-1.3a1.306,1.306,0,0,1,.08-.125,2.824,2.824,0,0,0,.207-.376.889.889,0,0,0,.066-.359.678.678,0,0,0-.08-.362.266.266,0,0,0-.251-.125c-.258,0-.388.2-.388.6v.11h-.434v-.115a1.138,1.138,0,0,1,.192-.709.728.728,0,0,1,.613-.247.744.744,0,0,1,.585.223.9.9,0,0,1,.2.624,1.227,1.227,0,0,1-.045.354,1.327,1.327,0,0,1-.112.27c-.043.075-.113.183-.2.324l-.754,1.151h1.038V241H426.6Z" transform="translate(-265.298 -147.816)" fill="#fff"/>
        <path id="Path_1002564" data-name="Path 1002564" d="M450.92,240.818a.879.879,0,0,1-.206-.623v-.11h.427v.075a.847.847,0,0,0,.089.385.375.375,0,0,0,.585-.017,1.026,1.026,0,0,0,.078-.453.8.8,0,0,0-.1-.433.409.409,0,0,0-.329-.172.457.457,0,0,0-.061,0v-.435h.057a.468.468,0,0,0,.333-.122.571.571,0,0,0,.1-.376.7.7,0,0,0-.08-.368.328.328,0,0,0-.293-.122.309.309,0,0,0-.291.133.859.859,0,0,0-.089.392v.069h-.427v-.11a.867.867,0,0,1,.206-.619.927.927,0,0,1,1.2,0,.875.875,0,0,1,.205.621.813.813,0,0,1-.126.469.628.628,0,0,1-.345.247.613.613,0,0,1,.349.279,1.1,1.1,0,0,1,.122.545,1.127,1.127,0,0,1-.2.711.726.726,0,0,1-.613.253.775.775,0,0,1-.6-.22" transform="translate(-280.291 -147.816)" fill="#fff"/>
        <path id="Path_1002565" data-name="Path 1002565" d="M402.421,221.411h-.951v-.455l.853-1.948h.512v2.019h.37v.384h-.37v.881h-.414Zm0-.384v-1.493l-.533,1.493Z" transform="translate(-249.667 -136.197)" fill="#fff"/>
        <path id="Path_1002566" data-name="Path 1002566" d="M426.858,222.083a1.145,1.145,0,0,1-.185-.712h.432a1.05,1.05,0,0,0,.079.442.283.283,0,0,0,.291.165.3.3,0,0,0,.245-.1.464.464,0,0,0,.1-.256,2.854,2.854,0,0,0,.025-.428,2.372,2.372,0,0,0-.026-.4.411.411,0,0,0-.1-.226.318.318,0,0,0-.237-.081.335.335,0,0,0-.223.079.5.5,0,0,0-.143.193h-.369v-1.759h1.416v.434h-1.022l-.028.906a.625.625,0,0,1,.474-.181.574.574,0,0,1,.537.258,1.332,1.332,0,0,1,.16.715,1.715,1.715,0,0,1-.183.872.672.672,0,0,1-.632.312.719.719,0,0,1-.608-.241" transform="translate(-265.341 -136.197)" fill="#fff"/>
        <path id="Path_1002567" data-name="Path 1002567" d="M451.109,221.986a1.377,1.377,0,0,1-.2-.782V220.1a1.654,1.654,0,0,1,.186-.848.662.662,0,0,1,.619-.314.8.8,0,0,1,.589.2.832.832,0,0,1,.214.593l.005.049h-.439a.661.661,0,0,0-.082-.372.322.322,0,0,0-.287-.118c-.249,0-.371.233-.371.7v.5a.459.459,0,0,1,.186-.167.676.676,0,0,1,.293-.06.607.607,0,0,1,.545.246,1.272,1.272,0,0,1,.164.7,1.347,1.347,0,0,1-.2.774.779.779,0,0,1-1.221,0m.9-.231a.945.945,0,0,0,.087-.436,3.283,3.283,0,0,0-.019-.393.463.463,0,0,0-.1-.241.318.318,0,0,0-.256-.091.373.373,0,0,0-.218.064.5.5,0,0,0-.154.158v.491a.945.945,0,0,0,.087.446.291.291,0,0,0,.284.169.3.3,0,0,0,.291-.167" transform="translate(-280.413 -136.153)" fill="#fff"/>
        <path id="Path_1002568" data-name="Path 1002568" d="M402.157,200.588h-.879v-.339h1.315v.21l-.61,3.074h-.418Z" transform="translate(-249.547 -124.531)" fill="#fff"/>
        <path id="Path_1002569" data-name="Path 1002569" d="M426.893,203.273a1.149,1.149,0,0,1-.192-.712,1.043,1.043,0,0,1,.1-.5.861.861,0,0,1,.3-.309.82.82,0,0,1-.364-.733.943.943,0,0,1,.188-.623.722.722,0,0,1,.582-.225.7.7,0,0,1,.571.225.916.916,0,0,1,.192.623.9.9,0,0,1-.1.438.794.794,0,0,1-.27.3.867.867,0,0,1,.3.312.994.994,0,0,1,.1.5,1.162,1.162,0,0,1-.188.71.893.893,0,0,1-1.236,0m.923-.257a.982.982,0,0,0,.084-.448.9.9,0,0,0-.089-.429.322.322,0,0,0-.3-.171.329.329,0,0,0-.3.171.865.865,0,0,0-.094.429.933.933,0,0,0,.089.448.321.321,0,0,0,.31.162.313.313,0,0,0,.3-.162m.031-2.021a.688.688,0,0,0-.078-.353.276.276,0,0,0-.256-.133.286.286,0,0,0-.263.133.683.683,0,0,0-.08.353.916.916,0,0,0,.075.4.281.281,0,0,0,.268.16c.225,0,.335-.19.335-.56" transform="translate(-265.358 -124.484)" fill="#fff"/>
        <path id="Path_1002570" data-name="Path 1002570" d="M450.979,203.31a.849.849,0,0,1-.214-.6v-.034h.432a.66.66,0,0,0,.085.37.333.333,0,0,0,.295.118q.363,0,.362-.7v-.5a.444.444,0,0,1-.183.168.684.684,0,0,1-.294.058.6.6,0,0,1-.545-.245,1.267,1.267,0,0,1-.16-.7,1.358,1.358,0,0,1,.2-.776.7.7,0,0,1,.617-.291.676.676,0,0,1,.6.3,1.344,1.344,0,0,1,.2.775v1.1a1.689,1.689,0,0,1-.186.851.663.663,0,0,1-.62.321.8.8,0,0,1-.592-.21m.96-1.68v-.484c0-.413-.122-.618-.368-.618a.3.3,0,0,0-.289.167.938.938,0,0,0-.087.436,2.672,2.672,0,0,0,.019.4.424.424,0,0,0,.1.238.31.31,0,0,0,.254.1.4.4,0,0,0,.368-.229" transform="translate(-280.317 -124.484)" fill="#fff"/>
        <path id="Path_1002571" data-name="Path 1002571" d="M426.992,259.2a1.109,1.109,0,0,1-.2-.7v-1.417a1.118,1.118,0,0,1,.2-.706.728.728,0,0,1,.615-.258.715.715,0,0,1,.608.258,1.118,1.118,0,0,1,.2.706V258.5a1.114,1.114,0,0,1-.2.706.837.837,0,0,1-1.218,0m.984-.7v-1.424a.984.984,0,0,0-.082-.443.29.29,0,0,0-.291-.164.3.3,0,0,0-.3.164,1.061,1.061,0,0,0-.079.443V258.5c0,.4.124.607.376.607s.373-.2.373-.607" transform="translate(-265.412 -159.274)" fill="#fff"/>
        <path id="Path_1002572" data-name="Path 1002572" d="M402.456,259.105H403.7v.332h-1.244Zm0,.721H403.7v.329h-1.244Z" transform="translate(-250.28 -161.133)" fill="#fff"/>
        <path id="Path_1002573" data-name="Path 1002573" d="M474.905,250.629h-.568V250.3h.568v-.662h.324v.662h.585v.328h-.585v.661h-.324Z" transform="translate(-294.982 -155.246)" fill="#fff"/>
        <path id="Path_1002574" data-name="Path 1002574" d="M470.764,200.249h.451l.578,2.662.584-2.662h.446l.061,3.284h-.369l-.037-2.384-.554,2.384h-.259l-.551-2.384-.038,2.384H470.7Z" transform="translate(-292.722 -124.531)" fill="#fff"/>
        <path id="Path_1002575" data-name="Path 1002575" d="M477.835,203.231a1.4,1.4,0,0,1-.2-.8v-1.157a1.436,1.436,0,0,1,.2-.819.975.975,0,0,1,1.324-.042,1.116,1.116,0,0,1,.191.7v.26h-.432v-.229a2.5,2.5,0,0,0-.021-.351.306.306,0,0,0-.1-.193.384.384,0,0,0-.263-.074.4.4,0,0,0-.279.08.386.386,0,0,0-.122.218,2.129,2.129,0,0,0-.028.376v1.3a1.378,1.378,0,0,0,.044.394.331.331,0,0,0,.129.2.459.459,0,0,0,.256.06.378.378,0,0,0,.258-.077.343.343,0,0,0,.107-.209,2.22,2.22,0,0,0,.024-.366v-.243h.432v.243a1.3,1.3,0,0,1-.183.752.738.738,0,0,1-.645.262.775.775,0,0,1-.684-.29" transform="translate(-297.034 -124.484)" fill="#fff"/>
        <rect id="Rectangle_455810" data-name="Rectangle 455810" width="0.904" height="0.33" transform="translate(170.628 98.469)" fill="#fff"/>
        <path id="Path_1002576" data-name="Path 1002576" d="M472.974,220.76a.736.736,0,0,1-.129-.47v-.212a.74.74,0,0,1,.124-.467.481.481,0,0,1,.406-.159.5.5,0,0,1,.406.153.719.719,0,0,1,.126.456v.241a.752.752,0,0,1-.126.464.489.489,0,0,1-.406.159.464.464,0,0,1-.4-.166m.561-.2a.661.661,0,0,0,.042-.257v-.241a.6.6,0,0,0-.04-.248.162.162,0,0,0-.162-.086.156.156,0,0,0-.16.087.614.614,0,0,0-.038.252v.239a.628.628,0,0,0,.04.255.157.157,0,0,0,.158.092.161.161,0,0,0,.16-.092m.918-1.089h.31l-.749,2.739H473.7Zm.1,2.122v-.212a.752.752,0,0,1,.122-.468.477.477,0,0,1,.4-.159.5.5,0,0,1,.408.15.724.724,0,0,1,.126.462v.236a.738.738,0,0,1-.127.466.487.487,0,0,1-.406.16q-.525,0-.524-.636m.688.268a.652.652,0,0,0,.042-.253v-.246a.582.582,0,0,0-.042-.247.162.162,0,0,0-.164-.087.153.153,0,0,0-.158.089.663.663,0,0,0-.039.25v.241a.619.619,0,0,0,.042.253.156.156,0,0,0,.155.094.163.163,0,0,0,.164-.094" transform="translate(-294.054 -136.473)" fill="#fff"/>
        <path id="Path_1002577" data-name="Path 1002577" d="M469.407,271.731v2.634h.039c.419.7,4.332,1.253,9.1,1.253s8.676-.552,9.1-1.253h.039v-2.634Z" transform="translate(-291.916 -168.985)" fill="#f4a517"/>
        <path id="Path_1002578" data-name="Path 1002578" d="M478.2,271.948v3.489c.924.115,2,.2,3.177.254v-3.743Z" transform="translate(-297.385 -169.12)" fill="#ffc91d"/>
        <path id="Path_1002579" data-name="Path 1002579" d="M488.185,273.607v3.142c.258.008.519.018.784.02v-3.161Z" transform="translate(-303.594 -170.151)" fill="#ffc91d"/>
        <path id="Path_1002580" data-name="Path 1002580" d="M487.68,269.78c0,.655-4.09,1.188-9.136,1.188s-9.136-.533-9.136-1.188,4.091-1.187,9.136-1.187,9.136.53,9.136,1.187" transform="translate(-291.916 -167.033)" fill="#ffc91d"/>
        <path id="Path_1002581" data-name="Path 1002581" d="M489.108,270.446c0,.5-3.1.9-6.921.9s-6.921-.4-6.921-.9,3.1-.9,6.921-.9,6.921.4,6.921.9" transform="translate(-295.56 -167.626)" fill="#f4a517"/>
        <path id="Path_1002582" data-name="Path 1002582" d="M489.554,270.825c0,.447-2.789.809-6.227.809s-6.228-.362-6.228-.809,2.788-.811,6.228-.811,6.227.365,6.227.811" transform="translate(-296.699 -167.917)" fill="#ffc91d"/>
        <path id="Path_1002583" data-name="Path 1002583" d="M476.853,262.655v2.632h.04c.419.7,4.331,1.252,9.1,1.252s8.679-.549,9.1-1.252h.039v-2.632Z" transform="translate(-296.547 -163.341)" fill="#f4a517"/>
        <path id="Path_1002584" data-name="Path 1002584" d="M485.644,262.867v3.49c.925.113,2,.2,3.178.256v-3.746Z" transform="translate(-302.014 -163.472)" fill="#ffc91d"/>
        <path id="Path_1002585" data-name="Path 1002585" d="M495.631,264.531v3.141c.257.009.519.017.784.02v-3.161Z" transform="translate(-308.224 -164.507)" fill="#ffc91d"/>
        <path id="Path_1002586" data-name="Path 1002586" d="M495.127,260.7c0,.654-4.093,1.187-9.138,1.187s-9.136-.533-9.136-1.187,4.091-1.188,9.136-1.188,9.138.531,9.138,1.188" transform="translate(-296.547 -161.386)" fill="#ffc91d"/>
        <path id="Path_1002587" data-name="Path 1002587" d="M496.556,261.366c0,.5-3.1.9-6.923.9s-6.921-.4-6.921-.9,3.1-.9,6.921-.9,6.923.4,6.923.9" transform="translate(-300.19 -161.98)" fill="#f4a517"/>
        <path id="Path_1002588" data-name="Path 1002588" d="M497,261.748c0,.448-2.789.811-6.229.811s-6.228-.363-6.228-.811,2.789-.811,6.228-.811,6.229.364,6.229.811" transform="translate(-301.33 -162.272)" fill="#ffc91d"/>
        <path id="Path_1002589" data-name="Path 1002589" d="M470.732,253.475v2.632h.04c.419.7,4.331,1.252,9.1,1.252s8.679-.549,9.1-1.252h.039v-2.632Z" transform="translate(-292.74 -157.632)" fill="#f4a517"/>
        <path id="Path_1002590" data-name="Path 1002590" d="M479.524,253.686v3.49c.925.113,2,.2,3.178.256v-3.746Z" transform="translate(-298.208 -157.763)" fill="#ffc91d"/>
        <path id="Path_1002591" data-name="Path 1002591" d="M489.51,255.35v3.141c.258.009.519.017.784.02V255.35Z" transform="translate(-304.418 -158.798)" fill="#ffc91d"/>
        <path id="Path_1002592" data-name="Path 1002592" d="M489.006,251.52c0,.654-4.093,1.187-9.138,1.187s-9.136-.533-9.136-1.187,4.091-1.188,9.136-1.188,9.138.531,9.138,1.188" transform="translate(-292.74 -155.677)" fill="#ffc91d"/>
        <path id="Path_1002593" data-name="Path 1002593" d="M490.435,252.185c0,.5-3.1.9-6.923.9s-6.921-.4-6.921-.9,3.1-.9,6.921-.9,6.923.4,6.923.9" transform="translate(-296.384 -156.27)" fill="#f4a517"/>
        <path id="Path_1002594" data-name="Path 1002594" d="M490.88,252.567c0,.448-2.789.811-6.229.811s-6.228-.363-6.228-.811,2.789-.811,6.228-.811,6.229.364,6.229.811" transform="translate(-297.523 -156.563)" fill="#ffc91d"/>
        <path id="Path_1002595" data-name="Path 1002595" d="M128.565,195.422H115.029a1.161,1.161,0,0,1-1.158-1.158V187.5a1.161,1.161,0,0,1,1.158-1.158h13.536a1.162,1.162,0,0,1,1.158,1.158v6.762a1.162,1.162,0,0,1-1.158,1.158" transform="translate(-70.814 -115.884)" fill="#b757ce"/>
        <path id="Path_1002596" data-name="Path 1002596" d="M129.809,197.649h-9.676a1.161,1.161,0,0,1-1.158-1.158v-4.552a1.161,1.161,0,0,1,1.158-1.158h9.676a1.162,1.162,0,0,1,1.158,1.158v4.552a1.162,1.162,0,0,1-1.158,1.158" transform="translate(-73.988 -118.643)" fill="#c2c23c"/>
        <path id="Path_1002597" data-name="Path 1002597" d="M121.478,229.336H82.132a1.422,1.422,0,0,1-1.418-1.418V200.926a1.422,1.422,0,0,1,1.418-1.418h39.346a1.422,1.422,0,0,1,1.418,1.418v26.992a1.422,1.422,0,0,1-1.418,1.418" transform="translate(-50.195 -124.071)" fill="#da86ef"/>
        <path id="Path_1002598" data-name="Path 1002598" d="M114.563,202.875H83.534a2.436,2.436,0,0,0-2.82,2.206c0,11.413,8.44,20.944,18.335,20.944s17.935-9.256,17.935-20.669c0-2.256-1.279-2.491-2.42-2.482" transform="translate(-50.195 -126.16)" fill="#d07ce5"/>
        <path id="Path_1002599" data-name="Path 1002599" d="M114.563,199.494H83.534a2.436,2.436,0,0,0-2.82,2.206c0,11.413,8.44,20.944,18.335,20.944s17.935-9.256,17.935-20.669c0-2.256-1.279-2.49-2.42-2.481" transform="translate(-50.195 -124.057)" fill="#e295f4"/>
        <path id="Path_1002600" data-name="Path 1002600" d="M171.093,199.5l4.113-.014-2.936,3.372Z" transform="translate(-106.4 -124.057)" fill="#e295f4"/>
        <path id="Path_1002601" data-name="Path 1002601" d="M128,257.746H123.04a.727.727,0,0,1-.724-.725v-2.694a.727.727,0,0,1,.724-.724H128a.727.727,0,0,1,.725.724v2.694a.727.727,0,0,1-.725.725" transform="translate(-76.066 -157.711)" fill="#ffc91d"/>
        <path id="Path_1002602" data-name="Path 1002602" d="M180.3,229.336h-1.409a2.258,2.258,0,0,1-2.251-2.251V201.759a2.258,2.258,0,0,1,2.251-2.251l1.337.02a2.3,2.3,0,0,1,2.324,2.231v25.326a2.258,2.258,0,0,1-2.252,2.251" transform="translate(-109.848 -124.071)" fill="#b757ce"/>
        <path id="Path_1002603" data-name="Path 1002603" d="M229.428,225.917a14.394,14.394,0,0,0-2.595,9.616l31.848-.844s-.5-7.374-3.426-9.456-25.827.684-25.827.684" transform="translate(-141.046 -139.586)" fill="#fce6d9"/>
        <path id="Path_1002604" data-name="Path 1002604" d="M312.743,158.867c-2.006-1.756-5.079-2.742-7.33-.749-1.277,1.131-.658,3.481.153,5.441,1.947,4.7,14.625,19.138,20.664,16.771,5.55-2.176-7.147-15.914-13.487-21.463" transform="translate(-189.476 -97.644)" fill="#e9b79c"/>
        <path id="Path_1002605" data-name="Path 1002605" d="M311.273,177.037s.65,2.216,1.992,1.464a1.451,1.451,0,0,0,.777-1.913,1.5,1.5,0,0,0,2.249-.193,1.244,1.244,0,0,0-.187-1.728,1.464,1.464,0,0,0,2.218-.03c.834-.784-.211-1.807-.211-1.807s1.011,1.343,2.077.3-.689-1.956-.689-1.956,1.613,1.006,2.475-.021-1.7-1.764-1.7-1.764Z" transform="translate(-193.575 -105.337)" fill="#fbfcfb"/>
        <path id="Path_1002606" data-name="Path 1002606" d="M298.623,159.511s-11.955-12.4-6.43-17.475c6.247-5.742,16.374,10,16.374,10s-4.911,6.683-9.944,7.478" transform="translate(-180.803 -87.546)" fill="#dc4851"/>
        <path id="Path_1002607" data-name="Path 1002607" d="M257.876,140.524h0c-7.681-.127-15.213-.568-26.244,1.111l-.26,10.591a33.621,33.621,0,0,1,3.65,8.027c1.717,5.751-.828,10.607-2.754,13.376-1.972,2.836,29.154,5.012,27.356.844-3.937-9.126,4.717-14.44,2.78-19.672-.346-.933.56-1.97.446-2.992-3.477-9.63-4.974-11.285-4.974-11.285" transform="translate(-143.886 -87.298)" fill="#dc4851"/>
        <path id="Path_1002608" data-name="Path 1002608" d="M288.889,157.2s1.786-11.168,6.4-.876c0,0,6.269,14.838-6.391,16.093-10.328,1.024-1.963-12.856-1.963-12.856Z" transform="translate(-176.453 -94.506)" fill="#dc4851"/>
        <path id="Path_1002609" data-name="Path 1002609" d="M298.151,193.757c-1.871,4.258-6.64,3.19-9.8,1.028a.373.373,0,0,0-.423.615c2.371,1.624,5.469,3.044,8.266,1.512A6.32,6.32,0,0,0,298.868,194c.194-.439-.525-.676-.717-.241" transform="translate(-178.96 -120.351)" fill="#c63846"/>
        <path id="Path_1002610" data-name="Path 1002610" d="M262.468,195.21c-3.369,3.136-7.79,2.944-10.784-.607-.311-.369-.878.123-.569.49,3.227,3.828,8.145,4.123,11.854.672.353-.329-.147-.885-.5-.555" transform="translate(-156.109 -120.939)" fill="#c63846"/>
        <path id="Path_1002611" data-name="Path 1002611" d="M252.93,138.581c-1.224.1-5.853.572-5.853.572l6.648,8.381a3.27,3.27,0,0,0,4.933.182l2.656-2.865,3.7,2.522a1.746,1.746,0,0,0,2.711-1.776l-1.515-6.681a106.636,106.636,0,0,0-13.281-.336" transform="translate(-153.653 -86.108)" fill="#fbfcfb"/>
        <path id="Path_1002612" data-name="Path 1002612" d="M265.773,77.076s-6.769-4-11.665,2.022.93,16.033,6.887,17.582c.571.151-2.9-7.818-2.071-9.994.087-.226.262-.437.331-.663.054-.164.045-.357.082-.522a12.1,12.1,0,0,1,.349-1.35,14.213,14.213,0,0,1,1.051-2.491,12.35,12.35,0,0,1,2.56-3.343,5.979,5.979,0,0,1,1.324-.934c.212-.11.9-.452,1.151-.306" transform="translate(-156.887 -47.123)" fill="#53424d"/>
        <path id="Path_1002613" data-name="Path 1002613" d="M262.417,108.721s8.435,2.393,7.817,3.175.064,2.585-.119,4.232c-.194,1.786.624,3.8,1.813,5.769.833,1.378-.492,2.63-2.1,2.775a10.158,10.158,0,0,1-9.8-4.435c2.995-3.107,2.387-11.517,2.387-11.517" transform="translate(-161.708 -67.612)" fill="#e9b79c"/>
        <path id="Path_1002614" data-name="Path 1002614" d="M274.043,116.13c.183-1.647-.5-3.451.119-4.232s-7.817-3.174-7.817-3.174a9.271,9.271,0,0,1,.972,4.454,31.622,31.622,0,0,0,6.989,5.085,5.715,5.715,0,0,1-.263-2.133" transform="translate(-165.635 -67.613)" fill="#c58063"/>
        <path id="Path_1002615" data-name="Path 1002615" d="M208.545,61.237s-2.581-10.1-9.72-8.405-6.693-9.571-19.307-7.544c-4.435.713-8.7,6.988-6.52,12.133,1.7,4,12.363,8.957,25.326,5.753s8.854,1.158,8.854,1.158Z" transform="translate(-107.218 -28.011)" fill="#53424d"/>
        <path id="Path_1002616" data-name="Path 1002616" d="M272.246,79.107c2.573,2.6,7.952,13.433,2.527,17.7-2.313,1.826-8.363-1.348-11.329-6.334-1.215-2.045-1.044-6.448,1.154-10.141.99-1.675,4.693-4.273,7.649-1.225" transform="translate(-163.364 -48.319)" fill="#e9b79c"/>
        <path id="Path_1002617" data-name="Path 1002617" d="M271.151,81.177S267.9,90,261.087,89.244c0,0-1.8-8.167,4.861-11.784,0,0,9.552-2.691,10.748,9.777,0,0-4.671.3-5.544-6.059" transform="translate(-162.228 -48.019)" fill="#53424d"/>
        <path id="Path_1002618" data-name="Path 1002618" d="M266.378,106.006s-1.578-2.429-2.9-2.226-.605,3.8,1.936,4.038,1.477-1.136.967-1.812" transform="translate(-163.444 -64.532)" fill="#e9b79c"/>
        <path id="Path_1002619" data-name="Path 1002619" d="M266.73,119.706l-.05-.482.02.243-.245-.035c.014-.127.053-1.708.087-3.1.022-.889.044-1.8.063-2.488a.245.245,0,0,1,.253-.235h0a.244.244,0,0,1,.241.248c-.019.685-.041,1.6-.063,2.485-.083,3.34-.083,3.34-.309,3.367" transform="translate(-165.704 -70.65)" fill="#e8a32b"/>
        <path id="Path_1002620" data-name="Path 1002620" d="M262.662,119.53a.259.259,0,0,1-.151-.053.238.238,0,0,1-.036-.341,4.57,4.57,0,0,0,.926-2.161c.069-.365.114-.732.16-1.1.052-.421.107-.86.2-1.291a2.293,2.293,0,0,1,.23-.673.251.251,0,0,1,.337-.093.239.239,0,0,1,.1.329,1.8,1.8,0,0,0-.177.534c-.087.413-.138.839-.19,1.252-.047.375-.094.752-.164,1.126a5.031,5.031,0,0,1-1.03,2.379.249.249,0,0,1-.2.09" transform="translate(-163.194 -70.763)" fill="#e8a32b"/>
        <path id="Path_1002621" data-name="Path 1002621" d="M268.623,119.08l-.29-.393.141.2-.236.072c-.008-.022-.036-.087-.079-.187a20.906,20.906,0,0,1-1.444-4.391.249.249,0,0,1,.494-.057,18.46,18.46,0,0,0,1.409,4.261c.114.27.162.381,0,.5" transform="translate(-165.866 -70.961)" fill="#e8a32b"/>
        <path id="Path_1002622" data-name="Path 1002622" d="M266.554,112.794a.911.911,0,1,0-.931.871.9.9,0,0,0,.931-.871" transform="translate(-164.633 -69.58)" fill="#e8a32b"/>
        <path id="Path_1002623" data-name="Path 1002623" d="M279.908,108.655c-.058-.033.065.031.087.04a1.343,1.343,0,0,0,.3.09c.4.059.6-.191.72-.521.073-.208.4-.071.332.136a1.072,1.072,0,0,1-1.664.521c-.2-.114.029-.379.226-.266" transform="translate(-173.882 -67.263)" fill="#1e100c"/>
        <path id="Path_1002624" data-name="Path 1002624" d="M290,106.175a1.215,1.215,0,0,0,.325.236c.386.191.623-.036.788-.372.1-.2.429-.064.332.136a.923.923,0,0,1-1.03.631,1.464,1.464,0,0,1-.706-.427c-.157-.161.135-.365.291-.2" transform="translate(-180.139 -65.883)" fill="#1e100c"/>
        <path id="Path_1002625" data-name="Path 1002625" d="M289.721,101.138a1.082,1.082,0,0,0-1.316.647c-.115.25-.5.049-.383-.2a1.5,1.5,0,0,1,1.8-.861.213.213,0,0,1-.1.413" transform="translate(-179.103 -62.604)" fill="#552b19"/>
        <path id="Path_1002626" data-name="Path 1002626" d="M280.167,104.193a1.091,1.091,0,0,0-1.446.275c-.18.21-.492-.085-.313-.293a1.508,1.508,0,0,1,1.97-.352.214.214,0,0,1-.211.371" transform="translate(-173.104 -64.428)" fill="#552b19"/>
        <path id="Path_1002627" data-name="Path 1002627" d="M286.4,105.316a2.073,2.073,0,0,0,0,1.179c.192.537.833.748,1.2,1.18.5.594.053.986-.7,1.236-.183.06-.283-.165-.1-.225,1.7-.56-.351-1.328-.648-2.018a2.193,2.193,0,0,1-.047-1.391c.039-.154.337-.115.3.039" transform="translate(-177.865 -65.409)" fill="#bd7c64"/>
        <path id="Path_1002628" data-name="Path 1002628" d="M284.62,117.115s-.044,1.459,1.191,1.41a1.417,1.417,0,0,0,1.311-1.359Z" transform="translate(-177 -72.832)" fill="#f8ffff"/>
        <path id="Path_1002629" data-name="Path 1002629" d="M278.312,114.568a.848.848,0,0,0,1.092.466.819.819,0,0,0,.478-1.067.848.848,0,0,0-1.092-.466.818.818,0,0,0-.478,1.067" transform="translate(-173.041 -70.549)" fill="#c0775d"/>
        <path id="Path_1002630" data-name="Path 1002630" d="M294.595,109.914a.867.867,0,0,0-1.192.184.822.822,0,0,0,.188,1.165.866.866,0,0,0,1.192-.185.821.821,0,0,0-.187-1.164" transform="translate(-182.361 -68.254)" fill="#c0775d"/>
        <path id="Path_1002631" data-name="Path 1002631" d="M300.957,174.984a21.054,21.054,0,1,1-21.2-20.9,21.047,21.047,0,0,1,21.2,20.9" transform="translate(-160.975 -95.824)" fill="#ffb21b"/>
        <path id="Path_1002632" data-name="Path 1002632" d="M301.66,176.754a19.982,19.982,0,1,1-20.128-19.836,19.978,19.978,0,0,1,20.128,19.836" transform="translate(-162.745 -97.584)" fill="#ffc91d"/>
        <path id="Path_1002633" data-name="Path 1002633" d="M304.4,183.748a15.747,15.747,0,1,1-15.863-15.636A15.754,15.754,0,0,1,304.4,183.748" transform="translate(-169.714 -104.546)" fill="#ffb21b"/>
        <path id="Path_1002634" data-name="Path 1002634" d="M304.831,186.593a15.087,15.087,0,1,1-15.194-14.969,15.09,15.09,0,0,1,15.194,14.969" transform="translate(-170.805 -106.729)" fill="#ffe984"/>
        <path id="Path_1002635" data-name="Path 1002635" d="M304.656,203.473l-.014-2.273a9.7,9.7,0,0,1-4.075-1l.693-2.8a8.555,8.555,0,0,0,3.977,1.025c1.368-.015,2.3-.547,2.291-1.505-.011-.9-.771-1.475-2.549-2.062-2.572-.841-4.329-2.023-4.343-4.345-.018-2.1,1.455-3.767,4.012-4.282l-.018-2.279,2.347-.015.017,2.1a8.568,8.568,0,0,1,3.47.765l-.67,2.706a8.014,8.014,0,0,0-3.461-.788c-1.547.008-2.04.687-2.04,1.359.006.788.842,1.277,2.886,2.035,2.858.984,4.012,2.293,4.03,4.442.017,2.127-1.475,3.958-4.226,4.453l.02,2.445Z" transform="translate(-186.917 -114.387)" fill="#ffb21b"/>
        <path id="Path_1002636" data-name="Path 1002636" d="M330.751,167.285a18.2,18.2,0,0,0,1.749-3.576,18.2,18.2,0,0,0,2.069,3.4,18.147,18.147,0,0,0,3.573,1.753,18.348,18.348,0,0,0-3.4,2.061,18.414,18.414,0,0,0-1.749,3.576,18.381,18.381,0,0,0-2.067-3.4,18.347,18.347,0,0,0-3.573-1.747,18.5,18.5,0,0,0,3.4-2.066" transform="translate(-203.574 -101.808)" fill="#f7f7fc"/>
        <path id="Path_1002637" data-name="Path 1002637" d="M220.863,166.735c.374-2.7-.45-5.865-3.28-6.634-1.606-.436-3.2,1.429-4.38,3.234-2.822,4.331-7.924,23.3-2.775,27.065,4.732,3.458,9.253-15.131,10.435-23.665" transform="translate(-129.489 -99.524)" fill="#e9b79c"/>
        <path id="Path_1002638" data-name="Path 1002638" d="M212.745,229.227c4.4,3.16,20.006,6.708,20.006,6.708l-1.191-3.467-15.994-10.442s-7.216,4.038-2.822,7.2" transform="translate(-131.42 -138.074)" fill="#e9b79c"/>
        <path id="Path_1002639" data-name="Path 1002639" d="M270.615,250.256a8.775,8.775,0,0,1-5.569,1.36,33.206,33.206,0,0,1-5.108-1.225c-.436-.126-.845-.192-1.243-.34l.6-3.737a5.661,5.661,0,0,0,3.618,1.117,8.494,8.494,0,0,0,1.842-.639c.419-.227,3.378-1.329,2.731-.184a2.968,2.968,0,0,1-1.478.985.385.385,0,0,0-.2.1.263.263,0,0,0,.033.324.717.717,0,0,0,.3.171,5.515,5.515,0,0,0,2.1.457c.971,0,1.779-.309,2.87-.425.262-.028.687,0,.8.312.147.417-.513,1.049-1.3,1.723" transform="translate(-160.878 -153.043)" fill="#e9b79c"/>
        <path id="Path_1002640" data-name="Path 1002640" d="M210.657,185.412s-1.331,1.929.05,2.522a1.416,1.416,0,0,0,1.946-.6,1.487,1.487,0,0,0,1.487,1.674c1.145.024,1.228-1.248,1.228-1.248a1.464,1.464,0,0,0,1.343,1.751c1.1.167,1.275-1.318,1.275-1.318s-.44,1.662,1.005,1.847,1.107-1.795,1.107-1.795.18,1.927,1.489,1.963.357-2.479.357-2.479Z" transform="translate(-130.645 -115.305)" fill="#fbfcfb"/>
        <path id="Path_1002641" data-name="Path 1002641" d="M211.254,159.294s2.5-17.433,9.722-16.251c8.166,1.337,1.99,19.437,1.99,19.437s-8.1.328-11.711-3.186" transform="translate(-131.375 -88.92)" fill="#c63846"/>
        <path id="Path_1002642" data-name="Path 1002642" d="M351.153,80.7a7.684,7.684,0,1,1-8.023-7.33,7.684,7.684,0,0,1,8.023,7.33" transform="translate(-208.823 -45.622)" fill="#e295f4"/>
        <path id="Path_1002643" data-name="Path 1002643" d="M335.75,97.2l-3.272,8.78,9.75-5.688Z" transform="translate(-206.762 -60.449)" fill="#e295f4"/>
        <path id="Path_1002644" data-name="Path 1002644" d="M353,88.159l-.024-.313a2.76,2.76,0,0,1,.746-2.08,2.644,2.644,0,0,0,.841-1.647c0-.613-.385-1.022-1.142-1.035a2.136,2.136,0,0,0-1.215.373l-.288-.758a3.155,3.155,0,0,1,1.719-.481,1.777,1.777,0,0,1,2.009,1.767,3.255,3.255,0,0,1-1.034,2.092,2.374,2.374,0,0,0-.686,1.768l.012.313Zm-.264,1.683a.711.711,0,0,1,.722-.757.752.752,0,1,1-.722.757" transform="translate(-218.85 -51.13)" fill="#fff"/>
        <path id="Path_1002645" data-name="Path 1002645" d="M285.876,49.985,270.4,33.411l2.465-2.3L286.545,45.76,300.7,37.914l13.879,3.531L332.714,30.9l1.7,2.914L315.086,45.051,301.168,41.51Z" transform="translate(-168.16 -19.218)" fill="#5969b2"/>
        <path id="Path_1002646" data-name="Path 1002646" d="M421.235,28.29l4.967,7.433,5.471-8.484Z" transform="translate(-261.959 -16.939)" fill="#5969b2"/>
        <path id="Path_1002647" data-name="Path 1002647" d="M460.483,89.7s.571-3.972-3.475-8.4c-4.344-4.755-4.45-20.639,6.487-20.7l-.171,29.2Z" transform="translate(-282.498 -37.682)" fill="#ffc91d"/>
        <path id="Path_1002648" data-name="Path 1002648" d="M479.071,89.7s-.571-3.972,3.475-8.4c4.344-4.755,4.45-20.639-6.487-20.7l.172,29.2Z" transform="translate(-296.053 -37.682)" fill="#ffc91d"/>
        <path id="Path_1002649" data-name="Path 1002649" d="M472.1,98.438l-.554-.309c2.566-4.581,3.414-15.014,1.488-18.3a1.462,1.462,0,0,0-1.211-.882,2.049,2.049,0,0,0-1.093.269,2.484,2.484,0,0,1,1.067,1.627c.29,1.348-.215,3.2-.947,3.472a.622.622,0,0,1-.691-.222,4.981,4.981,0,0,1-.634-4.382c.031-.071.065-.144.105-.217a3.305,3.305,0,0,0-.667-.02,1.181,1.181,0,0,0-.934.553c-2.269,3.267,2.123,18.016,2.168,18.164l-.607.182c-.186-.619-4.524-15.193-2.082-18.708a1.8,1.8,0,0,1,1.413-.824,3.627,3.627,0,0,1,1.136.09,2.459,2.459,0,0,1,1.764-.62,2.045,2.045,0,0,1,1.758,1.195c2.049,3.5,1.218,14.111-1.481,18.93m-1.843-18.757a2.181,2.181,0,0,0-.3.791,4.388,4.388,0,0,0,.707,3.228,3.616,3.616,0,0,0,.5-2.776,1.742,1.742,0,0,0-.909-1.243" transform="translate(-290.276 -48.702)" fill="#f0f8ff"/>
        <path id="Path_1002650" data-name="Path 1002650" d="M466.47,131.129h8.242s.706,8.03-3.626,9.193-4.582-7.4-4.616-9.193" transform="translate(-290.09 -81.547)" fill="#5969b2"/>
        <path id="Path_1002651" data-name="Path 1002651" d="M473.965,135.116H465.3a.317.317,0,0,1,0-.634h8.665a.317.317,0,0,1,0,.634" transform="translate(-289.166 -83.632)" fill="#4b5c9b"/>
        <path id="Path_1002652" data-name="Path 1002652" d="M473.965,138.47H465.3a.317.317,0,0,1,0-.634h8.665a.317.317,0,0,1,0,.634" transform="translate(-289.166 -85.718)" fill="#4b5c9b"/>
        <path id="Path_1002653" data-name="Path 1002653" d="M473.965,141.823H465.3a.317.317,0,0,1,0-.634h8.665a.317.317,0,0,1,0,.634" transform="translate(-289.166 -87.803)" fill="#4b5c9b"/>
        <path id="Path_1002654" data-name="Path 1002654" d="M474.209,145.176h-7.79a.317.317,0,1,1,0-.634h7.79a.317.317,0,0,1,0,.634" transform="translate(-289.861 -89.888)" fill="#4b5c9b"/>
        <path id="Path_1002655" data-name="Path 1002655" d="M474.607,148.53h-7a.317.317,0,0,1,0-.634h7a.317.317,0,0,1,0,.634" transform="translate(-290.6 -91.974)" fill="#4b5c9b"/>
        <path id="Path_1002656" data-name="Path 1002656" d="M474.884,151.883h-5.6a.317.317,0,0,1,0-.634h5.6a.317.317,0,0,1,0,.634" transform="translate(-291.643 -94.059)" fill="#4b5c9b"/>
      </g>
    </g>
  </g>
</svg>
