<svg xmlns="http://www.w3.org/2000/svg" width="84" height="84" viewBox="0 0 84 84">
  <g id="img18" transform="translate(-644 -3957.012)">
    <rect id="Rectangle_455462" data-name="Rectangle 455462" width="84" height="84" rx="10" transform="translate(644 3957.012)" fill="#cfde90"/>
    <g id="Group_1181825" data-name="Group 1181825" transform="translate(572.746 3849.362)">
      <path id="Path_1011277" data-name="Path 1011277" d="M126.9,1213.3h48.387v6.045a3.284,3.284,0,0,1-3.284,3.284H130.184a3.284,3.284,0,0,1-3.284-3.284V1213.3Z" transform="translate(-37.823 -1057.386)" fill="#00507b"/>
      <rect id="Rectangle_456959" data-name="Rectangle 456959" width="48.387" height="29.401" rx="2" transform="translate(89.077 127.013)" fill="#00aeef"/>
      <path id="Path_1011278" data-name="Path 1011278" d="M142.61,211.635a2.642,2.642,0,0,1-2.644-2.642V176.9h-.222a2.644,2.644,0,0,0-2.644,2.642v32.985a2.644,2.644,0,0,0,2.644,2.642h42.533a2.644,2.644,0,0,0,2.644-2.642v-.892Z" transform="translate(-47.74 -49.685)" fill="#231f20" opacity="0.1"/>
      <path id="Path_1011279" data-name="Path 1011279" d="M814.1,1550.2h10.3v7.289H814.1Z" transform="translate(-705.994 -1384.957)" fill="#00507b"/>
      <path id="Path_1011280" data-name="Path 1011280" d="M814.1,1550.2h10.3v2.418H814.1Z" transform="translate(-705.994 -1384.957)" fill="#231f20" opacity="0.1"/>
      <circle id="Ellipse_13797" data-name="Ellipse 13797" cx="9.991" cy="9.991" r="9.991" transform="translate(103.28 131.136)" fill="#f9cc5f"/>
      <circle id="Ellipse_13798" data-name="Ellipse 13798" cx="10.68" cy="10.68" r="10.68" transform="translate(101.496 132.136)" fill="#231f20" opacity="0.1"/>
      <path id="Path_1011281" data-name="Path 1011281" d="M1243.162,741.04c.108-.36.072-.69-.083-.737s-.365.208-.476.568-.069.689.083.737S1243.054,741.4,1243.162,741.04Z" transform="translate(-1122.57 -597.482)" fill="#fff" opacity="0.3"/>
      <path id="Path_1011282" data-name="Path 1011282" d="M927.288,318.5a9.963,9.963,0,0,0-2.088.219h.194a10,10,0,0,1,9.487,6.845.713.713,0,0,0-.6-.313c-.537.064-.864,1.055-.731,2.221s.678,2.057,1.216,1.994c.269-.03.485-.293.615-.7a10,10,0,0,1-7.9,9.717,9.993,9.993,0,0,0-.194-19.984Z" transform="translate(-814.017 -187.364)" fill="#fff" opacity="0.3"/>
      <path id="Path_1011283" data-name="Path 1011283" d="M651.6,373.025a9.992,9.992,0,0,1-6.205-17.825A9.993,9.993,0,1,0,656,372.005,9.922,9.922,0,0,1,651.6,373.025Z" transform="translate(-536.52 -223.048)" fill="#231f20" opacity="0.1"/>
      <g id="Group_1181824" data-name="Group 1181824" transform="translate(88 125.8)">
        <path id="Path_1011284" data-name="Path 1011284" d="M610.891,302.137a11.1,11.1,0,1,1,4.334-.875A11.1,11.1,0,0,1,610.891,302.137Zm0-20.331a9.2,9.2,0,1,0,6.5,2.694A9.2,9.2,0,0,0,610.891,281.806Z" transform="translate(-585.638 -275.675)" fill="#193252"/>
        <path id="Path_1011285" data-name="Path 1011285" d="M835.957,508.33h-5.209a.969.969,0,0,1,0-1.938h5.209a.917.917,0,0,0,0-1.833h-3.323a2.855,2.855,0,1,1,0-5.707h5.211a.969.969,0,1,1,0,1.938h-5.211a.917.917,0,1,0,0,1.83h3.323a2.855,2.855,0,0,1,0,5.71Z" transform="translate(-809.152 -488.52)" fill="#193252"/>
        <path id="Path_1011286" data-name="Path 1011286" d="M962.069,422.373a.969.969,0,0,1-.969-.969v-2.235a.969.969,0,1,1,1.938,0V421.4A.969.969,0,0,1,962.069,422.373Z" transform="translate(-936.923 -410.103)" fill="#193252"/>
        <path id="Path_1011287" data-name="Path 1011287" d="M962.069,804.957a.969.969,0,0,1-.969-.969v-1.919a.969.969,0,0,1,1.938,0v1.919A.969.969,0,0,1,962.069,804.957Z" transform="translate(-936.923 -782.401)" fill="#193252"/>
        <path id="Path_1011288" data-name="Path 1011288" d="M133.922,165.722H92.586A4.591,4.591,0,0,1,88,161.136V130.386a4.591,4.591,0,0,1,4.586-4.586h41.337a4.591,4.591,0,0,1,4.586,4.586v30.751A4.591,4.591,0,0,1,133.922,165.722ZM92.586,127.738a2.65,2.65,0,0,0-2.647,2.647v30.751a2.65,2.65,0,0,0,2.647,2.647h41.337a2.65,2.65,0,0,0,2.647-2.647V130.386a2.65,2.65,0,0,0-2.647-2.647Z" transform="translate(-88 -125.8)" fill="#193252"/>
        <path id="Path_1011289" data-name="Path 1011289" d="M161.3,1186.738h-47.13a.969.969,0,1,1,0-1.938H161.3c.534,0,.158.435.158.969S161.833,1186.738,161.3,1186.738Z" transform="translate(-112.502 -1155.476)" fill="#193252"/>
      </g>
      <circle id="Ellipse_13799" data-name="Ellipse 13799" cx="1.825" cy="1.825" r="1.825" transform="translate(111.429 158.752)" fill="#fff"/>
      <path id="Path_1011290" data-name="Path 1011290" d="M780.069,1515.093a.969.969,0,0,1-.969-.969v-7.554a.969.969,0,1,1,1.938,0v7.554A.969.969,0,0,1,780.069,1515.093Z" transform="translate(-671.963 -1341.592)" fill="#193252"/>
      <path id="Path_1011291" data-name="Path 1011291" d="M1151.869,1515.093a.969.969,0,0,1-.969-.969v-7.554a.969.969,0,1,1,1.938,0v7.554A.969.969,0,0,1,1151.869,1515.093Z" transform="translate(-1033.468 -1341.592)" fill="#193252"/>
      <path id="Path_1011292" data-name="Path 1011292" d="M610.509,1780.339h-20.84a.969.969,0,1,1,0-1.938h20.84a.969.969,0,1,1,0,1.938Z" transform="translate(-486.835 -1606.839)" fill="#193252"/>
    </g>
  </g>
</svg>
