<svg xmlns="http://www.w3.org/2000/svg" width="128" height="128" viewBox="0 0 128 128">
  <g id="img26" transform="translate(-72.746 -7992)">
    <g id="Ellipse_13628" data-name="Ellipse 13628" transform="translate(72.746 7992)" fill="#f4e9ff" stroke="#cfde90" stroke-width="6">
      <circle cx="64" cy="64" r="64" stroke="none"/>
      <circle cx="64" cy="64" r="61" fill="none"/>
    </g>
    <g id="Group_1181953" data-name="Group 1181953" transform="translate(97.119 7989.272)">
      <g id="Group_1181951" data-name="Group 1181951" transform="translate(1.161 33.225)">
        <path id="Path_1011403" data-name="Path 1011403" d="M338.5,344.955l-6.077-2.026a2.482,2.482,0,0,1-1.7-2.354V336.16h-6.558v4.415c0,1.068-1.57,2.017-2.583,2.354l-6.077,2.026a4.963,4.963,0,0,0-3.394,4.709v3.868h29.78v-3.868A4.963,4.963,0,0,0,338.5,344.955Z" transform="translate(-264.961 -290.249)" fill="#fbbd80"/>
        <path id="Path_1011404" data-name="Path 1011404" d="M382.438,340.575V336.16h-7.445v4.415a2.482,2.482,0,0,1-1.7,2.354l1.178,3.531a6.172,6.172,0,0,0,3.458-2.889,2.322,2.322,0,0,1,1.806-1.25,10.972,10.972,0,0,0,2.958-.709A2.438,2.438,0,0,1,382.438,340.575Z" transform="translate(-316.673 -290.249)" fill="#f4aa73"/>
        <path id="Path_1011405" data-name="Path 1011405" d="M338.5,384.1l-4.879-1.626-5.241,3.494a2.482,2.482,0,0,1-2.753,0l-5.241-3.494-4.879,1.626a4.963,4.963,0,0,0-3.394,4.708v3.868l12.408,3.722h17.372v-7.59A4.963,4.963,0,0,0,338.5,384.1Z" transform="translate(-264.962 -329.396)" fill="#b8b2b8"/>
        <path id="Path_1011406" data-name="Path 1011406" d="M322.368,384.431a4.9,4.9,0,0,0,.583-.243l-2.567-1.711-4.879,1.626a4.963,4.963,0,0,0-3.394,4.709v3.868a3.712,3.712,0,0,0,2.482,3.495v-7.362a2.478,2.478,0,0,1,1.7-2.354Z" transform="translate(-264.96 -329.396)" fill="#4e3d4d"/>
        <path id="Path_1011407" data-name="Path 1011407" d="M363.361,231.951H358.4a6.2,6.2,0,0,0-6.2,6.2v.727a4.236,4.236,0,0,0,1.241,3h14.89a4.236,4.236,0,0,0,1.241-3v-.727A6.2,6.2,0,0,0,363.361,231.951Z" transform="translate(-298.837 -202.171)" fill="#d48c64"/>
        <path id="Path_1011408" data-name="Path 1011408" d="M357.156,232.759a6.206,6.206,0,0,0-4.963,6.079v.727a4.236,4.236,0,0,0,1.241,3h3.722v-9.8Z" transform="translate(-298.837 -202.854)" fill="#c6805d"/>
        <path id="Path_1011409" data-name="Path 1011409" d="M360.762,275.545l2.16-1.44a2.482,2.482,0,0,1,2.161-.289l10.016,3.339V278.4a7.445,7.445,0,0,1-14.89,0v-1.818A1.242,1.242,0,0,1,360.762,275.545Z" transform="translate(-305.612 -237.448)" fill="#ffd18d"/>
        <path id="Path_1011410" data-name="Path 1011410" d="M363.932,278.567v-4.676a2.476,2.476,0,0,0-1.01.385l-2.16,1.44a1.241,1.241,0,0,0-.553,1.032v1.818a7.419,7.419,0,0,0,9.306,7.2,7.442,7.442,0,0,1-5.584-7.2Z" transform="translate(-305.613 -237.619)" fill="#fbbd80"/>
        <path id="Path_1011411" data-name="Path 1011411" d="M33.886,344.955l-6.077-2.026c-1.013-.338-2.221-1.286-2.221-2.354l.524-4.415H18.668v4.415a2.482,2.482,0,0,1-1.7,2.354l-6.077,2.026A4.963,4.963,0,0,0,7.5,349.664v3.868l29.78-.014v-3.854A4.963,4.963,0,0,0,33.886,344.955Z" transform="translate(-7.5 -290.249)" fill="#af6e4d"/>
        <path id="Path_1011412" data-name="Path 1011412" d="M77.825,340.575V336.16H70.38v4.415a2.482,2.482,0,0,1-1.7,2.354l1.178,3.531a6.172,6.172,0,0,0,3.458-2.889,2.322,2.322,0,0,1,1.806-1.25,10.972,10.972,0,0,0,2.958-.709A2.438,2.438,0,0,1,77.825,340.575Z" transform="translate(-59.212 -290.249)" fill="#845252"/>
        <path id="Path_1011413" data-name="Path 1011413" d="M33.886,384.1l-4.879-1.626-5.241,3.494a2.482,2.482,0,0,1-2.753,0l-5.241-3.494L10.894,384.1A4.963,4.963,0,0,0,7.5,388.811l3.722,7.59H24.872l12.408-7.59A4.963,4.963,0,0,0,33.886,384.1Z" transform="translate(-7.5 -329.396)" fill="#887f88"/>
        <path id="Path_1011414" data-name="Path 1011414" d="M58.748,231.951H53.784a6.2,6.2,0,0,0-6.2,6.2v.727a4.236,4.236,0,0,0,1.241,3h14.89a4.236,4.236,0,0,0,1.241-3v-.727A6.2,6.2,0,0,0,58.748,231.951Z" transform="translate(-41.376 -202.171)" fill="#615260"/>
        <path id="Path_1011415" data-name="Path 1011415" d="M52.543,232.759a6.206,6.206,0,0,0-4.963,6.079v.727a4.236,4.236,0,0,0,1.241,3h3.722v-9.8Z" transform="translate(-41.376 -202.854)" fill="#4e3d4d"/>
        <path id="Path_1011416" data-name="Path 1011416" d="M56.149,275.545l2.16-1.44a2.482,2.482,0,0,1,2.161-.289l10.016,3.339V278.4a7.445,7.445,0,0,1-14.89,0v-1.818A1.242,1.242,0,0,1,56.149,275.545Z" transform="translate(-48.151 -237.448)" fill="#c6805d"/>
        <path id="Path_1011417" data-name="Path 1011417" d="M59.319,278.567v-4.676a2.476,2.476,0,0,0-1.01.385l-2.16,1.44a1.241,1.241,0,0,0-.553,1.032v1.818a7.419,7.419,0,0,0,9.306,7.2,7.442,7.442,0,0,1-5.584-7.2Z" transform="translate(-48.152 -237.619)" fill="#af6e4d"/>
        <path id="Path_1011418" data-name="Path 1011418" d="M158.52,293.806l-8.951-2.984a3.722,3.722,0,0,1-2.545-3.532v-7.244H134.615v7.244a3.723,3.723,0,0,1-2.545,3.532l-8.951,2.984a4.964,4.964,0,0,0-3.394,4.709v7.59a3.722,3.722,0,0,0,3.722,3.722h34.744a3.722,3.722,0,0,0,3.722-3.722v-7.59A4.963,4.963,0,0,0,158.52,293.806Z" transform="translate(-102.353 -242.822)" fill="#e29a6c"/>
        <path id="Path_1011419" data-name="Path 1011419" d="M202.021,280.048v7.244a3.723,3.723,0,0,1-2.545,3.531l1.176,3.531a7.457,7.457,0,0,0,4.816-5.035,2.53,2.53,0,0,1,2.515-1.828,15.824,15.824,0,0,0,6.447-1.266v-6.177H202.021Z" transform="translate(-169.76 -242.823)" fill="#d48c64"/>
        <path id="Path_1011420" data-name="Path 1011420" d="M209.441,345.79l-6.781,6.558a1.241,1.241,0,0,1-1.725,0l-6.781-6.558-2.284,7.2,6.2,12.408h7.445l6.2-12.408Z" transform="translate(-163.332 -298.388)" fill="#eceaec"/>
        <path id="Path_1011421" data-name="Path 1011421" d="M200.1,348.972l.687-.229a6.168,6.168,0,0,0,2.107-1.227l-1.785-1.726Z" transform="translate(-170.286 -298.388)" fill="#dbd8db"/>
        <path id="Path_1011422" data-name="Path 1011422" d="M133.177,345.79a3.709,3.709,0,0,1-1.106.6l-8.951,2.984a4.963,4.963,0,0,0-3.394,4.709l3.722,11.313h8.686Z" transform="translate(-102.354 -298.388)" fill="#615260"/>
        <path id="Path_1011423" data-name="Path 1011423" d="M123.449,354.083a1.241,1.241,0,0,1,.85-1.178l8.948-2.984a6.842,6.842,0,0,0,.7-.3l-.767-3.835a3.711,3.711,0,0,1-1.106.6l-8.951,2.984a4.963,4.963,0,0,0-3.394,4.709v11.313h3.722V354.083Z" transform="translate(-102.355 -298.388)" fill="#4e3d4d"/>
        <circle id="Ellipse_13806" data-name="Ellipse 13806" cx="8.686" cy="8.686" r="8.686" transform="translate(29.78 0)" fill="#845252"/>
        <path id="Path_1011424" data-name="Path 1011424" d="M166.11,112.478h-9.927a12.408,12.408,0,0,1,0-24.817h9.927a12.408,12.408,0,0,1,0,24.817Z" transform="translate(-122.681 -80.216)" fill="#70393c"/>
        <path id="Path_1011425" data-name="Path 1011425" d="M188.247,175.366a12.408,12.408,0,0,1-12.408-12.408v-2.482a8.686,8.686,0,0,1,8.686-8.686h16.131v11.168A12.409,12.409,0,0,1,188.247,175.366Z" transform="translate(-149.781 -134.418)" fill="#f4aa73"/>
        <path id="Path_1011426" data-name="Path 1011426" d="M180.8,162.958v-3.722a7.445,7.445,0,0,1,7.445-7.445h-3.722a8.686,8.686,0,0,0-8.686,8.686v2.482a12.415,12.415,0,0,0,14.89,12.159A12.412,12.412,0,0,1,180.8,162.958Z" transform="translate(-149.781 -134.418)" fill="#e29a6c"/>
        <path id="Path_1011427" data-name="Path 1011427" d="M211.334,100.069a12.408,12.408,0,0,0-12.408-12.408H189a12.33,12.33,0,0,0-6.4,1.792c2,4.6,7.389,12.959,20.439,14.187a3.7,3.7,0,0,1,3.331,3.7v2.643a12.377,12.377,0,0,0,4.963-9.91Z" transform="translate(-155.497 -80.216)" fill="#7a4646"/>
        <path id="Path_1011428" data-name="Path 1011428" d="M168.674,345.79a3.708,3.708,0,0,1-1.106.6l-3.366,1.122-2.209,4.36a2.481,2.481,0,0,0-.006,2.231l5.646,11.291h4.963Z" transform="translate(-137.851 -298.388)" fill="#736572"/>
        <path id="Path_1011429" data-name="Path 1011429" d="M305.377,345.79a3.708,3.708,0,0,0,1.106.6l8.951,2.984a4.964,4.964,0,0,1,3.394,4.709v11.313H306.42Z" transform="translate(-259.268 -298.388)" fill="#615260"/>
        <g id="Group_1181950" data-name="Group 1181950" transform="translate(0 47.402)">
          <path id="Path_1011430" data-name="Path 1011430" d="M283.968,345.79a3.708,3.708,0,0,0,1.106.6l3.366,1.122,2.209,4.36a2.481,2.481,0,0,1,.006,2.231l-5.646,11.291h-4.963Z" transform="translate(-237.859 -345.79)" fill="#736572"/>
          <path id="Path_1011431" data-name="Path 1011431" d="M11.222,388.81a1.237,1.237,0,0,1,.85-1.177l6.077-2.026a6.167,6.167,0,0,0,.731-.3l.658-.318-3.765-2.51L10.894,384.1A4.964,4.964,0,0,0,7.5,388.81v7.59h3.722Z" transform="translate(-7.5 -376.796)" fill="#736572"/>
        </g>
      </g>
      <g id="Group_1181952" data-name="Group 1181952" transform="translate(0 32.064)">
        <path id="Path_1011432" data-name="Path 1011432" d="M152.549,83.108,143.6,80.124a2.558,2.558,0,0,1-1.751-2.43V73.156a13.591,13.591,0,0,0,6.068-9.475,13.57,13.57,0,0,0-3.709-23.308,9.846,9.846,0,0,0-19.45,0,13.57,13.57,0,0,0-3.709,23.308,13.591,13.591,0,0,0,6.068,9.475v4.538a2.558,2.558,0,0,1-1.751,2.43l-8.951,2.984a6.116,6.116,0,0,0-4.188,5.81V100.23a1.161,1.161,0,0,0,2.322,0V88.917a3.8,3.8,0,0,1,2.6-3.607l2.881-.96-.921,1.843a3.66,3.66,0,0,0,0,3.258l5.649,11.3a1.161,1.161,0,1,0,2.077-1.038l-5.649-11.3a1.328,1.328,0,0,1,0-1.181l1.957-3.919L126,82.359l3.62,18.1A1.161,1.161,0,0,0,131.9,100l-3.206-16.03,5,4.7a1.161,1.161,0,0,0,1.59,0l5-4.7L137.065,100a1.161,1.161,0,1,0,2.277.455l3.62-18.1,2.858.953,1.958,3.919a1.328,1.328,0,0,1,0,1.181l-5.649,11.3a1.161,1.161,0,1,0,2.077,1.038l5.649-11.3a3.66,3.66,0,0,0,0-3.258l-.921-1.843,2.881.96a3.8,3.8,0,0,1,2.6,3.607V100.23a1.161,1.161,0,0,0,2.322,0V88.917A6.117,6.117,0,0,0,152.549,83.108ZM134.481,34.386a7.566,7.566,0,0,1,7.19,5.307,13.6,13.6,0,0,0-2.227-.184h-9.927a13.593,13.593,0,0,0-2.227.184A7.566,7.566,0,0,1,134.481,34.386ZM123.234,61.764V59.07a7.265,7.265,0,0,1,2.142-5.17,1.161,1.161,0,0,0-1.642-1.642,9.571,9.571,0,0,0-2.822,6.812v1.258a11.245,11.245,0,0,1,1.618-16.052,23.837,23.837,0,0,0,15.756,12.611,1.161,1.161,0,0,0,.6-2.242A22.35,22.35,0,0,1,127.46,47.59a18.927,18.927,0,0,1-2.949-4.579,11.175,11.175,0,0,1,5.007-1.18h9.927a11.26,11.26,0,0,1,11.247,11.248,11.148,11.148,0,0,1-2.642,7.249,4.842,4.842,0,0,0-4.39-4.837,1.161,1.161,0,0,0-.219,2.312,2.561,2.561,0,0,1,2.287,2.541v1.421a11.247,11.247,0,1,1-22.495,0Zm11.247,24.464-6-5.637a4.875,4.875,0,0,0,.953-2.9V74.361a13.564,13.564,0,0,0,10.087,0v3.333a4.875,4.875,0,0,0,.953,2.9Z" transform="translate(-94.854 -32.064)"/>
        <path id="Path_1011433" data-name="Path 1011433" d="M13.489,246.158V245a8.608,8.608,0,0,0,11.168-8.217v-.794a5.356,5.356,0,0,0,1.241-3.443v-.727a7.374,7.374,0,0,0-7.365-7.365H13.569A7.373,7.373,0,0,0,6.2,231.816v.727a5.355,5.355,0,0,0,1.241,3.443v.794a8.6,8.6,0,0,0,3.722,7.081v2.3a1.319,1.319,0,0,1-.9,1.253l-6.077,2.026A6.117,6.117,0,0,0,0,255.247v7.59a1.161,1.161,0,1,0,2.322,0v-7.59a3.8,3.8,0,0,1,2.6-3.607l4.34-1.447,3.664,2.442a1.161,1.161,0,0,0,1.288-1.932l-2.311-1.54A3.635,3.635,0,0,0,13.489,246.158ZM8.526,231.816a5.049,5.049,0,0,1,5.043-5.043h4.963a5.049,5.049,0,0,1,5.043,5.043v.727a3.052,3.052,0,0,1-.476,1.64l-10.4-3.468a1.161,1.161,0,0,0-1.011.135l-3.131,2.087a3.109,3.109,0,0,1-.028-.394v-.727Zm1.241,4.963v-1.86L12.5,233.1l9.835,3.278v.4a6.284,6.284,0,0,1-12.568,0Z" transform="translate(0 -194.671)"/>
        <path id="Path_1011434" data-name="Path 1011434" d="M41.242,432.87a1.161,1.161,0,0,0-1.161,1.161v4.963a1.161,1.161,0,1,0,2.322,0v-4.963A1.161,1.161,0,0,0,41.242,432.87Z" transform="translate(-33.877 -370.828)"/>
        <path id="Path_1011435" data-name="Path 1011435" d="M366.4,249.437l-6.077-2.026a1.319,1.319,0,0,1-.9-1.253v-2.3a8.6,8.6,0,0,0,3.722-7.081v-.794a5.356,5.356,0,0,0,1.241-3.443v-.727a7.374,7.374,0,0,0-7.365-7.365h-4.963a7.373,7.373,0,0,0-7.365,7.365v.727a5.355,5.355,0,0,0,1.241,3.443v.794A8.608,8.608,0,0,0,357.1,245v1.162a3.636,3.636,0,0,0,1.587,3l-2.311,1.54a1.161,1.161,0,1,0,1.288,1.932l3.664-2.442,4.34,1.447a3.8,3.8,0,0,1,2.6,3.607v7.59a1.161,1.161,0,0,0,2.322,0v-7.59A6.117,6.117,0,0,0,366.4,249.437Zm-19.388-17.621a5.049,5.049,0,0,1,5.043-5.043h4.963a5.049,5.049,0,0,1,5.043,5.043v.727a3.052,3.052,0,0,1-.476,1.64l-10.4-3.468a1.161,1.161,0,0,0-1.011.135l-3.131,2.087a3.112,3.112,0,0,1-.028-.394Zm1.241,4.963v-1.86l2.733-1.822,9.835,3.278v.4a6.284,6.284,0,0,1-12.568,0Z" transform="translate(-291.337 -194.671)"/>
        <path id="Path_1011436" data-name="Path 1011436" d="M458.08,432.87a1.161,1.161,0,0,0-1.161,1.161v4.963a1.161,1.161,0,1,0,2.322,0v-4.963A1.161,1.161,0,0,0,458.08,432.87Z" transform="translate(-386.191 -370.828)"/>
      </g>
    </g>
  </g>
</svg>
