<svg xmlns="http://www.w3.org/2000/svg" width="96" height="96" viewBox="0 0 96 96">
  <g id="img27" transform="translate(-794.039 -2920.081)">
    <path id="Elipse_5729" data-name="Elipse 5729" d="M48,0A48,48,0,1,1,0,48,48,48,0,0,1,48,0Z" transform="translate(794.039 2920.081)" fill="#fdd1aa"/>
    <path id="Path_1010467" data-name="Path 1010467" d="M69.309,22.488V36.4a.817.817,0,0,1-.03.22c-3.16,11.227-10.917,18.8-23.716,23.16a.811.811,0,0,1-.523,0c-12.8-4.357-20.557-11.933-23.716-23.16a.812.812,0,0,1-.03-.22V10.189a.811.811,0,0,1,.521-.758L45.011.554a.811.811,0,0,1,.58,0L57.674,5.178a.811.811,0,1,1-.58,1.515L45.3,2.18,22.916,10.747V36.288c3,10.539,10.327,17.7,22.386,21.867C57.36,53.984,64.685,46.827,67.687,36.288v-13.8a.811.811,0,1,1,1.623,0ZM45.3,6.525l10.253,3.922a.811.811,0,1,0,.58-1.515L45.591,4.9a.811.811,0,0,0-.58,0L25.874,12.223a.811.811,0,0,0-.521.758V35.823a.812.812,0,0,0,.034.233,26.832,26.832,0,0,0,7.408,12.191A35.248,35.248,0,0,0,45.02,55.468a.81.81,0,0,0,.563,0,35.253,35.253,0,0,0,12.226-7.222,26.845,26.845,0,0,0,7.411-12.19.808.808,0,0,0,.034-.233V22.492a.811.811,0,1,0-1.623,0V35.7C61,44.354,55.169,50.126,45.3,53.841,35.432,50.125,29.6,44.354,26.975,35.7V13.538Zm9.051,14.013A6.789,6.789,0,0,1,57.4,23.4a.811.811,0,1,1-1.41.8,5.248,5.248,0,0,0-3.864-2.652,2.574,2.574,0,0,1-.386.633,16.723,16.723,0,0,1,6.63,12.634,13.348,13.348,0,1,1-26.695,0A16.723,16.723,0,0,1,38.3,22.181a2.565,2.565,0,0,1,1.975-4.2h.588l-2.429-5.612a.811.811,0,0,1,.745-1.134H50.868a.811.811,0,0,1,.744,1.134l-2.432,5.612h.587a2.569,2.569,0,0,1,2.359,1.559,5.218,5.218,0,0,0,3.836-2.649.811.811,0,1,1,1.41.8,6.787,6.787,0,0,1-3.021,2.847ZM42.635,17.979h4.777l2.22-5.123H40.418Zm-3.3,2.565a.945.945,0,0,0,.943.946h9.488a.944.944,0,0,0,.94-.888.814.814,0,0,1-.026-.235c0-.013,0-.025,0-.038a.944.944,0,0,0-.917-.727H40.28a.943.943,0,0,0-.943.942ZM50.2,23.074a2.571,2.571,0,0,1-.437.038H40.28a2.558,2.558,0,0,1-.437-.038A15.034,15.034,0,0,0,33.3,34.814a11.725,11.725,0,1,0,23.45,0A15.036,15.036,0,0,0,50.2,23.074Zm2.2,11.753a7.385,7.385,0,1,1-7.383-7.383A7.391,7.391,0,0,1,52.408,34.827Zm-1.623,0a5.762,5.762,0,1,0-5.76,5.76A5.767,5.767,0,0,0,50.786,34.827Zm25-22.98A9.327,9.327,0,1,1,66.462,2.52,9.338,9.338,0,0,1,75.789,11.847Zm-1.623,0a7.7,7.7,0,1,0-7.7,7.7,7.714,7.714,0,0,0,7.7-7.7ZM70.9,7.069a.811.811,0,0,0-1.14.126l-5.331,6.657-1.988-2.207a.811.811,0,0,0-1.206,1.086l2.627,2.917a.811.811,0,0,0,.6.268h.024a.811.811,0,0,0,.61-.3l5.928-7.4A.811.811,0,0,0,70.9,7.069Zm-25.06,25.4V34.05a2.367,2.367,0,0,1,0,4.725v.533a.811.811,0,1,1-1.623,0v-.5A2.195,2.195,0,0,1,42,36.716a.811.811,0,1,1,1.623,0c0,.206.24.43.591.463V35.558a3.512,3.512,0,0,1-.94-.275A2.138,2.138,0,0,1,42,33.241a2.488,2.488,0,0,1,2.214-2.364v-.53a.811.811,0,1,1,1.623,0v.5a2.2,2.2,0,0,1,2.214,2.091.811.811,0,0,1-1.623,0C46.428,32.733,46.18,32.505,45.837,32.471ZM44.214,33.9V32.544a.805.805,0,0,0-.591.7c0,.214,0,.5.591.661Zm1.623,1.814v1.391a.7.7,0,0,0,0-1.391Z" transform="translate(793.498 2937.918)" fill="#643d2b"/>
  </g>
</svg>
