<svg xmlns="http://www.w3.org/2000/svg" width="128" height="128" viewBox="0 0 128 128">
  <g id="img24" transform="translate(-72.746 -7992)">
    <g id="Ellipse_13628" data-name="Ellipse 13628" transform="translate(72.746 7992)" fill="#f4e9ff" stroke="#cfde90" stroke-width="6">
      <circle cx="64" cy="64" r="64" stroke="none"/>
      <circle cx="64" cy="64" r="61" fill="none"/>
    </g>
    <g id="Layer_73" transform="translate(89.77 8017.334)">
      <g id="Group_1181946" data-name="Group 1181946" transform="translate(16.196 0)">
        <g id="Group_1181834" data-name="Group 1181834" transform="translate(17.294 37.142)">
          <g id="Group_1181833" data-name="Group 1181833">
            <path id="Path_1011339" data-name="Path 1011339" d="M88.891,134.916a10.163,10.163,0,0,1-9.44,0v1.667a3.532,3.532,0,0,1-.437,1.7l4,4.2a.58.58,0,0,1,.158.433c.281.023.565.039.852.039a10.122,10.122,0,0,0,1.147-.072h0a.582.582,0,0,1,.161-.4l4-4.2a3.533,3.533,0,0,1-.437-1.7v-1.667Z" transform="translate(-79.014 -134.916)" fill="#f9d0b4"/>
          </g>
        </g>
        <g id="Group_1181836" data-name="Group 1181836" transform="translate(12.206 15.225)">
          <g id="Group_1181835" data-name="Group 1181835">
            <path id="Path_1011340" data-name="Path 1011340" d="M79.56,55.884a1.877,1.877,0,0,0-2.523-.168,10.289,10.289,0,0,1-12.518-.007A1.876,1.876,0,0,0,62,55.881l0,0a5.3,5.3,0,0,0-1.464,3.656v8.6a10.245,10.245,0,0,0,20.491,0v-8.6a5.3,5.3,0,0,0-1.464-3.656Z" transform="translate(-60.533 -55.304)" fill="#f9d0b4"/>
          </g>
        </g>
        <g id="Group_1181838" data-name="Group 1181838" transform="translate(32.671 20.251)">
          <g id="Group_1181837" data-name="Group 1181837">
            <path id="Path_1011341" data-name="Path 1011341" d="M135.552,73.561a4.311,4.311,0,0,0-.657.052v7.756c0,.231-.01.46-.026.687a4.275,4.275,0,1,0,.683-8.5Z" transform="translate(-134.869 -73.561)" fill="#f9d0b4"/>
          </g>
        </g>
        <g id="Group_1181840" data-name="Group 1181840" transform="translate(7.271 20.251)">
          <g id="Group_1181839" data-name="Group 1181839">
            <path id="Path_1011342" data-name="Path 1011342" d="M47.542,81.369V73.613a4.279,4.279,0,1,0,.026,8.443h0C47.552,81.829,47.542,81.6,47.542,81.369Z" transform="translate(-42.607 -73.561)" fill="#f9d0b4"/>
          </g>
        </g>
        <g id="Group_1181842" data-name="Group 1181842" transform="translate(9.395 4.848)">
          <g id="Group_1181841" data-name="Group 1181841">
            <path id="Path_1011343" data-name="Path 1011343" d="M73.586,24.275a.634.634,0,0,1-.645-.608c-.078-5.709-6.6-6.781-13.09-5.66a11.479,11.479,0,0,0-9.528,11.31V33.6a4.234,4.234,0,0,1,2.811-.534v-.842A5.3,5.3,0,0,1,54.6,28.568l0,0a1.876,1.876,0,0,1,2.519-.171,10.289,10.289,0,0,0,12.518.007,1.877,1.877,0,0,1,2.523.168,5.3,5.3,0,0,1,1.463,3.656v.842a4.232,4.232,0,0,1,2.833.548V30.1c0-5.112-1.845-5.822-2.871-5.822Z" transform="translate(-50.323 -17.611)" fill="#5b5d60"/>
          </g>
        </g>
        <g id="Group_1181844" data-name="Group 1181844" transform="translate(11.518 14.535)">
          <g id="Group_1181843" data-name="Group 1181843">
            <path id="Path_1011344" data-name="Path 1011344" d="M68.967,77.256A10.946,10.946,0,0,1,58.033,66.322v-8.6a5.96,5.96,0,0,1,1.654-4.131,2.559,2.559,0,0,1,3.444-.242,9.6,9.6,0,0,0,11.669.007,2.56,2.56,0,0,1,3.446.235h0A5.961,5.961,0,0,1,79.9,57.724v8.6A10.946,10.946,0,0,1,68.967,77.256Zm-7.43-23.08a1.17,1.17,0,0,0-.85.364,4.591,4.591,0,0,0-1.277,3.184v8.6a9.557,9.557,0,1,0,19.114,0v-8.6a4.59,4.59,0,0,0-1.273-3.181h0a1.188,1.188,0,0,0-1.6-.1,10.978,10.978,0,0,1-13.368-.006A1.209,1.209,0,0,0,61.536,54.176Z" transform="translate(-58.033 -52.798)"/>
          </g>
        </g>
        <g id="Group_1181846" data-name="Group 1181846" transform="translate(32.233 19.563)">
          <g id="Group_1181845" data-name="Group 1181845">
            <path id="Path_1011345" data-name="Path 1011345" d="M134.4,80.991a4.535,4.535,0,0,1-.5-.029.688.688,0,0,1,.15-1.369,3.175,3.175,0,0,0,.35.02,3.589,3.589,0,1,0,0-7.178,3.527,3.527,0,0,0-.361.019.688.688,0,1,1-.142-1.369,4.883,4.883,0,0,1,.5-.027,4.966,4.966,0,0,1,0,9.932Z" transform="translate(-133.28 -71.059)"/>
          </g>
        </g>
        <g id="Group_1181848" data-name="Group 1181848" transform="translate(6.583 19.563)">
          <g id="Group_1181847" data-name="Group 1181847">
            <path id="Path_1011346" data-name="Path 1011346" d="M45.074,80.992a4.966,4.966,0,0,1,0-9.931,4.756,4.756,0,0,1,.5.026.688.688,0,1,1-.142,1.369,3.489,3.489,0,0,0-.357-.018,3.589,3.589,0,0,0,0,7.178,3.187,3.187,0,0,0,.381-.024.688.688,0,0,1,.162,1.367,4.573,4.573,0,0,1-.543.034Z" transform="translate(-40.108 -71.061)"/>
          </g>
        </g>
        <g id="Group_1181852" data-name="Group 1181852" transform="translate(25.846 23.625)">
          <g id="Group_1181851" data-name="Group 1181851">
            <circle id="Ellipse_13800" data-name="Ellipse 13800" cx="1.377" cy="1.377" r="1.377"/>
          </g>
        </g>
        <g id="Group_1181854" data-name="Group 1181854" transform="translate(16.601 23.625)">
          <g id="Group_1181853" data-name="Group 1181853">
            <circle id="Ellipse_13801" data-name="Ellipse 13801" cx="1.377" cy="1.377" r="1.377"/>
          </g>
        </g>
        <g id="Group_1181856" data-name="Group 1181856" transform="translate(8.707 4.163)">
          <g id="Group_1181855" data-name="Group 1181855">
            <path id="Path_1011348" data-name="Path 1011348" d="M48.512,32.312a.688.688,0,0,1-.688-.688V27.512a12.142,12.142,0,0,1,10.1-11.988c5.151-.888,9.44-.291,11.767,1.641a5.9,5.9,0,0,1,2.128,4.617c1.334.018,3.518.9,3.518,6.51v3.257a.688.688,0,0,1-1.377,0V28.292c0-3.263-.8-5.134-2.183-5.134a1.324,1.324,0,0,1-1.334-1.287,4.594,4.594,0,0,0-1.632-3.648c-2.017-1.674-5.9-2.164-10.653-1.343A10.768,10.768,0,0,0,49.2,27.512v4.112a.688.688,0,0,1-.688.688Z" transform="translate(-47.824 -15.122)"/>
          </g>
        </g>
        <g id="Group_1181858" data-name="Group 1181858" transform="translate(0.688 41.343)">
          <g id="Group_1181857" data-name="Group 1181857">
            <path id="Path_1011349" data-name="Path 1011349" d="M18.7,177.035l1.334-18.7a4.872,4.872,0,0,1,2.953-4.15l9.271-3.945a.85.85,0,0,1,1.159.579l7.042,27.8H20.175A1.478,1.478,0,0,1,18.7,177.035Z" transform="translate(-18.696 -150.173)" fill="#754e34"/>
          </g>
        </g>
        <g id="Group_1181860" data-name="Group 1181860" transform="translate(22.451 41.343)">
          <g id="Group_1181859" data-name="Group 1181859">
            <path id="Path_1011350" data-name="Path 1011350" d="M118.531,163.36h-1.108a.706.706,0,0,1-.706-.706v-1.646a.687.687,0,0,0-.506-.664,9.724,9.724,0,0,1-2.3-.955.687.687,0,0,0-.828.111l-1.165,1.165a.706.706,0,0,1-1,0l-1.91-1.91a.706.706,0,0,1,0-1l1.165-1.165a.687.687,0,0,0,.111-.828,9.716,9.716,0,0,1-.955-2.3.687.687,0,0,0-.664-.506h-1.645a.706.706,0,0,1-.706-.706V150.4l-.366-.156a.85.85,0,0,0-1.159.579l-7.042,27.8h20.284a1.478,1.478,0,0,0,1.475-1.584Z" transform="translate(-97.748 -150.175)" fill="#754e34"/>
          </g>
        </g>
        <g id="Group_1181862" data-name="Group 1181862" transform="translate(36.641 50.469)">
          <g id="Group_1181861" data-name="Group 1181861">
            <path id="Path_1011351" data-name="Path 1011351" d="M155.885,187.383h-1.108a.706.706,0,0,1-.706-.706v-1.646a.687.687,0,0,0-.506-.664,9.724,9.724,0,0,1-2.3-.955.68.68,0,0,0-.367-.088,7.121,7.121,0,0,0-1.605,4.5v14.819h6.094a1.478,1.478,0,0,0,1.475-1.584Z" transform="translate(-149.292 -183.324)" fill="#9b6b4b"/>
          </g>
        </g>
        <g id="Group_1181864" data-name="Group 1181864" transform="translate(0.688 46.934)">
          <g id="Group_1181863" data-name="Group 1181863">
            <path id="Path_1011352" data-name="Path 1011352" d="M26.269,178.52a7.121,7.121,0,0,0-2.253-5.2l-3.03-2.838a4.865,4.865,0,0,0-.952,2.571l-1.334,18.7a1.478,1.478,0,0,0,1.475,1.584h6.094Z" transform="translate(-18.696 -170.484)" fill="#9b6b4b"/>
          </g>
        </g>
        <g id="Group_1181866" data-name="Group 1181866" transform="translate(12.265 41.343)">
          <g id="Group_1181865" data-name="Group 1181865">
            <path id="Path_1011353" data-name="Path 1011353" d="M63.892,150.821a.85.85,0,0,0-1.159-.579l-1.985.845v11.161a.508.508,0,0,0,.394.495l2.593.6a.508.508,0,0,1,.353.7l-1.176,2.743a1.346,1.346,0,0,0,.017,1.1l5,10.742h3.009Z" transform="translate(-60.748 -150.174)" fill="#9b6b4b"/>
          </g>
        </g>
        <g id="Group_1181868" data-name="Group 1181868" transform="translate(22.451 41.343)">
          <g id="Group_1181867" data-name="Group 1181867">
            <path id="Path_1011354" data-name="Path 1011354" d="M107.021,152.957a.706.706,0,0,1-.706-.706V150.4l-.366-.156a.85.85,0,0,0-1.159.579l-7.042,27.8h3.009l5-10.742a1.345,1.345,0,0,0,.017-1.1l-1.176-2.743a.508.508,0,0,1,.353-.695l2.593-.6a.508.508,0,0,0,.394-.495v-9.291Z" transform="translate(-97.748 -150.175)" fill="#9b6b4b"/>
          </g>
        </g>
        <g id="Group_1181870" data-name="Group 1181870" transform="translate(14.881 40.014)">
          <g id="Group_1181869" data-name="Group 1181869">
            <path id="Path_1011355" data-name="Path 1011355" d="M70.777,147.324l.973,3.84,1.726,2.09a.627.627,0,0,0,.945.026l2.246-2.433a.584.584,0,0,0-.006-.8l-4.319-4.54a.516.516,0,0,0-.721-.025l-1.372,1.253a.842.842,0,0,1,.528.588Z" transform="translate(-70.249 -145.348)" fill="#edf4fc"/>
          </g>
        </g>
        <g id="Group_1181872" data-name="Group 1181872" transform="translate(23.449 40.015)">
          <g id="Group_1181871" data-name="Group 1181871">
            <path id="Path_1011356" data-name="Path 1011356" d="M103.773,153.28a.627.627,0,0,0,.945-.026l1.726-2.09.973-3.84a.843.843,0,0,1,.528-.588l-1.372-1.253a.516.516,0,0,0-.721.025l-4.319,4.54a.584.584,0,0,0-.006.8Z" transform="translate(-101.372 -145.349)" fill="#edf4fc"/>
          </g>
        </g>
        <g id="Group_1181875" data-name="Group 1181875" transform="translate(16.382 45.83)">
          <g id="Group_1181874" data-name="Group 1181874" transform="translate(0)">
            <g id="Group_1181873" data-name="Group 1181873">
              <path id="Path_1011357" data-name="Path 1011357" d="M86.114,168.562a.627.627,0,0,1-.945.026l-1.2-1.3a2.675,2.675,0,0,1-4.389,0l-1.2,1.3a.627.627,0,0,1-.945-.026l-1.726-2.09,6.069,23.959,6.069-23.959Z" transform="translate(-75.702 -166.472)" fill="#dae6f1"/>
            </g>
          </g>
        </g>
        <g id="Group_1181877" data-name="Group 1181877" transform="translate(19.805 47.4)">
          <g id="Group_1181876" data-name="Group 1181876" transform="translate(0)">
            <path id="Path_1011358" data-name="Path 1011358" d="M90.747,194.426l.105-.14,2.576-10.168-1.264-11.943a2.662,2.662,0,0,1-2.765,0l-1.264,11.943Z" transform="translate(-88.136 -172.175)" fill="#fc657e"/>
          </g>
        </g>
        <g id="Group_1181880" data-name="Group 1181880" transform="translate(20.257 45.116)">
          <g id="Group_1181879" data-name="Group 1181879" transform="translate(0)">
            <g id="Group_1181878" data-name="Group 1181878">
              <path id="Path_1011359" data-name="Path 1011359" d="M93.125,164.275a.583.583,0,0,1-.154-.4,10.182,10.182,0,0,1-1.147.072c-.287,0-.57-.016-.852-.039a.579.579,0,0,1-.152.365L89.778,165.4a2.675,2.675,0,0,0,4.389,0Z" transform="translate(-89.778 -163.878)" fill="#fc657e"/>
            </g>
          </g>
        </g>
        <g id="Group_1181882" data-name="Group 1181882" transform="translate(0 40.655)">
          <g id="Group_1181881" data-name="Group 1181881">
            <path id="Path_1011360" data-name="Path 1011360" d="M38.647,177.5H18.363a2.167,2.167,0,0,1-2.161-2.321l1.334-18.7a5.534,5.534,0,0,1,3.37-4.734l9.271-3.945a1.539,1.539,0,0,1,2.1,1.048l7.041,27.794a.688.688,0,0,1-.667.857Zm-21.073-2.223a.79.79,0,0,0,.788.847h19.4l-6.825-26.941a.161.161,0,0,0-.086-.111.158.158,0,0,0-.136,0l-9.271,3.945a4.164,4.164,0,0,0-2.536,3.563Z" transform="translate(-16.196 -147.674)"/>
          </g>
        </g>
        <g id="Group_1181884" data-name="Group 1181884" transform="translate(26.483 36.624)">
          <g id="Group_1181883" data-name="Group 1181883">
            <path id="Path_1011361" data-name="Path 1011361" d="M113.444,137.464a.689.689,0,0,1-.618-.385,4.246,4.246,0,0,1-.433-1.86v-1.5a.688.688,0,1,1,1.376,0v1.5a2.862,2.862,0,0,0,.292,1.254.688.688,0,0,1-.618.992Z" transform="translate(-112.393 -133.032)"/>
          </g>
        </g>
        <g id="Group_1181886" data-name="Group 1181886" transform="translate(20.852 44.437)">
          <g id="Group_1181885" data-name="Group 1181885">
            <path id="Path_1011362" data-name="Path 1011362" d="M93.39,162.852c-.248,0-.514-.011-.814-.034a.688.688,0,1,1,.106-1.372c.264.02.5.03.709.03a9.31,9.31,0,0,0,.989-.058.688.688,0,1,1,.146,1.369A10.526,10.526,0,0,1,93.39,162.852Z" transform="translate(-91.941 -161.413)"/>
          </g>
        </g>
        <g id="Group_1181888" data-name="Group 1181888" transform="translate(16.717 36.644)">
          <g id="Group_1181887" data-name="Group 1181887" transform="translate(0)">
            <path id="Path_1011363" data-name="Path 1011363" d="M77.606,137.441a.689.689,0,0,1-.624-.977,2.825,2.825,0,0,0,.263-1.192v-1.478a.688.688,0,0,1,1.377,0v1.478a4.189,4.189,0,0,1-.39,1.77.69.69,0,0,1-.625.4Z" transform="translate(-76.918 -133.106)"/>
          </g>
        </g>
        <g id="Group_1181890" data-name="Group 1181890" transform="translate(21.763 40.655)">
          <g id="Group_1181889" data-name="Group 1181889">
            <path id="Path_1011364" data-name="Path 1011364" d="M116.221,177.5H95.936a.688.688,0,0,1-.667-.857l7.042-27.8a1.539,1.539,0,0,1,2.1-1.043l.366.156a.688.688,0,0,1,.419.633v1.852l1.663.018a1.377,1.377,0,0,1,1.328,1.015,9.046,9.046,0,0,0,.887,2.138,1.378,1.378,0,0,1-.221,1.658l-1.165,1.165,1.91,1.935,1.19-1.165a1.376,1.376,0,0,1,1.658-.221,9.054,9.054,0,0,0,2.138.887,1.378,1.378,0,0,1,1.014,1.328v1.646l1.125.018a.688.688,0,0,1,.687.639l.976,13.677a2.167,2.167,0,0,1-2.162,2.321Zm-19.4-1.377h19.4a.791.791,0,0,0,.788-.846l-.931-13.037h-.466a1.4,1.4,0,0,1-1.394-1.394V159.2a10.429,10.429,0,0,1-2.461-1.022l-1.164,1.166a1.394,1.394,0,0,1-1.972,0l-1.909-1.909a1.394,1.394,0,0,1,0-1.972l1.164-1.165a10.432,10.432,0,0,1-1.021-2.463l-1.645,0a1.4,1.4,0,0,1-1.394-1.394v-1.388a.147.147,0,0,0-.084.017.159.159,0,0,0-.085.107Z" transform="translate(-95.248 -147.674)"/>
          </g>
        </g>
        <g id="Group_1181892" data-name="Group 1181892" transform="translate(35.953 49.878)">
          <g id="Group_1181891" data-name="Group 1181891">
            <path id="Path_1011365" data-name="Path 1011365" d="M147.481,201.467a.688.688,0,0,1-.688-.688V186.27a7.841,7.841,0,0,1,1.675-4.829.688.688,0,0,1,1.081.852,6.46,6.46,0,0,0-1.38,3.978v14.509A.688.688,0,0,1,147.481,201.467Z" transform="translate(-146.793 -181.178)"/>
          </g>
        </g>
        <g id="Group_1181894" data-name="Group 1181894" transform="translate(2.468 46.413)">
          <g id="Group_1181893" data-name="Group 1181893">
            <path id="Path_1011366" data-name="Path 1011366" d="M30.955,192.459a.688.688,0,0,1-.688-.688V177.148a6.457,6.457,0,0,0-2.035-4.695l-2.852-2.672a.688.688,0,1,1,.941-1l2.851,2.672a7.837,7.837,0,0,1,2.471,5.7V191.77a.688.688,0,0,1-.688.688Z" transform="translate(-25.163 -168.591)"/>
          </g>
        </g>
        <g id="Group_1181896" data-name="Group 1181896" transform="translate(11.577 41.846)">
          <g id="Group_1181895" data-name="Group 1181895">
            <path id="Path_1011367" data-name="Path 1011367" d="M66.022,180.436a.688.688,0,0,1-.624-.4l-4.905-10.547a2.038,2.038,0,0,1-.026-1.659l1.091-2.545-2.383-.55a1.191,1.191,0,0,1-.927-1.165V152.688a.688.688,0,1,1,1.376,0v10.74l2.453.566a1.2,1.2,0,0,1,.83,1.637l-1.176,2.743a.658.658,0,0,0,.008.536l4.905,10.547a.688.688,0,0,1-.624.978Z" transform="translate(-58.248 -152)"/>
          </g>
        </g>
        <g id="Group_1181898" data-name="Group 1181898" transform="translate(24.889 43.601)">
          <g id="Group_1181897" data-name="Group 1181897">
            <path id="Path_1011368" data-name="Path 1011368" d="M107.29,185a.689.689,0,0,1-.624-.979l4.88-10.491a.656.656,0,0,0,.008-.535l-1.176-2.744a1.2,1.2,0,0,1,.831-1.637l2.453-.566v-8.985a.688.688,0,0,1,1.377,0v9.128a1.191,1.191,0,0,1-.927,1.165l-2.383.55,1.091,2.545a2.035,2.035,0,0,1-.025,1.658l-4.88,10.491a.688.688,0,0,1-.624.4Z" transform="translate(-106.602 -158.375)"/>
          </g>
        </g>
        <g id="Group_1181900" data-name="Group 1181900" transform="translate(14.269 39.329)">
          <g id="Group_1181899" data-name="Group 1181899">
            <path id="Path_1011369" data-name="Path 1011369" d="M72.349,152.366h-.036a1.315,1.315,0,0,1-.978-.477l-1.709-2.069a.688.688,0,1,1,1.061-.877l1.665,2.015,2.132-2.31L70.349,144.3l-1.171,1.069a.688.688,0,0,1-.928-1.017l1.3-1.183a1.211,1.211,0,0,1,1.684.059l4.319,4.54a1.275,1.275,0,0,1,.013,1.739l-2.246,2.433A1.316,1.316,0,0,1,72.349,152.366Z" transform="translate(-68.025 -142.859)"/>
          </g>
        </g>
        <g id="Group_1181902" data-name="Group 1181902" transform="translate(22.762 39.329)">
          <g id="Group_1181901" data-name="Group 1181901">
            <path id="Path_1011370" data-name="Path 1011370" d="M102.425,152.366a1.316,1.316,0,0,1-.967-.423l-2.246-2.433a1.275,1.275,0,0,1,.013-1.739l4.319-4.54a1.21,1.21,0,0,1,1.684-.059l1.306,1.193a.688.688,0,1,1-.928,1.017l-1.182-1.079-4.134,4.346,2.132,2.31,1.654-2a.688.688,0,1,1,1.061.877l-1.7,2.055a1.316,1.316,0,0,1-.978.477Z" transform="translate(-98.877 -142.859)"/>
          </g>
        </g>
        <g id="Group_1181904" data-name="Group 1181904" transform="translate(23.161 46.863)">
          <g id="Group_1181903" data-name="Group 1181903">
            <path id="Path_1011371" data-name="Path 1011371" d="M102.255,183.322a.688.688,0,0,1-.684-.616l-1.24-11.72a.688.688,0,1,1,1.369-.145l1.24,11.72a.688.688,0,0,1-.612.757c-.025,0-.049,0-.074,0Z" transform="translate(-100.327 -170.227)"/>
          </g>
        </g>
        <g id="Group_1181906" data-name="Group 1181906" transform="translate(19.129 46.83)">
          <g id="Group_1181905" data-name="Group 1181905" transform="translate(0)">
            <path id="Path_1011372" data-name="Path 1011372" d="M86.369,183.193a.731.731,0,0,1-.073,0,.688.688,0,0,1-.612-.757l1.239-11.712a.688.688,0,1,1,1.369.145l-1.239,11.712A.689.689,0,0,1,86.369,183.193Z" transform="translate(-85.68 -170.105)"/>
          </g>
        </g>
        <g id="Group_1181909" data-name="Group 1181909" transform="translate(19.713 46.137)">
          <g id="Group_1181908" data-name="Group 1181908">
            <g id="Group_1181907" data-name="Group 1181907">
              <path id="Path_1011373" data-name="Path 1011373" d="M90.54,169.927a3.358,3.358,0,0,1-2.577-1.2.688.688,0,0,1,1.054-.885,1.985,1.985,0,0,0,3.049,0,.688.688,0,0,1,1.056.883,3.36,3.36,0,0,1-2.581,1.208Z" transform="translate(-87.802 -167.589)"/>
            </g>
          </g>
        </g>
        <g id="Group_1181911" data-name="Group 1181911" transform="translate(3.07 29.856)">
          <g id="Group_1181910" data-name="Group 1181910">
            <path id="Path_1011374" data-name="Path 1011374" d="M32.4,110.893a3.056,3.056,0,0,1-2.45-2.4.055.055,0,0,0-.109,0,3.055,3.055,0,0,1-2.45,2.4.054.054,0,0,0,0,.107,3.056,3.056,0,0,1,2.45,2.4.055.055,0,0,0,.109,0A3.056,3.056,0,0,1,32.4,111,.054.054,0,0,0,32.4,110.893Z" transform="translate(-27.349 -108.448)" fill="#f5c84c"/>
          </g>
        </g>
        <g id="Group_1181913" data-name="Group 1181913" transform="translate(41.989 21.322)">
          <g id="Group_1181912" data-name="Group 1181912">
            <path id="Path_1011375" data-name="Path 1011375" d="M171.934,79a1.945,1.945,0,0,1-1.559-1.527.035.035,0,0,0-.069,0A1.944,1.944,0,0,1,168.747,79a.034.034,0,0,0,0,.068,1.945,1.945,0,0,1,1.559,1.527.035.035,0,0,0,.069,0,1.944,1.944,0,0,1,1.559-1.527A.034.034,0,0,0,171.934,79Z" transform="translate(-168.717 -77.448)" fill="#fc657e"/>
          </g>
        </g>
        <g id="Group_1181915" data-name="Group 1181915" transform="translate(36.83 2.55)">
          <g id="Group_1181914" data-name="Group 1181914">
            <path id="Path_1011376" data-name="Path 1011376" d="M150.846,10.774h.641v-.641a.869.869,0,1,1,1.738,0v.641h.641a.869.869,0,1,1,0,1.738h-.641v.641a.869.869,0,1,1-1.738,0v-.641h-.641a.869.869,0,0,1,0-1.738Z" transform="translate(-149.977 -9.263)" fill="#70d6f9"/>
          </g>
        </g>
        <g id="Group_1181917" data-name="Group 1181917" transform="translate(1.671 40.042)">
          <g id="Group_1181916" data-name="Group 1181916">
            <circle id="Ellipse_13802" data-name="Ellipse 13802" cx="0.93" cy="0.93" r="0.93" fill="#87d147"/>
          </g>
        </g>
        <g id="Group_1181919" data-name="Group 1181919" transform="translate(31.954 0)">
          <g id="Group_1181918" data-name="Group 1181918">
            <circle id="Ellipse_13803" data-name="Ellipse 13803" cx="0.93" cy="0.93" r="0.93" fill="#f5c84c"/>
          </g>
        </g>
        <g id="Group_1181921" data-name="Group 1181921" transform="translate(47.846 61.791)">
          <g id="Group_1181920" data-name="Group 1181920">
            <circle id="Ellipse_13804" data-name="Ellipse 13804" cx="0.93" cy="0.93" r="0.93" fill="#fc657e"/>
          </g>
        </g>
        <g id="Group_1181923" data-name="Group 1181923" transform="translate(31.019 29.61)">
          <g id="Group_1181922" data-name="Group 1181922">
            <path id="Path_1011377" data-name="Path 1011377" d="M129.574,117.96h1.645a.687.687,0,0,0,.664-.506,9.711,9.711,0,0,1,.955-2.3.687.687,0,0,0-.111-.828l-1.165-1.165a.706.706,0,0,1,0-1l1.91-1.909a.706.706,0,0,1,1,0l1.165,1.165a.687.687,0,0,0,.828.111,9.713,9.713,0,0,1,2.3-.955.687.687,0,0,0,.506-.664v-1.646a.706.706,0,0,1,.706-.706h2.7a.706.706,0,0,1,.706.706v1.646a.687.687,0,0,0,.506.664,9.713,9.713,0,0,1,2.3.955.687.687,0,0,0,.828-.111l1.165-1.165a.706.706,0,0,1,1,0l1.91,1.909a.706.706,0,0,1,0,1l-1.165,1.165a.687.687,0,0,0-.111.828,9.714,9.714,0,0,1,.955,2.3.687.687,0,0,0,.664.506h1.645a.706.706,0,0,1,.706.706v2.7a.706.706,0,0,1-.706.706h-1.162a.414.414,0,0,0-.056-.006h-1.667a.436.436,0,0,0-.436.436v1.016a.424.424,0,0,1-.312.41,6,6,0,0,0-1.421.589.424.424,0,0,1-.511-.069l-.719-.719a.438.438,0,0,0-.11-.078,6.475,6.475,0,1,0-1.769,1.754.434.434,0,0,0,.083.12l.719.719a.424.424,0,0,1,.069.511,5.985,5.985,0,0,0-.589,1.421.424.424,0,0,1-.41.312h-1.016a.436.436,0,0,0-.436.436v2.844a.667.667,0,0,1-.659.706h-2.7a.706.706,0,0,1-.706-.706v-1.646a.687.687,0,0,0-.506-.664,9.724,9.724,0,0,1-2.3-.955.687.687,0,0,0-.828.111l-1.165,1.165a.706.706,0,0,1-1,0l-1.91-1.91a.706.706,0,0,1,0-1l1.165-1.165a.687.687,0,0,0,.111-.828,9.716,9.716,0,0,1-.955-2.3.687.687,0,0,0-.664-.506h-1.645a.706.706,0,0,1-.706-.706v-2.7A.706.706,0,0,1,129.574,117.96Z" transform="translate(-128.868 -107.557)" fill="#fcdd86"/>
          </g>
        </g>
        <g id="Group_1181925" data-name="Group 1181925" transform="translate(37.001 35.594)">
          <g id="Group_1181924" data-name="Group 1181924">
            <path id="Path_1011378" data-name="Path 1011378" d="M157.076,142.242a6.475,6.475,0,1,1,5.359-2.839.435.435,0,0,0-.507.078l-1.179,1.179a.434.434,0,0,0-.083.5A6.445,6.445,0,0,1,157.076,142.242Z" transform="translate(-150.6 -129.29)" fill="#f5c84c"/>
          </g>
        </g>
        <g id="Group_1181927" data-name="Group 1181927" transform="translate(45.487 44.12)">
          <g id="Group_1181926" data-name="Group 1181926">
            <path id="Path_1011379" data-name="Path 1011379" d="M196.373,166.685h-1.016a.424.424,0,0,1-.41-.312,6.018,6.018,0,0,0-.589-1.421.424.424,0,0,1,.069-.511l.719-.719a.436.436,0,0,0,0-.616l-1.179-1.179a.436.436,0,0,0-.616,0l-.719.719a.424.424,0,0,1-.511.069,6,6,0,0,0-1.421-.589.424.424,0,0,1-.312-.41V160.7a.436.436,0,0,0-.436-.436h-1.668a.436.436,0,0,0-.436.436v1.016a.424.424,0,0,1-.312.41,6,6,0,0,0-1.421.589.424.424,0,0,1-.511-.069l-.719-.719a.436.436,0,0,0-.616,0l-1.179,1.179a.436.436,0,0,0,0,.616l.719.719a.424.424,0,0,1,.069.511,5.985,5.985,0,0,0-.589,1.421.424.424,0,0,1-.41.312h-1.016a.436.436,0,0,0-.436.436v1.667a.436.436,0,0,0,.436.436h1.016a.424.424,0,0,1,.41.312,6.011,6.011,0,0,0,.589,1.421.424.424,0,0,1-.069.511l-.719.719a.436.436,0,0,0,0,.616l1.179,1.179a.436.436,0,0,0,.616,0l.719-.719a.424.424,0,0,1,.511-.069,6.012,6.012,0,0,0,1.421.589.424.424,0,0,1,.312.41v1.016a.436.436,0,0,0,.436.436h1.668a.436.436,0,0,0,.436-.436v-1.016a.424.424,0,0,1,.312-.41,6.011,6.011,0,0,0,1.421-.589.424.424,0,0,1,.511.069l.719.719a.436.436,0,0,0,.616,0l1.179-1.179a.436.436,0,0,0,0-.616l-.719-.719a.424.424,0,0,1-.069-.511,5.988,5.988,0,0,0,.589-1.421.424.424,0,0,1,.41-.312h1.016a.436.436,0,0,0,.436-.436v-1.667A.436.436,0,0,0,196.373,166.685Z" transform="translate(-181.425 -160.263)" fill="#70d6f9"/>
          </g>
        </g>
        <g id="Group_1181929" data-name="Group 1181929" transform="translate(49.784 48.417)">
          <g id="Group_1181928" data-name="Group 1181928">
            <path id="Path_1011380" data-name="Path 1011380" d="M200.427,182.661a3.395,3.395,0,1,1,3.395-3.4A3.395,3.395,0,0,1,200.427,182.661Z" transform="translate(-197.032 -175.871)" fill="#3caadc"/>
          </g>
        </g>
        <g id="Group_1181931" data-name="Group 1181931" transform="translate(41.137 37.854)">
          <g id="Group_1181930" data-name="Group 1181930">
            <circle id="Ellipse_13805" data-name="Ellipse 13805" cx="2.34" cy="2.34" r="2.34" fill="#f9d0b4"/>
          </g>
        </g>
        <g id="Group_1181933" data-name="Group 1181933" transform="translate(38.935 42.809)">
          <g id="Group_1181932" data-name="Group 1181932">
            <path id="Path_1011381" data-name="Path 1011381" d="M159.971,155.5h4.389a2.355,2.355,0,0,1,2.348,2.348v.935l-.87.87a.435.435,0,0,0-.083.5,6.473,6.473,0,0,1-8.132-.776v-1.526a2.355,2.355,0,0,1,2.348-2.348Z" transform="translate(-157.623 -155.5)" fill="#3a70bf"/>
          </g>
        </g>
        <g id="Group_1181935" data-name="Group 1181935" transform="translate(44.798 43.432)">
          <g id="Group_1181934" data-name="Group 1181934">
            <path id="Path_1011382" data-name="Path 1011382" d="M188.136,174.523h-1.668a1.125,1.125,0,0,1-1.124-1.124v-.818a6.734,6.734,0,0,1-1.21-.5l-.579.579a1.126,1.126,0,0,1-1.589,0l-1.179-1.18a1.125,1.125,0,0,1,0-1.59l.579-.579a6.7,6.7,0,0,1-.5-1.21h-.818a1.126,1.126,0,0,1-1.124-1.124v-1.667a1.125,1.125,0,0,1,1.124-1.124h.818a6.706,6.706,0,0,1,.5-1.21l-.579-.579a1.126,1.126,0,0,1,0-1.589l1.18-1.179a1.124,1.124,0,0,1,1.59,0l.579.579a6.692,6.692,0,0,1,1.21-.5v-.818a1.125,1.125,0,0,1,1.124-1.124h1.667a1.125,1.125,0,0,1,1.124,1.124v.818a6.693,6.693,0,0,1,1.21.5l.579-.579a1.125,1.125,0,0,1,1.59,0l1.179,1.179a1.125,1.125,0,0,1,0,1.59l-.579.579a6.692,6.692,0,0,1,.5,1.21h.818a1.125,1.125,0,0,1,1.124,1.124v1.667a1.126,1.126,0,0,1-1.124,1.124h-.818a6.688,6.688,0,0,1-.5,1.21l.579.579a1.124,1.124,0,0,1,0,1.59l-1.179,1.179a1.126,1.126,0,0,1-1.589,0l-.58-.58a6.7,6.7,0,0,1-1.21.5v.818a1.126,1.126,0,0,1-1.125,1.124Zm-1.415-1.376h1.163v-.764a1.114,1.114,0,0,1,.82-1.074,5.332,5.332,0,0,0,1.258-.522,1.115,1.115,0,0,1,1.341.179l.541.541.822-.822-.541-.541a1.113,1.113,0,0,1-.179-1.341,5.308,5.308,0,0,0,.522-1.258,1.114,1.114,0,0,1,1.074-.82h.763v-1.163h-.763a1.115,1.115,0,0,1-1.074-.82,5.322,5.322,0,0,0-.522-1.258,1.115,1.115,0,0,1,.179-1.341l.541-.541-.822-.822-.541.541a1.115,1.115,0,0,1-1.34.179,5.306,5.306,0,0,0-1.258-.522,1.114,1.114,0,0,1-.82-1.074v-.763h-1.163v.763a1.114,1.114,0,0,1-.82,1.074,5.327,5.327,0,0,0-1.258.522,1.114,1.114,0,0,1-1.34-.178l-.541-.541-.822.822.541.541a1.114,1.114,0,0,1,.178,1.342,5.33,5.33,0,0,0-.521,1.257,1.114,1.114,0,0,1-1.074.82H180.3v1.163h.763a1.114,1.114,0,0,1,1.074.82,5.3,5.3,0,0,0,.522,1.258,1.114,1.114,0,0,1-.179,1.341l-.541.541.822.822.54-.541a1.115,1.115,0,0,1,1.341-.179,5.327,5.327,0,0,0,1.258.522,1.114,1.114,0,0,1,.82,1.074Zm-5.257-3.659h0Zm13.094-3.927h0ZM181.464,162.8h0Z" transform="translate(-178.922 -157.762)"/>
          </g>
        </g>
        <g id="Group_1181937" data-name="Group 1181937" transform="translate(30.33 28.922)">
          <g id="Group_1181936" data-name="Group 1181936">
            <path id="Path_1011383" data-name="Path 1011383" d="M140.864,131.35h-2.7a1.4,1.4,0,0,1-1.394-1.394v-1.646a10.421,10.421,0,0,1-2.462-1.022l-1.164,1.166a1.4,1.4,0,0,1-1.971,0l-1.91-1.91a1.394,1.394,0,0,1,0-1.972l1.164-1.165a10.445,10.445,0,0,1-1.021-2.463l-1.645,0a1.4,1.4,0,0,1-1.394-1.394v-2.7a1.4,1.4,0,0,1,1.394-1.394h1.646A10.413,10.413,0,0,1,130.428,113l-1.166-1.163a1.4,1.4,0,0,1,0-1.972l1.91-1.91a1.393,1.393,0,0,1,1.972,0l1.165,1.164a10.423,10.423,0,0,1,2.463-1.021l0-1.645a1.4,1.4,0,0,1,1.394-1.394h2.7a1.4,1.4,0,0,1,1.394,1.394V108.1a10.443,10.443,0,0,1,2.462,1.022l1.164-1.166a1.4,1.4,0,0,1,1.971,0l1.91,1.91a1.394,1.394,0,0,1,0,1.972L148.6,113a10.437,10.437,0,0,1,1.021,2.463l1.645,0a1.4,1.4,0,0,1,1.394,1.394v2.7a1.4,1.4,0,0,1-1.394,1.394H150.1a.688.688,0,0,1,0-1.376h1.162l.018-2.718-1.663-.018a1.377,1.377,0,0,1-1.328-1.015,9.044,9.044,0,0,0-.887-2.138,1.377,1.377,0,0,1,.222-1.658l1.164-1.165-1.91-1.935-1.19,1.165a1.378,1.378,0,0,1-1.658.221,9.063,9.063,0,0,0-2.138-.887,1.378,1.378,0,0,1-1.014-1.328V106.45l-2.718-.018-.018,1.663a1.378,1.378,0,0,1-1.014,1.328,9.024,9.024,0,0,0-2.139.887,1.379,1.379,0,0,1-1.658-.222l-1.165-1.165-1.935,1.909,1.165,1.19a1.378,1.378,0,0,1,.222,1.658,9.05,9.05,0,0,0-.888,2.139,1.377,1.377,0,0,1-1.328,1.014H127.76l-.018,2.718,1.663.018a1.377,1.377,0,0,1,1.328,1.015,9.041,9.041,0,0,0,.888,2.138,1.378,1.378,0,0,1-.222,1.658l-1.165,1.165,1.91,1.935,1.19-1.165a1.378,1.378,0,0,1,1.658-.222,9.041,9.041,0,0,0,2.139.888,1.378,1.378,0,0,1,1.014,1.328v1.646l2.688.017a.154.154,0,0,0,0-.017V128.85a.688.688,0,0,1,1.377,0v1.106A1.356,1.356,0,0,1,140.864,131.35Z" transform="translate(-126.366 -105.056)"/>
          </g>
        </g>
        <g id="Group_1181939" data-name="Group 1181939" transform="translate(36.313 34.905)">
          <g id="Group_1181938" data-name="Group 1181938">
            <path id="Path_1011384" data-name="Path 1011384" d="M155.264,141.118a7.163,7.163,0,1,1,5.927-3.14.688.688,0,1,1-1.138-.774,5.789,5.789,0,1,0-1.582,1.567.688.688,0,1,1,.764,1.145A7.129,7.129,0,0,1,155.264,141.118Z" transform="translate(-148.1 -126.79)"/>
          </g>
        </g>
        <g id="Group_1181941" data-name="Group 1181941" transform="translate(49.096 47.729)">
          <g id="Group_1181940" data-name="Group 1181940">
            <path id="Path_1011385" data-name="Path 1011385" d="M198.614,181.537a4.083,4.083,0,1,1,4.083-4.083A4.088,4.088,0,0,1,198.614,181.537Zm0-6.789a2.706,2.706,0,1,0,2.707,2.706A2.709,2.709,0,0,0,198.614,174.748Z" transform="translate(-194.531 -173.371)"/>
          </g>
        </g>
        <g id="Group_1181943" data-name="Group 1181943" transform="translate(40.449 37.166)">
          <g id="Group_1181942" data-name="Group 1181942">
            <path id="Path_1011386" data-name="Path 1011386" d="M166.151,141.057a3.028,3.028,0,1,1,3.028-3.028A3.032,3.032,0,0,1,166.151,141.057Zm0-4.68a1.652,1.652,0,1,0,1.652,1.652A1.653,1.653,0,0,0,166.151,136.377Z" transform="translate(-163.123 -135)"/>
          </g>
        </g>
        <g id="Group_1181945" data-name="Group 1181945" transform="translate(38.247 42.121)">
          <g id="Group_1181944" data-name="Group 1181944">
            <path id="Path_1011387" data-name="Path 1011387" d="M155.811,158.036a.688.688,0,0,1-.688-.688v-1.311A3.039,3.039,0,0,1,158.159,153h4.389a3.04,3.04,0,0,1,3.036,3.036v.809a.688.688,0,1,1-1.376,0v-.809a1.662,1.662,0,0,0-1.66-1.66h-4.389a1.662,1.662,0,0,0-1.66,1.66v1.311A.688.688,0,0,1,155.811,158.036Z" transform="translate(-155.123 -153)"/>
          </g>
        </g>
      </g>
    </g>
  </g>
</svg>
