<svg xmlns="http://www.w3.org/2000/svg" width="96" height="96" viewBox="0 0 96 96">
  <g id="img24" transform="translate(-794.039 -2920.081)">
    <path id="Elipse_5729" data-name="Elipse 5729" d="M48,0A48,48,0,1,1,0,48,48,48,0,0,1,48,0Z" transform="translate(794.039 2920.081)" fill="#fdd1aa"/>
    <g id="Group_1181384" data-name="Group 1181384" transform="translate(778.341 2884.573)">
      <path id="Path_1010468" data-name="Path 1010468" d="M92.285,108.414h-1V76.779a.647.647,0,0,0-.649-.647H79.308V67.468a.647.647,0,0,0-.647-.647H73.85a10.17,10.17,0,0,0-20.3,0H48.735a.647.647,0,0,0-.647.647v8.667H36.76a.647.647,0,0,0-.647.645v31.635h-1a.649.649,0,0,0,0,1.3H92.285a.649.649,0,0,0,0-1.3Zm-2.3-30.985v30.985H79.306V77.429ZM63.7,58.593a8.876,8.876,0,1,1-8.875,8.875A8.877,8.877,0,0,1,63.7,58.593ZM37.409,77.43h10.68v30.985H37.409Zm20.5,30.985V99.853H69.49v8.559Zm12.881,0V99.208a.647.647,0,0,0-.647-.649H57.257a.647.647,0,0,0-.647.649v9.206H49.384v-40.3h4.161a10.17,10.17,0,0,0,20.3,0h4.165v40.3Z" fill="#643d2b" stroke="#643d2b" stroke-width="0.5"/>
      <path id="Path_1010469" data-name="Path 1010469" d="M72.536,238.932h4.985a.649.649,0,0,0,0-1.3H72.536a.649.649,0,1,0,0,1.3Z" transform="translate(-32.44 -156.553)" fill="#643d2b" stroke="#643d2b" stroke-width="0.5"/>
      <path id="Path_1010470" data-name="Path 1010470" d="M77.515,277.246H72.536a.649.649,0,1,0,0,1.3h4.985a.649.649,0,0,0,0-1.3Z" transform="translate(-32.44 -190.94)" fill="#643d2b" stroke="#643d2b" stroke-width="0.5"/>
      <path id="Path_1010471" data-name="Path 1010471" d="M77.515,316.856H72.536a.649.649,0,1,0,0,1.3h4.985a.649.649,0,0,0,0-1.3Z" transform="translate(-32.44 -225.328)" fill="#643d2b" stroke="#643d2b" stroke-width="0.5"/>
      <path id="Path_1010472" data-name="Path 1010472" d="M77.707,356.47H72.729a.649.649,0,0,0,0,1.3h4.985a.649.649,0,0,0,0-1.3Z" transform="translate(-32.632 -259.719)" fill="#643d2b" stroke="#643d2b" stroke-width="0.5"/>
      <path id="Path_1010473" data-name="Path 1010473" d="M77.707,396.08H72.729a.649.649,0,0,0,0,1.3h4.985a.649.649,0,0,0,0-1.3Z" transform="translate(-32.632 -294.107)" fill="#643d2b" stroke="#643d2b" stroke-width="0.5"/>
      <path id="Path_1010474" data-name="Path 1010474" d="M391.921,238.932h4.985a.649.649,0,1,0,0-1.3h-4.985a.649.649,0,0,0,0,1.3Z" transform="translate(-309.764 -156.553)" fill="#643d2b" stroke="#643d2b" stroke-width="0.5"/>
      <path id="Path_1010475" data-name="Path 1010475" d="M391.921,278.542h4.985a.649.649,0,1,0,0-1.3h-4.985a.649.649,0,0,0,0,1.3Z" transform="translate(-309.764 -190.94)" fill="#643d2b" stroke="#643d2b" stroke-width="0.5"/>
      <path id="Path_1010476" data-name="Path 1010476" d="M391.921,318.152h4.985a.649.649,0,1,0,0-1.3h-4.985a.649.649,0,0,0,0,1.3Z" transform="translate(-309.764 -225.328)" fill="#643d2b" stroke="#643d2b" stroke-width="0.5"/>
      <path id="Path_1010477" data-name="Path 1010477" d="M391.729,357.767h4.985a.649.649,0,1,0,0-1.3h-4.985a.649.649,0,1,0,0,1.3Z" transform="translate(-309.572 -259.719)" fill="#643d2b" stroke="#643d2b" stroke-width="0.5"/>
      <path id="Path_1010478" data-name="Path 1010478" d="M396.711,396.08h-4.983a.649.649,0,1,0,0,1.3h4.985a.649.649,0,1,0,0-1.3Z" transform="translate(-309.572 -294.107)" fill="#643d2b" stroke="#643d2b" stroke-width="0.5"/>
      <path id="Path_1010479" data-name="Path 1010479" d="M174.706,323.506h-4.25a.649.649,0,1,0,0,1.3h4.25a.649.649,0,1,0,0-1.3Z" transform="translate(-117.449 -231.101)" fill="#643d2b" stroke="#643d2b" stroke-width="0.5"/>
      <path id="Path_1010480" data-name="Path 1010480" d="M304.635,323.506h-4.25a.649.649,0,1,0,0,1.3h4.25a.649.649,0,1,0,0-1.3Z" transform="translate(-230.247 -231.101)" fill="#643d2b" stroke="#643d2b" stroke-width="0.5"/>
      <path id="Path_1010481" data-name="Path 1010481" d="M174.706,277.246h-4.25a.649.649,0,1,0,0,1.3h4.25a.649.649,0,1,0,0-1.3Z" transform="translate(-117.449 -190.94)" fill="#643d2b" stroke="#643d2b" stroke-width="0.5"/>
      <path id="Path_1010482" data-name="Path 1010482" d="M304.635,277.246h-4.25a.649.649,0,1,0,0,1.3h4.25a.649.649,0,1,0,0-1.3Z" transform="translate(-230.247 -190.94)" fill="#643d2b" stroke="#643d2b" stroke-width="0.5"/>
      <path id="Path_1010483" data-name="Path 1010483" d="M240.052,277.25H235.8a.649.649,0,0,0,0,1.3h4.251a.649.649,0,0,0,0-1.3Z" transform="translate(-174.229 -190.945)" fill="#643d2b" stroke="#643d2b" stroke-width="0.5"/>
      <path id="Path_1010484" data-name="Path 1010484" d="M174.706,237.636h-4.25a.649.649,0,1,0,0,1.3h4.25a.649.649,0,1,0,0-1.3Z" transform="translate(-117.449 -156.553)" fill="#643d2b" stroke="#643d2b" stroke-width="0.5"/>
      <path id="Path_1010485" data-name="Path 1010485" d="M304.636,237.636h-4.25a.649.649,0,1,0,0,1.3h4.25a.649.649,0,1,0,0-1.3Z" transform="translate(-230.248 -156.553)" fill="#643d2b" stroke="#643d2b" stroke-width="0.5"/>
      <path id="Path_1010486" data-name="Path 1010486" d="M240.052,237.64H235.8a.649.649,0,0,0,0,1.3h4.251a.649.649,0,0,0,0-1.3Z" transform="translate(-174.229 -156.557)" fill="#643d2b" stroke="#643d2b" stroke-width="0.5"/>
      <path id="Path_1010487" data-name="Path 1010487" d="M240.052,323.51H235.8a.649.649,0,0,0,0,1.3h4.251a.649.649,0,0,0,0-1.3Z" transform="translate(-174.229 -231.105)" fill="#643d2b" stroke="#643d2b" stroke-width="0.5"/>
      <path id="Path_1010488" data-name="Path 1010488" d="M234.369,97.516v.6a.583.583,0,1,0,1.166,0v-.6a3.195,3.195,0,0,0-.583-6.337,1.482,1.482,0,1,1,1.482-1.482.584.584,0,0,0,1.167,0,2.652,2.652,0,0,0-2.066-2.58V86.5a.583.583,0,0,0-1.166,0v.614a2.649,2.649,0,0,0,.583,5.229,2.029,2.029,0,1,1-2.029,2.029.584.584,0,1,0-1.167,0A3.2,3.2,0,0,0,234.369,97.516Z" transform="translate(-171.254 -24.842)" fill="#643d2b" stroke="#643d2b" stroke-width="0.5"/>
    </g>
  </g>
</svg>
