<svg xmlns="http://www.w3.org/2000/svg" width="96" height="96" viewBox="0 0 96 96">
  <g id="img21" transform="translate(-794.039 -2920.081)">
    <path id="Elipse_5729" data-name="Elipse 5729" d="M48,0A48,48,0,1,1,0,48,48,48,0,0,1,48,0Z" transform="translate(794.039 2920.081)" fill="#fdd1aa"/>
    <path id="Path_1002658" data-name="Path 1002658" d="M28.1,8.592a.892.892,0,0,1,.892-.892H43.715a.892.892,0,0,1,0,1.784H28.993A.892.892,0,0,1,28.1,8.592ZM17.554,19.3H43.715a.892.892,0,0,0,0-1.784H17.554a.892.892,0,1,0,0,1.784ZM28.993,14.39H43.715a.892.892,0,0,0,0-1.784H28.993a.892.892,0,0,0,0,1.784ZM64.8,56.473a3.471,3.471,0,0,1-4.9,0L51.331,47.91a.892.892,0,0,1,0-1.262l.16-.16-1.243-1.243-.167.115V47.8a3.193,3.193,0,0,1-3.189,3.189H14.4A3.193,3.193,0,0,1,11.213,47.8V14.253A3.126,3.126,0,0,1,12.147,12L22.712,1.433A3.127,3.127,0,0,1,24.967.5H46.892a3.193,3.193,0,0,1,3.189,3.189V23.612a13.068,13.068,0,0,1,3.488,18.313l1.243,1.243.16-.16a.892.892,0,0,1,1.262,0L64.8,51.569a3.471,3.471,0,0,1,0,4.9ZM42.81,23.185a11.3,11.3,0,1,0,11.3,11.3,11.3,11.3,0,0,0-11.3-11.3ZM14.259,12.409h7.682a1.183,1.183,0,0,0,1.182-1.182V3.545ZM48.3,46.364a13.064,13.064,0,0,1-14.645-2.541h-16.1a.892.892,0,1,1,0-1.784H32.13A13.06,13.06,0,0,1,30.5,38.917H17.554a.892.892,0,1,1,0-1.784h12.44a13.093,13.093,0,0,1-.269-2.647c0-.159,0-.316.009-.474H17.554a.892.892,0,1,1,0-1.784H29.92a12.977,12.977,0,0,1,.962-3.121H17.554a.892.892,0,1,1,0-1.784H31.865A13.191,13.191,0,0,1,34.728,24.2H17.554a.892.892,0,1,1,0-1.784h20.2a13.075,13.075,0,0,1,10.543.191V3.689a1.406,1.406,0,0,0-1.405-1.405H24.967l-.059,0v8.941a2.97,2.97,0,0,1-2.966,2.966H13c0,.02,0,.039,0,.059V47.8A1.406,1.406,0,0,0,14.4,49.206H46.892A1.406,1.406,0,0,0,48.3,47.8Zm4.456-1.137.8-.8-1.1-1.1q-.381.415-.8.8Zm.47,2.053,1.083,1.083,2.38-2.38L55.6,44.9Zm10.312,5.552-5.587-5.587-2.38,2.38,5.587,5.587a1.683,1.683,0,1,0,2.38-2.38ZM41.371,24.971h2.877a.892.892,0,0,1,.892.892v.746a8.107,8.107,0,0,1,1.59.659l.528-.528a.892.892,0,0,1,1.262,0l2.035,2.035a.892.892,0,0,1,0,1.262l-.528.528a8.115,8.115,0,0,1,.659,1.59h.746a.892.892,0,0,1,.892.892v2.877a.892.892,0,0,1-.892.892h-.746a8.113,8.113,0,0,1-.659,1.59l.528.528a.892.892,0,0,1,0,1.262L48.52,42.231a.892.892,0,0,1-1.262,0l-.528-.528a8.1,8.1,0,0,1-1.59.659v.746a.892.892,0,0,1-.892.892H41.372a.892.892,0,0,1-.892-.892v-.746a8.108,8.108,0,0,1-1.59-.659l-.528.528a.892.892,0,0,1-1.262,0L35.065,40.2a.892.892,0,0,1,0-1.262l.528-.528a8.114,8.114,0,0,1-.659-1.59h-.746a.892.892,0,0,1-.892-.892V33.047a.892.892,0,0,1,.892-.892h.746a8.1,8.1,0,0,1,.659-1.59l-.528-.528a.892.892,0,0,1,0-1.262L37.1,26.741a.892.892,0,0,1,1.262,0l.528.528a8.113,8.113,0,0,1,1.59-.659v-.746A.892.892,0,0,1,41.371,24.971Zm.175,3.211a6.358,6.358,0,0,0-2.3.953.893.893,0,0,1-1.126-.112l-.39-.39-.773.773.39.39a.892.892,0,0,1,.112,1.126,6.366,6.366,0,0,0-.953,2.3.892.892,0,0,1-.875.718H35.08v1.093h.552a.892.892,0,0,1,.875.718,6.363,6.363,0,0,0,.953,2.3.892.892,0,0,1-.112,1.126l-.39.39.773.774.39-.39a.892.892,0,0,1,1.126-.112,6.366,6.366,0,0,0,2.3.953.892.892,0,0,1,.718.875v.552h1.093v-.552a.892.892,0,0,1,.718-.875,6.362,6.362,0,0,0,2.3-.953.892.892,0,0,1,1.126.112l.39.39.773-.773-.39-.39a.892.892,0,0,1-.112-1.126,6.359,6.359,0,0,0,.953-2.3.892.892,0,0,1,.875-.718h.552V33.94h-.552a.892.892,0,0,1-.875-.718,6.359,6.359,0,0,0-.953-2.3.892.892,0,0,1,.112-1.126l.39-.39-.773-.773-.39.39a.892.892,0,0,1-1.126.112,6.361,6.361,0,0,0-2.3-.953.892.892,0,0,1-.718-.875v-.552H42.263v.552A.892.892,0,0,1,41.546,28.182Zm1.264.928a5.375,5.375,0,1,1-5.375,5.375A5.375,5.375,0,0,1,42.81,29.11Zm-3.591,5.375a3.591,3.591,0,1,0,3.591-3.591,3.591,3.591,0,0,0-3.591,3.591Z" transform="translate(803.528 2939.088)" fill="#643d2b"/>
  </g>
</svg>
