<svg xmlns="http://www.w3.org/2000/svg" width="96" height="96" viewBox="0 0 96 96">
  <g id="img26" transform="translate(-794.039 -2920.081)">
    <path id="Elipse_5729" data-name="Elipse 5729" d="M48,0A48,48,0,1,1,0,48,48,48,0,0,1,48,0Z" transform="translate(794.039 2920.081)" fill="#fdd1aa"/>
    <g id="Group_1181383" data-name="Group 1181383" transform="translate(810.039 2935.962)">
      <path id="Path_1010459" data-name="Path 1010459" d="M62,24.25H2a1,1,0,0,1-1-1V18.12a1.011,1.011,0,0,1,.6-.92l30-12.92a.987.987,0,0,1,.79,0l30,12.92a1,1,0,0,1,.6.92v5.13a1,1,0,0,1-1,1Zm-59-2H61V18.78L32,6.29,3,18.78Z" fill="#643d2b"/>
      <path id="Path_1010460" data-name="Path 1010460" d="M62,60.04H2a1,1,0,0,1-1-1V54.68a1,1,0,0,1,1-1H62a1,1,0,0,1,1,1v4.36A1,1,0,0,1,62,60.04Zm-59-2H61V55.68H3Z" fill="#643d2b"/>
      <path id="Path_1010461" data-name="Path 1010461" d="M14.42,55.69H6.6a1,1,0,0,1-1-1V51.52a1,1,0,0,1,1-1h.56V27.41H6.6a1,1,0,0,1-1-1V23.24a1,1,0,0,1,1-1h7.82a1,1,0,0,1,1,1v3.17a1,1,0,0,1-1,1h-.56V50.52h.56a1,1,0,0,1,1,1v3.17a1,1,0,0,1-1,1Zm-6.82-2h5.82V52.52h-.56a1,1,0,0,1-1-1V26.41a1,1,0,0,1,1-1h.56V24.24H7.6v1.17h.56a1,1,0,0,1,1,1V51.52a1,1,0,0,1-1,1H7.6Z" fill="#643d2b"/>
      <path id="Path_1010462" data-name="Path 1010462" d="M28.8,55.69H20.98a1,1,0,0,1-1-1V51.52a1,1,0,0,1,1-1h.56V27.41h-.56a1,1,0,0,1-1-1V23.24a1,1,0,0,1,1-1H28.8a1,1,0,0,1,1,1v3.17a1,1,0,0,1-1,1h-.56V50.52h.56a1,1,0,0,1,1,1v3.17a1,1,0,0,1-1,1Zm-6.82-2H27.8V52.52h-.56a1,1,0,0,1-1-1V26.41a1,1,0,0,1,1-1h.56V24.24H21.98v1.17h.56a1,1,0,0,1,1,1V51.52a1,1,0,0,1-1,1h-.56Z" fill="#643d2b"/>
      <path id="Path_1010463" data-name="Path 1010463" d="M43.18,55.69H35.36a1,1,0,0,1-1-1V51.52a1,1,0,0,1,1-1h.56V27.41h-.56a1,1,0,0,1-1-1V23.24a1,1,0,0,1,1-1h7.82a1,1,0,0,1,1,1v3.17a1,1,0,0,1-1,1h-.56V50.52h.56a1,1,0,0,1,1,1v3.17a1,1,0,0,1-1,1Zm-6.82-2h5.82V52.52h-.56a1,1,0,0,1-1-1V26.41a1,1,0,0,1,1-1h.56V24.24H36.36v1.17h.56a1,1,0,0,1,1,1V51.52a1,1,0,0,1-1,1h-.56Z" fill="#643d2b"/>
      <path id="Path_1010464" data-name="Path 1010464" d="M57.56,55.69H49.74a1,1,0,0,1-1-1V51.52a1,1,0,0,1,1-1h.56V27.41h-.56a1,1,0,0,1-1-1V23.24a1,1,0,0,1,1-1h7.82a1,1,0,0,1,1,1v3.17a1,1,0,0,1-1,1H57V50.52h.56a1,1,0,0,1,1,1v3.17a1,1,0,0,1-1,1Zm-6.82-2h5.82V52.52H56a1,1,0,0,1-1-1V26.41a1,1,0,0,1,1-1h.56V24.24H50.74v1.17h.56a1,1,0,0,1,1,1V51.52a1,1,0,0,1-1,1h-.56Z" fill="#643d2b"/>
      <path id="Path_1010465" data-name="Path 1010465" d="M51.14,19.12H12.86a1,1,0,0,1,0-2H51.14a1,1,0,0,1,0,2Z" fill="#643d2b"/>
      <path id="Path_1010466" data-name="Path 1010466" d="M32,15.74a3.35,3.35,0,1,1,3.35-3.35A3.357,3.357,0,0,1,32,15.74Zm0-4.69a1.35,1.35,0,1,0,1.35,1.35A1.351,1.351,0,0,0,32,11.05Z" fill="#643d2b"/>
    </g>
  </g>
</svg>
