<svg xmlns="http://www.w3.org/2000/svg" width="128" height="128" viewBox="0 0 128 128">
  <g id="img25" transform="translate(-72.746 -7992)">
    <g id="Ellipse_13628" data-name="Ellipse 13628" transform="translate(72.746 7992)" fill="#f4e9ff" stroke="#cfde90" stroke-width="6">
      <circle cx="64" cy="64" r="64" stroke="none"/>
      <circle cx="64" cy="64" r="61" fill="none"/>
    </g>
    <g id="Group_1181949" data-name="Group 1181949" transform="translate(46.852 8020.463)">
      <g id="Group_1181947" data-name="Group 1181947" transform="translate(65.171 1.041)">
        <path id="Path_1011388" data-name="Path 1011388" d="M143.788,44.294c-.95-1.208-2.1-3.75-2.1-8.975V23.079A15.579,15.579,0,0,0,126.109,7.5h-6.677a15.579,15.579,0,0,0-15.579,15.579V35.32c0,5.225-1.15,7.766-2.1,8.975a2.2,2.2,0,0,0,.255,2.968,5.387,5.387,0,0,0,5.183,1.411,6.029,6.029,0,0,0,5.349,5.138l1.328.425,8.9,5.564,10.3-6.035a5.889,5.889,0,0,0,5.281-5.093,5.387,5.387,0,0,0,5.183-1.411,2.2,2.2,0,0,0,.255-2.968Z" transform="translate(-97.177 -7.5)" fill="#d48c64"/>
        <path id="Path_1011389" data-name="Path 1011389" d="M103.852,23.079V35.32c0,5.225-1.15,7.766-2.1,8.975a2.2,2.2,0,0,0,.255,2.968,5.387,5.387,0,0,0,5.183,1.411,6.029,6.029,0,0,0,5.349,5.138l1.328.425,8.526,5.329L117.534,20.8s1.9-9.359,1.9-13.3a15.579,15.579,0,0,0-15.579,15.579Z" transform="translate(-97.176 -7.5)" fill="#c6805d"/>
        <path id="Path_1011390" data-name="Path 1011390" d="M118.363,357.3l-14.463-5.1H90.547l-14.463,5.1a6.677,6.677,0,0,0-4.455,6.3l3.338,9.742h13.3l8.966-1.041,9.136,1.041h16.447v-9.742A6.676,6.676,0,0,0,118.363,357.3Z" transform="translate(-71.63 -304.344)" fill="#736572"/>
        <path id="Path_1011391" data-name="Path 1011391" d="M74.968,363.595a3.344,3.344,0,0,1,2.228-3.148l15.513-5.475-.981-2.777H90.547l-14.463,5.1a6.677,6.677,0,0,0-4.455,6.3v9.742h3.338Z" transform="translate(-71.63 -304.344)" fill="#615260"/>
        <path id="Path_1011392" data-name="Path 1011392" d="M172.273,354.269l-4.8,1.693,3.333,19.162h17.858l3.382-19.164L189.342,355Z" transform="translate(-154.172 -306.131)" fill="#dbd8db"/>
        <path id="Path_1011393" data-name="Path 1011393" d="M221.257,285.385l-6.677.689-6.677-.689V272.032h13.353Z" transform="translate(-188.987 -235.31)" fill="#ffd18d"/>
        <path id="Path_1011394" data-name="Path 1011394" d="M207.9,285.385l3.33.343-.011-3.821a1.1,1.1,0,0,1,1.219-1.108,17.529,17.529,0,0,0,8.815-1.181v-7.586H207.9Z" transform="translate(-188.987 -235.31)" fill="#fbbd80"/>
        <path id="Path_1011395" data-name="Path 1011395" d="M138.236,98.049h-4.044a6.554,6.554,0,0,1-3.111-.783,1.1,1.1,0,0,0-1.567.694c-.865,3.214-3.166,10.1-7.006,10.1a2.782,2.782,0,0,0-2.767,3.069,2.891,2.891,0,0,0,2.926,2.5h1.568a14.46,14.46,0,0,0,28.86-1.812A14.735,14.735,0,0,0,138.236,98.049Z" transform="translate(-113.05 -84.695)" fill="#ffe09c"/>
        <path id="Path_1011396" data-name="Path 1011396" d="M169.529,336.776a1.113,1.113,0,0,1,1.536-.475l9,5-6.767,5.8a1.113,1.113,0,0,1-1.69-.293l-3.783-6.62Z" transform="translate(-154.47 -290.537)" fill="#eceaec"/>
        <path id="Path_1011397" data-name="Path 1011397" d="M266.536,336.776A1.113,1.113,0,0,0,265,336.3l-9,5,6.767,5.8a1.113,1.113,0,0,0,1.69-.293l3.783-6.62Z" transform="translate(-230.407 -290.537)" fill="#eceaec"/>
        <path id="Path_1011398" data-name="Path 1011398" d="M122.668,113.628h1.568A14.418,14.418,0,0,0,143.6,126.09l-2.566-.4a13.267,13.267,0,0,1-11.3-13.177v-3.85a7.762,7.762,0,0,1,.558-2.893L133.409,98a6.559,6.559,0,0,1-2.327-.733,1.1,1.1,0,0,0-1.567.694c-.865,3.214-3.166,10.1-7.006,10.1a2.783,2.783,0,0,0-2.768,3.069A2.891,2.891,0,0,0,122.668,113.628Z" transform="translate(-113.051 -84.695)" fill="#ffd18d"/>
      </g>
      <g id="Group_1181948" data-name="Group 1181948" transform="translate(64.13)">
        <path id="Path_1011399" data-name="Path 1011399" d="M112.251,53.014l-8.4-2.966-1.015-2.03a6.413,6.413,0,0,0,4.368-4.607,6.409,6.409,0,0,0,5.038-1.848,3.265,3.265,0,0,0,.362-4.372c-1.633-2.077-1.877-6.111-1.877-8.331V16.62A16.639,16.639,0,0,0,94.1,0H87.427a16.639,16.639,0,0,0-16.62,16.62V28.861c0,2.22-.244,6.254-1.877,8.331a3.265,3.265,0,0,0,.362,4.372,6.408,6.408,0,0,0,5.05,1.847,7.128,7.128,0,0,0,.646,1.623A6.2,6.2,0,0,0,78.7,48.02l-1.014,2.027-8.4,2.966a7.729,7.729,0,0,0-5.149,7.278v9.742a1.041,1.041,0,0,0,2.082,0V60.291a5.644,5.644,0,0,1,3.76-5.314l7.7-2.717,3.168,17.954a1.041,1.041,0,0,0,1.024.86,1.057,1.057,0,0,0,.182-.016,1.041,1.041,0,0,0,.844-1.206L80.482,56.216,81.4,57.83a2.153,2.153,0,0,0,3.272.567l5.049-4.327v4.837a1.041,1.041,0,1,0,2.082,0V54.069L96.855,58.4a2.145,2.145,0,0,0,1.4.519,2.171,2.171,0,0,0,.37-.032,2.147,2.147,0,0,0,1.5-1.054l.922-1.614L98.642,69.853a1.041,1.041,0,1,0,2.051.362l3.168-17.954,7.7,2.717a5.644,5.644,0,0,1,3.76,5.314v9.743a1.041,1.041,0,1,0,2.082,0V60.291a7.73,7.73,0,0,0-5.149-7.278ZM87.427,2.082H94.1A14.554,14.554,0,0,1,108.641,16.62V28.861c0,3.04.4,7.177,2.323,9.618a1.17,1.17,0,0,1-.148,1.564A4.336,4.336,0,0,1,106.6,41.2a1.045,1.045,0,0,0-1.292.953,4.973,4.973,0,0,1-.621,1.935,4.236,4.236,0,0,1-2.964,2.065,2.146,2.146,0,0,0-2.461-.262l-.776.431V42.308a15.517,15.517,0,0,0,7.791-13.447c0-.01,0-.019,0-.029A15.525,15.525,0,0,0,90.765,13.353H86.314a5.613,5.613,0,0,1-5.558-4.695A1.041,1.041,0,0,0,78.7,9a7.684,7.684,0,0,0,2.123,4.155,31.592,31.592,0,0,1-1.671,5.307c-.954,2.237-2.514,4.9-4.525,4.9a3.825,3.825,0,0,0-1.741.42V16.62A14.554,14.554,0,0,1,87.427,2.082Zm-5.8,36.607a13.389,13.389,0,0,1-4.235-8.795,1.041,1.041,0,0,0-1.038-.962H74.788a1.847,1.847,0,0,1-1.89-1.558,1.741,1.741,0,0,1,1.732-1.924H78.6v1.184a5.492,5.492,0,0,0,10.984,0v-.072h2.369v.072a5.492,5.492,0,1,0,10.984,0V25.451h.817a13.4,13.4,0,0,1,.439,3.41c0,.006,0,.011,0,.017A13.418,13.418,0,0,1,81.63,38.689Zm-.548-19.436a32.906,32.906,0,0,0,1.564-4.736,7.73,7.73,0,0,0,3.668.919h4.451a13.444,13.444,0,0,1,12.249,7.933H92.991a1.041,1.041,0,0,0-1.041,1.041v.072H89.581V24.41a1.041,1.041,0,0,0-1.041-1.041h-9.89A15.373,15.373,0,0,0,81.082,19.253Zm12.95,6.2H96.4v1.281a1.041,1.041,0,0,0,2.082,0V25.451h2.369v1.184a3.41,3.41,0,1,1-6.82,0V25.451Zm-13.353,0h2.369v1.281a1.041,1.041,0,0,0,2.082,0V25.451H87.5v1.184a3.41,3.41,0,1,1-6.82,0V25.451ZM76.847,44.092a4.978,4.978,0,0,1-.621-1.929,1.041,1.041,0,0,0-1.292-.959,4.336,4.336,0,0,1-4.219-1.161,1.17,1.17,0,0,1-.148-1.564c1.588-2.019,2.138-5.2,2.28-7.956a4.08,4.08,0,0,0,1.942.492h.633A15.53,15.53,0,0,0,83.047,42.31v4.017l-.776-.431a2.146,2.146,0,0,0-2.461.262,4.237,4.237,0,0,1-2.964-2.065Zm11.171,7.377.934.519L83.32,56.815a.065.065,0,0,1-.059.016.066.066,0,0,1-.05-.035L79.7,50.66l1.456-2.913a.068.068,0,0,1,.043-.037.069.069,0,0,1,.056.006l3.024,1.68a1.041,1.041,0,1,0,1.011-1.82l-.167-.093V43.31a15.523,15.523,0,0,0,11.271,0v4.175l-5.636,3.131-1.737-.965a1.041,1.041,0,1,0-1.011,1.82Zm10.3,5.327a.072.072,0,0,1-.109.019l-5.631-4.827,7.691-4.273a.072.072,0,0,1,.1.03l1.457,2.913Z" transform="translate(-64.13)"/>
        <path id="Path_1011401" data-name="Path 1011401" d="M249.588,456.919h-.011a1.047,1.047,0,1,0,.011,0Z" transform="translate(-222.941 -393.49)"/>
        <path id="Path_1011402" data-name="Path 1011402" d="M249.588,497h-.011a1.047,1.047,0,1,0,.011,0Z" transform="translate(-222.941 -428.007)"/>
      </g>
    </g>
  </g>
</svg>
