<svg xmlns="http://www.w3.org/2000/svg" width="96" height="96" viewBox="0 0 96 96">
  <g id="img23" transform="translate(-794.039 -2920.081)">
    <path id="Elipse_5729" data-name="Elipse 5729" d="M48,0A48,48,0,1,1,0,48,48,48,0,0,1,48,0Z" transform="translate(794.039 2920.081)" fill="#fdd1aa"/>
    <path id="Path_1010489" data-name="Path 1010489" d="M19.676,42.71a1.034,1.034,0,0,0-1.034,1.034v25.12A1.034,1.034,0,0,0,19.676,69.9h7.68a1.034,1.034,0,0,0,1.034-1.034V43.744a1.034,1.034,0,0,0-1.034-1.034Zm6.646,25.12H20.709V44.778h5.613ZM36.729,39.293a1.034,1.034,0,0,1-1.033-1,2.733,2.733,0,0,1-1.867-1.94,1.034,1.034,0,1,1,2.006-.5c.134.536.864.534.947.532a1.206,1.206,0,0,0,.789-.255c.016-.018.029-.033.019-.108s-.042-.349-1.023-.51c-2.155-.354-2.535-1.618-2.571-2.34a2.424,2.424,0,0,1,1.7-2.419,1.034,1.034,0,0,1,2.067-.013,2.813,2.813,0,0,1,1.661,1.576,1.034,1.034,0,0,1-1.906.8.854.854,0,0,0-1.008-.45c-.109.025-.462.126-.448.405.012.238.592.359.841.4,2.075.341,2.635,1.439,2.74,2.3a2.149,2.149,0,0,1-.508,1.71,2.834,2.834,0,0,1-1.373.83A1.034,1.034,0,0,1,36.729,39.293Zm6.948-4.776a6.948,6.948,0,1,0-6.948,6.948A6.956,6.956,0,0,0,43.677,34.517Zm-11.829,0A4.881,4.881,0,1,1,36.729,39.4,4.886,4.886,0,0,1,31.849,34.517ZM43.572,63.953H38.924a1.034,1.034,0,0,0-1.034,1.034V78.575a1.034,1.034,0,0,0,1.034,1.034h4.648a1.034,1.034,0,0,0,1.034-1.034V64.986A1.034,1.034,0,0,0,43.572,63.953ZM42.539,77.542H39.958V66.02h2.581Zm-7.6-8.917H30.293a1.034,1.034,0,0,0-1.034,1.034V71.6H12.522a.124.124,0,0,1-.12-.12V70.018a.122.122,0,0,1,.12-.12h1.621a1.034,1.034,0,0,0,1.034-1.034V43.744a1.034,1.034,0,0,0-1.034-1.034H10.235a.17.17,0,0,1-.168-.168V41.115L36.729,25.6l26.662,15.51v1.428a.17.17,0,0,1-.168.168H59.317a1.034,1.034,0,0,0-1.034,1.034v2.251l-1.223.066a1.034,1.034,0,1,0,.112,2.064l.781-.042q-1.533,1.324-3.136,2.575V43.744a1.034,1.034,0,0,0-1.034-1.034H46.1a1.034,1.034,0,0,0-1.034,1.034V57.2q-1.7.978-3.466,1.887V43.744a1.034,1.034,0,0,0-1.034-1.034h-7.68a1.034,1.034,0,0,0-1.034,1.034V63.411q-1.186.448-2.391.869a1.034,1.034,0,1,0,.68,1.952A89.038,89.038,0,0,0,59.4,49.566l-.125.861a1.034,1.034,0,1,0,2.046.3l.536-3.684a1.034,1.034,0,0,0-1.079-1.181l-.427.023V44.778h2.873a2.238,2.238,0,0,0,2.235-2.235V40.52a1.034,1.034,0,0,0-.514-.893l-27.7-16.111a1.034,1.034,0,0,0-1.039,0L8.514,39.627A1.034,1.034,0,0,0,8,40.52v2.022a2.238,2.238,0,0,0,2.235,2.235h2.874V67.831h-.587a2.19,2.19,0,0,0-2.188,2.188V71.48a2.19,2.19,0,0,0,2.188,2.188H29.26v4.907a1.034,1.034,0,0,0,1.034,1.034h4.648a1.034,1.034,0,0,0,1.034-1.034V69.658a1.034,1.034,0,0,0-1.034-1.033ZM47.136,44.778h5.613v7.438q-2.713,1.98-5.613,3.755Zm-13.214,0h5.613V60.116Q36.8,61.441,33.923,62.6Zm-.015,32.764H31.327v-6.85h2.581Zm27.959-16.51V55.719a1.034,1.034,0,0,0-1.034-1.034H56.185a1.034,1.034,0,0,0-1.034,1.034v6.808a11.318,11.318,0,0,0-1.915,1.416V60.108A1.034,1.034,0,0,0,52.2,59.074H47.555a1.034,1.034,0,0,0-1.034,1.034V78.575a1.034,1.034,0,0,0,1.034,1.034H52.2a1.051,1.051,0,0,0,.13-.009,11.249,11.249,0,1,0,9.534-18.568Zm-4.648-4.279H59.8v4.279a11.165,11.165,0,0,0-2.581.548Zm-8.63,20.789v-16.4h2.581v5.338a11.231,11.231,0,0,0-.255,11.062ZM60.833,81.42a9.184,9.184,0,1,1,9.184-9.184A9.195,9.195,0,0,1,60.833,81.42Zm0-17.6a8.418,8.418,0,1,0,8.418,8.418A8.427,8.427,0,0,0,60.833,63.818Zm0,14.768a6.35,6.35,0,1,1,6.35-6.35A6.358,6.358,0,0,1,60.833,78.586Zm3.382-4.747a2.433,2.433,0,0,1-.574,1.936,3.353,3.353,0,0,1-1.775,1.006v.127a1.034,1.034,0,0,1-2.067,0v-.145a3.182,3.182,0,0,1-2.338-2.291,1.034,1.034,0,0,1,2.006-.5,1.348,1.348,0,0,0,1.438.859,1.737,1.737,0,0,0,1.173-.407.381.381,0,0,0,.085-.334c-.023-.188-.076-.627-1.49-.86-2.512-.413-2.954-1.856-2.994-2.68A2.8,2.8,0,0,1,59.8,67.728v-.165a1.034,1.034,0,1,1,2.067,0v.156a3.184,3.184,0,0,1,2.093,1.874,1.034,1.034,0,0,1-1.906.8A1.318,1.318,0,0,0,60.5,69.68c-.185.042-.786.221-.759.769.006.133.026.537,1.264.74C62.961,71.51,64.041,72.4,64.215,73.839Z" transform="translate(801.997 2914.649)" fill="#643d2b"/>
  </g>
</svg>
