<svg xmlns="http://www.w3.org/2000/svg" width="128" height="128" viewBox="0 0 128 128">
  <g id="img27" transform="translate(-72.746 -7992)">
    <g id="Ellipse_13628" data-name="Ellipse 13628" transform="translate(72.746 7992)" fill="#f4e9ff" stroke="#cfde90" stroke-width="6">
      <circle cx="64" cy="64" r="64" stroke="none"/>
      <circle cx="64" cy="64" r="61" fill="none"/>
    </g>
    <g id="Group_1181988" data-name="Group 1181988" transform="translate(103.113 8022.367)">
      <g id="Group_1181986" data-name="Group 1181986" transform="translate(1.085 1.085)">
        <g id="Group_1181954" data-name="Group 1181954" transform="translate(8.679 10.849)">
          <path id="Path_1011437" data-name="Path 1011437" d="M9,11H56.737V60.907H9Z" transform="translate(-9 -11)" fill="#e6e9ed"/>
        </g>
        <g id="Group_1181955" data-name="Group 1181955" transform="translate(42.996 6.51)">
          <path id="Path_1011438" data-name="Path 1011438" d="M54.051,11.34H40.89A9.4,9.4,0,0,0,40.63,7H55.136A1.088,1.088,0,0,1,56.22,8.085v2.17a1.088,1.088,0,0,1-1.085,1.085Z" transform="translate(-40.63 -7)" fill="#aab2bd"/>
        </g>
        <g id="Group_1181956" data-name="Group 1181956" transform="translate(6.51 6.51)">
          <path id="Path_1011439" data-name="Path 1011439" d="M8.085,7H22.59a9.4,9.4,0,0,0-.26,4.34H8.085A1.088,1.088,0,0,1,7,10.255V8.085A1.088,1.088,0,0,1,8.085,7Z" transform="translate(-7 -7)" fill="#aab2bd"/>
        </g>
        <g id="Group_1181957" data-name="Group 1181957" transform="translate(0 60.756)">
          <path id="Path_1011440" data-name="Path 1011440" d="M21.6,57H65.011A1.088,1.088,0,0,1,66.1,58.085v2.17a1.088,1.088,0,0,1-1.085,1.085H2.085A1.088,1.088,0,0,1,1,60.255v-2.17A1.086,1.086,0,0,1,2.074,57H21.6Z" transform="translate(-1 -57)" fill="#aab2bd"/>
        </g>
        <g id="Group_1181958" data-name="Group 1181958" transform="translate(33.633 54.246)">
          <path id="Path_1011441" data-name="Path 1011441" d="M32,53.17,34.17,51a6.392,6.392,0,0,1,6.314,5.349l.2,1.161H33.085Z" transform="translate(-32 -51)" fill="#4fc1e9"/>
        </g>
        <g id="Group_1181959" data-name="Group 1181959" transform="translate(22.784 54.246)">
          <path id="Path_1011442" data-name="Path 1011442" d="M30.679,53.17l-1.085,4.34H22l.2-1.161A6.392,6.392,0,0,1,28.51,51Z" transform="translate(-22 -51)" fill="#4fc1e9"/>
        </g>
        <g id="Group_1181960" data-name="Group 1181960" transform="translate(55.331 54.246)">
          <path id="Path_1011443" data-name="Path 1011443" d="M54.17,51a6.392,6.392,0,0,1,6.314,5.349l.2,1.161H53.085L52,53.17Z" transform="translate(-52 -51)" fill="#fcd770"/>
        </g>
        <g id="Group_1181961" data-name="Group 1181961" transform="translate(44.482 54.246)">
          <path id="Path_1011444" data-name="Path 1011444" d="M50.679,53.17l-1.085,4.34H42l.2-1.161A6.392,6.392,0,0,1,48.51,51Z" transform="translate(-42 -51)" fill="#fcd770"/>
        </g>
        <g id="Group_1181962" data-name="Group 1181962" transform="translate(30.378 56.416)">
          <path id="Path_1011445" data-name="Path 1011445" d="M32.255,53l1.085,4.34H29L30.085,53Z" transform="translate(-29 -53)" fill="#ff826e"/>
        </g>
        <g id="Group_1181963" data-name="Group 1181963" transform="translate(44.482 28.208)">
          <path id="Path_1011446" data-name="Path 1011446" d="M43.085,40.019A2.164,2.164,0,0,0,42,40.312V35.679a6.515,6.515,0,0,1,6.51-6.51H51.1A12.956,12.956,0,0,0,58.274,27l1.3,1.736a9.752,9.752,0,0,1,1.953,5.859v5.718a2.164,2.164,0,0,0-1.085-.293h-1.28a3.22,3.22,0,0,0-3.06-2.17h-1.66a7.762,7.762,0,0,1-4.719-1.595l-.011.011-3.179.911a3.258,3.258,0,0,0-2.354,2.843Z" transform="translate(-42 -27)" fill="#656d78"/>
        </g>
        <g id="Group_1181964" data-name="Group 1181964" transform="translate(22.784 30.378)">
          <path id="Path_1011447" data-name="Path 1011447" d="M29.725,36.085l-.011.011-3.179.911a3.258,3.258,0,0,0-2.354,2.843h-1.1A2.164,2.164,0,0,0,22,40.142V37.679A8.677,8.677,0,0,1,30.679,29h2.17a8.677,8.677,0,0,1,8.679,8.679v2.463a2.164,2.164,0,0,0-1.085-.293h-1.28a3.22,3.22,0,0,0-3.06-2.17h-1.66a7.762,7.762,0,0,1-4.719-1.595Z" transform="translate(-22 -29)" fill="#b27946"/>
        </g>
        <g id="Group_1181965" data-name="Group 1181965" transform="translate(0 30.378)">
          <path id="Path_1011448" data-name="Path 1011448" d="M1,46.359v-6.51a10.849,10.849,0,0,1,21.7,0v6.51a10.889,10.889,0,0,1-3.515,8,6.349,6.349,0,0,0-4.09-1.486l-.857-2.56a7.585,7.585,0,0,0,5.2-7.2v-2.17a3.257,3.257,0,0,0-3.255-3.255h-1.66A7.762,7.762,0,0,1,9.8,36.085l-.011.011-3.19.911a3.255,3.255,0,0,0-2.354,3.125V43.1a7.6,7.6,0,0,0,5.186,7.2l-.846,2.56a6.34,6.34,0,0,0-4.09,1.476A10.885,10.885,0,0,1,1,46.359Z" transform="translate(-1 -29)" fill="#fcd770"/>
        </g>
        <g id="Group_1181966" data-name="Group 1181966" transform="translate(1.074 54.246)">
          <path id="Path_1011449" data-name="Path 1011449" d="M12.362,54.255a2.16,2.16,0,0,0,2.061-1.486L15.009,51a6.349,6.349,0,0,1,4.09,1.486c.011.011.033.022.043.033a6.342,6.342,0,0,1,2.181,3.83l.2,1.161H1.99l.2-1.161a6.381,6.381,0,0,1,2.17-3.83c.022-.011.033-.033.054-.043A6.34,6.34,0,0,1,8.5,51l.6,1.779a2.185,2.185,0,0,0,2.061,1.476Z" transform="translate(-1.99 -51)" fill="#ff826e"/>
        </g>
        <g id="Group_1181967" data-name="Group 1181967" transform="translate(61.646 41.227)">
          <path id="Path_1011450" data-name="Path 1011450" d="M58.015,40.085A3.007,3.007,0,0,0,57.82,39H59.1a2.175,2.175,0,0,1,2.17,2.17,2.186,2.186,0,0,1-2.17,2.17H57.928a6.017,6.017,0,0,0,.087-1.085Z" transform="translate(-57.82 -39)" fill="#f0d0b4"/>
        </g>
        <g id="Group_1181968" data-name="Group 1181968" transform="translate(50.992 51.686)">
          <path id="Path_1011451" data-name="Path 1011451" d="M48.857,48.64l2.4.391a7.623,7.623,0,0,0,2.409-.391l.846,2.56-2.17,2.17H50.17L48,51.2Z" transform="translate(-48 -48.64)" fill="#f0d0b4"/>
        </g>
        <g id="Group_1181969" data-name="Group 1181969" transform="translate(46.652 37.463)">
          <path id="Path_1011452" data-name="Path 1011452" d="M59.189,42.549a6.018,6.018,0,0,1-.087,1.085,7.576,7.576,0,0,1-7.508,6.51l-2.4-.391a7.559,7.559,0,0,1-5.11-6.119A6.017,6.017,0,0,1,44,42.549V39.577a2.452,2.452,0,0,1,.011-.282,3.258,3.258,0,0,1,2.354-2.843l3.179-.911.011-.011a7.762,7.762,0,0,0,4.719,1.595h1.66a3.22,3.22,0,0,1,3.06,2.17,3.007,3.007,0,0,1,.2,1.085Z" transform="translate(-44 -35.53)" fill="#f0d0b4"/>
        </g>
        <g id="Group_1181970" data-name="Group 1181970" transform="translate(43.397 41.227)">
          <path id="Path_1011453" data-name="Path 1011453" d="M43.17,43.34A2.186,2.186,0,0,1,41,41.17,2.175,2.175,0,0,1,43.17,39h1.1a2.452,2.452,0,0,0-.011.282v2.973a6.017,6.017,0,0,0,.087,1.085H43.17Z" transform="translate(-41 -39)" fill="#f0d0b4"/>
        </g>
        <g id="Group_1181971" data-name="Group 1181971" transform="translate(39.947 41.227)">
          <path id="Path_1011454" data-name="Path 1011454" d="M40.185,39.293A2.166,2.166,0,0,1,41.27,41.17a2.186,2.186,0,0,1-2.17,2.17H37.928a6.017,6.017,0,0,0,.087-1.085v-2.17A3.007,3.007,0,0,0,37.82,39H39.1A2.164,2.164,0,0,1,40.185,39.293Z" transform="translate(-37.82 -39)" fill="#f0d0b4"/>
        </g>
        <g id="Group_1181972" data-name="Group 1181972" transform="translate(29.293 51.686)">
          <path id="Path_1011455" data-name="Path 1011455" d="M28.857,48.64l2.4.391a7.623,7.623,0,0,0,2.409-.391l.846,2.56-2.17,2.17H30.17L28,51.2Z" transform="translate(-28 -48.64)" fill="#f0d0b4"/>
        </g>
        <g id="Group_1181973" data-name="Group 1181973" transform="translate(24.953 37.463)">
          <path id="Path_1011456" data-name="Path 1011456" d="M34,49.753a7.623,7.623,0,0,1-2.409.391l-2.4-.391a7.559,7.559,0,0,1-5.11-6.119A6.018,6.018,0,0,1,24,42.549V39.577a2.452,2.452,0,0,1,.011-.282,3.258,3.258,0,0,1,2.354-2.843l3.179-.911.011-.011a7.762,7.762,0,0,0,4.719,1.595h1.66a3.22,3.22,0,0,1,3.06,2.17,3.007,3.007,0,0,1,.2,1.085v2.17a6.017,6.017,0,0,1-.087,1.085A7.563,7.563,0,0,1,34,49.753Z" transform="translate(-24 -35.53)" fill="#f0d0b4"/>
        </g>
        <g id="Group_1181974" data-name="Group 1181974" transform="translate(21.699 41.227)">
          <path id="Path_1011457" data-name="Path 1011457" d="M21.64,42.7A2.121,2.121,0,0,1,21,41.17,2.175,2.175,0,0,1,23.17,39h1.1a2.452,2.452,0,0,0-.011.282v2.973a6.018,6.018,0,0,0,.087,1.085H23.17A2.121,2.121,0,0,1,21.64,42.7Z" transform="translate(-21 -39)" fill="#f0d0b4"/>
        </g>
        <g id="Group_1181975" data-name="Group 1181975" transform="translate(7.584 51.686)">
          <path id="Path_1011458" data-name="Path 1011458" d="M8.836,48.64l2.409.391a7.606,7.606,0,0,0,2.4-.391L14.5,51.2l-.586,1.768a2.16,2.16,0,0,1-2.061,1.486h-1.2A2.185,2.185,0,0,1,8.587,52.98L7.99,51.2Z" transform="translate(-7.99 -48.64)" fill="#f0d0b4"/>
        </g>
        <g id="Group_1181976" data-name="Group 1181976" transform="translate(3.244 37.463)">
          <path id="Path_1011459" data-name="Path 1011459" d="M13.982,49.753a7.606,7.606,0,0,1-2.4.391l-2.409-.391a7.6,7.6,0,0,1-5.186-7.2V39.577a3.255,3.255,0,0,1,2.354-3.125l3.19-.911.011-.011a7.762,7.762,0,0,0,4.719,1.595h1.66a3.257,3.257,0,0,1,3.255,3.255v2.17a7.585,7.585,0,0,1-5.2,7.2Z" transform="translate(-3.99 -35.53)" fill="#f0d0b4"/>
        </g>
        <g id="Group_1181977" data-name="Group 1181977" transform="translate(14.495 23.868)">
          <path id="Path_1011460" data-name="Path 1011460" d="M19.394,23l5.034,2.018a5.423,5.423,0,0,1-10.068,0Z" transform="translate(-14.36 -23)" fill="#4fc1e9"/>
        </g>
        <g id="Group_1181978" data-name="Group 1181978" transform="translate(19.529 18.444)">
          <path id="Path_1011461" data-name="Path 1011461" d="M24.034,25.443,19,23.425V18a5.422,5.422,0,0,1,5.034,7.443Z" transform="translate(-19 -18)" fill="#ff826e"/>
        </g>
        <g id="Group_1181979" data-name="Group 1181979" transform="translate(14.104 18.444)">
          <path id="Path_1011462" data-name="Path 1011462" d="M19.425,18v5.425l-5.034,2.018A5.422,5.422,0,0,1,19.425,18Z" transform="translate(-14 -18)" fill="#fcd770"/>
        </g>
        <g id="Group_1181980" data-name="Group 1181980" transform="translate(47.737 17.359)">
          <path id="Path_1011463" data-name="Path 1011463" d="M49.34,18.085v6.51a1.088,1.088,0,0,1-1.085,1.085H45V18.085A1.088,1.088,0,0,1,46.085,17h2.17A1.088,1.088,0,0,1,49.34,18.085Z" transform="translate(-45 -17)" fill="#ff826e"/>
        </g>
        <g id="Group_1181981" data-name="Group 1181981" transform="translate(40.142 21.699)">
          <path id="Path_1011464" data-name="Path 1011464" d="M42.34,22.085V25.34H39.085A1.088,1.088,0,0,1,38,24.255v-2.17A1.088,1.088,0,0,1,39.085,21h2.17A1.088,1.088,0,0,1,42.34,22.085Z" transform="translate(-38 -21)" fill="#ff826e"/>
        </g>
        <g id="Group_1181982" data-name="Group 1181982" transform="translate(28.208 19.529)">
          <path id="Path_1011465" data-name="Path 1011465" d="M35.679,21.17a4.34,4.34,0,1,1-8.679,0V19h8.679Z" transform="translate(-27 -19)" fill="#aab2bd"/>
        </g>
        <g id="Group_1181983" data-name="Group 1181983" transform="translate(21.699)">
          <path id="Path_1011466" data-name="Path 1011466" d="M42.3,7.51A9.22,9.22,0,0,0,33.488,1H30.211a9.241,9.241,0,0,0-9.07,10.849,9.2,9.2,0,0,0,2.56,4.871l3.808,3.808h8.679L40,16.721A9.219,9.219,0,0,0,42.3,7.51Z" transform="translate(-21 -1)" fill="#ffeaa7"/>
        </g>
        <g id="Group_1181984" data-name="Group 1181984" transform="translate(34.718 6.51)">
          <path id="Path_1011467" data-name="Path 1011467" d="M36.7,7.64a2.121,2.121,0,0,1,.64,1.53,2.176,2.176,0,0,1-2.17,2.17H33V9.17a2.163,2.163,0,0,1,3.7-1.53Z" transform="translate(-33 -7)" fill="#fcd770"/>
        </g>
        <g id="Group_1181985" data-name="Group 1181985" transform="translate(26.038 6.51)">
          <path id="Path_1011468" data-name="Path 1011468" d="M29.34,9.17v2.17H27.17a2.163,2.163,0,0,1-1.53-3.7A2.121,2.121,0,0,1,27.17,7,2.176,2.176,0,0,1,29.34,9.17Z" transform="translate(-25 -7)" fill="#fcd770"/>
        </g>
      </g>
      <g id="Group_1181987" data-name="Group 1181987" transform="translate(0 0)">
        <path id="Path_1011469" data-name="Path 1011469" d="M66.054,60.988l-.081-.485a7.461,7.461,0,0,0-6.591-6.216l-.3-.9a8.7,8.7,0,0,0,4.645-5.646h.286a3.243,3.243,0,0,0,2.17-5.663V36.888a10.917,10.917,0,0,0-2.17-6.51l-1.918-2.557-.854.57a11.833,11.833,0,0,1-2.653,1.316V13.019a2.172,2.172,0,0,0,2.17-2.17V8.679a2.172,2.172,0,0,0-2.17-2.17H44.838A10.3,10.3,0,0,0,35.276,0H31.99a10.3,10.3,0,0,0-9.561,6.51H8.679a2.172,2.172,0,0,0-2.17,2.17v2.17a2.172,2.172,0,0,0,2.17,2.17V30.84A11.949,11.949,0,0,0,0,42.312v6.51a11.969,11.969,0,0,0,3.061,7.972A7.461,7.461,0,0,0,1.279,60.5L1.2,61A2.165,2.165,0,0,0,0,62.926V65.1a2.172,2.172,0,0,0,2.17,2.17H65.1a2.172,2.172,0,0,0,2.17-2.17v-2.17a2.166,2.166,0,0,0-1.212-1.938ZM63.8,60.756H58.349l-.73-2.922L59,56.453A5.279,5.279,0,0,1,63.8,60.756ZM7.91,56.484l.329.973a3.251,3.251,0,0,0,3.083,2.214h1.212a3.249,3.249,0,0,0,3.092-2.237l.312-.949A5.285,5.285,0,0,1,20.4,60.756H3.447A5.283,5.283,0,0,1,7.91,56.484Zm4.01-4.407a6.516,6.516,0,0,1-6.51-6.51V42.6a2.178,2.178,0,0,1,1.574-2.086l2.675-.765A8.919,8.919,0,0,0,14.6,41.227H16.26a2.172,2.172,0,0,1,2.17,2.17v2.17a6.516,6.516,0,0,1-6.51,6.51Zm0,2.17a8.713,8.713,0,0,0,1.694-.168l.419,1.256-.468,1.422a1.083,1.083,0,0,1-1.031.744H11.322a1.086,1.086,0,0,1-1.029-.738L9.81,55.329l.418-1.252a8.618,8.618,0,0,0,1.692.169ZM22.6,60.756l-.042-.252a7.452,7.452,0,0,0-1.768-3.7,11.968,11.968,0,0,0,3.075-7.987V47.537a3.218,3.218,0,0,0,1.085.2h.285a8.7,8.7,0,0,0,4.645,5.646l-.3.9A7.462,7.462,0,0,0,22.991,60.5l-.041.253ZM46.652,45.567a1.085,1.085,0,0,1,0-2.17Zm-4.34-2.17a1.085,1.085,0,0,1,0,2.17Zm0-2.17h-.6a4.326,4.326,0,0,0-3.736-2.17H36.315a6.73,6.73,0,0,1-6.052-3.74l-1.941.971a8.972,8.972,0,0,0,1.141,1.747l-1.363.389a4.356,4.356,0,0,0-2.922,2.8h-.226V40.142a7.6,7.6,0,0,1,7.595-7.595h2.17a7.6,7.6,0,0,1,7.595,7.595ZM35.646,55.038l-1.378,1.378H33l-1.378-1.378.32-.96a8.612,8.612,0,0,0,3.387,0Zm-2.014-2.962a6.516,6.516,0,0,1-6.51-6.51V42.6A2.178,2.178,0,0,1,28.7,40.511l2.675-.765a8.919,8.919,0,0,0,4.942,1.481h1.658a2.172,2.172,0,0,1,2.17,2.17v2.17A6.516,6.516,0,0,1,33.633,52.077ZM24.953,43.4v2.17a1.085,1.085,0,0,1,0-2.17Zm5.012,13.056,1.381,1.381-.731,2.922H25.16a5.279,5.279,0,0,1,4.806-4.3ZM33.4,58.586h.475l.542,2.17h-1.56Zm3.255,2.17-.73-2.922L37.3,56.453a5.279,5.279,0,0,1,4.806,4.3Zm7.666,0-.042-.252a7.461,7.461,0,0,0-6.591-6.216l-.3-.9a8.7,8.7,0,0,0,4.645-5.646h.286a3.234,3.234,0,0,0,2.17-.846,3.229,3.229,0,0,0,2.17.846h.285a8.7,8.7,0,0,0,4.645,5.646l-.3.9A7.462,7.462,0,0,0,44.689,60.5l-.041.252Zm7.348-4.3,1.381,1.381-.731,2.922H46.858A5.279,5.279,0,0,1,51.664,56.453Zm3.429,2.133h.475l.542,2.17h-1.56Zm2.251-3.548-1.378,1.378H54.7l-1.378-1.378.32-.96a8.612,8.612,0,0,0,3.387,0Zm4.5-9.471a6.51,6.51,0,0,1-13.019,0V42.6A2.178,2.178,0,0,1,50.4,40.511l2.675-.765a8.919,8.919,0,0,0,4.942,1.481h1.658a2.172,2.172,0,0,1,2.17,2.17Zm2.17,0V43.4a1.085,1.085,0,0,1,0,2.17ZM61.566,30.735l.708.945a8.732,8.732,0,0,1,1.736,5.208v4.34h-.6a4.326,4.326,0,0,0-3.736-2.17H58.013a6.73,6.73,0,0,1-6.052-3.74l-1.941.971a8.972,8.972,0,0,0,1.141,1.747l-1.363.389a4.356,4.356,0,0,0-2.922,2.8h-.226V37.973a5.431,5.431,0,0,1,5.425-5.425h2.6a13.949,13.949,0,0,0,6.891-1.813ZM58.586,8.679v2.17H45.54c.01-.186.027-.371.027-.559a10.248,10.248,0,0,0-.139-1.611Zm-26.6-6.51h3.286a8.121,8.121,0,0,1,5.744,13.863l-3.5,3.5h-.636v-6.51h1.085a3.255,3.255,0,1,0-3.255-3.255v1.085h-2.17V9.764a3.255,3.255,0,1,0-3.255,3.255h1.085v6.51h-.636l-3.5-3.5A8.121,8.121,0,0,1,31.989,2.17ZM30.378,21.7h6.51v1.085a3.255,3.255,0,0,1-6.51,0Zm0-10.849H29.293a1.085,1.085,0,1,1,1.085-1.085Zm4.34,8.679h-2.17v-6.51h2.17Zm2.17-8.679V9.764a1.085,1.085,0,1,1,1.085,1.085ZM8.679,8.679H21.837a10.248,10.248,0,0,0-.139,1.611c0,.188.017.372.027.559H8.679Zm2.17,4.34H22.073a10.216,10.216,0,0,0,2.641,4.548l3.495,3.5v1.721a5.425,5.425,0,1,0,10.849,0V21.063l3.5-3.5a10.222,10.222,0,0,0,2.641-4.548H56.416V30.25a11.933,11.933,0,0,1-1.741.128h-2.6a7.6,7.6,0,0,0-7.595,7.595v2.17a9.776,9.776,0,0,0-9.764-9.764h-2.17a9.775,9.775,0,0,0-9.51,7.587,11.946,11.946,0,0,0-11.1-7.587c-.367,0-.727.023-1.085.055ZM2.17,42.312a9.764,9.764,0,1,1,19.529,0v6.51A9.791,9.791,0,0,1,19.145,55.4a7.428,7.428,0,0,0-3.173-1.108l-.3-.9a8.683,8.683,0,0,0,4.93-7.816V43.4a4.344,4.344,0,0,0-4.34-4.34H14.6a6.731,6.731,0,0,1-6.052-3.74l-1.941.971a8.977,8.977,0,0,0,1.142,1.747l-1.364.389A4.358,4.358,0,0,0,3.241,42.6v2.968a8.681,8.681,0,0,0,4.931,7.816l-.3.9a7.44,7.44,0,0,0-3.156,1.1A9.794,9.794,0,0,1,2.17,48.822Zm0,22.784v-2.17H65.1V65.1Z" transform="translate(0 0)"/>
        <path id="Path_1011470" data-name="Path 1011470" d="M30.914,44.123H29v2.17h1.914a4.982,4.982,0,0,0,4.481-2.77l-1.941-.971A2.824,2.824,0,0,1,30.914,44.123Z" transform="translate(2.463 3.614)"/>
        <path id="Path_1011471" data-name="Path 1011471" d="M50.914,44.123H49v2.17h1.914a4.982,4.982,0,0,0,4.481-2.77l-1.941-.971A2.824,2.824,0,0,1,50.914,44.123Z" transform="translate(4.162 3.614)"/>
        <path id="Path_1011472" data-name="Path 1011472" d="M10.9,44.123H8.987v2.17H10.9a4.982,4.982,0,0,0,4.481-2.77l-1.941-.971a2.822,2.822,0,0,1-2.54,1.571Z" transform="translate(0.763 3.614)"/>
        <path id="Path_1011473" data-name="Path 1011473" d="M19.51,30.019A6.51,6.51,0,1,0,13,23.51,6.516,6.516,0,0,0,19.51,30.019Zm0-2.17a4.325,4.325,0,0,1-3.484-1.777l3.484-1.394,3.484,1.394A4.325,4.325,0,0,1,19.51,27.849Zm4.34-4.34a4.287,4.287,0,0,1-.055.545l-3.2-1.279V19.324A4.336,4.336,0,0,1,23.849,23.51Zm-5.425-4.186v3.451l-3.2,1.28a4.137,4.137,0,0,1,3.2-4.731Z" transform="translate(1.104 1.444)"/>
        <path id="Path_1011474" data-name="Path 1011474" d="M12,14h2.17v2.17H12Z" transform="translate(1.019 1.189)"/>
        <path id="Path_1011475" data-name="Path 1011475" d="M16,14h4.34v2.17H16Z" transform="translate(1.359 1.189)"/>
        <path id="Path_1011476" data-name="Path 1011476" d="M39.17,26.849h9.764a2.172,2.172,0,0,0,2.17-2.17V18.17A2.172,2.172,0,0,0,48.934,16h-2.17a2.172,2.172,0,0,0-2.17,2.17v6.51H43.51V22.51a2.172,2.172,0,0,0-2.17-2.17H39.17A2.172,2.172,0,0,0,37,22.51v2.17A2.172,2.172,0,0,0,39.17,26.849Zm7.595-8.679h2.17v6.51h-2.17ZM39.17,22.51h2.17v2.17H39.17Z" transform="translate(3.142 1.359)"/>
      </g>
    </g>
  </g>
</svg>
