<svg xmlns="http://www.w3.org/2000/svg" xmlns:xlink="http://www.w3.org/1999/xlink" width="96" height="96" viewBox="0 0 96 96">
  <defs>
    <clipPath id="clip-path">
      <rect id="Rectángulo_46028" data-name="Rectángulo 46028" width="51.666" height="59.11" fill="#643d2b"/>
    </clipPath>
  </defs>
  <g id="img25" transform="translate(-794.039 -2920.081)">
    <path id="Elipse_5729" data-name="Elipse 5729" d="M48,0A48,48,0,1,1,0,48,48,48,0,0,1,48,0Z" transform="translate(794.039 2920.081)" fill="#fdd1aa"/>
    <g id="Grupo_154359" data-name="Grupo 154359" transform="translate(816.218 2938.698)">
      <g id="Grupo_154358" data-name="Grupo 154358" clip-path="url(#clip-path)">
        <path id="Trazado_196398" data-name="Trazado 196398" d="M1.935,59.11A2.733,2.733,0,0,1,0,56.148Q.035,38.662.012,21.175a5.931,5.931,0,0,1,4.041-5.95c.342-.118.7-.193,1.114-.307v-.6c0-2.059-.005-4.116,0-6.175A2.776,2.776,0,0,1,8.1,5.207h2.26V3A2.782,2.782,0,0,1,13.353.009L38.051,0a1.526,1.526,0,0,1,1.173.487c2.262,2.28,4.549,4.541,6.795,6.835a1.781,1.781,0,0,1,.454,1.106c.045,1.959.02,3.924.02,5.886v.64a6.2,6.2,0,0,1,2.993,1.358,6.01,6.01,0,0,1,2.162,4.776q.007,7.82,0,15.64a2.293,2.293,0,0,1-.009.288.865.865,0,0,1-.914.841.823.823,0,0,1-.8-.89c-.01-1.27-.006-2.539-.006-3.809V22.569H1.743V56.261c0,.95.161,1.11,1.1,1.11h46c.907,0,1.078-.168,1.079-1.074V41.581a5.7,5.7,0,0,1,.018-.623.844.844,0,0,1,1.667-.094,3.244,3.244,0,0,1,.045.687c0,4.867-.021,9.734.016,14.6a2.728,2.728,0,0,1-1.938,2.962Zm37.6-38.336V14.191c-1.478,0-2.918.011-4.358,0a2.786,2.786,0,0,1-2.859-2.841c-.012-.635,0-1.27,0-1.9V6.938H8.3c-1.068,0-1.4.333-1.4,1.425V20.193c0,.187.016.373.026.582Zm5.195.026V8.993c-1.439,0-2.84.008-4.242,0a2.809,2.809,0,0,1-2.977-2.96q0-.49,0-.979V1.739H13.447a2.724,2.724,0,0,0-.4.009.979.979,0,0,0-.931.941c-.044.819-.012,1.642-.012,2.517h.727q10.01,0,20.02-.007a1.523,1.523,0,0,1,1.174.482q3.393,3.42,6.813,6.812a1.514,1.514,0,0,1,.47,1.18c-.017,2.154-.007,4.308-.007,6.462v.642c.193.011.324.023.455.023h2.969M5.152,16.761c-1.905.225-3.6,2.294-3.316,3.993H5.152Zm44.707,4.007a4.058,4.058,0,0,0-3.335-3.982v3.982ZM39.248,3.171c0,1.016-.029,2.082.012,3.144a.906.906,0,0,0,.882.913c1.078.047,2.16.014,3.177.014L39.248,3.171m-1.175,9.281-4.032-4.04v.422c0,.863-.019,1.726.012,2.587a.99.99,0,0,0,.974,1.02c1.047.034,2.1.01,3.046.01" transform="translate(0.003 0)" fill="#643d2b"/>
        <path id="Trazado_196399" data-name="Trazado 196399" d="M84.541,121.431v.679c0,4.442.01,8.885-.012,13.327,0,.557.155.7.707.7,5.75-.02,11.5-.012,17.251-.012h.623c.015-.249.037-.454.037-.658,0-4.462-.009-8.923.015-13.385,0-.555-.178-.67-.689-.663-2.058.025-4.115.012-6.173.008-.23,0-.524.05-.673-.069a1.592,1.592,0,0,1-.6-.8.718.718,0,0,1,.642-.819,2.7,2.7,0,0,1,.573-.039H102.7a1.913,1.913,0,0,1,2.179,2.2v13.732a1.934,1.934,0,0,1-2.226,2.226H85.007a1.912,1.912,0,0,1-2.2-2.184q-.006-6.9,0-13.789A1.907,1.907,0,0,1,85,119.7q3.205-.005,6.4,0a3.23,3.23,0,0,1,.574.031.843.843,0,0,1,.013,1.658,3.165,3.165,0,0,1-.631.039H84.544" transform="translate(-57.842 -83.611)" fill="#643d2b"/>
        <path id="Trazado_196400" data-name="Trazado 196400" d="M103.283,132.773H97.577a3.8,3.8,0,0,1-.518-.015.85.85,0,0,1-.119-1.663,2.345,2.345,0,0,1,.623-.051h11.414a3.667,3.667,0,0,1,.46.01.866.866,0,0,1,.81.89.824.824,0,0,1-.857.825c-.691.022-1.384.009-2.075.01H103.28" transform="translate(-67.278 -91.534)" fill="#643d2b"/>
        <path id="Trazado_196401" data-name="Trazado 196401" d="M103.377,143.367c-1.941,0-3.882.007-5.822-.009a1.235,1.235,0,0,1-.8-.207,1.075,1.075,0,0,1-.294-.843c.058-.253.386-.464.632-.644.1-.075.3-.028.452-.028H109.42a.864.864,0,1,1,.009,1.723c-1.133.019-2.268.006-3.4.007h-2.652" transform="translate(-67.372 -98.926)" fill="#643d2b"/>
        <path id="Trazado_196402" data-name="Trazado 196402" d="M103.226,153.933H97.637c-.173,0-.346.005-.518-.011a.8.8,0,0,1-.806-.811.816.816,0,0,1,.789-.89,3.794,3.794,0,0,1,.517-.021h11.3c.924,0,1.348.286,1.336.89-.013.583-.413.839-1.317.84h-5.706" transform="translate(-67.274 -106.316)" fill="#643d2b"/>
        <path id="Trazado_196403" data-name="Trazado 196403" d="M103.258,164.512H97.32c-.646,0-1.007-.313-1.015-.844s.356-.877.985-.881c1.326-.011,2.652,0,3.977,0,2.613,0,5.227-.011,7.841.014a1.355,1.355,0,0,1,.914.336.944.944,0,0,1,.107.879,1.136,1.136,0,0,1-.817.48c-1.17.053-2.344.023-3.515.023h-2.537" transform="translate(-67.271 -113.705)" fill="#643d2b"/>
        <path id="Trazado_196404" data-name="Trazado 196404" d="M45.9,57.329H57.671c.623.023,1.011.37,1,.878-.013.489-.388.816-.979.849-.134.007-.267,0-.4,0H34.5A3.1,3.1,0,0,1,33.752,59a.844.844,0,0,1,.089-1.644,4.058,4.058,0,0,1,.633-.026H45.9" transform="translate(-23.151 -40.044)" fill="#643d2b"/>
        <path id="Trazado_196405" data-name="Trazado 196405" d="M44.077,46.728H53.6a2.7,2.7,0,0,1,.575.02.857.857,0,0,1,.037,1.68,2.226,2.226,0,0,1-.573.029H34.366a2.345,2.345,0,0,1-.517-.021.859.859,0,0,1,.019-1.692,2.6,2.6,0,0,1,.518-.016h9.7" transform="translate(-23.15 -32.638)" fill="#643d2b"/>
      </g>
    </g>
  </g>
</svg>
