<svg xmlns="http://www.w3.org/2000/svg" width="70" height="70" viewBox="0 0 70 70">
  <g id="img32" transform="translate(-764.746 -7938)">
    <rect id="Rectangle_455509" data-name="Rectangle 455509" width="70" height="70" rx="10" transform="translate(764.746 7938)" fill="#cfde90"/>
    <g id="Group_1182002" data-name="Group 1182002" transform="translate(777.746 7951)">
      <g id="Group_1182000" data-name="Group 1182000" transform="translate(1.688 1.688)">
        <g id="Group_1181995" data-name="Group 1181995" transform="translate(10.326 1.377)">
          <path id="Path_1011516" data-name="Path 1011516" d="M40.171,8.13a2.756,2.756,0,0,1-1.948-.805l-1.26-1.26H34.9A2.748,2.748,0,0,1,32.234,4H17V38.42H41.782V8.13Z" transform="translate(-17 -4)" fill="#e6e9ed"/>
        </g>
        <g id="Group_1181996" data-name="Group 1181996" transform="translate(13.08 4.13)">
          <path id="Path_1011517" data-name="Path 1011517" d="M21,8H32.014v8.261H21Z" transform="translate(-21 -8)" fill="#b4dd7f"/>
        </g>
        <g id="Group_1181997" data-name="Group 1181997" transform="translate(21.34 23.406)">
          <path id="Path_1011518" data-name="Path 1011518" d="M33,36H44.014v9.638H33Z" transform="translate(-33 -36)" fill="#fcd770"/>
        </g>
        <g id="Group_1181998" data-name="Group 1181998" transform="translate(0 26.159)">
          <path id="Path_1011519" data-name="Path 1011519" d="M21.275,52.391a1.387,1.387,0,0,1,1.377,1.377,1.381,1.381,0,0,1-1.377,1.377H8.12a5.563,5.563,0,0,1-2.464-.578L2.688,53.08H2V42.754h.688l2.4-1.6A6.85,6.85,0,0,1,8.9,40h8.24a.69.69,0,0,1,.688.688,2.753,2.753,0,0,1-2.754,2.754H12.326v6.2H22.652a1.381,1.381,0,0,1,1.377,1.377,1.387,1.387,0,0,1-1.377,1.377Z" transform="translate(-2 -40)" fill="#f0d0b4"/>
        </g>
        <g id="Group_1181999" data-name="Group 1181999" transform="translate(25.471 0)">
          <path id="Path_1011520" data-name="Path 1011520" d="M54.833,4.754v9.638h-.688l-2.967,1.487a5.563,5.563,0,0,1-2.464.578h-.076V7.507H47.027A2.756,2.756,0,0,1,45.079,6.7l-1.26-1.26H41.754a2.748,2.748,0,0,1-2.664-2.065A2.518,2.518,0,0,1,39,2.688.69.69,0,0,1,39.688,2h8.24a6.85,6.85,0,0,1,3.821,1.157l2.4,1.6Z" transform="translate(-39 -2)" fill="#f0d0b4"/>
        </g>
      </g>
      <g id="Group_1182001" data-name="Group 1182001" transform="translate(1 1)">
        <path id="Path_1011521" data-name="Path 1011521" d="M42.512,3.754,40.29,2.272A7.545,7.545,0,0,0,36.09,1H27.848a1.378,1.378,0,0,0-1.377,1.377H11.326V27.159H8.591a7.547,7.547,0,0,0-4.2,1.272L2.168,29.913H1v11.7H2.214l2.822,1.411a6.23,6.23,0,0,0,2.771.654H20.964a2.058,2.058,0,0,0,1.914-2.833,2.031,2.031,0,0,0,1.4-2.674H37.485V16.8a6.235,6.235,0,0,0,2.16-.624l2.822-1.411h1.214V3.754ZM23.029,38.862a.689.689,0,0,1-.688.688H14.08v1.377h6.884a.688.688,0,0,1,0,1.377H7.808A4.84,4.84,0,0,1,5.652,41.8L2.539,40.239H2.377V31.29h.209l2.569-1.713a6.177,6.177,0,0,1,3.436-1.041h8.242A2.068,2.068,0,0,1,14.768,30.6H11.729l-1.057,1.057a3.421,3.421,0,0,1-2.434,1.009H7.884v1.377h.355a4.781,4.781,0,0,0,3.087-1.121v5.252H22.34A.689.689,0,0,1,23.029,38.862ZM36.108,36.8H12.7V31.978h2.065a3.446,3.446,0,0,0,3.442-3.442,1.378,1.378,0,0,0-1.377-1.377H12.7V3.754h14.06a3.444,3.444,0,0,0,3.15,2.065h1.78L32.75,6.876a3.42,3.42,0,0,0,2.434,1.008h.925Zm6.2-23.406h-.162l-3.112,1.556a4.834,4.834,0,0,1-1.543.469V6.507h-2.3a2.053,2.053,0,0,1-1.461-.6L32.263,4.442h-2.35a2.068,2.068,0,0,1-2.065-2.065H36.09a6.176,6.176,0,0,1,3.436,1.041L42.1,5.13H42.3Z" transform="translate(-1 -1)"/>
        <path id="Path_1011522" data-name="Path 1011522" d="M32,46.014H44.391V35H32Zm1.377-9.638h9.638v8.261H33.377Z" transform="translate(-10.66 -11.594)"/>
        <path id="Path_1011523" data-name="Path 1011523" d="M38.156,42.625l-.89-.89-.973.973,1.863,1.863,5.305-5.305-.973-.973Z" transform="translate(-11.997 -12.621)"/>
        <path id="Path_1011524" data-name="Path 1011524" d="M20,49h6.884v1.377H20Z" transform="translate(-6.92 -15.957)"/>
        <path id="Path_1011525" data-name="Path 1011525" d="M28,45h1.377v1.377H28Z" transform="translate(-9.413 -14.71)"/>
        <path id="Path_1011526" data-name="Path 1011526" d="M28,41h1.377v1.377H28Z" transform="translate(-9.413 -13.464)"/>
        <path id="Path_1011527" data-name="Path 1011527" d="M32.391,7H20v9.638H32.391Zm-1.377,8.261H21.377V8.377h9.638Z" transform="translate(-6.92 -2.87)"/>
        <path id="Path_1011528" data-name="Path 1011528" d="M40,19h6.884v1.377H40Z" transform="translate(-13.152 -6.609)"/>
        <path id="Path_1011529" data-name="Path 1011529" d="M40,15h6.884v1.377H40Z" transform="translate(-13.152 -5.362)"/>
        <path id="Path_1011530" data-name="Path 1011530" d="M40,11h1.377v1.377H40Z" transform="translate(-13.152 -4.116)"/>
        <path id="Path_1011531" data-name="Path 1011531" d="M44,11h4.13v1.377H44Z" transform="translate(-14.399 -4.116)"/>
        <path id="Path_1011532" data-name="Path 1011532" d="M20,23h1.377v1.377H20Z" transform="translate(-6.92 -7.855)"/>
        <path id="Path_1011533" data-name="Path 1011533" d="M24,23H41.9v1.377H24Z" transform="translate(-8.167 -7.855)"/>
        <path id="Path_1011534" data-name="Path 1011534" d="M20,27H40.652v1.377H20Z" transform="translate(-6.92 -9.102)"/>
        <path id="Path_1011535" data-name="Path 1011535" d="M20,31h1.377v1.377H20Z" transform="translate(-6.92 -10.348)"/>
        <path id="Path_1011536" data-name="Path 1011536" d="M28,31h1.377v1.377H28Z" transform="translate(-9.413 -10.348)"/>
        <path id="Path_1011537" data-name="Path 1011537" d="M24,31h1.377v1.377H24Z" transform="translate(-8.167 -10.348)"/>
        <path id="Path_1011538" data-name="Path 1011538" d="M32,31H44.391v1.377H32Z" transform="translate(-10.66 -10.348)"/>
        <path id="Path_1011539" data-name="Path 1011539" d="M20,35h6.884v1.377H20Z" transform="translate(-6.92 -11.594)"/>
      </g>
    </g>
  </g>
</svg>
