<svg xmlns="http://www.w3.org/2000/svg" width="84" height="84" viewBox="0 0 84 84">
  <g id="img33" transform="translate(-186 -8268)">
    <rect id="Rectangle_455510" data-name="Rectangle 455510" width="84" height="84" rx="10" transform="translate(186 8268)" fill="#cfde90"/>
    <g id="Group_1182016" data-name="Group 1182016" transform="translate(200.862 8280.725)">
      <g id="Group_1182014" data-name="Group 1182014" transform="translate(0.875 0.875)">
        <g id="Group_1182004" data-name="Group 1182004" transform="translate(0 17.515)">
          <path id="Path_1011540" data-name="Path 1011540" d="M57.023,180.309v14.007a5.252,5.252,0,0,1-5.253,5.253H36.013a3.5,3.5,0,1,1-7,0H13.253A5.252,5.252,0,0,1,8,194.316V168.06h3.5v26.256a1.75,1.75,0,0,0,1.751,1.751H29.01a3.5,3.5,0,0,0,3.5-3.5,3.5,3.5,0,0,0,3.5,3.5H51.771a1.75,1.75,0,0,0,1.751-1.751V180.309Z" transform="translate(-8 -168.06)" fill="#dfb28b"/>
        </g>
        <g id="Group_1182005" data-name="Group 1182005" transform="translate(3.502 12.256)">
          <path id="Path_1011541" data-name="Path 1011541" d="M76.145,137.508a7,7,0,1,1-6.368-1.534,1.771,1.771,0,0,1-.013-.217v-3.5a3.5,3.5,0,0,1,3.5-3.5h3.5a1.751,1.751,0,1,1,0-3.5l-.7-5.253H64.512a3.5,3.5,0,0,0-3.5,3.5,3.5,3.5,0,0,0-3.5-3.5H41.751A1.75,1.75,0,0,0,40,121.751v29.764a1.75,1.75,0,0,0,1.751,1.751H57.508a3.5,3.5,0,0,0,3.5-3.5,3.5,3.5,0,0,0,3.5,3.5H80.269a1.75,1.75,0,0,0,1.751-1.751V137.508Z" transform="translate(-40 -120)" fill="#f0d0b4"/>
        </g>
        <g id="Group_1182006" data-name="Group 1182006" transform="translate(7.003 15.758)">
          <path id="Path_1011542" data-name="Path 1011542" d="M72,152H82.505v8.754H72Z" transform="translate(-72 -152)" fill="#fcd770"/>
        </g>
        <g id="Group_1182007" data-name="Group 1182007" transform="translate(14.007 38.518)">
          <path id="Path_1011543" data-name="Path 1011543" d="M136,360h3.5v3.5H136Z" transform="translate(-136 -360)" fill="#b4dd7f"/>
        </g>
        <g id="Group_1182008" data-name="Group 1182008" transform="translate(7.003 38.518)">
          <path id="Path_1011544" data-name="Path 1011544" d="M72,360h3.5v3.5H72Z" transform="translate(-72 -360)" fill="#b4dd7f"/>
        </g>
        <g id="Group_1182009" data-name="Group 1182009" transform="translate(28.013 28.23)">
          <path id="Path_1011545" data-name="Path 1011545" d="M275.633,267.514a7,7,0,1,1-6.368-1.534A1.751,1.751,0,0,0,271,267.514Z" transform="translate(-264 -265.98)" fill="#b4dd7f"/>
        </g>
        <g id="Group_1182010" data-name="Group 1182010" transform="translate(33.266 21.01)">
          <path id="Path_1011546" data-name="Path 1011546" d="M331.259,203.5v1.751H312V203.5a3.5,3.5,0,0,1,3.5-3.5h12.256A3.5,3.5,0,0,1,331.259,203.5Z" transform="translate(-312 -200)" fill="#aab2bd"/>
        </g>
        <g id="Group_1182011" data-name="Group 1182011" transform="translate(33.266 26.263)">
          <path id="Path_1011547" data-name="Path 1011547" d="M312.013,249.967a1.771,1.771,0,0,1-.013-.217V248h19.259v1.751a1.75,1.75,0,0,1-1.751,1.751H313.751A1.751,1.751,0,0,1,312.013,249.967Z" transform="translate(-312 -248)" fill="#ccd1d9"/>
        </g>
        <g id="Group_1182012" data-name="Group 1182012" transform="translate(38.518)">
          <path id="Path_1011548" data-name="Path 1011548" d="M368.754,12.1a4.1,4.1,0,0,1-.036.543L367,25.508h-5.253l-.7-5.253-1.014-7.608A4.1,4.1,0,0,1,364.1,8h.545a4.1,4.1,0,0,1,4.1,4.1Z" transform="translate(-360 -8)" fill="#969faa"/>
        </g>
        <g id="Group_1182013" data-name="Group 1182013" transform="translate(38.518 17.508)">
          <path id="Path_1011549" data-name="Path 1011549" d="M367,168a1.751,1.751,0,1,1,0,3.5h-5.253a1.751,1.751,0,1,1,0-3.5Z" transform="translate(-360 -168)" fill="#ccd1d9"/>
        </g>
      </g>
      <g id="Group_1182015" data-name="Group 1182015" transform="translate(0 0)">
        <path id="Path_1011550" data-name="Path 1011550" d="M49.9,21.01H48.873a2.624,2.624,0,0,0-1.5-3.313L48.98,5.638A4.98,4.98,0,0,0,44.043,0H43.5a4.98,4.98,0,0,0-4.936,5.638l.882,6.618H28.889a4.373,4.373,0,0,0-3.5,1.754,4.373,4.373,0,0,0-3.5-1.754H6.128A2.629,2.629,0,0,0,3.5,14.882v2.633H0V44.646a6.135,6.135,0,0,0,6.128,6.128H21.1a4.378,4.378,0,0,0,8.578,0h14.97a6.135,6.135,0,0,0,6.128-6.128V31.515h.875a2.629,2.629,0,0,0,2.626-2.626v-3.5A4.382,4.382,0,0,0,49.9,21.01Zm2.626,4.377v.875H35.017v-.875a2.629,2.629,0,0,1,2.626-2.626H49.9A2.629,2.629,0,0,1,52.525,25.387ZM40.8,32.225A6.125,6.125,0,0,1,32.224,40.8ZM30.986,39.56a6.126,6.126,0,0,1,2.632-9.36,2.627,2.627,0,0,0,2.274,1.315h3.139ZM41.145,21.01a.875.875,0,1,1,0-1.751H46.4a.875.875,0,0,1,0,1.751ZM43.5,1.751h.545a3.229,3.229,0,0,1,3.2,3.656l-1.614,12.1h-3.72L40.3,5.407a3.229,3.229,0,0,1,3.2-3.656ZM28.889,14.007H39.678l.492,3.69a2.624,2.624,0,0,0-1.5,3.313H37.643a4.382,4.382,0,0,0-4.377,4.377v3.075a7.885,7.885,0,1,0,9.174,3.053h3.082V44.646a.876.876,0,0,1-.875.875H28.889A2.629,2.629,0,0,1,26.262,42.9V16.633a2.629,2.629,0,0,1,2.626-2.626Zm-23.636.875a.876.876,0,0,1,.875-.875H21.885a2.629,2.629,0,0,1,2.626,2.626V42.9a2.629,2.629,0,0,1-2.626,2.626H6.128a.876.876,0,0,1-.875-.875ZM49.023,44.646a4.382,4.382,0,0,1-4.377,4.377H28.013V49.9a2.626,2.626,0,1,1-5.253,0v-.875H6.128a4.382,4.382,0,0,1-4.377-4.377V19.266H3.5v25.38a2.629,2.629,0,0,0,2.626,2.626H21.885a4.373,4.373,0,0,0,3.5-1.754,4.373,4.373,0,0,0,3.5,1.754H44.646a2.629,2.629,0,0,0,2.626-2.626V31.515h1.751ZM51.65,29.764H35.892a.876.876,0,0,1-.875-.875v-.875H52.525v.875A.876.876,0,0,1,51.65,29.764Z" transform="translate(0 0)"/>
        <path id="Path_1011551" data-name="Path 1011551" d="M76.256,144H64v10.505H76.256Zm-1.751,8.754H65.751v-7h8.754Z" transform="translate(-56.997 -128.242)"/>
        <path id="Path_1011552" data-name="Path 1011552" d="M64,256h1.751v1.751H64Z" transform="translate(-56.997 -227.987)"/>
        <path id="Path_1011553" data-name="Path 1011553" d="M96,256h12.256v1.751H96Z" transform="translate(-85.495 -227.987)"/>
        <path id="Path_1011554" data-name="Path 1011554" d="M64,288H79.758v1.751H64Z" transform="translate(-56.997 -256.485)"/>
        <path id="Path_1011555" data-name="Path 1011555" d="M69.253,352H64v5.253h5.253ZM67.5,355.5H65.751v-1.751H67.5Z" transform="translate(-56.997 -313.482)"/>
        <path id="Path_1011556" data-name="Path 1011556" d="M128,357.253h5.253V352H128Zm1.751-3.5H131.5V355.5h-1.751Z" transform="translate(-113.993 -313.482)"/>
        <path id="Path_1011557" data-name="Path 1011557" d="M64,320H79.758v1.751H64Z" transform="translate(-56.997 -284.983)"/>
        <path id="Path_1011558" data-name="Path 1011558" d="M256,144h7v1.751h-7Z" transform="translate(-227.987 -128.242)"/>
        <path id="Path_1011559" data-name="Path 1011559" d="M256,176h7v1.751h-7Z" transform="translate(-227.987 -156.741)"/>
        <path id="Path_1011560" data-name="Path 1011560" d="M256,208h3.5v1.751H256Z" transform="translate(-227.987 -185.239)"/>
      </g>
    </g>
  </g>
</svg>
