<svg xmlns="http://www.w3.org/2000/svg" xmlns:xlink="http://www.w3.org/1999/xlink" width="84" height="84" viewBox="0 0 84 84">
  <defs>
    <linearGradient id="linear-gradient" x1="0.5" y1="-0.008" x2="0.5" y2="1.104" gradientUnits="objectBoundingBox">
      <stop offset="0"/>
      <stop offset="1"/>
    </linearGradient>
    <linearGradient id="linear-gradient-2" x1="0.5" y1="-0.616" x2="0.5" y2="1.245" xlink:href="#linear-gradient"/>
    <linearGradient id="linear-gradient-3" x1="0.5" y1="-6.046" x2="0.5" y2="4.851" xlink:href="#linear-gradient"/>
    <linearGradient id="linear-gradient-5" x1="0.5" y1="-1.764" x2="0.5" y2="3.027" xlink:href="#linear-gradient"/>
    <linearGradient id="linear-gradient-6" x1="0.5" y1="-0.799" x2="0.5" y2="1.37" xlink:href="#linear-gradient"/>
    <linearGradient id="linear-gradient-7" x1="0.5" y1="-2.961" x2="0.5" y2="4.364" xlink:href="#linear-gradient"/>
    <linearGradient id="linear-gradient-8" x1="0.5" y1="-1.769" x2="0.5" y2="3.037" xlink:href="#linear-gradient"/>
  </defs>
  <g id="img3" transform="translate(-517.711 -725)">
    <rect id="Rectangle_455311" data-name="Rectangle 455311" width="84" height="84" rx="10" transform="translate(517.711 725)" fill="#fa996c"/>
    <g id="Group_1178804" data-name="Group 1178804" transform="translate(519.492 710.803)">
      <g id="Group_1178799" data-name="Group 1178799" transform="translate(12.576 30.804)">
        <g id="Group_1178796" data-name="Group 1178796" transform="translate(0 0)">
          <g id="Group_1178792" data-name="Group 1178792" transform="translate(3.54)">
            <path id="Path_1001595" data-name="Path 1001595" d="M47.734,52.187,75.909,35.92a2.31,2.31,0,0,1,3.146.843l3.552,6.153L48,52.187Z" transform="translate(-47.734 -35.613)" fill="#f48120" fill-rule="evenodd"/>
            <path id="Path_1001596" data-name="Path 1001596" d="M142.991,72.373l-1.748-3.028a3.062,3.062,0,0,1-4.183-1.121L118.518,78.931Z" transform="translate(-110.365 -64.469)" fill="#ffca05" fill-rule="evenodd"/>
          </g>
          <g id="Group_1178793" data-name="Group 1178793" transform="translate(3.81 4.841)">
            <path id="Path_1001597" data-name="Path 1001597" d="M50.082,89.378l43.5-11.655A2.309,2.309,0,0,1,96.4,79.351l2.687,10.027Z" transform="translate(-50.082 -77.645)" fill="#f48120" fill-rule="evenodd"/>
            <path id="Path_1001598" data-name="Path 1001598" d="M163.46,112.632l-1.752-6.541a3.062,3.062,0,0,1-3.75-2.165l-32.491,8.706Z" transform="translate(-116.784 -100.899)" fill="#ffca05" fill-rule="evenodd"/>
          </g>
          <g id="Group_1178795" data-name="Group 1178795" transform="translate(0 16.574)">
            <path id="Path_1001599" data-name="Path 1001599" d="M19.3,179.514H69.752a2.31,2.31,0,0,1,2.3,2.3V211.4a2.309,2.309,0,0,1-2.3,2.3H19.3a2.309,2.309,0,0,1-2.3-2.3V181.817A2.309,2.309,0,0,1,19.3,179.514Z" transform="translate(-17 -179.514)" fill="#f48120" fill-rule="evenodd"/>
            <path id="Path_1001600" data-name="Path 1001600" d="M39.57,228.723H84.006a3.062,3.062,0,0,1,3.062-3.062V202.086a3.062,3.062,0,0,1-3.062-3.062H39.57a3.062,3.062,0,0,1-3.062,3.062v23.575A3.062,3.062,0,0,1,39.57,228.723Z" transform="translate(-34.261 -196.777)" fill="#ffca05" fill-rule="evenodd"/>
            <g id="Group_1178794" data-name="Group 1178794" transform="translate(5.972 15.117)">
              <circle id="Ellipse_13685" data-name="Ellipse 13685" cx="1.979" cy="1.979" r="1.979" fill="#f48120"/>
              <path id="Path_1001601" data-name="Path 1001601" d="M410.749,310.767a1.979,1.979,0,1,1-1.98,1.979A1.979,1.979,0,0,1,410.749,310.767Z" transform="translate(-369.619 -310.767)" fill="#f48120" fill-rule="evenodd"/>
            </g>
          </g>
        </g>
        <g id="Group_1178798" data-name="Group 1178798" transform="translate(15.089 20.75)">
          <g id="Group_1178797" data-name="Group 1178797">
            <path id="Path_1001602" data-name="Path 1001602" d="M154.974,217.875a1.052,1.052,0,1,1-1.845,1.013,1.529,1.529,0,0,0-1.232-.929c-1.414,0-1.779,2.377-1.779,3.368s.365,3.369,1.779,3.369a1.529,1.529,0,0,0,1.232-.929,1.052,1.052,0,0,1,1.845,1.013,3.59,3.59,0,0,1-3.077,2.024c-2.779,0-3.888-3.183-3.888-5.477s1.109-5.477,3.888-5.477a3.59,3.59,0,0,1,3.077,2.024Z" transform="translate(-148.01 -215.841)" fill="#c906f9"/>
            <path id="Path_1001603" data-name="Path 1001603" d="M231.144,221.394c0-.983-.362-3.349-1.766-3.349s-1.767,2.366-1.767,3.349.362,3.349,1.767,3.349S231.144,222.378,231.144,221.394Zm1.131-3.725a6.992,6.992,0,0,1,.978,3.725c0,2.286-1.106,5.458-3.875,5.458s-3.875-3.171-3.875-5.458,1.106-5.457,3.875-5.457A3.415,3.415,0,0,1,232.275,217.67Z" transform="translate(-216.578 -215.917)" fill="#c906f9"/>
            <path id="Path_1001604" data-name="Path 1001604" d="M314,224.612a1.054,1.054,0,1,1,0,2.108h-3.348a1.969,1.969,0,0,1-1.966-1.966v-7.933a1.054,1.054,0,0,1,2.109,0v7.791Z" transform="translate(-290.183 -215.767)" fill="#c906f9"/>
          </g>
          <path id="Path_1001605" data-name="Path 1001605" d="M234.332,322.724a1.053,1.053,0,0,1-1.829,1.046,1.39,1.39,0,0,0-1.821-.572.841.841,0,0,0-.335,1.324.794.794,0,0,0,.062.062l3.05,2.481a2.289,2.289,0,0,1,.25.242,2.885,2.885,0,0,1,.762,1.948,3.059,3.059,0,0,1-1.607,2.621,3.337,3.337,0,0,1-.68.3v.32a1.054,1.054,0,0,1-2.109,0v-.39a3.654,3.654,0,0,1-1.907-1.581A1.053,1.053,0,0,1,230,329.474a1.409,1.409,0,0,0,1.822.572.84.84,0,0,0,.334-1.323.784.784,0,0,0-.062-.062l-3.008-2.445a1.989,1.989,0,0,1-.293-.277,2.882,2.882,0,0,1,0-3.894,3.469,3.469,0,0,1,1.285-.886v-.433a1.054,1.054,0,1,1,2.109,0v.34a3.724,3.724,0,0,1,1.711,1.063A3.415,3.415,0,0,1,234.332,322.724Z" transform="translate(-218.813 -307.704)" fill="#c906f9"/>
        </g>
      </g>
      <g id="Group_1178803" data-name="Group 1178803" transform="translate(12 30.178)">
        <g id="Group_1178801" data-name="Group 1178801" transform="translate(0)">
          <g id="Group_1178800" data-name="Group 1178800">
            <path id="Path_1001606" data-name="Path 1001606" d="M66.075,46.822l-2.56-9.593a2.979,2.979,0,0,0-2.875-2.208,2.948,2.948,0,0,0-.765.1l-8.4,2.251-3.295-5.708a3,3,0,0,0-4.069-1.1L16.08,46.743H15.022a3.036,3.036,0,0,0-3.022,3v29.6a2.931,2.931,0,0,0,3.022,2.872H65.5a2.856,2.856,0,0,0,2.935-2.872v-29.6A2.985,2.985,0,0,0,66.075,46.822Zm-5.848-10.4a1.634,1.634,0,0,1,2,1.143l2.461,9.174h-.932l-1.62-6.036a.664.664,0,0,0-.314-.4.673.673,0,0,0-.512-.065,2.388,2.388,0,0,1-2.926-1.687.691.691,0,0,0-.826-.486L25.128,46.743H21.42l29.856-7.932H51.3Zm2.128,10.317H30.339l26.971-7.217a3.718,3.718,0,0,0,3.678,2.121Zm-33.02-3.481L42.777,35.5a3.743,3.743,0,0,0,4.1,1.1l1,1.731ZM44.789,31.744a1.62,1.62,0,0,1,.809-.216,1.638,1.638,0,0,1,1.418.813l3.114,5.393-.9.24-1.488-2.578a.675.675,0,0,0-.922-.247,2.389,2.389,0,0,1-3.263-.874.674.674,0,0,0-.921-.247L24.374,44.57l.006.01-3.378.9Zm22.265,47.6A1.547,1.547,0,0,1,65.5,80.95H15.022a1.62,1.62,0,0,1-1.64-1.605v-29.6a1.73,1.73,0,0,1,1.64-1.731H65.551a1.654,1.654,0,0,1,1.5,1.731Z" transform="translate(-12 -30.178)" fill="url(#linear-gradient)"/>
            <path id="Path_1001607" data-name="Path 1001607" d="M83.2,196.141a2.4,2.4,0,0,1-2.364-2.428.69.69,0,0,0-.65-.714H35.727a.71.71,0,0,0-.675.714,2.4,2.4,0,0,1-2.383,2.408.687.687,0,0,0-.669.694v23.589a.67.67,0,0,0,.669.675,2.369,2.369,0,0,1,2.386,2.365.653.653,0,0,0,.672.651H80.189a.655.655,0,0,0,.675-.651,2.34,2.34,0,0,1,2.34-2.377.625.625,0,0,0,.625-.663V196.816A.635.635,0,0,0,83.2,196.141Zm-.642,23.651a3.7,3.7,0,0,0-2.987,2.923H36.34a3.8,3.8,0,0,0-3.073-2.923V197.43a3.945,3.945,0,0,0,3.073-3.048H79.576a3.844,3.844,0,0,0,2.987,3.048Z" transform="translate(-29.696 -174.246)" fill="url(#linear-gradient-2)"/>
            <path id="Path_1001608" data-name="Path 1001608" d="M66.92,305.491a2.655,2.655,0,1,0,2.655,2.656A2.658,2.658,0,0,0,66.92,305.491Zm0,3.961a1.306,1.306,0,1,1,1.306-1.305A1.307,1.307,0,0,1,66.92,309.452Z" transform="translate(-58.245 -273.781)" fill="url(#linear-gradient-3)"/>
            <path id="Path_1001609" data-name="Path 1001609" d="M407.035,305.491a2.655,2.655,0,1,0,2.656,2.656A2.659,2.659,0,0,0,407.035,305.491Zm0,3.961a1.306,1.306,0,1,1,1.306-1.305A1.307,1.307,0,0,1,407.035,309.452Z" transform="translate(-359.186 -273.781)" fill="url(#linear-gradient-3)"/>
          </g>
        </g>
        <g id="Group_1178802" data-name="Group 1178802" transform="translate(15.142 20.773)">
          <path id="Path_1001610" data-name="Path 1001610" d="M151.017,218.206a1.727,1.727,0,0,0-2.345.681c-.1.175-.352.581-.642.581-.737,0-1.105-1.728-1.105-2.7s.369-2.7,1.105-2.7c.29,0,.545.406.642.579a1.727,1.727,0,1,0,3.027-1.665,4.264,4.264,0,0,0-3.669-2.374c-3.349,0-4.565,3.681-4.565,6.156s1.216,6.155,4.565,6.155a4.264,4.264,0,0,0,3.669-2.376,1.728,1.728,0,0,0-.683-2.346Zm-.5,1.7a2.988,2.988,0,0,1-2.488,1.677c-2.342,0-3.215-2.947-3.215-4.806s.873-4.806,3.215-4.806a2.989,2.989,0,0,1,2.487,1.676.379.379,0,0,1-.15.514.385.385,0,0,1-.515-.151,2.141,2.141,0,0,0-1.823-1.278c-1.942,0-2.455,2.646-2.455,4.046s.513,4.045,2.455,4.045a2.141,2.141,0,0,0,1.823-1.279.384.384,0,0,1,.514-.15.379.379,0,0,1,.15.513Z" transform="translate(-143.465 -210.608)" fill="url(#linear-gradient-5)"/>
          <path id="Path_1001611" data-name="Path 1001611" d="M230.108,216.841a7.67,7.67,0,0,0-1.086-4.091,4.082,4.082,0,0,0-3.467-2.044c-3.34,0-4.552,3.669-4.552,6.135,0,2.151.905,5.217,3.357,5.965a1.747,1.747,0,0,0-1.054,1.584v0a3.469,3.469,0,0,0-1.092.863,3.557,3.557,0,0,0,.008,4.8,2.566,2.566,0,0,0,.372.347l3,2.44c.017.019.038.045.036.062a.4.4,0,0,1-.205.223.765.765,0,0,1-.9-.321,1.728,1.728,0,0,0-3,1.717,4.321,4.321,0,0,0,1.82,1.691,1.73,1.73,0,0,0,3.452.092c.118-.054.235-.113.348-.178a3.706,3.706,0,0,0,1.947-3.208,3.569,3.569,0,0,0-.938-2.4,2.919,2.919,0,0,0-.324-.312l-3.041-2.474c-.025-.028-.037-.049-.035-.062a.406.406,0,0,1,.206-.224.739.739,0,0,1,.9.322,1.728,1.728,0,0,0,3.168-.4,1.715,1.715,0,0,0-.167-1.312,4.106,4.106,0,0,0-.523-.716,4.423,4.423,0,0,0-1.542-1.087,1.729,1.729,0,0,0-.771-1.3C229.009,222.621,230.108,219.188,230.108,216.841Zm-2.768,9.406a2.708,2.708,0,0,1,.35.478.377.377,0,0,1-.141.517.387.387,0,0,1-.517-.141,2.14,2.14,0,0,0-1.825-1.064,1.848,1.848,0,0,0-.917.241,1.716,1.716,0,0,0-.868,1.184,1.4,1.4,0,0,0,.365,1.176,1.6,1.6,0,0,0,.139.136l3.053,2.482a1.55,1.55,0,0,1,.177.172,2.223,2.223,0,0,1,.586,1.495,2.374,2.374,0,0,1-1.269,2.038,2.989,2.989,0,0,1-.579.236.709.709,0,0,0-.514.645v.32a.347.347,0,1,1-.691,0v-.39a.673.673,0,0,0-.443-.634,2.972,2.972,0,0,1-1.552-1.283.379.379,0,0,1,.142-.517.37.37,0,0,1,.187-.05.381.381,0,0,1,.331.191,2.178,2.178,0,0,0,1.838,1.059,1.822,1.822,0,0,0,.9-.236,1.7,1.7,0,0,0,.869-1.184,1.4,1.4,0,0,0-.366-1.175,1.635,1.635,0,0,0-.139-.136l-3.038-2.469a1.433,1.433,0,0,1-.191-.185,2.213,2.213,0,0,1,0-2.989,2.773,2.773,0,0,1,1.033-.713.674.674,0,0,0,.426-.628v-.433a.347.347,0,1,1,.691,0v.34a.708.708,0,0,0,.526.649A3.16,3.16,0,0,1,227.34,226.247Zm-1.784-4.62c-2.333,0-3.2-2.935-3.2-4.786s.869-4.786,3.2-4.786a2.782,2.782,0,0,1,2.33,1.422,6.315,6.315,0,0,1,.872,3.364C228.759,218.692,227.89,221.627,225.556,221.627Z" transform="translate(-212.073 -210.686)" fill="url(#linear-gradient-6)"/>
          <path id="Path_1001612" data-name="Path 1001612" d="M241.764,229.023c-1.932,0-2.442,2.633-2.442,4.026s.51,4.026,2.442,4.026,2.442-2.633,2.442-4.026S243.7,229.023,241.764,229.023Zm0,6.7c-.728,0-1.093-1.716-1.093-2.676s.365-2.676,1.093-2.676,1.092,1.715,1.092,2.676S242.492,235.725,241.764,235.725Z" transform="translate(-228.282 -226.894)" fill="url(#linear-gradient-7)"/>
          <path id="Path_1001613" data-name="Path 1001613" d="M310.02,219.342h-2.565v-7.077a1.728,1.728,0,1,0-3.455,0V220.2a2.585,2.585,0,0,0,.789,1.844,2.636,2.636,0,0,0,1.881.751h3.35a1.728,1.728,0,1,0,0-3.455Zm0,2.073h-3.35a1.241,1.241,0,0,1-.911-.339,1.189,1.189,0,0,1-.377-.873v-7.938a.347.347,0,1,1,.691,0v7.8c0,.372.367.548.739.548h3.208a.4.4,0,0,1,0,.806Z" transform="translate(-285.51 -210.535)" fill="url(#linear-gradient-8)"/>
        </g>
      </g>
    </g>
  </g>
</svg>
