<svg xmlns="http://www.w3.org/2000/svg" width="84" height="84" viewBox="0 0 84 84">
  <g id="img3" transform="translate(-517.711 -697)">
    <rect id="Rectangle_455311" data-name="Rectangle 455311" width="84" height="84" rx="10" transform="translate(517.711 697)" fill="#fa996c"/>
    <g id="Group_1181146" data-name="Group 1181146" transform="translate(524.711 684.77)">
      <g id="Group_1181144" data-name="Group 1181144" transform="translate(1.103 23.335)">
        <path id="Path_1009914" data-name="Path 1009914" d="M28.393,30.24H13.081A5.1,5.1,0,0,0,8,35.32v6.75H28.393Z" transform="translate(-8 -30.24)" fill="#8bd7fa" fill-rule="evenodd"/>
        <path id="Path_1009915" data-name="Path 1009915" d="M79.9,30.24a5.094,5.094,0,0,1,5.08,5.08V78.127H49.924V35.32a5.1,5.1,0,0,0-5.084-5.08Z" transform="translate(-39.76 -30.24)" fill="#daeafa" fill-rule="evenodd"/>
        <path id="Path_1009916" data-name="Path 1009916" d="M324.166,202.253c-7.352,0-13.316-5.634-13.316-12.584,0-6,4.515-11.639,10.422-14.345l-2.136-4.943a1.729,1.729,0,0,1,.425-1.976,1.281,1.281,0,0,1,1.564-.13l.474.3a1.27,1.27,0,0,0,1.393,0l.481-.307a1.27,1.27,0,0,1,1.393,0l.478.307a1.27,1.27,0,0,0,1.393,0l.474-.3a1.279,1.279,0,0,1,1.564.13,1.723,1.723,0,0,1,.425,1.976l-2.136,4.943c5.907,2.705,10.422,8.342,10.422,14.345C337.484,196.618,331.523,202.253,324.166,202.253Z" transform="translate(-269.089 -149.058)" fill="#e2aa73" fill-rule="evenodd"/>
        <path id="Path_1009917" data-name="Path 1009917" d="M362.316,209.02h9.655a1.614,1.614,0,0,1,0,3.228h-9.655a1.614,1.614,0,1,1,0-3.228Z" transform="translate(-312.065 -184.368)" fill="#093" fill-rule="evenodd"/>
        <path id="Path_1009918" data-name="Path 1009918" d="M179.5,382.38h8.089v13.7l-4.044-4.636-4.044,4.636Z" transform="translate(-155.852 -333.823)" fill="#ff4646" fill-rule="evenodd"/>
        <path id="Path_1009919" data-name="Path 1009919" d="M174.086,184.26h7.9a.976.976,0,0,1,.975.971v2.387h-9.85v-2.387a.977.977,0,0,1,.976-.971Z" transform="translate(-150.343 -163.022)" fill="#fea832" fill-rule="evenodd"/>
        <path id="Path_1009920" data-name="Path 1009920" d="M193.89,76.4a2.388,2.388,0,1,1-2.39,2.39A2.39,2.39,0,0,1,193.89,76.4Z" transform="translate(-166.197 -70.035)" fill="#fea832" fill-rule="evenodd"/>
        <path id="Path_1009921" data-name="Path 1009921" d="M118.275,147.11H110.19v1.624a1.627,1.627,0,0,0,1.624,1.62h4.837a1.625,1.625,0,0,0,1.624-1.62V147.11Z" transform="translate(-96.099 -130.995)" fill="#ffd400" fill-rule="evenodd"/>
        <path id="Path_1009922" data-name="Path 1009922" d="M256.915,147.11H248.83v1.624a1.624,1.624,0,0,0,1.62,1.62h4.841a1.627,1.627,0,0,0,1.624-1.62V147.11Z" transform="translate(-215.621 -130.995)" fill="#ffd400" fill-rule="evenodd"/>
        <path id="Path_1009923" data-name="Path 1009923" d="M265.509,79.1a2.019,2.019,0,1,1-2.019,2.019A2.018,2.018,0,0,1,265.509,79.1Z" transform="translate(-228.26 -72.363)" fill="#fea832" fill-rule="evenodd"/>
        <path id="Path_1009924" data-name="Path 1009924" d="M126.9,79.1a2.019,2.019,0,1,1-2.019,2.019A2.021,2.021,0,0,1,126.9,79.1Z" transform="translate(-108.763 -72.363)" fill="#fea832" fill-rule="evenodd"/>
        <path id="Path_1009925" data-name="Path 1009925" d="M167.13,326.056a6.668,6.668,0,1,0-6.67-6.67A6.681,6.681,0,0,0,167.13,326.056Z" transform="translate(-139.437 -273.768)" fill="#70da40" fill-rule="evenodd"/>
        <path id="Path_1009926" data-name="Path 1009926" d="M125.618,81.119a2.025,2.025,0,0,1,1.655-1.988,2.236,2.236,0,0,0-.364-.03,2.019,2.019,0,1,0,0,4.037,1.852,1.852,0,0,0,.364-.034,2.03,2.03,0,0,1-1.579-1.438A1.993,1.993,0,0,1,125.618,81.119Z" transform="translate(-108.772 -72.363)" fill="#e5972d" fill-rule="evenodd"/>
        <path id="Path_1009927" data-name="Path 1009927" d="M264.232,81.119a2.025,2.025,0,0,1,1.655-1.988,2.328,2.328,0,0,0-.368-.03,2.019,2.019,0,0,0,0,4.037,1.926,1.926,0,0,0,.368-.034,2.024,2.024,0,0,1-1.579-1.438A1.994,1.994,0,0,1,264.232,81.119Z" transform="translate(-228.269 -72.363)" fill="#e5972d" fill-rule="evenodd"/>
        <path id="Path_1009928" data-name="Path 1009928" d="M191.889,78.8a2.416,2.416,0,0,1,.269-1.1,2.39,2.39,0,0,1,1.919-1.278c-.065,0-.13-.007-.2-.007a2.389,2.389,0,0,0-1.1,4.508,2.345,2.345,0,0,0,1.1.269,1.845,1.845,0,0,0,.2-.007,2.348,2.348,0,0,1-1.3-.524,2.38,2.38,0,0,1-.887-1.856Z" transform="translate(-166.188 -70.044)" fill="#e5972d" fill-rule="evenodd"/>
        <path id="Path_1009929" data-name="Path 1009929" d="M110.809,148.734V147.11h-.619v1.624a1.627,1.627,0,0,0,1.624,1.62h.615A1.624,1.624,0,0,1,110.809,148.734Z" transform="translate(-96.099 -130.995)" fill="#e6bf00" fill-rule="evenodd"/>
        <path id="Path_1009930" data-name="Path 1009930" d="M173.11,185.231v2.387h.618v-2.387a.972.972,0,0,1,.971-.971h-.615A.976.976,0,0,0,173.11,185.231Z" transform="translate(-150.343 -163.022)" fill="#e5972d" fill-rule="evenodd"/>
        <path id="Path_1009931" data-name="Path 1009931" d="M248.83,147.11v1.624a1.624,1.624,0,0,0,1.62,1.62h.618a1.627,1.627,0,0,1-1.624-1.62V147.11h-.614Z" transform="translate(-215.621 -130.995)" fill="#e6bf00" fill-rule="evenodd"/>
        <path id="Path_1009932" data-name="Path 1009932" d="M162.078,321.654a6.7,6.7,0,0,1,.316-5.266,6.695,6.695,0,0,1,5.342-3.642c-.2-.019-.405-.026-.615-.026a6.625,6.625,0,0,0-4.17,1.464,6.641,6.641,0,0,0-2.5,5.2,6.677,6.677,0,0,0,2.625,5.3,6.468,6.468,0,0,0,1.233.743v-.743a6.568,6.568,0,0,1-1.233-1.226,6.733,6.733,0,0,1-1-1.811Z" transform="translate(-139.428 -273.768)" fill="#65c43a" fill-rule="evenodd"/>
        <path id="Path_1009933" data-name="Path 1009933" d="M179.5,399.53v11.34l1.233-1.412v-9.185A6.539,6.539,0,0,1,179.5,399.53Z" transform="translate(-155.852 -348.608)" fill="#e63f3f" fill-rule="evenodd"/>
        <path id="Path_1009934" data-name="Path 1009934" d="M213.28,448.85l3.431,3.926v-1.411L213.9,448.14Z" transform="translate(-184.974 -390.515)" fill="#e63f3f" fill-rule="evenodd"/>
        <path id="Path_1009935" data-name="Path 1009935" d="M312.65,244.159a13.429,13.429,0,0,1,1.67-6.336,18.385,18.385,0,0,1,5.888-6.393h-.858a1.581,1.581,0,0,1-.7-.16,19.251,19.251,0,0,0-4.333,3.884,14.385,14.385,0,0,0-3.46,9,12.075,12.075,0,0,0,2.45,7.277,13.552,13.552,0,0,0,10.866,5.307c.3,0,.6-.011.895-.03a13.393,13.393,0,0,1-10.751-6.449A11.976,11.976,0,0,1,312.65,244.159Z" transform="translate(-269.098 -203.55)" fill="#cb9968" fill-rule="evenodd"/>
        <path id="Path_1009936" data-name="Path 1009936" d="M360.7,210.641a1.62,1.62,0,0,0,1.616,1.617h.858c.076-.054.156-.106.236-.16a1.649,1.649,0,0,1-.71-.663,1.6,1.6,0,0,1-.208-.793,1.62,1.62,0,0,1,1.1-1.525,1.575,1.575,0,0,1,.516-.087h-1.787A1.62,1.62,0,0,0,360.7,210.641Z" transform="translate(-312.065 -184.376)" fill="#008a2e" fill-rule="evenodd"/>
        <path id="Path_1009937" data-name="Path 1009937" d="M39.56,30.292a5.066,5.066,0,0,1,4.326,4.993v6.783h1.488V35.32a5.1,5.1,0,0,0-5.054-5.08h-.03A5.118,5.118,0,0,0,39.56,30.292Z" transform="translate(-35.208 -30.24)" fill="#7dc2e1" fill-rule="evenodd"/>
      </g>
      <g id="Group_1181145" data-name="Group 1181145" transform="translate(0 22.23)">
        <path id="Path_1009938" data-name="Path 1009938" d="M68.25,56.14a19.552,19.552,0,0,0-4.857-5.24,2.713,2.713,0,0,0-1.959-3.978l.787-1.824a2.83,2.83,0,0,0-.7-3.236,2.362,2.362,0,0,0-2.886-.243l-.483.3a.17.17,0,0,1-.207,0l-.477-.3a2.369,2.369,0,0,0-2.576,0l-.484.307a.172.172,0,0,1-.21,0l-.467-.3a2.362,2.362,0,0,0-2.894.236,2.838,2.838,0,0,0-.7,3.234l.789,1.827A2.712,2.712,0,0,0,48.968,50.9q-.8.6-1.539,1.277V28.413a6.19,6.19,0,0,0-6.183-6.183H6.184A6.19,6.19,0,0,0,0,28.413v6.75a1.1,1.1,0,0,0,1.1,1.1h9.061V71.22a1.1,1.1,0,0,0,1.1,1.1H21.794a7.811,7.811,0,0,0,1.857,2.448V85.6a1.1,1.1,0,0,0,1.933.725l3.21-3.683L32,86.321a1.1,1.1,0,0,0,1.933-.725V74.77A7.827,7.827,0,0,0,35.8,72.322h8.991A14.686,14.686,0,0,0,56.179,77.63c7.951,0,14.419-6.14,14.419-13.689a14.812,14.812,0,0,0-2.348-7.8ZM52.315,43.5a.175.175,0,0,1,.233-.015l.472.3a2.369,2.369,0,0,0,2.576,0l.484-.307a.17.17,0,0,1,.207,0l.477.3a2.368,2.368,0,0,0,2.573,0l.487-.307a.173.173,0,0,1,.225.022.621.621,0,0,1,.152.721l-1.151,2.665H53.313l-1.15-2.664a.629.629,0,0,1,.152-.725Zm-.961,5.592h9.659a.511.511,0,0,1,.2.98l-.007,0a.479.479,0,0,1-.193.04H51.355a.512.512,0,0,1,0-1.023ZM2.2,34.061V28.413a3.979,3.979,0,1,1,7.958,0v5.648ZM28.8,74.521a5.566,5.566,0,1,1,5.567-5.567A5.573,5.573,0,0,1,28.8,74.521Zm2.94,8.136-2.108-2.419a1.1,1.1,0,0,0-1.663,0l-2.108,2.419v-6.51a7.751,7.751,0,0,0,5.88,0ZM36.479,70.12a7.768,7.768,0,0,0-13.45-6.368H16.823a1.1,1.1,0,0,0,0,2.2h4.8a7.726,7.726,0,0,0-.6,3,7.924,7.924,0,0,0,.087,1.165H12.368V28.413a6.163,6.163,0,0,0-1.453-3.98H41.246a3.985,3.985,0,0,1,3.98,3.98V54.556a18.016,18.016,0,0,0-1.111,1.584,14.83,14.83,0,0,0-2.351,7.8,13.054,13.054,0,0,0,1.553,6.176Zm19.7,5.307c-6.735,0-12.214-5.152-12.214-11.484,0-4.279,2.62-8.712,6.868-11.675a2.676,2.676,0,0,0,.518.051h9.658a2.648,2.648,0,0,0,.516-.051C65.776,55.23,68.4,59.662,68.4,63.944c0,6.332-5.48,11.484-12.214,11.484Zm3.092-9.521a3.056,3.056,0,0,1-1.99,2.86v.841a1.1,1.1,0,0,1-2.2,0v-.728a3.1,3.1,0,0,1-1.771-1.156A1.1,1.1,0,1,1,55.074,66.4a.855.855,0,0,0,.688.352h.454a.85.85,0,1,0,0-1.7H55.99a1.126,1.126,0,0,1-.237-.026,3.056,3.056,0,0,1-.674-5.895V58.3a1.1,1.1,0,0,1,2.2,0v.724a3.071,3.071,0,0,1,1.776,1.168,1.1,1.1,0,0,1-1.777,1.3.85.85,0,0,0-.683-.347h-.454a.852.852,0,0,0,0,1.7h.226a1.126,1.126,0,0,1,.237.026,3.062,3.062,0,0,1,2.665,3.031Zm-26.293.041a1.1,1.1,0,0,1,0,1.558l-4.455,4.457a1.1,1.1,0,0,1-1.558,0L24.61,69.606a1.1,1.1,0,0,1,1.558-1.558l1.577,1.577,3.676-3.676a1.1,1.1,0,0,1,1.558,0Zm7.785-13.366a1.1,1.1,0,1,1,0,2.2H16.824a1.1,1.1,0,1,1,0-2.2Zm1.1,6.688a1.1,1.1,0,0,1-1.1,1.1H16.824a1.1,1.1,0,1,1,0-2.2H40.765A1.1,1.1,0,0,1,41.867,59.269ZM21.659,43.8a2.728,2.728,0,0,0,2.725-2.725V39.451a1.1,1.1,0,0,0-1.1-1.1h-.641l-1.384-3.882a3.138,3.138,0,0,0,.9-1.274h3.33A3.508,3.508,0,0,0,27.694,35.4v8.068H24.845a2.077,2.077,0,0,0-2.075,2.075V47.93a1.1,1.1,0,0,0,1.1,1.1h9.845a1.1,1.1,0,0,0,1.1-1.1V45.546a2.076,2.076,0,0,0-2.071-2.075H29.9V35.4a3.508,3.508,0,0,0,2.208-2.209h3.33a3.138,3.138,0,0,0,.9,1.274L34.953,38.35h-.641a1.1,1.1,0,0,0-1.1,1.1v1.622A2.728,2.728,0,0,0,35.935,43.8h4.839A2.728,2.728,0,0,0,43.5,41.073V39.451a1.1,1.1,0,0,0-1.1-1.1h-.637l-1.384-3.883a3.12,3.12,0,1,0-4.939-3.478H32.11a3.489,3.489,0,0,0-6.624,0H22.159a3.121,3.121,0,1,0-4.939,3.478L15.836,38.35h-.641a1.1,1.1,0,0,0-1.1,1.1v1.622A2.728,2.728,0,0,0,16.817,43.8Zm10.957,3.029H24.974V45.674h7.642Zm8.676-5.753a.52.52,0,0,1-.52.52H35.933a.527.527,0,0,1-.52-.52v-.52h5.878Zm-4-2.725,1.062-2.978,1.062,2.978Zm1.06-7.177a.916.916,0,1,1-.914.914.918.918,0,0,1,.914-.914ZM28.8,30.8a1.288,1.288,0,1,1-1.287,1.287A1.288,1.288,0,0,1,28.8,30.8Zm-9.557.371a.916.916,0,1,1-.918.914.915.915,0,0,1,.918-.914Zm0,4.2L20.3,38.35H18.176Zm-2.941,5.7v-.52h5.882v.52a.527.527,0,0,1-.52.52H16.816a.527.527,0,0,1-.52-.52Z" transform="translate(0 -22.23)"/>
      </g>
    </g>
  </g>
</svg>
