<svg xmlns="http://www.w3.org/2000/svg" width="70" height="70" viewBox="0 0 70 70">
  <g id="img3" transform="translate(-764.711 -1296)">
    <rect id="Rectangle_455332" data-name="Rectangle 455332" width="70" height="70" rx="10" transform="translate(764.711 1296)" fill="#cfde90"/>
    <g id="Group_1179508" data-name="Group 1179508" transform="translate(767.745 1307)">
      <g id="Group_1179506" data-name="Group 1179506" transform="translate(8.68 0.714)">
        <path id="Path_1006273" data-name="Path 1006273" d="M56.963,192.916l2.072-.463L53.93,180.8l-1.8.837Z" transform="translate(-48.637 -164.31)" fill="#a59da7"/>
        <path id="Path_1006274" data-name="Path 1006274" d="M71.5,189.113l-4.834-11.271-1.374.41,5.07,11.822Z" transform="translate(-60.547 -161.632)" fill="#877f87"/>
        <path id="Path_1006275" data-name="Path 1006275" d="M78.385,298.059a1.427,1.427,0,0,0-.763.782l-1.431,3.581a1.428,1.428,0,0,0,.014,1.092l2.136,4.981,6.492-2.91-1-4.676-2.688-4.031-.049.018Z" transform="translate(-70.32 -269.341)" fill="#a59da7"/>
        <path id="Path_1006276" data-name="Path 1006276" d="M134.171,304.092l-3.157-7.36a1.426,1.426,0,0,0-1.825-.767l3.691,8.706Z" transform="translate(-118.367 -268.426)" fill="#877f87"/>
        <path id="Path_1006277" data-name="Path 1006277" d="M21.953,87.418c0-.006-2.564,1.085-2.564,1.085l-.437,1.271-1.322-.516-1.3.559a1.427,1.427,0,0,0-.749,1.875L17.426,96l3.487-.916-.224-2.374Z" transform="translate(-15.463 -79.813)" fill="#c5bec6"/>
        <path id="Path_1006278" data-name="Path 1006278" d="M41.794,86.568a.714.714,0,0,0-.944-.921l-.228.1c0,.006,0,.011-.005.017l-1.461,3.656-1.1-2.571-1.759.754,2.128,4.962a.714.714,0,0,1-.375.937l-1.958.84.213.5a1.427,1.427,0,0,0,1.875.749l1.749-.75a1.427,1.427,0,0,0,.749-1.875l-.743-1.733Z" transform="translate(-34.126 -78.156)" fill="#b5adb7"/>
        <path id="Path_1006279" data-name="Path 1006279" d="M86.586,380.521c0-6.287-.175-7.963-2.076-9.655a7.362,7.362,0,0,0-1.942-.95l-4.932-1.566H54.783l-1.936.615-7.836,5.906a7.364,7.364,0,0,0-.3,2.071v2.46Z" transform="translate(-41.929 -334.012)" fill="#bce097"/>
        <path id="Path_1006280" data-name="Path 1006280" d="M84.51,394.787a7.36,7.36,0,0,1,1.3,4.174v4.03a.333.333,0,0,1-.333.333H44.713v1.9h9.225l5.107-1.363,3.84,1.363h6.8l5.183-.952,7.4.952H87.71v-4.363A7.373,7.373,0,0,0,84.51,394.787Z" transform="translate(-41.93 -357.932)" fill="#9cd169"/>
        <path id="Path_1006281" data-name="Path 1006281" d="M50.316,382.26a2.766,2.766,0,0,0,1.463-.416,2.78,2.78,0,1,0,3.924-3.9,2.78,2.78,0,0,0-.034-3.123l-2.992.95a7.373,7.373,0,0,0-4.844,4.956A2.78,2.78,0,0,0,50.316,382.26Z" transform="translate(-44.752 -339.868)" fill="#dcefc9"/>
        <path id="Path_1006282" data-name="Path 1006282" d="M159.324,447.63a2.781,2.781,0,0,0-2.781,2.781,2.817,2.817,0,0,0,.017.305,2.818,2.818,0,0,0-.305-.017,2.767,2.767,0,0,0-1.5.439l2.942.952,4.309-.952a2.776,2.776,0,0,0-2.683-3.508Z" transform="translate(-141.501 -405.746)" fill="#dcefc9"/>
        <path id="Path_1006283" data-name="Path 1006283" d="M149.785,485.306a2.77,2.77,0,0,0,.365-.809H142.9a2.781,2.781,0,0,0-1.247,1.9H150.6A2.789,2.789,0,0,0,149.785,485.306Z" transform="translate(-129.644 -439.106)" fill="#bce097"/>
        <path id="Path_1006284" data-name="Path 1006284" d="M307.816,427.856a2.781,2.781,0,1,0-5.1-1.536,2.818,2.818,0,0,0,.017.305,2.812,2.812,0,0,0-.305-.017,2.78,2.78,0,0,0-2.78,2.732l4.379.693,4.728-.693A2.782,2.782,0,0,0,307.816,427.856Z" transform="translate(-272.606 -383.948)" fill="#dcefc9"/>
        <path id="Path_1006285" data-name="Path 1006285" d="M308.745,484.5h-9.107c0,.016,0,.033,0,.049a2.77,2.77,0,0,0,.709,1.855h6.271Z" transform="translate(-272.594 -439.106)" fill="#bce097"/>
        <path id="Path_1006286" data-name="Path 1006286" d="M168.645,332.839l-13.372-2.071v2.071l-.008,0-4.735,1.5a17.064,17.064,0,0,0,22.854,0Z" transform="translate(-137.677 -300.005)" fill="#a59da7"/>
        <path id="Path_1006287" data-name="Path 1006287" d="M213.739,297.708v-5.766H200.367v3.695a29.4,29.4,0,0,0,3.454,2.786c2.373,1.754,3.552,2.117,5.136,2.117A4.965,4.965,0,0,0,213.739,297.708Z" transform="translate(-182.771 -264.874)" fill="#877f87"/>
        <path id="Path_1006288" data-name="Path 1006288" d="M174.2,27.895V17.988a11.183,11.183,0,0,0-4.52-9.119A13.225,13.225,0,0,0,163.654,7.5c-6.213,0-11.25,3.733-11.25,9.9v3.654l1.083,2.393L152.4,24.851v2.134c0,5.963,2.571,7.637,6.115,10.257,2.373,1.754,3.552,2.117,5.136,2.117a7.271,7.271,0,0,0,4.521-1.97c6.135-5.486,6.023-9.494,6.023-9.494Z" transform="translate(-139.372 -7.5)" fill="#a59da7"/>
        <path id="Path_1006289" data-name="Path 1006289" d="M281.876,30.417a9.257,9.257,0,0,0-5.225-8.528,12.4,12.4,0,0,1,3.322,8.528V40.893l-.032.021c-.377,5.375-4.017,8.254-5.131,9.347a6.262,6.262,0,0,1-4.184,2.117c1.584,0,2.763-.363,5.136-2.117,3.544-2.62,6.115-4.294,6.115-10.257V37.9l-.968-1.437s.952-2.387.968-2.392V30.417Z" transform="translate(-246.344 -20.52)" fill="#877f87"/>
        <path id="Path_1006290" data-name="Path 1006290" d="M364.473,359.761l-5.353-1.729a1.427,1.427,0,0,0-1.8.919l.919,1.8a1.427,1.427,0,0,0-1.8.919l.9,1.792a1.427,1.427,0,0,0-1.778.925l.88,1.787a1.426,1.426,0,0,0-1.758.93l.861,1.782a1.426,1.426,0,0,0-1.739.935l4.679,1.9,2.367.01.1-1.1,2.633-8.15s1.105-1.716.878-2.716Z" transform="translate(-321.614 -324.611)" fill="#faf0b0"/>
        <g id="Group_1179505" data-name="Group 1179505" transform="translate(32.129 34.34)">
          <path id="Path_1006291" data-name="Path 1006291" d="M397.19,369.164h0a1.427,1.427,0,0,1-1.8.919l-5.353-1.729h0a1.427,1.427,0,0,0,.919,1.8l5.353,1.729a1.427,1.427,0,0,0,.878-2.717Z" transform="translate(-386.46 -368.354)" fill="#f7e365"/>
          <path id="Path_1006292" data-name="Path 1006292" d="M387.968,397.71h0a1.427,1.427,0,0,1-1.8.919l-5.353-1.729h0a1.427,1.427,0,0,0,.919,1.8l5.353,1.729a1.427,1.427,0,1,0,.878-2.717Z" transform="translate(-378.116 -394.183)" fill="#f7e365"/>
          <path id="Path_1006293" data-name="Path 1006293" d="M370.4,426.257h0a1.427,1.427,0,0,1-1.8.919l-5.353-1.729h0a1.427,1.427,0,0,0,.919,1.8l5.353,1.729a1.427,1.427,0,0,1-1.8.919l-5.353-1.729h0a1.427,1.427,0,0,0,.919,1.8l5.353,1.729a3.192,3.192,0,0,1,2.675-3.636A1.427,1.427,0,0,0,370.4,426.257Z" transform="translate(-361.425 -420.014)" fill="#f7e365"/>
          <path id="Path_1006294" data-name="Path 1006294" d="M354.975,484.632h6.311a1.427,1.427,0,0,0-.985-1.279h0a1.428,1.428,0,0,1-1.8.919l-5.353-1.729h0a1.428,1.428,0,0,0,.919,1.8Z" transform="translate(-353.081 -471.677)" fill="#f7e365"/>
        </g>
        <path id="Path_1006295" data-name="Path 1006295" d="M21.953,87.418c0-.006-2.564,1.085-2.564,1.085l-.437,1.271-1.322-.516-1.3.559a1.427,1.427,0,0,0-.749,1.875L17.426,96l3.487-.916-.224-2.374Z" transform="translate(-15.463 -79.813)" fill="#c5bec6"/>
        <path id="Path_1006296" data-name="Path 1006296" d="M41.794,86.568a.714.714,0,0,0-.944-.921l-.228.1c0,.006,0,.011-.005.017l-1.461,3.656-1.1-2.571-1.759.754,2.128,4.962a.714.714,0,0,1-.375.937l-1.958.84.213.5a1.427,1.427,0,0,0,1.875.749l1.749-.75a1.427,1.427,0,0,0,.749-1.875l-.743-1.733Z" transform="translate(-34.126 -78.156)" fill="#b5adb7"/>
        <path id="Path_1006297" data-name="Path 1006297" d="M163.654,151.622a39.7,39.7,0,0,1-11.25-1.713v3.8c0,2.313,3.434,5.32,7.509,2.8l2.372-1.517a2.542,2.542,0,0,1,2.74,0L167.4,156.5a5.1,5.1,0,0,0,5.573.247l.9-3.065L173,150.44A55.727,55.727,0,0,1,163.654,151.622Z" transform="translate(-139.372 -136.357)" fill="#ffdecf"/>
        <path id="Path_1006298" data-name="Path 1006298" d="M368.54,150.445v5.4c0,.311-.011.614-.032.91a3.883,3.883,0,0,0,1.936-3.013v-3.829C370.424,149.921,369.722,150.153,368.54,150.445Z" transform="translate(-334.911 -136.362)" fill="#ffc5ae"/>
      </g>
      <g id="Group_1179507" data-name="Group 1179507" transform="translate(7.966 0)">
        <path id="Path_1006299" data-name="Path 1006299" d="M53.025,38.157a2.132,2.132,0,0,0-1.267-2.972L46.4,33.455a2.144,2.144,0,0,0-2.361.74l-3.682-1.169V29.653a15.161,15.161,0,0,0,2.2-2.021.714.714,0,1,0-1.08-.934,20.609,20.609,0,0,1-3.428,2.9l-.377.278c-1.849,1.367-2.968,1.977-4.711,1.977-1.409,0-2.423-.285-4.711-1.977l-.378-.279c-3.1-2.284-5.2-3.836-5.427-8.543a4.965,4.965,0,0,0,1.062.8,5.9,5.9,0,0,0,6.089-.387l.009-.006,2.372-1.517a1.834,1.834,0,0,1,1.971,0l2.372,1.517.009.006a6.633,6.633,0,0,0,3.483,1.061,5.318,5.318,0,0,0,2.606-.674,4.962,4.962,0,0,0,1.062-.8,10.877,10.877,0,0,1-.63,3.36.714.714,0,1,0,1.335.507,13.225,13.225,0,0,0,.743-4.727V10.611A9.851,9.851,0,0,0,41.375,2.8,13.066,13.066,0,0,0,32.962,0a13.808,13.808,0,0,0-6.723,1.644.714.714,0,1,0,.7,1.246,12.38,12.38,0,0,1,6.028-1.463,11.643,11.643,0,0,1,7.5,2.471A8.465,8.465,0,0,1,43.5,10.611v3.126a39.791,39.791,0,0,1-10.537,1.527,39.791,39.791,0,0,1-10.537-1.527V10.611a8.582,8.582,0,0,1,2.222-5.935.714.714,0,0,0-1.05-.967,9.985,9.985,0,0,0-2.6,6.9V20.2c0,5.192,1.921,7.388,4.564,9.454v3.374l-1.531.486-2.048-4.774a2.144,2.144,0,0,0-1.9-1.3L15.712,17.249a2.163,2.163,0,0,0,.193-.373,2.127,2.127,0,0,0-.02-1.639l-.627-1.462L17.01,9.39a1.427,1.427,0,0,0-1.888-1.842l-2.794,1.2,0,0,0,0L9.264,10.061A2.144,2.144,0,0,0,8.14,12.873l2.06,4.8a2.127,2.127,0,0,0,1.173,1.144,2.161,2.161,0,0,0,.4.117l1.735,4.044a.714.714,0,1,0,1.312-.563L13.23,18.705l1.312-.563,4.15,9.677-1.312.563-1.447-3.373a.714.714,0,1,0-1.312.563l1.464,3.413a2.126,2.126,0,0,0-.766.964l-1.431,3.581a2.127,2.127,0,0,0,.02,1.639l.683,1.592a8.053,8.053,0,0,0-3.842,6.886v4.363a.714.714,0,0,0,1.427,0V43.646c0-.164.007-.326.018-.487a3.5,3.5,0,0,0,3.362.4,3.495,3.495,0,0,0,4.957-4.905,3.486,3.486,0,0,0,.094-2.562l.762-.242a19.092,19.092,0,0,0,10.878,4.287v7.867a.714.714,0,0,0,1.427,0V40.142a18.78,18.78,0,0,0,9.53-3.281,2.135,2.135,0,0,0-.292,2.217,2.125,2.125,0,0,0-.649.582A3.5,3.5,0,0,0,38.1,42.683a3.495,3.495,0,0,0-2.2,5.8.714.714,0,0,0,1.063-.952,2.067,2.067,0,0,1,1.54-3.446,2.125,2.125,0,0,1,.228.013.714.714,0,0,0,.787-.787,2.055,2.055,0,0,1,2.336-2.274,2.128,2.128,0,0,0,.182.753,2.134,2.134,0,0,0-.877,2.718,2.138,2.138,0,0,0,.418,3.885l.906.293a.714.714,0,1,0,.439-1.358l-.906-.293a.714.714,0,0,1,.439-1.358l5.353,1.729a.719.719,0,0,1,.494.64.714.714,0,1,0,1.425-.079,2.121,2.121,0,0,0-.184-.75,2.132,2.132,0,0,0,.878-2.717,2.135,2.135,0,0,0,.879-2.717,2.136,2.136,0,0,0,1.025-2.25,6.684,6.684,0,0,1,1.421,4.11v4.363a.714.714,0,0,0,1.427,0V43.646a8.118,8.118,0,0,0-2.149-5.489ZM27.807,16.328V17.74a.714.714,0,0,0,1.427,0V16.5a36.979,36.979,0,0,0,3.727.194,36.979,36.979,0,0,0,3.727-.194V17.74a.714.714,0,0,0,1.427,0V16.328a41.226,41.226,0,0,0,5.382-1.1v2.841a3.241,3.241,0,0,1-1.776,2.543,4.392,4.392,0,0,1-4.638-.351l-2.367-1.514a3.266,3.266,0,0,0-3.509,0L28.84,20.257a4.393,4.393,0,0,1-4.638.351,3.241,3.241,0,0,1-1.776-2.543V15.225a41.22,41.22,0,0,0,5.382,1.1ZM50.858,39.613a.714.714,0,0,1-.855,1l-.678-.219a.714.714,0,0,0-.439,1.358l.678.219a.714.714,0,0,1-.439,1.358L43.772,41.6a.714.714,0,1,1,.439-1.358l1.805.583a.714.714,0,1,0,.439-1.358l-1.805-.583a.714.714,0,1,1,.439-1.358l5.353,1.729a.709.709,0,0,1,.416.354Zm-1.711,5.978a.714.714,0,0,1-.9.46l-5.353-1.729a.714.714,0,0,1,.439-1.358l5.353,1.729A.714.714,0,0,1,49.146,45.591Zm-3.18-10.778,5.353,1.729a.714.714,0,1,1-.439,1.358l-5.353-1.729a.714.714,0,1,1,.439-1.358ZM15.684,8.861,14.462,11.92l-.918-2.141Zm-3.236,8.626a.714.714,0,0,1-.937-.375l-2.06-4.8a.715.715,0,0,1,.375-.937l2.405-1.031L14.572,15.8a.714.714,0,0,1-.375.937ZM15.22,34.605a.709.709,0,0,1-.007-.546l1.431-3.581a.71.71,0,0,1,.382-.391l2.708-1.161a.715.715,0,0,1,.937.375l1.992,4.646-6.275,1.993c-.176.056-.347.118-.517.185Zm4.16,2.651a2.056,2.056,0,0,1-.344,1.141.714.714,0,0,0,.143.948,2.067,2.067,0,1,1-2.917,2.9.714.714,0,0,0-.932-.159,2.067,2.067,0,0,1-2.8-.6A6.633,6.633,0,0,1,16.82,37.3l2.427-.771a2.062,2.062,0,0,1,.133.727Zm6.688-2.893a9.859,9.859,0,0,0,6.894,2.617,11.1,11.1,0,0,0,1.639-.12.714.714,0,0,0-.211-1.412,9.67,9.67,0,0,1-1.428.1,8.364,8.364,0,0,1-5.972-2.284V30.725l.036.027.376.277c2.58,1.908,3.9,2.257,5.56,2.257s2.98-.349,5.56-2.257l.375-.277.037-.027v2.541a7.644,7.644,0,0,1-2.061,1.426.714.714,0,1,0,.617,1.287,9.153,9.153,0,0,0,2.365-1.616l3.041.966a17.468,17.468,0,0,1-9.934,3.4,17.516,17.516,0,0,1-9.931-3.4Z" transform="translate(-7.966 0)"/>
        <path id="Path_1006300" data-name="Path 1006300" d="M143.878,445.028a3.495,3.495,0,1,0-6.672-1.806,3.474,3.474,0,0,0-3.049,2.922.714.714,0,0,0,.593.816.725.725,0,0,0,.112.009.714.714,0,0,0,.7-.6,2.056,2.056,0,0,1,2.041-1.741,2.129,2.129,0,0,1,.228.013.714.714,0,0,0,.787-.787,2.067,2.067,0,1,1,4.121-.228,2.056,2.056,0,0,1-.344,1.141.714.714,0,0,0,.143.948,2.079,2.079,0,0,1,.605.814.714.714,0,1,0,1.32-.544,3.5,3.5,0,0,0-.59-.956Z" transform="translate(-122.14 -398.247)"/>
      </g>
    </g>
  </g>
</svg>
