<svg xmlns="http://www.w3.org/2000/svg" width="70" height="70" viewBox="0 0 70 70">
  <g id="img4" transform="translate(-764.711 -1458)">
    <rect id="Rectangle_455332" data-name="Rectangle 455332" width="70" height="70" rx="10" transform="translate(764.711 1458)" fill="#cfde90"/>
    <g id="Group_1178839" data-name="Group 1178839" transform="translate(778.711 1472)">
      <g id="Group_1178837" data-name="Group 1178837" transform="translate(0.679 0.679)">
        <g id="Group_1178824" data-name="Group 1178824" transform="translate(34.649 14.947)">
          <ellipse id="Ellipse_13688" data-name="Ellipse 13688" cx="1.5" cy="1" rx="1.5" ry="1" transform="translate(-0.267 0.435)" fill="#fcd770"/>
        </g>
        <g id="Group_1178825" data-name="Group 1178825" transform="translate(35.328 5.435)">
          <circle id="Ellipse_13689" data-name="Ellipse 13689" cx="2.5" cy="2.5" r="2.5" transform="translate(0.054 -0.053)" fill="#fcd770"/>
        </g>
        <g id="Group_1178826" data-name="Group 1178826" transform="translate(29.893)">
          <circle id="Ellipse_13690" data-name="Ellipse 13690" cx="2" cy="2" r="2" transform="translate(0.489 0.381)" fill="#fcd770"/>
        </g>
        <g id="Group_1178827" data-name="Group 1178827" transform="translate(2.038 0.679)">
          <circle id="Ellipse_13691" data-name="Ellipse 13691" cx="4" cy="4" r="4" transform="translate(0.344 -0.297)" fill="#fcd770"/>
        </g>
        <g id="Group_1178828" data-name="Group 1178828" transform="translate(6.794 11.55)">
          <circle id="Ellipse_13692" data-name="Ellipse 13692" cx="1.5" cy="1.5" r="1.5" transform="translate(-0.412 -0.168)" fill="#fcd770"/>
        </g>
        <g id="Group_1178829" data-name="Group 1178829" transform="translate(0.679 14.267)">
          <circle id="Ellipse_13693" data-name="Ellipse 13693" cx="2" cy="2" r="2" transform="translate(-0.298 0.115)" fill="#fcd770"/>
        </g>
        <g id="Group_1178830" data-name="Group 1178830" transform="translate(13.588)">
          <path id="Path_1001708" data-name="Path 1001708" d="M26.435,3.038A2.035,2.035,0,0,1,28.473,1h2.718a3.387,3.387,0,0,1,3.4,3.4l-3.4,4.756H24.4L21,4.4A3.387,3.387,0,0,1,24.4,1a2.041,2.041,0,0,1,2.038,2.038Z" transform="translate(-21 -1)" fill="#d3a06c"/>
        </g>
        <g id="Group_1178831" data-name="Group 1178831" transform="translate(9.511 8.153)">
          <path id="Path_1001709" data-name="Path 1001709" d="M36.74,26.588a11.314,11.314,0,0,1-.149,1.807,2.125,2.125,0,0,0-.136.2,2.706,2.706,0,0,0-1.753-.652,2.539,2.539,0,0,0-.686.1c0-.034.007-.068.007-.1a2.718,2.718,0,0,0-5.435,0,2.7,2.7,0,0,0-2.038.938,2.692,2.692,0,0,0-3.56-.469,2.7,2.7,0,0,0-5.109,0,2.671,2.671,0,0,0-1.522-.469,2.7,2.7,0,0,0-1.236.3A11.137,11.137,0,0,1,15,26.588v-.319a10.849,10.849,0,0,1,2.324-6.712L22.473,13h6.794l5.15,6.556a10.849,10.849,0,0,1,2.324,6.712Z" transform="translate(-15 -13)" fill="#cf9e76"/>
        </g>
        <g id="Group_1178832" data-name="Group 1178832" transform="translate(1.359 29.893)">
          <path id="Path_1001710" data-name="Path 1001710" d="M3,45l.523,8.323A2.715,2.715,0,0,0,6.234,55.87H37.289a2.715,2.715,0,0,0,2.7-2.378L41.046,45Z" transform="translate(-3 -45)" fill="#ccd1d9"/>
        </g>
        <g id="Group_1178833" data-name="Group 1178833" transform="translate(32.611 27.176)">
          <path id="Path_1001711" data-name="Path 1001711" d="M57.153,41.679v1.359a.681.681,0,0,1-.679.679H49V41h7.473A.681.681,0,0,1,57.153,41.679Z" transform="translate(-49 -41)" fill="#aab2bd"/>
        </g>
        <g id="Group_1178834" data-name="Group 1178834" transform="translate(0 27.176)">
          <path id="Path_1001712" data-name="Path 1001712" d="M25.458,41v2.718H1.679A.681.681,0,0,1,1,43.038V41.679A.681.681,0,0,1,1.679,41H25.458Z" transform="translate(-1 -41)" fill="#aab2bd"/>
        </g>
        <g id="Group_1178835" data-name="Group 1178835" transform="translate(1.359 20.382)">
          <path id="Path_1001713" data-name="Path 1001713" d="M38.328,35.076a2.678,2.678,0,0,0-.741.115,2.7,2.7,0,0,0-4.844-1.026,2.126,2.126,0,0,0-.136.2,2.706,2.706,0,0,0-1.753-.652,2.539,2.539,0,0,0-.686.1c0-.034.007-.068.007-.1a2.718,2.718,0,0,0-5.435,0,2.7,2.7,0,0,0-2.038.938,2.692,2.692,0,0,0-3.56-.469,2.7,2.7,0,0,0-5.109,0,2.671,2.671,0,0,0-1.522-.469,2.7,2.7,0,0,0-1.236.3,1.977,1.977,0,0,0-.285.17,2.71,2.71,0,0,0-5.272.89A2.717,2.717,0,0,0,3,37.794H41.046A2.717,2.717,0,0,0,38.328,35.076Z" transform="translate(-3 -31)" fill="#69d6f4"/>
        </g>
        <g id="Group_1178836" data-name="Group 1178836" transform="translate(24.458 25.817)">
          <path id="Path_1001714" data-name="Path 1001714" d="M45.153,43.076v2.718a1.359,1.359,0,0,1-2.718,0V44.435a1.363,1.363,0,0,0-1.359-1.359,1.369,1.369,0,0,0-1.359,1.359V49.87a1.363,1.363,0,0,1-1.359,1.359A1.369,1.369,0,0,1,37,49.87V40.359A1.363,1.363,0,0,1,38.359,39h5.435a1.363,1.363,0,0,1,1.359,1.359Z" transform="translate(-37 -39)" fill="#4fc1e9"/>
        </g>
      </g>
      <g id="Group_1178838" data-name="Group 1178838" transform="translate(0)">
        <path id="Path_1001715" data-name="Path 1001715" d="M30.4,24.794H29.038a.68.68,0,0,1-.679-.679H27a2.041,2.041,0,0,0,2.038,2.038v1.359H30.4V26.153a2.038,2.038,0,0,0,0-4.076H29.038a.679.679,0,1,1,0-1.359H30.4a.68.68,0,0,1,.679.679h1.359A2.041,2.041,0,0,0,30.4,19.359V18H29.038v1.359a2.038,2.038,0,1,0,0,4.076H30.4a.679.679,0,0,1,0,1.359Z" transform="translate(-8.657 -5.771)"/>
        <path id="Path_1001716" data-name="Path 1001716" d="M40.763,27.176h-.069a3.4,3.4,0,0,0-3.328-2.718,2.776,2.776,0,0,0-.279.014,3.414,3.414,0,0,0-3.118-2.052,3.37,3.37,0,0,0-1.371.29c0-.1.012-.194.012-.29V22.1a11.6,11.6,0,0,0-2.468-7.136L25.307,8.812l3.228-4.519V4.076A4.08,4.08,0,0,0,24.458,0H21.74A2.7,2.7,0,0,0,19.7.939,2.7,2.7,0,0,0,17.664,0a4.08,4.08,0,0,0-4.076,4.076v.217l3.228,4.519L11.98,14.967A11.6,11.6,0,0,0,9.511,22.1v.317s0,.008,0,.013a3.366,3.366,0,0,0-2.039-.692,3.4,3.4,0,0,0-3.34,2.775,3.4,3.4,0,0,0-2.7,2.66H1.359A1.36,1.36,0,0,0,0,28.534v1.359a1.36,1.36,0,0,0,1.359,1.359H1.4l.48,7.686a3.4,3.4,0,0,0,3.39,3.184H36.326a3.4,3.4,0,0,0,3.37-2.976l.987-7.894h.079a1.36,1.36,0,0,0,1.359-1.359V28.534a1.36,1.36,0,0,0-1.359-1.359ZM17.664,1.359a1.36,1.36,0,0,1,1.359,1.359V4.076h1.359V2.718A1.36,1.36,0,0,1,21.74,1.359h2.718a2.721,2.721,0,0,1,2.709,2.51L24.109,8.153h-.747L24.423,4.97l-1.288-.43-1.2,3.612H20.191l-1.2-3.612-1.288.43L18.76,8.153h-.747L14.954,3.869a2.722,2.722,0,0,1,2.71-2.51ZM10.87,22.1a10.24,10.24,0,0,1,2.177-6.3l4.947-6.3h6.133l4.947,6.3a10.233,10.233,0,0,1,2.178,6.3v.317c0,.319-.018.639-.048.955a3.207,3.207,0,0,0-1.379-.275,3.4,3.4,0,0,0-6.668.058,3.38,3.38,0,0,0-1.416.633,3.439,3.439,0,0,0-3.254-.467,3.375,3.375,0,0,0-5.72,0,3.446,3.446,0,0,0-1.867-.158c-.018-.247-.029-.5-.029-.746ZM4.756,25.817h.679v-.679a2.031,2.031,0,0,1,3.951-.669l.292.834.73-.5a2.07,2.07,0,0,1,2.281,0l.73.5.292-.834a2.021,2.021,0,0,1,3.827,0l.292.834.73-.5a2.06,2.06,0,0,1,2.667.356l.512.585.512-.585a2.008,2.008,0,0,1,1.527-.705h.679v-.679a2.039,2.039,0,0,1,4.078-.042l-.047,1.033.888-.234a1.925,1.925,0,0,1,1.826.416l.612.52.41-.69a2.022,2.022,0,0,1,1.744-1,2.046,2.046,0,0,1,1.993,1.614l.151.711.7-.2a1.979,1.979,0,0,1,2.468,1.27H33.844a2.035,2.035,0,0,0-1.913-1.359H26.5a2.035,2.035,0,0,0-1.913,1.359H2.843a2.035,2.035,0,0,1,1.913-1.359Zm24.458,4.076a2.041,2.041,0,0,0-2.038,2.038v5.435a.679.679,0,1,1-1.359,0V27.855a.68.68,0,0,1,.679-.679h5.435a.68.68,0,0,1,.679.679V33.29a.679.679,0,0,1-1.359,0V31.931A2.041,2.041,0,0,0,29.214,29.893ZM1.359,28.534h23.1v1.359H1.359ZM38.348,38.978a2.041,2.041,0,0,1-2.022,1.785H5.271a2.041,2.041,0,0,1-2.034-1.911l-.476-7.6h21.7v6.114a2.038,2.038,0,1,0,4.076,0V31.931a.679.679,0,0,1,1.359,0V33.29a2.038,2.038,0,0,0,4.076,0V31.252h5.345Zm2.415-9.085H33.969V28.534h6.794Z" transform="translate(0 0)"/>
        <path id="Path_1001717" data-name="Path 1001717" d="M7.8,51.947l-1.356.085.172,2.754A1.361,1.361,0,0,0,7.976,56.06h7V54.7h-7Z" transform="translate(-2.067 -16.655)"/>
        <path id="Path_1001718" data-name="Path 1001718" d="M3.718,26.435A2.718,2.718,0,1,0,1,23.718,2.72,2.72,0,0,0,3.718,26.435Zm0-4.076a1.359,1.359,0,1,1-1.359,1.359A1.36,1.36,0,0,1,3.718,22.359Z" transform="translate(-0.321 -6.733)"/>
        <path id="Path_1001719" data-name="Path 1001719" d="M7.756,10.511A4.756,4.756,0,1,0,3,5.756,4.762,4.762,0,0,0,7.756,10.511Zm0-8.153a3.4,3.4,0,1,1-3.4,3.4A3.4,3.4,0,0,1,7.756,2.359Z" transform="translate(-0.962 -0.321)"/>
        <path id="Path_1001720" data-name="Path 1001720" d="M9.038,6.359V5A2.041,2.041,0,0,0,7,7.038H8.359A.68.68,0,0,1,9.038,6.359Z" transform="translate(-2.244 -1.603)"/>
        <path id="Path_1001721" data-name="Path 1001721" d="M51,24.038A2.038,2.038,0,1,0,53.038,22,2.041,2.041,0,0,0,51,24.038Zm2.718,0a.679.679,0,1,1-.679-.679A.68.68,0,0,1,53.718,24.038Z" transform="translate(-16.351 -7.053)"/>
        <path id="Path_1001722" data-name="Path 1001722" d="M55.4,14.794A3.4,3.4,0,1,0,52,11.4,3.4,3.4,0,0,0,55.4,14.794Zm0-5.435A2.038,2.038,0,1,1,53.359,11.4,2.041,2.041,0,0,1,55.4,9.359Z" transform="translate(-16.672 -2.565)"/>
        <path id="Path_1001723" data-name="Path 1001723" d="M46.718,5.435A2.718,2.718,0,1,0,44,2.718,2.72,2.72,0,0,0,46.718,5.435Zm0-4.076a1.359,1.359,0,1,1-1.359,1.359A1.36,1.36,0,0,1,46.718,1.359Z" transform="translate(-14.107)"/>
        <path id="Path_1001724" data-name="Path 1001724" d="M10,19.038A2.038,2.038,0,1,0,12.038,17,2.041,2.041,0,0,0,10,19.038Zm2.718,0a.679.679,0,1,1-.679-.679A.68.68,0,0,1,12.718,19.038Z" transform="translate(-3.206 -5.45)"/>
        <path id="Path_1001725" data-name="Path 1001725" d="M21,56h1.359v1.359H21Z" transform="translate(-6.733 -17.954)"/>
      </g>
    </g>
  </g>
</svg>
