<svg xmlns="http://www.w3.org/2000/svg" xmlns:xlink="http://www.w3.org/1999/xlink" width="396" height="260" viewBox="0 0 396 260">
  <defs>
    <clipPath id="clip-path">
      <rect id="Rectangle_455712" data-name="Rectangle 455712" width="322.948" height="247.28" fill="none"/>
    </clipPath>
    <clipPath id="clip-path-3">
      <rect id="Rectangle_455566" data-name="Rectangle 455566" width="309.462" height="207.691" fill="none"/>
    </clipPath>
    <clipPath id="clip-path-4">
      <rect id="Rectangle_455567" data-name="Rectangle 455567" width="309.462" height="207.69" fill="none"/>
    </clipPath>
    <clipPath id="clip-path-5">
      <path id="Path_1001570" data-name="Path 1001570" d="M334.969,392.1c6.274,16.358,19.759,24.006,23.763,26.089a5.7,5.7,0,0,0,2.28-5.072c-3.442-2.408-14.327-10.677-17.429-25.277a38.516,38.516,0,0,1-.426-13.427l-11.134-3.694a48.192,48.192,0,0,0,2.947,21.381" transform="translate(-331.837 -370.718)" fill="none"/>
    </clipPath>
    <linearGradient id="linear-gradient" x1="-0.558" y1="4.471" x2="-0.556" y2="4.471" gradientUnits="objectBoundingBox">
      <stop offset="0" stop-color="#33c1e2"/>
      <stop offset="0.327" stop-color="#36c1e2"/>
      <stop offset="0.59" stop-color="#40c3e4"/>
      <stop offset="0.83" stop-color="#51c7e8"/>
      <stop offset="1" stop-color="#62cbec"/>
    </linearGradient>
  </defs>
  <g id="img8" transform="translate(-185.711 -3132)">
    <path id="Rectangle_455360" data-name="Rectangle 455360" d="M20,0H376a20,20,0,0,1,20,20V198a0,0,0,0,1,0,0H0a0,0,0,0,1,0,0V20A20,20,0,0,1,20,0Z" transform="translate(185.711 3194)" fill="#fff1e5"/>
    <rect id="Rectangle_455713" data-name="Rectangle 455713" width="396" height="64" transform="translate(185.711 3328)" fill="#fdd1aa"/>
    <g id="Group_1178772" data-name="Group 1178772" transform="translate(222.236 3132)">
      <g id="Group_1178784" data-name="Group 1178784" clip-path="url(#clip-path)">
        <g id="Group_1178779" data-name="Group 1178779" transform="translate(0 0)">
          <g id="Group_1178778" data-name="Group 1178778" clip-path="url(#clip-path)">
            <g id="Group_1178774" data-name="Group 1178774" transform="translate(13.486 0)" opacity="0.42">
              <g id="Group_1178773" data-name="Group 1178773">
                <g id="Group_1178772-2" data-name="Group 1178772" clip-path="url(#clip-path-3)">
                  <path id="Path_1001401" data-name="Path 1001401" d="M156.417,83.947c-6.8,14.382-27.3,9.9-41.955,26.174-15.22,16.909-15.875,46.206,2,64.383,18.134,18.444,48.1,18.072,62.713,17.891,24.012-.3,32.984-6.926,52-10.677,66.562-13.128,103.105,39.207,145.807,22.732,23.236-8.965,39.2-34.817,34.8-53.457-7.531-31.907-76.789-38.982-73.707-54.892,2.589-13.369,51.823-10.071,60.368-29.833,7.662-17.717-22.593-41.914-43.789-52.691C344.881,8.61,316.3-6.431,292.242,3.1,273.211,10.643,273.6,25.934,256.91,29.284c-20.122,4.039-27.737-16.773-56.288-19.086-21.036-1.7-47.864,7.085-54.282,22.73C138.795,51.32,164.619,66.6,156.417,83.947" transform="translate(-103.045 -0.001)" fill="#d5f0ff"/>
                </g>
              </g>
            </g>
            <g id="Group_1178777" data-name="Group 1178777" transform="translate(4.615 8.038)" opacity="0.39">
              <g id="Group_1178776" data-name="Group 1178776">
                <g id="Group_1178775" data-name="Group 1178775" clip-path="url(#clip-path-4)">
                  <path id="Path_1001402" data-name="Path 1001402" d="M88.637,145.365c-6.8,14.382-27.3,9.9-41.955,26.174-15.22,16.908-15.875,46.206,2,64.383,18.134,18.444,48.1,18.072,62.713,17.891,24.012-.3,32.984-6.926,52-10.677,66.562-13.128,103.105,39.207,145.807,22.732,23.236-8.965,39.2-34.817,34.8-53.457-7.53-31.907-76.788-38.982-73.707-54.892,2.589-13.369,51.823-10.071,60.368-29.833,7.662-17.717-22.593-41.914-43.789-52.691-9.769-4.967-38.354-20.008-62.408-10.476C205.431,72.061,205.821,87.352,189.13,90.7c-20.122,4.039-27.737-16.773-56.288-19.086-21.036-1.7-47.864,7.085-54.282,22.73-7.546,18.392,18.278,33.673,10.076,51.019" transform="translate(-35.265 -61.42)" fill="#d5f0ff"/>
                </g>
              </g>
            </g>
            <path id="Path_1001403" data-name="Path 1001403" d="M330.623,1226.568c8.221-9.349-.921-46.635-17.485-44.621a20.141,20.141,0,0,0-12.318,6.527c-5.609,6.1-6.752,14.113-6.884,15.033-2.79,19.558,28.4,32.481,36.687,23.061" transform="translate(-255.314 -1027.191)" fill="#62cbec"/>
            <path id="Path_1001404" data-name="Path 1001404" d="M326.335,1242.1c8.221-9.35-.921-46.636-17.485-44.621a20.143,20.143,0,0,0-12.317,6.527c-5.609,6.1-6.753,14.113-6.884,15.033-2.791,19.559,28.4,32.481,36.686,23.061" transform="translate(-251.587 -1040.693)" fill="#bbe6f9"/>
            <path id="Path_1001405" data-name="Path 1001405" d="M407.49,1298.7l.012-.019c.17-.277.156-.587-.031-.692a72.225,72.225,0,0,1-22.355-19.649,87.01,87.01,0,0,1-12.046-22.388c-.083-.225-.343-.25-.582-.057a.751.751,0,0,0-.282.756,87.635,87.635,0,0,0,12.134,22.55A72.746,72.746,0,0,0,406.855,1299c.183.1.463-.028.634-.293" transform="translate(-323.471 -1091.422)" fill="#fff"/>
            <path id="Path_1001406" data-name="Path 1001406" d="M335.476,1337.757a.805.805,0,0,0,.126-.337c.034-.288-.142-.463-.392-.392a14.053,14.053,0,0,1-6.522.4,10.212,10.212,0,0,1-5.081-2.542c-.158-.146-.446-.057-.643.2a.58.58,0,0,0-.07.731,10.734,10.734,0,0,0,5.34,2.672,14.77,14.77,0,0,0,6.854-.418.73.73,0,0,0,.388-.312" transform="translate(-280.548 -1160.119)" fill="#fff"/>
            <path id="Path_1001407" data-name="Path 1001407" d="M397.416,1460.855a.729.729,0,0,0,.127-.468c-.033-.259-.262-.353-.512-.21a19.542,19.542,0,0,1-6.871,2.478,12.3,12.3,0,0,1-6.033-.531c-.2-.074-.49.1-.639.384s-.1.58.1.654a12.925,12.925,0,0,0,6.34.558,20.53,20.53,0,0,0,7.221-2.6.8.8,0,0,0,.268-.26" transform="translate(-333.222 -1269.017)" fill="#fff"/>
            <path id="Path_1001408" data-name="Path 1001408" d="M448.6,1286.51a35.8,35.8,0,0,0,3.326-6.482,29.725,29.725,0,0,0,1.969-8.2c.025-.285-.159-.45-.411-.369a.814.814,0,0,0-.5.663,28.281,28.281,0,0,1-1.873,7.8,34.362,34.362,0,0,1-4.244,7.74c-.191.263-.212.587-.046.724s.454.035.645-.227q.591-.813,1.134-1.651" transform="translate(-388.248 -1105.043)" fill="#fff"/>
            <path id="Path_1001409" data-name="Path 1001409" d="M536.391,1401.3a.9.9,0,0,0,.048-.083,32.708,32.708,0,0,0,2.947-8.476,23.36,23.36,0,0,0,.278-7.769c-.037-.257-.27-.345-.52-.2a.806.806,0,0,0-.385.732,22.224,22.224,0,0,1-.264,7.393,31.115,31.115,0,0,1-2.8,8.065c-.145.288-.1.578.112.647a.575.575,0,0,0,.589-.312" transform="translate(-465.509 -1203.478)" fill="#fff"/>
            <path id="Path_1001410" data-name="Path 1001410" d="M1702.96,1521.042c-8.3,1.927-27.822-15.672-21.239-25.007a13.79,13.79,0,0,1,7.928-5.312,20.315,20.315,0,0,1,11.3.722c12.7,4.657,10.379,27.656,2.014,29.6" transform="translate(-1460.467 -1295.179)" fill="#8bdcef"/>
            <path id="Path_1001411" data-name="Path 1001411" d="M1713.718,1523.491c-8.3,1.927-27.822-15.671-21.239-25.007a13.791,13.791,0,0,1,7.928-5.312,20.312,20.312,0,0,1,11.3.722c12.7,4.657,10.379,27.656,2.014,29.6" transform="translate(-1469.817 -1297.308)" fill="#d2edf7"/>
            <path id="Path_1001412" data-name="Path 1001412" d="M1770.28,1552.9h-.015c-.222.013-.4-.1-.407-.243a49.445,49.445,0,0,0-4.6-19.849,59.566,59.566,0,0,0-9.6-14.521c-.109-.123-.04-.288.154-.37a.515.515,0,0,1,.548.075,60.007,60.007,0,0,1,9.664,14.626,49.808,49.808,0,0,1,4.635,19.992c0,.144-.167.27-.382.288" transform="translate(-1525.843 -1319.224)" fill="#fff"/>
            <path id="Path_1001413" data-name="Path 1001413" d="M1800.368,1522.134a.548.548,0,0,1-.244-.033c-.184-.073-.233-.236-.109-.364a9.622,9.622,0,0,0,2.354-3.8,6.992,6.992,0,0,0,.114-3.888c-.037-.143.11-.288.329-.323s.427.052.464.2a7.346,7.346,0,0,1-.12,4.086,10.109,10.109,0,0,1-2.473,4,.5.5,0,0,1-.314.133" transform="translate(-1564.377 -1315.607)" fill="#fff"/>
            <path id="Path_1001414" data-name="Path 1001414" d="M1842.84,1603.684a.5.5,0,0,1-.323-.075c-.146-.1-.128-.273.039-.377a13.373,13.373,0,0,0,3.721-3.34,8.42,8.42,0,0,0,1.635-3.81c.021-.147.217-.264.439-.261s.383.125.362.272a8.846,8.846,0,0,1-1.718,4,14.053,14.053,0,0,1-3.911,3.51.548.548,0,0,1-.244.077" transform="translate(-1601.29 -1386.968)" fill="#fff"/>
            <path id="Path_1001415" data-name="Path 1001415" d="M1736.1,1598.857a24.506,24.506,0,0,1-4.987-.1,20.342,20.342,0,0,1-5.58-1.469c-.18-.078-.219-.242-.089-.367a.558.558,0,0,1,.562-.086,19.366,19.366,0,0,0,5.31,1.4,23.533,23.533,0,0,0,6.042-.05c.22-.03.422.062.451.207s-.126.285-.346.315q-.682.093-1.363.149" transform="translate(-1499.559 -1387.817)" fill="#fff"/>
            <path id="Path_1001416" data-name="Path 1001416" d="M1783.59,1676.482a.564.564,0,0,1-.066,0,22.394,22.394,0,0,1-6.066-.97,16,16,0,0,1-4.775-2.351c-.143-.106-.12-.275.05-.377a.552.552,0,0,1,.567.005,15.218,15.218,0,0,0,4.544,2.237,21.306,21.306,0,0,0,5.772.923c.221.006.379.13.354.277a.393.393,0,0,1-.379.254" transform="translate(-1540.601 -1453.794)" fill="#fff"/>
            <path id="Path_1001417" data-name="Path 1001417" d="M1893.771,1456.669c10.312,6.651,45.325-7.695,40.947-23.548a19.853,19.853,0,0,0-8.158-11.056c-6.765-4.579-14.741-4.525-15.657-4.519-19.472.131-27.522,32.422-17.132,39.122" transform="translate(-1641.959 -1232.024)" fill="#8bdcef"/>
            <path id="Path_1001418" data-name="Path 1001418" d="M1878,1454.752c10.312,6.651,45.325-7.695,40.947-23.548a19.855,19.855,0,0,0-8.158-11.055c-6.765-4.578-14.741-4.525-15.657-4.519-19.472.131-27.522,32.422-17.133,39.123" transform="translate(-1628.254 -1230.358)" fill="#d2edf7"/>
            <path id="Path_1001419" data-name="Path 1001419" d="M1872.255,1520.7l.02.009c.295.125.595.067.67-.131a71.184,71.184,0,0,1,15.895-24.655,85.766,85.766,0,0,1,20.067-15.005c.207-.114.194-.371-.029-.576a.74.74,0,0,0-.778-.165,86.38,86.38,0,0,0-20.213,15.114,71.695,71.695,0,0,0-16.01,24.833c-.073.193.095.447.378.576" transform="translate(-1626.879 -1286.411)" fill="#fff"/>
            <path id="Path_1001420" data-name="Path 1001420" d="M2051.471,1456.193a.789.789,0,0,0,.346.074c.285-.009.431-.206.325-.44a13.856,13.856,0,0,1-1.338-6.3,10.064,10.064,0,0,1,1.737-5.323c.12-.176-.01-.443-.29-.6a.572.572,0,0,0-.723.039,10.58,10.58,0,0,0-1.826,5.595,14.558,14.558,0,0,0,1.406,6.62.72.72,0,0,0,.361.333" transform="translate(-1781.438 -1254.583)" fill="#fff"/>
            <path id="Path_1001421" data-name="Path 1001421" d="M1937.993,1536.446a.72.72,0,0,0,.475.056c.248-.069.306-.307.13-.53a19.254,19.254,0,0,1-3.417-6.337,12.124,12.124,0,0,1-.362-5.958c.043-.21-.165-.464-.467-.567s-.58-.017-.623.193a12.74,12.74,0,0,0,.38,6.261,20.239,20.239,0,0,0,3.591,6.659.792.792,0,0,0,.293.223" transform="translate(-1680.451 -1323.735)" fill="#fff"/>
            <path id="Path_1001422" data-name="Path 1001422" d="M2026.672,1574.421a35.3,35.3,0,0,0,6.8,2.3,29.3,29.3,0,0,0,8.276.724c.281-.018.415-.221.3-.454a.8.8,0,0,0-.719-.391,27.873,27.873,0,0,1-7.875-.689,33.861,33.861,0,0,1-8.163-3.009c-.284-.147-.6-.121-.712.061s.032.448.316.6q.878.458,1.775.865" transform="translate(-1759.581 -1366.963)" fill="#fff"/>
            <path id="Path_1001423" data-name="Path 1001423" d="M1928.1,1676.646a.823.823,0,0,0,.088.035,32.238,32.238,0,0,0,8.692,1.637,23.024,23.024,0,0,0,7.614-.862c.245-.073.3-.313.116-.535a.8.8,0,0,0-.77-.269,21.908,21.908,0,0,1-7.245.82,30.668,30.668,0,0,1-8.27-1.558c-.3-.1-.577-.009-.615.2-.034.19.136.414.39.529" transform="translate(-1675.419 -1456.543)" fill="#fff"/>
            <path id="Path_1001424" data-name="Path 1001424" d="M174.052,1728.064c-85.1,0-154.094,4.728-154.094,10.559s68.99,10.56,154.094,10.56,154.094-4.728,154.094-10.56-68.99-10.559-154.094-10.559" transform="translate(-17.346 -1501.903)" fill="#dfe6ff"/>
            <path id="Path_1001425" data-name="Path 1001425" d="M1111.5,978.774q-2.337,16.776-4.391,34.253-1.247,10.649-2.324,21.079,8.025.539,16.049,1.061,10.054.654,20.108,1.281-2.642-15.092-5.94-31.032-3.34-16.065-6.973-31.032" transform="translate(-960.196 -846.86)" fill="#9dddf4"/>
            <path id="Path_1001426" data-name="Path 1001426" d="M1166.661,1008.739a181.376,181.376,0,0,1-1.033,24.535,177.818,177.818,0,0,1-3.616,21.075l10.847,1.887q.156-5.467.517-11.324.412-6.549,1.033-12.582a129.273,129.273,0,0,1,1.808,12.9c.354,3.959.5,7.648.517,11.009l7.748.315-9.814-57.564-4.39,23.906-3.616-14.155" transform="translate(-1009.933 -868.245)" fill="#fff"/>
            <path id="Path_1001427" data-name="Path 1001427" d="M889.68,385.085l-8.493-3.872q0-.221.006-.441l-.487.222-.487-.222q0,.221.006.441l-8.493,3.872,2.644,19.9,6.191,1.265v.057l.139-.028.139.028v-.057l6.191-1.265,2.644-19.9" transform="translate(-757.643 -330.938)" fill="#84b2fe"/>
            <path id="Path_1001428" data-name="Path 1001428" d="M679.679,330.8l31.723,4.313q.139,2.5.278,5.009l-34.923,3.757a8,8,0,0,1,2.922-13.079" transform="translate(-586.252 -287.511)" fill="#2c7efe"/>
            <path id="Path_1001429" data-name="Path 1001429" d="M945.728,330.8,914,335.118q-.139,2.5-.278,5.009l34.923,3.757a8,8,0,0,0-2.922-13.079" transform="translate(-794.142 -287.511)" fill="#2c7efe"/>
            <rect id="Rectangle_455568" data-name="Rectangle 455568" width="15.444" height="5.426" transform="translate(115.48 69.939)" fill="#2c7efe"/>
            <path id="Path_1001430" data-name="Path 1001430" d="M689.369,618.631h21.652a54.962,54.962,0,0,0-23.676-46.724c-.193-.133-.387-.263-.576-.389a42.017,42.017,0,0,0-22.185-7.105,42.494,42.494,0,0,0-43.666,42.752l.5,120.1,21.643-.09-.5-120.1a20.615,20.615,0,0,1,11.022-18.5,20.31,20.31,0,0,1,21.2.962q.17.113.337.227a33.355,33.355,0,0,1,14.252,28.866" transform="translate(-539.655 -490.533)" fill="#84b2fe"/>
            <path id="Path_1001431" data-name="Path 1001431" d="M1156.172,963.185a53.142,53.142,0,0,1-24.21,0v-7.792a66.348,66.348,0,0,0,24.21,0Z" transform="translate(-983.816 -830.356)" fill="#2c7efe"/>
            <path id="Path_1001432" data-name="Path 1001432" d="M634.428,1444.834H609.494V1391.81a47.088,47.088,0,0,1,24.934,0Z" transform="translate(-529.726 -1208.196)" fill="#2c7efe"/>
            <path id="Path_1001433" data-name="Path 1001433" d="M875.115,348.3c-.4-7.691-5.5-13.775-11.745-13.775s-11.343,6.084-11.745,13.775a40.522,40.522,0,0,0,23.49,0" transform="translate(-740.168 -290.745)" fill="#2c7efe"/>
            <path id="Path_1001434" data-name="Path 1001434" d="M983.275,369.835c.888,1.682.957,3.389.153,3.814s-2.176-.594-3.064-2.276-.957-3.389-.153-3.814,2.176.594,3.065,2.276" transform="translate(-851.437 -319.372)" fill="#dfe6ff"/>
            <path id="Path_1001435" data-name="Path 1001435" d="M1159.726,348.742c.233-.227,2.807,1.05,3.478,3.451.692,2.472-.959,4.974-1.252,4.9-.236-.061.534-1.768,0-4.109-.611-2.679-2.438-4.033-2.226-4.239" transform="translate(-1007.932 -303.078)" fill="#dfe6ff"/>
            <path id="Path_1001436" data-name="Path 1001436" d="M757.006,624.751a1.082,1.082,0,0,1-.986-.635c-.312-.688-7.851-16.874-24.776-19.414-13.907-2.086-28.2,5.906-34.763,19.438a1.082,1.082,0,1,1-1.948-.944,37.567,37.567,0,0,1,15.6-16.6,34.068,34.068,0,0,1,21.428-4.032A33.54,33.54,0,0,1,751.3,613.44a40.573,40.573,0,0,1,6.69,9.781,1.083,1.083,0,0,1-.985,1.53" transform="translate(-603.541 -523.398)" fill="#dfe6ff"/>
            <path id="Path_1001437" data-name="Path 1001437" d="M835.152,1043.433A72.587,72.587,0,0,0,804.4,995.807l18.736-14.337a116.468,116.468,0,0,1,31.484,50.6l-19.464,11.361" transform="translate(-699.121 -853.02)" fill="#0ebaa0"/>
            <path id="Path_1001438" data-name="Path 1001438" d="M873.582,1031.592a2.892,2.892,0,0,0,.146.305,2.959,2.959,0,0,0,5.254-.135,95.478,95.478,0,0,1,24.224,39.5,2.96,2.96,0,0,0-2.054,4.336l.044.077-8.1,4.99a2.918,2.918,0,0,0-.222-.513,2.959,2.959,0,0,0-3.565-1.368,74.282,74.282,0,0,0-23.643-36.774,2.961,2.961,0,0,0-.383-4.379l8.295-6.036" transform="translate(-752.042 -896.582)" fill="#72f2d9"/>
            <path id="Path_1001439" data-name="Path 1001439" d="M999,1165.572a6.052,6.052,0,1,1-8.22-2.384,6.059,6.059,0,0,1,8.22,2.384m-9.57,5.267a4.872,4.872,0,1,0,1.919-6.617,4.877,4.877,0,0,0-1.919,6.617" transform="translate(-858.39 -1010.304)" fill="#0ebaa0"/>
            <path id="Path_1001440" data-name="Path 1001440" d="M1007.632,1182.342a2.232,2.232,0,0,1,.843-.514,1.932,1.932,0,0,1,.908-.064,2.627,2.627,0,0,1,.914.345c.108.071.215.141.323.223l.183-.169a.345.345,0,0,1,.48.013l.175.189a.345.345,0,0,1-.025.48l-.143.132a2.9,2.9,0,0,1,.315.421,3.893,3.893,0,0,1,.31.543,3.831,3.831,0,0,1,.17.459,1.193,1.193,0,0,1,.059.317.407.407,0,0,1-.076.24,1.274,1.274,0,0,1-.249.294,1.082,1.082,0,0,1-.2.152,1.548,1.548,0,0,1-.142.088.15.15,0,0,1-.116.012.205.205,0,0,1-.081-.053.521.521,0,0,1-.1-.258c-.023-.128-.061-.284-.109-.463a4.674,4.674,0,0,0-.226-.578,2.6,2.6,0,0,0-.444-.642,1.981,1.981,0,0,0-.46-.383,1.181,1.181,0,0,0-.462-.2.938.938,0,0,0-.464.015,1.136,1.136,0,0,0-.441.27.822.822,0,0,0-.266.448,1.625,1.625,0,0,0,.006.536,3.5,3.5,0,0,0,.186.6c.075.207.166.421.245.645a6.924,6.924,0,0,1,.222.677,2.491,2.491,0,0,1,.077.693,1.776,1.776,0,0,1-.154.684,1.942,1.942,0,0,1-.484.66,1.966,1.966,0,0,1-.7.42,1.8,1.8,0,0,1-.81.1,2.581,2.581,0,0,1-.884-.278,3.072,3.072,0,0,1-.356-.224l-.241.222a.338.338,0,0,1-.474-.019l-.175-.189a.338.338,0,0,1,.019-.474l.2-.185c-.074-.091-.142-.188-.21-.285a3.707,3.707,0,0,1-.252-.457,2.685,2.685,0,0,1-.15-.393,2.206,2.206,0,0,1-.05-.284.474.474,0,0,1,.006-.154.39.39,0,0,1,.048-.1c.023-.032.052-.07.093-.118a1.588,1.588,0,0,1,.15-.149,2.035,2.035,0,0,1,.172-.148.656.656,0,0,1,.141-.077.227.227,0,0,1,.117-.012.157.157,0,0,1,.075.047.484.484,0,0,1,.075.207c.018.1.052.228.1.379a3.611,3.611,0,0,0,.207.489,2.059,2.059,0,0,0,.371.539,2.173,2.173,0,0,0,.454.377,1,1,0,0,0,.43.155.745.745,0,0,0,.4-.039.885.885,0,0,0,.356-.212.819.819,0,0,0,.267-.459,1.541,1.541,0,0,0-.006-.547,3.879,3.879,0,0,0-.18-.609c-.085-.219-.165-.432-.256-.656s-.159-.448-.227-.683a2.478,2.478,0,0,1-.094-.689,1.73,1.73,0,0,1,.137-.679,1.854,1.854,0,0,1,.473-.639" transform="translate(-872.884 -1027.078)" fill="#0ebaa0"/>
            <path id="Path_1001441" data-name="Path 1001441" d="M1243.972,994.171a72.587,72.587,0,0,0,13.985-54.941l23.254,3.979a116.473,116.473,0,0,1-15.671,57.5l-21.568-6.538" transform="translate(-1081.167 -816.308)" fill="#0ebaa0"/>
            <path id="Path_1001442" data-name="Path 1001442" d="M1320.3,976.782a2.9,2.9,0,0,0-.125.315,2.959,2.959,0,0,0,3.673,3.759,95.481,95.481,0,0,1-12.47,44.624,2.96,2.96,0,0,0-4.575,1.445q-.014.042-.026.085l-9.165-2.54a2.959,2.959,0,0,0-1.2-4.056,74.284,74.284,0,0,0,10.87-42.346,2.961,2.961,0,0,0,2.949-3.26l10.067,1.973" transform="translate(-1126.749 -847.231)" fill="#72f2d9"/>
            <path id="Path_1001443" data-name="Path 1001443" d="M1386.264,1149.179a6.052,6.052,0,1,1-3.844-7.647,6.059,6.059,0,0,1,3.844,7.647m-10.371-3.432a4.872,4.872,0,1,0,6.156-3.095,4.877,4.877,0,0,0-6.156,3.095" transform="translate(-1194.582 -991.867)" fill="#0ebaa0"/>
            <path id="Path_1001444" data-name="Path 1001444" d="M1392.607,1169.09a2.238,2.238,0,0,1,.95.269,1.936,1.936,0,0,1,.665.622,2.632,2.632,0,0,1,.369.905c.022.127.043.254.056.388l.249.019a.345.345,0,0,1,.317.361l-.02.257a.345.345,0,0,1-.368.308l-.195-.015a2.9,2.9,0,0,1-.094.517,3.9,3.9,0,0,1-.187.6,3.829,3.829,0,0,1-.222.437,1.187,1.187,0,0,1-.192.259.4.4,0,0,1-.227.108,1.27,1.27,0,0,1-.385.017,1.082,1.082,0,0,1-.247-.043,1.514,1.514,0,0,1-.161-.044.151.151,0,0,1-.088-.077.208.208,0,0,1-.016-.1.52.52,0,0,1,.121-.249c.078-.1.167-.238.265-.395a4.7,4.7,0,0,0,.27-.559,2.6,2.6,0,0,0,.168-.762,1.993,1.993,0,0,0-.032-.6,1.183,1.183,0,0,0-.167-.475.94.94,0,0,0-.327-.33,1.133,1.133,0,0,0-.5-.14.823.823,0,0,0-.509.109,1.627,1.627,0,0,0-.388.369,3.509,3.509,0,0,0-.316.547c-.1.2-.2.408-.306.618a7,7,0,0,1-.345.623,2.5,2.5,0,0,1-.456.529,1.774,1.774,0,0,1-.606.353,1.94,1.94,0,0,1-.813.094,1.963,1.963,0,0,1-.781-.225,1.8,1.8,0,0,1-.625-.526,2.584,2.584,0,0,1-.4-.837,3.024,3.024,0,0,1-.078-.413l-.327-.025a.338.338,0,0,1-.309-.36l.02-.257a.338.338,0,0,1,.36-.309l.272.021c.017-.116.041-.232.066-.347a3.689,3.689,0,0,1,.163-.5,2.672,2.672,0,0,1,.186-.377,2.184,2.184,0,0,1,.174-.229.461.461,0,0,1,.117-.1.4.4,0,0,1,.1-.031c.04,0,.087-.009.15-.012a1.62,1.62,0,0,1,.211.008,2,2,0,0,1,.225.025.642.642,0,0,1,.153.051.228.228,0,0,1,.088.077.159.159,0,0,1,.017.087.487.487,0,0,1-.1.2c-.061.081-.132.193-.213.328a3.651,3.651,0,0,0-.217.484,2.057,2.057,0,0,0-.143.639,2.174,2.174,0,0,0,.033.59,1,1,0,0,0,.179.421.747.747,0,0,0,.3.266.884.884,0,0,0,.4.117.817.817,0,0,0,.518-.117,1.542,1.542,0,0,0,.4-.377,3.89,3.89,0,0,0,.324-.547c.1-.211.2-.415.307-.634s.22-.421.346-.631a2.488,2.488,0,0,1,.44-.538,1.733,1.733,0,0,1,.591-.361,1.859,1.859,0,0,1,.79-.088" transform="translate(-1204.912 -1016.078)" fill="#0ebaa0"/>
            <path id="Path_1001445" data-name="Path 1001445" d="M1254.644,1092.515a72.585,72.585,0,0,0,44.421-35.227l16.085,17.258a116.469,116.469,0,0,1-47.312,36.24l-13.194-18.271" transform="translate(-1090.442 -918.915)" fill="#0ebaa0"/>
            <path id="Path_1001446" data-name="Path 1001446" d="M1353.473,1124.272a2.894,2.894,0,0,0-.29.175,2.959,2.959,0,0,0,.643,5.216,95.485,95.485,0,0,1-36.963,27.939,2.96,2.96,0,0,0-4.515-1.624l-.073.051-5.751-7.574a2.919,2.919,0,0,0,.489-.271,2.958,2.958,0,0,0,1.016-3.68,74.286,74.286,0,0,0,34.309-27.1,2.961,2.961,0,0,0,4.322-.806l6.812,7.67" transform="translate(-1135.533 -970.466)" fill="#72f2d9"/>
            <path id="Path_1001447" data-name="Path 1001447" d="M1462.439,1261.917a6.052,6.052,0,1,1,1.576-8.412,6.059,6.059,0,0,1-1.576,8.412m-6.169-9.015a4.872,4.872,0,1,0,6.772,1.269,4.877,4.877,0,0,0-6.772-1.269" transform="translate(-1262.813 -1087.164)" fill="#0ebaa0"/>
            <path id="Path_1001448" data-name="Path 1001448" d="M1478.626,1271.187a2.234,2.234,0,0,1,.593.79,1.932,1.932,0,0,1,.151.9,2.621,2.621,0,0,1-.255.943c-.06.114-.12.228-.19.343l.186.166a.345.345,0,0,1,.033.479l-.171.192a.345.345,0,0,1-.48.022l-.146-.13a2.884,2.884,0,0,1-.389.354,3.888,3.888,0,0,1-.51.361,3.787,3.787,0,0,1-.441.213,1.189,1.189,0,0,1-.31.09.4.4,0,0,1-.246-.052,1.277,1.277,0,0,1-.317-.219,1.081,1.081,0,0,1-.171-.184,1.538,1.538,0,0,1-.1-.132.152.152,0,0,1-.023-.115.21.21,0,0,1,.045-.085.521.521,0,0,1,.247-.125c.125-.035.277-.088.45-.153a4.68,4.68,0,0,0,.553-.281,2.6,2.6,0,0,0,.6-.5,1.987,1.987,0,0,0,.336-.495,1.185,1.185,0,0,0,.155-.479.938.938,0,0,0-.06-.461,1.133,1.133,0,0,0-.311-.413.823.823,0,0,0-.471-.222,1.632,1.632,0,0,0-.533.058,3.512,3.512,0,0,0-.583.244c-.2.094-.4.206-.618.307a6.889,6.889,0,0,1-.652.286,2.489,2.489,0,0,1-.682.144,1.775,1.775,0,0,1-.7-.087,1.943,1.943,0,0,1-.7-.418,1.968,1.968,0,0,1-.485-.652,1.8,1.8,0,0,1-.179-.8,2.584,2.584,0,0,1,.191-.907,3.076,3.076,0,0,1,.188-.376l-.245-.218a.338.338,0,0,1-.027-.474l.171-.192a.338.338,0,0,1,.474-.027l.2.182c.084-.082.173-.159.263-.236a3.736,3.736,0,0,1,.431-.3,2.7,2.7,0,0,1,.376-.187,2.289,2.289,0,0,1,.278-.077.481.481,0,0,1,.154-.009.4.4,0,0,1,.1.038c.034.02.074.046.126.081a1.651,1.651,0,0,1,.162.134,2.016,2.016,0,0,1,.164.156.658.658,0,0,1,.091.133.23.23,0,0,1,.023.115.159.159,0,0,1-.04.08.488.488,0,0,1-.2.094c-.1.028-.222.074-.368.132a3.6,3.6,0,0,0-.466.254,2.045,2.045,0,0,0-.5.421,2.159,2.159,0,0,0-.331.489,1,1,0,0,0-.113.443.745.745,0,0,0,.078.394.883.883,0,0,0,.246.334.819.819,0,0,0,.483.221,1.544,1.544,0,0,0,.544-.059,3.884,3.884,0,0,0,.589-.239c.209-.106.414-.206.628-.318s.431-.2.657-.292a2.494,2.494,0,0,1,.676-.161,1.731,1.731,0,0,1,.69.071,1.855,1.855,0,0,1,.681.408" transform="translate(-1279.565 -1102.271)" fill="#0ebaa0"/>
            <rect id="Rectangle_455569" data-name="Rectangle 455569" width="72.247" height="14.459" transform="translate(130.412 218.855)" fill="#16888c"/>
            <rect id="Rectangle_455570" data-name="Rectangle 455570" width="62.329" height="18.573" transform="translate(140.33 219.443)" fill="#07a086"/>
            <rect id="Rectangle_455571" data-name="Rectangle 455571" width="60.41" height="18.573" transform="translate(130.386 219.443)" fill="#42c5a0"/>
            <line id="Line_3225" data-name="Line 3225" x2="56.307" transform="translate(132.175 220.442)" fill="#56dbb2"/>
            <path id="Path_1001449" data-name="Path 1001449" d="M1065.328,1683.59h-56.307a.137.137,0,0,1,0-.274h56.307a.137.137,0,0,1,0,.274" transform="translate(-876.846 -1463.011)" fill="#56dbb2"/>
            <line id="Line_3226" data-name="Line 3226" x2="43.4" transform="translate(137.923 221.607)" fill="#56dbb2"/>
            <path id="Path_1001450" data-name="Path 1001450" d="M1096.55,1692.5h-43.4a.142.142,0,0,1,0-.274h43.4a.142.142,0,0,1,0,.274" transform="translate(-915.227 -1470.753)" fill="#56dbb2"/>
            <line id="Line_3227" data-name="Line 3227" x2="49.046" transform="translate(132.158 226.535)" fill="#56dbb2"/>
            <path id="Path_1001451" data-name="Path 1001451" d="M1058.05,1730.146H1009a.139.139,0,0,1,0-.274h49.046a.139.139,0,0,1,0,.274" transform="translate(-876.846 -1503.474)" fill="#56dbb2"/>
            <line id="Line_3228" data-name="Line 3228" x2="30.628" transform="translate(144.358 227.701)" fill="#56dbb2"/>
            <path id="Path_1001452" data-name="Path 1001452" d="M1133.147,1739.053h-30.628c-.041,0-.075-.061-.075-.137s.034-.137.075-.137h30.628c.041,0,.074.061.074.137s-.033.137-.074.137" transform="translate(-958.161 -1511.216)" fill="#56dbb2"/>
            <line id="Line_3229" data-name="Line 3229" x2="30.628" transform="translate(144.358 233.794)" fill="#56dbb2"/>
            <path id="Path_1001453" data-name="Path 1001453" d="M1133.147,1785.609h-30.628c-.041,0-.075-.061-.075-.137s.034-.137.075-.137h30.628c.041,0,.074.061.074.137s-.033.137-.074.137" transform="translate(-958.161 -1551.679)" fill="#56dbb2"/>
            <line id="Line_3230" data-name="Line 3230" x2="30.628" transform="translate(152.586 234.662)" fill="#56dbb2"/>
            <path id="Path_1001454" data-name="Path 1001454" d="M1196.02,1792.246h-30.628c-.041,0-.075-.061-.075-.137s.034-.137.075-.137h30.628c.041,0,.075.061.075.137s-.033.137-.075.137" transform="translate(-1012.805 -1557.447)" fill="#56dbb2"/>
            <rect id="Rectangle_455572" data-name="Rectangle 455572" width="21.808" height="18.573" transform="translate(149.687 219.443)" fill="#f9bfa0"/>
            <rect id="Rectangle_455573" data-name="Rectangle 455573" width="20.239" height="18.573" transform="translate(150.471 219.443)" fill="#fff"/>
            <line id="Line_3231" data-name="Line 3231" x2="5.878" transform="translate(196.766 221.325)" fill="#0ebaa0"/>
            <path id="Path_1001455" data-name="Path 1001455" d="M1509.246,1690.339h-5.878a.666.666,0,0,1,0-.274h5.878a.671.671,0,0,1,0,.274" transform="translate(-1306.601 -1468.877)" fill="#0ebaa0"/>
            <line id="Line_3232" data-name="Line 3232" x2="4.531" transform="translate(197.367 222.491)" fill="#0ebaa0"/>
            <path id="Path_1001456" data-name="Path 1001456" d="M1512.506,1699.246h-4.531a.851.851,0,0,1,0-.274h4.531a.842.842,0,0,1,0,.274" transform="translate(-1310.608 -1476.619)" fill="#0ebaa0"/>
            <line id="Line_3233" data-name="Line 3233" x2="5.12" transform="translate(196.765 227.418)" fill="#0ebaa0"/>
            <path id="Path_1001457" data-name="Path 1001457" d="M1508.486,1736.9h-5.12a.762.762,0,0,1,0-.274h5.12a.777.777,0,0,1,0,.274" transform="translate(-1306.601 -1509.34)" fill="#0ebaa0"/>
            <line id="Line_3234" data-name="Line 3234" x2="3.197" transform="translate(198.038 228.584)" fill="#0ebaa0"/>
            <path id="Path_1001458" data-name="Path 1001458" d="M1516.326,1745.8h-3.2a1.188,1.188,0,0,1,0-.274h3.2a1.226,1.226,0,0,1,0,.274" transform="translate(-1315.091 -1517.081)" fill="#0ebaa0"/>
            <line id="Line_3235" data-name="Line 3235" x2="3.197" transform="translate(198.038 234.677)" fill="#0ebaa0"/>
            <path id="Path_1001459" data-name="Path 1001459" d="M1516.326,1792.358h-3.2a1.189,1.189,0,0,1,0-.274h3.2a1.227,1.227,0,0,1,0,.274" transform="translate(-1315.091 -1557.544)" fill="#0ebaa0"/>
            <line id="Line_3236" data-name="Line 3236" x2="3.197" transform="translate(198.897 235.545)" fill="#0ebaa0"/>
            <path id="Path_1001460" data-name="Path 1001460" d="M1522.89,1799h-3.2a1.19,1.19,0,0,1,0-.274h3.2a1.209,1.209,0,0,1,0,.274" transform="translate(-1320.796 -1563.313)" fill="#0ebaa0"/>
            <rect id="Rectangle_455574" data-name="Rectangle 455574" width="72.247" height="14.459" transform="translate(136.475 199.706)" fill="#16888c"/>
            <rect id="Rectangle_455575" data-name="Rectangle 455575" width="62.329" height="18.573" transform="translate(146.393 200.293)" fill="#07a086"/>
            <rect id="Rectangle_455576" data-name="Rectangle 455576" width="60.41" height="18.573" transform="translate(136.448 200.293)" fill="#42c5a0"/>
            <line id="Line_3237" data-name="Line 3237" x2="56.307" transform="translate(138.238 201.292)" fill="#56dbb2"/>
            <path id="Path_1001461" data-name="Path 1001461" d="M1111.652,1537.273h-56.307a.137.137,0,1,1,0-.274h56.307a.137.137,0,0,1,0,.274" transform="translate(-917.107 -1335.844)" fill="#56dbb2"/>
            <line id="Line_3238" data-name="Line 3238" x2="43.4" transform="translate(143.986 202.458)" fill="#56dbb2"/>
            <path id="Path_1001462" data-name="Path 1001462" d="M1142.875,1546.18h-43.4a.142.142,0,0,1,0-.274h43.4a.142.142,0,0,1,0,.274" transform="translate(-955.489 -1343.585)" fill="#56dbb2"/>
            <line id="Line_3239" data-name="Line 3239" x2="49.046" transform="translate(138.22 207.386)" fill="#56dbb2"/>
            <path id="Path_1001463" data-name="Path 1001463" d="M1104.375,1583.829h-49.046a.139.139,0,0,1,0-.274h49.046a.138.138,0,0,1,0,.274" transform="translate(-917.108 -1376.307)" fill="#56dbb2"/>
            <line id="Line_3240" data-name="Line 3240" x2="30.628" transform="translate(150.42 208.551)" fill="#56dbb2"/>
            <path id="Path_1001464" data-name="Path 1001464" d="M1179.472,1592.736h-30.628c-.041,0-.075-.061-.075-.137s.033-.137.075-.137h30.628c.041,0,.075.062.075.137s-.033.137-.075.137" transform="translate(-998.423 -1384.048)" fill="#56dbb2"/>
            <line id="Line_3241" data-name="Line 3241" x2="30.628" transform="translate(150.42 214.644)" fill="#56dbb2"/>
            <path id="Path_1001465" data-name="Path 1001465" d="M1179.472,1639.292h-30.628c-.041,0-.075-.061-.075-.137s.033-.137.075-.137h30.628c.041,0,.075.061.075.137s-.033.137-.075.137" transform="translate(-998.423 -1424.511)" fill="#56dbb2"/>
            <line id="Line_3242" data-name="Line 3242" x2="30.628" transform="translate(158.649 215.513)" fill="#56dbb2"/>
            <path id="Path_1001466" data-name="Path 1001466" d="M1242.345,1645.929h-30.628c-.041,0-.075-.061-.075-.137s.034-.137.075-.137h30.628c.041,0,.075.061.075.137s-.033.137-.075.137" transform="translate(-1053.068 -1430.279)" fill="#56dbb2"/>
            <rect id="Rectangle_455577" data-name="Rectangle 455577" width="21.808" height="18.573" transform="translate(155.749 200.293)" fill="#f9bfa0"/>
            <rect id="Rectangle_455578" data-name="Rectangle 455578" width="20.239" height="18.573" transform="translate(156.534 200.293)" fill="#fff"/>
            <line id="Line_3243" data-name="Line 3243" x2="5.878" transform="translate(202.829 202.176)" fill="#0ebaa0"/>
            <path id="Path_1001467" data-name="Path 1001467" d="M1555.571,1544.022h-5.878a.655.655,0,0,1,0-.274h5.878a.666.666,0,0,1,0,.274" transform="translate(-1346.863 -1341.709)" fill="#0ebaa0"/>
            <line id="Line_3244" data-name="Line 3244" x2="4.531" transform="translate(203.429 203.341)" fill="#0ebaa0"/>
            <path id="Path_1001468" data-name="Path 1001468" d="M1558.83,1552.929H1554.3a.843.843,0,0,1,0-.274h4.531a.862.862,0,0,1,0,.274" transform="translate(-1350.87 -1349.451)" fill="#0ebaa0"/>
            <line id="Line_3245" data-name="Line 3245" x2="5.12" transform="translate(202.827 208.269)" fill="#0ebaa0"/>
            <path id="Path_1001469" data-name="Path 1001469" d="M1554.811,1590.578h-5.12a.747.747,0,0,1,0-.274h5.12a.762.762,0,0,1,0,.274" transform="translate(-1346.863 -1382.172)" fill="#0ebaa0"/>
            <line id="Line_3246" data-name="Line 3246" x2="3.197" transform="translate(204.101 209.435)" fill="#0ebaa0"/>
            <path id="Path_1001470" data-name="Path 1001470" d="M1562.651,1599.485h-3.2a1.19,1.19,0,0,1,0-.274h3.2a1.209,1.209,0,0,1,0,.274" transform="translate(-1355.353 -1389.914)" fill="#0ebaa0"/>
            <line id="Line_3247" data-name="Line 3247" x2="3.197" transform="translate(204.101 215.528)" fill="#0ebaa0"/>
            <path id="Path_1001471" data-name="Path 1001471" d="M1562.651,1646.041h-3.2a1.19,1.19,0,0,1,0-.274h3.2a1.209,1.209,0,0,1,0,.274" transform="translate(-1355.353 -1430.377)" fill="#0ebaa0"/>
            <line id="Line_3248" data-name="Line 3248" x2="3.197" transform="translate(204.96 216.396)" fill="#0ebaa0"/>
            <path id="Path_1001472" data-name="Path 1001472" d="M1569.215,1652.678h-3.2a1.189,1.189,0,0,1,0-.274h3.2a1.208,1.208,0,0,1,0,.274" transform="translate(-1361.058 -1436.145)" fill="#0ebaa0"/>
            <rect id="Rectangle_455579" data-name="Rectangle 455579" width="72.247" height="14.459" transform="translate(120.34 180.556)" fill="#16888c"/>
            <rect id="Rectangle_455580" data-name="Rectangle 455580" width="62.329" height="18.573" transform="translate(130.258 181.144)" fill="#07a086"/>
            <rect id="Rectangle_455581" data-name="Rectangle 455581" width="60.41" height="18.573" transform="translate(120.314 181.144)" fill="#42c5a0"/>
            <line id="Line_3249" data-name="Line 3249" x2="56.307" transform="translate(122.103 182.143)" fill="#56dbb2"/>
            <path id="Path_1001473" data-name="Path 1001473" d="M988.37,1390.956H932.063a.137.137,0,1,1,0-.274H988.37a.137.137,0,1,1,0,.274" transform="translate(-809.96 -1208.676)" fill="#56dbb2"/>
            <line id="Line_3250" data-name="Line 3250" x2="43.4" transform="translate(127.852 183.309)" fill="#56dbb2"/>
            <path id="Path_1001474" data-name="Path 1001474" d="M1019.592,1399.863h-43.4a.142.142,0,0,1,0-.274h43.4a.142.142,0,0,1,0,.274" transform="translate(-848.341 -1216.417)" fill="#56dbb2"/>
            <line id="Line_3251" data-name="Line 3251" x2="49.046" transform="translate(122.086 188.236)" fill="#56dbb2"/>
            <path id="Path_1001475" data-name="Path 1001475" d="M981.093,1437.512H932.046a.139.139,0,0,1,0-.274h49.046a.139.139,0,0,1,0,.274" transform="translate(-809.961 -1249.139)" fill="#56dbb2"/>
            <line id="Line_3252" data-name="Line 3252" x2="30.628" transform="translate(134.286 189.402)" fill="#56dbb2"/>
            <path id="Path_1001476" data-name="Path 1001476" d="M1056.19,1446.419h-30.628c-.041,0-.075-.061-.075-.137s.033-.137.075-.137h30.628c.041,0,.075.061.075.137s-.033.137-.075.137" transform="translate(-891.276 -1256.88)" fill="#56dbb2"/>
            <line id="Line_3253" data-name="Line 3253" x2="30.628" transform="translate(134.286 195.495)" fill="#56dbb2"/>
            <path id="Path_1001477" data-name="Path 1001477" d="M1056.19,1492.975h-30.628c-.041,0-.075-.061-.075-.137s.033-.137.075-.137h30.628c.041,0,.075.061.075.137s-.033.137-.075.137" transform="translate(-891.276 -1297.343)" fill="#56dbb2"/>
            <line id="Line_3254" data-name="Line 3254" x2="30.628" transform="translate(142.514 196.364)" fill="#56dbb2"/>
            <path id="Path_1001478" data-name="Path 1001478" d="M1119.063,1499.612h-30.628c-.041,0-.075-.061-.075-.137s.034-.137.075-.137h30.628c.041,0,.075.061.075.137s-.033.137-.075.137" transform="translate(-945.92 -1303.112)" fill="#56dbb2"/>
            <rect id="Rectangle_455582" data-name="Rectangle 455582" width="21.808" height="18.573" transform="translate(139.615 181.144)" fill="#f9bfa0"/>
            <rect id="Rectangle_455583" data-name="Rectangle 455583" width="20.239" height="18.573" transform="translate(140.399 181.144)" fill="#fff"/>
            <line id="Line_3255" data-name="Line 3255" x2="5.878" transform="translate(186.695 183.026)" fill="#0ebaa0"/>
            <path id="Path_1001479" data-name="Path 1001479" d="M1432.289,1397.705h-5.878a.66.66,0,0,1,0-.274h5.878a.66.66,0,0,1,0,.274" transform="translate(-1239.716 -1214.542)" fill="#0ebaa0"/>
            <line id="Line_3256" data-name="Line 3256" x2="4.531" transform="translate(187.295 184.192)" fill="#0ebaa0"/>
            <path id="Path_1001480" data-name="Path 1001480" d="M1435.548,1406.612h-4.531a.853.853,0,0,1,0-.274h4.531a.862.862,0,0,1,0,.274" transform="translate(-1243.723 -1222.283)" fill="#0ebaa0"/>
            <line id="Line_3257" data-name="Line 3257" x2="5.12" transform="translate(186.693 189.12)" fill="#0ebaa0"/>
            <path id="Path_1001481" data-name="Path 1001481" d="M1431.529,1444.261h-5.12a.762.762,0,0,1,0-.274h5.12a.77.77,0,0,1,0,.274" transform="translate(-1239.716 -1255.005)" fill="#0ebaa0"/>
            <line id="Line_3258" data-name="Line 3258" x2="3.197" transform="translate(187.966 190.285)" fill="#0ebaa0"/>
            <path id="Path_1001482" data-name="Path 1001482" d="M1439.369,1453.168h-3.2a1.189,1.189,0,0,1,0-.274h3.2a1.208,1.208,0,0,1,0,.274" transform="translate(-1248.205 -1262.746)" fill="#0ebaa0"/>
            <line id="Line_3259" data-name="Line 3259" x2="3.197" transform="translate(187.966 196.378)" fill="#0ebaa0"/>
            <path id="Path_1001483" data-name="Path 1001483" d="M1439.369,1499.724h-3.2a1.189,1.189,0,0,1,0-.274h3.2a1.208,1.208,0,0,1,0,.274" transform="translate(-1248.205 -1303.209)" fill="#0ebaa0"/>
            <line id="Line_3260" data-name="Line 3260" x2="3.197" transform="translate(188.825 197.247)" fill="#0ebaa0"/>
            <path id="Path_1001484" data-name="Path 1001484" d="M1445.932,1506.361h-3.2a1.19,1.19,0,0,1,0-.274h3.2a1.268,1.268,0,0,1,0,.274" transform="translate(-1253.91 -1308.977)" fill="#0ebaa0"/>
            <path id="Path_1001485" data-name="Path 1001485" d="M1544.935,168.194a30.5,30.5,0,1,1-30.5-30.5,30.5,30.5,0,0,1,30.5,30.5" transform="translate(-1289.73 -119.676)" fill="#84b2fe"/>
            <path id="Path_1001486" data-name="Path 1001486" d="M1570.533,198.329a25.959,25.959,0,1,1-25.959-25.959,25.959,25.959,0,0,1,25.959,25.959" transform="translate(-1319.866 -149.811)" fill="#dfe6ff"/>
            <path id="Path_1001487" data-name="Path 1001487" d="M1637.358,212.574a3.833,3.833,0,0,0-1.808,2.758l-1.852,5.316c-.047.407-.39.623-.609.559a.536.536,0,0,1-.3-.559c0-.024,0-.049,0-.074s0-.049,0-.074V201.635a2.42,2.42,0,0,0-4.84,0V220.5c0,.05,0,.1.005.148a.345.345,0,0,1-.69,0q0-.036,0-.074c0-.025,0-.049,0-.074V195.412a2.42,2.42,0,0,0-4.84,0V220.5c0,.05,0,.1.005.148a.367.367,0,0,1-.729,0c0-.024,0-.049,0-.074s0-.049,0-.074V198.869a2.42,2.42,0,0,0-4.84,0V220.5c0,.05,0,.1.005.148a.345.345,0,0,1-.69,0c0-.024,0-.049,0-.074s0-.049,0-.074V205.685a2.42,2.42,0,0,0-4.84,0V220.5q0,.075.005.148h-.005a32.462,32.462,0,0,0,.593,7.482c.533,2.687.919,4.629,2.35,6.57a11.716,11.716,0,0,0,5.125,3.847,13.125,13.125,0,0,0,7.193.77,10.618,10.618,0,0,0,1.679-.4c5.556-1.8,8.212-7.774,9.23-10.642a2.431,2.431,0,0,0,.112-.268l3.713-10.659a4.18,4.18,0,0,0,.007-3.52,3,3,0,0,0-1.7-1.556,2.968,2.968,0,0,0-2.3.3" transform="translate(-1400.45 -167.734)" fill="#4f95fc"/>
            <rect id="Rectangle_455584" data-name="Rectangle 455584" width="56.021" height="5.027" transform="translate(200.731 63.215) rotate(-36.635)" fill="#84b2fe"/>
            <path id="Path_1001488" data-name="Path 1001488" d="M1865.406,1756.463c-4.39,1.194-7.487-1.24-8.973.436a3.1,3.1,0,0,0-.44,2.789c1.439,4.864,15.668,7.077,18.3,2.954,1.608-2.52-.8-7.9-3.54-8.476-1.716-.363-2.209,1.444-5.346,2.3" transform="translate(-1612.965 -1524.548)" fill="#153663"/>
            <path id="Path_1001489" data-name="Path 1001489" d="M2116.582,1733.76c-3.889,2.361-7.539.877-8.5,2.9a3.1,3.1,0,0,0,.348,2.8c2.728,4.276,17.014,2.47,18.4-2.219.849-2.866-2.953-7.367-5.745-7.167-1.749.125-1.724,2-4.5,3.685" transform="translate(-1832.005 -1503.645)" fill="#153663"/>
            <path id="Path_1001490" data-name="Path 1001490" d="M1941.889,1204.731a167.719,167.719,0,0,0-9.219,29.319,142.434,142.434,0,0,0-2.6,37.587,7.409,7.409,0,0,0,8.016.092,114.934,114.934,0,0,1,21.419-67.211l-14.474-7.054c-.811,1.771-1.916,4.259-3.141,7.266" transform="translate(-1677.232 -1040.746)" fill="#0643a3"/>
            <path id="Path_1001491" data-name="Path 1001491" d="M2079.965,1214.746a154.89,154.89,0,0,0,2.007,30.669,116.3,116.3,0,0,0,11.2,32.56,6.383,6.383,0,0,0,4.276-.042,6.289,6.289,0,0,0,2.779-2.085,106.346,106.346,0,0,1-3.83-13.005,103.3,103.3,0,0,1-2.5-18.177c-.415-10.346,1.33-12.831.872-23.355a90.347,90.347,0,0,0-1.574-13.319l-12.929-1.155c-.115,1.945-.246,4.663-.3,7.91" transform="translate(-1807.7 -1048.891)" fill="#0643a3"/>
            <path id="Path_1001492" data-name="Path 1001492" d="M1740.022,1053.862c-1.938-.258-2.128.426-4.155.223-1.056-.105-3.563-.344-4.946-2.233-1.489-2.034-1.31-5.33-.064-6.027a1.267,1.267,0,0,1,.655-.151c1.17.055,1.341,1.787,2.829,2.8,1.213.825,2.85.864,3.12.4s-1.013-1.264-.852-2.645c.04-.345.209-1.1.591-1.177.834-.175,1.147,3.164,3.6,4.769,2.248,1.472,4.45.172,5.243,1.488a3.1,3.1,0,0,1-1.43,3.829c-1.228.49-1.95-.922-4.589-1.273" transform="translate(-1503.466 -908.272)" fill="#ffcdad"/>
            <path id="Path_1001493" data-name="Path 1001493" d="M2019.519,939.45a66.394,66.394,0,0,0-2.25-12.27,11.231,11.231,0,0,0-3.723-4.684,8.92,8.92,0,0,0-2.25-1.141,13.5,13.5,0,0,0-6.452-.223l-.178.027-.179-.017a13.567,13.567,0,0,0-6.375.541l-.055.022h0a8.927,8.927,0,0,0-2.186,1.259,11.23,11.23,0,0,0-3.471,4.874,66.3,66.3,0,0,0-1.52,10.687q-.05.826-.08,1.685c-.049,1.43-.055,2.925,0,4.48h0q.056,1.695.207,3.48.042.5.094,1.005a65.849,65.849,0,0,0,1.4,8.385q.039.165.078.329a65.249,65.249,0,0,0,2.856,9,19.3,19.3,0,0,0,9.531,2.5q.5,0,.978-.031.481,0,.978-.02a19.3,19.3,0,0,0,9.386-3,65.682,65.682,0,0,0,3.393-17.915c.074-1.549.092-3.049.064-4.5-.031-1.555-.115-3.048-.24-4.473" transform="translate(-1730.218 -800.328)" fill="#0643a3"/>
            <path id="Path_1001494" data-name="Path 1001494" d="M1836.409,935.189c-3.783,3.356-1.952,7.976-4.69,12.037-2.288,3.393-7.8,6.447-21.885,5.109a4.722,4.722,0,0,0-1.9,5.234c.964.514,17.578,9.069,30.339.536,9.256-6.189,14.032-19.729,10.39-23.844-2.336-2.639-8.791-2.144-12.254.927" transform="translate(-1571.159 -810.503)" fill="#0643a3"/>
            <path id="Path_1001495" data-name="Path 1001495" d="M2045.966,939.26c-.789.982-1.6,1.543-2.375,1.456s-1.472-.816-2.063-1.969c-1.525-2.978-2.336-8.781-1.939-13.63a28.62,28.62,0,0,1,2.274-9.006,14.965,14.965,0,0,1,9.19-.1c.948,4.156-.151,10.234-.3,11-.8,4.238-2.726,9.68-4.792,12.247" transform="translate(-1772.57 -795.539)" fill="#fff"/>
            <path id="Path_1001496" data-name="Path 1001496" d="M2059.51,975.855c-.789.982-1.6,1.543-2.375,1.456s-1.472-.816-2.062-1.969l3.7-17.9,2.082.4-1.345,18.018" transform="translate(-1786.114 -832.135)" fill="#dd4a71"/>
            <path id="Path_1001497" data-name="Path 1001497" d="M2097.914,923.341c-.824-.84,3.3-7.307,5.047-6.751.775.247,1.047,1.865.8,2.976-.456,2.037-2.779,2.9-4.3,3.468-.9.337-1.355.5-1.55.307" transform="translate(-1823.255 -796.602)" fill="#fff"/>
            <path id="Path_1001498" data-name="Path 1001498" d="M2049.185,918.412c1.009-.688-1.5-7.46-3.295-7.313-.807.066-1.42,1.535-1.442,2.626-.045,2.192,2.276,3.562,3.255,4.139.792.467,1.225.723,1.482.547" transform="translate(-1776.879 -791.856)" fill="#fff"/>
            <path id="Path_1001499" data-name="Path 1001499" d="M2079.457,943.437l-1.781,1.126q.237,1.059.472,2.118a1.932,1.932,0,0,0,.829.461,2.006,2.006,0,0,0,1.408-.173l.7-2.316-1.634-1.216" transform="translate(-1805.758 -819.964)" fill="#db3a55"/>
            <path id="Path_1001500" data-name="Path 1001500" d="M2063.5,840.938a12.121,12.121,0,0,0-1.188,6.092,3.81,3.81,0,0,0,2.968,3.751,3.688,3.688,0,0,0,4.433-2.26,45.793,45.793,0,0,0,2.941-14.622c-1.128.3-6.626,1.9-9.155,7.04" transform="translate(-1792.388 -724.761)" fill="#fcbf9d"/>
            <path id="Path_1001501" data-name="Path 1001501" d="M2041.62,791.291a6.777,6.777,0,0,0-2.652,3c-.592,1.025-3.885,6.733-1.011,10.27,1.991,2.45,5.993,2.691,8.764,1.514,4.141-1.759,6.971-7.295,4.77-11.408-1.867-3.489-6.827-4.971-9.87-3.374" transform="translate(-1770.229 -687.173)" fill="#ffcdad"/>
            <path id="Path_1001502" data-name="Path 1001502" d="M2049.042,764.185a5.115,5.115,0,0,1-1.391-3.3c-.021-2.3,1.835-4.636,3.56-4.68.87-.022,1.057.557,2.557,1.342,2.2,1.154,3.436.757,5.265,1.37.354.119,3.655,1.342,4.785,4,1.9,4.478-3.478,10.371-4.355,10-.678-.291,1.694-4.178-.046-6.271-2.056-2.474-7.34.588-10.375-2.46" transform="translate(-1779.663 -657.235)" fill="#060352"/>
            <path id="Path_1001503" data-name="Path 1001503" d="M2052.024,885.054a7.819,7.819,0,0,0,3.363.956,8.267,8.267,0,0,0,2.7-.316,4.036,4.036,0,0,1-2.586,1.6,3.431,3.431,0,0,1-3.472-2.242" transform="translate(-1783.464 -769.222)" fill="#fff"/>
            <rect id="Rectangle_455585" data-name="Rectangle 455585" width="14.459" height="72.247" transform="matrix(0.317, -0.948, 0.948, 0.317, 207.427, 139.23)" fill="#16888c"/>
            <rect id="Rectangle_455586" data-name="Rectangle 455586" width="18.573" height="62.329" transform="translate(215.34 146.836) rotate(-71.499)" fill="#07a086"/>
            <rect id="Rectangle_455587" data-name="Rectangle 455587" width="18.573" height="60.41" transform="translate(205.91 143.681) rotate(-71.499)" fill="#42c5a0"/>
            <path id="Path_1001504" data-name="Path 1001504" d="M1628.9,974.844l53.4,17.868" transform="translate(-1415.719 -847.261)" fill="#56dbb2"/>
            <path id="Path_1001505" data-name="Path 1001505" d="M1681.344,991.93l-53.4-17.868a.137.137,0,1,1,.087-.26l53.4,17.868a.137.137,0,0,1-.087.26" transform="translate(-1414.807 -846.35)" fill="#56dbb2"/>
            <path id="Path_1001506" data-name="Path 1001506" d="M1667.726,997.228,1708.883,1011" transform="translate(-1449.462 -866.716)" fill="#56dbb2"/>
            <path id="Path_1001507" data-name="Path 1001507" d="M1708.113,1010.237l-41.157-13.772a.142.142,0,0,1,.087-.26l41.157,13.772a.142.142,0,0,1-.087.26" transform="translate(-1448.735 -865.823)" fill="#56dbb2"/>
            <path id="Path_1001508" data-name="Path 1001508" d="M1614,1018.951l46.511,15.564" transform="translate(-1402.768 -885.595)" fill="#56dbb2"/>
            <path id="Path_1001509" data-name="Path 1001509" d="M1659.662,1033.745l-46.511-15.564a.139.139,0,0,1,.087-.26l46.511,15.564a.138.138,0,0,1-.087.26" transform="translate(-1401.962 -884.695)" fill="#56dbb2"/>
            <path id="Path_1001510" data-name="Path 1001510" d="M1699.574,1056.978l29.045,9.719" transform="translate(-1477.141 -918.646)" fill="#56dbb2"/>
            <path id="Path_1001511" data-name="Path 1001511" d="M1728.024,1065.949l-29.045-9.719c-.039-.013-.051-.082-.027-.154s.075-.12.114-.107l29.045,9.719c.039.013.052.082.027.154s-.075.119-.114.106" transform="translate(-1476.59 -917.767)" fill="#56dbb2"/>
            <path id="Path_1001512" data-name="Path 1001512" d="M1684.8,1101.128l29.045,9.719" transform="translate(-1464.302 -957.018)" fill="#56dbb2"/>
            <path id="Path_1001513" data-name="Path 1001513" d="M1713.251,1110.1l-29.045-9.719c-.039-.013-.051-.082-.027-.154s.075-.12.114-.106l29.045,9.719c.039.013.051.082.027.154s-.075.12-.114.106" transform="translate(-1463.75 -956.139)" fill="#56dbb2"/>
            <path id="Path_1001514" data-name="Path 1001514" d="M1742.318,1127.373l29.045,9.719" transform="translate(-1514.291 -979.828)" fill="#56dbb2"/>
            <path id="Path_1001515" data-name="Path 1001515" d="M1770.768,1136.344l-29.045-9.719c-.039-.013-.051-.082-.027-.154s.075-.119.114-.106l29.045,9.719c.039.013.051.082.027.154s-.075.12-.114.106" transform="translate(-1513.74 -978.949)" fill="#56dbb2"/>
            <rect id="Rectangle_455588" data-name="Rectangle 455588" width="18.573" height="21.808" transform="matrix(0.317, -0.948, 0.948, 0.317, 224.213, 149.805)" fill="#f9bfa0"/>
            <rect id="Rectangle_455589" data-name="Rectangle 455589" width="18.573" height="20.239" transform="translate(224.957 150.054) rotate(-71.499)" fill="#fff"/>
            <path id="Path_1001516" data-name="Path 1001516" d="M2094.784,1137.856l5.574,1.865" transform="translate(-1820.628 -988.939)" fill="#0ebaa0"/>
            <path id="Path_1001517" data-name="Path 1001517" d="M2100.012,1138.987l-5.575-1.865a.343.343,0,0,1,.03-.135.348.348,0,0,1,.057-.125l5.574,1.865a.329.329,0,0,1-.03.135.348.348,0,0,1-.057.126" transform="translate(-1820.325 -988.074)" fill="#0ebaa0"/>
            <path id="Path_1001518" data-name="Path 1001518" d="M2096.306,1147.757l4.3,1.438" transform="translate(-1821.951 -997.544)" fill="#0ebaa0"/>
            <path id="Path_1001519" data-name="Path 1001519" d="M2100.262,1148.462l-4.3-1.438a.449.449,0,0,1,.033-.133.437.437,0,0,1,.054-.127l4.3,1.438a.876.876,0,0,1-.087.26" transform="translate(-1821.654 -996.681)" fill="#0ebaa0"/>
            <path id="Path_1001520" data-name="Path 1001520" d="M2080,1182l4.855,1.625" transform="translate(-1807.777 -1027.306)" fill="#0ebaa0"/>
            <path id="Path_1001521" data-name="Path 1001521" d="M2084.51,1182.891l-4.856-1.625a.39.39,0,0,1,.032-.134.374.374,0,0,1,.056-.126l4.855,1.625a.764.764,0,0,1-.087.26" transform="translate(-1807.477 -1026.442)" fill="#0ebaa0"/>
            <path id="Path_1001522" data-name="Path 1001522" d="M2086.4,1193.536l3.032,1.015" transform="translate(-1813.341 -1037.332)" fill="#0ebaa0"/>
            <path id="Path_1001523" data-name="Path 1001523" d="M2089.1,1193.816l-3.032-1.015a.6.6,0,0,1,.036-.132.613.613,0,0,1,.051-.128l3.032,1.015a1.221,1.221,0,0,1-.087.26" transform="translate(-1813.048 -1036.468)" fill="#0ebaa0"/>
            <path id="Path_1001524" data-name="Path 1001524" d="M2071.626,1237.686l3.032,1.015" transform="translate(-1800.501 -1075.703)" fill="#0ebaa0"/>
            <path id="Path_1001525" data-name="Path 1001525" d="M2074.321,1237.966l-3.032-1.015a.618.618,0,0,1,.036-.133.589.589,0,0,1,.051-.128l3.032,1.015a.634.634,0,0,1-.036.132.609.609,0,0,1-.051.128" transform="translate(-1800.208 -1074.839)" fill="#0ebaa0"/>
            <path id="Path_1001526" data-name="Path 1001526" d="M2075.745,1246.062l3.032,1.015" transform="translate(-1804.081 -1082.983)" fill="#0ebaa0"/>
            <path id="Path_1001527" data-name="Path 1001527" d="M2078.44,1246.343l-3.032-1.015a.622.622,0,0,1,.036-.133.6.6,0,0,1,.051-.127l3.032,1.015a.628.628,0,0,1-.036.132.6.6,0,0,1-.051.128" transform="translate(-1803.788 -1082.119)" fill="#0ebaa0"/>
            <path id="Path_1001528" data-name="Path 1001528" d="M1906.111,1185.018c-1.756.619-1.634,1.316-3.443,2.024-.943.369-3.175,1.255-5.137.164-2.113-1.175-3.331-4.214-2.56-5.388a1.213,1.213,0,0,1,.494-.423c1.019-.464,1.884,1.017,3.571,1.274,1.375.209,2.784-.474,2.821-1.011s-1.387-.691-1.824-2c-.109-.328-.278-1.077.014-1.318.637-.523,2.291,2.34,5.043,2.707,2.525.336,3.859-1.8,5.081-.964,1.04.71,1.257,3.041.375,4.068-.841.979-2.043.027-4.435.87" transform="translate(-1646.763 -1024.067)" fill="#ffcdad"/>
            <path id="Path_1001529" data-name="Path 1001529" d="M1999.494,940.8c-4.311,3.327-1.1,10.994-3.49,18.221-1.406,4.255-5.228,9.8-16.5,14.2a5.043,5.043,0,0,0-.547,3.1,4.877,4.877,0,0,0,1.105,2.438c1.034.039,18.729.435,26.041-12.834,5.114-9.278,3.984-23.581-1.068-25.985a5.613,5.613,0,0,0-5.541.865" transform="translate(-1719.914 -816.575)" fill="#0643a3"/>
            <path id="Path_1001530" data-name="Path 1001530" d="M170.718,1741.958v6.816a1.631,1.631,0,0,0,.05.4,1.4,1.4,0,0,0,1.318,1.1h57.822a1.4,1.4,0,0,0,1.319-1.1,1.631,1.631,0,0,0,.05-.4v-6.816a1.633,1.633,0,0,0-.05-.4,1.4,1.4,0,0,0-1.319-1.1H172.086a1.4,1.4,0,0,0-1.318,1.1,1.633,1.633,0,0,0-.05.4" transform="translate(-148.375 -1512.675)" fill="#f09c23"/>
            <path id="Path_1001531" data-name="Path 1001531" d="M170.717,1749.248v6.816a1.632,1.632,0,0,0,.05.4h60.459a1.631,1.631,0,0,0,.05-.4v-6.816a1.626,1.626,0,0,0-.05-.4H170.767a1.627,1.627,0,0,0-.05.4" transform="translate(-148.374 -1519.965)" fill="#f8cd12"/>
            <path id="Path_1001532" data-name="Path 1001532" d="M170.717,1749.248v6.816a1.632,1.632,0,0,0,.05.4h28.877v-7.62H170.767a1.627,1.627,0,0,0-.05.4" transform="translate(-148.374 -1519.965)" fill="#f29e30"/>
            <rect id="Rectangle_455590" data-name="Rectangle 455590" width="1.019" height="6.425" transform="translate(79.295 229.478)" fill="#f09c23"/>
            <rect id="Rectangle_455591" data-name="Rectangle 455591" width="1.019" height="6.425" transform="translate(75.897 229.478)" fill="#f09c23"/>
            <rect id="Rectangle_455592" data-name="Rectangle 455592" width="1.019" height="6.425" transform="translate(72.499 229.478)" fill="#f09c23"/>
            <rect id="Rectangle_455593" data-name="Rectangle 455593" width="1.019" height="6.425" transform="translate(69.101 229.478)" fill="#f09c23"/>
            <rect id="Rectangle_455594" data-name="Rectangle 455594" width="1.019" height="6.425" transform="translate(65.704 229.478)" fill="#f09c23"/>
            <rect id="Rectangle_455595" data-name="Rectangle 455595" width="1.019" height="6.425" transform="translate(62.306 229.478)" fill="#f09c23"/>
            <rect id="Rectangle_455596" data-name="Rectangle 455596" width="1.019" height="6.425" transform="translate(58.908 229.478)" fill="#f09c23"/>
            <rect id="Rectangle_455597" data-name="Rectangle 455597" width="1.019" height="6.425" transform="translate(55.51 229.478)" fill="#f09c23"/>
            <rect id="Rectangle_455598" data-name="Rectangle 455598" width="1.019" height="6.425" transform="translate(52.112 229.478)" fill="#f09c23"/>
            <rect id="Rectangle_455599" data-name="Rectangle 455599" width="1.019" height="6.425" transform="translate(48.714 229.478)" fill="#e58e1a"/>
            <rect id="Rectangle_455600" data-name="Rectangle 455600" width="1.019" height="6.425" transform="translate(45.317 229.478)" fill="#e58e1a"/>
            <rect id="Rectangle_455601" data-name="Rectangle 455601" width="1.019" height="6.425" transform="translate(41.919 229.478)" fill="#e58e1a"/>
            <rect id="Rectangle_455602" data-name="Rectangle 455602" width="1.019" height="6.425" transform="translate(38.521 229.478)" fill="#e58e1a"/>
            <rect id="Rectangle_455603" data-name="Rectangle 455603" width="1.019" height="6.425" transform="translate(35.123 229.478)" fill="#e58e1a"/>
            <rect id="Rectangle_455604" data-name="Rectangle 455604" width="1.019" height="6.425" transform="translate(31.725 229.478)" fill="#e58e1a"/>
            <rect id="Rectangle_455605" data-name="Rectangle 455605" width="1.019" height="6.425" transform="translate(28.327 229.478)" fill="#e58e1a"/>
            <rect id="Rectangle_455606" data-name="Rectangle 455606" width="1.019" height="6.425" transform="translate(24.93 229.478)" fill="#e58e1a"/>
            <path id="Path_1001533" data-name="Path 1001533" d="M200.574,1666.964v6.816a1.627,1.627,0,0,0,.05.4,1.4,1.4,0,0,0,1.318,1.1h57.822a1.4,1.4,0,0,0,1.319-1.1,1.632,1.632,0,0,0,.05-.4v-6.816a1.633,1.633,0,0,0-.05-.4,1.4,1.4,0,0,0-1.319-1.1H201.942a1.4,1.4,0,0,0-1.318,1.1,1.628,1.628,0,0,0-.05.4" transform="translate(-174.324 -1447.496)" fill="#f8cd12"/>
            <path id="Path_1001534" data-name="Path 1001534" d="M200.574,1674.254v6.816a1.631,1.631,0,0,0,.05.4h60.459a1.63,1.63,0,0,0,.05-.4v-6.816a1.625,1.625,0,0,0-.05-.4H200.624a1.626,1.626,0,0,0-.05.4" transform="translate(-174.324 -1454.786)" fill="#f8cd12"/>
            <path id="Path_1001535" data-name="Path 1001535" d="M200.574,1674.254v6.816a1.631,1.631,0,0,0,.05.4H229.5v-7.62H200.624a1.626,1.626,0,0,0-.05.4" transform="translate(-174.324 -1454.786)" fill="#f29e30"/>
            <rect id="Rectangle_455607" data-name="Rectangle 455607" width="1.019" height="6.425" transform="translate(83.202 219.663)" fill="#f8ea14"/>
            <rect id="Rectangle_455608" data-name="Rectangle 455608" width="1.019" height="6.425" transform="translate(79.805 219.663)" fill="#f8ea14"/>
            <rect id="Rectangle_455609" data-name="Rectangle 455609" width="1.019" height="6.425" transform="translate(76.407 219.663)" fill="#f8ea14"/>
            <rect id="Rectangle_455610" data-name="Rectangle 455610" width="1.019" height="6.425" transform="translate(73.009 219.663)" fill="#f8ea14"/>
            <rect id="Rectangle_455611" data-name="Rectangle 455611" width="1.019" height="6.425" transform="translate(69.611 219.663)" fill="#f8ea14"/>
            <rect id="Rectangle_455612" data-name="Rectangle 455612" width="1.019" height="6.425" transform="translate(66.213 219.663)" fill="#f8ea14"/>
            <rect id="Rectangle_455613" data-name="Rectangle 455613" width="1.019" height="6.425" transform="translate(62.815 219.663)" fill="#f8ea14"/>
            <rect id="Rectangle_455614" data-name="Rectangle 455614" width="1.019" height="6.425" transform="translate(59.418 219.663)" fill="#f8ea14"/>
            <rect id="Rectangle_455615" data-name="Rectangle 455615" width="1.019" height="6.425" transform="translate(56.02 219.663)" fill="#f8ea14"/>
            <rect id="Rectangle_455616" data-name="Rectangle 455616" width="1.019" height="6.425" transform="translate(52.622 219.663)" fill="#f8cd12"/>
            <rect id="Rectangle_455617" data-name="Rectangle 455617" width="1.019" height="6.425" transform="translate(49.224 219.663)" fill="#f8cd12"/>
            <rect id="Rectangle_455618" data-name="Rectangle 455618" width="1.019" height="6.425" transform="translate(45.826 219.663)" fill="#f8cd12"/>
            <rect id="Rectangle_455619" data-name="Rectangle 455619" width="1.019" height="6.425" transform="translate(42.429 219.663)" fill="#f8cd12"/>
            <rect id="Rectangle_455620" data-name="Rectangle 455620" width="1.019" height="6.425" transform="translate(39.031 219.663)" fill="#f8cd12"/>
            <rect id="Rectangle_455621" data-name="Rectangle 455621" width="1.019" height="6.425" transform="translate(35.633 219.663)" fill="#f8cd12"/>
            <rect id="Rectangle_455622" data-name="Rectangle 455622" width="1.019" height="6.425" transform="translate(32.235 219.663)" fill="#f8cd12"/>
            <rect id="Rectangle_455623" data-name="Rectangle 455623" width="1.019" height="6.425" transform="translate(28.837 219.663)" fill="#f8cd12"/>
            <path id="Path_1001536" data-name="Path 1001536" d="M170.718,1591.97v6.816a1.634,1.634,0,0,0,.05.4,1.4,1.4,0,0,0,1.318,1.1h57.822a1.4,1.4,0,0,0,1.319-1.1,1.634,1.634,0,0,0,.05-.4v-6.816a1.632,1.632,0,0,0-.05-.4,1.4,1.4,0,0,0-1.319-1.1H172.086a1.4,1.4,0,0,0-1.318,1.1,1.632,1.632,0,0,0-.05.4" transform="translate(-148.375 -1382.317)" fill="#f09c23"/>
            <path id="Path_1001537" data-name="Path 1001537" d="M170.717,1599.26v6.816a1.629,1.629,0,0,0,.05.4h60.459a1.628,1.628,0,0,0,.05-.4v-6.816a1.625,1.625,0,0,0-.05-.4H170.767a1.627,1.627,0,0,0-.05.4" transform="translate(-148.374 -1389.607)" fill="#f8cd12"/>
            <path id="Path_1001538" data-name="Path 1001538" d="M170.717,1599.26v6.816a1.629,1.629,0,0,0,.05.4h28.877v-7.62H170.767a1.627,1.627,0,0,0-.05.4" transform="translate(-148.374 -1389.607)" fill="#f29e30"/>
            <rect id="Rectangle_455624" data-name="Rectangle 455624" width="1.019" height="6.425" transform="translate(79.295 209.848)" fill="#f09c23"/>
            <rect id="Rectangle_455625" data-name="Rectangle 455625" width="1.019" height="6.425" transform="translate(75.897 209.848)" fill="#f09c23"/>
            <rect id="Rectangle_455626" data-name="Rectangle 455626" width="1.019" height="6.425" transform="translate(72.499 209.848)" fill="#f09c23"/>
            <rect id="Rectangle_455627" data-name="Rectangle 455627" width="1.019" height="6.425" transform="translate(69.101 209.848)" fill="#f09c23"/>
            <rect id="Rectangle_455628" data-name="Rectangle 455628" width="1.019" height="6.425" transform="translate(65.704 209.848)" fill="#f09c23"/>
            <rect id="Rectangle_455629" data-name="Rectangle 455629" width="1.019" height="6.425" transform="translate(62.306 209.848)" fill="#f09c23"/>
            <rect id="Rectangle_455630" data-name="Rectangle 455630" width="1.019" height="6.425" transform="translate(58.908 209.848)" fill="#f09c23"/>
            <rect id="Rectangle_455631" data-name="Rectangle 455631" width="1.019" height="6.425" transform="translate(55.51 209.848)" fill="#f09c23"/>
            <rect id="Rectangle_455632" data-name="Rectangle 455632" width="1.019" height="6.425" transform="translate(52.112 209.848)" fill="#f09c23"/>
            <rect id="Rectangle_455633" data-name="Rectangle 455633" width="1.019" height="6.425" transform="translate(48.714 209.848)" fill="#e58e1a"/>
            <rect id="Rectangle_455634" data-name="Rectangle 455634" width="1.019" height="6.425" transform="translate(45.317 209.848)" fill="#e58e1a"/>
            <rect id="Rectangle_455635" data-name="Rectangle 455635" width="1.019" height="6.425" transform="translate(41.919 209.848)" fill="#e58e1a"/>
            <rect id="Rectangle_455636" data-name="Rectangle 455636" width="1.019" height="6.425" transform="translate(38.521 209.848)" fill="#e58e1a"/>
            <rect id="Rectangle_455637" data-name="Rectangle 455637" width="1.019" height="6.425" transform="translate(35.123 209.848)" fill="#e58e1a"/>
            <rect id="Rectangle_455638" data-name="Rectangle 455638" width="1.019" height="6.425" transform="translate(31.725 209.848)" fill="#e58e1a"/>
            <rect id="Rectangle_455639" data-name="Rectangle 455639" width="1.019" height="6.425" transform="translate(28.327 209.848)" fill="#e58e1a"/>
            <rect id="Rectangle_455640" data-name="Rectangle 455640" width="1.019" height="6.425" transform="translate(24.93 209.848)" fill="#e58e1a"/>
            <path id="Path_1001539" data-name="Path 1001539" d="M180.808,1441.981v6.816a1.632,1.632,0,0,0,.05.4,1.4,1.4,0,0,0,1.318,1.1H240a1.4,1.4,0,0,0,1.319-1.1,1.63,1.63,0,0,0,.05-.4v-6.816a1.63,1.63,0,0,0-.05-.4,1.4,1.4,0,0,0-1.319-1.1H182.176a1.4,1.4,0,0,0-1.318,1.1,1.632,1.632,0,0,0-.05.4" transform="translate(-157.145 -1251.957)" fill="#f09c23"/>
            <path id="Path_1001540" data-name="Path 1001540" d="M180.807,1449.271v6.816a1.633,1.633,0,0,0,.05.4h60.459a1.639,1.639,0,0,0,.05-.4v-6.816a1.632,1.632,0,0,0-.05-.4H180.857a1.627,1.627,0,0,0-.05.4" transform="translate(-157.144 -1259.248)" fill="#f8cd12"/>
            <path id="Path_1001541" data-name="Path 1001541" d="M180.807,1449.271v6.816a1.633,1.633,0,0,0,.05.4h28.877v-7.62H180.857a1.627,1.627,0,0,0-.05.4" transform="translate(-157.144 -1259.248)" fill="#f29e30"/>
            <rect id="Rectangle_455641" data-name="Rectangle 455641" width="1.019" height="6.425" transform="translate(80.615 190.218)" fill="#f09c23"/>
            <rect id="Rectangle_455642" data-name="Rectangle 455642" width="1.019" height="6.425" transform="translate(77.218 190.218)" fill="#f09c23"/>
            <rect id="Rectangle_455643" data-name="Rectangle 455643" width="1.019" height="6.425" transform="translate(73.82 190.218)" fill="#f09c23"/>
            <rect id="Rectangle_455644" data-name="Rectangle 455644" width="1.019" height="6.425" transform="translate(70.422 190.218)" fill="#f09c23"/>
            <rect id="Rectangle_455645" data-name="Rectangle 455645" width="1.019" height="6.425" transform="translate(67.024 190.218)" fill="#f09c23"/>
            <rect id="Rectangle_455646" data-name="Rectangle 455646" width="1.019" height="6.425" transform="translate(63.626 190.218)" fill="#f09c23"/>
            <rect id="Rectangle_455647" data-name="Rectangle 455647" width="1.019" height="6.425" transform="translate(60.228 190.218)" fill="#f09c23"/>
            <rect id="Rectangle_455648" data-name="Rectangle 455648" width="1.019" height="6.425" transform="translate(56.831 190.218)" fill="#f09c23"/>
            <rect id="Rectangle_455649" data-name="Rectangle 455649" width="1.019" height="6.425" transform="translate(53.433 190.218)" fill="#f09c23"/>
            <rect id="Rectangle_455650" data-name="Rectangle 455650" width="1.019" height="6.425" transform="translate(50.035 190.218)" fill="#e58e1a"/>
            <rect id="Rectangle_455651" data-name="Rectangle 455651" width="1.019" height="6.425" transform="translate(46.637 190.218)" fill="#e58e1a"/>
            <rect id="Rectangle_455652" data-name="Rectangle 455652" width="1.019" height="6.425" transform="translate(43.239 190.218)" fill="#e58e1a"/>
            <rect id="Rectangle_455653" data-name="Rectangle 455653" width="1.019" height="6.425" transform="translate(39.841 190.218)" fill="#e58e1a"/>
            <rect id="Rectangle_455654" data-name="Rectangle 455654" width="1.019" height="6.425" transform="translate(36.444 190.218)" fill="#e58e1a"/>
            <rect id="Rectangle_455655" data-name="Rectangle 455655" width="1.019" height="6.425" transform="translate(33.046 190.218)" fill="#e58e1a"/>
            <rect id="Rectangle_455656" data-name="Rectangle 455656" width="1.019" height="6.425" transform="translate(29.648 190.218)" fill="#e58e1a"/>
            <rect id="Rectangle_455657" data-name="Rectangle 455657" width="1.019" height="6.425" transform="translate(26.25 190.218)" fill="#e58e1a"/>
            <path id="Path_1001542" data-name="Path 1001542" d="M200.574,1516.975v6.815a1.628,1.628,0,0,0,.05.4,1.4,1.4,0,0,0,1.318,1.1h57.822a1.4,1.4,0,0,0,1.319-1.1,1.633,1.633,0,0,0,.05-.4v-6.815a1.633,1.633,0,0,0-.05-.4,1.4,1.4,0,0,0-1.319-1.1H201.942a1.4,1.4,0,0,0-1.318,1.1,1.628,1.628,0,0,0-.05.4" transform="translate(-174.324 -1317.136)" fill="#f8cd12"/>
            <path id="Path_1001543" data-name="Path 1001543" d="M200.574,1524.265v6.816a1.629,1.629,0,0,0,.05.4h60.459a1.628,1.628,0,0,0,.05-.4v-6.816a1.625,1.625,0,0,0-.05-.4H200.624a1.626,1.626,0,0,0-.05.4" transform="translate(-174.324 -1324.427)" fill="#f8cd12"/>
            <path id="Path_1001544" data-name="Path 1001544" d="M200.574,1524.265v6.816a1.629,1.629,0,0,0,.05.4H229.5v-7.62H200.624a1.626,1.626,0,0,0-.05.4" transform="translate(-174.324 -1324.427)" fill="#f29e30"/>
            <rect id="Rectangle_455658" data-name="Rectangle 455658" width="1.019" height="6.425" transform="translate(83.202 200.033)" fill="#f8ea14"/>
            <rect id="Rectangle_455659" data-name="Rectangle 455659" width="1.019" height="6.425" transform="translate(79.805 200.033)" fill="#f8ea14"/>
            <rect id="Rectangle_455660" data-name="Rectangle 455660" width="1.019" height="6.425" transform="translate(76.407 200.033)" fill="#f8ea14"/>
            <rect id="Rectangle_455661" data-name="Rectangle 455661" width="1.019" height="6.425" transform="translate(73.009 200.033)" fill="#f8ea14"/>
            <rect id="Rectangle_455662" data-name="Rectangle 455662" width="1.019" height="6.425" transform="translate(69.611 200.033)" fill="#f8ea14"/>
            <rect id="Rectangle_455663" data-name="Rectangle 455663" width="1.019" height="6.425" transform="translate(66.213 200.033)" fill="#f8ea14"/>
            <rect id="Rectangle_455664" data-name="Rectangle 455664" width="1.019" height="6.425" transform="translate(62.815 200.033)" fill="#f8ea14"/>
            <rect id="Rectangle_455665" data-name="Rectangle 455665" width="1.019" height="6.425" transform="translate(59.418 200.033)" fill="#f8ea14"/>
            <rect id="Rectangle_455666" data-name="Rectangle 455666" width="1.019" height="6.425" transform="translate(56.02 200.033)" fill="#f8ea14"/>
            <rect id="Rectangle_455667" data-name="Rectangle 455667" width="1.019" height="6.425" transform="translate(52.622 200.033)" fill="#f8cd12"/>
            <rect id="Rectangle_455668" data-name="Rectangle 455668" width="1.019" height="6.425" transform="translate(49.224 200.033)" fill="#f8cd12"/>
            <rect id="Rectangle_455669" data-name="Rectangle 455669" width="1.019" height="6.425" transform="translate(45.826 200.033)" fill="#f8cd12"/>
            <rect id="Rectangle_455670" data-name="Rectangle 455670" width="1.019" height="6.425" transform="translate(42.429 200.033)" fill="#f8cd12"/>
            <rect id="Rectangle_455671" data-name="Rectangle 455671" width="1.019" height="6.425" transform="translate(39.031 200.033)" fill="#f8cd12"/>
            <rect id="Rectangle_455672" data-name="Rectangle 455672" width="1.019" height="6.425" transform="translate(35.633 200.033)" fill="#f8cd12"/>
            <rect id="Rectangle_455673" data-name="Rectangle 455673" width="1.019" height="6.425" transform="translate(32.235 200.033)" fill="#f8cd12"/>
            <rect id="Rectangle_455674" data-name="Rectangle 455674" width="1.019" height="6.425" transform="translate(28.837 200.033)" fill="#f8cd12"/>
            <path id="Path_1001545" data-name="Path 1001545" d="M150.829,1367.724v6.816a1.631,1.631,0,0,0,.05.4,1.4,1.4,0,0,0,1.318,1.1h57.822a1.4,1.4,0,0,0,1.319-1.1,1.632,1.632,0,0,0,.05-.4v-6.816a1.631,1.631,0,0,0-.05-.4,1.4,1.4,0,0,0-1.319-1.1H152.2a1.4,1.4,0,0,0-1.318,1.1,1.631,1.631,0,0,0-.05.4" transform="translate(-131.089 -1187.419)" fill="#f09c23"/>
            <path id="Path_1001546" data-name="Path 1001546" d="M150.829,1375.014v6.816a1.63,1.63,0,0,0,.05.4h60.459a1.63,1.63,0,0,0,.05-.4v-6.816a1.626,1.626,0,0,0-.05-.4H150.879a1.625,1.625,0,0,0-.05.4" transform="translate(-131.089 -1194.709)" fill="#f8cd12"/>
            <path id="Path_1001547" data-name="Path 1001547" d="M150.829,1375.014v6.816a1.63,1.63,0,0,0,.05.4h28.877v-7.62H150.879a1.625,1.625,0,0,0-.05.4" transform="translate(-131.089 -1194.709)" fill="#f29e30"/>
            <rect id="Rectangle_455675" data-name="Rectangle 455675" width="1.019" height="6.425" transform="translate(76.692 180.5)" fill="#f09c23"/>
            <rect id="Rectangle_455676" data-name="Rectangle 455676" width="1.019" height="6.425" transform="translate(73.294 180.5)" fill="#f09c23"/>
            <rect id="Rectangle_455677" data-name="Rectangle 455677" width="1.019" height="6.425" transform="translate(69.896 180.5)" fill="#f09c23"/>
            <rect id="Rectangle_455678" data-name="Rectangle 455678" width="1.019" height="6.425" transform="translate(66.498 180.5)" fill="#f09c23"/>
            <rect id="Rectangle_455679" data-name="Rectangle 455679" width="1.019" height="6.425" transform="translate(63.101 180.5)" fill="#f09c23"/>
            <rect id="Rectangle_455680" data-name="Rectangle 455680" width="1.019" height="6.425" transform="translate(59.703 180.5)" fill="#f09c23"/>
            <rect id="Rectangle_455681" data-name="Rectangle 455681" width="1.019" height="6.425" transform="translate(56.305 180.5)" fill="#f09c23"/>
            <rect id="Rectangle_455682" data-name="Rectangle 455682" width="1.019" height="6.425" transform="translate(52.907 180.5)" fill="#f09c23"/>
            <rect id="Rectangle_455683" data-name="Rectangle 455683" width="1.019" height="6.425" transform="translate(49.509 180.5)" fill="#f09c23"/>
            <rect id="Rectangle_455684" data-name="Rectangle 455684" width="1.019" height="6.425" transform="translate(46.111 180.5)" fill="#e58e1a"/>
            <rect id="Rectangle_455685" data-name="Rectangle 455685" width="1.019" height="6.425" transform="translate(42.714 180.5)" fill="#e58e1a"/>
            <rect id="Rectangle_455686" data-name="Rectangle 455686" width="1.019" height="6.425" transform="translate(39.316 180.5)" fill="#e58e1a"/>
            <rect id="Rectangle_455687" data-name="Rectangle 455687" width="1.019" height="6.425" transform="translate(35.918 180.5)" fill="#e58e1a"/>
            <rect id="Rectangle_455688" data-name="Rectangle 455688" width="1.019" height="6.425" transform="translate(32.52 180.5)" fill="#e58e1a"/>
            <rect id="Rectangle_455689" data-name="Rectangle 455689" width="1.019" height="6.425" transform="translate(29.122 180.5)" fill="#e58e1a"/>
            <rect id="Rectangle_455690" data-name="Rectangle 455690" width="1.019" height="6.425" transform="translate(25.725 180.5)" fill="#e58e1a"/>
            <rect id="Rectangle_455691" data-name="Rectangle 455691" width="1.019" height="6.425" transform="translate(22.327 180.5)" fill="#e58e1a"/>
            <path id="Path_1001548" data-name="Path 1001548" d="M180.686,1292.729v6.816a1.633,1.633,0,0,0,.05.4,1.4,1.4,0,0,0,1.318,1.1h57.822a1.4,1.4,0,0,0,1.319-1.1,1.633,1.633,0,0,0,.05-.4v-6.816a1.631,1.631,0,0,0-.05-.4,1.4,1.4,0,0,0-1.319-1.1H182.054a1.4,1.4,0,0,0-1.318,1.1,1.631,1.631,0,0,0-.05.4" transform="translate(-157.039 -1122.239)" fill="#f8cd12"/>
            <path id="Path_1001549" data-name="Path 1001549" d="M180.685,1300.019v6.816a1.629,1.629,0,0,0,.05.4h60.459a1.63,1.63,0,0,0,.05-.4v-6.816a1.628,1.628,0,0,0-.05-.4H180.735a1.627,1.627,0,0,0-.05.4" transform="translate(-157.038 -1129.529)" fill="#f8cd12"/>
            <path id="Path_1001550" data-name="Path 1001550" d="M180.685,1300.019v6.816a1.629,1.629,0,0,0,.05.4h28.877v-7.62H180.735a1.627,1.627,0,0,0-.05.4" transform="translate(-157.038 -1129.529)" fill="#f29e30"/>
            <rect id="Rectangle_455692" data-name="Rectangle 455692" width="1.019" height="6.425" transform="translate(80.6 170.685)" fill="#f8ea14"/>
            <rect id="Rectangle_455693" data-name="Rectangle 455693" width="1.019" height="6.425" transform="translate(77.202 170.685)" fill="#f8ea14"/>
            <rect id="Rectangle_455694" data-name="Rectangle 455694" width="1.019" height="6.425" transform="translate(73.804 170.685)" fill="#f8ea14"/>
            <rect id="Rectangle_455695" data-name="Rectangle 455695" width="1.019" height="6.425" transform="translate(70.406 170.685)" fill="#f8ea14"/>
            <rect id="Rectangle_455696" data-name="Rectangle 455696" width="1.019" height="6.425" transform="translate(67.008 170.685)" fill="#f8ea14"/>
            <rect id="Rectangle_455697" data-name="Rectangle 455697" width="1.019" height="6.425" transform="translate(63.61 170.685)" fill="#f8ea14"/>
            <rect id="Rectangle_455698" data-name="Rectangle 455698" width="1.019" height="6.425" transform="translate(60.213 170.685)" fill="#f8ea14"/>
            <rect id="Rectangle_455699" data-name="Rectangle 455699" width="1.019" height="6.425" transform="translate(56.815 170.685)" fill="#f8ea14"/>
            <rect id="Rectangle_455700" data-name="Rectangle 455700" width="1.019" height="6.425" transform="translate(53.417 170.685)" fill="#f8ea14"/>
            <rect id="Rectangle_455701" data-name="Rectangle 455701" width="1.019" height="6.425" transform="translate(50.019 170.685)" fill="#f8cd12"/>
            <rect id="Rectangle_455702" data-name="Rectangle 455702" width="1.019" height="6.425" transform="translate(46.621 170.685)" fill="#f8cd12"/>
            <rect id="Rectangle_455703" data-name="Rectangle 455703" width="1.019" height="6.425" transform="translate(43.223 170.685)" fill="#f8cd12"/>
            <rect id="Rectangle_455704" data-name="Rectangle 455704" width="1.019" height="6.425" transform="translate(39.826 170.685)" fill="#f8cd12"/>
            <rect id="Rectangle_455705" data-name="Rectangle 455705" width="1.019" height="6.425" transform="translate(36.428 170.685)" fill="#f8cd12"/>
            <rect id="Rectangle_455706" data-name="Rectangle 455706" width="1.019" height="6.425" transform="translate(33.03 170.685)" fill="#f8cd12"/>
            <rect id="Rectangle_455707" data-name="Rectangle 455707" width="1.019" height="6.425" transform="translate(29.632 170.685)" fill="#f8cd12"/>
            <rect id="Rectangle_455708" data-name="Rectangle 455708" width="1.019" height="6.425" transform="translate(26.234 170.685)" fill="#f8cd12"/>
            <path id="Path_1001551" data-name="Path 1001551" d="M472.209,1309.919c5.843.379,6.15.685,6.528,6.528.378-5.843.685-6.15,6.528-6.528-5.843-.378-6.15-.685-6.528-6.528-.379,5.843-.685,6.15-6.528,6.528" transform="translate(-410.408 -1132.809)" fill="#fff"/>
            <path id="Path_1001552" data-name="Path 1001552" d="M310.183,1471.945c5.843.378,6.15.685,6.528,6.528.378-5.843.685-6.15,6.528-6.528-5.843-.378-6.15-.685-6.528-6.528-.379,5.843-.685,6.15-6.528,6.528" transform="translate(-269.588 -1273.63)" fill="#fff"/>
            <path id="Path_1001553" data-name="Path 1001553" d="M310.183,1671.025c5.843.379,6.15.685,6.528,6.528.378-5.843.685-6.15,6.528-6.528-5.843-.379-6.15-.685-6.528-6.528-.379,5.843-.685,6.15-6.528,6.528" transform="translate(-269.588 -1446.655)" fill="#fff"/>
            <path id="Path_1001554" data-name="Path 1001554" d="M527.043,1546.183a20.65,20.65,0,1,1-20.65-20.65,20.65,20.65,0,0,1,20.65,20.65" transform="translate(-422.171 -1325.878)" fill="#f8ea14"/>
            <path id="Path_1001555" data-name="Path 1001555" d="M540.6,1562.147a18.246,18.246,0,1,1-18.246-18.246,18.246,18.246,0,0,1,18.246,18.246" transform="translate(-438.135 -1341.842)" fill="#f09c23"/>
            <path id="Path_1001556" data-name="Path 1001556" d="M546.716,1569.344a17.162,17.162,0,1,1-17.162-17.162,17.162,17.162,0,0,1,17.162,17.162" transform="translate(-445.333 -1349.039)" fill="#f8cd12"/>
            <path id="Path_1001557" data-name="Path 1001557" d="M598.768,1590.206a7.445,7.445,0,0,1-.485,3.255,6.444,6.444,0,0,1-1.776,2.461,8.752,8.752,0,0,1-2.835,1.6c-.41.125-.821.25-1.258.351l.042.831a1.15,1.15,0,0,1-1.059,1.2l-.857.044a1.149,1.149,0,0,1-1.175-1.086l-.033-.65a9.671,9.671,0,0,1-1.75-.093,13,13,0,0,1-2.05-.364,12.748,12.748,0,0,1-1.539-.547,3.984,3.984,0,0,1-.938-.525,1.354,1.354,0,0,1-.453-.706,4.251,4.251,0,0,1-.221-1.265,3.614,3.614,0,0,1,.036-.835,5.166,5.166,0,0,1,.076-.551.5.5,0,0,1,.218-.323.693.693,0,0,1,.308-.094,1.738,1.738,0,0,1,.875.294c.375.215.856.451,1.416.709a15.679,15.679,0,0,0,1.961.655,8.665,8.665,0,0,0,2.59.232,6.618,6.618,0,0,0,1.961-.36,3.943,3.943,0,0,0,1.5-.754,3.131,3.131,0,0,0,.953-1.221,3.774,3.774,0,0,0,.252-1.706,2.74,2.74,0,0,0-.578-1.637A5.425,5.425,0,0,0,592.56,1588a11.7,11.7,0,0,0-1.943-.812c-.69-.251-1.431-.474-2.174-.749a22.968,22.968,0,0,1-2.206-.877,8.3,8.3,0,0,1-1.941-1.281,5.915,5.915,0,0,1-1.423-1.855,6.476,6.476,0,0,1-.656-2.649,6.548,6.548,0,0,1,.41-2.678,6,6,0,0,1,1.472-2.289,8.614,8.614,0,0,1,2.6-1.669,10.261,10.261,0,0,1,1.332-.432l-.056-1.091a1.127,1.127,0,0,1,1.06-1.174l.857-.044a1.127,1.127,0,0,1,1.174,1.06l.046.909c.391.006.783.038,1.176.07a12.337,12.337,0,0,1,1.71.329,9.011,9.011,0,0,1,1.326.453,7.4,7.4,0,0,1,.832.479,1.586,1.586,0,0,1,.382.345,1.306,1.306,0,0,1,.147.331c.033.129.067.283.1.49a5.45,5.45,0,0,1,.062.7,6.6,6.6,0,0,1,.013.755,2.163,2.163,0,0,1-.1.526.757.757,0,0,1-.218.324.525.525,0,0,1-.282.093,1.621,1.621,0,0,1-.69-.251c-.3-.167-.7-.355-1.175-.565a12.114,12.114,0,0,0-1.693-.513,6.859,6.859,0,0,0-2.172-.2,7.224,7.224,0,0,0-1.935.359,3.339,3.339,0,0,0-1.315.771,2.483,2.483,0,0,0-.751,1.106,2.938,2.938,0,0,0-.217,1.365,2.728,2.728,0,0,0,.606,1.662,5.151,5.151,0,0,0,1.413,1.152,12.951,12.951,0,0,0,1.944.838c.742.249,1.458.5,2.226.746.742.249,1.487.549,2.232.876a8.278,8.278,0,0,1,1.964,1.228,5.768,5.768,0,0,1,1.446,1.8,6.186,6.186,0,0,1,.626,2.573" transform="translate(-506.011 -1364.868)" fill="#e34f25"/>
            <path id="Path_1001558" data-name="Path 1001558" d="M693.516,1543.571c-5.022.325-5.286.589-5.611,5.611-.325-5.022-.589-5.286-5.611-5.611,5.022-.325,5.286-.589,5.611-5.611.325,5.022.589,5.286,5.611,5.611" transform="translate(-592.998 -1336.679)" fill="#fff"/>
            <path id="Path_1001559" data-name="Path 1001559" d="M730.034,317.719c1.39-1.038,1.087-1.59,2.5-2.718.736-.588,2.476-1.991,4.525-1.649,2.207.368,4.137,2.572,3.778,3.787a1.127,1.127,0,0,1-.322.5c-.777.691-1.96-.3-3.532-.023-1.282.228-2.345,1.218-2.228,1.682s1.427.174,2.181,1.151c.188.244.547.826.354,1.114-.421.628-2.69-1.3-5.241-.8-2.34.459-2.932,2.65-4.252,2.307a2.75,2.75,0,0,1-1.466-3.318c.476-1.072,1.81-.624,3.7-2.037" transform="translate(-631.144 -272.296)" fill="#ffcdad"/>
            <path id="Path_1001560" data-name="Path 1001560" d="M368.768,333.7a38.514,38.514,0,0,0,12.1,5.826c14.381,4,26.745-1.836,30.47-3.776a5.7,5.7,0,0,1,3.445,4.366c-3.7,2.588-16.712,11.013-34.117,9.018a48.191,48.191,0,0,1-20.322-7.267l8.421-8.167" transform="translate(-313.186 -290.025)" fill="#3dbbd8"/>
            <path id="Path_1001561" data-name="Path 1001561" d="M402.4,1213.831c3.325,3.478,7.46,2.964,7.89,5.293a3.28,3.28,0,0,1-1.124,2.767c-3.959,3.62-18.055-2.143-18.188-7.314-.081-3.16,5.037-6.715,7.834-5.745,1.752.608,1.213,2.514,3.588,5" transform="translate(-339.804 -1050.485)" fill="#153663"/>
            <path id="Path_1001562" data-name="Path 1001562" d="M8.878,965.98c-1.169,4.667,1.471,7.891-.27,9.5a3.28,3.28,0,0,1-2.94.524c-5.174-1.418-7.816-16.416-3.513-19.286,2.63-1.754,8.366.68,9.037,3.563.42,1.806-1.479,2.367-2.315,5.7" transform="translate(0 -830.992)" fill="#153663"/>
            <path id="Path_1001563" data-name="Path 1001563" d="M120.882,570.988c2.381,3.1,6.9,10.013,8.165,26.029,1.527,19.356-2.917,36.642-8.13,49.687a6.362,6.362,0,0,1-5.295-.161,5.936,5.936,0,0,1-2.407-2.46c5.947-17.045,6.15-30.664,5.348-39.579-.136-1.514-1.686-17.882-5.562-18.185-2.892-.226-4.133,8.543-9.413,16.045-4.808,6.832-14.217,14.384-34.444,17.329a9,9,0,0,1-1.07-7.488c2.732-.2,16.79-1.52,24.389-12.408a32.832,32.832,0,0,0,5.562-15.831c.414-5.679-1.051-8.159,0-13.264a24.625,24.625,0,0,1,6.632-11.981,39.834,39.834,0,0,1,16.224,12.266" transform="translate(-58.836 -485.599)" fill="#0643a3"/>
            <path id="Path_1001564" data-name="Path 1001564" d="M314.851,338.761a13.881,13.881,0,0,1,3.894,8.78c.5,3.811-.4,6.855-1.559,10.81-1.106,3.768-1.775,4.271-2.514,7.144a26.493,26.493,0,0,0-.528,10.329,27.864,27.864,0,0,1-21.322-1.019,59.107,59.107,0,0,1-1.224-22.467c1.2-8.4,3.594-11.344,5.014-12.754a13.667,13.667,0,0,1,9.418-4.275,12.918,12.918,0,0,1,8.821,3.453" transform="translate(-252.95 -291.424)" fill="#62cbec"/>
            <path id="Path_1001565" data-name="Path 1001565" d="M404.327,251.065a13.421,13.421,0,0,1-1.427,6.118,3.5,3.5,0,0,1-6.758-1.655,50.9,50.9,0,0,1,3.351-14.722,14.581,14.581,0,0,1,4.835,10.259" transform="translate(-344.275 -209.291)" fill="#ffbc97"/>
            <path id="Path_1001566" data-name="Path 1001566" d="M413.306,217.493a6.864,6.864,0,0,1,1.175,3.881c.112,1.194.733,7.84-3.407,9.882-2.868,1.415-6.654-.054-8.708-2.309-3.069-3.369-3.336-9.661.428-12.518,3.193-2.424,8.386-1.692,10.513,1.064" transform="translate(-347.664 -186.828)" fill="#ffcdad"/>
            <path id="Path_1001567" data-name="Path 1001567" d="M406.026,175.217c.982-.367,1.537-1.086,2.675-2.452a10.629,10.629,0,0,0,2.642-6.38c.033-1,.115-3.44-1.033-3.96-1.28-.58-2.469,1.958-6.2,3.1-1.664.509-1.739.1-5.058.621-3.35.527-5.022.807-6.1,1.665-3.879,3.093-1.3,12.54-.348,12.535.753,0-.038-5.936,2.826-7.247,2.985-1.367,6.666,3.585,10.591,2.119" transform="translate(-339.727 -141.094)" fill="#060352"/>
            <path id="Path_1001568" data-name="Path 1001568" d="M444.829,312.771a7.919,7.919,0,0,1-3.5-.541,8.368,8.368,0,0,1-2.348-1.429,4.087,4.087,0,0,0,1.7,2.567,3.476,3.476,0,0,0,4.144-.6" transform="translate(-381.529 -270.125)" fill="#fff"/>
            <path id="Path_1001569" data-name="Path 1001569" d="M517.782,681.443c1.563.753,1.912.229,3.565.961.862.381,2.91,1.275,3.553,3.251.693,2.127-.369,4.857-1.613,5.1a1.124,1.124,0,0,1-.594-.054c-.971-.37-.637-1.878-1.612-3.143-.795-1.031-2.164-1.517-2.521-1.2s.5,1.346-.013,2.466c-.129.28-.48.867-.824.829-.751-.083-.092-2.986-1.714-5.016-1.488-1.863-3.7-1.376-4.01-2.7a2.75,2.75,0,0,1,2.265-2.834c1.171-.074,1.389,1.317,3.517,2.343" transform="translate(-444.963 -590.22)" fill="#ffcdad"/>
          </g>
        </g>
        <g id="Group_1178781" data-name="Group 1178781" transform="translate(43.429 48.518)">
          <g id="Group_1178780" data-name="Group 1178780" clip-path="url(#clip-path-5)">
            <rect id="Rectangle_455710" data-name="Rectangle 455710" width="54.735" height="44.077" transform="matrix(0.346, -0.938, 0.938, 0.346, -15.636, 41.793)" fill="url(#linear-gradient)"/>
          </g>
        </g>
        <g id="Group_1178783" data-name="Group 1178783" transform="translate(0 0)">
          <g id="Group_1178782" data-name="Group 1178782" clip-path="url(#clip-path)">
            <path id="Path_1001571" data-name="Path 1001571" d="M1027.118,1211.408a8.354,8.354,0,0,0-2.376.345,3.715,3.715,0,0,1-6.16-4.154,5.192,5.192,0,0,0-10.384,0c0,.089,0,.178.007.267q-.133-.007-.267-.007a5.194,5.194,0,0,0-5.029,3.9,8.329,8.329,0,0,0-3.852-.217,22,22,0,0,1-13.475-3.68,5.191,5.191,0,0,0-5.179,4.851,8.348,8.348,0,1,0,2,12.315,6.7,6.7,0,0,0,11.432-.27,8.346,8.346,0,0,0,12.434,1.056,8.346,8.346,0,0,0,13.3-2.49,8.349,8.349,0,1,0,7.551-11.913m-11.341.9-.092-.047c.053-.026.106-.053.158-.081-.023.042-.044.085-.066.128" transform="translate(-840.947 -1045.042)" fill="#9de8f4"/>
            <path id="Path_1001572" data-name="Path 1001572" d="M1027.118,1227.2a8.345,8.345,0,0,0-2.376.345,3.715,3.715,0,0,1-6.16-4.154,5.192,5.192,0,0,0-10.384,0c0,.089,0,.178.007.267-.088,0-.177-.007-.267-.007a5.194,5.194,0,0,0-5.029,3.9,8.322,8.322,0,0,0-3.852-.217,21.993,21.993,0,0,1-13.475-3.68,5.191,5.191,0,0,0-5.179,4.851,8.348,8.348,0,1,0,2,12.315,6.7,6.7,0,0,0,11.432-.271,8.346,8.346,0,0,0,12.434,1.056,8.346,8.346,0,0,0,13.3-2.49,8.349,8.349,0,1,0,7.551-11.913m-11.341.9-.092-.047c.053-.026.106-.053.158-.081-.023.042-.044.085-.066.128" transform="translate(-840.947 -1058.763)" fill="#fff"/>
          </g>
        </g>
      </g>
    </g>
  </g>
</svg>
